<?xml version="1.0" encoding="utf-8"?>
<!-- Generator: Adobe Illustrator 27.0.0, SVG Export Plug-In . SVG Version: 6.00 Build 0)  -->
<svg version="1.1" id="Layer_1" xmlns="http://www.w3.org/2000/svg" xmlns:xlink="http://www.w3.org/1999/xlink" x="0px" y="0px"
	 viewBox="0 0 146.57 18.42" style="enable-background:new 0 0 146.57 18.42;" xml:space="preserve">
<style type="text/css">
	.st0{fill-rule:evenodd;clip-rule:evenodd;fill:#DFB251;}
</style>
<g>
	<polygon class="st0" points="59.38,2.29 66.32,2.29 66.32,12.32 70.95,12.32 70.95,15.41 66.32,15.41 59.38,15.41 59.38,12.32 
		59.38,2.29 59.38,2.29 	"/>
	<path class="st0" d="M92.56,15.41h6.94V7.69h3.86V4.61H99.5h-5.4v0c-0.77,0-1.54,0.77-1.54,1.54v1.54V15.41L92.56,15.41
		L92.56,15.41z"/>
	<path class="st0" d="M120.58,4.61H108.4c-5.66,0-5.65,10.8,0,10.8h13.48v-3.09h-10.8v-1.54h9.5
		C123.36,10.78,123.32,4.61,120.58,4.61L120.58,4.61L120.58,4.61L120.58,4.61z M111.08,7.69h5.4v1.54h-5.4V7.69L111.08,7.69
		L111.08,7.69z"/>
	<path class="st0" d="M74.57,15.41h12.18c5.66,0,5.65-10.8,0-10.8H73.26v3.09h10.8v1.54h-9.5C71.79,9.24,71.83,15.41,74.57,15.41
		L74.57,15.41L74.57,15.41L74.57,15.41z M84.07,12.32h-5.4v-1.54h5.4V12.32L84.07,12.32L84.07,12.32z"/>
	<path class="st0" d="M57.83,4.61H44.17c-5.42,0-5.41,10.8,0,10.8h13.66v-3.09h-8.87c-2.56,0-2.56-4.63,0-4.63h8.87V4.61L57.83,4.61
		L57.83,4.61z"/>
	<polygon class="st0" points="33.12,2.3 33.13,2.29 33.13,2.29 38.54,2.29 38.54,15.41 31.6,15.41 31.6,9.24 24.65,15.41 
		17.78,15.41 17.78,9.24 10.84,15.41 3,15.41 19.33,2.29 19.33,2.29 19.33,2.29 24.65,2.29 24.65,9.24 33.12,2.3 33.12,2.3 	"/>
	<path class="st0" d="M135.77,4.61h2.41c2.28,0,3.68,1.45,3.77,2.94v7.87h-6.17v-5.39c0-1.61-1.54-2.33-4.63-2.33v7.72h-6.94V4.61
		h6.94H135.77L135.77,4.61L135.77,4.61z"/>
</g>
</svg>
