<?xml version="1.0" encoding="utf-8"?>
<!-- Generator: Adobe Illustrator 27.0.0, SVG Export Plug-In . SVG Version: 6.00 Build 0)  -->
<svg version="1.0" id="Layer_1" xmlns="http://www.w3.org/2000/svg" xmlns:xlink="http://www.w3.org/1999/xlink" x="0px" y="0px"
	 viewBox="0 0 240 32" style="enable-background:new 0 0 240 32;" xml:space="preserve">
<polygon points="11.4,7.8 11.4,7.8 11.4,7.8 "/>
<path d="M14.5,17.7c0.2-0.5,2.9-6.6,3.2-7.4c0.3,0.7,3,6.9,3.2,7.4H14.5z M19,5.5h-1L7.8,27.9h2.8l0-0.1c0.8-2.7,1.9-5.3,2.9-7.8
	c0,0,0.1-0.4,0.2-0.5h7.9c1.1,2.4,2.1,5.1,3.3,8.4l0,0.1h3.8L19,5.5z"/>
<path d="M29.9,26.3L29.9,26.3c1.3,1.4,4,2,5.5,2c4.8,0,8.1-3,8.1-7.4c0-3.6-2.8-4.7-5.5-5.7c-2.4-0.9-4.6-1.8-4.6-4.5
	c0-2,1.6-3.5,3.8-3.5c1.8,0,3.1,0.9,3.8,2.6l0,0.1h0.6l1-2.8L42.5,7c-1.3-1.2-3.3-1.6-4.7-1.6c-4.5,0-7.3,2.4-7.3,6.2
	c0,3.9,2.9,5,5.5,6c2.3,0.9,4.5,1.7,4.5,4.4c0,2.5-1.9,4.4-4.3,4.4c-2.2,0-3.6-0.9-5-3.2l-0.1-0.1h-0.6L29.9,26.3z"/>
<path d="M61.5,5.9H44.7v2.3l0.2,0c1.9-0.2,3.8-0.4,6.8-0.4V28H55V7.9c2.3,0,4.4,0.1,6.5,0.4l0.2,0V5.9H61.5z"/>
<path d="M78.9,24.3c-1.6,1.7-3.6,2.5-5.9,2.5c-5.2,0-8.6-3.7-8.6-9.5c0-6.4,3.4-10.4,8.8-10.4c2.6,0,5,1.1,6.5,3
	c1.6,2.1,2,4.2,2,6.8c0,0.1,0,0.3,0,0.5C81.8,19.2,81,22.2,78.9,24.3 M73,5.5c-7.1,0-12.1,4.7-12.1,11.4c0,6.8,4.8,11.3,12,11.3
	c7.4,0,12.4-4.7,12.4-11.8C85.4,8.9,79.1,5.5,73,5.5"/>
<path d="M107.7,5.9h-2v16.2h0C105.5,22,90.4,5.9,90.4,5.9h-1.5v21.9H91v-17h0c0.1,0.1,13.8,15,13.8,15l1.7,2l0.1,0h1.2V5.9H107.7z"
	/>
<path d="M143.7,5.9h-0.8l-5.4,9.6c0,0-3.4,6.1-3.7,6.7c-3.3-5.5-6.3-11.2-8.9-16.2l-0.1-0.1h-1.1l0,0.2c-0.3,3.2-2.2,16.4-3.1,21.5
	l0,0.2h2.7v-0.2c0-3.1,0.6-7.7,1.1-12.6c0,0,0.3-2.2,0.4-3c0.4,0.7,4.6,8.6,6.2,11.8l1.8,3.7h0.6l0.1-0.1c1.9-4.2,4.5-9,8.1-15.4
	c0.5,3.8,1.2,11.3,1.6,15.7l0,0.2h3.4l0-0.2c-0.8-5.3-1.6-12.4-2.6-21.5l0-0.2H143.7z"/>
<path d="M154.5,17.7c0.2-0.5,2.9-6.6,3.2-7.4c0.3,0.7,3,6.9,3.3,7.4H154.5z M159,5.5h-0.1H158l-10.2,22.4h2.8l0-0.1
	c0.8-2.7,1.9-5.4,2.9-7.9c0,0,0.1-0.3,0.2-0.5h7.9c1.1,2.4,2.2,5.2,3.3,8.4l0,0.1h3.8L159,5.5z"/>
<path d="M173.9,15.8V7.5c1.3-0.1,3.4-0.1,4.5,0c2.2,0.4,3.4,1.6,3.4,3.8c0,2.2-1.5,3.8-3.9,4.3C176.4,15.9,174.7,15.8,173.9,15.8
	 M178.6,17c4-0.8,6.4-3.1,6.4-6.1c0-3.4-2.4-5-7.3-5h-6.8h-0.2v21.9h3.2V17.4h0.9c0.1,0.1,2.5,2.9,2.5,2.9c0,0,3.8,4.8,3.8,4.8
	l2.1,2.8h0.1h4.1C187.4,27.9,179,17.5,178.6,17"/>
<path d="M203.6,5.9h-16.8v2.3l0.2,0c1.9-0.2,3.8-0.4,6.8-0.4V28h3.2V7.9c2.3,0,4.5,0.1,6.5,0.4l0.2,0V5.9H203.6z"/>
<rect x="206.4" y="5.9" width="3" height="21.9"/>
<path d="M231,5.9v16.2h0c-0.1-0.1-15.2-16.2-15.2-16.2h-1.5v21.9h2.2v-17h0c0.1,0.1,13.8,15,13.8,15l1.7,2l1.3,0V5.9H231z"/>
</svg>
