<?xml version="1.0" encoding="utf-8"?>
<!-- Generator: Adobe Illustrator 27.0.0, SVG Export Plug-In . SVG Version: 6.00 Build 0)  -->
<svg version="1.1" id="_x0031_" xmlns="http://www.w3.org/2000/svg" xmlns:xlink="http://www.w3.org/1999/xlink" x="0px" y="0px"
	 viewBox="0 0 437.9 67.7" style="enable-background:new 0 0 437.9 67.7;" xml:space="preserve">
<style type="text/css">
	.st0{fill:#FFFFFF;}
</style>
<g>
	<g id="_x32_qV1Nn.tif_00000135651133250681949090000009792697421302410923_">
		<g>
			<path class="st0" d="M171.7,7.4c0.5,4.9-2.7,4.6-5.8,4.6c-40.2,0-80.5,0-120.7,0c-6.2,0-12.3,0.1-18.5,0c-3.7-0.1-5.8,1.4-6.8,5
				c-2.9,9.8-6.2,19.6-9.1,29.4c-1.6,5.2,0.4,7.8,6,7.8c16.3,0.1,32.6-0.1,48.9,0.1c3.8,0,5.9-1.6,6.9-5c1.2-4.1,2.3-8.2,3.7-12.2
				c1.5-4,0.1-5.4-4-5.4c-8.8,0.1-17.6,0-26.5,0c-0.3-3.6,0.8-5.1,4.4-5.1c9.1,0.1,18.3,0,27.4,0.1c4.9,0.1,6.3,2,5,6.5
				C80.8,39.5,79,45.6,77,51.6c-1.7,5.1-5.3,7.7-10.8,7.7c-16.6,0-33.2,0.1-49.9,0c-8.2,0-12.7-6-10.4-13.8
				c3-10.2,6.1-20.3,9.3-30.4c1.8-5.6,5.1-8,11-8c47.2,0,94.4,0,141.6,0C169.1,7,170.4,7.3,171.7,7.4z"/>
			<path class="st0" d="M132,15.2c-4.3,13.8-8.5,27.5-12.9,41.1c-0.5,1.4-2.5,2.3-3.8,3.5c-0.4-0.3-0.9-0.7-1.3-1
				c0.2-1.2,0.2-2.5,0.5-3.6c3.1-10.1,6.1-20.3,9.5-30.3c1.2-3.8,0.7-5.3-3.7-5.3c-29.4,0.1-58.8,0.1-88.3,0c-3.6,0-5.4,1.2-6.4,4.6
				c-2,7-4.2,14-6.6,21.7c1.9,0.3,3.4,0.7,5,0.7c12.1,0.1,24.3-0.1,36.4,0.1c4.9,0.1,6.4-2.3,6.6-7c-7.9,0-15.6,0-23.3,0
				c-0.3-0.5-0.6-1.1-1-1.6c1.4-1.1,2.8-3.2,4.2-3.3c8.8-0.3,17.6-0.2,27.2-0.2c-1.6,5.3-2.9,10.1-4.7,14.7c-0.4,1-2.6,2-3.9,2
				c-16.1,0.1-32.2,0.1-48.4,0.1c-3.9,0-4.5-1.7-3.5-5c2.9-9.3,5.6-18.7,8.8-28c0.6-1.6,3.2-3.6,4.8-3.6
				c34.1-0.2,68.2-0.1,102.2-0.1C130.2,14.8,130.8,15,132,15.2z"/>
			<path class="st0" d="M186.3,51.5c-0.1-4.2,2-5,5.4-4.9c16.6,0.1,33.2-0.1,49.8,0.2c4.9,0.1,7.1-1.5,6.9-7.1
				c-19.4,0-38.8,0-58.9,0c3.3-10.7,6.2-20.5,9.4-30.2c0.3-1.1,2.4-2.2,3.7-2.2C225.7,7,248.8,7,271.9,7c0.5,4.3-1.8,5-5.3,5
				c-19.3-0.1-38.5,0.1-57.8-0.1c-4.1,0-6.4,0.8-7.2,5.2c-0.8,4.3-2.2,8.5-3.8,12.6c-1.5,3.8-0.3,4.9,3.6,4.9
				c15.9-0.1,31.9-0.1,47.9,0c5.9,0,6.3,0.7,4.7,6.3c-3.1,10.6-3.1,10.6-14.5,10.6C221.9,51.5,204.3,51.5,186.3,51.5z"/>
			<path class="st0" d="M200,31.8c1.7-5.4,3-10.2,4.7-15c0.3-0.9,1.8-2,2.8-2c20.6-0.1,41.1-0.1,61.9-0.1c0.4,4.2-1.5,5-4.9,5
				c-16.4-0.1-32.9,0.1-49.3-0.2c-5.2-0.1-7.9,1.4-7.9,7.2c10.4,0,20.8,0,31.2,0c4.5,0,9-0.1,13.5,0c8,0.2,12.3,6,10.2,13.6
				c-1.1,3.9-2.2,7.8-3.6,11.7c-1.5,4.5-4.7,7.1-9.6,7.2c-20.9,0.1-41.9,0-62.8,0c-0.6,0-1.3-0.2-2.1-0.3c-0.4-3.8,1.5-4.7,5-4.7
				c18.9,0.1,37.9-0.1,56.8,0.1c5,0.1,7.8-1.5,8.8-6.4c0.5-2.7,1.7-5.3,2.4-7.9c1.5-5.5-0.4-8.1-6.2-8.2c-15-0.1-29.9,0-44.9,0
				C204.2,31.8,202.4,31.8,200,31.8z"/>
			<path class="st0" d="M303.7,59.3c-8.8,0-17.6,0.1-26.4,0c-7.4-0.1-10.9-4.7-8.8-11.6c3.5-11.4,7.2-22.7,10.7-34
				c1.4-4.5,4.3-6.7,9.1-6.6c17.6,0.1,35.2,0,52.8,0.1c6.9,0,11.1,4.7,9.4,11.3c-3.3,12.1-7.1,24-11.1,35.9c-1.2,3.5-4.3,5.1-8.3,5
				C322,59.2,312.9,59.3,303.7,59.3z M305,54.2c7.8,0,15.6-0.2,23.4,0.1c4.4,0.2,6.7-1.5,7.9-5.6c2.8-9.4,5.8-18.7,8.7-28
				c1.9-6.1-0.1-8.7-6.4-8.8c-15.8-0.1-31.5,0.1-47.3-0.1c-4.7-0.1-6.9,1.9-8.1,6.1c-2.7,9.4-5.7,18.7-8.5,28
				c-1.7,5.5,0.2,8.1,5.9,8.2C288.7,54.3,296.8,54.2,305,54.2z"/>
			<path class="st0" d="M385.5,59.3c-9,0-17.9,0.1-26.9,0c-6.8-0.1-10.3-4.6-8.4-11c3.5-11.5,7.1-23.1,10.6-34.6
				c1.4-4.4,4.2-6.7,9.1-6.7c17.3,0.1,34.5,0,51.8,0.1c8,0,12.3,5.5,10,13.1c-3.2,10.9-6.8,21.8-10.1,32.7c-1.4,4.6-4.4,6.5-9.2,6.5
				C403.4,59.2,394.5,59.3,385.5,59.3z M386.4,54.2c8,0,16-0.2,23.9,0.1c4.2,0.2,6.4-1.5,7.6-5.4c2.9-9.5,5.9-19,8.8-28.5
				c1.8-5.8-0.2-8.4-6.3-8.4c-16-0.1-31.9,0.1-47.9-0.1c-4.1,0-6.4,1.4-7.6,5.4c-2.8,9.7-6,19.3-8.9,29c-1.6,5.3,0.3,7.8,5.9,7.9
				C370.2,54.3,378.3,54.2,386.4,54.2z"/>
			<path class="st0" d="M121.6,58.4c1.6-5.3,3.2-10.5,4.8-15.8c2.5-8.1,4.9-16.2,7.6-24.2c0.5-1.4,2.1-3.4,3.2-3.5
				c10.7-0.3,21.5-0.2,32.3-0.2c0.2,3.9-1.6,5-4.9,4.9c-6.8-0.1-13.6,0.2-20.4-0.1c-4.1-0.2-6.1,1-7.2,5.1
				c-2.9,10.5-6.3,20.9-9.8,31.2c-0.5,1.6-2.4,2.7-3.7,4C122.9,59.4,122.2,58.9,121.6,58.4z"/>
			<path class="st0" d="M304.7,51.5c-8,0-15.9,0-23.9,0c-3.5,0-4.8-1.1-3.6-4.8c3-9.3,5.8-18.7,8.6-28c0.9-3.1,2.7-4,5.8-3.9
				c15.4,0.1,30.9,0,46.3,0.1c5.3,0,5.8,0.8,4.3,5.7c-2.8,8.9-5.8,17.6-8.3,26.6c-1,3.7-2.8,4.5-6.3,4.4
				C320,51.3,312.4,51.5,304.7,51.5z M282.6,45.5c1.2,0.6,1.5,0.8,1.7,0.8c13.8,0.1,27.5,0.3,41.3,0.1c1.4,0,3.5-1.9,4-3.3
				c2.3-6.4,4.1-13,6.3-19.5c1-3-0.2-3.9-3-3.9c-12.9,0-25.9-0.1-38.8,0.1c-1.5,0-3.8,1.2-4.2,2.4C287.3,29.9,285,37.6,282.6,45.5z"
				/>
			<path class="st0" d="M424.6,15.5c-0.3,1.9-0.4,3.7-0.9,5.3c-2.7,8.9-5.6,17.7-8.2,26.6c-0.9,3.1-2.5,4-5.6,4
				c-15.6-0.1-31.2-0.1-46.9,0c-4.2,0-5.3-1.3-4-5.3c3-9.1,5.5-18.4,8.6-27.5c0.5-1.6,2.8-3.6,4.3-3.6c16.8-0.2,33.6-0.1,50.4-0.1
				C422.7,14.9,423.2,15.2,424.6,15.5z M387.5,46.6c6,0,11.9-0.1,17.9,0.1c3.5,0.1,5.5-0.9,6.5-4.4c1.6-6.1,3.4-12.2,5.6-18.2
				c1.3-3.5,0.1-4.4-3.2-4.4c-12.6,0-25.2,0.1-37.8,0c-3.2,0-4.9,1.3-5.7,4.2c-1.8,6.2-3.6,12.5-5.7,18.6c-1.1,3.2,0,4.2,3.1,4.2
				C374.6,46.6,381.1,46.6,387.5,46.6z"/>
		</g>
	</g>
</g>
</svg>
