<?xml version="1.0" encoding="utf-8"?>
<!-- Generator: Adobe Illustrator 27.0.0, SVG Export Plug-In . SVG Version: 6.00 Build 0)  -->
<svg version="1.1" id="Layer_1" xmlns="http://www.w3.org/2000/svg" xmlns:xlink="http://www.w3.org/1999/xlink" x="0px" y="0px"
	 viewBox="0 0 2500 2500" style="enable-background:new 0 0 2500 2500;" xml:space="preserve">
<style type="text/css">
	.st0{fill:url(#SVGID_1_);}
	.st1{fill:#333333;}
	.st2{fill:url(#SVGID_00000073696534491657229520000010559913558517464987_);}
	.st3{fill:url(#SVGID_00000066491385062951752100000011095520772627186865_);}
	.st4{fill:url(#SVGID_00000080896859247630797990000006765006867532563359_);}
	.st5{fill:url(#SVGID_00000000214600023537184660000004697921849353339290_);}
	.st6{fill:url(#SVGID_00000132782785018638240370000006518925360729658506_);}
	.st7{fill:url(#SVGID_00000002382835294205618300000013339076000708557497_);}
	.st8{fill:url(#SVGID_00000013890391687753194750000011122206054798615467_);}
	.st9{fill:url(#SVGID_00000034085612878879809970000009867193968047858857_);}
	.st10{fill:url(#SVGID_00000057827652758597296360000009848166567203936177_);}
	.st11{fill:url(#SVGID_00000029021310923843547920000014841307859702714516_);}
	.st12{fill:url(#SVGID_00000172419949474857895030000015433416947220566689_);}
	.st13{fill:#C2D7E8;}
	.st14{fill:url(#SVGID_00000057127213210883888320000011322974517737436809_);}
	.st15{fill:#12404F;}
	.st16{fill:url(#SVGID_00000146501012976956831650000005406195982380778671_);}
	.st17{fill:url(#SVGID_00000134959356553849050960000016353453625659782061_);}
	.st18{fill:url(#SVGID_00000078748564781680569670000018169536859850270890_);}
	.st19{fill:url(#SVGID_00000119102299214792954080000013930853469181899960_);}
</style>
<linearGradient id="SVGID_1_" gradientUnits="userSpaceOnUse" x1="-554.1498" y1="-855.6776" x2="521.2971" y2="183.5594" gradientTransform="matrix(2.4662 0 0 2.4662 1183.6473 1975.5016)">
	<stop  offset="0" style="stop-color:#DFF4FF"/>
	<stop  offset="9.800000e-02" style="stop-color:#D6EAF5"/>
	<stop  offset="0.268" style="stop-color:#BFD0D9"/>
	<stop  offset="0.488" style="stop-color:#98A5AC"/>
	<stop  offset="0.747" style="stop-color:#646B6E"/>
	<stop  offset="1" style="stop-color:#2B2B2B"/>
</linearGradient>
<path class="st0" d="M1250,0C559.7,0,0,559.6,0,1250c0,690.3,559.7,1250,1250,1250c690.4,0,1250-559.6,1250-1250
	C2500,559.6,1940.4,0,1250,0z M1250,2437.5C594.2,2437.5,62.6,1905.8,62.6,1250C62.6,594.2,594.2,62.5,1250,62.5
	c655.8,0,1187.5,531.7,1187.5,1187.5C2437.5,1905.8,1905.9,2437.5,1250,2437.5z"/>
<path class="st1" d="M2446.4,1250c0,660.7-535.7,1196.4-1196.4,1196.4C589.3,2446.4,53.6,1910.7,53.6,1250
	C53.6,589.2,589.3,53.6,1250,53.6C1910.7,53.6,2446.4,589.2,2446.4,1250z"/>
<radialGradient id="SVGID_00000155848261119212805850000000488947067983103140_" cx="-486.2708" cy="-767.5057" r="720.108" gradientTransform="matrix(2.4662 0 0 2.4662 1183.6473 1975.5016)" gradientUnits="userSpaceOnUse">
	<stop  offset="0" style="stop-color:#FFFFFF"/>
	<stop  offset="0.306" style="stop-color:#A8A8A8"/>
	<stop  offset="0.646" style="stop-color:#4F4F4F"/>
	<stop  offset="0.885" style="stop-color:#161616"/>
	<stop  offset="1" style="stop-color:#000000"/>
</radialGradient>
<path style="fill:url(#SVGID_00000155848261119212805850000000488947067983103140_);" d="M2437.5,1250
	c0,655.8-531.6,1187.5-1187.5,1187.5C594.2,2437.5,62.6,1905.8,62.6,1250C62.6,594.2,594.2,62.5,1250,62.5
	C1905.9,62.5,2437.5,594.2,2437.5,1250z"/>
<linearGradient id="SVGID_00000117666192873396446270000017707230555783633317_" gradientUnits="userSpaceOnUse" x1="519.9953" y1="595.6557" x2="1204.9432" y2="1257.5408" gradientTransform="matrix(-2.4662 0 0 -2.4662 3445.0652 3600.9133)">
	<stop  offset="0" style="stop-color:#DFF4FF"/>
	<stop  offset="8.600000e-02" style="stop-color:#D6EAF5"/>
	<stop  offset="0.233" style="stop-color:#BED0D9"/>
	<stop  offset="0.424" style="stop-color:#96A4AC"/>
	<stop  offset="0.652" style="stop-color:#5F686D"/>
	<stop  offset="0.907" style="stop-color:#1A1D1E"/>
	<stop  offset="1" style="stop-color:#000000"/>
</linearGradient>
<path style="fill:url(#SVGID_00000117666192873396446270000017707230555783633317_);" d="M2046.1,1250
	c0,439.7-356.4,796.1-796.1,796.1c-439.7,0-796.1-356.4-796.1-796.1c0-439.7,356.4-796.1,796.1-796.1
	C1689.7,453.9,2046.1,810.3,2046.1,1250z"/>
<path d="M1281.9,432.4l82.7-219.2v219.2h62.8V118.5H1333l-85.9,224.8h0.8l-85.9-224.8h-94.4v313.9h62.8V213.2l82.7,219.2H1281.9z
	 M2143.9,573.1l-107.3,156.5l168.6-82.9l45.7,54.8l-265.3,133.2l-53.6-64.9l102.8-155l-0.6-0.8l-171,73.2l-54.2-64.5l178.9-236.9
	l45.7,54.9l-112,150.8l173.3-77.3L2143.9,573.1z"/>
<path class="st1" d="M694,513.2c-25.3-24.5-64.3-31.9-101-9.2c7-18.2,4.2-36.6,0.5-46.9c-15.8-28.8-21.4-32.4-34.3-43.3
	c-42.2-35.3-86.5-5.2-118.2,32.6L287.9,628.9l240.8,202l161.5-192.5C727.2,594.5,732.9,550.9,694,513.2L694,513.2z M382.5,601.2
	l92-109.7c10.7-12.7,34.8-12.2,50.2,0.8c17,14.3,17.1,34.5,5.6,48.2l-91,108.4L382.5,601.2L382.5,601.2z M636.4,619.4l-95.9,114.3
	l-60.1-50.5L577,568.1c10.9-13,35.3-16.8,51.7-3C647.3,580.6,649.1,604.3,636.4,619.4L636.4,619.4z"/>
<radialGradient id="SVGID_00000117677960851736143440000016644479689974105496_" cx="-615.5999" cy="-840.8387" r="1730.313" gradientTransform="matrix(2.4662 0 0 2.4662 1183.6473 1975.5016)" gradientUnits="userSpaceOnUse">
	<stop  offset="0" style="stop-color:#FFFFFF"/>
	<stop  offset="0.31" style="stop-color:#FDFDFD"/>
	<stop  offset="0.451" style="stop-color:#F6F6F6"/>
	<stop  offset="0.557" style="stop-color:#E9E9E9"/>
	<stop  offset="0.646" style="stop-color:#D7D7D7"/>
	<stop  offset="0.724" style="stop-color:#BFBFBF"/>
	<stop  offset="0.794" style="stop-color:#A2A2A2"/>
	<stop  offset="0.859" style="stop-color:#808080"/>
	<stop  offset="0.92" style="stop-color:#575757"/>
	<stop  offset="0.975" style="stop-color:#2B2B2B"/>
	<stop  offset="1" style="stop-color:#141414"/>
</radialGradient>
<path style="fill:url(#SVGID_00000117677960851736143440000016644479689974105496_);" d="M1282.6,420.2l82.7-219.2v219.2h62.8V106.3
	h-94.4l-85.8,224.7h0.8l-85.9-224.7h-94.4v313.9h62.8V201.1l82.7,219.2H1282.6z"/>
<radialGradient id="SVGID_00000062914915861812591860000012595037023227795851_" cx="-615.6768" cy="-840.8387" r="1730.4611" gradientTransform="matrix(2.4662 0 0 2.4662 1183.6473 1975.5016)" gradientUnits="userSpaceOnUse">
	<stop  offset="0" style="stop-color:#FFFFFF"/>
	<stop  offset="0.31" style="stop-color:#FDFDFD"/>
	<stop  offset="0.451" style="stop-color:#F6F6F6"/>
	<stop  offset="0.557" style="stop-color:#E9E9E9"/>
	<stop  offset="0.646" style="stop-color:#D7D7D7"/>
	<stop  offset="0.724" style="stop-color:#BFBFBF"/>
	<stop  offset="0.794" style="stop-color:#A2A2A2"/>
	<stop  offset="0.859" style="stop-color:#808080"/>
	<stop  offset="0.92" style="stop-color:#575757"/>
	<stop  offset="0.975" style="stop-color:#2B2B2B"/>
	<stop  offset="1" style="stop-color:#141414"/>
</radialGradient>
<path style="fill:url(#SVGID_00000062914915861812591860000012595037023227795851_);" d="M2144.5,552.1l-107.3,156.5l168.6-82.9
	l45.7,54.9l-265.2,133.2l-53.6-64.9l102.8-155l-0.6-0.8l-171.1,73.2l-54.2-64.5l178.9-236.8l45.7,54.8l-112,150.8l173.3-77.3
	L2144.5,552.1z"/>
<radialGradient id="SVGID_00000123419341606616247770000015104806300187353986_" cx="-615.7719" cy="-841.3465" r="1731.785" gradientTransform="matrix(2.4662 0 0 2.4662 1183.6473 1975.5016)" gradientUnits="userSpaceOnUse">
	<stop  offset="0" style="stop-color:#FFFFFF"/>
	<stop  offset="0.31" style="stop-color:#FDFDFD"/>
	<stop  offset="0.451" style="stop-color:#F6F6F6"/>
	<stop  offset="0.557" style="stop-color:#E9E9E9"/>
	<stop  offset="0.646" style="stop-color:#D7D7D7"/>
	<stop  offset="0.724" style="stop-color:#BFBFBF"/>
	<stop  offset="0.794" style="stop-color:#A2A2A2"/>
	<stop  offset="0.859" style="stop-color:#808080"/>
	<stop  offset="0.92" style="stop-color:#575757"/>
	<stop  offset="0.975" style="stop-color:#2B2B2B"/>
	<stop  offset="1" style="stop-color:#141414"/>
</radialGradient>
<path style="fill:url(#SVGID_00000123419341606616247770000015104806300187353986_);" d="M682.8,507c-25.2-24.5-64.3-31.9-100.9-9.2
	c7-18.2,4.1-36.6,0.4-46.8c-15.8-28.8-21.3-32.4-34.3-43.3c-42.2-35.3-86.5-5.2-118.1,32.6L276.6,622.7l240.8,202L679,632.3
	C715.9,588.3,721.6,544.7,682.8,507L682.8,507z M371.3,595l92-109.6c10.6-12.7,34.7-12.2,50.3,0.8c17,14.3,17.1,34.6,5.6,48.2
	l-90.9,108.4L371.3,595L371.3,595z M625.2,613.2l-95.9,114.3l-60.2-50.5l96.7-115.2c10.9-13,35.2-16.8,51.7-3
	C636.1,574.4,637.9,598.1,625.2,613.2L625.2,613.2z"/>
<radialGradient id="SVGID_00000086680853883887422600000008806936428915171768_" cx="-305.7008" cy="-600.9545" r="466.718" gradientTransform="matrix(2.4662 0 0 2.4662 1183.6473 1975.5016)" gradientUnits="userSpaceOnUse">
	<stop  offset="0" style="stop-color:#E6E6E6"/>
	<stop  offset="0.104" style="stop-color:#D6D6D6"/>
	<stop  offset="0.307" style="stop-color:#ADADAD"/>
	<stop  offset="0.588" style="stop-color:#6C6C6C"/>
	<stop  offset="0.933" style="stop-color:#121212"/>
	<stop  offset="1" style="stop-color:#000000"/>
</radialGradient>
<path style="fill:url(#SVGID_00000086680853883887422600000008806936428915171768_);" d="M480.4,1250
	c0-425.1,344.6-769.6,769.6-769.6c425.1,0,769.6,344.6,769.6,769.6c0,425-344.5,769.6-769.6,769.6
	C825,2019.6,480.4,1675.1,480.4,1250L480.4,1250z"/>
<radialGradient id="SVGID_00000114785060728470796030000001449583856984900784_" cx="-178.0478" cy="-538.1806" r="678.742" gradientTransform="matrix(2.4662 0 0 2.4662 1183.6473 1975.5016)" gradientUnits="userSpaceOnUse">
	<stop  offset="0" style="stop-color:#FFFFFF"/>
	<stop  offset="0.344" style="stop-color:#FDFDFD"/>
	<stop  offset="0.481" style="stop-color:#F6F6F6"/>
	<stop  offset="0.582" style="stop-color:#EAEAEA"/>
	<stop  offset="0.665" style="stop-color:#D8D8D8"/>
	<stop  offset="0.737" style="stop-color:#C2C2C2"/>
	<stop  offset="0.802" style="stop-color:#A6A6A6"/>
	<stop  offset="0.86" style="stop-color:#848484"/>
	<stop  offset="0.913" style="stop-color:#5F5F5F"/>
	<stop  offset="0.949" style="stop-color:#404040"/>
	<stop  offset="0.957" style="stop-color:#404040"/>
	<stop  offset="1" style="stop-color:#404040"/>
	<stop  offset="1" style="stop-color:#000000"/>
</radialGradient>
<path style="fill:url(#SVGID_00000114785060728470796030000001449583856984900784_);" d="M502.5,1250
	c0-412.8,334.7-747.5,747.5-747.5s747.5,334.7,747.5,747.5s-334.7,747.5-747.5,747.5S502.5,1662.8,502.5,1250z"/>
<radialGradient id="SVGID_00000090254778814973485940000014520664156782023057_" cx="-377.3358" cy="-795.4676" r="1202.0601" gradientTransform="matrix(2.4662 0 0 2.4662 1183.6473 1975.5016)" gradientUnits="userSpaceOnUse">
	<stop  offset="0.169" style="stop-color:#FFFFFF"/>
	<stop  offset="0.196" style="stop-color:#E0EFF7"/>
	<stop  offset="0.241" style="stop-color:#B2D9EC"/>
	<stop  offset="0.287" style="stop-color:#8BC5E2"/>
	<stop  offset="0.335" style="stop-color:#6BB5DA"/>
	<stop  offset="0.384" style="stop-color:#52A9D4"/>
	<stop  offset="0.436" style="stop-color:#41A0CF"/>
	<stop  offset="0.491" style="stop-color:#369BCD"/>
	<stop  offset="0.556" style="stop-color:#3399CC"/>
	<stop  offset="0.606" style="stop-color:#3396C8"/>
	<stop  offset="0.655" style="stop-color:#328EBC"/>
	<stop  offset="0.705" style="stop-color:#3180A8"/>
	<stop  offset="0.754" style="stop-color:#2F6D8C"/>
	<stop  offset="0.803" style="stop-color:#2D5468"/>
	<stop  offset="0.851" style="stop-color:#2A373D"/>
	<stop  offset="0.871" style="stop-color:#292929"/>
</radialGradient>
<path style="fill:url(#SVGID_00000090254778814973485940000014520664156782023057_);" d="M501.3,1250H1250V501.3
	C836.5,501.3,501.3,836.5,501.3,1250L501.3,1250z"/>
<radialGradient id="SVGID_00000075854649744529005760000012022349519865211313_" cx="-377.3358" cy="-795.4766" r="1202.037" gradientTransform="matrix(2.4662 0 0 2.4662 1183.6473 1975.5016)" gradientUnits="userSpaceOnUse">
	<stop  offset="0.169" style="stop-color:#FFFFFF"/>
	<stop  offset="0.196" style="stop-color:#E0EFF7"/>
	<stop  offset="0.241" style="stop-color:#B2D9EC"/>
	<stop  offset="0.287" style="stop-color:#8BC5E2"/>
	<stop  offset="0.335" style="stop-color:#6BB5DA"/>
	<stop  offset="0.384" style="stop-color:#52A9D4"/>
	<stop  offset="0.436" style="stop-color:#41A0CF"/>
	<stop  offset="0.491" style="stop-color:#369BCD"/>
	<stop  offset="0.556" style="stop-color:#3399CC"/>
	<stop  offset="0.606" style="stop-color:#3396C8"/>
	<stop  offset="0.655" style="stop-color:#328EBC"/>
	<stop  offset="0.705" style="stop-color:#3180A8"/>
	<stop  offset="0.754" style="stop-color:#2F6D8C"/>
	<stop  offset="0.803" style="stop-color:#2D5468"/>
	<stop  offset="0.851" style="stop-color:#2A373D"/>
	<stop  offset="0.871" style="stop-color:#292929"/>
</radialGradient>
<path style="fill:url(#SVGID_00000075854649744529005760000012022349519865211313_);" d="M1250,1250v748.7
	c413.5,0,748.7-335.2,748.7-748.7H1250L1250,1250z"/>
<radialGradient id="SVGID_00000023262172359174506750000015186251539347402133_" cx="-299.3268" cy="-595.0756" r="457.773" gradientTransform="matrix(2.4662 0 0 2.4662 1183.6473 1975.5016)" gradientUnits="userSpaceOnUse">
	<stop  offset="0" style="stop-color:#E6E6E6"/>
	<stop  offset="0.104" style="stop-color:#D6D6D6"/>
	<stop  offset="0.307" style="stop-color:#ADADAD"/>
	<stop  offset="0.588" style="stop-color:#6C6C6C"/>
	<stop  offset="0.933" style="stop-color:#121212"/>
	<stop  offset="1" style="stop-color:#000000"/>
</radialGradient>
<path style="fill:url(#SVGID_00000023262172359174506750000015186251539347402133_);" d="M2004.9,1236.7h-741.6V495.1h-26.6v741.6
	H495.1v26.6h741.6v741.6h26.6v-741.6h741.6V1236.7z"/>
<linearGradient id="SVGID_00000169545701848294974730000002305584719196448399_" gradientUnits="userSpaceOnUse" x1="-33.1196" y1="-709.3748" x2="413.2994" y2="-277.9868" gradientTransform="matrix(2.4662 0 0 2.4662 1183.6473 1975.5016)">
	<stop  offset="0" style="stop-color:#F0F4FF"/>
	<stop  offset="0.109" style="stop-color:#EBEFF9"/>
	<stop  offset="0.247" style="stop-color:#DCE0EA"/>
	<stop  offset="0.403" style="stop-color:#C4C7CF"/>
	<stop  offset="0.57" style="stop-color:#A2A4AB"/>
	<stop  offset="0.747" style="stop-color:#76777C"/>
	<stop  offset="0.929" style="stop-color:#414243"/>
	<stop  offset="1" style="stop-color:#2B2B2B"/>
</linearGradient>
<path style="fill:url(#SVGID_00000169545701848294974730000002305584719196448399_);" d="M1263.3,516.1
	c394.9,7,713.6,325.7,720.7,720.6h13.2c-7.1-402.2-331.7-726.9-733.9-733.9L1263.3,516.1z"/>
<path class="st13" d="M514.8,1236.6c7-395.4,326.2-714.6,721.6-721.6v-13.3c-402.8,7-727.8,332.1-734.9,734.9L514.8,1236.6z"/>
<linearGradient id="SVGID_00000049928591797145937700000013986121311370754722_" gradientUnits="userSpaceOnUse" x1="-395.4643" y1="-345.1591" x2="50.9607" y2="86.2359" gradientTransform="matrix(2.4662 0 0 2.4662 1183.6473 1975.5016)">
	<stop  offset="0" style="stop-color:#F0F4FF"/>
	<stop  offset="0.109" style="stop-color:#EBEFF9"/>
	<stop  offset="0.247" style="stop-color:#DCE0EA"/>
	<stop  offset="0.403" style="stop-color:#C4C7CF"/>
	<stop  offset="0.57" style="stop-color:#A2A4AB"/>
	<stop  offset="0.747" style="stop-color:#76777C"/>
	<stop  offset="0.929" style="stop-color:#414243"/>
	<stop  offset="1" style="stop-color:#2B2B2B"/>
</linearGradient>
<path style="fill:url(#SVGID_00000049928591797145937700000013986121311370754722_);" d="M1236.7,1983.9
	c-394.9-7-713.6-325.7-720.6-720.6h-13.3c7.1,402.3,331.7,726.9,733.9,733.9L1236.7,1983.9L1236.7,1983.9z"/>
<path class="st15" d="M1984,1263.3c-7.1,394.9-325.8,713.6-720.7,720.6v13.3c402.3-7,726.9-331.7,733.9-733.9H1984L1984,1263.3z"/>
<linearGradient id="SVGID_00000013883354878245061230000015869729979032663684_" gradientUnits="userSpaceOnUse" x1="-179.4949" y1="-498.9885" x2="51.9941" y2="-275.2934" gradientTransform="matrix(2.4662 0 0 2.4662 1183.6473 1975.5016)">
	<stop  offset="0" style="stop-color:#C2D7E8"/>
	<stop  offset="0.134" style="stop-color:#BACFE1"/>
	<stop  offset="0.343" style="stop-color:#A4BACD"/>
	<stop  offset="0.6" style="stop-color:#8098AC"/>
	<stop  offset="0.894" style="stop-color:#4E697F"/>
	<stop  offset="1" style="stop-color:#3A566D"/>
</linearGradient>
<path style="fill:url(#SVGID_00000013883354878245061230000015869729979032663684_);" d="M1222.5,501.7v720.4H502.1v14.2h734.6
	V501.7H1222.5z"/>
<linearGradient id="SVGID_00000077289665414045964610000009686774293236118706_" gradientUnits="userSpaceOnUse" x1="-295.4274" y1="-444.174" x2="146.5036" y2="-17.122" gradientTransform="matrix(2.4662 0 0 2.4662 1183.6473 1975.5016)">
	<stop  offset="0" style="stop-color:#F0F4FF"/>
	<stop  offset="9.700001e-02" style="stop-color:#E8EBF6"/>
	<stop  offset="0.257" style="stop-color:#D1D4DD"/>
	<stop  offset="0.459" style="stop-color:#ABAEB5"/>
	<stop  offset="0.695" style="stop-color:#78797D"/>
	<stop  offset="0.958" style="stop-color:#363637"/>
	<stop  offset="1" style="stop-color:#2B2B2B"/>
</linearGradient>
<path style="fill:url(#SVGID_00000077289665414045964610000009686774293236118706_);" d="M1221.3,1990.2v-711.7H508.1v-14h727.3
	v725.8H1221.3z"/>
<linearGradient id="SVGID_00000065076976803528148190000015704412087888538814_" gradientUnits="userSpaceOnUse" x1="30.302" y1="-285.762" x2="185.3209" y2="-135.9632" gradientTransform="matrix(2.4662 0 0 2.4662 1183.6473 1975.5016)">
	<stop  offset="0" style="stop-color:#D9DEF0"/>
	<stop  offset="0.123" style="stop-color:#D4DAEC"/>
	<stop  offset="0.263" style="stop-color:#C7CFE2"/>
	<stop  offset="0.411" style="stop-color:#B0BCD1"/>
	<stop  offset="0.566" style="stop-color:#90A1B8"/>
	<stop  offset="0.725" style="stop-color:#677F99"/>
	<stop  offset="0.885" style="stop-color:#355674"/>
	<stop  offset="0.972" style="stop-color:#173D5D"/>
</linearGradient>
<path style="fill:url(#SVGID_00000065076976803528148190000015704412087888538814_);" d="M1278.5,1990.2v-711.7h711.7v-14h-725.7
	v725.8H1278.5z"/>
<linearGradient id="SVGID_00000042718403904407904920000001345349282300087978_" gradientUnits="userSpaceOnUse" x1="-128.2747" y1="-606.2516" x2="313.1793" y2="-179.6627" gradientTransform="matrix(2.4662 0 0 2.4662 1183.6473 1975.5016)">
	<stop  offset="0" style="stop-color:#F0F4FF"/>
	<stop  offset="0.109" style="stop-color:#EBEFF9"/>
	<stop  offset="0.247" style="stop-color:#DCE0EA"/>
	<stop  offset="0.403" style="stop-color:#C4C7CF"/>
	<stop  offset="0.57" style="stop-color:#A2A4AB"/>
	<stop  offset="0.747" style="stop-color:#76777C"/>
	<stop  offset="0.929" style="stop-color:#414243"/>
	<stop  offset="1" style="stop-color:#2B2B2B"/>
</linearGradient>
<path style="fill:url(#SVGID_00000042718403904407904920000001345349282300087978_);" d="M1278.5,508.1v711.7h711.7v14h-725.7V508.1
	H1278.5z"/>
</svg>
