<?xml version="1.0" encoding="utf-8"?>
<!-- Generator: Adobe Illustrator 27.0.0, SVG Export Plug-In . SVG Version: 6.00 Build 0)  -->
<svg version="1.1" id="Layer_1" xmlns="http://www.w3.org/2000/svg" xmlns:xlink="http://www.w3.org/1999/xlink" x="0px" y="0px"
	 viewBox="0 0 197.1 49" style="enable-background:new 0 0 197.1 49;" xml:space="preserve">
<style type="text/css">
	.st0{fill-rule:evenodd;clip-rule:evenodd;fill:#000000;}
</style>
<g>
	<path class="st0" d="M4.4,44.3v-3.9h2.2l0,0c1.1,0,3.2-0.2,3.2-2.8l0,0V14.2l0,0c0-1.4-0.1-4.8-2.8-4.8l0,0H4.6l2.8-5h166.9v5H20.7
		l0,0c-1.4,0-3.2,0.3-3.2,3.1l0,0v7.4l0,0c0.3,0.9,1.6,1.2,2.3,1.2s2.9-0.1,2.9-3.7l0,0h3.2v12h-3.2l0,0c0-1.1-1.2-2.9-2.8-3
		c-1.3-0.1-2.4,0.3-2.4,2.1l0,0v9.1l0,0c0,1,1.2,2.8,4,2.8l0,0h2v3.9L4.4,44.3L4.4,44.3L4.4,44.3z"/>
	<path class="st0" d="M100.7,15c0,0.9,1.1,1.7,1.7,1.9c0.8-0.5,4.8-2.8,7.9-2.8s4.8,1.6,4.8,4.1l0,0v11.9h-7.6V21l0,0
		c0-1.2-0.3-2.1-1.4-2.2s-3.9,2.2-4.7,3.2l0,0v16.5l0,0c0,1.5,1.5,2.6,2.8,2.6l0,0v3.2H91.1v-3.2l0,0c1.3,0,2.7-0.4,2.8-2.4l0,0
		V20.3l0,0c0-0.5-0.9-2.1-2.8-2.1l0,0V15L100.7,15L100.7,15L100.7,15z"/>
	<path class="st0" d="M191.5,15h-13.2v3.2l0,0c1.9,0,2.8,1.5,2.8,2.1l0,0v18.3l0,0c-0.1,2-1.5,2.4-2.8,2.4l0,0v3.2h13.2v-3.2l0,0
		c-1.3,0-2.8-1.1-2.8-2.6l0,0v-18l0,0c0-1.3,1.4-2.3,2.8-2.3l0,0V15L191.5,15L191.5,15z"/>
	<path class="st0" d="M71.4,15c0,0.9,1.1,1.7,1.7,1.9c0.8-0.5,4.8-2.8,7.9-2.8s4.8,1.6,4.8,4.1l0,0v11.9h-7.6V21l0,0
		c0-1.2-0.3-2.1-1.4-2.2S73,21,72.2,22.1l0,0v16.5l0,0c0,1.5,1.5,2.6,2.8,2.6l0,0v3.2H61.8v-3.2l0,0c1.3,0,2.7-0.4,2.8-2.4l0,0V20.3
		l0,0c0-0.5-0.9-2.1-2.8-2.1l0,0V15L71.4,15L71.4,15L71.4,15z"/>
	<path class="st0" d="M159.4,15c0,0.9,1.1,1.7,1.7,1.9c0.8-0.5,4.8-2.8,7.9-2.8s4.8,1.6,4.8,4.1l0,0v11.9h-7.6V21l0,0
		c0-1.2-0.3-2.1-1.4-2.2s-3.9,2.2-4.7,3.2l0,0v16.5l0,0c0,1.5,1.5,2.6,2.8,2.6l0,0v3.2h-13.2v-3.2l0,0c1.3,0,2.7-0.4,2.8-2.4l0,0
		V20.3l0,0c0-0.5-0.9-2.1-2.8-2.1l0,0V15L159.4,15L159.4,15L159.4,15z"/>
	<path class="st0" d="M56.1,35.2h-7.6v2.9l0,0c0,1.2-0.2,3.7-3.8,3.7S40,39.4,40,37.7l0,0v-6.2l0,0c0-0.5,0.4-1.3,1.2-1.3l0,0h14.9
		v-7.9l0,0c0-3.6-0.8-4.7-2.3-6.2s-6.8-1.9-9.2-1.9c-6.1,0-8,0.9-9.8,2.3c-1.7,1.4-2.4,4.3-2.4,6.5l0,0v12.3l0,0
		c0,3.2,0.7,5.5,2.7,7.6s8.3,2.1,9.7,2.1c1.3,0,5.6,0.1,8.8-2.2C56.7,40.4,56.1,35.2,56.1,35.2L56.1,35.2L56.1,35.2L56.1,35.2z
		 M40,21.8c0-1.7,0.5-4.3,4.3-4.3s4.1,2.8,4.1,4.3l0,0v3.9l0,0c0,0.6-0.5,1.3-1.3,1.3l0,0h-5.9l0,0c-0.7,0-1.3-0.5-1.3-1.2l0,0V21.8
		L40,21.8L40,21.8z"/>
	<path class="st0" d="M143.1,38.6V22.3l0,0c0-2.5-0.1-5.1-2.7-6.9s-6.8-1.7-8.5-1.7s-7.1,0-9.5,2.8s-2.1,5.5-2.1,6.6l0,0h7.1l0,0
		c0,0,0.5-3.7,1.5-4.7c1-1,3.6-2.1,5.6-0.3c0.7,0.6,1,1.5,1,2.4l0,0v4.7l0,0c0,0.4-0.4,1.1-1,1.1c0,0-9.9,0.2-11.6,1.5
		c-1.7,1.3-3.2,2.2-3.2,6.9s1.2,6.6,2.6,7.6c1.4,1,2.1,2.1,8.5,2.1l0,0h15.2v-3.2l0,0C144.6,41.2,143.1,40.1,143.1,38.6L143.1,38.6
		L143.1,38.6L143.1,38.6z M135.5,40.4c0,0.3-0.4,0.7-0.8,0.7l0,0H131l0,0c-2.7,0-3.4-2.3-3.4-3.7l0,0v-4.2l0,0c0-4.1,4.2-4,5.9-4
		s2,1.4,2,2.3l0,0V40.4L135.5,40.4L135.5,40.4z"/>
	<path class="st0" d="M184.4,9.3c3.8,0,6.9-1.1,6.9-2.6c0-1.4-3.1-2.6-6.9-2.6c-3.8,0-6.9,1.2-6.9,2.6
		C177.6,8.2,180.6,9.3,184.4,9.3L184.4,9.3L184.4,9.3L184.4,9.3z"/>
</g>
</svg>
