<?xml version="1.0" encoding="utf-8"?>
<!-- Generator: Adobe Illustrator 27.0.0, SVG Export Plug-In . SVG Version: 6.00 Build 0)  -->
<svg version="1.1" id="Layer_1" xmlns="http://www.w3.org/2000/svg" xmlns:xlink="http://www.w3.org/1999/xlink" x="0px" y="0px"
	 viewBox="0 0 197.05 48.95" style="enable-background:new 0 0 197.05 48.95;" xml:space="preserve">
<style type="text/css">
	.st0{fill-rule:evenodd;clip-rule:evenodd;}
</style>
<g>
	<path class="st0" d="M4.45,44.31v-3.9h2.17l0,0c1.08,0,3.25-0.22,3.25-2.82l0,0V14.16l0,0c0-1.41-0.11-4.77-2.82-4.77l0,0H4.56
		L7.38,4.4h166.85v4.99H20.72l0,0c-1.41,0-3.25,0.33-3.25,3.15l0,0v7.38l0,0c0.33,0.87,1.63,1.19,2.28,1.19s2.93-0.11,2.93-3.69l0,0
		h3.25v12.04h-3.25l0,0c0-1.08-1.2-2.9-2.82-3.04c-1.3-0.11-2.39,0.33-2.39,2.06l0,0v9.11l0,0c0,0.98,1.19,2.82,4.01,2.82l0,0h1.95
		v3.9L4.45,44.31L4.45,44.31L4.45,44.31z"/>
	<path class="st0" d="M100.74,15.03c0,0.87,1.08,1.74,1.74,1.95c0.76-0.54,4.77-2.82,7.92-2.82s4.77,1.63,4.77,4.12l0,0v11.93h-7.59
		v-9.22l0,0c0-1.19-0.33-2.06-1.41-2.17s-3.9,2.17-4.66,3.25l0,0v16.49l0,0c0,1.52,1.52,2.6,2.82,2.6l0,0v3.15H91.08v-3.25l0,0
		c1.3,0,2.71-0.43,2.82-2.39l0,0V20.34l0,0c0-0.54-0.87-2.06-2.82-2.06l0,0v-3.25H100.74L100.74,15.03L100.74,15.03z"/>
	<path class="st0" d="M191.54,15.03h-13.23v3.25l0,0c1.95,0,2.82,1.52,2.82,2.06l0,0v18.33l0,0c-0.11,1.95-1.52,2.39-2.82,2.39l0,0
		v3.25h13.23v-3.15l0,0c-1.3,0-2.82-1.08-2.82-2.6l0,0v-18l0,0c0-1.3,1.41-2.28,2.82-2.28l0,0V15.03L191.54,15.03L191.54,15.03z"/>
	<path class="st0" d="M71.45,15.03c0,0.87,1.08,1.74,1.74,1.95c0.76-0.54,4.77-2.82,7.92-2.82s4.77,1.63,4.77,4.12l0,0v11.93h-7.59
		v-9.22l0,0c0-1.19-0.33-2.06-1.41-2.17s-3.9,2.17-4.66,3.25l0,0v16.49l0,0c0,1.52,1.52,2.6,2.82,2.6l0,0v3.15H61.8v-3.25l0,0
		c1.3,0,2.71-0.43,2.82-2.39l0,0V20.34l0,0c0-0.54-0.87-2.06-2.82-2.06l0,0v-3.25H71.45L71.45,15.03L71.45,15.03z"/>
	<path class="st0" d="M159.43,15.03c0,0.87,1.08,1.74,1.74,1.95c0.76-0.54,4.77-2.82,7.92-2.82s4.77,1.63,4.77,4.12l0,0v11.93h-7.59
		v-9.22l0,0c0-1.19-0.33-2.06-1.41-2.17s-3.9,2.17-4.66,3.25l0,0v16.49l0,0c0,1.52,1.52,2.6,2.82,2.6l0,0v3.15h-13.23v-3.25l0,0
		c1.3,0,2.71-0.43,2.82-2.39l0,0V20.34l0,0c0-0.54-0.87-2.06-2.82-2.06l0,0v-3.25H159.43L159.43,15.03L159.43,15.03z"/>
	<path class="st0" d="M56.08,35.2h-7.59v2.93l0,0c0,1.19-0.22,3.69-3.8,3.69s-4.66-2.39-4.66-4.12l0,0v-6.18l0,0
		c0-0.54,0.43-1.3,1.19-1.3l0,0h14.86V22.3l0,0c0-3.58-0.76-4.66-2.28-6.18s-6.83-1.95-9.22-1.95c-6.07,0-8.03,0.87-9.76,2.28
		c-1.74,1.41-2.39,4.34-2.39,6.51l0,0v12.26l0,0c0,3.25,0.65,5.53,2.71,7.59s8.35,2.06,9.65,2.06c1.3,0,5.64,0.11,8.78-2.17
		C56.73,40.41,56.08,35.2,56.08,35.2L56.08,35.2L56.08,35.2L56.08,35.2z M40.02,21.75c0-1.74,0.54-4.34,4.34-4.34
		s4.12,2.82,4.12,4.34l0,0v3.9l0,0c0,0.65-0.54,1.3-1.3,1.3l0,0h-5.86l0,0c-0.65,0-1.3-0.54-1.3-1.19l0,0V21.75L40.02,21.75
		L40.02,21.75z"/>
	<path class="st0" d="M143.06,38.56V22.3l0,0c0-2.49-0.11-5.1-2.71-6.94s-6.83-1.74-8.46-1.74c-1.63,0-7.05,0-9.54,2.82
		s-2.06,5.53-2.06,6.62l0,0h7.1l0,0c0,0,0.49-3.69,1.46-4.66c0.98-0.98,3.58-2.06,5.59-0.33c0.74,0.64,1.03,1.46,1.03,2.39l0,0v4.66
		l0,0c0,0.43-0.43,1.08-0.98,1.08c0,0-9.87,0.22-11.6,1.52c-1.74,1.3-3.25,2.17-3.25,6.94s1.19,6.62,2.6,7.59
		c1.41,0.98,2.06,2.06,8.46,2.06l0,0h15.18v-3.15l0,0C144.58,41.17,143.06,40.08,143.06,38.56L143.06,38.56L143.06,38.56
		L143.06,38.56z M135.46,40.41c0,0.27-0.43,0.65-0.76,0.65l0,0h-3.74l0,0c-2.66,0-3.42-2.28-3.42-3.69l0,0v-4.18l0,0
		c0-4.07,4.23-3.96,5.91-3.96s2.01,1.41,2.01,2.33l0,0V40.41L135.46,40.41L135.46,40.41z"/>
	<path class="st0" d="M184.42,9.34c3.8,0,6.87-1.15,6.87-2.58c0-1.42-3.08-2.58-6.87-2.58c-3.8,0-6.87,1.15-6.87,2.58
		C177.55,8.18,180.63,9.34,184.42,9.34L184.42,9.34L184.42,9.34L184.42,9.34z"/>
</g>
</svg>
