<?xml version="1.0" encoding="utf-8"?>
<!-- Generator: Adobe Illustrator 27.0.0, SVG Export Plug-In . SVG Version: 6.00 Build 0)  -->
<svg version="1.1" id="Layer_1" xmlns="http://www.w3.org/2000/svg" xmlns:xlink="http://www.w3.org/1999/xlink" x="0px" y="0px"
	 viewBox="0 0 351.3 563.9" style="enable-background:new 0 0 351.3 563.9;" xml:space="preserve">
<style type="text/css">
	.st0{fill:#A3A3A3;}
	.st1{fill:#020204;}
</style>
<g>
	<path class="st0" d="M43.1,557c-0.3,0-0.6,0-0.8,0c-2.5-0.4-5-0.3-7.5-1.1c-12.2-4-20.6-11.9-25.2-23.9c-1.1-2.9-1.4-6-1.7-9.1
		c0-0.3,0-0.6,0-0.8c0.2-0.7,0.2-1.3,0-2c0-159,0-318,0-477c0.2-0.6,0.2-1.1,0-1.7c0-0.1,0-0.2,0-0.3c0.5-2.3,0.3-4.7,1-6.9
		c1.8-5.5,4.5-10.5,8.4-14.8c4.3-4.7,9.4-8.2,15.4-10.4c2.8-1,5.6-1.6,8.5-1.7c4-0.2,8.1-0.1,12.1-0.1c85.1,0,170.3,0,255.4,0
		c10.3,0,18.9,3.7,26.1,10.9c5.3,5.3,8.8,11.6,10.4,18.9c0.6,2.7,0.6,5.5,0.6,8.3c0,158,0,316,0.1,474c0,8.8-2.4,16.6-7.8,23.6
		c-5.4,6.9-12.3,11.4-20.7,13.6c-2.1,0.6-4.4,0.5-6.6,0.6c-0.6,0-1.3,0-1.9,0c-87.8,0-175.6,0-263.4,0
		C44.7,556.9,43.9,556.7,43.1,557z"/>
	<path class="st0" d="M45.1,556.7c0.6,0,1.1,0,1.7,0c87.1,0,174.2,0,261.3,0c0.3,0,0.7,0,1,0.1c0.1,0.1,0,0.2,0,0.2
		c-88,0-175.9,0-263.9,0C45,556.9,45,556.9,45.1,556.7C45,556.7,45.1,556.7,45.1,556.7z"/>
	<path class="st0" d="M7.9,520c0.4,0.7,0.5,1.3,0,2C7.9,521.3,7.9,520.7,7.9,520z"/>
	<path class="st0" d="M45.1,556.7c0,0.1,0,0.2,0,0.2c-0.7,0-1.3,0-2,0C43.7,556.3,44.4,556.8,45.1,556.7z"/>
	<path class="st0" d="M7.9,41.3c0.6,0.6,0.3,1.1,0,1.7C7.9,42.5,7.9,41.9,7.9,41.3z"/>
	<path class="st0" d="M309,557c0-0.1,0-0.2,0-0.2c0.6,0,1.1,0,1.7,0c0,0.1,0,0.2,0,0.2C310.1,557,309.6,557,309,557z"/>
	<path class="st1" d="M334.9,282.1c0,78.6,0,157.2,0,235.8c0,11.7-5.2,20.3-15.7,25.6c-3.9,2-8.1,2.7-12.4,2.7
		c-67.1,0-134.2,0-201.3,0c-19.6,0-39.3,0-58.9,0c-12.9,0-23.5-7.9-26.9-20c-0.7-2.5-1-5.1-1-7.6c0-8.3,0-16.5,0-24.8
		c0-149.2,0-298.4,0-447.6c0-11.3,5-19.8,15-25.2c3.7-2,7.8-2.9,12-2.9c87.4,0,174.7,0,262.1,0c15.1,0,27,12.2,27.1,27.7
		c0,6.2,0,12.4,0,18.6C334.9,136.8,334.9,209.5,334.9,282.1z"/>
	<path class="st0" d="M326.7,282.1c0,56.1,0,112.2,0,168.2c0,1.4-0.3,1.8-1.8,1.8c-98.8,0-197.6,0-296.4,0c-1.4,0-1.7-0.3-1.7-1.7
		c0-112.2,0-224.4,0-336.6c0-1.4,0.2-1.8,1.7-1.8c98.8,0,197.6,0,296.4,0c1.4,0,1.8,0.4,1.8,1.8C326.6,169.8,326.7,226,326.7,282.1z
		"/>
	<path class="st0" d="M176.7,103.7c-49.4,0-98.9,0-148.3,0c-1.3,0-1.7-0.3-1.7-1.6c0.1-18.8,0-37.7,0-56.5c0-9.4,6.1-17,15.3-19
		c1.4-0.3,2.8-0.4,4.2-0.4c87,0,173.9,0,260.9,0c10.9,0,19.4,8.1,19.4,19.1c0.1,19.1,0,38.3,0.1,57.4c0,0.9-0.2,1.2-1.1,1.1
		c-0.3,0-0.7,0-1,0C275.3,103.7,226,103.7,176.7,103.7z"/>
	<path class="st0" d="M176.7,460.3c49.4,0,98.8,0,148.2,0c1.4,0,1.8,0.3,1.8,1.7c-0.1,18.7,0,37.4,0,56.1c0,9.4-5.5,16.8-14.2,19.2
		c-1.8,0.5-3.6,0.7-5.4,0.7c-74.4,0-148.9,0-223.3,0c-12.5,0-25.1,0.1-37.6-0.1c-8.2-0.1-14.2-4-17.7-11.5c-1.1-2.4-1.6-4.9-1.6-7.5
		c0-19.1,0-38.3,0-57.4c0-1.4,0.7-1.2,1.5-1.2c20.3,0,40.5,0,60.8,0C118.3,460.3,147.5,460.3,176.7,460.3z"/>
	<path class="st1" d="M176.2,269.7c3.1,3.5,5.9,7,8.6,10.7c9.4,13.3,16.3,27.8,22.2,42.9c4.8,12.3,7.9,25.1,11,37.9
		c1.6,6.8,4.3,13.1,9.5,18c2.1,1.9,4.4,3.5,7.1,4.4c0.8,0.3,1.2,0.7,1.1,1.6c-0.1,0.5-0.1,0.9,0,1.4c0.1,0.8-0.3,0.9-1,0.9
		c-16.5,0-33.1,0-49.6,0c-0.7,0-1.1-0.2-1-0.9c0-0.2,0-0.4,0-0.6c-0.3-1.5,0.3-2.2,1.7-2.8c4.3-1.8,6.4-5.3,6.7-9.9
		c0.3-4.8-0.3-9.5-0.6-14.2c-0.9-11.4-3.3-22.5-6.7-33.4c-4.6-14.6-10.8-28.4-19.5-41.1c-1.9-2.7-3.9-5.3-5.9-7.9
		c-0.5-0.7-1-0.8-1.8-0.6c-10.6,2.8-21.3,4.6-32.2,5.8c-9.1,1-18.2,1.4-27.3,1.3c-0.9,0-1.3,0.1-1.3,1.2c0.1,27.2,0.1,54.4,0.3,81.7
		c0,5.2,1.6,10,5.4,13.8c1.5,1.5,3.3,2.7,5.3,3.4c1.4,0.4,1.7,1.2,1.7,2.5c0,1.4-0.4,1.8-1.8,1.7c-15.6-0.1-31.1-0.1-46.7,0
		c-1.3,0-1.7-0.3-1.7-1.7c0-1.4,0.4-2.1,1.7-2.6c5.8-2.4,8.7-7.1,10-13c0.5-2.3,0.7-4.6,0.7-7c0-65.3,0-130.7,0-196
		c0-4.1-0.3-8.2-2-12c-1.9-4.4-5.1-7.3-9.6-8.9c-0.4-0.2-1.2-0.1-1.2-0.8c0-1-0.1-2,0.1-2.9c0.1-0.4,0.8-0.2,1.2-0.2
		c5.2,0,10.4,0,15.6,0c23.2,0,46.3-0.1,69.5,0.1c13.5,0.1,26.6,2.1,39,7.8c19.1,8.9,31.7,23.5,36.4,44.1c3.3,14.4,0.8,28.4-6.1,41.4
		c-6.7,12.7-17,21.8-29.2,28.9C182.9,266.5,179.6,268,176.2,269.7z"/>
	<path class="st1" d="M226.8,179.8c3.1,0.5,6,1.3,8.9,2.3c17.8,6.5,31.5,17.7,39.6,35.2c4.3,9.3,5.9,19.1,5,29.3
		c-1.8,19.5-11.2,34.6-26.4,46.4c-5.7,4.5-11.9,8.1-18.6,11c-1.1,0.5-1.3,0.8-0.4,1.8c9.5,10.7,16.6,22.9,22.7,35.7
		c7.9,16.6,13.5,34,17.5,51.9c1.3,6,3,11.8,6.7,16.8c2.8,3.8,6.3,6.7,10.7,8.3c1.8,0.7,0.8,2.2,0.9,3.2c0.1,1.1-1,0.6-1.5,0.6
		c-16.1,0-32.1,0-48.2,0.1c-1.3,0-1.8-0.3-1.7-1.7c0-1.3,0.3-2,1.6-2.6c5.2-2.1,6.8-6.5,6.9-11.7c0.1-4.5-0.5-9-0.8-13.5
		c-1-12.7-4-25-8.1-37c-5.1-15-12-29.1-21.7-41.7c-0.1-0.1-0.2-0.3-0.3-0.5c-1.3-2.4-3.2-3.6-6-2.3c-1,0.5-1.3-0.1-1.6-0.9
		c-1.4-3.6-2.9-7.2-4.9-10.6c-0.5-0.9-0.2-1,0.6-1.3c6.5-2.3,12.8-5,18.7-8.7c13.1-8.1,22.6-19,26.5-34.1
		c3.8-14.7,2.6-28.9-5.4-42.1c-3.7-6.1-8.7-10.9-14.9-14.5c-0.5-0.3-0.8-0.5-0.9-1.1c-0.7-6.3-2.4-12.3-4.8-18.1
		C226.9,180.2,226.9,180.1,226.8,179.8z"/>
	<path class="st1" d="M172.1,317.7c-5.2,0.4-10.3,0.4-15.4,0.4c-1.2,0-1.5,0.3-1.5,1.5c0.1,26.7,0.1,53.4,0.2,80.1
		c0,5.1,1.1,10,4.6,14c1.8,2.1,4,3.6,6.6,4.6c1,0.4,1.4,0.8,1.2,1.8c-0.1,0.5,0,1,0,1.5c0,0.6-0.2,0.8-0.7,0.7c-0.2,0-0.5,0-0.7,0
		c-15.7,0-31.4,0-47.1,0c-1.2,0-1.4-0.3-1.5-1.5c-0.1-1.6,0.4-2.3,1.9-2.9c6.1-2.6,8.9-7.7,10-14c0.4-2.4,0.6-4.8,0.6-7.3
		c0-34.5,0-69,0-103.5c0-2.3,0-2.2,2.3-2.5c6.7-0.9,13.5-1.9,20.1-3.4c2.7-0.6,2.7-0.6,2.7,2.2c0,5.1,0.1,10.2,0,15.2
		c0,1.3,0.4,1.5,1.6,1.5c3-0.2,6-0.2,9-0.3c0.9,0,1.4,0.2,1.8,1c1.6,3.1,3.1,6.3,4.2,9.6C171.9,316.9,172,317.3,172.1,317.7z"/>
	<path class="st1" d="M127.8,88.6c-12.3,0-21.8-9.4-22.1-22.8c-0.1-7.6,2-14.2,7.9-19.2c5.2-4.4,11.4-5.8,18-5.1
		c10.4,1.1,17.7,7.5,19.8,17.6c1.9,9.1,0.2,17.4-6.9,23.9C140.1,87,134.8,88.5,127.8,88.6z"/>
	<path class="st1" d="M80.4,65.2c2.7,1.1,3.7,3.3,4.4,5.7c0.9,3.1,1.8,6.3,2.7,9.4c0.7,2.6,1.4,5.1,3.2,7.5c-3.2,0-6.1,0-9,0
		c-0.6,0-0.8-0.5-1.1-0.9c-0.9-1.3-1.4-2.8-1.9-4.4c-1-3.4-2-6.8-3.1-10.2c-0.9-2.7-2-3.5-4.8-3.6c-2-0.1-3.9,0-5.9-0.1
		c-0.9,0-1.2,0.3-1.2,1.2c0,5.6,0,11.2,0,16.8c0,0.9-0.2,1.3-1.2,1.3c-2.3-0.1-4.6-0.1-6.9,0c-0.8,0-1.1-0.1-1.1-1.1
		c0-14.6,0-29.2,0-43.8c0-0.9,0.3-1.1,1.1-1.1c6.3,0,12.7,0,19,0c3.1,0,6.1,0.8,8.8,2.6c6.5,4.4,7.3,15.8-1.6,19.9
		C81.4,64.7,81,64.9,80.4,65.2z"/>
	<path class="st1" d="M294.5,53c-2.5-1.9-5-3.4-7.9-3.9c-2.1-0.4-4.2-0.5-6.2,0.4c-3.5,1.5-4.1,5.6-1.1,7.9c1.8,1.4,3.9,2.1,6.1,2.8
		s4.4,1.4,6.5,2.4c4.9,2.4,7.5,6.2,7.5,11.7c0,5.4-2.4,9.6-7.2,12.2c-6.7,3.6-17.4,2.4-23.3-2.4c-1.1-0.9-1.5-1.7-1-3.1
		c0.8-2.4,1.4-4.9,2.1-7.5c0.6,0.1,0.8,0.6,1.1,1c2.8,3.3,6.2,5.6,10.7,6.2c4.2,0.6,7.5-1.6,7.9-5.3c0.3-2.5-0.7-4.5-2.9-5.8
		c-1.8-1.1-3.8-1.7-5.8-2.4c-2.4-0.8-4.7-1.7-6.7-3.1c-4.2-2.8-6.2-6.6-5.7-11.6c0.6-5.3,3.7-8.8,8.7-10.3c6.5-2,12.9-1.3,18.9,2.2
		c0.8,0.4,0.9,0.8,0.6,1.7C295.9,48.4,295.2,50.6,294.5,53z"/>
	<path class="st1" d="M221.3,64.9c0-7.2,0-14.5,0-21.7c0-1,0.2-1.3,1.2-1.3c2.3,0.1,4.5,0.1,6.8,0c1.1,0,1.4,0.3,1.4,1.4
		c0,11.7,0,23.3-0.1,35c0,1.5,0.3,1.9,1.8,1.8c6-0.1,12,0,18-0.1c1,0,1.4,0.2,1.3,1.3c-0.1,1.9-0.1,3.8,0,5.6c0,0.6-0.1,0.9-0.8,0.9
		c-9.6,0-19.2,0-28.8,0c-1,0-0.9-0.6-0.9-1.2C221.3,79.5,221.3,72.2,221.3,64.9z"/>
	<path class="st1" d="M172.5,64.9c0-7.2,0-14.5,0-21.7c0-1,0.2-1.3,1.2-1.3c2.3,0.1,4.5,0.1,6.8,0c1.1,0,1.4,0.3,1.4,1.4
		c0,11.7,0,23.3-0.1,35c0,1.5,0.4,1.9,1.8,1.8c6-0.1,12,0,18-0.1c1.1,0,1.4,0.2,1.3,1.3c-0.1,1.9-0.1,3.8,0,5.6
		c0,0.7-0.2,0.9-0.9,0.9c-9.6,0-19.2,0-28.8,0c-1,0-0.9-0.6-0.9-1.2C172.5,79.5,172.5,72.2,172.5,64.9z"/>
	<path class="st1" d="M126.4,475.6c13.6-0.1,23.2,9.7,23.3,23.5c0,13.8-9.5,23.6-23.1,23.7s-23.3-9.7-23.4-23.4
		C103.2,485.4,112.7,475.6,126.4,475.6z"/>
	<path class="st1" d="M78.6,499.3c2.7,1.2,3.8,3.5,4.5,6c0.9,3.1,1.8,6.3,2.7,9.4c0.7,2.5,1.4,4.9,3.1,7.3c-3.2,0-6.1,0-9,0
		c-0.5,0-0.7-0.4-1-0.7c-1-1.3-1.5-2.8-2-4.3c-1-3.4-2-6.9-3.1-10.3c-0.9-2.9-2.2-3.8-5.3-3.8c-1.8,0-3.7,0.1-5.5,0
		c-1,0-1.2,0.3-1.2,1.3c0,5.5,0,11,0.1,16.5c0,1.1-0.2,1.5-1.4,1.5c-2.2-0.1-4.4-0.1-6.6,0c-0.8,0-1.1-0.1-1.1-1c0-14.7,0-29.3,0-44
		c0-0.8,0.3-1,1-1c6.5,0,13-0.1,19.4,0.1c4.7,0.1,8.8,1.7,11.5,5.8c3.9,5.9,1.9,13.4-4.4,16.6C79.7,498.7,79.2,498.9,78.6,499.3z"/>
	<path class="st1" d="M272.5,499c0-7.2,0-14.5,0-21.7c0-1,0.2-1.3,1.3-1.3c9.3,0.1,18.6,0,27.9,0c1,0,1.4,0.2,1.3,1.3
		c-0.1,1.7-0.1,3.5,0,5.2c0.1,1.2-0.4,1.4-1.4,1.4c-6.1,0-12.2,0-18.3,0c-1.1,0-1.5,0.2-1.4,1.4c0.1,2.6,0.1,5.3,0,7.9
		c0,1,0.2,1.4,1.3,1.3c4.3-0.1,8.6,0,13-0.1c0.9,0,1.3,0.2,1.3,1.2c-0.1,1.8-0.1,3.7,0,5.5c0,1-0.3,1.2-1.2,1.2c-4.3,0-8.6,0-13,0
		c-1.1,0-1.4,0.3-1.4,1.4c0.1,3.1,0.1,6.1,0,9.2c0,1.1,0.2,1.4,1.4,1.4c6.2-0.1,12.3,0,18.5-0.1c1,0,1.4,0.2,1.4,1.3
		c-0.1,1.9-0.1,3.8,0,5.6c0,0.8-0.2,0.9-1,0.9c-9.5,0-19.1,0-28.6,0c-1.1,0-0.9-0.6-0.9-1.3C272.5,513.5,272.5,506.3,272.5,499z"/>
	<path class="st1" d="M232.9,475.6c5.9,0.1,10.4,1,14.3,3.9c2.8,2.1,4.6,4.9,5.8,8.1c0.3,0.8,0,1.1-0.7,1.3
		c-1.9,0.8-3.9,1.6-5.8,2.5c-0.8,0.3-1,0.2-1.4-0.6c-1.5-3.7-4.1-6.3-8.1-7.1c-7.9-1.7-14.4,2.7-15.8,10.7
		c-0.7,4.2-0.7,8.4,0.8,12.5c1.7,4.6,4.9,7.5,9.9,8.1c5.5,0.7,10.1-0.9,13-6.1c0.5-1,1-1.1,1.9-0.7c1.8,0.8,3.6,1.6,5.4,2.3
		c1,0.4,0.9,0.7,0.5,1.5c-4.4,7.5-11.1,11-19.7,10.7c-8.8-0.3-15.7-4.2-19.4-12.4c-4.1-9.4-3.5-18.6,3-26.9
		C221,477.8,227.2,475.6,232.9,475.6z"/>
	<path class="st1" d="M181.2,494.5c2.4-4.9,5-9.6,7.1-14.6c1.3-3.1,3-4.4,6.3-3.9c2,0.3,4,0.1,6,0.1c0.1,0.5-0.2,0.8-0.4,1.2
		c-4.6,8.7-9.2,17.4-13.8,26.1c-0.4,0.8-0.6,1.6-0.6,2.5c0,5,0,10,0,14.9c0,1-0.2,1.3-1.2,1.3c-2.3-0.1-4.5-0.1-6.8,0
		c-1.1,0-1.5-0.2-1.5-1.4c0.1-4.7,0-9.4,0.1-14.1c0-1.2-0.3-2.2-0.8-3.2c-4.6-8.7-9.2-17.5-13.8-26.2c-0.1-0.3-0.3-0.6-0.5-1
		c3.5,0,6.8,0,10.1,0c0.7,0,0.8,0.6,1,1c2.7,5.4,5.3,10.8,8,16.2C180.6,493.6,180.7,494.1,181.2,494.5z"/>
	<path class="st0" d="M97.3,213.9c0-18.6,0-37.2,0-55.8c0-1.3,0.3-1.6,1.6-1.6c13.9,0,27.8,0,41.7,0.1c9.9,0.1,19.6,1.2,28.7,5.3
		c14.7,6.5,23.7,17.8,26.7,33.5c3.1,16.1-0.1,31-9.7,44.3c-6.8,9.3-15.9,15.7-26.3,20.4c-10.3,4.7-21.1,7.4-32.2,9.1
		c-9.6,1.5-19.3,2.1-29,2.3c-1.2,0-1.5-0.3-1.5-1.4C97.3,251.2,97.3,232.5,97.3,213.9z"/>
	<path class="st0" d="M142.5,64.4c0,4.3-0.6,7.9-2.9,11.1c-5.5,7.8-18.3,6.8-22.4-1.8c-2.7-5.6-2.7-11.5-0.2-17.2
		c2.2-5.1,6.9-7.8,12.5-7.5c6.1,0.4,10.2,3.5,12,9.1C142.2,60.4,142.5,62.6,142.5,64.4z"/>
	<path class="st0" d="M69.7,49.8c1.7,0.1,3.7-0.3,5.7,0.3c2.6,0.7,3.9,2.7,3.8,5.5c-0.1,2.9-1.6,4.8-4.3,5.2
		c-3.5,0.5-6.9,0.1-10.4,0.2c-0.6,0-0.7-0.3-0.7-0.8c0-3.2,0-6.5,0-9.7c0-0.7,0.3-0.8,0.8-0.8C66.1,49.8,67.7,49.8,69.7,49.8z"/>
	<path class="st0" d="M126.4,515.1c-7.3,0-12.6-5-13.4-12.5c-0.4-3.6-0.2-7.2,1-10.7c2-5.4,6.5-8.5,12.3-8.5c5.9,0,10.4,3,12.4,8.4
		c1.8,5,1.8,10,0,15C136.8,512.1,132.3,515.1,126.4,515.1z"/>
	<path class="st0" d="M61.9,489.3c0-1.5,0-3,0-4.5c0-0.7,0.1-1,0.9-1c3.1,0.1,6.3,0,9.4,0.1c3.3,0.2,5.1,2.2,5.1,5.5s-1.7,5.4-5,5.5
		c-3.1,0.2-6.3,0.1-9.4,0.1c-0.9,0-1-0.4-1-1.1C61.9,492.4,61.9,490.9,61.9,489.3z"/>
	<path class="st1" d="M185.2,191.4c-9.6,0-19,0-28.4,0c-1.3,0-1.6,0.3-1.6,1.6c0,18.9,0,37.9,0.1,56.8c0,1.3-0.5,1.9-1.6,2.3
		c-7.1,3.1-14.4,5.1-22,6.7c-1.2,0.3-1.5,0.1-1.5-1.3c0.1-7.9,0-15.9,0-23.8c0-10.7,0-21.3,0-32c0-3.6-0.4-7.1-1.6-10.5
		c-1.7-4.9-5-8.2-9.9-10c-0.4-0.2-1.2-0.1-1.2-0.8c-0.1-1,0-2,0-3c0-0.1,0.3-0.2,0.5-0.2c0.3,0,0.7,0,1,0c18.7,0,37.3,0,56,0
		c1,0,1.7,0.3,2.4,1.1C180.7,182.2,183.3,186.5,185.2,191.4z"/>
</g>
</svg>
