<?xml version="1.0" encoding="utf-8"?>
<!-- Generator: Adobe Illustrator 27.0.0, SVG Export Plug-In . SVG Version: 6.00 Build 0)  -->
<svg version="1.1" id="katman_1" xmlns="http://www.w3.org/2000/svg" xmlns:xlink="http://www.w3.org/1999/xlink" x="0px" y="0px"
	 viewBox="0 0 278 418.9" style="enable-background:new 0 0 278 418.9;" xml:space="preserve">
<style type="text/css">
	.st0{fill:#ea3323;stroke:#FFFFFF;stroke-miterlimit:10;}
	.st1{stroke:#FFFFFF;stroke-miterlimit:10;}
</style>
<path class="st0" d="M132.1,48.4c1.3,0.7,1.8,1.2,3.2,1.5c1.2,0.3,2.8,1.2,3.2,0.2c0.5-1-0.2-2.3-1-3.5c-1.3-2.2-2-2.7-3.8-5.6
	c-0.3-0.7-0.7-1.3-1.3-1.3c0,0-0.2,2.2-0.8,3.5c-0.5,1.2-1.8,2-1.7,2.8C129.9,46.8,130.7,47.8,132.1,48.4z"/>
<path class="st1" d="M270.7,190.5c-1.5,2-2.2,6-4.3,9.3c-3,4.6-7.3,10.3-9.5,10.3c-1.2,0-1.5-2.7-1.5-2.7s-1.5-4.5,1-10.1
	c1.8-4,2.8-5.1,5.1-8.1c2.2-2.8,3.5-4.3,5-7.3c1.3-2.7,1.7-3.2,2.5-7.3c0.2-1-0.2-3.2-1.2-3c-1.3,0-5,8-8.8,12.4
	c-3.6,4.1-10.4,9.5-10.4,9.5s-0.7,0.5-0.7-0.8c-0.2-1.2-0.3-4.6,0.3-7.8c0.7-3.2,1.7-6.3,4.5-11.1c3.2-5.5,7.1-9.3,9.1-11.3
	c0.8-0.8,3.3-2.3,2-3.2c-1.2-0.7-4.6,2.3-7.3,4.3c-3.3,2.5-4.5,3.2-7.8,7.1s-4.1,5.6-4.1,5.6s-3.2,5.1-4,10.1s-0.8,7.8-0.8,7.8
	s0,4.5,0.5,7.1c0.3,2.8,1.5,7.1,1.5,7.1s1.7,4.8,2.3,7.8c0.7,3,1.8,11.8,1.8,11.8s0.8,6.3,0.3,12.3s-1,9.5-1.7,11.3
	s-2.5,6.6-5.5,9.9c-2.8,3.2-3.5,3.6-3.5,3.6s-3,2.5-5.5,3.8s-6.1,3-7.8,3.5c-1.7,0.3-4,0.5-4.1,0.5h-2.2l-0.7-0.5l-0.3-1.3
	c0,0-1.7-6.5-3.6-10.6c-1.7-3.5-5.1-8.3-5.1-8.3s-6-8.1-10.6-12.6c-5.3-5.3-11.3-9.3-14.9-12.1c-1.3-1-4.3-2.8-4.3-2.8
	S164.3,212.6,160,203c-3-6.6-5-11.4-4.1-18.7c0.2-1.7,0.8-4.8,1.2-4.8l2.2,0.7c0.2,0.2,2.2,2,4,2.7c1,0.3,2.8,0.7,2.8,0.7
	s1.5,0.2,2.3,0.3c0.8,0.3,2.3,0.8,3.3,1.3s2.5,1.5,2.5,1.5l2.8,2.2l3,2.3c0,0,1.7,1.2,2.2,1.3c0.5,0.2,0.8,0.3,1,0.3h0.7
	c0,0,0.7-0.2,0.8-0.8c0.2-0.8-0.8-0.2-2.3-1.8c-1.7-1.5-2.3-2.8-2.3-2.8s-0.3-1.3-1.7-2.8c-1.3-1.5-3-2.8-3-2.8s-1.2-0.8-2.8-1.3
	c-1.7-0.5-2.2-0.5-2.3-1.2c-0.2-0.7,2-0.3,2-0.3s2.5,0.3,4.5,1.3s3.2,2.2,3.2,2.2l1.3,1.2l0.8,0.8l0.8,0.5c0,0,0.8,0.8,1-0.3
	c0.2-1-0.2-1.8-0.3-2l-0.8-0.8l-3.3-2.8c-1-1-1.7-1.7-2.7-2.3s-2.5-1.7-4.3-2.3c-1.7-0.7-2.7-0.5-4.3-1.3c-1.2-0.5-2.2-0.8-2.8-1.8
	c-0.2-0.2-1-0.8,0.5-0.5s2.5,0.8,4.1,1.2c2.7,0.7,4.3,0.7,6.8,1.5c1,0.3,2.3,1,2.3,1l3.2,1.3c0,0,4.3,2.3,7.3,2.5s5.5-0.5,6.5-1
	c1-0.3,2.8-1.5,3.3-2s0.8-1,0.8-1l0.3-0.8v-0.7c-0.8-1-2.5,1.7-5.1,2.2c-2.8,0.5-2.7,0.8-4.5,0.5c-2-0.3-3.2-0.8-4.6-2.3
	c-2.7-2.5-3.6-4.8-7.1-6.3c-1.5-0.7-4.1-1.3-4.1-1.3s-3.6-1.2-5.6-2.3c-1.5-0.8-4.6-1.3-3.6-2.7c0.5-0.7,4.5,1.7,7.5,2
	c2.2,0.3,3.6,0.2,5.3,0.2s4-0.5,4.3-0.5c0.3-0.2,1.7,0,2.8,0.3c1.2,0.3,1.8,0.8,3,1.3s2.5,1.3,2.8,1.3l0.7,0.2l0.3-0.3l0.2-0.3
	l-0.2-0.3l-0.5-0.3l-1-0.7c0,0-1.5-0.8-2.8-2.2c-1.3-1.3-2.5-2.8-4.5-3.5s-4.3-1-4.3-1l-2.3-0.2l-1-0.2c0,0-1.7-0.5-0.3-0.8
	c1.3-0.3,2-0.5,2.3-0.5c0.2-0.2,2.5-0.3,3.8,0.2s3.5,1.7,3.6,1.7c0.2,0.2,2.2,1.7,4.3,2.2c2.2,0.5,5,0.7,5,0.7l1.3-0.3l0.7-0.2
	l0.5-0.3l-0.2-0.8c0,0,0-0.7-1-0.8s-3-0.5-4.8-1.8s-3.2-2.7-3.2-2.7s-1.3-1.2-4-1.8c-2.5-0.7-3.3-0.7-3.3-0.7l-0.8-0.3l-1.8-0.8
	c0,0-0.8-0.5-1.5-1.3s-1.7-2.3,1.2-1.5s3.5,1.3,3.5,1.3s1.5,1.5,2.8,1.7c0.8,0.2,1.5,0.3,2-0.3c0.8-0.8-1.5-1.8-3.2-3
	c-1.3-0.8-2.7-3-2.7-3s-1-0.8,0.5-0.5s4.1,2,4.1,2s1.3,0.7,2,0.8c0.5,0.2,1.8,1,2.5,1.3c0.5,0.2,2,0.5,3,1c1.3,0.8,2,2.2,2.7,2.7
	s1.2,1.3,2,1.5s1,0.5,1.5,0.2s0.7-0.5,0.7-0.5s0.2-0.3-0.7-0.8c-0.8-0.5-1.8-1.8-1.8-1.8l-0.3-0.7l-0.2-0.7l-0.8-1.3l-1.5-2.2
	c0,0-2.3-3.2-4.5-4.3c-2-1.2-3.5-1.8-3.5-1.8s-1-0.5-1.5-0.8c-0.8-0.7-1.2-1.2-1.8-2c-0.8-1-1.2-1.7-2.2-2.7
	c-1.8-1.8-7.5-2.8-5.3-4.1c1.2-0.7,2.7-0.3,3.3-0.2c0.7,0.2,2.2,0.8,3.6,1.3c1,0.3,1.7,0.3,2.7,0.7c1,0.3,2.2,0.5,2.7,0.8
	s1,1,1.3,1.2c0.2,0.2,1.5,2.3,3.8,3.5s3.5,2,5.8,2.2c1.8,0.2,4.8-0.5,4.8-0.5s0.8-0.3,0.2-1.2c-0.8-0.8-0.8-1-1.5-1.2
	c-2.7-1-4.8-0.7-6.8-2.7c-0.8-0.8-1.2-1-1.8-2.3c-0.7-1.3-0.3-1.7-0.8-2.5c-0.3-0.8-1.2-2-1.2-2s-2.5-3-5.1-4.5
	c-2.8-1.5-4.8-3-5.1-3.3c-0.5-0.3-1.5-1.7-1.5-1.7l-0.8-1.3l-0.5-1c-0.3-1.8,3,0.5,4.8,1.2c3,1,4.5,2.3,7.5,3.3
	c1.7,0.5,2.7,0.5,4.3,1.2c2.8,1.2,3.6,4,6.6,4.3c1.7,0.2,5,0.8,4.3-0.7c-0.7-1.7-4-1.7-5.6-3.6c-0.8-0.8-0.8-1.7-1.7-2.5
	c-1.3-1.7-4.5-3.2-4.5-3.2s-1-0.8-2.2-3.2c-1-2.3-3.5-4-8-6.1c-3-1.5-9-1.8-6.6-3.3c1.3-1,2.5-0.8,4.3-0.3c1.8,0.7,2.5,1.5,4,2.2
	s2.2,0.8,2.5,1s1.5,0.7,2,0.7c0.3,0.2,2.8,0.5,3.5,0.7l3.3,0.8l2.7,1c0,0,1.3,0.5,2.2,0.5c0.8,0,2.2-0.3,2.2-0.3l1-0.7l0.2-0.3
	c0,0,0.5-0.8-0.8-1c-1.2-0.2-1.8-0.2-2-0.2l-1.2-0.3l-0.5-0.2c0,0-2.3-1.8-4.3-2.7c-2.2-0.8-2.5-1-2.5-1l-0.8-0.2l-1-0.2
	c0,0-0.8,0-2.2-1.2s-1.8-1.8-3-3l-1.5-1.5c0,0-1.3-1-1.3-1.8c0.2-1.3,3,1.5,3,1.5l2,1.3c0,0,1.7,1.2,4.6,1.3c3,0.2,6.6-0.8,6.6-0.8
	s0.5-0.3,2.2,0.2s3,1.5,3,1.5l1.3,1.2l2,2.2l0.3-0.2c0.2-0.2,1-1-0.5-2.8s-4-3.5-4-3.5s-3.3-2-6.6-2.7s-4.8-0.7-4.8-0.7
	s-2.5,0-4-1.7s-2.5-3.3-2.5-3.3l-0.5-2.3c0,0-0.8-1-2.5-1.7c-1.5-0.7-3.2-1.7-3.2-1.7s-2.5-0.8-2.7-2c-0.5-2.2,4.1,0,6.6,0.5
	c2.3,0.5,3.3,1.3,5.6,1.8c2,0.5,3.2,0.7,5.3,0.5c1.2,0,1.8-0.2,3-0.3c1.2,0,2-0.2,3.2,0c1.7,0.3,2.3,1.2,4,1.8c1,0.5,1.5,1,2.7,1.2
	c1,0.2,3,0.8,2.7-0.2l-0.5-0.7c-0.8-1.2-1.8-1.2-2.8-2c-2.2-1.7-3.2-3-5.6-4.1c-1.7-0.8-2.7-1.2-4.5-1.5c-1.3-0.2-2.3,0.2-3.6-0.2
	c-1.5-0.5-2-1.2-3.5-2c-2.3-1.3-3.6-2.5-6.1-3.5c-1.7-0.7-4.5-1.3-4.5-1.3l-1.2-0.2l-0.5-0.2c-2.3-0.8,4.1-2.7,7.1-3.5
	c1.5-0.3,2.2-0.7,3.6-0.5c1.3,0.2,2.8,2,4.3,1.2c2.2-1.2-2.5-4.3-4-4.8c-2-0.8-5.5-0.2-5.5-0.2l-7.6-0.2l-2.2-0.3c0,0-1.3,0-2.3-1.2
	s-4.8-5.8-9.1-6.5c-4.5-0.7-5.8,0-6.1-0.3c-3.8-6-7.8-7.3-10.8-10.1c-0.8-0.8-2.2-2.7-2.5-2.5s-0.8,2.7-1.7,4.8
	c-1,2.5-0.3,3.6,0.2,4.6c0.7,1,1.5,1.7-0.2,2.7s-3.8,0.7-3.8,0.7s-1.8-0.3-3.3-1.2c-1.5-0.7-4.6-2-4.6-2s-3-0.8-5-0.7
	c-2,0.2-2.2,0.3-3.6,0.5c-0.8,0-1.2,0-2,0.2c-0.7,0.2-1.5-0.3-1.5,0.5s1.7,0.8,2.8,1.3s3.8,0.5,3.3,1.2c-0.7,0.7-3.2,0.8-3.3,0.7
	c-0.2,0-1.8-0.3-3.2-0.3c-2.2,0.2-2.3,0.2-5.5,1.7c-0.5,0.2-0.3,1.3,0.7,1c1.2-0.3,2.8-0.7,4.6-0.7c2,0,3.2,0.7,5.1,1.2
	c1.7,0.5,1.8,0.8,4.3,1.2c0.5,0,1.5-0.3,1.5,0.3c0,0.3-0.7,0.8-0.7,0.8s-1.5,0.3-1.3,0.8c0.3,0.7,1.7,0,2.3,0c0.7,0,1.7,0.2,1.5,0.8
	l-0.3,0.5c-1.8,0.5-2.8,0.8-4.5,1.5c-4.1,1.7-5.8,3.6-9.8,5.6c-3.8,1.8-9.9,4.1-9.9,4.1s-1.8,1-4.5,1.7s-2.8,0.5-4.6,0.8
	c-1.8,0.2-2.7,0.5-4.1,1.3c-1,0.5-1.5,1-2.3,1.8l-2.3,3.5l-1.3,2c-0.3,0.7-0.7,1-0.8,1.7c-0.3,0.8-0.5,1.2-0.7,2
	c-0.5,2,0,3.2,0.3,5.1c0.2,0.5,0.2,0.8,0.3,1.3c0.2,0.5,0.8,1,0.8,1l0.7,0.2c0,0,2.3-0.2,3.8-0.5s3.6-0.8,3.6-0.8l2.8-0.8l1.8-0.7
	c0,0,1.2,0,1.3,0.7c0.2,0.5-0.3,1.3-0.3,1.3s-1,0.5-1.8,0.8s-2.8,0.8-3,1l-2.2,0.7L90.8,96c0,0-0.3,0.2-0.7,0.7
	c-0.3,0.5-0.3,0.5-0.3,0.8c0.3,0.3,0.5,0.7,0.8,1c0.7,0.5,1,0.8,1.8,1c1.2,0.5,1.8,0.3,3,0.3c1.7,0,2.7-0.3,4.1-1
	c1.3-0.8,1.8-0.8,3.6-1.5c0.5-0.2,1.5-0.3,1.8-0.3c3.2-0.3,5,0.2,8.1,0.7c3.2,0.5,4.6,1.5,7.8,2c3.3,0.5,5.3,1.5,8.8,0.7
	c1.7-0.3,2.7-1.2,3.5,0.5c0.8,1.5,0.7,2.3,0.7,2.3s0,1-1.2,4.1c-1.2,3.2-4.8,10.9-4.8,10.9l-2.5,5c0,0-2,4-6.6,9.1s-5,5.5-5,5.5
	s-2.5,1.8-5,5s-2.5,4.3-4.8,6.6c-1.5,1.5-2.3,2.3-4.1,3.5c-1.8,1.2-4,0.8-9.8,4.8c-5,3.5-7.6,6.3-8,6.1c-0.3-0.2-2-1.5-2.7-1.8
	c-0.5-0.3-10.1-6.8-10.1-6.8l-4-2.7l-1.8-1.2l-0.3-0.7l-1-1.3c0,0-1.5-1.8-3.3-3.3c-1.8-1.7-3.8-3-6.8-3.6c-2.8-0.8-4.6-1.3-7.5-0.3
	c-1.8,0.7-2.8,1.3-4.1,2.7c-1.7,1.7-2,3-3.3,5s-2.7,3.8-3.3,4.8c-0.7,1-2,3.6-2,3.6s-3.3,5.3-5.1,8.8c-2.2,3.8-3,6.1-5,9.8
	c-3.2,5.8-7.6,11.8-8.8,14.4c-1.2,2.7-1.3,3-1.3,3s-0.3,1.5-0.5,2.5s-0.2,2.7-0.3,3.3c-0.2,0.8-0.7,1.7-0.8,1.8
	c-0.2,0.2-2,4-2.7,6.5S5.1,218.6,7,219.6c1.8,1,15.3-4.8,17.1-10.4c1.2-3.6-3.6-5.5-2.3-8.8c0.5-1.2,0.8-1.3,1.7-2.5
	c1.3-2.2,0.8-6.6,3.3-10.8c1.8-3,5.5-6.8,10.4-12.4c3.2-3.5,6.1-9.1,6.1-9.1s0.7-2,2-1.7c1.5,0.3,2.8,0.2,2.8,0.2l0.7,0.5l1.3,1.3
	l2,3c0,0,3.3,4.8,4.5,6.1s2.3,2.3,4,3.6c1.8,1.7,2.5,2.5,4.8,4.3c3.3,2.7,2.2,3.6-2.2,1.3c-1.5-0.8-3.8-1.7-5.6-2.2
	c-2-0.5-9.5-2.5-13.3-3c-3.6-0.5-4.3-0.3-4.3-0.3s-1.8-0.2-4,1.2c-2.2,1.3-3.3,2.3-3.3,2.3s-2.5,2.8-2.7,3.3s-1.3,2.5-1.3,2.5
	s-0.7,1-0.8,2.2c-0.3,1.2-0.2,2.3-0.2,2.3l0.2,2.5l0.2,2.3c0,0,0.5,5.8,1.7,11.6c0.3,1.7,0.7,4.3,0.7,4.3l0.8,6c0,0,0.5,6.3,1,8.5
	c0.5,2,0.8,2.2,1.2,3.5c0.7,2.5-0.5,3.6,0.7,6.6s2.2,2.7,3.3,4.5c0.8,1.3,1.2,1.7,1.8,3.3c0.7,1.7,2.8,7.1,5.3,11.1
	c2.7,4.1,6.1,9.3,8.5,8.8c2.3-0.5,4-4.1,4-4.1s2.7-7.1,1-14.1c-1.7-7.1-9.3-3.8-10.3-9c-0.2-1.2,0-3,0-3s-0.2-2.2-0.5-2.8
	c-0.3-0.7-3-5.6-4-9.8c-0.8-3.2-0.7-13.3-1.3-16.1c-1.8-7.3-2-6.6-1-8c1.2-1.3,2.2-1,2.2-1l1.5,0.2l1.2,0.5c0,0,1.3,0.8,2.2,1.3
	c0.7,0.5,3,2.3,3,2.3l5.6,3.6c0,0,3.2,1.8,4.5,2.5s2.5,1.5,2.5,1.5l1.5,1l2.5,1.8l0.5,0.5l0.3,0.7c0,0,1.2,2.7,6.1,5.5
	c4,2.3,7.5,1.7,9,3.5c0.3,0.3,3.2,4.1,4.5,6.5c1.7,2.7,3.6,5.8,4.3,6.8s4.8,6.1,4.8,6.1l5.5,6l7.1,6.6l6.5,5.5l4.1,3.3
	c0,0,3.6,3.5,7.8,6.3c4,2.7,4.1,3,6.8,4.8c2,1.3,4.6,3.2,7.3,5.1c2.7,2.2,5.6,6.1,4.5,7.5c-0.8,0.5-2.3-1.7-5.1-4.1
	c-2.3-2-3.5-3-5.8-4.6c-3-2.3-4.5-3.5-7.8-5.5c-1.7-1-4.6-2.8-4.8-2.5c-1.2,3.5-1,6.8-0.8,11.1c0.2,3,0.7,6,1.7,9.8
	c0.8,3.6,1.7,5.6,3,9.1s3.8,9,3.8,9l3.8,7.6l3.5,5.8l1.8,3l0.7,1c0,0,0.8,2,0,3.3s-1.8,4.1-3.3,4.3c-1.5,0.3-5,0.5-5,0.5l-19.7-0.3
	l-10.3-0.8c0,0-1.2-0.7-7.1-0.7c-3.5,0-6.3,1.5-8.3,1.7c-1.7,0.2-9.8-0.5-15.3,1.7c-5.1,2.2-7.5,2.7-9.3,6c-1.3,2.5,6.5,6.5,12.9,8
	c10.4,2.3,7.5-2.2,11.4-5c0.5-0.3,0.7-0.7,1.2-0.8c2.7-0.8,4.1,1.3,6.8,1.3c3,0,4.6-1,7.6-1.5c15.1-2,38.6,5.1,38.6,5.1
	s5.8,1.8,8.5,1.3c3.2-0.7,2.5-1.8,3.5-3.6c0.8-1.5,0.5-1.8,0.7-3.5c0-1-0.2-1.5-0.3-2.5c-0.7-2.8-2.5-6.8-2.5-6.8s-1.3-3-1.8-4.5
	c-0.7-2.2-1.3-3.5-1.7-5.8c-1-6.1-0.8-5.6-0.8-9.1c0-6.3,0.7-9.8,2.3-15.9c2.5-9,7.1-12.8,10.6-21.4c1-2.3,1-5.6,2.2-6
	c1.3-0.2,1.2,4.1,0.5,6.6c-2.2,8.6-7.5,12.3-9.9,21.1c-1.8,6.8-2.8,10.8-2.3,17.7c0.2,3.8,1.7,9.8,1.7,9.8s2,6.6,3,9.1s3,6.6,3,6.6
	l4.5,8l2.3,3.8c0,0,1.7,1.5,0.8,4c-0.8,2.5-2.5,4-4.5,6.1c-5.6,6.6-18.7,16.4-22.1,18.7c-4.6,3.5-4.5,4.5-4.8,5.5
	c-1.8,5.3-7.1,5.5-12.9,11.8c-1.3,1.3-4.8,5-4.1,8.1c0.3,1.2,14.6,3.6,22.9,0.2c6.5-2.8,0.8-6,2.7-9.1c1.3-2.3,4.6-2.3,6.1-4.3
	c2.5-3.3,0.8-3.2,3-5.8c7.1-8.6,11.8-13.6,24.5-21.4c1.2-0.7,3.3-1.7,3.3-1.7s1.8-0.8,2.5-1.8c0.8-1.3,0.7-2.5,0.7-4
	c0-1-0.2-1.5-0.2-2.5c0-1.2,0.2-1.8-0.2-3c-0.3-1.8-1.5-3.3-2.2-4.3c-0.7-0.8-1.8-2.3-2.5-5.5c-0.8-3.2-0.8-5.8,0.5-9.3
	s4.3-6.3,4.3-6.3l7.5-5c0,0,6.5-4.6,8.5-6.5c2.2-1.8,6.3-5.6,9.3-9.9c3.5-4.8,5.3-7.8,6.8-13.6c0.5-2.2,1-5.5,1-5.5s0-2.3,1.3-2.5
	s1.7,0.3,1.7,0.3s1.2,0.7,1.5,4c0.2,3.3-0.8,7.1-0.8,7.1s-1,3.8-1.3,6.1c-0.2,1.5-0.2,2.3-0.2,4c0,2.8,1.2,5.1,1.2,5.1
	s0.7,0.5,0.7-0.7c0-1.3,0.3-3.3,0.8-5.3c0.5-1.7,0.8-1.3,1.8-4.1c1.3-3.6,0.2-3.3,0.8-5.5c0.3-1,1.2-2,2.2-2s1.2,1.3,1.2,1.3
	s1,4.3,0.2,8.3s-3.8,9.5-3.8,9.5l-2.3,4c0,0-1.7,2.8-2.3,4.6c-0.7,2-0.8,2.8-0.5,4.6c0.5,2,2,4.6,2.8,4.1c0.7-0.5-1-2.2,1-6.1
	c2-4,4.6-6.5,4.6-6.5s3.6-4.3,5.3-7.6c1.5-3,3-7.8,3-7.8s1.2-4.3,0.8-8c-0.2-3.5-0.8-5.3-0.8-5.3l-1.5-2.7l-0.8-2l0.3-1.2
	c0.3-0.2,1.5,0.7,2.5,2s2,3,2.5,5.3c0.5,1.7,0.7,3.2,0.7,4.6c0,1.3-0.5,6.8,1.5,10.3c0.8,1.7,2.8,5.5,3,3.8c0.3-3.8-1.3-5.6-1.2-9.1
	c0.2-4,1.2-3,1.5-5c0.3-2.2,0.8-2.7,0.5-5.5c-0.3-2.7-1.5-6.1-1.5-6.1l-1.2-2.7l-0.5-1c0,0,0.3-0.5,0.8-0.5l4-1.3c0,0,5.1-2.3,7.1-4
	c2.2-1.5,4.6-4.1,4.6-4.1s3.3-4.1,5-7.1c4-7.5,4-16.9,3.8-21.2c-0.2-4.1-1.3-9.6-1.3-9.6s-1.3-6.6-1-10.9c0.3-4.3,0.7-6.3,0.7-6.3
	s-0.2-4.3,3.5-9c3.6-4.6,5.3-7.6,6-11.1C273,193.5,272,188.7,270.7,190.5L270.7,190.5z M160.9,160.7c-0.5,0-1.2-0.7-1.2-0.7
	s-0.2-0.2,0.3-0.5s1.2-0.2,1.2-0.2l0.5,0.2l0.8,1.2C162.4,161.2,161.4,160.9,160.9,160.7z M162.9,155.2c-0.5-0.2-1.3-0.7-1.3-0.7
	s-0.2-0.3,0.3-0.7c0.5-0.3,1.3-0.2,1.3-0.2l0.5,0.3c0.2,0.2,1,1,1,1.3C164.7,155.9,163.6,155.4,162.9,155.2z M164.7,149.6
	c-0.7-0.2-1.7-0.8-1.7-0.8s-0.2-0.3,0.5-0.7s1.7-0.2,1.7-0.2l0.7,0.3c0.3,0.3,1.2,1.2,1.2,1.7C166.9,150.4,165.4,149.7,164.7,149.6z
	 M166.2,144.4c-0.7-0.2-1.7-0.8-1.7-0.8s-0.2-0.3,0.5-0.7s1.7-0.2,1.7-0.2l0.7,0.3c0.3,0.3,1.2,1.2,1.2,1.7
	C168.4,145.1,166.9,144.4,166.2,144.4z M167.7,138.3c-0.8-0.2-1.8-1-1.8-1s-0.2-0.3,0.5-0.8s1.8-0.2,1.8-0.2l0.7,0.3
	c0.3,0.3,1.3,1.3,1.3,1.8C170.2,139.1,168.4,138.3,167.7,138.3z M168.7,131.7c-1-0.2-2.3-1.2-2.3-1.2s-0.3-0.5,0.7-1
	c0.8-0.5,2.2-0.3,2.2-0.3l0.8,0.5c0.3,0.3,1.5,1.7,1.7,2.3C171.7,132.7,169.7,131.8,168.7,131.7z M169.4,125
	c-1.2-0.2-2.8-1.5-2.8-1.5s-0.3-0.5,0.7-1.2s2.7-0.3,2.7-0.3s0.5,0.2,1,0.5c0.5,0.5,1.8,2,2,2.8S170.5,125.2,169.4,125z
	 M170.4,117.4c-1.3-0.2-3.2-1.7-3.2-1.7s-0.3-0.7,0.8-1.3c1.2-0.8,3-0.3,3-0.3s0.7,0.2,1.2,0.7s2.2,2.3,2.3,3.2
	C174.5,118.9,171.7,117.6,170.4,117.4z M169.7,86.6c-1-0.2-2.3-1.2-2.3-1.2s-0.3-0.3,0.7-0.8s2.3-0.2,2.3-0.2s0.5,0.2,0.8,0.5
	s1.7,1.5,1.7,2.2C172.8,87.6,170.7,86.7,169.7,86.6z M173.3,94c0.2,0.7-2.2-0.2-3.3-0.3c-1-0.2-2.5-1.3-2.5-1.3s-0.3-0.5,0.7-1
	c1-0.7,2.3-0.3,2.3-0.3s0.5,0.2,1,0.5C172,92,173.2,93.4,173.3,94z M168.5,106.3c1-0.7,2.7-0.3,2.7-0.3s0.5,0.2,1,0.5
	c0.5,0.5,1.8,2,2,2.8s-2.3-0.2-3.5-0.5c-1.2-0.2-2.8-1.5-2.8-1.5S167.5,107,168.5,106.3z M170.7,100.7c-1.2-0.2-2.8-1.5-2.8-1.5
	s-0.3-0.5,0.7-1.2s2.7-0.3,2.7-0.3s0.5,0.2,1,0.5c0.5,0.5,1.8,2,2,2.8C174.3,102,171.9,101,170.7,100.7z M172.8,75.8
	c1.3,0.3,1.7,1.2,1,1.2c-0.7,0.2-1,0.2-1.5,0.2c-1.5,0-1.3-0.7-3.3,0.3s-0.5,0.5-3.3,1.5c-2.7,1-2-1.7-2-1.7s0.2-0.5,0.5-1.8
	s2,0,3.2,0C169.5,75.5,171.4,75.5,172.8,75.8z M165.4,65.5l0.8,0.5c0.3,0.3,1.5,1.7,1.7,2.3c0.2,0.7-2-0.2-2.8-0.3
	c-1-0.2-2.3-1.2-2.3-1.2s-0.3-0.5,0.7-1C164.2,65.2,165.4,65.5,165.4,65.5z M159.4,57.6c0.8-0.5,2.2-0.3,2.2-0.3l0.8,0.5
	c0.3,0.3,1.5,1.7,1.7,2.3c0.2,0.7-2-0.2-2.8-0.3c-1-0.2-2.3-1.2-2.3-1.2S158.6,58.1,159.4,57.6z M157.8,165c0.5-0.3,1.2-0.2,1.2-0.2
	l0.5,0.2l0.8,1.2c0,0.3-1-0.2-1.5-0.2s-1.2-0.7-1.2-0.7S157.3,165.2,157.8,165z M91.3,86.1c-0.5,0.3-0.8,0.5-1.5,1
	c-0.8,0.7-1.7,2.3-2.2,1.8c-0.7-0.5-0.3-2.3-0.3-2.3s0.5-1.3,1.2-2.7c0.8-1.3,1.8-1.3,1.8-1.3c1,0,2.8,0.7,2.8,2.2
	C93.3,86.2,92.1,85.6,91.3,86.1z M104.9,91.2c0,0-0.7,0.2-0.8-1c-0.2-1.2,0.8-1.3,0.8-1.3s2-1,2,0.3C107,90.4,104.9,91.2,104.9,91.2
	z M122.6,68.7c0,0-2.2,3.5-5.1,4.8c-3,1.3-5,2-10.6,2.5c-0.8,0-0.5-0.5-0.5-0.5s6.5-1.8,10.1-3.8c2-1.2,4.3-2.7,5-3.3
	C123.8,66.4,122.6,68.7,122.6,68.7z M11.2,212.2c0,0.8-1,2.3-1.3,2.3s-1-1.5-0.8-2.3s0.3-3.2,1.7-2.8
	C11.7,209.6,11.2,211.4,11.2,212.2z M15.5,193.5c0,0-1.5,3.2-2,1.8C13,194.1,14,192,14,192c1.3-1.2,1.8-2.8,2.5-2.2
	C17,190.5,15.5,193.5,15.5,193.5z M36.1,161.2c-1.5,1.7-6.1,10.4-7.1,9c-1-1.2,4.5-9.5,5.6-11.1c1.2-1.8,2.2-1.5,2.2-1.5l0.3,0.3
	C36.9,157.9,37.6,159.5,36.1,161.2z M48.5,148.1c0,0-3.3,0.7-2.8-0.5c0.7-1.2,3-1.7,3-1.7c1.8,0.3,2.2,0.5,2,1.3
	C50.8,148.1,48.5,148.1,48.5,148.1z M61.9,171.3c-1.5,1.5-2-0.5-4.1-3c-2.2-2.3-1.7-4.3-1.7-4.3h0.3l0.3,0.2l0.8,0.3L58,165l1.7,1.7
	C60.4,167.6,62.3,171,61.9,171.3z M36.2,220.9c-0.5,0-1-1-1-1s-1.3-2-1.8-3.5c-0.5-1.3-0.7-3.5-0.7-3.5s-0.3-2.8-0.3-3.8
	c0.2-1.3,0.2-2.5,0.3-3.2c0.2-0.7,0.8-0.5,0.8-0.5c1,0,1,0.8,1,0.8v0.5c0,0,0,3,0.2,5.3c0,0.7,1.8,8.1,1.8,8.1
	S36.9,220.9,36.2,220.9z M35.9,186.1c-1.2,1.8-2,1.8-2,1.8c0-0.2-0.3-0.8,0.7-2.8s2-1.8,2-1.8l0.3,0.3
	C36.9,183.6,37.1,184.2,35.9,186.1z M47.7,255.5c0.3-0.7,2.5,1,2.5,1c0.8,0.2,1.7,1.7,1.7,1.7s0.3,1.2-0.7,1.5
	c-1,0.5-1.7-0.5-1.7-0.5S47.3,256.2,47.7,255.5z M63.3,204.8c-2.3-0.5-7.3-4.3-9.3-5.3s-5.3-1.3-3.8-2.7c0.2-0.2,0.3-0.5,0.7-0.5
	c0.3,0,1.8,0.5,1.8,0.5l3.6,1.5c0.2,0,2,0.8,3.5,1.7c1.3,0.8,3.6,2.3,3.6,2.3l1,0.8C64.4,203.5,65.6,205.3,63.3,204.8z M83.5,171.8
	c0,0-2.8,3.8-4.5,6.1c-2.2,3.2-4.8,8-5.3,7.5s2.3-5.8,3.8-8.6c1.7-3.5,4.1-5.3,5.1-5.6C84.8,170.1,83.5,171.8,83.5,171.8z
	 M74.5,337.8c0,0,0,0.7-1.2,1.5s-1.7,0.3-1.8,0.3c-0.2,0-1.3-0.7-1.3-1.3c0.2-0.7,2-1.2,2-1.2C75.4,336.9,74.5,337.8,74.5,337.8
	L74.5,337.8z M100.2,336.8c-1.2-0.2-1.3-0.5-1.2-0.7c0-0.2,0.3-0.5,1.7-0.5c1.3,0,1.3,0.7,1.3,0.7
	C102.1,336.8,101.6,336.9,100.2,336.8z M129.7,338.4c-2.5,0.7-3.5,0.3-5.6,0.5c-1.8,0.2-2.7,0.3-4.5,0.3c-3.2,0-3.5,0.2-8-1.2
	c-0.8-0.3-1.8-1.3-1.5-1.7c0.3-0.5,1-0.3,1-0.3s5.6,1,9.3,1.2c2.7,0.2,4,0.3,6.6,0.2c1.5,0,0.7-0.2,3-0.2
	C130.9,337.1,130.4,338.3,129.7,338.4z M145.5,333.8c-0.2,0.2-1.2,0.5-2,0.7c-1,0.2-0.5-0.7-0.5-0.7s0.7-1,1.5-1.5
	c1-0.5,1.5,0,1.5,0C146.3,332.9,145.7,333.6,145.5,333.8z M157.8,301.9c-1.2,2.5-1.5,3.3-1.7,5.6c-0.3,2.5,1.2,9.5-1.2,6.8
	c-0.8-1.2-1.7-6.6-1-9.3C155.1,299.1,159.9,297.5,157.8,301.9z M124.3,403.2c-1,0.7,1,2.7-2.2,2.5c-1.8-0.2-0.8-1.8-0.7-2l1.2-1.7
	c0.8-1.2,1.3-1.3,2.2-1.8c0.8-0.5,1.5,0.8,1.5,0.8s0.3,0.5,0.3,1.2C126.6,402.7,125.1,402.6,124.3,403.2z M141.7,386.5l-1.5,1.2
	c-0.2,0-1.2,0.8-1.5,0.3s0.2-1.2,0.2-1.3s1-1.3,1.8-1.7c0.8-0.5,1.3,0,1.3,0C142.5,386.2,141.7,386.5,141.7,386.5L141.7,386.5z
	 M149.5,96c0,0-0.7,2.2-2,2.7c-1.7,0.5-8,0.7-8.1,0.2c-0.2-0.5,7.3-1.2,10.1-4C150.1,94.2,149.5,96,149.5,96z M147.1,90.6
	c0.5-0.8,0.2,1.3,0.2,1.3s-0.5,2.2-1.7,2.8c-1.5,0.8-5.1,1.8-5.5,1.3C140.2,95.7,145,94.2,147.1,90.6z M136.9,65.7
	c0,0,0.7,0,1.7,0.5c1,0.7,1.7,2.7,1.7,2.7s0.2,0.3-0.7,0.3c-0.5,0-0.5-0.8-1-1.2c-0.7-0.5-1.2-0.7-2-1s-2,0.2-2.2-0.7
	C134.4,65.4,136.9,65.7,136.9,65.7z M129.2,71.2c0,0,0.3-1,1.8-1.8c1.3-0.8,3.2-0.8,3.2-0.8s1,0,2.2,0.8s2.2,3.6,2.2,3.6
	s0.3,1.8-0.5,2.5s-2.2-0.5-2.8-1.5c-0.8-1-1.3-1.3-2.5-1.7c-1.3-0.5-3.3,1-3.6,0C129.1,72,129.2,71.2,129.2,71.2z M128.7,94
	c-1,0.2-0.3-0.8-0.3-0.8s2.8-1.2,4.6-2.2c3-1.5,8.6-7.5,7.1-4.6c-0.7,1.3-2.7,3-2.7,3s-2.3,3.3-2.8,3.8
	C132.6,94.9,129.9,93.9,128.7,94L128.7,94z M105.4,158.4l0.2-0.3c0,0,5-3.3,12.8-2.3c4.6,0.7,9.1,4.8,8.5,5.3c-0.7,0.5-1.7,0-2,0
	l-1.7-0.8l-2.5-0.7c0,0-4.5-1-7.8-0.8s-6.3,1.3-6.3,1.3s-1.3,0.7-1.7-0.2C104.7,158.9,105.4,158.4,105.4,158.4z M117.6,251.7
	c-11.4-8.8-25.4-26.7-23.7-28.4c1.5-1.3,7.1,7,15.6,16.1c9,9.6,19.4,18.7,19.7,19.9C129.9,261.3,121.9,255,117.6,251.7L117.6,251.7z
	 M143.7,127.9c-4.8,8.3-11.4,14.6-11.4,14.6c-2.3,1.7-0.8-1.3-0.8-1.3s6.5-9,9.5-15.3c2.2-4.5,3.5-10.4,4.5-11.6
	C147.6,111.4,146.5,122.9,143.7,127.9z M156.9,218.7c-5-6-8.6-12.4-9.8-20.6c-0.3-1.8-0.3-4.5,1.3-4.1c1.5,0.2,1.3,3,1.3,3.6
	c0.5,4.8,2.5,9.6,6.1,15.4c5.1,8.1,13.4,14.4,13.1,14.9C168.2,228.8,159.9,222.4,156.9,218.7z M158.4,373.7
	c-2.8,2.7-7.6,6.3-7.6,6.3h-0.7v-0.8l0.2-0.3l0.3-0.5l0.3-0.5l0.3-0.5l1-1.2l2.3-2.2l2.3-2.2l3.6-3.6c0,0,1.3-1.5,1.8-1.8
	s0.8-0.7,1.3-1c0.7-0.3,1.5-0.8,1.8-0.5v0.7C165.7,366.1,161.4,370.9,158.4,373.7L158.4,373.7z M168.7,251c-2.2,1.5-3,1.3-4.3,2.8
	c-1.5,1.8-2,8-3.5,5.5s-0.5-6,2-8.6C165.9,247.2,172.3,248.4,168.7,251z M176.5,360.1c1-0.3,1.5-0.2,1.5-0.2l0.3,0.7
	c0,0.2-1.3,2-2,2c-0.8-0.2-0.5-1.2-0.5-1.2S175.5,360.5,176.5,360.1L176.5,360.1z M204.8,292.7c-1.5-1,0.8-4,0.8-6.5
	c0-2-0.3-3.5-0.3-5.1s1.7-2.2,1.7-2.2c0.3,0,1,0.3,1.8,2C209.7,282.5,207.5,294.3,204.8,292.7z M255.6,245.2
	c-0.3,7-0.7,11.9-4.8,17.2c-5,6.5-13.6,13.1-11.8,7.8c1.2-3.2,8.8-7.1,11.8-15.9c1.7-5.3,2-10.3,2-10.3l-0.3-10.1c0,0-0.2-0.8-0.2-2
	c0.5-1.3,1.2-0.3,1.2-0.3l0.3,0.5C253.8,232.5,255.7,240.3,255.6,245.2z"/>
</svg>
