<?xml version="1.0" encoding="utf-8"?>
<!-- Generator: Adobe Illustrator 27.0.0, SVG Export Plug-In . SVG Version: 6.00 Build 0)  -->
<svg version="1.1" id="Layer_1" xmlns="http://www.w3.org/2000/svg" xmlns:xlink="http://www.w3.org/1999/xlink" x="0px" y="0px"
	 viewBox="0 0 595.3 588.9" style="enable-background:new 0 0 595.3 588.9;" xml:space="preserve">
<style type="text/css">
	.st0{fill-rule:evenodd;clip-rule:evenodd;fill:#FF9800;}
</style>
<path class="st0" d="M146.5,268.1L146.3,43c25.2-0.6,50.7,0,75.6,0c41.6,0,83.2,8.6,104,47.6c9.7,18.3,14.1,40.5,11,64.3
	c-5.9,44.6-33.5,71.2-64.9,87.5C238.5,259.6,189.4,268.5,146.5,268.1L146.5,268.1z M87.2,74.7V445c0,14.5-2.1,29.2-8,40.4
	c-4.7,8.9-15.3,19.6-23.5,23.9l121.9,0.2c-0.9-1.6-6.3-4.9-7.7-6c-26.2-20.2-23.6-49.9-23.6-81.7c0-15.4-1-114.1,0.4-120.4
	c21.2-0.5,40.7-1.2,61.6-3.8c9.9-1.2,19.3-2.7,28.7-4.5c8.1-1.5,20.1-5.2,27.4-5.9c10.1,10.8,21.6,30.4,29.5,46.2
	c19.9,40,48.9,122.5,22.6,165.3c-1.2,2-2.5,3.8-3.9,5.6c-1.3,1.7-3.1,2.9-3.8,4.9l3.6,0.1c33.6-0.4,71.5,0.7,104.3,0
	c-0.8-2-7.6-8.4-9.7-11c-11-14.2-15.2-27.5-19.3-46c-10.7-49-23.4-85.5-45.3-129.1c-7.3-14.5-19.8-33.5-30-46.3
	c-2.1-2.6-3.5-3.6-4.6-6.4c7.4-4.2,13.6-6.8,20.3-11.2c19.6-12.8,36.4-27.5,49.2-48.3c38.9-63.3,20.5-143.3-39-178.8
	C309.4,15,271.1,9.8,232.2,9.8L56,9.9c1.9,1.9,4.3,3.3,6.8,5.1c6.7,5.1,12.3,10.9,16.5,19.2C85.3,46.4,87.2,59.4,87.2,74.7z"/>
<path class="st0" d="M398.8,80.2c4.6,12.2,8.7,22,11.1,36.1c2.1,11.9-0.4,12.3,5.6,17.5c22.4,19.5,32.8,52.3,28.4,86.5
	c-5.1,39.5-28,65.1-57.5,82.4c-13.1,7.6-25.9,11.2-31.3,14.3c1.3,6.2,13,24.1,15.5,34.2l12-3c1.8,3.2,6,7.7,8.5,11.2
	c2.8,3.8,5.3,7.5,8.1,11.7c15.9,24.3,28.3,50.7,37.5,79.5c6,18.6,12.4,43.7,13.5,64.8c1.5,28.1-6,43.6-18.6,58.9h108L529.4,562
	c-10.9-14.3-15.3-29.1-19.3-47.5c-11.4-52.3-34.9-116.6-65.8-158.6l-19.4-25.2l4.2-3c8.9-5.1,20.4-13.4,27.7-19.9
	c9.5-8.5,17.9-17.5,25.8-29c42.7-62.2,23-150.7-43.4-184.9C429.3,88.8,411.1,81.8,398.8,80.2z"/>
</svg>
