<?xml version="1.0" encoding="utf-8"?>
<!-- Generator: Adobe Illustrator 27.0.0, SVG Export Plug-In . SVG Version: 6.00 Build 0)  -->
<svg version="1.0" id="Layer_1" xmlns="http://www.w3.org/2000/svg" xmlns:xlink="http://www.w3.org/1999/xlink" x="0px" y="0px"
	 viewBox="0 0 240 64" style="enable-background:new 0 0 240 64;" xml:space="preserve">
	 <g fill="#3f8ef7" >
	 <polygon points="10.3,17.7 10.3,17.7 10.3,17.7 "/>
<path d="M236.5,8.1c0,0-1.7,2.9-1.7,2.9c-0.3,0.5-0.5,0.8-1.8,0.9c0,0-52.1,0-52.1,0c0.6-1,1.1-1.9,1.5-2.7c0,0,1.9-3.3,5.1-3.3
	l47.8,0c0.5,0,1.2,0.1,1.5,0.6c0,0.1,0.1,0.2,0.1,0.5C236.8,7.2,236.7,7.6,236.5,8.1 M230.1,13.8l-1.8,3.2c-0.2,0.5-0.6,1.2-1.8,1.6
	c-1,0.3-3,0.1-3.7,0l-44.3-2.9c0.6-0.9,1.1-1.7,1.6-2.4h50.5C230.4,13.4,230.2,13.5,230.1,13.8 M222.6,20.8c0,0-1.7,3.1-2.1,3.7
	c-0.1,0.1-0.6,0.7-2.2,0.4l-42.5-5.7c0.6-0.8,1.1-1.5,1.6-2.2l45.1,3c0.1,0,0.3,0,0.5,0.1C222.9,20.3,222.7,20.5,222.6,20.8 M208,29
	c-1.6,0.4-4.7-0.1-5.8-0.3c0,0-20-4.1-29.2-6c0.6-0.7,1.3-1.5,1.8-2.2l42.7,5.7L208,29z M193.5,33.3c-2.1,0.5-4.7-0.3-4.8-0.3l0,0
	c0,0,0,0,0,0l-19.5-6c1-1,1.9-2,2.8-2.9l30,6.2c0.1,0,0.7,0.1,1.5,0.3L193.5,33.3z M178.2,37.8c-1.4,0.4-3.4-0.4-4.1-0.8
	c0,0-5.2-2.4-10.6-5c1.6-1.3,3.1-2.7,4.5-4l20.3,6.3c0,0,0.4,0.1,1,0.3L178.2,37.8z M175.1,40.8c-0.6,1.5-1.2,3.1-5.4,4.6
	c-1.7,0.5-3.8-1-3.8-1c0,0-4.6-3.3-9.9-7.1c2.1-1.3,4.2-2.8,6.3-4.4l11.2,5.2c0.1,0,1.2,0.6,2.6,0.9
	C175.4,39.9,175.1,40.7,175.1,40.8 M159.4,48.4l-1.6,0.4c-1.3,0.3-2.9-1-3.4-1.5c0,0-2.5-2.6-5.8-6c2.1-0.9,4.1-2,6.1-3.1l10.4,7.4
	c0,0,0.6,0.5,1.5,0.9C164.3,47.1,159.4,48.4,159.4,48.4 M145.7,52.1c-1.1,0.2-2.4-1.6-2.7-2.3l-3.1-5.3c2.6-0.7,5.1-1.6,7.5-2.7
	l6.1,6.4c0.1,0.1,0.7,0.8,1.7,1.3L145.7,52.1z M135.3,55c-0.7,0.2-1.4,0.1-1.9-0.2c-1.1-0.7-1.5-2.3-1.6-2.4l-1.6-5.8
	c2.8-0.4,5.5-0.9,8.2-1.6l3.3,5.6c0.1,0.2,0.8,1.4,1.8,2.2L135.3,55z M128.6,52.9c0,0-4.4-4.2-5.9-5.7c2.1-0.1,4.2-0.2,6.2-0.5
	l1.6,5.9c0,0.2,0.4,1.5,1.3,2.5C130.5,54.8,130.2,54.4,128.6,52.9 M120.8,45.9V27.9h2.9l4.8,17.5C126,45.7,123.4,45.8,120.8,45.9
	 M111.7,45.4l4.8-17.5h2.9v17.9C116.8,45.8,114.2,45.7,111.7,45.4 M110.4,54c-0.6,0.6-1.3,1-2,1.1c0.9-1,1.2-2.3,1.3-2.5l1.6-5.9
	c2,0.2,4.1,0.4,6.2,0.5C115.9,48.8,110.4,54,110.4,54 M108.3,52.3c0,0-0.4,1.7-1.6,2.4c-0.5,0.3-1.2,0.4-1.9,0.2l-8.2-2.2
	c1-0.8,1.7-2,1.8-2.2c0,0,1.4-2.4,3.3-5.6c2.7,0.7,5.4,1.3,8.2,1.6L108.3,52.3z M94.5,52.1l-9.4-2.6c1-0.6,1.7-1.3,1.7-1.3
	c0,0,2.7-2.8,6.1-6.4c2.4,1,4.9,1.9,7.5,2.7l-3.1,5.3C96.9,50.5,95.6,52.3,94.5,52.1 M82.3,48.8l-8.8-2.4c0.9-0.4,1.5-0.8,1.5-0.9
	c0,0,4.9-3.5,10.4-7.4c2,1.2,4,2.2,6.1,3.1l-5.8,6C85.3,47.8,83.7,49.1,82.3,48.8 M70.5,45.5c-4.1-1.6-4.8-3.1-5.3-4.6
	c0-0.1-0.3-0.9-1-1.7c1.4-0.3,2.6-0.8,2.6-0.9c0,0,5.6-2.6,11.2-5.2c2,1.6,4.1,3,6.3,4.4l-9.9,7.1C74.2,44.5,72.2,46,70.5,45.5
	 M62,37.8c-0.4-0.1-5.1-1.5-11.1-3.2c0.6-0.1,0.9-0.3,1-0.3c0,0,16.4-5.1,20.2-6.2c1.4,1.4,2.9,2.7,4.5,4l-10.6,5
	C65.4,37.4,63.4,38.1,62,37.8 M46.7,33.3c-3.3-1-6.7-2-9.9-2.9c0.9-0.1,1.5-0.2,1.5-0.3c0,0,21.2-4.3,30-6.2c0.9,1,1.8,2,2.8,2.9
	l-19.6,6C51.5,33,48.8,33.8,46.7,33.3 M32.3,29c-4.4-1.3-8-2.3-9.5-2.8l42.7-5.7c0.6,0.7,1.2,1.5,1.8,2.2l-29.2,6
	C37,29,33.9,29.5,32.3,29 M22,25c-1.6,0.2-2.1-0.3-2.2-0.4l-2.1-3.7c-0.1-0.3-0.3-0.5-0.5-0.7c0.3,0,45.7-3,45.7-3
	c0.5,0.7,1.1,1.5,1.6,2.2L22,25z M13.8,18.6c-1.2-0.4-1.6-1.2-1.9-1.6c-0.7-1.3-1.7-3.2-2.2-3.8h50.5c0.5,0.8,1,1.6,1.6,2.4
	l-44.3,2.9C16.8,18.7,14.8,18.8,13.8,18.6 M7.3,11.8c-1.2-0.1-1.5-0.2-1.9-0.9c0,0-1.6-2.6-1.7-2.9C3.5,7.6,3.4,7.2,3.4,7
	c0-0.6,0.5-1.1,1.6-1.2l47.8,0c3.2,0,5.1,3.3,5.1,3.3c0.4,0.8,0.9,1.7,1.5,2.7H7.3z M100.8,5.8c2.2,0,4,0.6,5.3,1.9
	c0.9,0.9,1.6,2.1,1.9,3.6c0,0,0.1,0.3,0.2,0.4H61c-0.7-1.2-1.9-3.3-1.9-3.3c-0.1-0.1-0.8-1.5-2.4-2.7H100.8z M169,15v-1.8h9.4
	c-0.5,0.7-1,1.5-1.6,2.3L169,15z M169,18.4v-1.9l6.8,0.5c-0.5,0.7-1,1.4-1.6,2.1L169,18.4z M169,21.9v-2.2l4.2,0.6
	c-0.6,0.7-1.2,1.4-1.8,2.1C170.3,22.2,169.5,22,169,21.9 M169,23.4l1.4,0.3c-0.4,0.5-0.9,1-1.4,1.5V23.4z M154.7,27.9h11.4
	c-1.2,1.2-3.9,3.4-4,3.5C159.3,30.1,156.6,28.8,154.7,27.9 M142.8,27.9h8.6l9.5,4.4c-2,1.5-4,2.9-6.1,4.1
	C150.3,33.2,145.4,29.8,142.8,27.9 M135.9,27.9h4.6l13.1,9.3c-1.9,1.1-3.9,2.1-5.9,3C143.4,35.8,138.2,30.4,135.9,27.9 M130,27.9
	h3.9l12.4,12.9c-2.3,1-4.7,1.8-7.2,2.5L130,27.9z M128.4,27.9l9.3,15.8c-2.5,0.7-5.2,1.2-7.8,1.5l-4.8-17.3H128.4z M111.8,27.9h3.3
	l-4.8,17.3c-2.7-0.4-5.3-0.9-7.8-1.5C106,37.8,110.6,29.9,111.8,27.9 M106.3,27.9h3.9l-9.1,15.4c-2.5-0.7-4.8-1.5-7.2-2.5
	C98.9,35.6,104.8,29.4,106.3,27.9 M99.7,27.9h4.6L92.5,40.2c-2-0.9-3.9-1.9-5.9-3C92.4,33.2,98.3,29,99.7,27.9 M78.1,31.4
	c-0.1-0.1-2.8-2.4-4-3.5h11.4L78.1,31.4z M88.8,27.9h8.6l-12,8.6c-2.1-1.3-4.1-2.6-6.1-4.1C83.8,30.2,88,28.3,88.8,27.9 M71.2,23.4
	v1.7c-0.5-0.5-0.9-1-1.4-1.5C70.4,23.5,70.9,23.4,71.2,23.4 M71.2,19.8v2.2l-2.4,0.5c-0.6-0.7-1.2-1.4-1.8-2.1L71.2,19.8z
	 M71.2,16.5v1.9L66,19.1c-0.6-0.7-1.1-1.4-1.6-2.1L71.2,16.5z M71.2,15l-7.8,0.5c-0.6-0.8-1.1-1.6-1.6-2.3h9.3V15z M72.7,26.5
	C72.6,26.5,72.6,26.5,72.7,26.5l0-13.3h94.9l0,13.3c0,0,0,0,0,0L72.7,26.5z M132.3,11.4c0.3-1.5,1-2.7,1.9-3.6
	c1.3-1.3,3-1.9,5.3-1.9h44c-1.5,1.1-2.3,2.6-2.4,2.7c-0.5,1-1.1,2.1-1.9,3.3h-47.1C132.2,11.6,132.3,11.4,132.3,11.4 M238.2,5.6
	c-0.8-1.4-2.3-1.5-3-1.5h-95.8c-2.7,0-4.9,0.8-6.5,2.4c-1.2,1.2-2,2.7-2.4,4.5c0,0.1-0.1,0.4-0.9,0.4h-18.9c-0.8,0-0.9-0.4-0.9-0.4
	c-0.4-1.8-1.2-3.3-2.4-4.5c-1.6-1.6-3.8-2.4-6.5-2.4H5c-0.6,0-2.1,0.1-3,1.5C1.6,6.2,1.3,7.4,2.2,8.9c0,0,1.8,2.9,1.8,2.9
	c0.7,1.2,1.5,1.6,3.3,1.7c0,0,0.8,0.1,1.4,1.1l1.8,3.1c0.4,0.7,1.3,2.4,4.3,2.8c0.1,0,0.9,0.1,1.4,1c0,0,2.2,3.9,2.2,3.9
	c0.6,1.2,1.5,1.7,3.2,2.2c0,0,40.1,11.8,40.1,11.8c1.4,0.4,1.9,1.9,1.9,1.9c1,2.5,2.2,4.5,8.5,6.4c0,0,32.8,8.9,32.8,8.9
	c0.4,0.1,4.2,1.3,7-1.5c0,0,7.7-7.3,7.7-7.3c0,0,0.3-0.3,0.8-0.3c0.4,0,0.8,0.3,0.8,0.3c0,0,7.7,7.3,7.7,7.3c2.8,2.7,6.6,1.6,7,1.4
	c0,0,32.8-8.9,32.8-8.9c6.3-1.9,7.5-4,8.4-6.4c0-0.1,0.6-1.5,1.9-1.9c0,0,6.1-1.8,40.1-11.8c1.6-0.5,2.5-1,3.2-2.2l2.2-3.9
	c0.5-0.9,1.4-1.1,1.4-1.1c3.1-0.4,4-2.1,4.3-2.8c0,0,1.8-3.1,1.8-3.1c0.6-1,1.4-1.1,1.4-1.1c1.7-0.1,2.5-0.5,3.2-1.7
	c0,0,1.8-2.9,1.8-2.9c0.4-0.7,0.6-1.3,0.6-2C238.6,6.5,238.5,6,238.2,5.6"/>
<path d="M77.2,20.3c0.1-0.2,1.1-2.7,1.3-3c0.1,0.3,1.2,2.8,1.3,3H77.2z M78.9,15.3h-0.4l-4.1,9.1h1.1l0-0.1c0.3-1.1,0.8-2.2,1.2-3.2
	c0,0,0.1-0.1,0.1-0.2H80c0.4,1,0.9,2.1,1.3,3.4l0,0.1h1.5L78.9,15.3z"/>
<path d="M83.3,23.8L83.3,23.8c0.5,0.6,1.6,0.8,2.2,0.8c1.9,0,3.2-1.2,3.2-3c0-1.5-1.1-1.9-2.2-2.3c-1-0.4-1.9-0.7-1.9-1.8
	c0-0.8,0.6-1.4,1.5-1.4c0.7,0,1.2,0.4,1.5,1.1l0,0.1H88l0.4-1.1l0,0c-0.5-0.5-1.3-0.6-1.9-0.6c-1.8,0-2.9,1-2.9,2.5
	c0,1.6,1.2,2,2.2,2.4c0.9,0.4,1.8,0.7,1.8,1.8c0,1-0.7,1.8-1.7,1.8c-0.9,0-1.4-0.4-2-1.3l0,0h-0.2L83.3,23.8z"/>
<path d="M95.9,15.5h-6.7v0.9l0.1,0c0.8-0.1,1.5-0.2,2.7-0.2v8.1h1.3v-8.1c0.9,0,1.8,0.1,2.6,0.2l0.1,0L95.9,15.5L95.9,15.5z"/>
<path d="M102.8,23c-0.6,0.7-1.4,1-2.4,1c-2.1,0-3.4-1.5-3.4-3.9c0-2.6,1.4-4.2,3.5-4.2c1,0,2,0.5,2.6,1.2c0.7,0.8,0.8,1.7,0.8,2.8
	c0,0.1,0,0.1,0,0.2C104,20.9,103.6,22.1,102.8,23 M100.5,15.3c-2.8,0-4.8,1.9-4.8,4.6c0,2.7,1.9,4.6,4.8,4.6c3,0,4.9-1.9,4.9-4.8
	C105.4,16.7,102.9,15.3,100.5,15.3"/>
<path d="M114.3,15.5h-0.8v6.6h0c0-0.1-6.1-6.6-6.1-6.6h-0.6v8.9h0.9v-6.9h0c0,0.1,5.5,6.1,5.5,6.1l0.7,0.8l0,0h0.5L114.3,15.5
	L114.3,15.5z"/>
<path d="M128.6,15.5h-0.3l-2.2,3.9c0,0-1.4,2.5-1.5,2.7c-1.3-2.2-2.5-4.5-3.5-6.6l0,0h-0.5l0,0.1c-0.1,1.3-0.9,6.7-1.2,8.7l0,0.1
	h1.1v-0.1c0-1.3,0.2-3.1,0.5-5.1c0,0,0.1-0.9,0.1-1.2c0.2,0.3,1.8,3.5,2.5,4.8l0.7,1.5h0.2l0,0c0.7-1.7,1.8-3.7,3.2-6.2
	c0.2,1.5,0.5,4.6,0.6,6.3l0,0.1h1.4l0-0.1C129.4,22.2,129.1,19.3,128.6,15.5L128.6,15.5L128.6,15.5z"/>
<path d="M132.9,20.3c0.1-0.2,1.1-2.7,1.3-3c0.1,0.3,1.2,2.8,1.3,3H132.9z M134.7,15.3L134.7,15.3h-0.4l-4.1,9.1h1.1l0-0.1
	c0.3-1.1,0.8-2.2,1.2-3.2c0,0,0.1-0.1,0.1-0.2h3.1c0.4,1,0.9,2.1,1.3,3.4l0,0.1h1.5L134.7,15.3z"/>
<path d="M140.7,19.5v-3.4c0.5,0,1.3-0.1,1.8,0c0.9,0.1,1.3,0.7,1.3,1.5c0,0.9-0.6,1.5-1.6,1.7C141.7,19.5,141,19.5,140.7,19.5
	 M142.5,20c1.6-0.3,2.6-1.2,2.6-2.5c0-1.4-1-2-2.9-2h-2.7h-0.1v8.9h1.3v-4.3h0.4c0,0.1,1,1.2,1,1.2c0,0,1.5,2,1.5,2l0.8,1.1h0h1.6
	C146,24.4,142.7,20.2,142.5,20"/>
<path d="M152.5,15.5h-6.7v0.9l0.1,0c0.8-0.1,1.5-0.2,2.7-0.2v8.1h1.3v-8.1c0.9,0,1.8,0.1,2.6,0.2l0.1,0L152.5,15.5L152.5,15.5z"/>
<rect x="153.6" y="15.5" width="1.2" height="8.9"/>
<path d="M163.4,15.5v6.6h0c0-0.1-6.1-6.6-6.1-6.6h-0.6v8.9h0.9v-6.9h0c0,0.1,5.5,6.1,5.5,6.1l0.7,0.8l0.5,0v-8.9H163.4z"/>
	 </g>
</svg>
