<?xml version="1.0" encoding="utf-8"?>
<!-- Generator: Adobe Illustrator 27.0.0, SVG Export Plug-In . SVG Version: 6.00 Build 0)  -->
<svg version="1.1" id="Layer_1" xmlns="http://www.w3.org/2000/svg" xmlns:xlink="http://www.w3.org/1999/xlink" x="0px" y="0px"
	 viewBox="0 0 420.24 74.64" style="enable-background:new 0 0 420.24 74.64;" xml:space="preserve">
<path d="M37.92,0c2.35,1.11,2.74,3.53,3.58,5.58c5.42,13.35,10.74,26.75,16.15,40.11c2.09,5.17,4.25,10.31,6.53,15.4
	c1.3,2.9,3.37,5.13,6.61,6.01c2.13,0.57,3.9-0.29,4.56-2.4c0.29-0.92,0.47-1.92,0.48-2.88c0.11-14.71,0.19-29.43,0.25-44.14
	c0-1.19-0.06-2.39-0.28-3.56c-0.45-2.36-2.25-3.27-4.36-3.76c-0.42-0.1-0.84-0.17-1.26-0.26c-1.54-0.35-2.26-1.27-2.25-2.85
	c0.01-1.31,1.09-2.7,2.34-2.9c2.68-0.43,5.37-0.8,8.05-1.22c3.42-0.53,6.83-1.08,10.25-1.61c0.9-0.14,1.8-0.22,2.7-0.31
	c1.13-0.1,1.82,0.46,2.03,1.53c0.17,0.85,0.3,1.72,0.3,2.58c0.02,9.64,0.04,19.28,0,28.92c-0.03,6.64-0.18,13.27-0.21,19.91
	c-0.01,2.87,0.04,5.75,0.25,8.62c0.22,2.9,1.48,4.27,4.52,4.66c2.64,0.34,2.54,0.27,2.67-2.37c0.24-4.85,2.67-8.46,6.81-10.81
	c5.81-3.3,11.83-6.19,18.14-8.44c2.52-0.9,3-2.53,2.83-5.36c-0.05-0.86-0.23-1.72-0.46-2.55c-0.37-1.34-1.21-2.28-2.57-2.7
	c-2.23-0.7-4.49-0.8-6.76-0.26c-1.89,0.45-3,1.79-3.6,3.59c-0.35,1.04-0.63,2.1-1.03,3.12c-1.76,4.44-7.02,4.87-10.29,2.84
	c-2.82-1.75-3.39-4.5-1.64-7.61c1.63-2.9,4.29-4.6,7.24-5.87c3.5-1.5,7.21-2.22,11-2.42c2.86-0.16,5.74-0.37,8.59-0.2
	c3.37,0.2,6.77,0.57,9.92,1.93c4.39,1.89,6.83,4.96,6.89,10.05c0.08,6.96,0,13.92,0.04,20.88c0.01,1.09,0.18,2.21,0.49,3.25
	c0.58,1.96,2.45,2.41,3.82,0.87c1.49-1.67,3.2-2.55,5.45-2.23c1.03,0.15,1.27-0.32,1.28-1.29c0.05-14.75,0.16-29.5,0.2-44.24
	c0-1.44-0.26-2.91-0.55-4.33c-0.32-1.55-1.42-2.48-2.92-2.94c-0.82-0.26-1.7-0.43-2.44-0.83c-1.07-0.58-1.53-2.08-1.22-3.36
	c0.33-1.38,1.2-2.07,2.63-2.3c3.72-0.59,7.43-1.27,11.15-1.85c2.1-0.33,4.22-0.53,6.33-0.78c0.28-0.03,0.56-0.02,0.83-0.08
	c2.56-0.53,2.99,0.08,3.21,2.54c0.28,3.09,0.25,6.21,0.28,9.32c0.04,5-0.02,10,0.03,15c0.01,1.29,0.25,2.57,0.42,4.21
	c1.25-0.45,2.32-0.69,3.24-1.2c3.79-2.08,7.83-3.01,12.1-2.63c4.31,0.38,8.54,1.1,12.2,3.77c3.33,2.42,5.37,5.65,6.84,9.43
	c1.41,3.63,1.91,7.32,1.64,11.16c-0.44,6.16-2.53,11.6-7.21,15.82c-3.45,3.11-7.48,5.01-12.12,5.65c-6.7,0.92-12.5-1.24-17.89-4.96
	c-0.03-0.02-0.06-0.06-0.09-0.08c-2.94-2.04-2.97-2.13-6.22,0.45c-1.61,1.28-3.17,2.63-4.84,3.83c-0.68,0.49-1.55,0.84-2.37,0.96
	c-2.58,0.37-3.55-1.06-3.72-3.57c-0.05-0.77-0.01-1.54-0.01-2.31c-0.14-0.05-0.29-0.09-0.43-0.14c-0.6,0.64-1.21,1.28-1.79,1.93
	c-2.14,2.38-4.92,3.43-8,3.88c-3.37,0.49-6.74,0.49-9.94-0.75c-1.74-0.67-3.4-1.65-4.95-2.7c-1.25-0.85-2.37-1.11-3.72-0.39
	c-3.43,1.81-7.06,3.07-10.86,3.76c-3.69,0.67-7.38,0.53-10.75-1.2c-1.52-0.78-2.69-2.27-4-3.46c-0.25-0.23-0.43-0.54-0.9-1.14
	c-0.16,0.73-0.36,1.14-0.32,1.53c0.25,2.5-1.12,3.65-3.75,3.65c-17.76-0.04-35.52-0.02-53.28-0.02c-1.16,0-2.32,0.01-3.48,0
	c-1.86-0.02-2.75-0.86-2.88-2.7c-0.13-1.89,0.38-2.54,2.22-3.1c1.01-0.31,2-0.69,2.94-1.15c1.36-0.68,1.97-1.9,1.47-3.25
	c-0.92-2.5-1.97-4.94-2.98-7.41c-0.57-1.39-1.88-1.54-3.08-1.56c-3.8-0.08-7.6-0.05-11.4-0.01c-1.87,0.02-3.75,0.1-5.61,0.25
	c-0.57,0.05-1.3,0.31-1.62,0.73c-1.64,2.2-2.38,4.78-2.56,7.47c-0.16,2.43,0.63,3.44,2.93,4.23c0.85,0.29,1.73,0.47,2.59,0.74
	c0.37,0.11,0.98,0.29,1.01,0.49c0.14,1.3,0.37,2.66,0.15,3.92c-0.2,1.17-1.37,1.35-2.49,1.35c-5.88-0.02-11.76-0.05-17.64,0.02
	C1.86,73.49,0.7,73.18,0,71.76c0-0.72,0-1.44,0-2.16c0.61-0.66,1.1-1.62,1.85-1.92c3.83-1.52,6.41-4.31,8.06-7.92
	c1.78-3.88,3.33-7.87,4.89-11.85C20.52,33.36,26.21,18.8,31.89,4.23c0.75-1.93,1.47-3.83,3.87-4.23C36.48,0,37.2,0,37.92,0z
	 M192.79,51.34c-0.18-1.83-0.2-3.75-0.6-5.6c-0.44-2.05-1.03-4.11-1.89-6.01c-1.25-2.73-3.68-3.99-6.6-3.92
	c-2.13,0.05-4.12,0.91-5.92,2.08c-2.2,1.43-3.39,3.36-3.32,6.12c0.11,4.55,0.15,9.11-0.01,13.66c-0.11,2.92,0.92,5.14,3.1,6.95
	c1.87,1.56,4.01,2.64,6.44,2.54c2.97-0.13,5.15-1.78,6.54-4.39C192.4,59.2,192.37,55.26,192.79,51.34z M29.75,48.38
	c0-0.13,0.01-0.25,0.01-0.38c2.14,0,4.29,0.04,6.43-0.02c0.83-0.02,1.44-0.38,1.06-1.45c-1-2.84-1.82-5.75-2.97-8.53
	c-1.1-2.65-2.47-5.18-3.82-7.72c-0.61-1.15-1.19-1.1-1.87,0.02c-0.3,0.5-0.55,1.04-0.76,1.59c-1.41,3.61-2.83,7.23-4.21,10.86
	c-0.4,1.06-0.75,2.15-1.02,3.25c-0.21,0.9-0.2,1.72,1.12,1.8C25.74,47.94,27.75,48.18,29.75,48.38z M128.73,56.82
	c-0.14-1.02-0.31-2.59-0.61-4.13c-0.06-0.32-0.71-0.84-0.95-0.78c-4.07,1.21-7.57,3.24-9.38,7.32c-0.98,2.21-0.21,4.49,1.23,5.86
	c1.56,1.48,3.44,1.44,5.41,0.72c1.87-0.69,3.52-1.61,3.92-3.7C128.64,60.57,128.59,58.96,128.73,56.82z"/>
<path d="M420.24,66c-1.84,4.51-5.72,6.17-10.06,7.2c-5.6,1.33-10.62,0.1-15.09-3.47c-1.01-0.81-1.94-0.76-3.05-0.18
	c-3.24,1.7-6.56,3.21-10.22,3.77c-4.83,0.74-9.54,0.71-13.66-2.47c-0.83-0.64-1.33-0.74-1.97,0.29c-0.7,1.14-1.89,1.58-3.26,1.58
	c-8.62-0.02-17.24-0.01-25.86-0.01c-1.48,0-2.29-0.5-2.49-1.5c-0.39-1.96,0.16-3.41,1.54-3.97c0.73-0.29,1.55-0.43,2.18-0.86
	c1.41-0.96,2.22-2.38,2.26-4.1c0.12-5.55,0.25-11.11,0.21-16.67c-0.01-1.74-0.41-3.52-0.92-5.19c-1.02-3.33-3.72-4.33-6.46-3.92
	c-4.19,0.62-7.23,3-9.24,6.69c-0.25,0.46-0.35,1.05-0.35,1.58c-0.02,5.8-0.02,11.6-0.01,17.4c0,2.06,1.06,3.61,2.98,4.41
	c0.69,0.28,1.41,0.51,2.05,0.86c1.21,0.66,1.66,2.04,1.18,3.58c-0.28,0.9-1.18,1.72-2.55,1.71c-8.24-0.06-16.48-0.03-24.72-0.03
	c-1.79,0-2.74-0.68-2.93-2.25c-0.15-1.23,0.4-2.85,2.08-3.29c2.91-0.77,4.14-2.8,4.14-5.81c-0.01-5.64,0.03-11.28-0.02-16.92
	c-0.02-1.98-0.46-3.88-1.64-5.56c-0.81-1.15-1.92-1.79-3.25-1.92c-5.22-0.48-9.17,2.37-11.62,6.52c-0.34,0.58-0.48,1.35-0.49,2.04
	c-0.04,5.36-0.1,10.72,0.01,16.08c0.06,2.75,0.93,4.66,4.02,5.52c0.91,0.25,1.87,0.72,2.54,1.37c0.62,0.6,0.87,1.54,0.39,2.51
	c-0.53,1.07-1.39,1.67-2.51,1.68c-8.83,0.11-17.65,0.21-26.48,0.21c-0.98,0-2.03-0.55-2.94-1.06c-1.06-0.59-1.96-0.72-3.09-0.13
	c-3.59,1.9-7.48,2.55-11.48,2.16c-3.4-0.33-6.47-1.65-9.1-3.85c-0.88-0.74-1.71-0.88-2.7-0.35c-3.02,1.6-6.08,3.13-9.44,3.88
	c-4.46,1-8.86,0.91-13.05-1.15c-4.82-2.37-6.34-6.95-4.08-11.95c1.45-3.2,4.02-5.32,6.85-7.19c4.21-2.76,8.92-4.46,13.57-6.27
	c1.76-0.69,3.52-1.39,5.25-2.16c0.42-0.19,1.01-0.65,1.03-1.01c0.08-1.88,0.22-3.81-0.08-5.64c-0.35-2.11-1.81-3.38-4.02-3.72
	c-2.88-0.44-5.58-0.31-7.88,1.83c-1.21,1.13-1.26,2.65-1.63,4.08c-0.85,3.31-3.19,4.9-6.27,5.15c-1.5,0.12-3.1-0.08-4.55-0.5
	c-2.41-0.7-3.42-3.09-2.94-5.59c0.72-3.81,3.3-5.97,6.42-7.72c2.73-1.53,5.62-2.65,8.72-3.11c1.49-0.22,3.01-0.27,4.52-0.29
	c3.32-0.04,6.65-0.18,9.96,0.03c3.84,0.24,7.71,0.69,10.98,3.07c2.76,2.01,4.29,4.76,4.34,8.15c0.09,6.12-0.01,12.24,0.05,18.36
	c0.02,1.9,0.27,3.79,0.48,5.68c0.05,0.45,0.28,0.9,0.52,1.3c0.68,1.1,1.77,1.37,2.84,0.66c0.56-0.36,1.06-0.83,1.55-1.29
	c0.8-0.75,1.75-1.18,2.81-0.88c1.09,0.31,1.79,1.07,1.87,2.3c0.08,1.08,0.8,1.36,1.76,1.23c3.11-0.43,4.18-1.66,4.22-4.87
	c0.08-5.71,0.18-11.42,0.22-17.13c0.01-0.89-0.16-1.81-0.4-2.68c-0.57-2.07-2.19-2.9-4.12-3.43c-0.84-0.23-1.75-0.66-2.33-1.28
	c-1.72-1.85-0.14-4.97,1.97-5.39c3.08-0.61,6.17-1.14,9.26-1.7c2.47-0.45,4.93-0.98,7.42-1.3c3.1-0.39,4.29-0.56,5.44,2.93
	c0.06,0.19,0.11,0.38,0.18,0.56c0.49,1.32,0.69,1.41,1.95,0.69c1.85-1.05,3.63-2.24,5.54-3.18c4.21-2.06,8.67-2.4,13.3-1.93
	c2.99,0.31,5.72,1.09,8.08,2.96c0.96,0.76,1.89,1.62,2.63,2.59c1.43,1.88,2.44,2.05,4.15,0.37c3.35-3.28,7.36-5.37,11.95-6.04
	c5.73-0.84,11.19,0.28,15.96,3.62c3.1,2.17,4.96,5.43,5.15,9.22c0.29,6.09,0.14,12.21,0.34,18.3c0.06,1.88-0.08,3.87,1.07,5.61
	c0.84,1.27,3.25,2.22,4.73,1.72c0.47-0.16,1.05-0.89,1.06-1.36c0.06-5.81,3.42-9.39,7.93-12.34c4.72-3.09,9.96-5,15.15-7.06
	c0.95-0.38,1.9-0.75,2.86-1.06c1.36-0.44,1.6-1.53,1.81-2.76c0.33-1.98,0.11-3.93-0.73-5.65c-0.44-0.89-1.63-1.75-2.62-1.97
	c-1.72-0.38-3.56-0.43-5.33-0.29c-2.87,0.23-4.04,2.38-4.86,4.81c-0.34,1-0.73,2-1.18,2.95c-0.99,2.08-2.73,2.94-4.97,3
	c-1.89,0.05-3.74-0.09-5.29-1.29c-2.28-1.75-2.64-5.08-1.08-7.7c1.78-2.98,4.62-4.44,7.65-5.66c3.16-1.27,6.45-2.05,9.86-2.16
	c3.34-0.11,6.7-0.35,10.03-0.19c3.2,0.16,6.44,0.48,9.41,1.89c3.78,1.8,6.2,4.59,6.27,8.95c0.12,6.86,0.14,13.73,0.27,20.6
	c0.03,1.37,0.21,2.77,0.54,4.1c0.43,1.7,2.06,3.1,3.95,1.07c1.01-1.08,2.12-1.97,3.83-1.4c1.13,0.38,1.29,1.35,1.73,2.18
	C420.24,65.52,420.24,65.76,420.24,66z M238.03,57.48c0.05,0,0.1-0.01,0.15-0.01c-0.11-1.58-0.22-3.16-0.35-4.74
	c-0.09-1.08-0.52-1.41-1.56-1.06c-2.84,0.95-5.44,2.32-7.5,4.56c-1.12,1.22-1.8,2.69-1.96,4.32c-0.32,3.24,1.88,5.57,5.16,5.43
	c2.22-0.1,5.66-1.65,6.03-4.68C238.16,60.05,238.03,58.76,238.03,57.48z M392.98,56.6c-0.13-1.05-0.41-2.6-0.51-4.17
	c-0.08-1.25-0.83-1.22-1.64-0.99c-2.59,0.73-4.89,2.02-6.7,4.02c-1.68,1.85-2.9,3.94-2.27,6.59c0.57,2.4,3.21,4.34,5.32,3.61
	c1.74-0.6,3.32-1.7,4.92-2.65c0.3-0.18,0.49-0.73,0.52-1.13C392.77,60.31,392.84,58.72,392.98,56.6z"/>
</svg>
