<?xml version="1.0" encoding="utf-8"?>
<!-- Generator: Adobe Illustrator 27.0.0, SVG Export Plug-In . SVG Version: 6.00 Build 0)  -->
<svg version="1.1" id="Layer_1" xmlns="http://www.w3.org/2000/svg" xmlns:xlink="http://www.w3.org/1999/xlink" x="0px" y="0px"
	 viewBox="0 0 459.84 87.12" style="enable-background:new 0 0 459.84 87.12;" xml:space="preserve">
<path d="M0,47.04c0.29-1.27,0.52-2.56,0.89-3.81c1.57-5.26,5.01-9.2,9.09-12.66c6.84-5.82,14.87-9.37,23.32-12.09
	C41,16,48.82,13.97,56.83,12.77c7.25-1.09,14.54-1.45,21.87-1.28c1.76,0.04,3.51,0.01,5.27,0.25c-2.25,0-4.49,0.01-6.74,0
	c-10.97-0.04-21.66,1.87-32.2,4.74c-9.17,2.49-17.92,5.95-25.8,11.37c-3.9,2.68-7.6,5.56-10.4,9.48
	c-6.65,9.34-5.94,19.42,2.21,27.51c5.54,5.5,12.19,9.38,19.33,12.43c7.51,3.21,15.38,5.13,23.42,6.51
	c8.68,1.49,17.41,2.34,26.22,2.11c11.6-0.31,22.95-2.12,33.74-6.53c10.95-4.47,19.69-11.91,27.08-21c2.06-2.54,3.94-5.24,5.87-7.88
	c0.36-0.49,0.58-1.09,0.95-1.82c-1.4-0.56-2.62-1.19-3.9-1.52c-1.64-0.43-3.06,0.26-4.24,1.4c-1.75,1.69-3.39,3.52-5.24,5.11
	c-5.44,4.69-11.92,7.29-18.77,9.13c-9.8,2.63-19.76,4.07-29.92,3.88c-8.9-0.16-17.64-1.44-26.12-4.21
	c-5.26-1.71-9.93-4.55-14.29-7.88c-3.48-2.66-4.49-6.75-2.65-10.58c0.62-1.28,1.73-2.32,2.61-3.48c0.16,0.06,0.32,0.12,0.48,0.18
	c-0.04,0.79,0.14,1.66-0.14,2.35c-2.18,5.33,0,9.71,3.59,12.72c4.68,3.93,10.18,6.21,16.07,7.6c8.93,2.1,17.99,2.59,27.13,1.94
	c9.6-0.68,18.92-2.71,27.48-7.07c5.81-2.96,11.15-6.83,16.69-10.31c0.06-0.04,0.08-0.13,0.14-0.25c-0.34-1.04-0.94-1.75-2.06-2.21
	c-2.98-1.23-5.95-2.52-8.84-3.94c-2.68-1.32-5.03-3.12-6.81-5.56c-2.23-3.06-2.51-6.32-0.74-9.67c1.13-2.14,2.59-4.02,4.77-5.26
	c0.33-0.19,0.68-0.72,0.65-1.06c-0.06-0.61-0.12-1.25-1.02-1.52c-6.34-1.86-12.65-3.8-18.97-5.72c-0.43-0.13-0.84-0.28-1.27-0.42
	c0.03-0.11,0.06-0.23,0.09-0.34c0.35,0.06,0.72,0.1,1.06,0.19c6.81,1.81,13.61,3.65,20.42,5.44c1.58,0.41,3.11,0.28,4.63-0.52
	c9.24-4.85,19.07-8.1,29.28-10.06c8.88-1.7,17.82-3.09,26.78-4.3c6.4-0.86,12.87-1.21,19.32-1.78c2.98-0.26,5.97-0.49,8.95-0.75
	c0.19-0.02,0.37-0.12,0.55-0.19c0.56,0,1.12,0,1.68,0c0.24,0.15,0.49,0.3,0.65,0.41c-3.29,0.86-6.64,1.54-9.86,2.6
	c-10.73,3.54-19.21,10.24-26.09,19.08c-5.46,7.01-9.57,14.78-13.07,22.9c-0.06,0.14-0.09,0.3-0.22,0.77
	c2.34-0.38,4.5-0.73,6.66-1.09c0.02,0.04,0.04,0.09,0.06,0.13c-0.99,0.41-1.98,0.81-2.96,1.23c-1.13,0.49-2.34,0.86-3.36,1.53
	c-0.83,0.54-1.72,1.3-2.1,2.18c-6.13,14.32-16.87,23.58-31.4,28.62c-8.78,3.04-17.8,5.16-26.98,6.64
	c-6.47,1.04-12.97,1.76-19.52,1.94c-0.39,0.01-0.78,0.12-1.18,0.18c-3.04,0-6.08,0-9.12,0c-0.55-0.07-1.1-0.15-1.65-0.2
	c-4.88-0.42-9.8-0.65-14.65-1.3c-10.56-1.41-20.83-4.08-30.87-7.64C22.3,75.47,15.68,72.16,10,67.14
	c-4.09-3.62-7.55-7.69-9.14-13.05C0.5,52.88,0.28,51.63,0,50.4C0,49.28,0,48.16,0,47.04z M141.69,45.22c2.05,0.87,3.85,2,6.06,1.36
	c1.74-0.5,2.71-1.88,3.75-3.2c3.17-4.01,6.21-8.13,9.59-11.96c9.14-10.37,19.83-18.73,32.51-24.41c2.98-1.33,6.01-2.56,8.99-3.88
	c0.29-0.13,0.42-0.6,0.62-0.91c-0.31-0.15-0.64-0.45-0.93-0.43c-1.83,0.16-3.65,0.41-5.47,0.59c-7.94,0.78-15.82,1.88-23.61,3.63
	c-12.21,2.74-23.67,7.24-33.92,14.56c-1.44,1.03-2.84,2.12-4.33,3.24C141.08,29.81,145.43,36.21,141.69,45.22z M139.86,37.92
	c-0.09-5.09-2.4-8.26-5.16-11.17c-0.67-0.71-1.98-0.46-2.5,0.37c-1.17,1.86-2.4,3.69-3.36,5.65c-0.57,1.17-0.94,2.59-0.9,3.88
	c0.1,3.07,3.35,6.48,6.78,7.46c2.15,0.61,3.48,0.05,4.22-2.11C139.48,40.44,139.68,38.76,139.86,37.92z"/>
<path d="M393.06,76.84c2.67,1.07,5.31,1.71,8.06,0.21c0.65-0.35,0.9-0.57,0.8-1.4c-0.2-1.56-0.36-3.2-0.11-4.73
	c0.17-1.04,0.87-2.17,1.65-2.91c1.37-1.29,3.05-2.2,4.99-2.38c4.19-0.39,7.55-2.44,10.51-5.24c2.41-2.28,4.69-4.7,7.05-7.04
	c4.26-4.21,8.84-7.96,14.45-10.3c4.52-1.88,9.21-2.12,13.99-1.68c0.24,0.02,0.48,0.11,0.71,0.09c2.09-0.18,3.52,0.77,4.48,2.67
	c-1.09,1.35-2.24,2.47-4.35,2.06c-2.18-0.43-4.43-0.54-6.64-0.87c-0.81-0.12-1.58-0.53-2.38-0.75c-0.68-0.18-1.41-0.45-2.08-0.37
	c-3.35,0.39-4.34,2.12-2.85,5.51c0.79,1.8,2.19,3.32,3.28,4.99c1.02,1.57,2.15,3.09,2.97,4.77c2.08,4.28,1.16,8.22-2.52,11.24
	c-4.06,3.33-8.59,5.79-13.63,7.27c-8.01,2.35-16.06,2.37-24.09,0.13c-2.09-0.58-4-0.58-6.05,0.16c-5.43,1.96-10.82,1.44-16.11-0.69
	c-2.35-0.95-3.58-2.72-3.63-5.27c-0.02-1.19,0-2.38,0-3.69c-4.01,0.38-7.92,0.56-11.04,3.71c-3.86,3.91-8.59,6.5-14.1,6.98
	c-7.21,0.63-14.02-0.55-19.52-5.87c-1.17-1.13-2.41-2.2-3.66-3.33c-1.68,1.5-3.21,3.03-4.9,4.36c-6.92,5.46-14.58,6.37-22.79,3.51
	c-0.71-0.25-1.39-0.61-2.02-1.03c-1.83-1.23-2.5-3.08-1.97-5.23c0.69-2.78,2.34-5.05,3.97-7.32c1.78-2.46,3.6-4.89,5.39-7.35
	c1.81-2.48,2.31-5.44,3.07-8.27c-5.59-1.31-10.11,0.59-14.11,4.23c-3.83,3.49-6.63,7.76-9.31,12.13c-2.08,3.41-4.1,6.85-6.18,10.26
	c-1.33,2.18-3.32,3.28-5.88,3.3c-3.07,0.02-6.14,0.01-9.38,0.01c0.73-1.65,1.4-3.17,2.07-4.69c-0.05-0.08-0.1-0.16-0.16-0.23
	c-0.99,0.58-2.02,1.1-2.97,1.75c-3.4,2.31-7.09,3.8-11.24,3.97c-3.47,0.14-6.84-0.42-10.07-1.69c-2.41-0.95-3.95-2.75-4.75-5.34
	c-1.5,0.78-2.9,1.52-4.32,2.23c-2.32,1.16-4.62,2.35-6.98,3.42c-4.27,1.96-8.68,1.82-13.11,0.64c-3.83-1.01-5.7-3.72-6.23-7.75
	c-0.92,0.71-1.73,1.32-2.52,1.95c-3.32,2.65-6.75,5.1-11.01,6.08c-4.33,0.99-8.57,0.72-12.7-0.85c-3.93-1.49-5.29-4.4-3.99-8.42
	c0.38-1.17,0.86-2.32,1.47-3.39c8.68-15.26,17.4-30.5,26.08-45.76c1.37-2.41,3.47-3.49,6.08-3.6c2.83-0.12,5.68-0.03,8.75-0.03
	c-0.84,1.63-1.56,3.16-2.39,4.64c-6.55,11.61-13.15,23.19-19.66,34.82c-3.13,5.6-6.11,11.29-9.13,16.95
	c-0.33,0.62-0.55,1.34-0.64,2.03c-0.22,1.75,0.86,2.57,2.63,2.41c5.77-0.54,10.05-3.74,14.02-7.59c4.77-4.63,8.65-9.93,11.95-15.68
	c6.48-11.33,12.97-22.65,19.41-34c1.42-2.51,3.33-3.79,6.31-3.62c2.82,0.16,5.66,0.03,8.71,0.03c-0.83,1.63-1.53,3.15-2.35,4.59
	c-8.58,15.13-17.21,30.24-25.74,45.4c-1.4,2.49-2.53,5.16-3.47,7.85c-0.77,2.21,0.66,3.5,2.91,2.9c6.19-1.66,11.35-4.98,15.69-9.66
	c4.83-5.2,8.53-11.14,11.67-17.47c0.35-0.71,0.72-1.43,1.15-2.1c1.49-2.32,3.32-3.02,6.04-2.61c1.49,0.22,3.02,0.18,4.54,0.22
	c1.39,0.03,2.79,0.01,4.29,0.01c-0.21,0.4-0.39,0.78-0.6,1.15c-4.23,7.56-8.48,15.1-12.67,22.68c-0.75,1.35-1.39,2.79-1.84,4.27
	c-0.8,2.64,0.8,4.27,3.48,3.64c4.24-0.99,7.94-3.02,11.25-5.84c6.13-5.25,10.86-11.57,14.56-18.7c0.75-1.45,1.55-2.89,2.49-4.22
	c1.75-2.47,4.21-3.37,7.22-3.07c2.17,0.21,4.36,0.22,6.54,0.33c0.15,0.01,0.3,0.04,0.56,0.07c0,1.01,0,2,0,3.25
	c1.01-0.35,1.87-0.59,2.67-0.94c4.42-1.97,8.97-3.34,13.89-2.94c2.45,0.2,4.81,0.7,6.95,1.98c2.5,1.5,3.29,3.58,1.98,6.21
	c-1.17,2.35-2.61,4.57-4.09,6.75c-2.44,3.6-5.06,7.09-7.49,10.7c-0.83,1.23-1.54,2.62-1.95,4.05c-0.48,1.69,0.81,2.87,2.56,2.59
	c1.34-0.21,2.67-0.44,4-0.7c2.67-0.52,4.82-1.97,6.82-3.76c4.07-3.64,7.76-7.61,11.09-11.94c5.68-7.38,12.81-12.64,22.01-14.79
	c4.62-1.08,9.31-1.49,14.02-0.83c1.35,0.19,2.69,0.74,3.94,1.34c3.82,1.83,5.34,4.95,4.05,8.97c-0.87,2.71-2.27,5.25-3.48,7.85
	c-0.5,1.08-1.11,2.1-1.67,3.15c2.08,0.95,4.28,0.62,5.95-1.17c1.38-1.48,2.6-3.14,3.73-4.83c2.37-3.55,4.62-7.19,6.93-10.77
	c0.6-0.94,1.15-1.97,1.96-2.7c0.8-0.71,1.88-1.49,2.87-1.54c3.77-0.18,7.56-0.07,11.5-0.07c-0.29,0.54-0.48,0.92-0.69,1.29
	c-4.2,7.25-8.37,14.53-12.61,21.75C394.06,71.67,393.03,74.03,393.06,76.84z M370.02,69.73c-1.38-1.15-2.63-2.19-3.87-3.25
	c-0.82-0.7-1.02-1.52-0.6-2.56c0.85-2.12,2.19-3.76,4.43-4.37c1.68-0.46,3.43-0.7,5.15-0.97c1.88-0.3,3.26-1.6,3.04-3.38
	c-0.43-3.38-1.73-6.36-5.07-7.86c-3.4-1.53-6.62-1.02-9.53,1.3c-7.84,6.26-13.02,14.4-16.59,23.64c-1.06,2.74-0.15,4.55,2.59,5.59
	c2.43,0.93,4.94,0.9,7.43,0.36C362.43,77.05,366.85,74.29,370.02,69.73z M407.41,75.81c2.97,2.31,6.14,2.82,9.49,2.29
	c5.05-0.8,9.15-3.44,12.64-7.03c5.04-5.2,8.26-11.23,7.97-18.71c-0.07-1.89-0.64-3.64-1.94-5.19c-5.43,5.32-10.77,10.54-16.21,15.86
	c1.52,1.64,2.97,3.21,4.5,4.87c-1.39,0.74-2.68,1.53-4.07,2.13c-0.61,0.27-1.42,0.33-2.09,0.2c-2.14-0.41-4.09-0.07-5.74,1.32
	C410.41,72.84,408.99,74.31,407.41,75.81z"/>
<path d="M410.42,31.32c1.67,0.33,3.36,0.58,4.99,1.04c0.76,0.22,1.5,0.76,2.07,1.33c1.09,1.1,0.91,2.59-0.47,3.3
	c-1.36,0.7-2.9,1.07-4.31,1.67c-3.36,1.43-6.61,0.48-9.87-0.41c-0.93-0.25-1.83-0.68-2.06-1.77c-0.24-1.17,0.42-1.99,1.24-2.67
	c1.69-1.4,3.77-1.82,5.86-2.12c0.83-0.12,1.67-0.13,2.5-0.19C410.39,31.44,410.41,31.38,410.42,31.32z"/>
<path d="M271.28,30.86c1.67,0.3,3.1,0.48,4.48,0.84c0.7,0.18,1.41,0.6,1.97,1.07c1.82,1.54,1.59,3.41-0.64,4.25
	c-2.26,0.85-4.62,1.86-6.96,1.94c-2.38,0.08-4.84-0.75-7.17-1.48c-1.49-0.47-1.81-1.94-0.75-3.09c0.91-0.98,2.1-1.91,3.35-2.34
	C267.45,31.4,269.51,31.2,271.28,30.86z"/>
<path d="M179.66,42.19c3.29-1.99,6.58-3.98,9.94-6.01c0.52,0.49,0.78,1.01-0.05,1.54c-1.06,0.68-2.08,1.46-3.22,1.96
	c-2.16,0.96-4.4,1.75-6.6,2.62C179.71,42.27,179.69,42.23,179.66,42.19z"/>
</svg>
