<?xml version="1.0" encoding="utf-8"?>
<!-- Generator: Adobe Illustrator 27.0.0, SVG Export Plug-In . SVG Version: 6.00 Build 0)  -->
<svg version="1.1" id="Layer_1" xmlns="http://www.w3.org/2000/svg" xmlns:xlink="http://www.w3.org/1999/xlink" x="0px" y="0px"
	 viewBox="0 0 421.44 64.8" style="enable-background:new 0 0 421.44 64.8;" xml:space="preserve">
<path d="M0,2.4c0.46-0.24,0.92-0.67,1.38-0.68C2.97,1.7,4.55,1.86,6.14,1.88c1.63,0.01,3.28,0.06,4.88-0.14
	c2.32-0.29,4.28-0.02,5.76,2.07c5.67,7.96,11.35,15.92,17.12,23.81c3.82,5.22,7.8,10.31,11.71,15.46c0.18,0.24,0.45,0.41,0.86,0.79
	c0.12-0.92,0.3-1.64,0.3-2.35c0.02-7.28,0.08-14.56-0.02-21.84c-0.04-3.16-0.34-6.33-0.72-9.47c-0.32-2.56-1.39-4.65-4.32-5.22
	c-1.28-0.25-1.87-1.69-1.35-2.86c0.09-0.2,0.41-0.42,0.62-0.43c1.41-0.02,2.89-0.26,4.22,0.09c3.28,0.87,6.46,0.72,9.7-0.15
	c1.01-0.27,2.14-0.24,3.19-0.14c0.34,0.03,0.79,0.7,0.89,1.15c0.18,0.82,0.04,1.66-0.83,2.13c-0.83,0.45-1.75,0.78-2.47,1.37
	c-1.59,1.3-1.88,3.27-2.13,5.11c-0.4,2.98-0.6,5.99-0.75,8.99c-0.17,3.42-0.21,6.86-0.25,10.29c-0.1,7.59-0.19,15.17-0.23,22.76
	c-0.01,2.71,0.15,5.41,0.22,8.12c0.09,3.35-0.98,2.98-3.5,2.86c-1.91-0.1-3.26-1.14-4.4-2.76c-9.14-13.02-18.36-25.99-27.57-38.95
	c-1.08-1.51-2.3-2.92-3.7-4.69c-0.19,0.85-0.4,1.34-0.41,1.84c-0.02,8.04-0.13,16.08,0.04,24.12c0.08,3.9,0.58,7.8,1.1,11.68
	c0.36,2.71,2.15,4.25,4.85,4.75c0.76,0.14,1.43,0.39,1.45,1.41c0.03,1.64-0.16,1.95-2.03,1.92c-1.61-0.03-3.24-0.19-4.83-0.49
	c-2.86-0.56-5.64-0.14-8.45,0.34c-1.2,0.2-2.45,0.14-3.68,0.17c-0.2,0-0.48-0.14-0.6-0.31c-0.56-0.83,0.04-2.82,0.99-2.95
	c3.45-0.48,4.29-3.03,4.63-5.83c0.39-3.26,0.66-6.54,0.73-9.82c0.17-8.31,0.32-16.62,0.21-24.93c-0.05-3.69,0.05-7.46-1.14-11.06
	C5.73,7.13,4.87,5.96,3.2,5.49C2.11,5.18,1.06,4.72,0,4.32C0,3.68,0,3.04,0,2.4z"/>
<path d="M281.04,64.8c-0.37-0.08-0.73-0.23-1.1-0.23c-5.9,0.03-10.85-2.37-15.32-5.99c-5.75-4.66-8.46-11.07-10.22-18.01
	c-0.95-3.74-0.87-7.58-0.69-11.38c0.37-7.63,3.27-14.35,8-20.25c2.61-3.25,6.12-5.3,9.94-6.92c4.07-1.73,8.32-2.2,12.58-1.71
	c8.2,0.95,14.58,5.01,19.15,11.97c2.87,4.37,4.79,9.04,5.24,14.26c0.26,3,0.62,6.04,0.43,9.03c-0.45,7.25-2.75,13.95-7.48,19.53
	c-4.08,4.82-9.27,8.09-15.61,9.23c-0.92,0.17-1.84,0.32-2.77,0.48C282.48,64.8,281.76,64.8,281.04,64.8z M265.94,32.56
	c0.31,3.15,0.56,6.31,0.96,9.45c0.59,4.58,2.04,8.9,4.7,12.7c1.52,2.16,3.1,4.38,5.95,4.99c0.73,0.16,1.46,0.3,2.19,0.4
	c3.01,0.39,5.93-0.01,8.26-2.03c3.17-2.76,5.26-6.34,6.45-10.35c1.68-5.68,2.49-11.49,1.96-17.43c-0.25-2.79-0.29-5.62-0.77-8.38
	c-0.71-4.08-1.85-8.07-4.39-11.46c-1.6-2.15-3.15-4.43-6.07-5.02c-0.84-0.17-1.67-0.43-2.53-0.52c-2.78-0.3-5.57,0-7.79,1.73
	c-2.55,1.98-4.34,4.65-5.63,7.7C266.78,20.18,266.15,26.29,265.94,32.56z"/>
<path d="M414.24,64.8c-1.12-0.16-2.25-0.46-3.37-0.45c-2.87,0.01-5.53-0.78-8.06-2.03c-1.46-0.73-3.05-1.44-4.17-2.56
	c-1.16-1.16-1.85-2.8-2.72-4.24c-1.32-2.19-2.64-4.39-3.93-6.6c-3.14-5.44-6.27-10.89-9.37-16.35c-0.49-0.86-0.54-1.77,0.12-2.66
	c3.77-5.09,7.52-10.2,11.25-15.31c2.69-3.68,5.35-7.37,8.01-11.07c1.07-1.48,3.34-2.22,5.17-2.01c1.84,0.22,3.71,0.11,5.57,0.1
	c0.75,0,1.49-0.17,2.24-0.18c2.03-0.03,2.17,0.18,2.14,2.14c-0.02,1.22-0.96,1.28-1.71,1.42c-1.9,0.37-3.65,1.14-5.05,2.4
	c-2.61,2.34-5.16,4.77-7.56,7.33c-2.37,2.52-4.54,5.23-6.76,7.89c-0.89,1.06-1.64,2.24-2.5,3.32c-0.61,0.76-0.57,1.52-0.13,2.3
	c2.37,4.15,4.73,8.3,7.12,12.43c1.9,3.28,3.62,6.7,5.83,9.76c3.43,4.75,7.13,9.32,13.6,10.07c0.49,0.06,0.97,0.29,1.45,0.44
	c0,0.88,0,1.76,0,2.64c-0.69,0.24-1.36,0.55-2.06,0.7c-1.06,0.23-2.14,0.34-3.22,0.5C415.52,64.8,414.88,64.8,414.24,64.8z"/>
<path d="M327.54,37.31c0,2.57-0.01,5.1,0,7.62c0.01,1.52-0.06,3.05,0.08,4.55c0.23,2.43,0.53,4.86,0.94,7.27
	c0.28,1.65,1.36,2.7,3.06,3.01c0.27,0.05,0.53,0.16,0.79,0.23c1.99,0.49,2.28,0.91,1.86,2.93c-0.06,0.27-0.51,0.66-0.76,0.65
	c-1.81-0.05-3.64-0.07-5.43-0.34c-3.78-0.55-7.52-0.87-11.34-0.19c-2.22,0.39-4.52,0.36-6.92,0.53c0-1.06-0.06-1.82,0.03-2.55
	c0.04-0.28,0.38-0.62,0.67-0.76c0.49-0.24,1.03-0.39,1.57-0.48c1.9-0.32,2.92-1.53,3.22-3.3c0.34-2.02,0.69-4.06,0.72-6.09
	c0.15-10.99,0.26-21.98,0.22-32.97c-0.01-2.98-0.53-5.98-0.95-8.94c-0.22-1.57-1.28-2.56-2.85-2.96c-0.76-0.2-1.49-0.49-2.24-0.72
	c-0.82-0.25-1.05-0.87-0.84-1.59c0.21-0.74,0.04-1.88,1.39-1.74c1.69,0.17,3.43,0.16,5.07,0.54c2.86,0.67,5.65,0.33,8.48-0.08
	c1.95-0.28,3.91-0.52,5.88-0.68c1.78-0.15,3.58-0.32,5.36-0.23c4.42,0.23,8.68,1.01,12.29,3.92c2.58,2.08,4.1,4.74,4.83,7.93
	c1.03,4.5,0.5,8.86-1.34,13.04c-1.16,2.63-3.19,4.6-5.57,6.2c-1.13,0.76-1.55,1.75-1.02,2.93c2.98,6.56,5.4,13.41,9.74,19.28
	c1.45,1.97,3.14,3.69,5.27,4.96c2.5,1.48,5.06,1.17,7.46-0.02c1.43-0.7,1.75-2.41,1.87-3.89c0.32-4.11,0.66-8.23,0.72-12.35
	c0.11-8.32,0.14-16.64-0.02-24.96c-0.06-3.13-0.69-6.26-1.14-9.38c-0.26-1.78-1.43-2.78-3.1-3.37c-0.89-0.31-2.16-0.24-2.34-1.58
	c-0.16-1.17,0.16-2.16,1.55-2c2.82,0.32,5.64,0.72,8.47,0.87c1.97,0.1,3.96-0.09,5.93-0.27c2.31-0.21,4.62-0.55,6.92-0.84
	c0.78-0.1,1.04,0.25,1.05,1.03c0.03,2.11,0.09,2.2-1.96,2.8c-1.98,0.58-3.06,1.83-3.32,3.82c-0.28,2.19-0.68,4.39-0.71,6.58
	c-0.15,10.55-0.26,21.1-0.22,31.64c0.01,2.94,0.51,5.89,0.95,8.81c0.31,2.1,1.58,3.45,3.75,3.91c0.75,0.16,1.66,0.3,1.74,1.44
	c0.14,1.9-0.75,2.59-2.68,2.31c-3.24-0.47-6.49-0.95-9.75-1.08c-2.06-0.08-4.14,0.45-6.21,0.72c-1.56,0.2-3.12,0.47-4.69,0.64
	c-1.89,0.2-3.79,0.56-5.67,0.46c-6.85-0.34-12.41-3.07-15.64-9.4c-2.23-4.36-4.33-8.79-6.24-13.29c-1.3-3.06-3.46-4.6-6.66-4.85
	C329.22,36.94,328.59,37.15,327.54,37.31z M327.6,19.72c0,3.71-0.02,7.42,0.04,11.13c0.01,0.36,0.48,0.97,0.8,1.02
	c1.24,0.19,2.51,0.29,3.77,0.27c3.71-0.04,6.4-1.67,7.86-5.17c1.78-4.26,1.73-8.65,0.6-12.98c-1.54-5.89-5.52-8.58-11.4-7.95
	c-0.5,0.05-1.24,0.5-1.38,0.92c-0.28,0.88-0.28,1.87-0.29,2.82C327.58,13.09,327.6,16.4,327.6,19.72z"/>
<path d="M132.81,41.31c1.2-3.49,2.42-6.97,3.58-10.47c2.18-6.59,4.36-13.18,6.48-19.8c0.93-2.92,1.75-5.87,2.55-8.83
	c0.27-1,0.79-1.49,1.81-1.69c1.83-0.36,3.17,0.32,3.75,2.11c2.31,7.12,4.56,14.26,6.94,21.35c1.91,5.67,3.98,11.28,5.99,16.91
	c0.17,0.46,0.41,0.9,0.76,1.65c0.38-0.86,0.73-1.42,0.89-2.03c2.1-7.84,4.23-15.67,6.24-23.54c0.57-2.24,0.86-4.56,1.09-6.87
	c0.11-1.07-0.09-2.23-0.43-3.26c-0.19-0.59-0.87-1.08-1.43-1.48c-0.43-0.31-1.01-0.46-1.55-0.58c-1.23-0.28-1.34-1.13-1.25-2.18
	c0.1-1.14,1.02-1.14,1.73-1.16c1.18-0.04,2.44-0.09,3.54,0.26c2.8,0.88,5.49,0.57,8.26-0.1c1.22-0.29,2.56-0.24,3.83-0.15
	c0.39,0.03,1,0.68,1.05,1.09c0.08,0.73,0.48,1.68-0.68,2.13c-2.5,0.96-4.47,2.58-5.53,5.08c-0.89,2.1-1.71,4.24-2.35,6.43
	c-3.13,10.66-6.21,21.33-9.25,32.02c-1.32,4.64-2.5,9.32-3.73,13.99c-0.46,1.77-0.95,2.33-2.8,2.05c-2.47-0.38-2.34,0.4-3.23-2.38
	c-3.56-11.03-7.16-22.06-10.77-33.07c-0.67-2.05-1.42-4.08-2.16-6.1c-0.2-0.54-0.49-1.05-0.9-1.93c-0.66,1.74-1.26,3.13-1.71,4.57
	c-3.87,12.28-7.71,24.58-11.55,36.87c-0.54,1.74-1.14,2.18-3.01,2.09c-2.25-0.1-2.45-0.22-3.01-2.44
	c-1.46-5.87-2.78-11.77-4.34-17.61c-2.5-9.33-5.13-18.62-7.73-27.92c-0.55-1.97-1.15-3.92-1.84-5.84c-0.87-2.44-2.43-4.31-4.8-5.47
	c-1.11-0.54-1.6-1.79-1.12-2.87c0.1-0.22,0.47-0.47,0.71-0.46c2,0.07,4.01,0.08,5.98,0.35c2.78,0.38,5.52,0.72,8.33,0.06
	c1.72-0.4,3.51-0.5,5.27-0.65c0.54-0.05,1.3-0.36,1.5,0.67c0.2,0.99,0.24,1.88-0.6,2.6c-0.03,0.02-0.07,0.04-0.1,0.06
	c-1.06,0.51-2.27,0.94-2.42,2.31c-0.13,1.15-0.22,2.36-0.03,3.5c0.74,4.3,1.43,8.61,2.44,12.85c1.35,5.65,2.98,11.23,4.52,16.84
	c0.1,0.38,0.37,0.71,0.56,1.06C132.48,41.33,132.65,41.32,132.81,41.31z"/>
<path d="M80.87,34.76c-0.08,1.1-0.21,2.07-0.22,3.05c-0.02,3.92-0.06,7.84,0.01,11.76c0.03,1.57,0.26,3.15,0.49,4.71
	c0.29,1.91,1.85,2.75,3.41,3.02c3.98,0.7,7.99,0.59,11.79-0.98c2.47-1.02,3.95-3.09,4.91-5.52c0.48-1.2,0.92-2.44,1.17-3.7
	c0.34-1.7,1.6-0.86,2.46-0.94c0.19-0.02,0.63,0.84,0.68,1.32c0.29,3.13-0.78,6.08-1.26,9.11c-0.16,0.97-0.11,1.98-0.15,2.97
	c-0.14,3.46-0.9,3.6-3.44,3.79c-4.15,0.31-8.33,0.76-12.48,0.66c-3.85-0.09-7.67-0.91-11.52-1.26c-1.79-0.17-3.61-0.07-5.41,0.03
	c-2.51,0.14-5.02,0.39-7.53,0.59c-0.69,0.06-0.87-0.3-0.93-0.93c-0.17-1.69-0.07-2.01,1.47-2.38c3.09-0.73,4.38-3.01,4.52-5.68
	c0.37-7.24,0.54-14.5,0.75-21.75c0.06-2.15,0.04-4.3,0-6.45c-0.06-3.71-0.09-7.42-0.26-11.12c-0.08-1.8-0.39-3.61-0.72-5.39
	c-0.44-2.35-1.71-4.02-4.15-4.65c-0.56-0.14-1.32-0.41-1.53-0.84c-0.82-1.7-0.23-2.61,1.64-2.48c2.79,0.21,5.56,0.75,8.36,0.86
	c2.04,0.08,4.1-0.28,6.14-0.49c1.72-0.18,3.44-0.52,5.16-0.62c3.89-0.22,7.78-0.39,11.67-0.47c1.16-0.02,2.36,0.21,3.5,0.5
	c1.51,0.38,1.94,1.51,1.78,3.09c-0.2,2.03-0.14,4.09-0.16,6.14c-0.02,1.68,0.05,3.36-0.04,5.03c-0.01,0.28-0.55,0.64-0.91,0.78
	c-0.35,0.13-0.79-0.01-1.19,0.04c-0.72,0.08-1.09-0.17-1.23-0.91c-0.27-1.42-0.63-2.83-0.94-4.24c-0.42-1.9-1.64-3.12-3.5-3.43
	c-3.81-0.64-7.65-0.83-11.5-0.29c-1.2,0.17-1.04,1.25-1.06,2.04c-0.06,3.04-0.02,6.08-0.02,9.12c0,2.6-0.01,5.2,0,7.8
	c0.01,1.66,0.45,2.15,2.09,2.13c2.55-0.04,5.1-0.04,7.63-0.24c2.28-0.18,3.86-1.37,4.49-3.7c0.15-0.57,0.5-1.31,0.96-1.51
	c0.57-0.25,1.63-0.28,1.96,0.08c0.45,0.49,0.57,1.44,0.53,2.17c-0.13,2.41-0.52,4.8-0.58,7.21c-0.04,1.85,0.33,3.7,0.42,5.56
	c0.04,0.78,0.12,1.77-1.03,1.95c-1.06,0.17-1.89-0.16-2.15-1.34c-0.02-0.11-0.13-0.21-0.15-0.32c-0.63-2.94-2.68-3.83-5.41-3.85
	c-1.83-0.02-3.65-0.18-5.48-0.21C82.95,34.56,81.97,34.69,80.87,34.76z"/>
<path d="M233.72,29.26c0.8-1.33,1.58-2.47,2.2-3.68c2.51-4.99,4.99-10,6.48-15.41c0.34-1.22,0.26-2.59,0.17-3.88
	c-0.03-0.38-0.7-0.81-1.16-1.06c-1.82-0.99-1.8-0.96-1.67-2.92c0.05-0.69,0.34-0.93,0.97-0.87c1.61,0.16,3.26,0.18,4.82,0.54
	c2.46,0.57,4.84,0.34,7.25-0.16c1.23-0.25,2.48-0.43,3.72-0.61c0.69-0.1,0.97,0.19,1.03,0.94c0.12,1.47-0.29,2.3-1.7,3.16
	c-1.71,1.03-3.12,2.65-4.43,4.22c-3.82,4.55-6.32,9.93-8.98,15.17c-1.68,3.3-3.26,6.65-4.62,10.08c-0.62,1.57-0.84,3.38-0.87,5.09
	c-0.07,3.5,0.05,7.02,0.22,10.52c0.1,1.92,0.39,3.84,0.73,5.74c0.36,1.97,1.64,3.16,3.58,3.64c0.76,0.19,1.52,0.39,2.25,0.57
	c0.05,0.11,0.1,0.19,0.1,0.26c0.05,3.44,0.33,2.83-2.62,2.73c-2.55-0.09-5.09-0.55-7.64-0.84c-2.35-0.27-4.66,0.02-6.96,0.48
	c-2.24,0.45-4.48,0.92-6.8,0.43c-0.91-0.19-1.04-0.83-1.08-1.43c-0.04-0.65-0.03-1.46,0.87-1.71c0.38-0.1,0.75-0.24,1.14-0.3
	c2.71-0.43,3.96-2.26,4.37-4.73c0.36-2.17,0.59-4.38,0.72-6.58c0.12-1.99-0.03-4,0.04-6c0.1-2.98-0.48-5.81-1.78-8.48
	c-3.95-8.13-8.14-16.14-13.18-23.67c-1.56-2.33-3.59-4.23-6.11-5.55c-0.92-0.48-1.5-1.97-0.94-2.82c0.27-0.41,1.07-0.68,1.62-0.66
	c1.97,0.08,3.96,0.19,5.9,0.53c2.53,0.45,4.99,0.31,7.5-0.17c2.01-0.38,4.08-0.44,6.12-0.64c0.75-0.07,1.07,0.29,1.1,1.05
	c0.09,1.99,0.13,2.03-1.76,2.92c-0.66,0.31-0.83,0.68-0.92,1.4c-0.28,2.25,0.78,4.08,1.69,5.95c2.5,5.1,5.03,10.19,7.56,15.28
	C232.88,28.25,233.25,28.63,233.72,29.26z"/>
</svg>
