<?xml version="1.0" encoding="utf-8"?>
<!-- Generator: Adobe Illustrator 27.0.0, SVG Export Plug-In . SVG Version: 6.00 Build 0)  -->
<svg version="1.1" id="Layer_1" xmlns="http://www.w3.org/2000/svg" xmlns:xlink="http://www.w3.org/1999/xlink" x="0px" y="0px"
	 viewBox="0 0 1812.3 179.7" style="enable-background:new 0 0 1812.3 179.7;" xml:space="preserve">
<g id="logo" fill="#000000">
	<path d="M200.6,37.2c-27.8,26.5-54.4,51.9-81.4,77.6C92.4,89.2,65.7,63.7,38.1,37.4c0,45.1,0,89.1,0,133.3c-9.6,0-18.5,0-27.6,0
		c0-53.1,0-105.9,0-159.3c9.1,0,17.9-0.2,26.7,0.2c1.9,0.1,4,2.1,5.7,3.6c24,22.8,48,45.7,71.9,68.6c1.4,1.3,2.9,2.6,4.7,4.2
		c13.3-12.7,26.3-25.1,39.3-37.5C171.4,38.3,184.2,26.1,197,14c1.1-1.1,2.7-2.4,4.1-2.4c8.8-0.2,17.6-0.1,26.6-0.1
		c0,53.2,0,106,0,159.2c-8.8,0-17.7,0-27.1,0C200.6,126.6,200.6,82.7,200.6,37.2z"/>
	<path d="M1633.5,94.7c0,25.3,0,50.3,0,75.6c-9.6,0-18.8,0-28.2,0c0-52.8,0-105.3,0-158.3c9.2,0,18.3,0,27.9,0c0,22.7,0,45.3,0,68.3
		c46.5,0,92.5,0,139,0c0-22.6,0-45.2,0-68.2c9.7,0,19,0,28.5,0c0,52.5,0,105.1,0,158.1c-9.2,0-18.4,0-28.1,0
		c-0.1-1.7-0.2-3.5-0.2-5.2c0-22-0.1-44,0.1-66c0-3.8-1.1-4.8-4.8-4.8c-43.2,0.1-86.3,0.1-129.5,0.1
		C1636.8,94.4,1635.3,94.6,1633.5,94.7z"/>
	<path d="M1527.6,33.5c-12.3-3.1-24.1-6.7-36.1-8.8c-27.2-4.6-54.4-5.4-80.7,5.3c-18.6,7.6-34,19-43.1,37.4
		c-11.3,22.7-5.2,49.6,15,67.5c21.5,19,47.1,26,75.2,25.8c22.6-0.2,44.8-3.6,66.1-11.5c0.9-0.3,1.9-0.6,3.3-1c0,5.2,0,10.1,0,16.2
		c-11.1,2.3-22.5,5.3-34,7.1c-28.9,4.6-57.8,4.5-86.1-3.7c-23.4-6.8-44.7-17.7-60.3-37.2c-23.6-29.4-18.8-65.6,11.7-91
		c22.7-18.9,49.4-27.8,78.3-30.8c29.2-3,57.8,0.4,86,8.2c3.6,1,5.4,2.4,4.9,6.4C1527.3,26.9,1527.6,30.4,1527.6,33.5z"/>
	<path d="M542.6,11.4c10.1,0,19.1-0.2,28,0.2c1.9,0.1,4.1,1.9,5.5,3.5c20.9,22.6,41.7,45.3,62.5,68c1.4,1.6,2.7,3.4,4.4,5.5
		c8.2-8.9,15.6-16.9,23-25c15.1-16.4,30.1-32.9,45.3-49.2c1.5-1.6,4.2-2.7,6.3-2.8c8.6-0.3,17.2-0.1,26.9-0.1
		c-6.2,6.8-11.7,12.7-17.1,18.6c-22.1,24-44.2,48-66.1,72.2c-1.8,2-3,5.2-3,7.9c-0.3,18.2-0.1,36.3-0.1,54.5c0,1.8,0,3.6,0,6.2
		c-9.4,0-18.5,0.1-27.5-0.2c-0.7,0-1.9-2.7-1.9-4.2c-0.1-18.3-0.2-36.7,0-55c0-4.1-1.1-7.2-3.9-10.2c-26.6-28.7-53-57.5-79.5-86.3
		C544.8,14,544.1,13.1,542.6,11.4z"/>
	<path d="M987.1,91.9c-5.4-3.7-11.6-6.2-17.7-9.3c1.2-1.1,2.6-2.1,3.5-3.4c3.6-5.3,8.3-10.2,10.4-16.1c5.3-14.5-0.7-29.7-14.3-39.7
		c-12.8-9.4-27.5-12.1-42.9-12c-34.3,0.1-68.6,0-102.9,0c-1.3,0-2.6,0.1-4.2,0.2c0,53.3,0,106,0,159c1.3,0.1,2.3,0.2,3.3,0.2
		c43.3,0,86.6,0.1,129.9,0c11.7,0,22.7-3.3,32.7-9.4C1013.6,143.7,1014.8,111.2,987.1,91.9z M847.4,25.7c1.1-0.1,2-0.3,2.9-0.3
		c24.5,0,49,0,73.4,0c7.5,0,14.4,1.9,20.8,6.1c16.4,10.9,16.4,32.4-0.1,43.2c-6.2,4-13.1,5.8-20.4,5.9c-25.1,0.1-50.3,0.1-75.4,0.1
		c-0.3,0-0.6-0.2-1.2-0.5C847.4,62.2,847.4,44.1,847.4,25.7z M961.3,152.3c-5.5,2.7-12,4.5-18.1,4.6c-31.1,0.5-62.3,0.2-93.4,0.2
		c-0.6,0-1.3-0.2-2.5-0.3c0-20.8,0-41.2,0-62.1c1.8-0.1,3.4-0.3,5-0.3c28.6,0,57.3,0,85.9,0c9.8,0,19.2,1.5,27.4,7.4
		C984.8,115.6,982.7,141.8,961.3,152.3z"/>
	<path d="M1281.2,166.9c-6.2-10.5-12.4-20.9-18.5-31.4c-23.7-40.1-47.5-80.2-71.1-120.4c-1.7-2.9-3.6-3.8-6.8-3.7
		c-5.8,0.2-11.7,0.4-17.5,0c-4.8-0.4-7.4,1.3-9.9,5.5c-29.5,50.2-59.2,100.3-88.8,150.5c-0.6,1-1,2.2-1.6,3.7
		c8.7,0,16.6-0.1,24.6,0.1c3.1,0.1,4.8-1.1,6.3-3.7c4.9-8.7,9.8-17.4,15-25.9c1-1.6,3.5-3,5.3-3c37.8-0.2,75.6-0.2,113.5,0
		c2,0,4.7,1.7,5.8,3.4c5.4,8.6,10.2,17.5,15.5,26.2c0.7,1.2,2.3,2.8,3.5,2.8c8.7,0.2,17.5,0.1,26.9,0.1
		C1282.3,169.1,1281.8,168,1281.2,166.9z M1122.9,124c17.4-30.1,34.4-59.5,52.1-89.9c17.6,30.5,34.7,59.9,52.1,89.9
		C1192.2,124,1158,124,1122.9,124z"/>
	<path d="M501.7,141.6c-25-42.3-49.9-84.6-75.1-126.8c-1-1.7-3.8-3.2-5.8-3.3c-6.8-0.4-13.7,0-20.5-0.2c-3.1-0.1-4.9,1.1-6.4,3.6
		c-30,50.9-60.1,101.8-90.1,152.7c-0.5,0.9-0.8,1.9-1.3,3.3c8.9,0,17.2,0.2,25.5-0.2c1.7-0.1,3.9-1.7,4.8-3.2
		c5.2-8.5,10.2-17.2,15.1-25.9c1.4-2.5,3.1-3.4,5.9-3.4c37.7,0.1,75.3,0.1,113,0c3.1,0,4.7,1.1,6.2,3.7c4.9,8.7,9.9,17.3,15.1,25.9
		c0.8,1.3,2.6,2.9,3.9,2.9c8.6,0.3,17.2,0.1,26.8,0.1C512.9,160.5,507.3,151,501.7,141.6z M358.5,123.9c17.3-29.9,34.4-59.5,52-90
		c17.6,30.5,34.7,59.9,52.1,90C427.7,123.9,393.6,123.9,358.5,123.9z"/>
</g>
</svg>
