<?xml version="1.0" encoding="utf-8"?>
<!-- Generator: Adobe Illustrator 27.0.0, SVG Export Plug-In . SVG Version: 6.00 Build 0)  -->
<svg version="1.1" id="Layer_1" xmlns="http://www.w3.org/2000/svg" xmlns:xlink="http://www.w3.org/1999/xlink" x="0px" y="0px"
	 viewBox="0 0 810.8 940.1" style="enable-background:new 0 0 810.8 940.1;" xml:space="preserve">
<style type="text/css">
	.st0{display:none;opacity:0.3;}
	.st1{display:inline;fill-rule:evenodd;clip-rule:evenodd;fill:#7C7C7C;}
	.st2{opacity:0.4;}
	.st3{fill:#7C7C7C;}
	.st4{display:none;fill-rule:evenodd;clip-rule:evenodd;fill:#FF9800;stroke:#000000;stroke-width:2;stroke-miterlimit:10;}
	.st5{fill:#FF9800;stroke:#000000;stroke-width:2;stroke-miterlimit:10;}
</style>
<g class="st0">
	<path class="st1" d="M168,429.3l-0.3-362.6c40.6-1,81.7,0,121.8,0c67,0,134,13.9,167.5,76.7c15.6,29.5,22.7,65.2,17.7,103.6
		c-9.5,71.8-54,114.7-104.5,140.9C316.2,415.7,237.1,430,168,429.3L168,429.3z M72.5,117.8v596.5c0,23.4-3.4,47-12.9,65.1
		c-7.6,14.3-24.6,31.6-37.9,38.5l196.4,0.3c-1.4-2.6-10.1-7.9-12.4-9.7c-42.2-32.5-38-80.4-38-131.6c0-24.8-1.6-183.8,0.6-193.9
		c34.1-0.8,65.6-1.9,99.2-6.1c15.9-1.9,31.1-4.3,46.2-7.2c13-2.4,32.4-8.4,44.1-9.5c16.3,17.4,34.8,49,47.5,74.4
		c32.1,64.4,78.8,197.3,36.4,266.3c-1.9,3.2-4,6.1-6.3,9c-2.1,2.7-5,4.7-6.1,7.9l5.8,0.2c54.1-0.6,115.2,1.1,168,0
		c-1.3-3.2-12.2-13.5-15.6-17.7c-17.7-22.9-24.5-44.3-31.1-74.1c-17.2-78.9-37.7-137.7-73-207.9c-11.8-23.4-31.9-54-48.3-74.6
		c-3.4-4.2-5.6-5.8-7.4-10.3c11.9-6.8,21.9-11,32.7-18c31.6-20.6,58.6-44.3,79.2-77.8c62.7-102,33-230.8-62.8-288
		C430.4,21.7,368.7,13.3,306,13.3L22.2,13.4c3.1,3.1,6.9,5.3,11,8.2C44,29.9,53,39.2,59.8,52.6C69.4,72.2,72.5,93.2,72.5,117.8z"/>
	<path class="st1" d="M574.4,126.7c7.4,19.7,14,35.4,17.9,58.1c3.4,19.2-0.6,19.8,9,28.2c36.1,31.4,52.8,84.2,45.7,139.3
		c-8.2,63.6-45.1,104.9-92.6,132.7c-21.1,12.2-41.7,18-50.4,23c2.1,10,20.9,38.8,25,55.1l19.3-4.8c2.9,5.2,9.7,12.4,13.7,18
		c4.5,6.1,8.5,12.1,13,18.8c25.6,39.1,45.6,81.7,60.4,128.1c9.7,30,20,70.4,21.7,104.4c2.4,45.3-9.7,70.2-30,94.9h174l-16.4-19.8
		c-17.6-23-24.6-46.9-31.1-76.5c-18.4-84.2-56.2-187.8-106-255.5l-31.2-40.6l6.8-4.8c14.3-8.2,32.9-21.6,44.6-32.1
		c15.3-13.7,28.8-28.2,41.6-46.7c68.8-100.2,37-242.7-69.9-297.8C623.5,140.5,594.2,129.3,574.4,126.7z"/>
</g>
<g class="st2">
	<path class="st3" d="M570.5,139.5c9.9,1.6,19.2,4.1,28.5,7.2c57.1,20.4,101,55.7,127,110.7c13.8,29.3,18.9,60.1,16,92.2
		c-5.8,61.3-35.9,108.9-84.7,146c-18.3,14.2-38.2,25.5-59.7,34.6c-3.5,1.6-4.2,2.5-1.3,5.7c30.5,33.7,53.2,72,72.8,112.3
		c25.3,52.2,43.3,107,56.1,163.3c4.2,18.9,9.6,37.1,21.5,52.9c9,12,20.2,21.1,34.3,26.1c5.8,2.2,2.6,6.9,2.9,10.1
		c0.3,3.5-3.2,1.9-4.8,1.9c-51.6,0-103,0-154.6,0.3c-4.2,0-5.8-0.9-5.5-5.3c0-4.1,1-6.3,5.1-8.2c16.7-6.6,21.8-20.4,22.1-36.8
		c0.3-14.2-1.6-28.3-2.6-42.5c-3.2-40-12.8-78.7-26-116.4c-16.4-47.2-38.5-91.5-69.6-131.2c-0.3-0.3-0.6-0.9-1-1.6
		c-4.2-7.6-10.3-11.3-19.2-7.2c-3.2,1.6-4.2-0.3-5.1-2.8c-4.5-11.3-9.3-22.7-15.7-33.3c-1.6-2.8-0.6-3.1,1.9-4.1
		c20.8-7.2,41.1-15.7,60-27.4c42-25.5,72.5-59.8,85-107.3c12.2-46.2,8.3-90.9-17.3-132.4c-11.9-19.2-27.9-34.3-47.8-45.6
		c-1.6-0.9-2.6-1.6-2.9-3.5c-2.2-19.8-7.7-38.7-15.4-56.9C570.9,140.7,570.9,140.4,570.5,139.5z"/>
	<path class="st3" d="M395.1,573.3c-16.7,1.3-33,1.3-49.4,1.3c-3.8,0-4.8,0.9-4.8,4.7c0.3,84,0.3,168,0.6,252c0,16,3.5,31.5,14.8,44
		c5.8,6.6,12.8,11.3,21.2,14.5c3.2,1.3,4.5,2.5,3.8,5.7c-0.3,1.6,0,3.1,0,4.7c0,1.9-0.6,2.5-2.2,2.2c-0.6,0-1.6,0-2.2,0
		c-50.4,0-100.7,0-151.1,0c-3.8,0-4.5-0.9-4.8-4.7c-0.3-5,1.3-7.2,6.1-9.1c19.6-8.2,28.5-24.2,32.1-44c1.3-7.6,1.9-15.1,1.9-23
		c0-108.5,0-217.1,0-325.6c0-7.2,0-6.9,7.4-7.9c21.5-2.8,43.3-6,64.5-10.7c8.7-1.9,8.7-1.9,8.7,6.9c0,16,0.3,32.1,0,47.8
		c0,4.1,1.3,4.7,5.1,4.7c9.6-0.6,19.2-0.6,28.9-0.9c2.9,0,4.5,0.6,5.8,3.1c5.1,9.8,9.9,19.8,13.5,30.2
		C394.4,570.8,394.8,572.1,395.1,573.3z"/>
	<path class="st3" d="M599.1,790.1c-0.3-1.6-0.3-2.8,0-4.4c0.3-2.8-1-4.1-3.5-5c-8.7-2.8-16-7.9-22.8-13.8
		c-16.7-15.4-25.3-35.2-30.5-56.6c-9.9-40.3-19.9-80.5-35.3-119.2c-18.9-47.5-41.1-93.1-71.2-135c-8.7-11.6-17.6-22.7-27.6-33.7
		c10.9-5.3,21.5-10.1,30.8-15.7c39.1-22.3,72.2-51,93.7-90.9c22.1-40.9,30.2-84.9,19.6-130.2c-15.1-64.8-55.5-110.7-116.8-138.7
		c-39.8-17.9-81.8-24.2-125.1-24.5c-74.4-0.6-148.5-0.3-222.9-0.3c-16.7,0-33.4,0-50,0c-1.3,0-3.5-0.6-3.8,0.6
		c-0.6,2.8-0.3,6-0.3,9.1c0,2.2,2.6,1.9,3.8,2.5c14.4,5,24.7,14.2,30.8,28c5.5,12,6.4,24.9,6.4,37.8c0,205.4,0,411.2,0,616.6
		c0,7.6-0.6,14.8-2.2,22C67.9,757,58.6,771.8,40,779.4c-4.2,1.6-5.5,3.8-5.5,8.2c0,4.4,1.3,5.3,5.5,5.3c50-0.3,99.8-0.3,149.8,0
		c4.5,0.3,5.8-0.9,5.8-5.3c0-4.1-1-6.6-5.5-7.9c-6.4-2.2-12.2-6-17-10.7c-12.2-12-17.3-27.1-17.3-43.4c-0.6-85.9-0.6-171.5-1-257
		c0-3.5,1.3-3.8,4.2-3.8c29.2,0.3,58.4-0.9,87.6-4.1c35-3.8,69.3-9.4,103.3-18.2c2.6-0.6,4.2-0.3,5.8,1.9
		c6.4,8.2,12.8,16.4,18.9,24.9c27.9,40,47.8,83.4,62.5,129.3c10.9,34.3,18.6,69.2,21.5,105.1c1,14.8,2.9,29.6,1.9,44.7
		c-1,14.5-7.7,25.5-21.5,31.1c-4.5,1.9-6.4,4.1-5.5,8.8c0,0.6,0,1.3,0,1.9c-0.3,2.2,1,2.8,3.2,2.8c52.9,0,106.2,0,159.1,0
		C598.1,792.9,599.4,792.6,599.1,790.1z M356.3,392.1c-33,14.8-67.7,23.3-103.3,28.6c-30.8,4.7-61.9,6.6-93,7.2
		c-3.8,0-4.8-0.9-4.8-4.4c0-59.5,0-118.3,0-176.8s0-117,0-175.5c0-4.1,1-5,5.1-5c44.6,0,89.2,0,133.8,0.3
		c31.8,0.3,62.9,3.8,92.1,16.7c47.2,20.4,76,56,85.6,105.4c9.9,50.7-0.3,97.5-31.1,139.4C418.8,357.2,389.6,377.3,356.3,392.1z"/>
	<path class="st3" d="M437.1,176c-30.8,0-60.9,0-91.1,0c-4.2,0-5.1,0.9-5.1,5c0,59.5,0,119.2,0.3,178.7c0,4.1-1.6,6-5.1,7.2
		c-22.8,9.8-46.2,16-70.6,21.1c-3.8,0.9-4.8,0.3-4.8-4.1c0.3-24.9,0-50,0-74.9c0-33.7,0-67,0-100.7c0-11.3-1.3-22.3-5.1-33
		c-5.5-15.4-16-25.8-31.8-31.5c-1.3-0.6-3.8-0.3-3.8-2.5c-0.3-3.1,0-6.3,0-9.4c0-0.3,1-0.6,1.6-0.6c1,0,2.2,0,3.2,0
		c60,0,119.6,0,179.6,0c3.2,0,5.5,0.9,7.7,3.5C422.7,147,431,160.6,437.1,176z"/>
</g>
<path class="st4" d="M283.4,441.6l-0.2-225.1c25.2-0.6,50.7,0,75.6,0c41.6,0,83.2,8.6,104,47.6c9.7,18.3,14.1,40.5,11,64.3
	c-5.9,44.6-33.5,71.2-64.9,87.5C375.4,433.1,326.3,442,283.4,441.6L283.4,441.6z M224.1,248.2v370.3c0,14.5-2.1,29.2-8,40.4
	c-4.7,8.9-15.3,19.6-23.5,23.9l121.9,0.2c-0.9-1.6-6.3-4.9-7.7-6c-26.2-20.2-23.6-49.9-23.6-81.7c0-15.4-1-114.1,0.4-120.4
	c21.2-0.5,40.7-1.2,61.6-3.8c9.9-1.2,19.3-2.7,28.7-4.5c8.1-1.5,20.1-5.2,27.4-5.9c10.1,10.8,21.6,30.4,29.5,46.2
	c19.9,40,48.9,122.5,22.6,165.3c-1.2,2-2.5,3.8-3.9,5.6c-1.3,1.7-3.1,2.9-3.8,4.9l3.6,0.1c33.6-0.4,71.5,0.7,104.3,0
	c-0.8-2-7.6-8.4-9.7-11c-11-14.2-15.2-27.5-19.3-46c-10.7-49-23.4-85.5-45.3-129.1c-7.3-14.5-19.8-33.5-30-46.3
	c-2.1-2.6-3.5-3.6-4.6-6.4c7.4-4.2,13.6-6.8,20.3-11.2c19.6-12.8,36.4-27.5,49.2-48.3c38.9-63.3,20.5-143.3-39-178.8
	c-28.9-17.2-67.2-22.4-106.1-22.4l-176.2,0.1c1.9,1.9,4.3,3.3,6.8,5.1c6.7,5.1,12.3,10.9,16.5,19.2
	C222.2,219.9,224.1,232.9,224.1,248.2z"/>
<path class="st4" d="M535.7,253.7c4.6,12.2,8.7,22,11.1,36.1c2.1,11.9-0.4,12.3,5.6,17.5c22.4,19.5,32.8,52.3,28.4,86.5
	c-5.1,39.5-28,65.1-57.5,82.4c-13.1,7.6-25.9,11.2-31.3,14.3c1.3,6.2,13,24.1,15.5,34.2l12-3c1.8,3.2,6,7.7,8.5,11.2
	c2.8,3.8,5.3,7.5,8.1,11.7c15.9,24.3,28.3,50.7,37.5,79.5c6,18.6,12.4,43.7,13.5,64.8c1.5,28.1-6,43.6-18.6,58.9h108l-10.2-12.3
	C655.4,721.2,651,706.4,647,688c-11.4-52.3-34.9-116.6-65.8-158.6l-19.4-25.2l4.2-3c8.9-5.1,20.4-13.4,27.7-19.9
	c9.5-8.5,17.9-17.5,25.8-29c42.7-62.2,23-150.7-43.4-184.9C566.2,262.3,548,255.3,535.7,253.7z"/>
<g>
	<path class="st5" d="M521.4,233.7c7.1,1.2,13.8,3,20.5,5.3c41,15,72.6,40.8,91.2,81.1c9.9,21.4,13.6,44,11.5,67.5
		c-4.1,44.9-25.8,79.7-60.8,106.9c-13.1,10.4-27.4,18.7-42.8,25.3c-2.5,1.2-3,1.8-0.9,4.1c21.9,24.6,38.2,52.7,52.3,82.2
		c18.2,38.2,31.1,78.3,40.3,119.5c3,13.8,6.9,27.2,15.4,38.7c6.4,8.8,14.5,15.4,24.6,19.1c4.1,1.6,1.8,5.1,2.1,7.4
		c0.2,2.5-2.3,1.4-3.5,1.4c-37.1,0-73.9,0-111,0.2c-3,0-4.1-0.7-3.9-3.9c0-3,0.7-4.6,3.7-6c12-4.8,15.7-15,15.9-27
		c0.2-10.4-1.2-20.7-1.8-31.1c-2.3-29.3-9.2-57.6-18.7-85.2c-11.7-34.6-27.6-67-50-96.1c-0.2-0.2-0.5-0.7-0.7-1.2
		c-3-5.5-7.4-8.3-13.8-5.3c-2.3,1.2-3-0.2-3.7-2.1c-3.2-8.3-6.7-16.6-11.3-24.4c-1.2-2.1-0.5-2.3,1.4-3c15-5.3,29.5-11.5,43.1-20
		c30.2-18.7,52.1-43.8,61-78.5c8.8-33.9,6-66.6-12.4-97c-8.5-14.1-20-25.1-34.3-33.4c-1.2-0.7-1.8-1.2-2.1-2.5
		c-1.6-14.5-5.5-28.3-11.1-41.7C521.6,234.7,521.6,234.4,521.4,233.7z"/>
	<path class="st5" d="M395.4,551.4c-12,0.9-23.7,0.9-35.5,0.9c-2.8,0-3.5,0.7-3.5,3.5c0.2,61.5,0.2,123,0.5,184.5
		c0,11.7,2.5,23,10.6,32.2c4.1,4.8,9.2,8.3,15.2,10.6c2.3,0.9,3.2,1.8,2.8,4.1c-0.2,1.2,0,2.3,0,3.5c0,1.4-0.5,1.8-1.6,1.6
		c-0.5,0-1.2,0-1.6,0c-36.2,0-72.3,0-108.5,0c-2.8,0-3.2-0.7-3.5-3.5c-0.2-3.7,0.9-5.3,4.4-6.7c14.1-6,20.5-17.7,23-32.2
		c0.9-5.5,1.4-11.1,1.4-16.8c0-79.5,0-158.9,0-238.4c0-5.3,0-5.1,5.3-5.8c15.4-2.1,31.1-4.4,46.3-7.8c6.2-1.4,6.2-1.4,6.2,5.1
		c0,11.7,0.2,23.5,0,35c0,3,0.9,3.5,3.7,3.5c6.9-0.5,13.8-0.5,20.7-0.7c2.1,0,3.2,0.5,4.1,2.3c3.7,7.1,7.1,14.5,9.7,22.1
		C394.9,549.5,395.2,550.5,395.4,551.4z"/>
	<path class="st5" d="M541.9,710.1c-0.2-1.2-0.2-2.1,0-3.2c0.2-2.1-0.7-3-2.5-3.7c-6.2-2.1-11.5-5.8-16.4-10.1
		c-12-11.3-18.2-25.8-21.9-41.5c-7.1-29.5-14.3-59-25.3-87.3c-13.6-34.8-29.5-68.2-51.1-98.8c-6.2-8.5-12.7-16.6-19.8-24.6
		c7.8-3.9,15.4-7.4,22.1-11.5c28.1-16.4,51.8-37.3,67.3-66.6c15.9-29.9,21.7-62.2,14.1-95.4c-10.8-47.5-39.8-81.1-83.8-101.6
		c-28.6-13.1-58.7-17.7-89.8-18c-53.4-0.5-106.6-0.2-160.1-0.2c-12,0-24,0-35.9,0c-0.9,0-2.5-0.5-2.8,0.5c-0.5,2.1-0.2,4.4-0.2,6.7
		c0,1.6,1.8,1.4,2.8,1.8c10.4,3.7,17.7,10.4,22.1,20.5c3.9,8.8,4.6,18.2,4.6,27.6c0,150.4,0,301.1,0,451.5c0,5.5-0.5,10.8-1.6,16.1
		c-3,13.6-9.7,24.4-23,29.9c-3,1.2-3.9,2.8-3.9,6c0,3.2,0.9,3.9,3.9,3.9c35.9-0.2,71.6-0.2,107.6,0c3.2,0.2,4.1-0.7,4.1-3.9
		c0-3-0.7-4.8-3.9-5.8c-4.6-1.6-8.8-4.4-12.2-7.8c-8.8-8.8-12.4-19.8-12.4-31.8c-0.5-62.9-0.5-125.5-0.7-188.2c0-2.5,0.9-2.8,3-2.8
		c21,0.2,41.9-0.7,62.9-3c25.1-2.8,49.8-6.9,74.2-13.4c1.8-0.5,3-0.2,4.1,1.4c4.6,6,9.2,12,13.6,18.2c20,29.3,34.3,61,44.9,94.7
		c7.8,25.1,13.4,50.7,15.4,76.9c0.7,10.8,2.1,21.7,1.4,32.7c-0.7,10.6-5.5,18.7-15.4,22.8c-3.2,1.4-4.6,3-3.9,6.4c0,0.5,0,0.9,0,1.4
		c-0.2,1.6,0.7,2.1,2.3,2.1c38,0,76.2,0,114.2,0C541.2,712.2,542.1,711.9,541.9,710.1z M367.5,418.7c-23.7,10.8-48.6,17-74.2,21
		c-22.1,3.5-44.5,4.8-66.8,5.3c-2.8,0-3.5-0.7-3.5-3.2c0-43.5,0-86.6,0-129.5s0-85.7,0-128.5c0-3,0.7-3.7,3.7-3.7
		c32,0,64,0,96.1,0.2c22.8,0.2,45.1,2.8,66.1,12.2c33.9,15,54.6,41,61.5,77.2c7.1,37.1-0.2,71.4-22.3,102
		C412.4,393.1,391.5,407.9,367.5,418.7z"/>
	<path class="st5" d="M425.6,260.5c-22.1,0-43.8,0-65.4,0c-3,0-3.7,0.7-3.7,3.7c0,43.5,0,87.3,0.2,130.8c0,3-1.2,4.4-3.7,5.3
		c-16.4,7.1-33.2,11.7-50.7,15.4c-2.8,0.7-3.5,0.2-3.5-3c0.2-18.2,0-36.6,0-54.8c0-24.6,0-49.1,0-73.7c0-8.3-0.9-16.4-3.7-24.2
		c-3.9-11.3-11.5-18.9-22.8-23c-0.9-0.5-2.8-0.2-2.8-1.8c-0.2-2.3,0-4.6,0-6.9c0-0.2,0.7-0.5,1.2-0.5c0.7,0,1.6,0,2.3,0
		c43.1,0,85.9,0,129,0c2.3,0,3.9,0.7,5.5,2.5C415.2,239.3,421.2,249.2,425.6,260.5z"/>
</g>
</svg>
