<?xml version="1.0" encoding="utf-8"?>
<!-- Generator: Adobe Illustrator 27.0.0, SVG Export Plug-In . SVG Version: 6.00 Build 0)  -->
<svg version="1.1" id="_x0031_" xmlns="http://www.w3.org/2000/svg" xmlns:xlink="http://www.w3.org/1999/xlink" x="0px" y="0px"
	 viewBox="0 0 303.8 204.1" style="enable-background:new 0 0 303.8 204.1;" xml:space="preserve">
<style type="text/css">
	.st0{fill:none;stroke:#939598;}
	.st1{fill:#ED1C24;}
	.st2{fill:url(#SVGID_1_);}
	.st3{fill:url(#SVGID_00000150061893156013250660000010775248645928762292_);}
	.st4{fill:#FFFFFF;}
	.st5{fill:url(#SVGID_00000154415845209299163330000016529018089800805530_);}
	.st6{fill:url(#SVGID_00000101800405803941211120000016102236539423499149_);}
	.st7{fill:url(#SVGID_00000007407029509477995970000018156369747683505306_);}
	.st8{fill:url(#SVGID_00000171721588189327879630000016260593812957452425_);}
	.st9{fill:url(#SVGID_00000111188035576678239780000013936636816811536284_);}
	.st10{fill:url(#SVGID_00000040554730718315532790000003660656228577872291_);}
</style>
<g>
	<g>
		<path class="st0" d="M58.9,104.2c-21.5,0-38.8-17.4-38.8-38.8c0-21.5,17.4-38.8,38.8-38.8c21.5,0,38.8,17.4,38.8,38.8
			C97.8,86.8,80.4,104.2,58.9,104.2z"/>
		<path class="st0" d="M121.4,104.2c-21.5,0-38.8-17.4-38.8-38.8c0-21.5,17.4-38.8,38.8-38.8c21.5,0,38.8,17.4,38.8,38.8
			C160.2,86.8,142.8,104.2,121.4,104.2z"/>
		<path class="st0" d="M183.8,104.2c-21.5,0-38.8-17.4-38.8-38.8c0-21.5,17.4-38.8,38.8-38.8c21.5,0,38.8,17.4,38.8,38.8
			C222.6,86.8,205.2,104.2,183.8,104.2z"/>
		<path class="st0" d="M246.2,104.2c-21.5,0-38.8-17.4-38.8-38.8c0-21.5,17.4-38.8,38.8-38.8c21.5,0,38.8,17.4,38.8,38.8
			C285,86.8,267.6,104.2,246.2,104.2z"/>
		
			<ellipse transform="matrix(0.6468 -0.7626 0.7626 0.6468 -29.0482 68.0434)" class="st0" cx="58.9" cy="65.4" rx="50.4" ry="50.4"/>
		
			<ellipse transform="matrix(0.5496 -0.8354 0.8354 0.5496 3.310720e-02 130.8305)" class="st0" cx="121.4" cy="65.4" rx="50.4" ry="50.4"/>
		
			<ellipse transform="matrix(0.5605 -0.8282 0.8282 0.5605 26.621 180.9288)" class="st0" cx="183.8" cy="65.4" rx="50.4" ry="50.4"/>
		
			<ellipse transform="matrix(0.9992 -4.018160e-02 4.018160e-02 0.9992 -2.4284 9.9446)" class="st0" cx="246.2" cy="65.4" rx="50.4" ry="50.4"/>
	</g>
	<g>
		<path class="st1" d="M251.3,153.6c0,0,0,34.7,0,37.7h-15.6v-37.7H251.3z M87.6,139l34.9,52.2h-18.2l-5.2-8.6H65.7l-5.2,8.6H43
			l30.7-46L68,139H87.6z M92.8,172.4L82.2,155l-10.4,17.4H92.8z M152.8,175.4c0,3-2.6,7.4-9,7.4c-6.4,0-9-4.4-9-7.4
			c0-3,0-21.8,0-21.8h-15.6v21.8c0,10.5,9,17.6,24.6,17.6c15.6,0,24.6-7.2,24.6-17.6v-21.8h-15.6
			C152.8,153.6,152.8,172.4,152.8,175.4z M227.3,160c2.8,3.7,4.3,8,4.3,12.6c0,11.2-13.4,20.4-29.9,20.4c-16.5,0-29.9-9.1-29.9-20.4
			c0-22.4,31.1-20.5,34.4-19.2L192.7,139h18.5L227.3,160z M216.4,172.3c0-5.8-6.5-10.4-14.6-10.4c-8.1,0-14.6,4.7-14.6,10.4
			c0,5.8,6.5,10.4,14.6,10.4C209.8,182.7,216.4,178.1,216.4,172.3z"/>
		<g>
			<g>
				<g>
					<linearGradient id="SVGID_1_" gradientUnits="userSpaceOnUse" x1="276.7561" y1="95.9631" x2="215.5983" y2="34.8053">
						<stop  offset="5.000000e-02" style="stop-color:#FFFFFF"/>
						<stop  offset="0.1038" style="stop-color:#ECEDEE"/>
						<stop  offset="0.2717" style="stop-color:#C1C3C5"/>
						<stop  offset="0.4366" style="stop-color:#9EA0A2"/>
						<stop  offset="0.5951" style="stop-color:#848689"/>
						<stop  offset="0.7453" style="stop-color:#727476"/>
						<stop  offset="0.884" style="stop-color:#67686B"/>
						<stop  offset="1" style="stop-color:#636466"/>
					</linearGradient>
					<path class="st2" d="M246.2,104.2c-21.5,0-38.8-17.4-38.8-38.8c0-21.5,17.4-38.8,38.8-38.8c21.5,0,38.8,17.4,38.8,38.8
						C285,86.8,267.6,104.2,246.2,104.2z M289.4,65.4c0-23.9-19.4-43.2-43.2-43.2c-23.9,0-43.2,19.4-43.2,43.2
						c0,23.9,19.4,43.2,43.2,43.2C270.1,108.6,289.4,89.3,289.4,65.4z"/>
					
						<linearGradient id="SVGID_00000171697024389178508110000012018633534925519804_" gradientUnits="userSpaceOnUse" x1="210.5518" y1="29.759" x2="281.803" y2="101.0101">
						<stop  offset="5.000000e-02" style="stop-color:#FFFFFF"/>
						<stop  offset="0.1038" style="stop-color:#ECEDEE"/>
						<stop  offset="0.2717" style="stop-color:#C1C3C5"/>
						<stop  offset="0.4366" style="stop-color:#9EA0A2"/>
						<stop  offset="0.5951" style="stop-color:#848689"/>
						<stop  offset="0.7453" style="stop-color:#727476"/>
						<stop  offset="0.884" style="stop-color:#67686B"/>
						<stop  offset="1" style="stop-color:#636466"/>
					</linearGradient>
					<path style="fill:url(#SVGID_00000171697024389178508110000012018633534925519804_);" d="M246.2,115.8
						c-27.8,0-50.4-22.6-50.4-50.4S218.4,15,246.2,15c27.8,0,50.4,22.6,50.4,50.4S274,115.8,246.2,115.8z M291,65.4
						c0-24.8-20.1-44.8-44.8-44.8c-24.8,0-44.8,20.1-44.8,44.8c0,24.8,20.1,44.8,44.8,44.8C270.9,110.2,291,90.2,291,65.4z"/>
				</g>
				<path class="st4" d="M246.2,20.5c-24.8,0-44.8,20.1-44.8,44.8c0,24.8,20.1,44.8,44.8,44.8c24.8,0,44.8-20.1,44.8-44.8
					C291,40.6,270.9,20.5,246.2,20.5z M246.2,108.6c-23.9,0-43.2-19.4-43.2-43.2c0-23.9,19.4-43.2,43.2-43.2
					c23.9,0,43.2,19.4,43.2,43.2C289.4,89.3,270.1,108.6,246.2,108.6z"/>
			</g>
			<g>
				<g>
					
						<linearGradient id="SVGID_00000003787381480371979630000004420858649245116550_" gradientUnits="userSpaceOnUse" x1="89.5197" y1="95.963" x2="28.3621" y2="34.8054">
						<stop  offset="5.000000e-02" style="stop-color:#FFFFFF"/>
						<stop  offset="0.1038" style="stop-color:#ECEDEE"/>
						<stop  offset="0.2717" style="stop-color:#C1C3C5"/>
						<stop  offset="0.4366" style="stop-color:#9EA0A2"/>
						<stop  offset="0.5951" style="stop-color:#848689"/>
						<stop  offset="0.7453" style="stop-color:#727476"/>
						<stop  offset="0.884" style="stop-color:#67686B"/>
						<stop  offset="1" style="stop-color:#636466"/>
					</linearGradient>
					<path style="fill:url(#SVGID_00000003787381480371979630000004420858649245116550_);" d="M58.9,104.2
						c-21.5,0-38.8-17.4-38.8-38.8c0-21.5,17.4-38.8,38.8-38.8c21.5,0,38.8,17.4,38.8,38.8C97.8,86.8,80.4,104.2,58.9,104.2z
						 M102.2,65.4c0-23.9-19.4-43.2-43.2-43.2c-23.9,0-43.2,19.4-43.2,43.2c0,23.9,19.4,43.2,43.2,43.2
						C82.8,108.6,102.2,89.3,102.2,65.4z"/>
					
						<linearGradient id="SVGID_00000157290457276684530900000005511587862442664124_" gradientUnits="userSpaceOnUse" x1="23.3157" y1="29.759" x2="94.5666" y2="101.01">
						<stop  offset="5.000000e-02" style="stop-color:#FFFFFF"/>
						<stop  offset="0.1038" style="stop-color:#ECEDEE"/>
						<stop  offset="0.2717" style="stop-color:#C1C3C5"/>
						<stop  offset="0.4366" style="stop-color:#9EA0A2"/>
						<stop  offset="0.5951" style="stop-color:#848689"/>
						<stop  offset="0.7453" style="stop-color:#727476"/>
						<stop  offset="0.884" style="stop-color:#67686B"/>
						<stop  offset="1" style="stop-color:#636466"/>
					</linearGradient>
					<path style="fill:url(#SVGID_00000157290457276684530900000005511587862442664124_);" d="M58.9,115.8
						c-27.8,0-50.4-22.6-50.4-50.4S31.1,15,58.9,15c27.8,0,50.4,22.6,50.4,50.4S86.8,115.8,58.9,115.8z M103.8,65.4
						c0-24.8-20.1-44.8-44.8-44.8c-24.8,0-44.8,20.1-44.8,44.8c0,24.8,20.1,44.8,44.8,44.8C83.7,110.2,103.8,90.2,103.8,65.4z"/>
				</g>
				<path class="st4" d="M58.9,20.5c-24.8,0-44.8,20.1-44.8,44.8c0,24.8,20.1,44.8,44.8,44.8c24.8,0,44.8-20.1,44.8-44.8
					C103.8,40.6,83.7,20.5,58.9,20.5z M58.9,108.6c-23.9,0-43.2-19.4-43.2-43.2c0-23.9,19.4-43.2,43.2-43.2
					c23.9,0,43.2,19.4,43.2,43.2C102.2,89.3,82.8,108.6,58.9,108.6z"/>
			</g>
			<g>
				<g>
					
						<linearGradient id="SVGID_00000036969035351441529620000012097626157575084703_" gradientUnits="userSpaceOnUse" x1="151.9279" y1="95.9599" x2="90.7776" y2="34.8096">
						<stop  offset="5.000000e-02" style="stop-color:#FFFFFF"/>
						<stop  offset="0.1038" style="stop-color:#ECEDEE"/>
						<stop  offset="0.2717" style="stop-color:#C1C3C5"/>
						<stop  offset="0.4366" style="stop-color:#9EA0A2"/>
						<stop  offset="0.5951" style="stop-color:#848689"/>
						<stop  offset="0.7453" style="stop-color:#727476"/>
						<stop  offset="0.884" style="stop-color:#67686B"/>
						<stop  offset="1" style="stop-color:#636466"/>
					</linearGradient>
					<path style="fill:url(#SVGID_00000036969035351441529620000012097626157575084703_);" d="M144.3,96.7c-6.4,4.7-14.4,7.5-23,7.5
						c-8.6,0-16.5-2.8-23-7.5l-7.1-0.3c7.8,7.5,18.4,12.2,30.1,12.2c11.7,0,22.3-4.6,30.1-12.2L144.3,96.7z M152.6,42.3
						c4.8,6.5,7.6,14.5,7.6,23.1c0,8.7-2.8,16.7-7.6,23.1l0,6.8c7.4-7.8,12-18.3,12-29.9c0-11.6-4.6-22.2-12-29.9V42.3z M151.4,34.3
						c-7.8-7.5-18.4-12.2-30.1-12.2c-11.7,0-22.3,4.6-30.1,12.2l7.1-0.3c6.4-4.7,14.4-7.5,23-7.5c8.6,0,16.5,2.8,23,7.5L151.4,34.3z
						 M90.1,88.5c-4.8-6.5-7.6-14.5-7.6-23.1c0-8.7,2.8-16.7,7.6-23.1l0-6.8c-7.5,7.8-12,18.3-12,29.9c0,11.6,4.6,22.1,12,29.9
						L90.1,88.5z"/>
					
						<linearGradient id="SVGID_00000113352274667102546480000018076508954157188285_" gradientUnits="userSpaceOnUse" x1="85.9586" y1="29.9899" x2="156.7479" y2="100.7792">
						<stop  offset="5.000000e-02" style="stop-color:#FFFFFF"/>
						<stop  offset="0.1038" style="stop-color:#ECEDEE"/>
						<stop  offset="0.2717" style="stop-color:#C1C3C5"/>
						<stop  offset="0.4366" style="stop-color:#9EA0A2"/>
						<stop  offset="0.5951" style="stop-color:#848689"/>
						<stop  offset="0.7453" style="stop-color:#727476"/>
						<stop  offset="0.884" style="stop-color:#67686B"/>
						<stop  offset="1" style="stop-color:#636466"/>
					</linearGradient>
					<path style="fill:url(#SVGID_00000113352274667102546480000018076508954157188285_);" d="M152.6,33.2
						c-8.1-7.8-19.1-12.6-31.2-12.6c-12.1,0-23.1,4.8-31.2,12.6l0-7.3C98.7,19,109.6,15,121.4,15c11.8,0,22.6,4,31.2,10.8
						L152.6,33.2z M152.6,104.9c-8.6,6.8-19.4,10.8-31.2,10.8c-11.8,0-22.6-4-31.2-10.8l0-7.4c8.1,7.8,19.1,12.6,31.2,12.6
						c12.1,0,23.1-4.8,31.2-12.6V104.9z M160.8,34.1c6.8,8.6,10.9,19.5,10.9,31.3c0,11.8-4.1,22.7-10.9,31.3l-7.1-0.3
						c7.7-8.1,12.5-19,12.5-31.1c0-12.1-4.8-23-12.5-31.1L160.8,34.1z M81.9,96.7C75.1,88.1,71,77.2,71,65.4
						c0-11.8,4.1-22.7,10.9-31.3l7.1,0.3c-7.7,8.1-12.5,19-12.5,31.1c0,12.1,4.8,23,12.5,31.1L81.9,96.7z"/>
				</g>
				<path class="st4" d="M121.4,20.5c-24.8,0-44.8,20.1-44.8,44.8c0,24.8,20.1,44.8,44.8,44.8c24.8,0,44.8-20.1,44.8-44.8
					C166.2,40.6,146.1,20.5,121.4,20.5z M121.4,108.6c-23.9,0-43.2-19.4-43.2-43.2c0-23.9,19.4-43.2,43.2-43.2
					c23.9,0,43.2,19.4,43.2,43.2C164.6,89.3,145.2,108.6,121.4,108.6z"/>
			</g>
			<g>
				<g>
					
						<linearGradient id="SVGID_00000150090925944718425920000004575077080452640678_" gradientUnits="userSpaceOnUse" x1="214.34" y1="95.9599" x2="153.1899" y2="34.8098">
						<stop  offset="5.000000e-02" style="stop-color:#FFFFFF"/>
						<stop  offset="0.1038" style="stop-color:#ECEDEE"/>
						<stop  offset="0.2717" style="stop-color:#C1C3C5"/>
						<stop  offset="0.4366" style="stop-color:#9EA0A2"/>
						<stop  offset="0.5951" style="stop-color:#848689"/>
						<stop  offset="0.7453" style="stop-color:#727476"/>
						<stop  offset="0.884" style="stop-color:#67686B"/>
						<stop  offset="1" style="stop-color:#636466"/>
					</linearGradient>
					<path style="fill:url(#SVGID_00000150090925944718425920000004575077080452640678_);" d="M206.7,96.7c-6.4,4.7-14.4,7.5-23,7.5
						c-8.6,0-16.5-2.8-23-7.5l-7.1-0.3c7.8,7.5,18.4,12.2,30.1,12.2c11.7,0,22.3-4.6,30.1-12.2L206.7,96.7z M215,42.3
						c4.8,6.5,7.6,14.5,7.6,23.1c0,8.7-2.8,16.7-7.6,23.1l0,6.8c7.4-7.8,12-18.3,12-29.9c0-11.6-4.6-22.2-12-29.9V42.3z M213.8,34.3
						c-7.8-7.5-18.4-12.2-30.1-12.2c-11.7,0-22.3,4.6-30.1,12.2l7.1-0.3c6.4-4.7,14.4-7.5,23-7.5c8.6,0,16.5,2.8,23,7.5L213.8,34.3z
						 M152.6,88.5c-4.8-6.5-7.6-14.5-7.6-23.1c0-8.7,2.8-16.7,7.6-23.1v-6.8c-7.5,7.8-12,18.3-12,29.9c0,11.6,4.6,22.1,12,29.9
						L152.6,88.5z"/>
					
						<linearGradient id="SVGID_00000031912950596970119030000009344978536610277020_" gradientUnits="userSpaceOnUse" x1="148.3707" y1="29.9899" x2="219.16" y2="100.7792">
						<stop  offset="5.000000e-02" style="stop-color:#FFFFFF"/>
						<stop  offset="0.1038" style="stop-color:#ECEDEE"/>
						<stop  offset="0.2717" style="stop-color:#C1C3C5"/>
						<stop  offset="0.4366" style="stop-color:#9EA0A2"/>
						<stop  offset="0.5951" style="stop-color:#848689"/>
						<stop  offset="0.7453" style="stop-color:#727476"/>
						<stop  offset="0.884" style="stop-color:#67686B"/>
						<stop  offset="1" style="stop-color:#636466"/>
					</linearGradient>
					<path style="fill:url(#SVGID_00000031912950596970119030000009344978536610277020_);" d="M215,33.2
						c-8.1-7.8-19.1-12.6-31.2-12.6c-12.1,0-23.1,4.8-31.2,12.6v-7.3C161.1,19,172,15,183.8,15c11.8,0,22.6,4,31.2,10.8L215,33.2z
						 M215,104.9c-8.6,6.8-19.4,10.8-31.2,10.8c-11.8,0-22.6-4-31.2-10.8l0-7.4c8.1,7.8,19.1,12.6,31.2,12.6
						c12.1,0,23.1-4.8,31.2-12.6V104.9z M223.2,34.1c6.8,8.6,10.9,19.5,10.9,31.3c0,11.8-4.1,22.7-10.9,31.3l-7.1-0.3
						c7.7-8.1,12.5-19,12.5-31.1c0-12.1-4.8-23-12.5-31.1L223.2,34.1z M144.3,96.7c-6.8-8.6-10.9-19.5-10.9-31.3
						c0-11.8,4.1-22.7,10.9-31.3l7.1,0.3c-7.7,8.1-12.5,19-12.5,31.1c0,12.1,4.8,23,12.5,31.1L144.3,96.7z"/>
				</g>
				<path class="st4" d="M183.8,20.5c-24.8,0-44.8,20.1-44.8,44.8c0,24.8,20.1,44.8,44.8,44.8c24.8,0,44.8-20.1,44.8-44.8
					C228.6,40.6,208.5,20.5,183.8,20.5z M183.8,108.6c-23.9,0-43.2-19.4-43.2-43.2c0-23.9,19.4-43.2,43.2-43.2S227,41.5,227,65.4
					C227,89.3,207.6,108.6,183.8,108.6z"/>
			</g>
		</g>
	</g>
</g>
</svg>
