<?xml version="1.0" encoding="utf-8"?>
<!-- Generator: Adobe Illustrator 27.0.0, SVG Export Plug-In . SVG Version: 6.00 Build 0)  -->
<svg version="1.1" id="Layer_1" xmlns="http://www.w3.org/2000/svg" xmlns:xlink="http://www.w3.org/1999/xlink" x="0px" y="0px"
	 viewBox="0 0 3552.7 1835" style="enable-background:new 0 0 3552.7 1835;" xml:space="preserve">
<style type="text/css">
	.st0{fill:#7915d7;}
</style>
<g>
	<path class="st0" d="M3543.7,888.5c-3.4,11.9-10.9,21.3-20.1,29c-16.9,14-34.5,27.1-51.8,40.5c-0.7,0.5-1.7,0.6-4,1.4
		c2.6-4.6,4.7-8.2,6.7-11.8c0.7-1.2,1.2-2.4,1.8-3.6c8.5-18.5,2.1-30.5-18.2-33.4c-17-2.4-33.9-0.6-50.6,2.9
		c-6.7,1.4-13.4,3.1-20.4,3.6c1.6-1.1,3.1-2.4,4.7-3.4c34.7-19.6,71.1-34.7,110.9-40.1c8.5-1.1,17.2-0.7,25.8-0.1
		c7,0.4,12.5,4,15.2,10.9C3543.7,885.8,3543.7,887.2,3543.7,888.5z"/>
	<path class="st0" d="M3543.7,1220.5c-3.7,11.8-11.6,20.6-20.3,28.9c-16.6,15.9-35.3,29.2-55.5,41.2c1.2-2.1,2.5-4.2,3.6-6.4
		c2.5-5.1,5.5-10,7.2-15.3c3.8-11.9-0.4-20.2-12.2-24.4c-10.5-3.7-21.5-4.5-32.5-3c-15.7,2.2-31.4,4.9-47.1,7.5
		c0.9-0.7,2-1.9,3.4-2.7c34.3-19.7,70.4-34.6,109.7-40.6c8.8-1.3,17.9-1.1,26.8-0.8c7.7,0.3,14.1,3.6,16.9,11.6
		C3543.7,1217.8,3543.7,1219.2,3543.7,1220.5z"/>
	<path class="st0" d="M3543.7,722.5c-3.1,11.7-10.9,20.3-19.2,28.5c-16.7,16.3-35.6,29.7-56.2,41.8c1.7-3,3.4-5.9,5.1-8.9
		c13.5-23.5,6-37.7-20.9-39.6c-18.1-1.3-35.8,1.1-53.3,5.4c-3.8,0.9-7.6,1.8-11.9,1.7c1.5-1.1,2.9-2.4,4.5-3.4
		c35.3-19.9,72.3-35.2,112.8-40.3c7.8-1,15.9-0.4,23.8,0.1c7,0.5,12.6,3.8,15.3,10.7C3543.7,719.8,3543.7,721.2,3543.7,722.5z"/>
	<path class="st0" d="M3543.7,1054.5c-3.4,11.5-11.1,20.2-19.4,28.3c-16.8,16.3-35.7,29.7-57,44c1.8-3.7,2.7-5.5,3.5-7.2
		c2.8-6,6.5-11.7,8.3-18c3.1-10.5-0.9-19.2-11.3-22.1c-9.7-2.7-20.3-4.3-30.3-3.6c-14.5,0.9-28.8,4.3-43.2,6.7c-2.2,0.4-4.4,1-8.5,2
		c2.5-2.2,3.4-3.3,4.7-4c34.8-20,71.6-35.1,111.6-40.9c8.1-1.2,16.6-1,24.8-0.5c7.6,0.4,14.1,3.6,17,11.5
		C3543.7,1051.8,3543.7,1053.2,3543.7,1054.5z"/>
	<path class="st0" d="M3543.7,556.5c-2.9,11.4-10.3,19.9-18.4,27.9c-16.9,16.6-36.1,30.4-56.9,42.7c1.1-2.1,2.3-4.3,3.4-6.5
		c2.4-5.1,5.4-10,7.1-15.3c3.5-11.4-0.7-19.9-11.9-23.8c-5.6-1.9-11.6-2.8-17.6-3.2c-19.1-1.2-37.8,2.1-56.2,6.9
		c-1.6,0.4-3.1,0.8-7,1.8c2.5-2.4,3.3-3.6,4.4-4.2c36.2-20.5,74.1-36.3,115.8-41.2c7.2-0.8,14.6-0.2,21.8,0.3
		c7,0.5,12.6,3.8,15.5,10.5C3543.7,553.8,3543.7,555.2,3543.7,556.5z"/>
	<path class="st0" d="M3543.7,226.5c-4.5,12.2-12.7,21.7-22.3,29.8c-13.2,11.2-27,21.6-40.7,32.2c-3.1,2.4-6.5,4.4-11.1,5.7
		c0.8-1.9,1.5-3.8,2.3-5.6c2.3-5.1,5.4-10.1,7-15.4c3.3-11-0.7-19.2-11.6-23c-5.9-2.1-12.2-3.2-18.5-3.6
		c-18.5-1.2-36.4,2.3-54.3,6.6c-2.5,0.6-5.1,1.2-8.1,0.6c2.7-1.7,5.3-3.4,8.1-5c31.6-17.5,64.8-31.2,100.5-37.3
		c10.4-1.8,21.1-1.4,31.7-1.4c7.3,0,13.3,3.4,16.8,10.3C3543.7,222.5,3543.7,224.5,3543.7,226.5z"/>
	<path class="st0" d="M3543.7,1386.5c-3.8,11.7-11.8,20.6-20.4,28.9c-16.4,15.6-34.7,28.7-54.9,40.2c1.2-2.1,2.5-4.2,3.6-6.3
		c2.1-4.1,4.5-8.2,6.1-12.5c4.9-13.7,0.4-22.7-13.4-27c-10.7-3.3-21.7-3.8-32.7-2.2c-15.1,2.1-30.1,4.9-45.2,7.4
		c0.9-0.7,2-1.9,3.5-2.8c34-19.7,69.9-34.4,108.8-40.6c9.1-1.4,18.6-1.2,27.9-0.8c7.7,0.3,14.1,3.6,16.7,11.8
		C3543.7,1383.8,3543.7,1385.2,3543.7,1386.5z"/>
	<path class="st0" d="M3543.7,390.5c-2.8,11.5-10.2,19.9-18.2,27.9c-16.4,16.2-35,29.6-54.1,42.4c-0.7,0.4-1.6,0.5-3.7,1.1
		c2.1-3.5,3.7-5.9,4.9-8.5c2.4-5.1,5.3-10.1,6.7-15.5c2.7-10.2-1.1-17.8-11-21.6c-5.8-2.2-12.2-3.4-18.4-3.8
		c-18.8-1.3-37.1,2.1-55.2,6.5c-2.1,0.5-4.3,0.9-7,0.3c1.6-1.1,3.1-2.3,4.7-3.3c32-18.2,65.7-32,102-38.6c11.1-2,22.3-3.7,33.7-1.5
		c6.9,1.4,12.5,3.9,15.6,10.5C3543.7,387.8,3543.7,389.2,3543.7,390.5z"/>
	<path class="st0" d="M3543.7,1552.5c-4.1,12-11.9,21.6-21.3,29.3c-16.4,13.5-33.6,26.2-50.5,39.2c-0.7,0.5-1.7,0.7-4.4,1.7
		c2.1-3.5,3.4-5.5,4.5-7.7c2.2-4.4,4.8-8.8,6.4-13.5c4.4-12.8,0.1-21.5-12.7-25.8c-11.6-3.9-23.7-4-35.6-2.4
		c-11.8,1.6-23.5,4.2-35.3,6.4c-1.8,0.3-3.7,0.4-7.9,0.9c3.5-2.4,5-3.7,6.6-4.6c32.7-18.4,67.1-32.4,104.4-38.5
		c9.1-1.5,18.6-1.2,27.9-1.1c7.6,0.1,14.1,3.1,18.1,10.1C3543.7,1548.5,3543.7,1550.5,3543.7,1552.5z"/>
	<path class="st0" d="M3543.7,60.5c-4.4,12.2-12.9,21.4-22.1,30c-16,15-33.8,27.7-53.3,38.7c1.6-2.7,3.2-5.3,4.6-8
		c1.8-3.5,3.7-7.1,5.1-10.8c5-14,0.1-23.5-14.2-27.5c-12.1-3.3-24.4-3.2-36.7-1.4c-11.5,1.7-22.8,4.3-34.2,6.5
		c-1.3,0.2-2.6,0.2-5.7,0.5c3-2.3,4.6-3.8,6.4-4.8c32.1-18.1,65.9-31.9,102.3-38c9.7-1.6,19.8-1.4,29.8-1.4c7.7,0,14,3.2,17.9,10.2
		C3543.7,56.5,3543.7,58.5,3543.7,60.5z"/>
	<path class="st0" d="M3543.7,1718.5c-4.4,12.2-12.9,21.4-22.1,30c-16,15-33.8,27.7-53.3,38.7c1.6-2.7,3.2-5.3,4.6-8
		c1.8-3.5,3.7-7.1,5.1-10.8c5-14,0.1-23.5-14.2-27.5c-12.1-3.3-24.4-3.2-36.7-1.4c-11.5,1.7-22.8,4.3-34.2,6.5
		c-1.3,0.2-2.6,0.2-5.7,0.5c3-2.3,4.6-3.8,6.4-4.8c32.1-18.1,65.9-31.9,102.3-38c9.7-1.6,19.8-1.4,29.8-1.4c7.7,0,14,3.2,17.9,10.2
		C3543.7,1714.5,3543.7,1716.5,3543.7,1718.5z"/>
	<path class="st0" d="M1785.4,958.6c3.3-6.5,7.1-12.8,9.6-19.5c5.1-13.6,0.4-22.6-13.6-26.8c-14.7-4.4-29.7-2.9-44.5-0.9
		c-10.8,1.5-21.4,4.2-33.4,6.7c2.1-1.8,3.2-3.1,4.6-3.9c34.9-19.9,71.6-34.9,111.7-40.6c9.9-1.4,19.9-2,29.6,1
		c10.5,3.2,13.8,10,9,19.9c-2.7,5.6-6.5,10.9-10.6,15.5C1829.8,929.8,1808,944.9,1785.4,958.6z"/>
	<path class="st0" d="M2026,958.3c3.1-6.2,6.8-12.2,9.3-18.7c5.3-14.1,0.6-23.3-13.9-27.5c-14.7-4.2-29.7-2.8-44.5-0.6
		c-10.8,1.6-21.4,4.2-33.6,6.7c2.7-2.1,4.1-3.4,5.7-4.3c35-19.9,71.7-35.1,111.8-40.3c9.4-1.2,19.3-0.7,28.6,1
		c11.2,2.1,14.3,9.8,9.4,20.3c-1.7,3.6-3.8,7.1-6.3,10.1C2073.9,927.3,2050.4,943.4,2026,958.3z"/>
	<path class="st0" d="M2506.9,958.4c3.3-6.8,7.3-13.5,9.8-20.6c4.3-12.2,0-21.5-12.4-24.9c-8.5-2.3-17.8-3.5-26.6-2.9
		c-14.2,1-28.3,3.9-42.4,6c-3.2,0.5-6.4,1.4-11.5,2.5c2.8-2.3,3.9-3.4,5.3-4.2c35.5-20.3,72.9-35.7,113.8-40.9
		c9-1.2,18.7-0.5,27.7,1.3c10.7,2.1,13.8,9.7,9.3,19.6c-1.9,4.2-4.5,8.2-7.5,11.7C2554.1,928,2530.7,943.7,2506.9,958.4z"/>
	<path class="st0" d="M1063.7,958.5c2.1-3.6,4.4-6.8,5.9-10.3c2.3-5.5,4.7-11.1,5.7-16.8c1.3-7.3-2.1-13.3-8.8-16.3
		c-5-2.3-10.6-4-16.1-4.6c-19.1-2.2-37.8,0.7-56.3,5.1c-3.5,0.8-7,1.8-12.7,3.2c2.8-2.4,3.8-3.7,5.2-4.5
		c35.2-20.1,72.2-35.4,112.7-40.7c9.4-1.2,19.3-0.6,28.6,1.2c10.8,2.1,14,9.7,9.2,19.6c-2.7,5.6-6.4,10.9-10.6,15.6
		c-17.6,19.4-38.7,34.4-60.4,48.7C1065.8,958.8,1065,958.5,1063.7,958.5z"/>
	<path class="st0" d="M102.1,958.4c2.9-5.2,6.1-10.3,8.5-15.7c7.6-17.1,1.5-28.5-17.2-31.8c-13.6-2.4-27.2-1.6-40.8,0.7
		c-10.4,1.8-20.7,4.1-32.3,4.9c1.1-0.5,2.3-1,3.3-1.6c35.5-20.3,72.8-35.9,113.7-41.3c9.1-1.2,18.7-0.9,27.7,0.8
		c12.4,2.3,15.6,10.2,9.7,21.5c-2.6,5-6,9.7-9.7,13.8C146.9,929.6,125.2,944.8,102.1,958.4z"/>
	<path class="st0" d="M2025,461.8c2.7-4.6,5.2-8,6.8-11.8c2.2-5.2,4.2-10.5,5.2-16c1.3-7.8-2.4-14.1-9.5-16.8
		c-6.4-2.5-13.4-4.1-20.2-4.7c-19.1-1.4-37.7,2.1-56.2,6.8c-2.2,0.6-4.4,1-7.2,0.3c2.7-1.6,5.3-3.3,8-4.8
		c31.3-17.4,64.1-30.8,99.5-37.3c11.4-2.1,22.9-3.9,34.7-1.4c14.8,3.1,19.1,11.4,11.1,24.4c-3.9,6.5-9,12.4-14.3,17.8
		c-16.2,16.4-35,29.7-54.1,42.5C2028,461.2,2027,461.3,2025,461.8z"/>
	<path class="st0" d="M1304.7,460.7c3-5.9,6.6-11.6,9-17.7c5.9-14.8,0.8-24.6-14.7-28.6c-13.1-3.4-26.4-2.7-39.6-0.8
		c-11.7,1.7-23.4,4.3-36.8,6.8c3.2-2.3,4.9-3.8,6.8-4.9c31.8-17.9,65.2-31.5,101.2-38.1c11.4-2.1,23-3.8,34.7-1.1
		c13.8,3.1,17.7,10.9,11.2,23.3c-1.2,2.3-2.7,4.6-4.3,6.7C1353.7,429.4,1329.4,445.5,1304.7,460.7z"/>
	<path class="st0" d="M342.6,792.5c2.4-4.3,5.2-8.4,7.1-12.9s3.5-9.4,4.3-14.2c1.1-7.4-2.3-13.4-9-16.3c-5.7-2.4-12-4.2-18.2-4.7
		c-20.1-1.9-39.8,1.6-59.2,6.6c-1.9,0.5-3.7,0.9-6.1,0.4c1.5-1.1,2.9-2.4,4.5-3.3c35.3-20,72.4-35.3,113-40.3c8.8-1.1,18-0.6,26.7,1
		c11.7,2.2,15.1,10.2,9.6,20.9c-2.9,5.5-6.7,10.8-10.9,15.4C386.8,764.2,365.5,779.1,342.6,792.5z"/>
	<path class="st0" d="M1544.7,792.8c2.4-4.2,4.9-8.3,7.1-12.6c10.2-20.1,3.4-33-19.1-35.5c-19.1-2.1-37.8,0.4-56.4,4.8
		c-3.8,0.9-7.7,1.9-13.5,3.3c2.4-2.3,3.2-3.5,4.4-4.1c35.8-20.4,73.5-36,114.8-41.1c8.7-1.1,18-0.4,26.7,1.2
		c10.7,2.1,13.9,9.6,9.5,19.6c-1.6,3.6-3.7,7.1-6.2,10.2C1593.5,761.4,1569.6,777.4,1544.7,792.8z"/>
	<path class="st0" d="M2746.3,793.7c3.5-6.4,6.5-11.2,8.9-16.3c7.8-17.3,2.3-29.3-16.5-31.9c-12.7-1.8-25.9-1.1-38.8,0.1
		c-11.2,1-22.1,4.2-34.5,6.6c1.7-1.6,2.6-2.8,3.7-3.4c35.9-20.4,73.5-36.1,114.8-41.2c8.7-1.1,18-0.5,26.7,1.1
		c11.2,2.2,14.3,9.9,9.5,20.3c-1.5,3.3-3.6,6.4-5.7,9.3C2802.9,753.9,2766,784,2746.3,793.7z"/>
	<path class="st0" d="M2266.1,792.5c2.7-4.9,5.8-9.6,8.1-14.7c8.1-17.7,2.4-29.8-16.9-32.4c-12.7-1.7-25.9-0.9-38.7,0.3
		c-11.1,1-22.1,4.2-33.1,6.4c-0.6-0.6-1.1-1.1-1.7-1.7c1.2-0.4,2.4-0.5,3.5-1.1c36.4-20.8,74.6-36.6,116.5-41.7
		c8.4-1,17.3-0.4,25.7,1.2c11.2,2.2,14.7,10,9.6,20.2c-3.1,6.1-7.3,11.9-12,17C2309.5,764.7,2288.5,779.4,2266.1,792.5z"/>
	<path class="st0" d="M1064,1290.2c3.3-6.5,7.1-12.8,9.6-19.5c5.1-13.6,0.6-23.2-13.6-26.6c-9.8-2.3-20.5-3.2-30.5-2.4
		c-15.8,1.3-31.4,4.7-47,7.2c0.9-0.7,2.1-1.9,3.5-2.7c34.2-19.7,70.3-34.5,109.6-40.6c7.8-1.2,15.9-1.1,23.8-1
		c3.9,0.1,7.9,1.1,11.6,2.6c7.3,2.9,10.1,8.8,7.2,16.1c-2.1,5.2-4.8,10.4-8.6,14.4c-8.6,9.2-17.6,18.2-27.3,26.2
		c-12,9.9-24.9,18.6-37.4,27.9C1064.6,1291.2,1064.3,1290.7,1064,1290.2z"/>
	<path class="st0" d="M3228.3,1123.5c2.5-4.6,5.3-9,7.4-13.7c8.6-18.4,2.1-30.1-18.1-33.3c-13.3-2.1-26.6-1.1-39.7,1
		c-10.4,1.6-20.7,4.2-32.5,6.7c2.3-1.8,3.4-3.1,4.9-3.9c34.6-19.8,70.9-35,110.6-40.5c10-1.4,20.6-1,30.6,0.7
		c11.3,2,14.4,9.8,9.4,20.2c-2.4,5-5.8,9.8-9.5,13.9c-17.8,20.1-39.6,35.2-61.6,50.1C3229.3,1124.3,3228.8,1123.9,3228.3,1123.5z"/>
	<path class="st0" d="M582.4,627.8c2-3.5,3.7-5.9,4.9-8.4c2.4-5.1,5.2-10.2,6.6-15.5c2.8-10.9-1.1-18.2-11.7-22.1
		c-5.2-1.9-10.9-2.9-16.5-3.3c-17.4-1.2-34.5,1.2-51.4,5.4c-3.7,0.9-7.5,1.7-11.7,1.5c1.8-1.3,3.6-2.8,5.5-3.9
		c31.2-17.6,64.1-31.1,99.4-37.8c12.1-2.3,24.3-4.2,36.7-1.4c14.2,3.2,18.3,11.6,10.5,24.1c-4.3,7-9.5,13.9-15.8,19.2
		c-17.1,14.2-35,27.6-52.6,41.2C585.5,627.1,584.5,627.1,582.4,627.8z"/>
	<path class="st0" d="M824.3,1123.5c3.1-6.5,6.9-12.8,9.3-19.6c4.5-12.7,0.1-21.9-13-25.3c-9.2-2.4-19.1-3.6-28.5-2.8
		c-15.1,1.3-30.1,4.7-45.2,7.2c-1.6,0.3-3.1,0.8-5.1,0.3c1.5-1.1,2.8-2.4,4.4-3.3c34.6-19.8,71-34.9,110.7-40.4
		c9.7-1.3,20-1.1,29.6,0.6c11.9,2.1,15,9.8,9.9,20.7c-1.4,3-3.2,5.9-5.2,8.5C873,1092.4,849,1108.4,824.3,1123.5z"/>
	<path class="st0" d="M1223.5,585.4c1.8-1.2,3.4-2.7,5.3-3.7c31.4-17.9,64.6-31.4,100.2-38.2c12.1-2.3,24.3-4.2,36.6-1.3
		c13.8,3.2,17.7,11.2,10.6,23.4c-3.5,6-8,11.5-12.8,16.5c-17.2,17.9-37.4,31.9-59.9,47.2c1.8-3.9,2.6-5.6,3.5-7.4
		c2.7-5.7,6.2-11.1,7.9-17.1c3.3-11.6-1.2-19.7-12.5-23.4c-5.3-1.7-11-2.6-16.6-2.9c-19.1-1.2-37.8,2.1-56.2,6.8
		c-1.9,0.5-3.7,0.9-5.6,1.3C1223.8,586.1,1223.6,585.7,1223.5,585.4z"/>
	<path class="st0" d="M2907,584.9c1.6-1.1,3.1-2.3,4.8-3.2c31.5-17.9,64.6-31.4,100.3-38.2c12.1-2.3,24.3-4.1,36.7-1.3
		c13.7,3.2,17.5,11.2,10.5,23.5c-3.1,5.4-7.1,10.5-11.4,15.1c-17.5,18.5-38.3,32.9-60.4,46.3c1.3-2.4,2.8-4.7,3.9-7.2
		c2.5-5.8,5.6-11.4,7.1-17.4c2.3-9.6-1.3-16.4-10.4-20c-5.8-2.3-12.2-3.6-18.4-4c-19.5-1.5-38.5,2-57.2,6.8
		c-1.6,0.4-3.1,0.8-4.7,1.2C2907.4,585.9,2907.2,585.4,2907,584.9z"/>
	<path class="st0" d="M3227.6,958.3c1.7-2.8,3.5-5.5,4.9-8.3c2.2-4.5,4.5-8.9,5.9-13.7c3.2-10.9-0.6-19.8-11.5-22.9
		c-9.1-2.6-19-4.1-28.4-3.4c-17.1,1.2-34.1,4.3-50.7,6.6c0.5-0.5,1.7-1.8,3.1-2.6c34.9-19.9,71.6-35.1,111.8-40.4
		c9.4-1.2,19.3-0.8,28.6,0.9c11.3,2.1,14.9,10,9.6,20.1c-3.7,6.9-8.7,13.5-14.1,19.2C3269.7,931.7,3249.5,945.7,3227.6,958.3z"/>
	<path class="st0" d="M2665.8,917c1.3-0.9,2.6-2,4-2.8c34.9-19.9,71.7-34.9,111.7-40.6c9.9-1.4,19.9-2,29.7,1
		c10.5,3.2,13.9,10.1,8.9,19.9c-3.1,6.1-7.3,12-12,17c-17.5,19-38.6,33.5-60.9,47.2c0.8-1.8,1.7-3.5,2.5-5.3
		c2.6-5.4,5.9-10.5,7.7-16.2c3.8-11.8-0.7-20.3-12.4-24.4c-4-1.4-8.4-2.2-12.6-2.6c-18.8-1.8-37.1,0.9-55.3,5.3
		c-3.5,0.9-7,1.7-10.5,2.6C2666.3,917.8,2666,917.4,2665.8,917z"/>
	<path class="st0" d="M1544.2,960.8c4.5-9.7,8.5-16.6,11-24.1c3.7-11.3-0.4-20.3-11.8-23.4c-9.1-2.5-19.1-3.9-28.4-3.2
		c-17.1,1.3-34.1,4.4-50.7,6.7c0.3-0.3,1.2-1.4,2.4-2.1c35.5-20.3,72.7-35.8,113.5-41.1c9.4-1.2,19.3-0.7,28.6,1.1
		c10.7,2,13.8,9.6,9.5,19.6c-1.6,3.6-3.7,7.1-6.2,10.2C1593.5,927.1,1569.6,943.2,1544.2,960.8z"/>
	<path class="st0" d="M823.1,958.7c1.6-2.8,3.3-5.2,4.5-7.7c2.4-5.1,5.2-10.1,6.7-15.5c2.9-10.1-0.8-17.7-10.6-21.8
		c-4.5-1.9-9.5-3-14.4-3.5c-18.8-2-37.1,0.8-55.3,5.1c-3.5,0.8-7,1.8-12.7,3.2c2.7-2.4,3.8-3.7,5.1-4.5
		c34.9-19.9,71.6-35.2,111.8-40.4c9.4-1.2,19.3-0.9,28.6,0.8c11.8,2.1,15.1,10.1,9.5,20.8c-3.2,6.1-7.5,11.8-12.2,16.9
		c-17.2,18.3-37.6,32.7-58.4,46.5C825.2,959,824.4,958.7,823.1,958.7z"/>
	<path class="st0" d="M342.3,958.5c1.8-3,3.7-5.6,5-8.5c2.3-5.1,5.1-10.2,6.3-15.6c2.2-10-1.6-16.9-11-20.7
		c-4.2-1.7-8.9-2.8-13.5-3.3c-19.1-2.1-37.8,0.7-56.3,5.2c-3.5,0.8-7,1.8-12.6,3.2c2.7-2.4,3.8-3.7,5.2-4.5
		c35.2-20.1,72.3-35.4,112.7-40.7c9.4-1.2,19.3-0.6,28.6,1.2c10.7,2,13.9,9.7,9.1,19.6c-2.6,5.3-6,10.4-10,14.8
		c-17.7,19.7-39.1,35-61.1,49.5C344.4,958.9,343.6,958.6,342.3,958.5z"/>
	<path class="st0" d="M2506.2,792.6c1.7-2.8,3.6-5.4,5-8.3c2.2-4.5,4.6-8.9,5.9-13.7c3.4-11.6-1.3-20-13.3-23.8
		c-14.6-4.6-29.7-3.3-44.5-1.3c-11.1,1.5-22.1,4.2-34.3,6.7c1.8-1.6,2.7-2.8,3.8-3.5c35.8-20.4,73.4-36,114.7-41.1
		c8.7-1.1,18-0.5,26.7,1.2c11.1,2.2,14.7,10.2,9.3,20.2c-3.7,6.9-8.7,13.4-14.2,19.1C2548.2,766,2528,780,2506.2,792.6z"/>
	<path class="st0" d="M1785.2,792.3c1.6-2.8,3.5-5.4,4.9-8.3c2.3-4.8,4.8-9.6,6.1-14.7c2.6-9.8-1-17.2-10.4-21.1
		c-5.1-2.1-10.8-3.4-16.4-3.9c-18.1-1.6-35.8,0.9-53.4,5.2c-3.8,0.9-7.6,1.8-11.9,1.8c1.5-1.1,2.8-2.5,4.5-3.4
		c35.3-20,72.4-35.3,112.9-40.3c8.7-1.1,18-0.7,26.7,0.9c11.8,2.2,15.4,10.1,9.8,20.8c-3.2,6.1-7.5,11.8-12.2,16.9
		C1828.4,764.9,1807.7,779.3,1785.2,792.3z"/>
	<path class="st0" d="M342.4,1456.1c3.1-5.8,6.7-11.4,9.3-17.5c6.4-15.5,0.8-26-15.5-29.8c-15.6-3.6-31.1-1.9-46.6,0.8
		c-9.7,1.6-19.3,4.1-30.5,6.5c2.9-2,4.4-3.3,6.1-4.3c33.7-19.4,69.2-34,107.8-40.1c8.8-1.4,17.9-0.9,26.8-1.1c1.6,0,3.3,0.3,4.9,0.7
		c12.6,3.1,16.5,11,10.3,22.3c-3.3,6-7.6,11.8-12.5,16.7c-8,8-16.5,15.5-25.3,22.6c-10.9,8.7-22.4,16.6-33.7,24.8
		C343.2,1457,342.8,1456.6,342.4,1456.1z"/>
	<path class="st0" d="M1063.7,792.7c1.8-3,3.7-5.7,5-8.5c2.3-4.8,4.9-9.6,6.2-14.7c2.6-10.2-1.2-17.8-11.1-21.6
		c-4.9-1.9-10.2-3.1-15.5-3.5c-18.1-1.6-35.9,0.9-53.4,5.2c-3.8,0.9-7.7,1.9-11.5,2.8c-0.5-0.6-0.9-1.2-1.4-1.8
		c1.1-0.5,2.3-0.9,3.4-1.5c36.1-20.6,74.1-36.4,115.7-41.5c8.7-1.1,18-0.4,26.7,1.3c10.7,2.1,14.1,9.8,9.3,19.6
		c-2.7,5.6-6.4,11-10.6,15.6c-17.6,19.4-38.7,34.5-60.5,48.8C1065.7,793,1065,792.8,1063.7,792.7z"/>
	<path class="st0" d="M1223.4,916.9c1-0.8,2-1.7,3.1-2.3c35.2-20.1,72.2-35.5,112.6-40.9c9.4-1.2,19.3-0.8,28.6,0.9
		c11.3,2,14.5,9.7,9.7,20.2c-1.6,3.6-3.9,7-6.2,10.2c-11.5,15.2-47,44.2-66.7,54.1c1.9-3.6,3.3-6,4.3-8.5c2.4-6.1,5.5-12.2,6.7-18.6
		c1.5-8.4-1.9-14.1-9.8-17.6c-4.8-2.1-10.1-3.4-15.3-4c-19.1-2.1-37.8,0.8-56.3,5.3c-3.5,0.9-7,1.7-10.5,2.5
		C1223.5,917.8,1223.4,917.3,1223.4,916.9z"/>
	<path class="st0" d="M101.6,793.9c3.8-7.3,7.4-12.9,9.9-19c6-14.9,1.2-24.6-14.3-28.8c-14.1-3.8-28.4-2.6-42.6-0.6
		c-11.1,1.6-22.1,4.3-34.7,6.8c2.8-2.1,4.2-3.4,5.9-4.4c35.3-19.9,72.3-35.3,112.9-40.3c8.7-1.1,18-0.7,26.7,1
		c11.8,2.2,15,10,9.8,20.8c-2,4.1-4.8,8-7.6,11.6C155.3,756.2,121.2,783.6,101.6,793.9z"/>
	<path class="st0" d="M2266.2,626.8c2.9-5.5,6.2-10.8,8.6-16.5c6.9-16.2,1.8-26.2-15.4-30.4c-13.1-3.2-26.5-2.3-39.6-0.4
		c-11.4,1.7-22.7,4.3-35.8,6.8c3.2-2.3,4.8-3.8,6.8-4.9c31.4-17.8,64.5-31.3,100.1-38c11.7-2.2,23.6-4,35.6-1.4
		c14.8,3.2,18.7,11.5,10.8,24.6c-3.4,5.6-7.7,10.9-12.3,15.6C2307.9,599.9,2287.8,614.1,2266.2,626.8z"/>
	<path class="st0" d="M20.3,1082.1c12.4-6.3,24.6-13.1,37.2-18.8c24.9-11.3,50.6-20.4,77.9-23.6c10.1-1.2,20.6-1,30.6,0.8
		c11.3,2,14.5,9.9,9.2,20.2c-3,5.8-7,11.3-11.5,16.2c-17.7,19.2-39,33.9-61.6,47.7c1.1-2.1,2.4-4.2,3.4-6.3c2.4-5.1,5.4-10,7.1-15.3
		c3.8-11.8-0.3-20.9-12.3-24.1c-9.5-2.5-19.7-3.8-29.4-3.1c-16.8,1.3-33.3,4.7-50,7.2C20.6,1082.7,20.5,1082.4,20.3,1082.1z"/>
	<path class="st0" d="M2506.6,1124.3c3.2-6.2,7-12.1,9.5-18.5c5.6-14.4,0.7-23.8-14.3-28c-15.1-4.2-30.4-2.6-45.5-0.2
		c-10.4,1.6-20.7,4.2-32.3,6.7c1.8-1.6,2.5-2.6,3.5-3.1c35.4-20.4,72.7-35.9,113.4-41.6c9.4-1.3,19.3-1,28.6,0.8
		c12.4,2.3,15.6,10.2,9.6,21.5c-2.8,5.2-6.4,10.2-10.4,14.5C2550.8,1095.8,2529.2,1110.7,2506.6,1124.3z"/>
	<path class="st0" d="M2746.8,1456c3.1-5.8,6.7-11.5,9.2-17.6c6.4-15.5,0.7-25.9-15.7-29.7c-15.2-3.5-30.5-1.8-45.6,0.6
		c-9.8,1.6-19.5,4.1-30.6,6.5c2.5-1.9,3.8-3.3,5.5-4.2c33.7-19.4,69.2-34,107.8-40.1c8.8-1.4,17.9-1,26.8-1c2.9,0,5.9,0.9,8.7,2
		c8.4,3.2,11.4,9.2,7.9,17.4c-2.3,5.4-5.4,10.9-9.5,15.1c-9,9.3-18.4,18.3-28.4,26.5c-11.3,9.2-23.4,17.4-35.1,26
		C2747.5,1457,2747.2,1456.5,2746.8,1456z"/>
	<path class="st0" d="M823.5,792.7c3.1-5.8,6.6-11.4,9.1-17.5c6.3-15.4,1.4-25.1-14.7-29.3c-13.8-3.6-27.8-2.5-41.6-0.5
		c-11.1,1.6-22.1,4.3-34.3,6.7c1.8-1.7,2.7-2.9,3.9-3.5c35.8-20.4,73.4-36,114.6-41c8.7-1.1,18-0.5,26.6,1.2
		c11.1,2.1,14.7,10.2,9.3,20.2c-3.7,6.9-8.7,13.4-14.1,19.1C865.2,765.9,845,780,823.5,792.7z"/>
	<path class="st0" d="M1704.8,585.2c0.7-0.7,1.3-1.5,2.2-2c36.7-21,75.2-36.9,117.5-41.7c8.1-0.9,16.7-0.2,24.7,1.4
		c10.6,2.2,13.9,9.7,9.6,19.6c-1.4,3.3-3.3,6.6-5.6,9.4c-18.4,23.3-42.6,39.4-67.8,54.8c2-3.6,4.1-7.2,6.1-10.8
		c11.7-21.7,4.4-35.3-20.3-37.4c-18.4-1.6-36.5,0.8-54.3,5.1c-3.8,0.9-7.7,1.8-11.5,2.8C1705,586,1704.9,585.6,1704.8,585.2z"/>
	<path class="st0" d="M3227.8,792.5c2.7-4.9,5.8-9.7,8.1-14.8c8.1-17.7,2.4-29.8-16.9-32.3c-12.7-1.7-25.9-0.9-38.7,0.3
		c-11.1,1-22,4.1-34.6,6.6c2.6-2,4-3.4,5.6-4.3c35.3-19.9,72.3-35.2,112.8-40.2c8.7-1.1,18-0.7,26.6,0.9c11.8,2.2,15.2,10,9.9,20.7
		c-2.5,5-5.8,9.8-9.5,13.9C3273.1,763.5,3251.1,778.8,3227.8,792.5z"/>
	<path class="st0" d="M502.1,751.2c0.7-0.7,1.4-1.5,2.2-2c36.3-20.8,74.5-36.7,116.4-41.8c8.7-1.1,18-0.3,26.6,1.4
		c10.1,2,13.4,9.6,9.3,19c-2.1,4.8-5.2,9.3-8.5,13.4c-12.2,15.1-45.1,41.6-64.5,51.9c1.2-2.9,2.1-4.7,2.8-6.6
		c2.7-6.4,6.1-12.6,7.7-19.2c2.1-8.6-1.4-15.2-9.5-18.6c-5.4-2.3-11.4-3.8-17.2-4.3c-20.1-1.8-39.7,1.6-59.1,6.5
		c-1.9,0.5-3.7,1-5.6,1.5C502.5,752,502.3,751.6,502.1,751.2z"/>
	<path class="st0" d="M1944.2,1248.7c1.3-0.9,2.6-2,4-2.8c34-19.5,69.8-34.2,108.7-40.3c7.8-1.2,15.9-1.2,23.8-1.2
		c3.6,0,7.3,0.9,10.7,2.1c8.8,3.2,11.9,9.5,7.9,18.1c-2.7,5.9-6.4,11.9-11,16.5c-9.6,9.6-19.7,18.8-30.3,27.4
		c-10,8.1-20.7,15.2-32.5,21.4c2-3.5,4.1-7.1,6.1-10.6c1-1.7,1.9-3.5,2.7-5.4c7.1-16.7,1.2-27.8-16.8-31.4
		c-14.6-3-29.2-1.4-43.6,0.9c-9.8,1.6-19.4,4-29.1,6.1C1944.6,1249.3,1944.4,1249,1944.2,1248.7z"/>
	<path class="st0" d="M2904.5,752.8c2.7-2.2,3.6-3.2,4.8-3.9c36.1-20.5,74-36.3,115.5-41.4c8.7-1.1,18-0.4,26.6,1.3
		c10.6,2.1,13.9,9.8,9.3,19.7c-2.4,5-5.6,9.9-9.3,14.1c-17.5,19.9-38.9,35.1-60.8,49.6c-0.4,0.2-1.1-0.1-2.6-0.3
		c1-1.9,1.8-3.5,2.7-5.1c1.7-3.2,3.7-6.3,5.2-9.6c7.5-17,2.3-28-15.9-31.7c-17.5-3.5-35.1-1.4-52.4,2.1
		C2920.5,749,2913.5,750.7,2904.5,752.8z"/>
	<path class="st0" d="M2026.5,791.3c2.2-4,4.8-7.9,6.4-12.1c1.8-4.6,3.4-9.4,4.1-14.2c1-7.4-2.5-13.3-9.2-16.1
		c-5.7-2.4-12-4-18.2-4.6c-20.1-1.8-39.8,1.7-59.2,6.7c-1.8,0.5-3.7,0.8-5.9,0.3c1.3-1,2.5-2.1,3.9-2.9
		c35.6-20.2,72.9-35.7,113.8-40.8c8.7-1.1,18-0.7,26.7,1c11.7,2.2,14.9,10.1,9.7,20.9c-1.7,3.6-3.9,7-6.4,10.1
		c-18.1,21.7-41.1,37.5-64,53.3C2027.5,792.4,2027,791.9,2026.5,791.3z"/>
	<path class="st0" d="M1785.6,294.9c3-5.9,6.5-11.5,9-17.6c5.9-14.8,0.8-24.8-14.6-28.7c-17.2-4.3-34.4-2.1-51.5,1
		c-8.1,1.5-16.2,3.5-24.8,4.3c2.3-1.5,4.5-3.1,6.9-4.4c31.8-17.9,65.3-31.7,101.4-37.8c10.7-1.8,21.8-1.2,32.7-1.3
		c2.5,0,5.2,1,7.6,2.1c7.4,3.3,10.3,8.7,7.1,16.1c-2.8,6.3-6.3,12.7-11.1,17.5c-10.8,10.8-22.4,20.9-34.2,30.6
		c-8.7,7.1-18.2,13.2-27.4,19.8C1786.3,295.8,1786,295.4,1785.6,294.9z"/>
	<path class="st0" d="M1544.6,295.6c3.1-5.8,6.7-11.4,9.2-17.5c6.5-15.7,1.3-25.8-15.3-29.8c-16.6-4-33.1-1.7-49.6,1
		c-7.8,1.3-15.5,3.4-25.8,5.6c3.3-2.7,4.7-4.1,6.3-5.1c32.1-18.2,65.8-32.1,102.3-38.3c10.7-1.8,21.8-1.2,32.7-1.2
		c2.9,0,5.9,1.2,8.5,2.5c5.9,2.9,8.1,7.6,6.4,14c-0.9,3.5-2.4,7-4.4,9.9c-3.4,4.9-7.2,9.6-11.3,13.9
		C1586.4,268.5,1566.2,282.6,1544.6,295.6z"/>
	<path class="st0" d="M2987.6,460.9c3.1-5.9,6.6-11.5,9.1-17.7c6-14.9,1-24.7-14.4-28.8c-13.1-3.5-26.4-2.8-39.6-0.9
		c-11.8,1.7-23.4,4.3-36.8,6.8c2.9-2.2,4.5-3.7,6.3-4.7c31.5-17.8,64.6-31.4,100.3-38c11.7-2.2,23.6-4.1,35.6-1.5
		c14.3,3.1,18.3,11.2,11.1,23.9c-2.3,4-5.1,7.8-8.2,11.3C3032.9,431.7,3010.8,447,2987.6,460.9z"/>
	<path class="st0" d="M1785.5,1290.1c3.3-6.8,7.3-13.4,9.8-20.6c4.4-12.4,0.1-20.8-12.2-25.1c-10.2-3.5-20.9-4.4-31.5-3
		c-16.1,2.2-32,5-47.8,7.5c1-0.8,2.4-2,4-2.9c34.3-19.7,70.5-34.5,109.8-40.5c7.8-1.2,15.9-1.1,23.9-0.8c4.2,0.2,8.5,1.5,12.4,3.3
		c6,2.8,8.3,8,6,14.1c-1.9,5.2-4.5,10.6-8.2,14.7c-8.5,9.3-17.5,18.3-27.2,26.4c-12.2,10.1-25.4,19.1-38.1,28.6
		C1786.1,1291.2,1785.8,1290.6,1785.5,1290.1z"/>
	<path class="st0" d="M101.9,627.1c1.8-3,3.6-6,5.3-9.1c13.5-23.5,5.9-37.8-21-39.6c-17.8-1.2-35.2,1.1-52.5,5.2
		c-3.8,0.9-7.7,1.9-13.6,3.3c2.5-2.3,3.3-3.5,4.5-4.1c36.2-20.5,74.1-36.4,115.8-41.1c8.4-1,17.4-0.4,25.7,1.3
		c10.5,2.1,13.8,9.8,9.4,19.7c-1.9,4.2-4.5,8.2-7.5,11.8C149.7,596.4,126.3,612.1,101.9,627.1z"/>
	<path class="st0" d="M342.2,627.4c2.5-4.4,4.9-8.3,7-12.2c10.9-20.9,3.8-34.2-19.8-36.5c-18.7-1.9-37.2,0.6-55.4,5.1
		c-3.8,0.9-7.6,1.9-12.1,1.8c1.6-1.2,3.1-2.6,4.9-3.6c31.4-17.9,64.5-31.5,100.2-38.3c12.1-2.3,24.3-4.2,36.6-1.4
		c14.3,3.2,18.1,11.2,10.6,24c-3.2,5.4-7.2,10.4-11.5,15c-17.1,17.9-37.1,32.3-57.7,45.9C344.5,627.2,343.8,627.1,342.2,627.4z"/>
	<path class="st0" d="M1305,792.1c3.2-6.4,6.5-11.9,8.8-17.7c5.6-14.5,0.9-24-14.1-28.2c-14.1-3.9-28.4-2.7-42.6-0.7
		c-11.1,1.6-22.1,4.3-34.5,6.8c1.9-1.7,2.8-2.8,3.9-3.5c35.9-20.4,73.5-36.1,114.8-41.2c8.7-1.1,18-0.5,26.7,1.1
		c11.2,2.1,14.5,10,9.4,20.3c-2.6,5.3-6.1,10.3-10.1,14.7c-17.3,19.2-38.2,34.1-59.6,48.3C1307.2,792.3,1306.5,792.1,1305,792.1z"/>
	<path class="st0" d="M742.7,585.4c1.8-1.3,3.5-2.8,5.4-3.9c31.5-17.8,64.6-31.4,100.3-38.1c12.1-2.3,24.3-4.1,36.6-1.2
		c13.4,3.1,17.3,10.8,10.6,22.6c-3.7,6.6-8.6,12.7-13.9,18.1c-17,17.5-36.9,31.4-59,46.3c1.8-3.8,2.6-5.6,3.5-7.5
		c2.9-6.3,6.5-12.4,8.4-19.1c2.5-8.7-1-16.2-9.3-19.7c-5.7-2.4-12-4-18.2-4.5c-17.7-1.5-35.2,1-52.4,5.3c-3.8,0.9-7.6,1.8-11.5,2.6
		C743,586,742.9,585.7,742.7,585.4z"/>
	<path class="st0" d="M2665.7,1082.8c1.1-0.8,2.3-1.9,3.7-2.7c34.6-19.9,71.1-34.9,110.8-40.5c9.7-1.4,20-1.1,29.7,0.6
		c11.9,2.1,15.2,10,9.8,20.7c-2.5,5-5.8,9.8-9.6,13.9c-17.7,19.8-39.2,35-61.1,49.5c-0.4,0.3-1.2-0.1-2.4-0.2c1.8-3,3.7-5.6,5.1-8.5
		c2.1-4.2,4.4-8.3,5.7-12.7c3.6-11.9-0.5-21-12.5-24.2c-9.5-2.5-19.8-3.8-29.5-3C2699,1077.1,2682.6,1080.3,2665.7,1082.8z"/>
	<path class="st0" d="M1463.7,586.6c1.1-1.7,1.2-2.1,1.4-2.3c37.8-22.6,78-38.6,122.1-43.2c6.5-0.7,13.3,0,19.8,1.3
		c12.7,2.6,16.4,10.6,10.1,22.1c-3.3,6-7.7,11.7-12.5,16.7c-17.1,17.9-37.1,32.2-57.7,45.8c-0.4,0.3-1.1,0.1-2.5,0.2
		c1.7-2.9,3.3-5.3,4.5-7.8c2.4-5.1,5.1-10.1,6.6-15.5c2.9-10.2-0.7-17.8-10.6-21.7c-5.5-2.1-11.5-3.4-17.4-3.8
		c-17.4-1.3-34.5,1.1-51.4,5.2C1472.4,584.6,1468.6,585.5,1463.7,586.6z"/>
	<path class="st0" d="M583,460.8c2.3-4,4.9-7.8,6.8-11.9c1.9-4.2,3.7-8.6,4.5-13.1c1.6-8.7-1.4-15.4-9.6-18.7
		c-6.3-2.6-13.4-4.1-20.2-4.6c-18.8-1.4-37.1,2-55.2,6.6c-1.9,0.5-3.8,1-6.3,0.4c1.5-1.2,3-2.7,4.7-3.7
		c31.7-18,65.2-31.7,101.2-38.3c11.4-2.1,22.9-3.9,34.7-1.4c14.8,3.1,18.9,11.5,11,24.5c-3.4,5.6-7.7,10.9-12.3,15.6
		C624.9,434.1,604.8,448.3,583,460.8z"/>
	<path class="st0" d="M1784.7,1124.8c2.3-4,4.6-7.5,6.5-11.3c1.8-3.5,3.5-7.2,4.6-11c3.3-11.3-0.7-20.5-12.1-23.5
		c-9.8-2.6-20.4-3.9-30.4-3.2c-16.4,1.2-32.7,4.6-48.9,7c1.1-0.8,2.4-2.2,3.9-3c34.6-19.8,71.1-34.8,110.8-40.3
		c9.7-1.3,20-0.9,29.6,0.9c11.4,2.1,14.8,9.9,9.6,20.1c-3.3,6.4-7.8,12.4-12.8,17.7c-17.2,18.3-37.6,32.7-58.4,46.5
		C1786.7,1124.9,1786,1124.7,1784.7,1124.8z"/>
	<path class="st0" d="M2506.3,627.1c2.2-3.9,4.6-7.8,6.7-11.8c11.1-21,4.2-34.2-19.4-36.7c-20.1-2.1-39.8,0.9-59.3,5.9
		c-2.5,0.6-5.1,1.3-9.8,2.4c2.6-2.4,3.4-3.5,4.6-4.2c36.2-20.5,74.1-36.3,115.8-41.1c8.4-1,17.4-0.4,25.7,1.3
		c10.5,2.1,13.8,9.9,9.3,19.7c-1.9,4.2-4.5,8.2-7.5,11.8C2554,596.3,2530.7,612.1,2506.3,627.1z"/>
	<path class="st0" d="M2747.3,626.6c3.1-6.2,6.8-12.2,9.2-18.7c5.3-13.9,0.4-23.4-14-27.4c-13.7-3.9-27.8-2.9-41.6-0.9
		c-11.5,1.6-22.8,4.3-35.5,6.8c1.9-1.7,2.7-2.8,3.9-3.5c36.2-20.5,74.1-36.3,115.7-41.1c7.8-0.9,16-0.6,23.7,0.8
		c13.3,2.4,16.7,10.6,10.4,22.7c-1.5,2.9-3.4,5.8-5.5,8.3C2795.2,595.8,2771.6,611.8,2747.3,626.6z"/>
	<path class="st0" d="M1704.7,419.1c1.6-1.1,3.1-2.2,4.8-3.2c32-18.2,65.8-31.9,102.2-38.6c11.4-2.1,23-3.7,34.7-1.1
		c13.9,3.1,18,10.9,10.9,23.2c-3.6,6.3-8.3,12.1-13.3,17.3c-16.5,17.1-35.8,30.8-55.5,43.9c-0.7,0.5-1.6,0.5-3.8,1.2
		c2-3.5,3.6-5.9,4.9-8.5c2.2-4.5,4.7-8.9,6.2-13.6c3.7-11.8-0.5-20.4-12.4-24.3c-5.6-1.8-11.7-2.7-17.6-3.1
		c-18.5-1.1-36.4,2.3-54.3,6.6c-2.1,0.5-4.2,0.8-6.3,1.3C1705,419.9,1704.8,419.5,1704.7,419.1z"/>
	<path class="st0" d="M3146.6,585.6c1.7-1.3,2.7-2.3,3.8-2.9c36.2-20.5,74.1-36.3,115.8-41c8.1-0.9,16.7-0.4,24.7,1.1
		c11.6,2.2,15,10.1,9.9,20.9c-1.5,3.3-3.5,6.5-5.8,9.3c-18.4,22.8-42.4,38.7-67.3,54.1c2.2-3.9,4.6-7.8,6.6-11.8
		c11-21,4.1-34.2-19.6-36.6c-20.1-2.1-39.8,1-59.3,5.9c-2.2,0.6-4.5,1.1-6.8,1.7C3148.4,586.3,3148.1,586,3146.6,585.6z"/>
	<path class="st0" d="M1063.4,1124.4c1.7-2.7,3.7-5.4,5.1-8.3c2.3-4.8,4.9-9.5,6.3-14.6c2.8-10.5-1.1-19.3-11.5-22.1
		c-9.8-2.7-20.4-4.2-30.4-3.6c-14.5,1-28.9,4.3-43.3,6.7c-2.2,0.4-4.4,1-8.7,1.9c3.2-2.4,4.6-3.7,6.2-4.7
		c34.4-19.6,70.5-34.6,110-40.1c9.7-1.4,20-1.2,29.7,0.5c12.4,2.1,15.9,10.4,9.8,21.4c-3.9,6.9-9,13.3-14.5,18.9
		C1105,1098.1,1084.9,1111.9,1063.4,1124.4z"/>
	<path class="st0" d="M342.7,1124c2.8-5.2,6.1-10.2,8.5-15.7c7.4-16.7,1.5-28-16.5-31.5c-14.3-2.8-28.5-1.6-42.7,0.7
		c-10.1,1.7-20.1,4.1-31.4,6.4c1.9-1.7,2.8-2.8,4-3.5c34.9-20.1,71.6-35.3,111.7-40.9c9.7-1.4,20-1,29.7,0.8
		c11.8,2.1,14.9,10.1,9.5,20.9c-2.4,4.7-5.5,9.2-9,13.1C388.4,1094.8,366.2,1110,342.7,1124z"/>
	<path class="st0" d="M2264.6,1623.8c2.7-4.5,4.4-6.9,5.6-9.4c2.4-5.1,5.2-10.1,6.6-15.5c3-10.7-0.8-18.5-11.3-22.2
		c-6.8-2.3-14.2-3.5-21.4-3.9c-17.1-0.8-33.7,2.5-50.3,6.5c-2.9,0.7-5.7,1.5-10.8,2.8c2.8-2.3,3.7-3.4,4.9-4.1
		c33.6-19.5,69.1-34.1,107.6-40.4c9.1-1.5,18.5-1.2,27.8-1.1c3.5,0,7.2,1.2,10.5,2.7c6.1,2.7,8.6,7.3,6.8,13.8
		c-1.3,4.7-3.4,9.6-6.5,13.2c-7.4,8.5-15,17-23.6,24.2c-12.8,10.6-26.5,20.1-39.8,30C2269.5,1621.3,2268.1,1621.8,2264.6,1623.8z"/>
	<path class="st0" d="M1545.7,1123.9c3.4-7.8,7.3-14.8,9.7-22.3c3.3-10.5-0.6-19.2-11.1-22.1c-9.7-2.7-20.4-4.4-30.4-3.7
		c-16.8,1.2-33.4,4.6-49.9,7c0.7-0.5,1.8-1.8,3.2-2.6c34.6-19.8,71.1-34.8,110.8-40.6c8.5-1.2,17.4-1.5,25.8-0.4
		c16.1,2,20.3,11.5,11.9,25.3c-2.7,4.5-6.1,8.8-9.7,12.6c-17.2,18.4-37.5,32.9-58.3,46.7C1547.4,1124.2,1546.7,1123.9,1545.7,1123.9
		z"/>
	<path class="st0" d="M2266.8,957.5c2.7-5.2,5.8-10.3,8.1-15.7c6.8-16.1,1.6-26.6-15.6-30.4c-13.8-3.1-27.9-2.1-41.7,0.1
		c-10.8,1.7-21.4,4.3-33.6,6.8c2.2-1.8,3.4-3.1,4.8-3.9c35-20,71.7-35.2,111.9-40.5c9.4-1.2,19.3-0.9,28.7,0.8
		c11.7,2.1,14.8,10.1,9.5,21c-2,4.1-4.7,8.1-7.7,11.6C2313.1,928,2290.7,943.5,2266.8,957.5z"/>
	<path class="st0" d="M1064.3,626.6c3.1-6.2,6.8-12.2,9.2-18.7c5.3-13.9,0.4-23.4-14-27.4c-13.7-3.9-27.8-2.9-41.6-1
		c-11.5,1.6-22.7,4.3-35.5,6.8c1.8-1.7,2.7-2.8,3.8-3.4c36.2-20.5,74-36.3,115.7-41.1c7.8-0.9,16-0.6,23.7,0.8
		c13.4,2.4,16.8,10.5,10.4,22.7c-1.5,2.9-3.4,5.8-5.5,8.3C1112.3,595.8,1088.6,611.7,1064.3,626.6z"/>
	<path class="st0" d="M1544.8,129.4c3.1-5.9,6.7-11.5,9.2-17.6c6.1-15.1,0.8-25.4-15-29.2c-16.5-4-33.1-1.9-49.5,0.9
		c-8.5,1.5-16.8,3.6-27.1,5.9c2.2-1.9,3.1-2.9,4.2-3.6c33-19.2,67.9-33.7,105.7-40.1c10-1.7,20.5-1.3,30.8-1.4
		c3.2,0,6.6,1.2,9.5,2.5c6.5,2.9,8.9,7.8,6.7,14.6c-1.4,4.3-3.4,8.8-6.3,12.3c-6.2,7.4-12.7,14.6-19.8,21
		C1578.5,108.2,1562.3,119.8,1544.8,129.4z"/>
	<path class="st0" d="M2024.2,1457.8c3.2-5.4,5.4-8.6,7-12.1c2.1-4.5,4.4-9.1,5.4-13.9c2.2-10.6-1.8-17.4-11.8-21.3
		c-11.5-4.3-23.5-4.9-35.5-3.2c-13.2,1.9-26.2,4.6-39.3,7c-1.8,0.3-3.6,0.8-5.9,0.1c1.3-0.9,2.5-2,3.9-2.8
		c34-19.6,69.9-34.2,108.9-40.4c8.5-1.3,17.3-0.8,25.9-0.9c2,0,4,0.5,5.9,1c11.6,3.3,15.2,10.5,9.7,21.1
		c-2.9,5.5-6.6,10.9-10.9,15.4c-7.1,7.4-14.7,14.6-22.7,21c-10.6,8.5-21.9,16.3-32.9,24.4
		C2030.2,1454.7,2028.2,1455.6,2024.2,1457.8z"/>
	<path class="st0" d="M2185.9,419.2c0.7-0.7,1.3-1.5,2.1-2c37.3-21.3,76.5-37.5,119.6-41.8c7.5-0.7,15.4,0,22.7,1.7
		c9.9,2.2,13.7,9.9,9.1,19.1c-3.3,6.8-7.9,13.1-13.1,18.7c-17.4,18.6-38.1,33-60.2,46.4c1.1-2.1,2.3-4.2,3.3-6.4
		c2.6-5.7,5.8-11.3,7.5-17.3c2.7-9.8-0.8-17.3-10.2-21c-6.1-2.4-12.8-3.7-19.3-4.1c-18.8-1.3-37.1,2.1-55.2,6.6
		c-1.9,0.5-3.8,0.9-5.7,1.4C2186.3,420.1,2186.1,419.7,2185.9,419.2z"/>
	<path class="st0" d="M1463.4,1747.2c0.3-1.1,0.3-1.6,0.5-1.7c38.5-22.6,78.9-39.7,124-43.5c6.8-0.6,14.1-0.1,20.7,1.5
		c10.6,2.5,14,9.9,9.4,19.7c-2.5,5.3-6,10.4-9.9,14.8c-18,20.3-40.2,35.5-63.7,49.8c2.3-4.1,4.8-8.2,7-12.4
		c10.4-20.2,4.9-31.8-17.3-35.7c-18.7-3.3-37.1,0-55.3,4C1473.8,1744.7,1468.8,1746,1463.4,1747.2z"/>
	<path class="st0" d="M22.2,253c1-0.8,2-1.7,3.1-2.3c32.6-18.6,66.9-32.9,104.1-39.2c10.4-1.8,21.1-1.2,31.7-1.3
		c2.9,0,5.9,1.1,8.6,2.3c6.9,3.1,9.6,8.4,6.8,15.4c-2.2,5.5-5.1,11-9,15.4c-7.6,8.4-15.7,16.4-24.3,23.6
		c-11,9.1-22.9,17.2-34.4,25.7c-1.7,1.3-3.7,2.2-6.5,2.2c1.6-2.8,3.4-5.4,4.7-8.3c2.2-4.8,4.8-9.6,6.1-14.7c2.6-9.7-1-17.5-10.4-21
		c-6.4-2.4-13.5-3.8-20.3-4.2c-18.4-1.2-36.4,2.3-54.3,6.7c-1.9,0.5-3.8,0.8-5.6,1.3C22.4,254.1,22.3,253.6,22.2,253z"/>
	<path class="st0" d="M1223.1,1580.3c1-0.7,1.9-1.6,3-2.2c33.9-19.7,69.8-34.4,108.7-40.7c8.8-1.4,17.9-0.9,26.9-0.9
		c2.9,0,5.9,0.9,8.7,1.9c8.4,3.2,11.6,9.2,8,17.4c-2.6,6-6.2,12.1-10.8,16.6c-11.4,11.1-23.4,21.7-35.8,31.8
		c-8.3,6.9-17.6,12.6-27.7,17.6c1.1-1.8,2.2-3.7,3.3-5.5c1.9-3.5,4.1-6.9,5.7-10.5c7.1-16.5,1.6-27.9-15.9-30.9
		c-10-1.7-20.6-2.1-30.7-1.2c-12.5,1.2-24.8,4.4-37.2,6.7c-1.9,0.4-3.7,0.8-5.6,1.2C1223.4,1581,1223.2,1580.6,1223.1,1580.3z"/>
	<path class="st0" d="M2506.8,294.9c2.8-5.2,5.9-10.2,8.3-15.6c7.3-16.7,2.1-27-15.6-31c-16.6-3.8-33.1-1.6-49.6,1.4
		c-7.8,1.4-15.5,3.3-23.7,3.9c1.8-1.3,3.4-2.7,5.3-3.7c31.8-18,65.2-31.8,101.4-38c10.7-1.8,21.8-1.3,32.7-1.4
		c2.9,0,5.9,1.1,8.6,2.3c6.9,3.2,9.5,8.5,6.5,15.5c-2.5,6-5.9,12.1-10.3,16.8c-8.7,9.2-17.9,17.9-27.7,25.8
		c-11.1,9-22.9,17.1-34.4,25.5C2507.8,295.9,2507.3,295.4,2506.8,294.9z"/>
	<path class="st0" d="M1064,1455.3c1.3-2.1,2.7-4.2,3.8-6.4c2.2-4.5,4.8-8.8,6.3-13.5c4.1-12.4,0.1-21.2-12.3-25
		c-6.9-2.1-14.3-3.2-21.5-3.4c-16.4-0.4-32.4,2.6-48.3,6.5c-3.2,0.8-6.4,1.6-11.6,3c3-2.4,4.3-3.6,5.8-4.4
		c33.7-19.4,69.2-34.1,107.8-40.3c8.8-1.4,17.9-1.1,26.8-1.2c2.9,0,5.9,0.8,8.7,1.9c9.1,3.3,11.9,9.1,8.3,18
		c-1.6,4-3.8,7.9-6.5,11.2c-5.1,6.1-10.2,12.4-16.4,17.4c-15,12.2-30.5,23.6-45.8,35.3c-1.2,0.9-2.7,1.4-4.1,2.1
		C1064.6,1456,1064.3,1455.7,1064,1455.3z"/>
	<path class="st0" d="M2426,419.2c1.6-1.1,3.1-2.3,4.7-3.3c32-18.2,65.8-31.9,102.1-38.6c11.4-2.1,23-3.8,34.7-1.1
		c13.9,3.1,17.9,10.8,11.1,23.1c-2.9,5.2-6.5,10.1-10.6,14.4c-17.4,18.6-37.9,33.4-59,47.3c-0.4,0.3-1.1,0.1-2.6,0.2
		c2.3-4.1,4.4-7.7,6.4-11.3c11.4-21.4,4.5-34.6-19.7-37.1c-18.4-1.9-36.5,0.6-54.4,4.9c-4.1,1-8.1,1.8-12.2,2.8
		C2426.3,420,2426.1,419.6,2426,419.2z"/>
	<path class="st0" d="M2987.2,295.2c1.6-2.7,3.1-5.1,4.5-7.7c1.8-3.5,3.9-7,5.2-10.7c5.4-14.4,0.4-24.2-14.3-28.2
		c-12.8-3.4-25.8-3-38.6-1.1c-12.1,1.8-24.1,4.3-37.6,6.8c2.5-2,3.8-3.3,5.3-4.2c32-18.2,65.8-32,102.1-38.6
		c11.1-2,22.4-3.4,33.7-1.3c14.8,2.7,19.1,11.3,11.5,24.4c-3,5.1-6.8,9.9-10.9,14.2c-17.3,18.3-37.6,32.7-58.4,46.6
		C2989.3,295.7,2988.5,295.4,2987.2,295.2z"/>
	<path class="st0" d="M1064.2,295.3c1.8-3.5,2.8-5.4,3.8-7.3c1.9-3.9,4.2-7.6,5.6-11.7c5.1-14,0.3-23.6-13.9-27.6
		c-12.7-3.6-25.7-2.9-38.7-1.3c-6.6,0.8-13.2,1.9-19.7,3.2c-6.2,1.2-12.2,2.9-18.9,3.4c2-1.3,3.9-2.8,5.9-4
		c32.1-18.2,65.8-32,102.3-38.6c11.1-2,22.4-3.4,33.7-1.2c14.4,2.7,18.8,11.1,11.5,23.6c-3.7,6.3-8.4,12-13.4,17.3
		c-15.8,16.4-34.3,29.5-53,42.3C1068.3,294.1,1067.1,294.3,1064.2,295.3z"/>
	<path class="st0" d="M823.9,294.6c2.9-5.6,6.3-10.9,8.7-16.7c6.2-15.3,1.1-25.3-14.8-29.4c-12.5-3.2-25.1-2.7-37.7-0.9
		c-12.1,1.8-24.1,4.3-37.5,6.8c2.1-1.9,3.3-3.2,4.7-4c32.3-18.4,66.3-32.5,103.1-38.8c10.7-1.8,21.8-1.2,32.7-1.2
		c2.9,0,5.9,1.2,8.5,2.5c6.3,3.1,8.8,8.2,6.2,14.8c-2.1,5.5-5,11.1-8.8,15.4c-7,7.9-14.5,15.6-22.7,22.3
		c-13.3,10.8-27.3,20.8-40.9,31.1C824.9,295.9,824.4,295.2,823.9,294.6z"/>
	<path class="st0" d="M3226.9,1291.4c2.5-4.3,3.9-6.4,5-8.6c2.2-4.5,4.7-8.9,6.2-13.6c4-12.4-0.2-20.7-12.7-24.9
		c-10.2-3.5-20.9-4.3-31.6-2.8c-15.8,2.2-31.4,4.9-47.1,7.4c1.1-0.9,2.4-2.3,4-3.2c34-19.5,69.9-34.1,108.9-40.1
		c7.8-1.2,15.9-1.2,23.9-1c4.2,0.1,8.6,1.4,12.4,3.1c6.4,2.9,8.7,8.1,6.3,14.8c-1.8,4.9-4.3,9.9-7.6,13.9
		c-5.5,6.6-11.3,13.2-18,18.6c-14.2,11.5-29,22.3-43.6,33.3C3231.9,1289.2,3230.4,1289.7,3226.9,1291.4z"/>
	<path class="st0" d="M502.9,253.2c1.6-1.1,3.1-2.3,4.7-3.2c32.1-18.2,65.8-31.9,102.2-38.5c11.1-2,22.4-3.3,33.7-1.1
		c14.2,2.7,18.4,11.2,11.3,23.9c-2.3,4-5.1,7.9-8.1,11.3c-18.1,20.3-40.2,35.6-63.7,49.8c2.2-3.9,4.4-7.7,6.5-11.6
		c10.8-20.7,4.6-33.3-18.6-36.6c-15-2.1-29.9-0.4-44.7,2.4c-7.7,1.5-15.3,3.2-22.9,4.9C503.3,254,503.1,253.6,502.9,253.2z"/>
	<path class="st0" d="M2747.1,1289.8c3-5.6,6.4-10.9,8.8-16.7c6.7-15.9,0.9-26.6-16-30.3c-14.9-3.3-29.9-1.7-44.7,0.7
		c-9.8,1.6-19.5,4-30.4,6.3c2-1.7,2.9-2.9,4.1-3.6c34.3-19.8,70.5-34.6,109.8-40.7c7.8-1.2,15.9-1.1,23.9-1c3.6,0,7.3,1,10.7,2.3
		c8.3,3.2,11.2,9.3,7.5,17.6c-2.5,5.7-6,11.3-10.2,15.8c-8,8.4-16.4,16.6-25.5,23.9c-11.8,9.6-24.4,18.2-36.6,27.3
		C2748,1290.9,2747.5,1290.4,2747.1,1289.8z"/>
	<path class="st0" d="M823.8,1289.4c0.9-1.6,1.8-3.2,2.6-4.7c1.9-3.5,4-6.9,5.6-10.6c7.3-16.9,1.5-27.9-16.5-31.4
		c-18.4-3.6-36.5-0.7-54.5,2.8c-6.5,1.3-12.8,3-21.4,5.1c3.4-2.5,4.9-3.8,6.6-4.8c34-19.5,69.9-34.2,108.9-40.2
		c7.8-1.2,15.9-1.2,23.9-1c4.2,0.1,8.6,1.3,12.5,3c6.4,2.8,8.9,8.1,6.4,14.7c-2.1,5.5-4.9,11.2-8.8,15.4
		c-8.8,9.4-18.2,18.5-28.1,26.8c-9.9,8.3-20.8,15.5-31.3,23.1c-1.5,1.1-3.2,1.8-4.8,2.7C824.5,1290,824.2,1289.7,823.8,1289.4z"/>
	<path class="st0" d="M260.9,1249c1.7-1.2,3-2.3,4.4-3.1c34.1-19.5,69.9-34.2,108.9-40.3c7.8-1.2,15.9-1.2,23.9-1
		c3.9,0.1,8,1.1,11.6,2.6c7.3,2.9,10.3,8.9,7.2,16.2c-2.8,6.3-6.4,12.7-11.2,17.5c-10.6,10.6-21.9,20.5-33.4,30
		c-9,7.4-18.8,13.7-29.6,19.4c0.9-1.8,1.9-3.6,2.8-5.4c2.7-5.7,6.2-11.2,7.9-17.2c3.2-11.1-1.1-18.9-11.9-22.9
		c-10.5-3.9-21.5-4.7-32.5-3.3C293.1,1243.6,277.4,1246.3,260.9,1249z"/>
	<path class="st0" d="M1063.9,460.7c2-3.4,4.2-6.6,5.8-10.1c2.1-4.5,4.3-9.1,5.3-13.9c2-9.5-1.5-16.6-10.6-20.1
		c-6.1-2.3-12.8-3.7-19.3-4.1c-18.8-1.3-37.1,2.1-55.3,6.6c-1.9,0.5-3.8,1-6.3,0.4c1.3-1.1,2.4-2.4,3.8-3.2
		c32-18.3,65.7-32.1,102.1-38.9c11.4-2.1,23-4.1,34.7-1.3c2.9,0.7,5.9,1.4,8.5,2.8c6.1,3.3,8.4,8.6,5.5,15.2
		c-2.6,6-6,12.1-10.5,16.8c-9.7,10-20.1,19.4-30.9,28.3c-10,8.2-20.9,15.4-31.4,23C1064.9,461.7,1064.4,461.2,1063.9,460.7z"/>
	<path class="st0" d="M102.5,460.6c2.9-5.5,6.3-10.9,8.7-16.6c6.6-15.7,1.4-25.8-15.2-29.8c-17.2-4.1-34.4-1.8-51.5,1.3
		c-7.4,1.4-14.8,3.2-24.5,5.4c3.2-2.6,4.4-3.9,5.9-4.7c32-18.3,65.7-32,102-38.8c11.4-2.1,23-4.1,34.6-1.3c2.2,0.5,4.6,1,6.7,2
		c7.4,3.3,10.2,8.7,7,16.1c-2.6,6-6,12.1-10.4,16.8c-8.7,9.1-18,17.8-27.7,25.8c-11,9-22.9,17-34.4,25.4
		C103.4,461.7,102.9,461.2,102.5,460.6z"/>
	<path class="st0" d="M3228,294.7c1.9-3.4,4.2-6.6,5.8-10.1c2.1-4.5,4.2-9.1,5.3-13.9c2-8.4-1.1-15.7-9.1-19c-6.6-2.8-14-4.5-21.1-5
		c-18.4-1.4-36.4,2.1-54.3,6.4c-2.2,0.5-4.4,1-7.1,0.3c1.8-1.3,3.5-2.7,5.3-3.8c31.8-17.9,65.2-31.8,101.3-37.9
		c10.7-1.8,21.8-1.3,32.7-1.4c3.2,0,6.5,1.3,9.5,2.8c5.9,2.9,8.4,8,5.9,14.1c-2.4,6.1-5.5,12.4-9.9,17c-9.4,9.9-19.4,19.2-29.9,27.8
		s-21.9,16.2-32.9,24.2C3229.1,295.8,3228.5,295.2,3228,294.7z"/>
	<path class="st0" d="M2746.9,295.1c1.7-3,3.6-5.9,5.2-9c1.7-3.2,3.4-6.5,4.6-9.9c4.9-13.9,0-23.5-14.3-27.4
		c-12.7-3.5-25.8-3-38.6-1.2c-12.1,1.7-24.1,4.3-37.8,6.8c2.7-2.2,4.2-3.6,5.9-4.6c31.8-17.9,65.2-31.8,101.3-38
		c10.7-1.8,21.8-1.3,32.7-1.5c2.9,0,5.9,1.1,8.6,2.3c7.1,3.3,9.8,9,6.5,16.4c-2.7,6-6,12.2-10.7,16.6c-13,12.3-26.7,24-40.5,35.4
		c-6.8,5.6-14.4,10.2-21.6,15.3C2747.8,295.9,2747.3,295.5,2746.9,295.1z"/>
	<path class="st0" d="M583.7,957.4c1.2-2.2,2.6-4.3,3.7-6.6c2.2-4.5,4.8-8.9,6.1-13.6c3.7-12.5-0.8-20.8-13.3-24.7
		c-15-4.7-30.3-3.3-45.5-1.1c-10.8,1.5-21.4,4.2-33.5,6.7c2-1.7,3.1-3,4.4-3.8c34.9-19.9,71.6-35.3,111.8-40.6
		c9.7-1.3,20-0.8,29.6,0.9c10.7,1.9,13.9,9.7,9.2,19.6c-2.5,5.3-6.1,10.4-10,14.8c-17.6,19.8-39.2,34.8-60.9,49.6
		C584.8,958.3,584.2,957.9,583.7,957.4z"/>
	<path class="st0" d="M2988.1,957.4c2.6-4.9,5.6-9.7,7.8-14.7c7.4-16.8,1.7-28-16.4-31.6c-13.5-2.7-27.2-1.8-40.7,0.3
		c-10.8,1.7-21.4,4.3-33.4,6.7c1.9-1.7,2.8-2.8,3.9-3.5c35.2-20.1,72.2-35.6,112.7-41c9.4-1.2,19.3-0.9,28.6,0.8
		c11.7,2.1,14.8,10.1,9.5,21c-1.9,3.8-4.3,7.6-7.1,10.8c-18.1,21.3-40.7,37-63.5,52.5C2989.1,958.3,2988.6,957.9,2988.1,957.4z"/>
	<path class="st0" d="M1304.1,1455.7c1.5-2.5,3.2-4.8,4.5-7.4c2.1-4.1,4.5-8.2,5.9-12.6c4.3-13.2-0.4-22-13.9-26.1
		c-11-3.3-22.3-3.8-33.6-2.1c-14.7,2.2-29.3,4.8-44.3,7.3c1.6-1.2,3-2.5,4.6-3.4c33.5-19,68.6-33.6,106.8-39.7
		c8.8-1.4,17.9-1.1,26.8-1.3c2.6-0.1,5.3,0.7,7.8,1.5c10.4,3.4,13.6,10.2,8.7,20.1c-2.9,5.9-7,11.3-11.3,16.3
		C1353.2,1422.9,1323.6,1446.1,1304.1,1455.7z"/>
	<path class="st0" d="M262.5,253.4c1.8-1.3,3.5-2.8,5.4-3.9c31.8-17.9,65.3-31.5,101.3-38c11.1-2,22.4-3.3,33.7-1.2
		c14.4,2.7,18.6,11,11.5,23.7c-2.9,5.2-6.7,10-10.7,14.3c-17.6,18.9-38.6,33.5-61,47.1c0.9-1.8,1.8-3.6,2.7-5.5
		c2.4-4.8,5.2-9.3,7-14.3c4.8-13.5-0.1-22.9-13.9-26.7c-5.4-1.5-11.1-2.2-16.7-2.4c-17.8-0.9-35.1,2.4-52.3,6.6
		c-2.2,0.5-4.4,0.9-6.6,1.3C262.8,254.1,262.7,253.7,262.5,253.4z"/>
	<path class="st0" d="M2748,459.5c2.7-5.3,5.8-10.4,8-15.8c6.2-15.3,1.2-25.3-14.7-29.4c-13.1-3.4-26.4-2.7-39.6-0.7
		c-11.7,1.7-23.3,4.3-37,6.9c3.3-2.3,4.9-3.8,6.8-4.8c31.7-18,65.1-31.6,101.1-38.2c11.4-2.1,23-4.1,34.6-1.3
		c2.6,0.6,5.2,1.2,7.6,2.4c6.4,3.1,8.7,8.1,6.7,14.8c-1.2,3.7-3,7.5-5.3,10.6c-17.9,24.2-42.7,40.3-66.7,57.2
		C2749.1,460.6,2748.6,460.1,2748,459.5z"/>
	<path class="st0" d="M2025.9,626.6c2.4-4.3,4.3-7.6,6.1-11c11.3-21.3,4-34.8-20.1-37c-18.8-1.7-37.2,0.7-55.4,5.3
		c-3.8,0.9-7.5,1.7-11.8,1.4c1.9-1.3,3.7-2.7,5.6-3.8c31.2-17.6,64-31.1,99.4-37.9c12.1-2.3,24.3-4.3,36.7-1.6
		c14.4,3.1,18.4,11.2,11,23.9c-3.1,5.4-7.2,10.5-11.5,15c-16.6,17.5-36.1,31.5-56,44.8C2029.1,626.2,2028.1,626.1,2025.9,626.6z"/>
	<path class="st0" d="M343.5,459.5c1.7-3.1,3.8-6.1,5.1-9.4c2.1-5.2,4.3-10.5,5.3-15.9c1.4-7.8-2.2-14.1-9.4-16.9
		c-6.4-2.5-13.3-4.2-20.2-4.7c-19.1-1.5-37.7,2-56.1,6.7c-1.9,0.5-3.7,0.9-6.2,0.3c1.1-0.9,2.1-2.1,3.3-2.8
		c32.2-18.4,66.2-32.5,102.8-39.2c11.1-2,22.3-4.1,33.6-1.5c1.9,0.4,4,0.6,5.8,1.3c9.3,3.2,12.8,9.8,8.4,18.7
		c-3.3,6.7-7.6,13.6-13,18.6c-13.7,12.5-28.2,24.2-42.6,35.9c-4.8,3.9-10.2,7.1-15.4,10.7C344.6,460.6,344.1,460.1,343.5,459.5z"/>
	<path class="st0" d="M1303.7,1124.9c2.2-3.6,4-6.3,5.4-9.1c2.2-4.5,4.7-8.9,5.9-13.7c3.1-11.7-1-20.1-12.7-23.2
		c-9.2-2.4-19.1-3.8-28.5-3.1c-14.5,1.1-28.9,4.3-43.3,6.7c-2.5,0.4-4.9,1-9.5,2c3.1-2.3,4.4-3.4,5.8-4.2
		c34.9-20.1,71.8-35.1,111.8-40.8c8.2-1.2,16.7-1.3,24.9-0.3c16.1,2.1,20.4,11.6,11.9,25.3c-3.5,5.6-7.8,10.8-12.4,15.5
		c-16.6,17.1-35.9,30.7-55.5,44C1306.7,1124.5,1305.7,1124.4,1303.7,1124.9z"/>
	<path class="st0" d="M2025.5,1124.5c3.3-6,6.5-11.1,8.9-16.5c7.2-16.6,1-27.8-17.1-31.2c-13.9-2.7-27.9-1.5-41.7,0.7
		c-10.4,1.7-20.7,4.2-32.6,6.7c2.7-2,4.2-3.4,5.8-4.3c34.7-19.8,71.2-34.8,111-40.3c9.4-1.3,19.4-1,28.7,0.7
		c12.3,2.2,15.7,10.4,9.8,21.5c-2.9,5.5-6.8,10.7-11.1,15.3c-17.3,18.7-38,33.3-59.1,47.4
		C2027.6,1124.7,2026.8,1124.5,2025.5,1124.5z"/>
	<path class="st0" d="M1544.9,460.9c2.9-5.5,6.3-10.9,8.7-16.7c6.7-15.9,1.7-25.9-14.9-30c-17.2-4.2-34.4-1.8-51.5,1.2
		c-7.5,1.3-14.8,3.3-22.8,4c1.6-1.2,3.1-2.7,4.9-3.7c31.8-18,65.2-31.7,101.3-38.3c11.4-2.1,23-4.1,34.7-1.2c2.2,0.6,4.6,1.1,6.7,2
		c7,3.2,9.5,8,7.2,15.3c-1.2,3.8-2.9,7.5-5.2,10.7c-4.2,5.6-8.7,11-13.7,15.8C1583.7,436.1,1565,449.3,1544.9,460.9z"/>
	<path class="st0" d="M103,1289.3c3.1-6.6,6.9-13,9.3-19.8c4.3-12.4,0.1-20.8-12.3-25.1c-10.6-3.6-21.6-4.4-32.6-2.8
		c-15.7,2.2-31.4,4.9-46.9,7.4c1.2-0.9,2.6-2.1,4.3-3.1c34.3-19.7,70.6-34.4,109.9-40.5c7.5-1.2,15.3-1,22.9-0.8
		c3.9,0.1,8,1.1,11.6,2.6c7.4,3,10.3,8.8,7.1,16.1c-2.8,6.3-6.2,12.8-11.1,17.5c-12.2,11.8-25.1,22.8-38.2,33.6
		c-7.3,6-15.5,11-23.2,16.4C103.6,1290.3,103.3,1289.8,103,1289.3z"/>
	<path class="st0" d="M1942.2,1581.9c2.8-2,4.2-3.3,5.9-4.3c33.4-19.2,68.5-33.7,106.7-40c9.1-1.5,18.5-1.2,27.8-1.2
		c3.2,0,6.6,1,9.6,2.2c7.8,3.1,11,9.1,7.6,16.7c-2.8,6.3-6.5,12.6-11.3,17.4c-10.6,10.5-21.8,20.4-33.4,29.9
		c-8.9,7.3-18.6,13.5-29.4,18.9c2-3.6,4.2-7.1,6.1-10.7c1.2-2.3,2.4-4.8,3.3-7.3c5.5-14.7,0.3-24.8-14.9-28.6
		c-16.2-4.1-32.4-2.1-48.5,0.7C1962.3,1577.1,1953,1579.5,1942.2,1581.9z"/>
	<path class="st0" d="M2024.9,296c2.1-3.5,3.6-5.9,5-8.4c1.7-3.2,3.5-6.4,4.9-9.8c6.1-15.3,1-25.4-14.8-29.4
		c-12.5-3.2-25.1-2.7-37.7-0.9c-12.1,1.8-24.1,4.3-37.8,6.8c2.8-2.2,4.4-3.7,6.2-4.7c31.8-17.9,65.3-31.6,101.3-38.1
		c11.1-2,22.4-3.4,33.7-1.3c14.8,2.7,19.3,11.4,11.4,24.3c-4.1,6.7-9.4,13-15,18.6c-16.1,16.1-34.5,29.2-53.4,41.8
		C2028.1,295.4,2027.1,295.4,2024.9,296z"/>
	<path class="st0" d="M1303.9,1290.4c2.9-5.1,5.6-9.3,7.8-13.8c9.3-19,3-30.8-17.6-34.3c-14-2.4-27.9-0.9-41.7,1.3
		c-9.8,1.6-19.4,4-30.4,6.3c1.9-1.7,2.8-2.8,4-3.4c34.5-19.9,71-35,110.6-40.9c9.1-1.4,18.7-1.5,27.8-0.4
		c14.9,1.9,19.1,11.3,11.5,24.2c-3.2,5.4-7.2,10.4-11.5,15c-17.1,17.9-37.2,32.2-57.7,45.9
		C1306.2,1290.5,1305.5,1290.3,1303.9,1290.4z"/>
	<path class="st0" d="M2507.2,1289.5c3.2-6.5,6.9-12.9,9.3-19.7c4.6-12.8,0.2-21.3-12.8-25.6c-10.3-3.4-20.9-4.2-31.6-2.7
		c-15.7,2.2-31.4,4.9-47,7.4c1-0.8,2.2-2,3.7-2.9c34-19.5,69.9-34.3,108.9-40.4c8.2-1.3,16.6-1.2,24.9-1.1c3.9,0.1,7.9,1.2,11.5,2.8
		c6.8,2.9,9.4,8.5,6.6,15.5c-2.2,5.5-5,11.1-9,15.3c-9.7,10-19.9,19.7-30.6,28.6c-10.4,8.6-21.8,16.2-32.7,24.2
		C2508,1290.5,2507.6,1290,2507.2,1289.5z"/>
	<path class="st0" d="M2987.3,1621.6c2.9-5.2,6.1-10.3,8.5-15.7c7.5-16.9,1.8-27.7-16.2-31.6c-15.6-3.4-31.1-1.4-46.5,1.2
		c-9,1.5-17.8,3.8-29.1,6.2c3-2.2,3.9-3,5-3.7c33.9-19.7,69.7-34.3,108.5-40.7c8.8-1.4,17.9-1,26.8-1c2.9,0,5.9,0.9,8.7,1.9
		c8.5,3.1,11.6,9,8.3,17.3c-2.2,5.4-5.4,10.8-9.4,15.1c-7.4,8-15.2,15.9-23.7,22.7c-12.8,10.4-26.4,20-39.6,29.9
		C2988.3,1622.7,2987.8,1622.2,2987.3,1621.6z"/>
	<path class="st0" d="M1304.7,294.9c3-5.9,6.6-11.6,9-17.8c5.8-14.8,0.6-24.7-14.8-28.6c-16.9-4.2-33.7-2-50.5,0.9
		c-7.8,1.3-15.5,3.3-23.9,4.1c1.5-1.2,3-2.7,4.7-3.7c32.1-18.2,65.8-32,102.3-38.3c10.4-1.8,21.1-1.1,31.7-1.4
		c2.2,0,4.6,0.7,6.8,1.5c8.9,3.3,12.2,9.5,8.3,18.1c-2.9,6.2-6.7,12.5-11.6,17.2c-12,11.4-24.7,22.2-37.6,32.8
		c-7.3,6-15.5,11.1-23.3,16.5C1305.3,295.8,1305,295.3,1304.7,294.9z"/>
	<path class="st0" d="M582.2,1622.5c1.9-3,3.3-5.1,4.5-7.4c2.2-4.1,4.6-8.1,6.2-12.5c5-13.9,0.1-23.5-14.1-27.5
		c-11.4-3.2-23-3.4-34.6-1.7c-14,2.1-28,4.8-43,7.4c2.7-1.9,4.7-3.4,6.8-4.6c32.6-18.4,66.9-32.5,104.1-38.6
		c9.1-1.5,18.5-1.1,27.8-1.4c2-0.1,4,0.3,5.9,0.8c12,3,16,10.8,10.1,21.6c-3.8,6.9-8.9,13.3-14.3,19c-16.5,17.1-35.8,30.6-55.4,43.8
		C585.2,1622,584.2,1622,582.2,1622.5z"/>
	<path class="st0" d="M503.2,87.1c1.6-1,3.1-2.2,4.8-3.1c32.3-18.3,66.4-32.2,103.1-38.4c9.7-1.6,19.8-1.1,29.8-1.3
		c2.6,0,5.3,0.8,7.7,1.7c8.9,3.3,12.2,9.5,8.2,18c-2.9,6.2-6.9,12.2-11.5,17.3c-17.5,19.4-38.8,34.2-60.4,48.7
		c-0.4,0.3-1.2-0.1-2-0.2c3.1-5.8,6.6-11.4,9.1-17.4c6.5-15.6,1.2-26-15.2-29.9c-16.2-3.9-32.4-1.8-48.5,0.9
		c-8.1,1.3-16.1,3.4-24.2,5.2C503.8,88,503.5,87.6,503.2,87.1z"/>
	<path class="st0" d="M1224.6,1745c1.3-0.9,2.6-1.9,4-2.7c32.7-18.5,67.1-32.6,104.2-38.8c9.4-1.6,19.2-1.1,28.8-1.2
		c2.9,0,5.9,0.9,8.7,1.9c8.4,3.2,11.5,9.2,7.9,17.5c-2.5,5.7-5.9,11.4-10.2,15.8c-9,9.3-18.5,18.2-28.6,26.4
		c-10.8,8.8-22.4,16.6-35.1,23.6c1.8-3.3,3.6-6.5,5.5-9.8c12.5-22.4,5.9-35.7-19.6-38.6c-17.4-2-34.5,0.8-51.5,4.5
		c-4.5,1-9,2.1-13.5,3.1C1225.1,1746.1,1224.9,1745.6,1224.6,1745z"/>
	<path class="st0" d="M2266.7,1123.2c2.5-4.6,5.3-9.1,7.5-13.8c8.3-18,1.8-29.6-17.8-32.9c-13.6-2.3-27.2-1.2-40.7,1
		c-10.4,1.7-20.6,4.2-32.7,6.7c3-2.2,4.5-3.5,6.2-4.4c34.4-19.5,70.5-34.6,109.9-40.1c10-1.4,20.6-1,30.6,0.7
		c11.3,2,14.3,9.8,9.5,20.3c-1.7,3.6-3.8,7.1-6.3,10.1c-18.2,22.1-41.5,37.9-64.7,54C2267.7,1124.3,2267.2,1123.8,2266.7,1123.2z"/>
	<path class="st0" d="M501.5,1083.3c1.5-1.1,2.9-2.4,4.5-3.4c34.6-19.7,71-34.8,110.7-40.3c9.7-1.3,20-1,29.6,0.8
		c11.7,2.1,14.9,10.2,9.4,21c-2.5,5-6,9.6-9.6,13.9c-12.6,14.8-43.4,39.1-62.6,49.8c1.2-2.9,2-4.8,2.8-6.6
		c2.5-5.7,5.9-11.3,7.5-17.3c2.9-10.7-1.1-19-11.8-21.8c-9.8-2.6-20.4-4.1-30.4-3.4c-15.1,1.1-30.1,4.6-45.2,7.2
		c-1.6,0.3-3.1,0.8-4.6,1.2C501.8,1083.9,501.6,1083.6,501.5,1083.3z"/>
	<path class="st0" d="M822.2,463.1c2.6-4.5,4.2-6.9,5.4-9.5c2.4-5.1,5.2-10.1,6.7-15.5c2.9-10.1-0.7-17.9-10.6-21.7
		c-6.1-2.3-12.8-3.6-19.3-4c-18.8-1.3-37.1,2.2-55.2,6.7c-1.9,0.5-3.7,0.9-6.1,0.2c1.4-1.1,2.7-2.4,4.2-3.3
		c32-18.3,65.7-32,102-38.7c11.4-2.1,23-4.2,34.6-1.2c3.2,0.8,6.5,1.7,9.3,3.3c4.8,2.8,6.8,7.4,5,12.8c-1.5,4.7-3.6,9.5-6.6,13.2
		c-6.4,7.6-12.9,15.3-20.6,21.6c-13.8,11.4-28.5,21.8-42.8,32.6C827,460.6,825.6,461.2,822.2,463.1z"/>
	<path class="st0" d="M2988,1123.3c1.4-2.5,2.9-4.9,4.1-7.5c2-4.2,4.4-8.3,5.7-12.7c3.7-12.5-0.5-21.3-13.2-24.5
		c-9.2-2.3-19.1-3.6-28.5-2.8c-14.8,1.2-29.5,4.5-44.2,7c-1.9,0.3-3.8,0.9-7.8,1.8c3.2-2.4,4.6-3.7,6.2-4.7
		c34.6-19.8,71-34.8,110.7-40.3c9.7-1.3,20-1,29.6,0.7c11.8,2.1,14.9,10.1,9.5,20.9c-2.5,5-5.9,9.7-9.6,13.9
		c-17.7,19.7-39.2,34.7-60.9,49.5C2989.1,1124.2,2988.5,1123.7,2988,1123.3z"/>
	<path class="st0" d="M1224.5,87c1.6-1.1,3.2-2.2,4.8-3.1c32.1-18.1,65.9-32,102.4-38.1c9.8-1.6,19.9-1.3,29.8-1.5
		c2.9-0.1,5.9,0.8,8.7,1.9c8.5,3.2,11.5,9.1,8.1,17.4c-2.1,5.1-5.1,10.3-8.9,14.3c-8.5,8.9-17.2,17.7-26.7,25.4
		c-11.8,9.7-24.4,18.3-38.2,26.2c1.3-2.3,2.7-4.6,3.8-7.1c2.6-6.1,5.8-12.1,7.2-18.4c1.9-9.2-1.8-15.8-10.6-19
		c-6.4-2.4-13.5-3.8-20.4-4.2c-18.1-1.1-35.8,2.3-53.3,6.6c-1.9,0.5-3.8,0.9-5.7,1.3C1225.1,88.1,1224.8,87.6,1224.5,87z"/>
	<path class="st0" d="M2907.3,1746.9c0.8-1.8,0.8-2.2,1.1-2.4c37.9-22.2,77.9-38.8,122.2-42.6c6.5-0.6,13.4-0.2,19.8,1.2
		c11.6,2.4,15.3,10.3,10,20.9c-2.6,5.3-6.3,10.2-10.1,14.7c-12.7,14.8-43.6,39.1-63.9,50.4c2.1-3.7,3.7-5.9,4.8-8.3
		c2.7-6,5.9-12,7.4-18.3c2.1-9-1.4-16-10-19.3c-6.7-2.5-14.1-4-21.3-4.5c-17.7-1.2-35.1,2.3-52.2,6.4
		C2912.7,1745.6,2910.5,1746.2,2907.3,1746.9z"/>
	<path class="st0" d="M3227.7,460.9c1.6-2.8,3.5-5.4,4.8-8.3c2.4-5.1,5-10.2,6.4-15.6c2.3-8.7-1-16.3-9.3-19.8
		c-6.3-2.6-13.3-4.2-20.2-4.7c-18.7-1.5-37.1,2-55.2,6.4c-2.2,0.5-4.4,1-7,0.4c1.8-1.3,3.5-2.7,5.4-3.8
		c31.7-18,65.2-31.5,101.1-38.2c11.4-2.1,23-4.1,34.6-1.2c2.6,0.6,5.2,1.2,7.5,2.4c6.3,3.1,8.7,8.1,6.3,14.8
		c-1.8,4.9-4.2,10-7.6,13.8c-7,8-14.3,15.9-22.4,22.6c-13.8,11.4-28.4,21.8-42.6,32.7C3229,462,3228.3,461.5,3227.7,460.9z"/>
	<path class="st0" d="M503.4,1744.9c1.3-0.9,2.6-1.9,4-2.7c32.3-18.3,66.3-32.3,103.1-38.5c9.7-1.6,19.8-1.3,29.7-1.5
		c2.9-0.1,5.9,0.8,8.7,1.9c8.4,3.2,11.4,9,8.1,17.4c-1.9,4.9-4.7,9.7-8.2,13.5c-7.9,8.5-16,16.9-25,24.3
		c-12.8,10.5-26.4,20-39.6,29.9c-0.5-0.5-1-0.9-1.6-1.4c2-3.5,4.2-6.9,6.1-10.5c12.1-21.9,5.7-35-19.2-38.1
		c-17.7-2.2-35.1,0.7-52.4,4.5c-4.5,1-8.9,2-13.4,3.1C503.7,1746.1,503.5,1745.5,503.4,1744.9z"/>
	<path class="st0" d="M2746.9,1621.2c1.5-2.4,3.1-4.7,4.3-7.2c2.2-4.5,4.7-8.9,6.2-13.6c3.7-11.9-0.6-20.1-12.3-24.4
		c-11.5-4.2-23.6-4.3-35.5-2.8c-12.2,1.6-24.2,4.3-36.3,6.4c-1.9,0.3-3.7,0.5-7.9,1c3.4-2.4,4.9-3.7,6.5-4.6
		c32.7-18.4,67-32.4,104.1-38.5c9.1-1.5,18.5-1.2,27.8-1.2c3.5,0,7.3,1.1,10.6,2.6c6.8,3,9.7,8.6,6.9,15.5c-2.3,5.8-5.4,11.8-9.7,16
		c-11.8,11.6-24.2,22.7-36.9,33.3c-8.3,6.9-17.5,12.6-26.3,18.9C2747.9,1622.2,2747.4,1621.7,2746.9,1621.2z"/>
	<path class="st0" d="M2986.5,131.1c4-7.6,7.5-13.2,10-19.3c6.2-15.2,0.9-25.3-15-29.2c-16.5-4-33-1.9-49.5,0.9
		c-8.1,1.4-16.1,3.4-24.6,4c1.8-1.3,3.5-2.7,5.4-3.8c32.1-18,65.8-31.9,102.2-38c9.7-1.6,19.8-1.2,29.8-1.4c2.6-0.1,5.3,0.7,7.7,1.6
		c9.4,3.3,12.6,9.6,8.4,18.8c-2.6,5.6-6.1,11.2-10.4,15.6c-8.3,8.6-17,16.8-26.3,24.3c-10.6,8.6-21.9,16.1-33,24.1
		C2990.2,129.4,2989,129.8,2986.5,131.1z"/>
	<path class="st0" d="M342.6,1621.2c1.5-2.5,3.1-4.8,4.4-7.4c2.1-4.1,4.4-8.3,5.8-12.6c4-12.4-0.1-21.1-12.5-25
		c-6.2-2-13-3-19.5-3.3c-17.1-0.7-33.7,2.5-50.3,6.4c-2.2,0.5-4.4,1-7.3,0.4c1.5-1.2,3-2.7,4.7-3.7c32.4-18.2,66.4-32.2,103.2-38.2
		c9.1-1.5,18.5-1.2,27.8-1.4c2.9-0.1,5.9,0.7,8.7,1.7c9.5,3.3,12.5,9.4,8.6,18.6c-1.9,4.5-4.5,9-7.8,12.6
		c-7.2,7.8-14.5,15.6-22.7,22.4c-13.3,10.9-27.4,20.9-41.1,31.3C343.9,1622.3,343.3,1621.7,342.6,1621.2z"/>
	<path class="st0" d="M342.7,129.1c2.4-4.2,5.1-8.3,7.1-12.8c1.9-4.2,3.5-8.7,4.2-13.2c1.2-8.5-1.9-14.6-9.8-17.7
		c-6.7-2.6-14.1-4.2-21.2-4.7c-17.8-1.3-35.1,2.2-52.3,6.2c-1.9,0.5-3.9,1-5.8,1.4c-0.5,0.1-1-0.4-2.3-1c2-1.3,3.5-2.5,5.1-3.5
		C300,65.6,334,51.7,370.9,45.6c9.7-1.6,19.9-1.2,29.8-1.2c3.2,0,6.6,1.1,9.6,2.5c6.8,3.1,9.5,8.7,6.7,15.6
		c-2.4,5.7-5.5,11.7-9.8,16c-11.3,11.2-23.2,21.9-35.5,32.1c-8.6,7.2-18.2,13.3-27.4,19.9C343.7,130,343.2,129.6,342.7,129.1z"/>
	<path class="st0" d="M2667.3,1744.9c1.6-1.1,3.2-2.2,4.8-3.1c32.1-18.1,65.9-32,102.4-38.1c9.7-1.6,19.9-1.3,29.8-1.5
		c2.9-0.1,5.9,0.9,8.7,1.9c8.5,3.3,11.5,9.2,7.9,17.4c-2.5,5.7-5.8,11.5-10.2,15.8c-11.2,10.9-22.8,21.4-34.9,31.3
		c-8.7,7.2-18.2,13.2-28.8,18.8c1.1-2.1,2.3-4.2,3.3-6.4c2.5-5.1,5.5-10,7.1-15.3c3.5-11.5-0.6-19.8-12-23.6
		c-6.2-2.1-13-3.2-19.5-3.5c-17.8-0.9-35.1,2.4-52.3,6.7c-1.9,0.5-3.8,0.8-5.7,1.3C2667.7,1746.1,2667.5,1745.5,2667.3,1744.9z"/>
	<path class="st0" d="M2025.5,1787.1c1.3-2.1,2.7-4.2,3.8-6.4c1.9-3.5,3.9-7,5.4-10.7c6.1-15.3,1.1-26.3-14.9-29.1
		c-11.3-2-23.2-2.2-34.7-1.3c-11.5,0.9-22.9,4.1-34.3,6.3c-1.6,0.3-3.1,0.4-6.9,0.8c3.6-2.5,5.3-4,7.2-5.1
		c32.2-18,65.9-31.9,102.4-38c9.7-1.6,19.9-1.2,29.8-1.3c2.9,0,5.9,0.9,8.7,2c7.9,3.2,10.9,9,7.6,16.8c-2.6,6-6.1,12.1-10.7,16.7
		c-11.4,11.1-23.4,21.7-35.7,31.9c-8.3,6.9-17.5,12.6-26.4,18.9C2026.5,1788.1,2026,1787.6,2025.5,1787.1z"/>
	<path class="st0" d="M1945.8,87.2c1.6-1.1,3.1-2.3,4.8-3.2c32.4-18.3,66.5-32.2,103.3-38.4c9.4-1.6,19.2-1.2,28.8-1.3
		c2.9,0,6,0.8,8.7,1.9c8.9,3.3,11.8,9.5,7.9,18.2c-2.6,5.7-6.1,11.3-10.4,15.7c-8.8,9-18.1,17.7-27.9,25.7
		c-10.8,8.8-22.4,16.6-35.1,23.8c1-2,2.1-4.1,3-6.1c2.7-6.1,6.2-11.9,7.7-18.3c2.3-10.1-1.6-17.1-11.3-20.5
		c-6.5-2.3-13.6-3.5-20.4-3.9c-17.8-1-35.1,2.4-52.3,6.6c-2.1,0.5-4.2,0.7-6.3,1.1C1946.1,87.9,1946,87.6,1945.8,87.2z"/>
	<path class="st0" d="M343,1787.2c3.1-6.2,6.8-12.2,9.2-18.7c5.3-13.9,0.2-23.6-14-27.5c-12.1-3.4-24.4-3.2-36.7-1.5
		c-12.8,1.8-25.4,4.4-39.8,6.9c2.8-2.2,4.3-3.7,6.1-4.7c32.1-18.1,65.9-31.9,102.4-38.1c9.7-1.6,19.9-1.3,29.8-1.4
		c3.2,0,6.6,1,9.6,2.3c7.3,3.1,10.1,8.8,7.1,16.2c-2.2,5.4-5.2,11.1-9.3,15.2c-10.8,10.8-22.1,21.2-33.8,31
		c-9.4,7.8-19.7,14.4-29.7,21.6C343.7,1788.1,343.4,1787.6,343,1787.2z"/>
	<path class="st0" d="M2747.3,129.1c3-5.9,6.6-11.6,9-17.8c5.8-14.8,0.5-24.8-14.8-28.6c-16.5-4.1-33.1-2-49.6,0.8
		c-8.1,1.4-16.2,3.4-24.7,4.1c1.4-1.1,2.8-2.5,4.3-3.4c32.4-18.4,66.4-32.3,103.3-38.5c9.7-1.6,19.9-1.3,29.8-1.3
		c3.2,0,6.6,1,9.6,2.3c7.3,3.2,10,8.9,6.9,16.3c-2.4,5.7-5.6,11.7-10,15.9c-11.9,11.6-24.4,22.6-37.1,33.2
		c-8.1,6.7-17.1,12.3-25.7,18.4C2748,130,2747.7,129.5,2747.3,129.1z"/>
	<path class="st0" d="M2266,1787.7c3.2-6.1,6.9-12,9.5-18.4c5.8-14.7,0.5-24.7-14.8-28.6c-16.5-4.2-33-2-49.5,0.7
		c-8.1,1.4-16.1,3.4-26.4,5.6c2.9-2.5,4-3.8,5.4-4.6c32.6-18.5,66.9-32.6,104-38.8c9.7-1.6,19.8-1.2,29.8-1.3c3.2,0,6.6,1.1,9.6,2.4
		c6.6,2.9,8.9,7.5,7.1,14.5c-0.9,3.5-2.4,7-4.4,9.9c-3.2,4.6-6.7,9.1-10.6,13.2C2308.2,1760.4,2287.8,1774.6,2266,1787.7z"/>
	<path class="st0" d="M1703.1,1415.1c1.7-1.2,3.2-2.5,4.9-3.4c33.7-19.3,69.2-33.9,107.8-40c8.8-1.4,17.9-1,26.8-1
		c2.9,0,5.9,0.9,8.7,2c8.5,3.2,11.5,9.1,7.8,17.3c-2.7,6-6.1,12.1-10.7,16.6c-11.1,10.9-22.9,21.2-34.9,31.2
		c-8.4,6.9-17.7,12.8-28,18c1-1.8,2-3.6,2.9-5.5c2.5-5.1,5.4-10,7.2-15.3c3.9-11.9-0.2-20.2-11.9-24.5c-11.5-4.2-23.5-4.6-35.5-2.8
		C1733.1,1409.7,1718.3,1412.5,1703.1,1415.1z"/>
	<path class="st0" d="M2266,129.5c3-5.5,6.4-10.9,8.9-16.7c6.9-16.1,1.5-26.5-15.4-30.4c-16.2-3.8-32.4-1.7-48.5,1.1
		c-8.1,1.4-16.1,3.4-24.7,4.1c1.4-1.1,2.6-2.4,4.2-3.3c32.3-18.3,66.3-32.4,103.1-38.5c9.7-1.6,19.8-1.4,29.7-1.5
		c3.2,0,6.6,1,9.6,2.2c7.5,3.1,10.2,8.3,7.5,16c-1.6,4.6-4,9.3-7.2,12.9c-7,7.9-14.2,15.9-22.4,22.6c-14,11.6-28.8,22.2-43.3,33.2
		C2267,130.7,2266.5,130.1,2266,129.5z"/>
	<path class="st0" d="M3146.3,1580.4c1-0.8,2-1.6,3.1-2.3c33.9-19.7,69.8-34.4,108.7-40.8c8.8-1.4,17.9-1.1,26.9-1
		c3.5,0,7.3,1.1,10.6,2.6c6.8,3,9.5,8.5,6.7,15.5c-2.3,5.7-5.4,11.7-9.6,16.1c-9.7,10-19.9,19.6-30.7,28.5
		c-10.2,8.4-21.3,15.8-33.4,22.6c0.8-1.8,1.7-3.7,2.5-5.5c2.6-5.7,5.9-11.2,7.7-17.2c3-10.1-0.7-18.2-10.4-21.8
		c-6.7-2.5-14.2-3.8-21.4-4.2c-17.4-0.9-34.4,2.4-51.3,6.5c-2.9,0.7-5.7,1.5-8.6,2.2C3146.7,1581.2,3146.5,1580.8,3146.3,1580.4z"/>
	<path class="st0" d="M1545.2,1289.1c2.3-4,4.7-8,6.8-12.1c9.6-19.4,3.3-31.3-17.9-34.8c-13.7-2.3-27.2-0.8-40.7,1.3
		c-10.1,1.6-20,4.1-31.5,6.6c2.9-2.1,4.5-3.6,6.4-4.7c33.8-19.1,69.3-33.8,107.9-39.7c7.8-1.2,15.9-1.3,23.8-1.1
		c4.2,0.1,8.6,1.3,12.5,2.9c6.5,2.7,9.2,8,6.7,14.6c-2.3,6.1-5.4,12.5-9.9,17c-11.8,11.7-24.3,22.7-37,33.3
		c-8,6.7-17.1,12.3-25.6,18.4C1546.2,1290.2,1545.7,1289.6,1545.2,1289.1z"/>
	<path class="st0" d="M2987.4,1455.9c2.9-5.5,6.3-10.8,8.7-16.5c7-16.4,1.2-27.2-16.3-30.8c-19-3.9-37.7-0.7-56.4,3
		c-5.8,1.2-11.5,2.7-19.4,4.7c3.2-2.5,4.6-3.8,6.1-4.7c34-19.5,69.9-34.1,108.8-40.2c8.5-1.3,17.2-0.8,25.9-0.8
		c2.6,0,5.3,0.8,7.7,1.7c9.4,3.3,12.6,9.7,8.3,18.8c-3,6.2-6.9,12.3-11.8,17.1c-10.2,10-21,19.4-32.1,28.4
		c-9,7.3-18.7,13.7-28.2,20.4C2988.4,1456.6,2987.9,1456.2,2987.4,1455.9z"/>
	<path class="st0" d="M2185.9,253.4c1.8-1.3,3.5-2.8,5.5-3.8c31.8-17.9,65.3-31.5,101.3-38c11.1-2,22.4-3.4,33.7-1.2
		c14.3,2.7,18.7,11.1,11.5,23.7c-2.9,5.2-6.7,10-10.7,14.3c-17.6,18.8-38.6,33.5-61,47c1.3-2.4,2.8-4.7,3.9-7.2
		c2.4-5.4,5.4-10.8,6.9-16.5c2.6-9.8-0.9-17.3-10.4-20.9c-6.4-2.4-13.5-3.7-20.4-4.2c-18.1-1.2-35.8,2.3-53.3,6.5
		c-2.2,0.5-4.4,0.9-6.6,1.4C2186.2,254.1,2186,253.7,2185.9,253.4z"/>
	<path class="st0" d="M823.8,1621.1c2.6-4.9,5.6-9.6,7.9-14.7c7.9-17.4,2.2-28.2-16.4-32.1c-15.3-3.2-30.5-1.3-45.6,1.2
		c-9.1,1.5-18.1,3.9-28.7,6.2c2.3-1.9,3.4-3.2,4.8-4c33.4-19.2,68.6-33.8,106.8-40c9.1-1.5,18.5-1.2,27.8-1.2
		c3.5,0,7.3,1.1,10.6,2.6c6.8,3,9.6,8.5,6.7,15.4c-2.5,6-5.7,12.3-10.3,16.8c-11,11-22.8,21.4-34.8,31.4
		c-8.7,7.2-18.2,13.3-27.4,19.9C824.8,1622,824.3,1621.6,823.8,1621.1z"/>
	<path class="st0" d="M501.4,1414.8c1.6-1.1,3-2.4,4.7-3.4c33.5-19,68.7-33.6,106.9-39.7c8.8-1.4,17.9-1.1,26.8-1.2
		c2.9,0,5.9,0.9,8.7,1.9c8.9,3.2,12.1,9.4,8.3,18.1c-2.5,5.7-6.1,11.1-10.2,15.8c-17.9,20.4-40.2,35.5-63.7,49.8
		c2.3-4.1,4.8-8.2,6.9-12.4c10.3-20,4.4-32-17.6-35.6c-20.8-3.4-41,0.8-61.2,5.4c-3.1,0.7-6.2,1.6-9.3,2.3
		C501.6,1415.5,501.5,1415.1,501.4,1414.8z"/>
	<path class="st0" d="M823.9,128.9c2.9-5.5,6.3-10.9,8.7-16.6c6.4-15.6,1-25.9-15.3-29.8c-16.2-3.9-32.4-1.8-48.5,0.9
		c-8.8,1.5-17.4,3.7-28.6,6.2c3.9-2.7,5.8-4.2,7.9-5.4c32.3-18.3,66.3-32.3,103.1-38.5c10-1.7,20.5-1.4,30.7-1.3
		c3.8,0,7.8,1.7,11.2,3.5c4.9,2.7,6.8,7.3,5.2,12.7c-1.1,3.8-2.7,7.6-4.9,10.8c-3.9,5.4-8.1,10.6-12.8,15.2
		C863.8,103.5,844.6,117.1,823.9,128.9z"/>
	<path class="st0" d="M1545.2,1620.9c2.6-4.6,5.4-9.1,7.6-13.9c8.2-17.8,2.6-28.8-16.6-32.7c-15.3-3.2-30.5-1.2-45.6,1.3
		c-9.1,1.5-18,3.8-28.9,6.2c2.9-2.2,4.3-3.5,5.9-4.4c33.4-19,68.6-33.6,106.8-39.8c9.1-1.5,18.5-1.1,27.8-1.1
		c3.5,0,7.3,1.2,10.5,2.7c6.3,2.9,8.9,8.1,6.5,14.7c-2,5.5-4.8,11.2-8.7,15.4c-8,8.8-16.6,17.3-25.8,24.9
		c-12.2,10-25.3,19.1-37.9,28.6C1546.2,1622.1,1545.7,1621.5,1545.2,1620.9z"/>
	<path class="st0" d="M742.5,1747.2c38.8-23.8,79.2-41.7,124.6-45.3c6.2-0.5,12.7-0.1,18.8,1.1c12.1,2.5,15.7,10.4,10.4,21.4
		c-1.7,3.6-3.9,7-6.5,10c-18.3,22-41.6,37.8-66.1,52.7c2.1-3.9,4.4-7.7,6.4-11.6c10.6-20.5,4.9-32.3-18-36
		c-18.3-3-36.4,0.2-54.3,4.1C752.7,1744.7,747.6,1746,742.5,1747.2z"/>
	<path class="st0" d="M3146.4,88c1-0.7,2.1-1.5,3.1-2.1c33.3-19.4,68.5-33.9,106.6-40.3c9.7-1.6,19.8-1.2,29.8-1.2
		c3.5,0,7.2,1.3,10.4,2.9c5.9,2.9,8.4,8,6,14c-2.4,6.1-5.5,12.4-9.9,17c-9.1,9.6-18.8,18.8-29.1,27.2c-10.7,8.8-22.4,16.6-35,23.9
		c0.8-1.8,1.5-3.6,2.4-5.4c2.6-5.7,5.9-11.2,7.7-17.2c3.2-10.5-0.6-18.5-11.1-22.3c-6.5-2.3-13.5-3.5-20.4-3.9
		c-17.7-1-35.1,2.4-52.2,6.6c-2.6,0.6-5.1,1.3-7.6,1.9C3146.9,88.8,3146.7,88.4,3146.4,88z"/>
	<path class="st0" d="M3228.4,1786.9c3.1-6.2,6.8-12.2,9.2-18.6c5.1-13.8,0-23.4-14.3-27.3c-12.1-3.3-24.4-3.2-36.6-1.4
		c-13.4,2-26.7,4.7-41.4,7.3c3.4-2.2,5.7-3.9,8.1-5.3c32.1-18,65.8-31.8,102.3-37.9c9.7-1.6,19.8-1.3,29.8-1.3
		c3.5,0,7.2,1.2,10.5,2.7c6.4,2.9,8.9,8.2,6.3,14.7c-2.3,5.8-5.3,11.7-9.4,16.2c-8.3,9-17.2,17.6-26.7,25.4
		c-11.7,9.6-24.3,18.2-36.5,27.2C3229.2,1788,3228.8,1787.4,3228.4,1786.9z"/>
	<path class="st0" d="M982.5,1580.7c3.4-2.4,4.9-3.7,6.5-4.6c32.7-18.4,67-32.4,104.1-38.5c9.1-1.5,18.5-1.2,27.8-1.2
		c3.2,0,6.6,1,9.6,2.2c8,3.2,10.9,9,7.4,16.7c-3,6.5-6.8,13.3-11.9,18.1c-13.3,12.5-27.4,24.1-41.5,35.7c-6,4.9-12.7,9-19.1,13.5
		c-0.5-0.5-0.9-0.9-1.4-1.4c1.4-2.4,3-4.7,4.3-7.3c2.3-4.8,5-9.5,6.5-14.5c3.2-11-0.9-18.9-11.7-23c-11.8-4.6-24.2-4.7-36.4-3.1
		c-12.2,1.5-24.2,4.3-36.2,6.4C988.5,1580.1,986.6,1580.2,982.5,1580.7z"/>
	<path class="st0" d="M2506.9,1455.2c2.5-4.6,5.3-9.1,7.5-13.8c8.5-18.2,2.6-29.4-17-33.2c-15-2.9-29.8-1-44.6,1.4
		c-8.4,1.4-16.7,3.3-25.6,3.8c1.5-1.1,3-2.4,4.6-3.3c33.3-18.7,68.3-32.8,106.1-38.8c8.5-1.3,17.2-0.8,25.8-0.9
		c2.3,0,4.6,0.7,6.8,1.3c10.7,3.4,14,9.9,9.2,19.8c-2.5,5.3-6.1,10.4-10,14.8c-17.8,20.1-39.7,35.1-61.6,50.2
		C2507.8,1456.2,2507.3,1455.7,2506.9,1455.2z"/>
	<path class="st0" d="M102.4,1455.2c1.8-3,3.8-6,5.3-9.2c2-4.2,4.1-8.4,5.3-12.8c2.9-10.5-1-18.4-11.2-22.4
		c-11.1-4.4-22.8-5-34.4-3.5c-12.8,1.6-25.5,4.3-38.3,6.5c-1.9,0.3-3.8,0.5-7.7,1.1c2.6-2.2,3.6-3.4,4.9-4.1
		c33.2-18.8,68.1-33.1,106-39.1c8.8-1.4,17.9-1.1,26.8-1.1c3.5,0,7.3,1.2,10.5,2.6c6.8,3,9.6,8.6,6.7,15.4
		c-2.5,6-5.7,12.4-10.3,16.8c-12.9,12.4-26.5,24.1-40.3,35.6c-6.8,5.7-14.5,10.4-21.8,15.6C103.5,1456.1,102.9,1455.7,102.4,1455.2z
		"/>
	<path class="st0" d="M583.2,1289.8c2.9-5.6,6.3-10.9,8.8-16.7c6.7-16,1-26.5-15.9-30.3c-14.9-3.3-29.8-1.7-44.6,0.7
		c-8.8,1.4-17.5,3.5-28.3,5.6c2.6-2.4,3.6-3.9,5-4.6c33.5-18.9,68.8-33.1,107-39c7.5-1.1,15.2-1,22.8-1c3.3,0,6.6,0.8,9.7,1.8
		c9.9,3.2,13.3,10,8.6,19.4c-3.2,6.4-7.4,12.9-12.6,17.7c-12.6,11.7-26,22.7-39.4,33.6c-6.4,5.2-13.4,9.5-20.2,14.2
		C583.9,1290.7,583.5,1290.3,583.2,1289.8z"/>
	<path class="st0" d="M102.3,129c1.8-3.1,3.8-6,5.3-9.2c2-4.2,4.1-8.4,5.4-12.9c3-10.6-0.7-18.6-11.2-22.3
		c-6.5-2.3-13.5-3.5-20.4-3.9c-17.8-1-35.1,2.4-52.3,6.6c-2.6,0.6-5.1,1.3-9.8,2.5c2.7-2.3,3.8-3.6,5.2-4.4
		c32.9-18.8,67.4-33.3,104.9-39.6c10.1-1.7,20.5-1.3,30.8-1.4c3.2,0,6.6,1.1,9.6,2.4c6.9,3.1,9.5,8.5,6.7,15.5
		c-2.4,5.7-5.4,11.7-9.6,16.1c-9.7,10-19.9,19.6-30.7,28.5c-10.2,8.4-21.4,15.8-32.1,23.6C103.5,129.9,102.9,129.5,102.3,129z"/>
	<path class="st0" d="M3148.7,1413.1c1.3-0.9,2.5-1.9,3.9-2.7c33.3-18.8,68.3-33,106.3-39c8.5-1.3,17.3-1,25.9-0.9
		c3.5,0,7.3,1.2,10.6,2.6c6.8,3,9.6,8.5,6.8,15.4c-2.5,6-5.7,12.3-10.2,16.9c-10.8,10.8-22.2,21.1-34,30.8
		c-8.9,7.4-18.8,13.7-29.5,19.5c0.9-1.9,1.7-3.7,2.6-5.6c2.6-5.7,5.9-11.3,7.7-17.2c3-10-0.8-18.3-10.7-21.7
		c-7.4-2.6-15.5-3.9-23.4-4.2c-16.4-0.6-32.5,2.5-48.4,6.3c-2.2,0.5-4.4,1-6.7,1.4C3149.3,1414.2,3149,1413.6,3148.7,1413.1z"/>
	<path class="st0" d="M2506.8,129c2.8-5.2,5.9-10.2,8.2-15.6c7.2-16.6,1.9-27.1-15.7-31.1c-15.9-3.6-31.8-1.6-47.6,1.1
		c-8.8,1.5-17.5,3.8-28,6.1c2.5-2.1,3.7-3.3,5.1-4.2c32.9-18.7,67.4-33.3,104.9-39.6c10.1-1.7,20.5-1.4,30.8-1.3
		c3.5,0,7.2,1.4,10.4,2.9c5.9,2.9,8.4,8,5.9,14.1s-5.6,12.4-10,17c-9.6,10.1-19.9,19.6-30.7,28.4c-10.2,8.4-21.4,15.8-32.1,23.6
		C2507.8,130,2507.3,129.5,2506.8,129z"/>
	<path class="st0" d="M102.3,1787.1c0.9-1.6,1.8-3.2,2.6-4.8c2-3.8,4.4-7.5,6.1-11.5c6.8-16.1,1.4-26.5-15.6-30.4
		c-16.3-3.8-32.4-1.7-48.5,1.1c-8.7,1.5-17.4,3.7-26.5,4.7c1.3-0.9,2.5-1.9,3.9-2.7c33.1-19,68-33.5,105.8-39.9
		c9.7-1.6,19.9-1.3,29.8-1.2c3.5,0,7.2,1.3,10.5,2.8c6.3,3,8.9,8.4,6,14.9c-2.9,6.6-6.8,13-11.4,18.5c-12.4,14.5-27.6,25.9-43,37.1
		c-6.1,4.4-12.3,8.5-18.5,12.7C103.1,1787.9,102.7,1787.5,102.3,1787.1z"/>
	<path class="st0" d="M2266.7,1455.1c2.9-5.5,6.2-10.9,8.5-16.7c6.3-15.5,0.7-25.9-15.6-29.7c-15.6-3.6-31.1-1.8-46.5,0.8
		c-9.4,1.6-18.7,3.9-29.4,6.2c2-1.7,3-2.8,4.2-3.5c34.2-19.8,70.3-34.6,109.5-40.8c8.5-1.3,17.2-1,25.8-0.9c3.2,0,6.6,1,9.6,2.2
		c7.4,3,10.4,8.5,7.6,16c-2.2,5.8-5.4,11.7-9.6,16.1c-9.7,10-19.9,19.5-30.6,28.4c-10.2,8.4-21.3,15.7-32,23.5
		C2267.6,1456.2,2267.2,1455.6,2266.7,1455.1z"/>
	<path class="st0" d="M2987.3,1289.9c2.4-4.2,5-8.4,7.1-12.8c1.7-3.6,3.2-7.4,4-11.2c2.1-10-1.4-17.6-11-20.6
		c-8.4-2.6-17.6-4.6-26.3-4.1c-14.8,0.9-29.6,3.9-44.3,6c-2.6,0.4-5.1,1-9.8,1.9c2.8-2.5,3.8-3.7,5.1-4.5
		c33.8-19.1,69.4-33.4,108-39.3c7.5-1.1,15.2-0.9,22.9-0.9c3.2,0,6.6,0.8,9.7,1.9c9.4,3.2,12.5,9.7,8.3,18.8
		c-2.6,5.6-6,11.4-10.5,15.6c-13.4,12.4-27.3,24.2-41.3,35.9c-6.5,5.4-13.8,9.7-20.7,14.5C2988,1290.8,2987.7,1290.4,2987.3,1289.9z
		"/>
	<path class="st0" d="M2506.7,1787c1.8-3.1,3.8-6,5.3-9.2c2-4.2,4.1-8.4,5.4-12.9c3-10.6-0.7-18.6-11.1-22.3
		c-6.5-2.3-13.5-3.5-20.4-3.9c-17.8-1-35.1,2.4-52.3,6.6c-2.7,0.7-5.4,1.3-8.5,0.9c1-0.7,2-1.6,3.1-2.2
		c33.3-19.4,68.6-33.9,106.7-40.4c9.7-1.7,19.9-1.2,29.8-1.2c3.2,0,6.6,1.1,9.6,2.4c6.9,3.1,9.5,8.5,6.7,15.5
		c-2.3,5.7-5.4,11.7-9.6,16.1c-8.9,9.4-18.3,18.4-28.3,26.6c-11,9.1-22.9,17.1-34.4,25.5C2507.9,1788,2507.3,1787.5,2506.7,1787z"/>
	<path class="st0" d="M824,1455.2c2.8-5.2,5.9-10.3,8.2-15.7c7.1-16.4,1.4-27.2-16-31c-15.3-3.3-30.5-1.5-45.7,1
		c-8.5,1.4-16.9,3.4-26,4.1c1.5-1.2,2.9-2.7,4.7-3.7c32.8-18.4,67.2-32.4,104.4-38.3c8.8-1.4,17.9-1.2,26.9-1.1
		c3.5,0,7.3,1.2,10.6,2.6c6.8,3,9.7,8.6,6.7,15.4c-2.7,6.3-6.1,13-10.9,17.6c-13,12.4-26.7,24-40.5,35.5c-6.6,5.5-14.1,10-21.1,14.9
		C824.8,1456.1,824.4,1455.7,824,1455.2z"/>
	<path class="st0" d="M102.7,1621.1c3.1-6.2,6.8-12.2,9.2-18.6c5.2-13.8,0.1-23.4-14.2-27.4c-11.4-3.1-23.1-3.3-34.7-1.6
		c-11.8,1.8-23.5,4.3-35.3,6.5c-1.5,0.3-3,0.3-6.7,0.5c3.3-2.3,4.7-3.6,6.3-4.5c32.7-18.4,67.1-32.4,104.3-38.5
		c9.1-1.5,18.5-1.1,27.8-1.1c2.9,0,5.9,0.9,8.7,1.9c8.6,3.3,11.4,8.9,7.9,17.3c-2,4.8-4.8,9.6-8.1,13.6
		C149.8,1590.9,126.9,1606.7,102.7,1621.1z"/>
	<path class="st0" d="M2506.9,1621.1c2.8-5.2,5.9-10.3,8.2-15.7c7.1-16.5,1.6-27.2-15.9-31c-16-3.5-31.8-1.5-47.6,1.2
		c-8.1,1.4-16.1,3.3-24.7,3.8c1.8-1.3,3.5-2.8,5.4-3.9c32.5-18.1,66.5-32,103.4-38c9.1-1.5,18.6-1.2,27.8-1.1
		c3.5,0,7.3,1.2,10.5,2.6c6.8,3,9.5,8.6,6.5,15.5c-2.7,6.3-6.2,12.8-11,17.6c-11.1,11-22.9,21.3-34.9,31.2
		c-8.4,7-17.7,12.8-26.6,19.2C2507.8,1622.1,2507.4,1621.6,2506.9,1621.1z"/>
	<path class="st0" d="M1545.3,1455.2c2.7-5.2,5.8-10.3,8.2-15.7c7.1-16.5,1.4-27.2-16-30.9c-15.3-3.3-30.5-1.5-45.6,1
		c-8.5,1.4-16.8,3.4-25.9,4.1c1.5-1.2,2.9-2.7,4.6-3.7c32.7-18.3,67.1-32.4,104.3-38.2c8.8-1.4,17.9-1.2,26.8-1.1
		c3.8,0.1,7.9,1.4,11.4,3c6,2.8,8.5,7.8,6.2,14c-2.3,6.1-5.4,12.4-9.8,17.1c-9.6,10.1-19.9,19.6-30.6,28.5
		c-10.2,8.4-21.3,15.8-32.1,23.6C1546.3,1456.2,1545.8,1455.7,1545.3,1455.2z"/>
	<path class="st0" d="M1785.4,1621.1c1.6-2.8,3.4-5.4,4.8-8.3c2-4.2,4.3-8.3,5.6-12.8c3.5-11.5-0.6-19.5-11.8-23.8
		c-11.8-4.5-24.2-4.5-36.5-2.9c-12.2,1.6-24.2,4.3-36.3,6.5c-1.6,0.3-3.2,0.5-6.8,1c2.9-2.4,4.1-3.7,5.7-4.6
		c32.7-18.5,67.1-32.5,104.3-38.6c9.1-1.5,18.6-1.2,27.9-1.2c3.2,0,6.6,1,9.6,2.2c8,3.2,10.8,8.8,7.4,16.7
		c-2.5,5.7-5.6,11.6-10,15.9c-11.6,11.4-23.9,22.2-36.4,32.6c-8.1,6.8-17.2,12.5-25.9,18.6C1786.5,1622,1785.9,1621.6,1785.4,1621.1
		z"/>
	<path class="st0" d="M2266.6,1289.2c1.4-2.5,2.9-4.9,4.2-7.5c2.1-4.5,4.6-8.9,5.9-13.7c3.3-11.6-0.7-20.2-12.3-23.3
		c-9.5-2.5-19.7-3.9-29.5-3.3c-13.2,0.7-26.3,3.8-39.4,5.8c-2.6,0.4-5.1,1-10,1.9c3.2-2.7,4.5-4,6-4.9
		c33.3-18.7,68.3-32.9,106.3-38.7c7.8-1.2,15.9-1.2,23.9-1c3.9,0.1,7.9,1.1,11.6,2.6c7,2.8,9.9,8.1,7.3,15.3
		c-2.1,5.8-5.2,11.7-9.4,16.2c-8.9,9.4-18.3,18.4-28.3,26.7c-11,9.1-22.9,17.1-34.4,25.6C2267.8,1290.3,2267.2,1289.7,2266.6,1289.2
		z"/>
	<path class="st0" d="M1705.4,87.4c1.8-1.3,3.5-2.8,5.4-3.9c32.1-18,65.9-31.8,102.4-37.9c9.7-1.6,19.9-1.3,29.8-1.2
		c3.5,0,7.2,1.3,10.5,2.8c6.3,3,8.9,8.5,6.1,14.9c-2.9,6.6-6.8,13-11.5,18.4c-12.6,14.8-28.2,26.3-43.8,37.6
		c-5.8,4.2-11.8,8.1-18.9,10.9c0.9-1.6,1.8-3.1,2.6-4.7c1.9-3.5,4.1-6.9,5.7-10.5c7.5-17.1,2.1-27.6-16-31.6
		c-15.9-3.5-31.8-1.4-47.6,1.3c-8.1,1.4-16.1,3.4-24.1,5.1C1705.8,88.2,1705.6,87.8,1705.4,87.4z"/>
	<path class="st0" d="M1785.7,1787c3.1-6.2,6.8-12.2,9.2-18.7c5.2-13.8,0.1-23.5-14.2-27.4c-12.1-3.3-24.4-3.2-36.7-1.4
		c-11.2,1.6-22.2,4.1-33.3,6.2c-1.6,0.3-3.2,0.5-6.8,1c3-2.4,4.3-3.7,5.8-4.6c32.3-18.4,66.4-32.3,103.2-38.5
		c9.7-1.6,19.8-1.3,29.8-1.3c3.5,0,7.3,1.2,10.5,2.7c6.4,3,9.1,8.4,6.3,14.8c-2.7,6.3-6,13-10.9,17.6c-12.9,12.4-26.6,24-40.4,35.5
		c-6.8,5.7-14.5,10.3-21.7,15.4C1786.3,1787.9,1786,1787.5,1785.7,1787z"/>
	<path class="st0" d="M984.2,1745c1.6-1.1,3.1-2.2,4.8-3.2c32.4-18.3,66.5-32.2,103.3-38.3c9.7-1.6,19.9-1.1,29.8-1.1
		c3.2,0,6.6,1.1,9.6,2.5c6.8,3.1,9.4,8.6,6.5,15.6c-2.4,5.7-5.5,11.6-9.8,16c-9.7,10-20,19.6-30.7,28.4
		c-10.2,8.4-21.3,15.8-33.5,22.6c0.9-1.8,1.8-3.6,2.6-5.4c2.6-5.4,5.8-10.6,7.6-16.2c3.6-11.4-0.5-19.8-11.9-23.7
		c-6.2-2.1-12.9-3.2-19.5-3.5c-17.8-0.9-35.1,2.4-52.3,6.6c-1.9,0.5-3.8,0.9-5.7,1.3C984.8,1746.1,984.5,1745.5,984.2,1745z"/>
	<path class="st0" d="M1064,129.1c2.1-3.7,4.5-7.2,6.3-11c2-4.2,3.9-8.5,4.8-13c1.9-9.5-1.5-16.7-10.6-20
		c-6.7-2.5-14.1-3.9-21.3-4.3c-17.8-1-35.1,2.4-52.3,6.6c-1.9,0.5-3.8,0.9-6.4,0.2c1.5-1.2,2.9-2.7,4.5-3.6
		c32.4-18.3,66.5-32.2,103.3-38.4c9.7-1.6,19.9-1.2,29.8-1.2c3.2,0,6.6,1.1,9.6,2.5c6.8,3.1,9.5,8.6,6.6,15.6
		c-2.4,5.7-5.5,11.6-9.8,16c-9.7,10-20,19.6-30.7,28.4c-10.2,8.4-21.3,15.8-32.1,23.6C1065.1,130,1064.5,129.5,1064,129.1z"/>
</g>
</svg>
