<!-- Generator: Adobe Illustrator 27.0.0, SVG Export Plug-In . SVG Version: 6.00 Build 0)  -->
<svg version="1.1" id="レイヤー_1" xmlns="http://www.w3.org/2000/svg" xmlns:xlink="http://www.w3.org/1999/xlink" x="0px"
	 y="0px" viewBox="0 0 504.3 73.2" style="enable-background:new 0 0 504.3 73.2;" xml:space="preserve">
<g>
	<g>
		<g fill="#7915d7">
			<path d="M48,14.4c-1.2,0-2.9,0.8-3.6,1.8L11.7,59.5c-0.8,1-0.3,1.8,0.9,1.8h38c1.2,0,2.9-0.8,3.6-1.8l32.7-43.2
				c0.8-1,0.4-1.8-0.9-1.8L48,14.4z"/>
				<path d="M116,16.2c0.8-1,0.4-1.8-0.9-1.8H97.3c-1.2,0-2.9,0.8-3.6,1.8L61,59.5c-0.8,1-0.3,1.8,0.9,1.8h17.9
				c1.2,0,2.9-0.8,3.6-1.8L116,16.2z"/>
				<path d="M126.8,14.4c-1.2,0-2.9,0.8-3.6,1.8L90.4,59.5c-0.8,1-0.4,1.8,0.9,1.8h13.6c1.2,0,2.9-0.8,3.6-1.8l32.8-43.3
				c0.8-1,0.4-1.8-0.9-1.8C140.4,14.4,126.8,14.4,126.8,14.4z"/>
				<path d="M117.6,59.6c-0.8,1-0.4,1.8,0.9,1.8h9.4c1.2,0,2.9-0.8,3.6-1.8l32.7-43.3c0.8-1,0.4-1.8-0.9-1.8h-9.4
				c-1.2,0-2.9,0.8-3.6,1.8L117.6,59.6z"/>
				<path d="M142,59.6c-0.8,1-0.4,1.8,0.9,1.8h6.8c1.2,0,2.9-0.8,3.6-1.8L186,16.5c0.8-1,0.4-1.8-0.9-1.8h-6.8
				c-1.2,0-2.9,0.8-3.6,1.8L142,59.6z"/>
				<path d="M199.9,14.6c-1.2,0-2.9,0.8-3.6,1.8l-32.7,43.2c-0.8,1-0.4,1.8,0.9,1.8h15.9c1.2,0,2.9-0.8,3.6-1.8l5.2-6.9
				c0.8-1,2.4-1.8,3.6-1.8h60.4c1.2,0,2.3,1,2.3,2.3v6c0,1.2,1,2.3,2.3,2.3h12.5c1.2,0,2.3-1,2.3-2.3V16.9c0-1.2-1-2.3-2.3-2.3
				H199.9z M202.3,38.3c-1.2,0-1.6-0.8-0.9-1.8l6-8c0.8-1,2.4-1.8,3.6-1.8h42.1c1.2,0,2.3,1,2.3,2.3v7.1c0,1.2-1,2.3-2.3,2.3
				L202.3,38.3z"/>
				<path d="M280.9,59.1c0,1.2,1,2.3,2.3,2.3h12.5c1.2,0,2.3-1,2.3-2.3V35.3c0-1.2,0.9-1.8,2-1.1l23.6,13.9c1.1,0.6,3,1.1,4.2,1.1
				h9.1c1.2,0,3.1-0.5,4.2-1.1l23.6-13.9c1.1-0.6,2-0.1,2,1.1v23.8c0,1.2,1,2.3,2.3,2.3h12.5c1.2,0,2.3-1,2.3-2.3V16.9
				c0-1.2-1-2.3-2.3-2.3H369c-1.2,0-3.1,0.5-4.2,1.2l-30.5,19.7c-1,0.7-2.8,0.7-3.8,0l-30.7-19.7c-1-0.7-2.9-1.2-4.2-1.2h-12.5
				c-1.2,0-2.3,1-2.3,2.3L280.9,59.1L280.9,59.1z"/>
				<path d="M392,59.1c0,1.2,1,2.3,2.3,2.3h92.1c1.2,0,2.3-1,2.3-2.3V35.7c0-1.2-1-2.3-2.3-2.3H441c-1.2,0-2.3,1-2.3,2.3v4.5
				c0,1.2,1,2.3,2.3,2.3h28.3c1.2,0,2.3,1,2.3,2.3v2.4c0,1.2-1,2.3-2.3,2.3h-58.1c-1.2,0-2.3-1-2.3-2.3V28.8c0-1.2,1-2.3,2.3-2.3
				h75.1c1.2,0,2.3-1,2.3-2.3v-7.3c0-1.2-1-2.3-2.3-2.3h-92c-1.2,0-2.3,1-2.3,2.3V59.1z"/>
		</g>
	</g>
</g>
</svg>
