<?xml version="1.0" encoding="utf-8"?>
<!-- Generator: Adobe Illustrator 27.0.0, SVG Export Plug-In . SVG Version: 6.00 Build 0)  -->
<svg version="1.1" id="Layer_1" xmlns="http://www.w3.org/2000/svg" xmlns:xlink="http://www.w3.org/1999/xlink" x="0px" y="0px"
	 viewBox="0 0 2500 130" style="enable-background:new 0 0 2500 130;" xml:space="preserve">
<style type="text/css">
	.st0{fill:#ff6c02;}
</style>
<path class="st0" d="M621,3.1H408.4c0,0-43.4,2.9-55,26.8s-26.8,57.8-26.8,57.8s-17.4,36.2,33.3,36.2h210.4c0,0,47,4.3,63.6-28.2
	C650.7,63.2,663,34.2,663,34.2S678.1,3.9,621,3.1z M611.6,37.8c0,0-16.6,34-23.1,50.6s-24.2,13.4-24.2,13.4H391.1
	c-23.9,0-13-17-13-17s18.1-38.3,23.9-49.9s25.3-9.8,25.3-9.8h169.2C618.8,25.2,611.6,37.8,611.6,37.8z M888.9,88.2l90.3,31.7
	c3.2,1.2,3.8,4,0.4,4h-74c-3.4,0-10.3-1-13.5-2.2l-83.6-31L792,84.6c-16.2-6-29.7-11.6-31.7-12.4c-5.8-2.2-2.2-8.7-2.2-8.7
	s1-0.4,3.9-7.6s13.7-6.5,13.7-6.5s125.5,0.7,142.1,0s18.1-7.2,18.1-7.2s1.6-2.2,4.4-9.4c2.9-7.2-13-7.6-13-7.6H767.4
	c-13,0-16.6,7.6-16.6,7.6s-34,74.5-38.3,83.9s-10.1,7.2-10.1,7.2h-36.1c-7.2,0-2.9-7.2-2.9-7.2S706.7,21.2,711,11.1
	s15.2-7.9,15.2-7.9H959c42.7,0.7,31.1,23.1,31.1,23.1s-3.1,4.7-13,28.2C967.3,77.9,925,74.7,925,74.7h-74.6l21.4,7.4L888.9,88.2
	L888.9,88.2z M1247.3,55.3c38.1-26.4,66.1-46,66.1-46c5.4-3.3,5.1-6.1,0.7-6.1h-36.8c-3.4,0-8.6,1.6-11.4,3.5L1132.7,98
	c-2.5,1.8-5.9,1.2-7.7-1.3c-0.2-0.2-0.3-0.4-0.4-0.7L1077,8.6c-1.6-3-5.8-5.5-9.2-5.5h-35c0,0-14.5-1.4-9.4,7.9
	c5.1,9.4,55.7,99.1,55.7,99.1s5.1,13.7,21.7,13.7h31.1c0,0,16.1,0,36.1-13.7L1247.3,55.3L1247.3,55.3z M1342.4,123.9
	c-45.7,0-27.2-34.7-27.2-34.7s20.2-45.2,30.4-65.4c9.9-19.7,49.5-20.6,49.5-20.6h235.3c3.4,0,5,2.5,3.4,5.6l-5.5,10.9
	c-1.6,3.1-5.6,5.6-9.1,5.6h-210.3c-18.1,0-22.1,11.6-22.1,11.6s-15.5,32.9-23,49.9s7.2,15.2,7.2,15.2h213.2c3.4,0,5.1,2.6,3.6,5.7
	l-4.9,10.7c-1.4,3.1-5.4,5.7-8.9,5.7L1342.4,123.9L1342.4,123.9z"/>
<path class="st0" d="M1613.2,55c1.5-3.1,0-5.6-3.5-5.6h-199.4c-3.4,0-7.5,2.5-9.1,5.6l-7.4,14.5c-1.6,3.1,0,5.6,3.4,5.6l199.7-0.3
	c3.4,0,7.5-2.5,9-5.6L1613.2,55z M2171.8,8.8c1.5-3.1-0.1-5.6-3.6-5.6h-489.7c-3.4,0-7.5,2.5-8.9,5.6l-5.1,10.8
	c-1.5,3.1,0.1,5.6,3.6,5.6h101.8c3.4,0,5.1,2.6,3.7,5.7l-39.5,87.3c-1.4,3.1,0.3,5.7,3.7,5.7h37.8c3.4,0,7.4-2.6,8.9-5.7l41.5-87.4
	c1.4-3.1,5.4-5.7,8.9-5.7h156.3c3.4,0,5.1,2.6,3.7,5.7l-40.1,87.3c-1.4,3.1,0.3,5.7,3.7,5.7h37.4c3.4,0,7.4-2.6,8.8-5.7l41-87.3
	c1.4-3.1,5.4-5.7,8.8-5.7h103.2c3.4,0,7.5-2.5,8.9-5.6L2171.8,8.8L2171.8,8.8z M264.2,123.9c1.2,0,7.9-2.7,9.4-5.8l5.7-10.7
	c1.5-3.1-0.1-5.6-3.5-5.6l-204-0.3c0,0-22.1,4-11.9-18.4C70,60.7,82,35,82,35s5.5-9.9,19.6-9.9h209.7c3.4,0,7.4-2.6,8.9-5.7L325,9
	c1.5-3.1,0.1-6.2-3.3-6.2h-225c0,0-43.4-0.7-55.7,17.4S9.9,84.6,9.9,84.6s-16.5,39.3,31.2,39.3L264.2,123.9L264.2,123.9L264.2,123.9
	z M2200.9,123.9c-45.7,0-27.2-34.7-27.2-34.7s20.2-45.2,30.4-65.4c9.9-19.7,49.5-20.6,49.5-20.6h235.3c3.4,0,5,2.5,3.4,5.6
	l-5.5,10.9c-1.6,3.1-5.6,5.6-9.1,5.6h-210.3c-18.1,0-22.1,11.6-22.1,11.6s-15.5,32.9-23,49.9s7.2,15.2,7.2,15.2h213.2
	c3.4,0,5.1,2.6,3.6,5.7l-4.9,10.7c-1.4,3.1-5.4,5.7-8.9,5.7L2200.9,123.9L2200.9,123.9L2200.9,123.9z"/>
<path class="st0" d="M2471.7,55c1.5-3.1,0-5.6-3.5-5.6h-199.4c-3.4,0-7.5,2.5-9.1,5.6l-7.4,14.5c-1.6,3.1,0,5.6,3.4,5.6l199.7-0.3
	c3.4,0,7.5-2.5,9-5.6L2471.7,55z"/>
</svg>
