<?xml version="1.0" encoding="utf-8"?>
<!-- Generator: Adobe Illustrator 27.0.0, SVG Export Plug-In . SVG Version: 6.00 Build 0)  -->
<svg version="1.1" id="Layer_1" xmlns="http://www.w3.org/2000/svg" xmlns:xlink="http://www.w3.org/1999/xlink" x="0px" y="0px"
	 viewBox="0 0 595.3 588.9" style="enable-background:new 0 0 595.3 588.9;" xml:space="preserve">
<style type="text/css">
	.st0{display:none;fill-rule:evenodd;clip-rule:evenodd;fill:#aaa9ad;}
	.st1{fill:#aaa9ad;}
	.st2{display:none;}
</style>
<path class="st0" d="M146.5,268.1L146.3,43c25.2-0.6,50.7,0,75.6,0c41.6,0,83.2,8.6,104,47.6c9.7,18.3,14.1,40.5,11,64.3
	c-5.9,44.6-33.5,71.2-64.9,87.5C238.5,259.6,189.4,268.5,146.5,268.1L146.5,268.1z M87.2,74.7V445c0,14.5-2.1,29.2-8,40.4
	c-4.7,8.9-15.3,19.6-23.5,23.9l121.9,0.2c-0.9-1.6-6.3-4.9-7.7-6c-26.2-20.2-23.6-49.9-23.6-81.7c0-15.4-1-114.1,0.4-120.4
	c21.2-0.5,40.7-1.2,61.6-3.8c9.9-1.2,19.3-2.7,28.7-4.5c8.1-1.5,20.1-5.2,27.4-5.9c10.1,10.8,21.6,30.4,29.5,46.2
	c19.9,40,48.9,122.5,22.6,165.3c-1.2,2-2.5,3.8-3.9,5.6c-1.3,1.7-3.1,2.9-3.8,4.9l3.6,0.1c33.6-0.4,71.5,0.7,104.3,0
	c-0.8-2-7.6-8.4-9.7-11c-11-14.2-15.2-27.5-19.3-46c-10.7-49-23.4-85.5-45.3-129.1c-7.3-14.5-19.8-33.5-30-46.3
	c-2.1-2.6-3.5-3.6-4.6-6.4c7.4-4.2,13.6-6.8,20.3-11.2c19.6-12.8,36.4-27.5,49.2-48.3c38.9-63.3,20.5-143.3-39-178.8
	C309.4,15,271.1,9.8,232.2,9.8L56,9.9c1.9,1.9,4.3,3.3,6.8,5.1c6.7,5.1,12.3,10.9,16.5,19.2C85.3,46.4,87.2,59.4,87.2,74.7z"/>
<path class="st0" d="M398.8,80.2c4.6,12.2,8.7,22,11.1,36.1c2.1,11.9-0.4,12.3,5.6,17.5c22.4,19.5,32.8,52.3,28.4,86.5
	c-5.1,39.5-28,65.1-57.5,82.4c-13.1,7.6-25.9,11.2-31.3,14.3c1.3,6.2,13,24.1,15.5,34.2l12-3c1.8,3.2,6,7.7,8.5,11.2
	c2.8,3.8,5.3,7.5,8.1,11.7c15.9,24.3,28.3,50.7,37.5,79.5c6,18.6,12.4,43.7,13.5,64.8c1.5,28.1-6,43.6-18.6,58.9h108L529.4,562
	c-10.9-14.3-15.3-29.1-19.3-47.5c-11.4-52.3-34.9-116.6-65.8-158.6l-19.4-25.2l4.2-3c8.9-5.1,20.4-13.4,27.7-19.9
	c9.5-8.5,17.9-17.5,25.8-29c42.7-62.2,23-150.7-43.4-184.9C429.3,88.8,411.1,81.8,398.8,80.2z"/>
<g>
	<path class="st1" d="M399.1,87.7c6.2,1.1,12.1,2.6,17.9,4.6c35.9,13.1,63.5,35.7,79.8,71c8.7,18.7,11.9,38.5,10.1,59.1
		c-3.6,39.3-22.6,69.7-53.2,93.5c-11.5,9.1-24,16.4-37.5,22.1c-2.2,1.1-2.6,1.6-0.8,3.6c19.2,21.5,33.4,46.1,45.8,71.9
		c15.9,33.4,27.2,68.5,35.3,104.6c2.6,12.1,6,23.8,13.5,33.9c5.6,7.7,12.7,13.5,21.5,16.7c3.6,1.4,1.6,4.5,1.8,6.5
		c0.2,2.2-2,1.2-3.1,1.2c-32.5,0-64.7,0-97.1,0.2c-2.6,0-3.6-0.6-3.4-3.4c0-2.6,0.6-4,3.2-5.3c10.5-4.2,13.7-13.1,13.9-23.6
		c0.2-9.1-1.1-18.1-1.6-27.2c-2-25.6-8.1-50.4-16.4-74.6c-10.2-30.3-24.2-58.6-43.8-84.1c-0.2-0.2-0.4-0.6-0.6-1.1
		c-2.6-4.8-6.5-7.3-12.1-4.6c-2,1.1-2.6-0.2-3.2-1.8c-2.8-7.3-5.9-14.5-9.9-21.4c-1.1-1.8-0.4-2,1.2-2.6
		c13.1-4.6,25.8-10.1,37.7-17.5c26.4-16.4,45.6-38.3,53.4-68.7c7.7-29.7,5.3-58.3-10.9-84.9c-7.4-12.3-17.5-22-30-29.2
		c-1.1-0.6-1.6-1.1-1.8-2.2c-1.4-12.7-4.8-24.8-9.7-36.5C399.3,88.6,399.3,88.3,399.1,87.7z"/>
	<path class="st1" d="M288.9,365.7c-10.5,0.8-20.7,0.8-31.1,0.8c-2.5,0-3.1,0.6-3.1,3.1c0.2,53.8,0.2,107.6,0.4,161.5
		c0,10.2,2.2,20.1,9.3,28.2c3.6,4.2,8.1,7.3,13.3,9.3c2,0.8,2.8,1.6,2.5,3.6c-0.2,1.1,0,2,0,3.1c0,1.2-0.4,1.6-1.4,1.4
		c-0.4,0-1.1,0-1.4,0c-31.7,0-63.3,0-94.9,0c-2.5,0-2.8-0.6-3.1-3.1c-0.2-3.2,0.8-4.6,3.9-5.9c12.3-5.3,17.9-15.5,20.1-28.2
		c0.8-4.8,1.2-9.7,1.2-14.7c0-69.6,0-139.1,0-208.6c0-4.6,0-4.5,4.6-5.1c13.5-1.8,27.2-3.9,40.5-6.8c5.4-1.2,5.4-1.2,5.4,4.5
		c0,10.2,0.2,20.6,0,30.6c0,2.6,0.8,3.1,3.2,3.1c6-0.4,12.1-0.4,18.1-0.6c1.8,0,2.8,0.4,3.6,2c3.2,6.2,6.2,12.7,8.5,19.3
		C288.4,364.1,288.7,364.9,288.9,365.7z"/>
	<path class="st1" d="M417.1,504.6c-0.2-1.1-0.2-1.8,0-2.8c0.2-1.8-0.6-2.6-2.2-3.2c-5.4-1.8-10.1-5.1-14.4-8.8
		c-10.5-9.9-15.9-22.6-19.2-36.3c-6.2-25.8-12.5-51.6-22.1-76.4c-11.9-30.5-25.8-59.7-44.7-86.5c-5.4-7.4-11.1-14.5-17.3-21.5
		c6.8-3.4,13.5-6.5,19.3-10.1c24.6-14.4,45.3-32.6,58.9-58.3c13.9-26.2,19-54.4,12.3-83.5c-9.5-41.6-34.8-71-73.3-88.9
		c-25-11.5-51.4-15.5-78.6-15.8c-46.7-0.4-93.3-0.2-140.1-0.2c-10.5,0-21,0-31.4,0c-0.8,0-2.2-0.4-2.5,0.4c-0.4,1.8-0.2,3.9-0.2,5.9
		c0,1.4,1.6,1.2,2.5,1.6c9.1,3.2,15.5,9.1,19.3,17.9c3.4,7.7,4,15.9,4,24.2c0,131.6,0,263.5,0,395.1c0,4.8-0.4,9.5-1.4,14.1
		c-2.6,11.9-8.5,21.4-20.1,26.2c-2.6,1.1-3.4,2.5-3.4,5.3s0.8,3.4,3.4,3.4c31.4-0.2,62.7-0.2,94.2,0c2.8,0.2,3.6-0.6,3.6-3.4
		c0-2.6-0.6-4.2-3.4-5.1c-4-1.4-7.7-3.9-10.7-6.8c-7.7-7.7-10.9-17.3-10.9-27.8c-0.4-55-0.4-109.8-0.6-164.7c0-2.2,0.8-2.5,2.6-2.5
		c18.4,0.2,36.7-0.6,55-2.6c22-2.5,43.6-6,64.9-11.7c1.6-0.4,2.6-0.2,3.6,1.2c4,5.3,8.1,10.5,11.9,15.9c17.5,25.6,30,53.4,39.3,82.9
		c6.8,22,11.7,44.4,13.5,67.3c0.6,9.5,1.8,19,1.2,28.6c-0.6,9.3-4.8,16.4-13.5,20c-2.8,1.2-4,2.6-3.4,5.6c0,0.4,0,0.8,0,1.2
		c-0.2,1.4,0.6,1.8,2,1.8c33.3,0,66.7,0,99.9,0C416.4,506.4,417.2,506.2,417.1,504.6z M264.4,249.6c-20.7,9.5-42.5,14.9-64.9,18.4
		c-19.3,3.1-38.9,4.2-58.5,4.6c-2.5,0-3.1-0.6-3.1-2.8c0-38.1,0-75.8,0-113.3s0-75,0-112.4c0-2.6,0.6-3.2,3.2-3.2
		c28,0,56,0,84.1,0.2c20,0.2,39.5,2.5,57.8,10.7c29.7,13.1,47.8,35.9,53.8,67.6c6.2,32.5-0.2,62.5-19.5,89.3
		C303.7,227.2,285.4,240.1,264.4,249.6z"/>
	<path class="st1" d="M315.3,111.2c-19.3,0-38.3,0-57.2,0c-2.6,0-3.2,0.6-3.2,3.2c0,38.1,0,76.4,0.2,114.5c0,2.6-1.1,3.9-3.2,4.6
		c-14.4,6.2-29.1,10.2-44.4,13.5c-2.5,0.6-3.1,0.2-3.1-2.6c0.2-15.9,0-32,0-48c0-21.5,0-43,0-64.5c0-7.3-0.8-14.4-3.2-21.2
		c-3.4-9.9-10.1-16.5-20-20.1c-0.8-0.4-2.5-0.2-2.5-1.6c-0.2-2,0-4,0-6c0-0.2,0.6-0.4,1.1-0.4c0.6,0,1.4,0,2,0
		c37.7,0,75.2,0,112.9,0c2,0,3.4,0.6,4.8,2.2C306.2,92.6,311.4,101.3,315.3,111.2z"/>
</g>
<g id="_x30_wNtjj.tif" class="st2">
	
		<image style="display:inline;overflow:visible;" width="382" height="236" id="Layer_0_00000152984272810232930590000016161663410785996176_" xlink:href="9A42F5E8CD2AB8BD.png"  transform="matrix(0.5 0 0 0.5 702 -77.2004)">
	</image>
</g>
</svg>
