<?xml version="1.0" encoding="utf-8"?>
<!-- Generator: Adobe Illustrator 27.0.0, SVG Export Plug-In . SVG Version: 6.00 Build 0)  -->
<svg version="1.1" id="Layer_1" xmlns="http://www.w3.org/2000/svg" xmlns:xlink="http://www.w3.org/1999/xlink" x="0px" y="0px"
	 viewBox="0 0 833.5 169.9" style="enable-background:new 0 0 833.5 169.9;" xml:space="preserve">
<g fill="#0045ff">
	<path d="M763.2,38.5c4.3,0,8.7,0,13,0c14.5,1.1,29,2.4,43,6.7c1.9,0.6,3.7,0.8,3,3.4c-6.6,8.8-14.9,9.8-25.5,7.8
		c-17-3.2-34.4-4-51.6,0.2c-3.4,0.8-6.7,1.9-9.8,3.6c-2.6,1.4-5,3.2-4.8,6.4c0.2,3,2.9,4.1,5.4,5.2c7.5,3,15.5,3.6,23.2,5.7
		c5,1.3,10,2.5,14.8,4.5c17.6,7.5,14.1,23.6,4.4,31.8c-7.2,6.1-15.8,9.8-24.7,12.5c-20.2,6.2-41,6.9-61.8,6
		c-16.3-0.7-32.6-1.6-48.8-3.9c-1.4-0.2-3.3,0.4-3.9-1.5c-0.5-1.8,1.2-2.5,2.4-3.4c0.3-0.2,0.5-0.5,0.7-0.7
		c5.6-7.2,12.8-7.9,21.6-7.2c25.9,2.1,51.9,2,77.5-3.7c4.3-0.9,8.1-3,10.8-6.6c3.9-5.3,2.7-10.3-3.3-13c-6.8-3-14.2-3.3-21.3-4.9
		c-6.8-1.5-13.6-3-20-6.1c-9.3-4.5-11.6-13.6-5.3-21.8c7.9-10.2,19.3-14.2,31.2-17.2C743.3,40,753.3,39.4,763.2,38.5z"/>
	<path d="M569.9,89.9c-1.4-9.6-8.6-14.6-17-17c-27-7.6-52.8-3.7-76.9,10.2c-12.3,7.1-21.5,17.2-23.1,32.3c-0.1,1-0.4,2.1-1.4,2.4
		c-6,2.1-12.1,3.8-18.4,1.4c-2.8-1-2.8-2.3-0.5-4.2c3-2.4,5.5-5.3,7.5-8.6c7.8-12.2,3.9-24.1-9.6-29.3c-4.7-1.8-9.6-2.6-14.6-2.8
		c-8.4-0.2-16.8,0.7-25.1,1.8c-0.3-2.1,1-2.8,1.9-3.8c6.6-7.9,13.2-15.8,19.8-23.7c0.8-1,2.4-1.7,1.8-3.3c-0.7-1.6-2.3-1-3.6-1
		c-5.3,0-10.7,0.1-16-0.1c-3-0.1-4.9,1-6.8,3.2c-9.9,10.7-20,21.3-30,31.9c-1,1.1-1.8,2.5-3.7,1.3c-12.7-7.9-25.7-5.9-39-1.8
		c-1.7,0.5-5.5,4.9-5.7-1.6c0-1-1.7-0.6-2.7-0.6c-4.8,0.1-9.7,0.4-14.5,0.1c-5.1-0.3-8.7,1.5-12,5.4c-8.1,9.2-16.4,18.3-25.8,26.3
		c-8.4,7.2-17.7,12.2-29.1,12.6c-2.1,0.1-4.6,0-5.6-2.4c-1-2.6,0-4.8,1.9-6.7c6-6.2,12.1-12.3,17.9-18.7c4.1-4.5,8.8-8.4,13-14.5
		c-8.2,0-15.5,0.1-22.7-0.1c-2.9-0.1-4.9,0.8-6.9,3c-9.7,10.6-19.7,21.1-31.1,30c-5.5,4.3-11.7,7-18.8,7c-4.1,0-8.1-0.7-9.8-5.2
		c-1.6-4.2,0.8-6.9,3.5-9.6c7.5-7.5,15.1-15,22.6-22.6c0.8-0.8,2.1-1.5,1.6-2.8c-0.6-1.3-2-0.8-3.1-0.8c-6,0-12,0.1-18-0.1
		c-2.5-0.1-4.4,0.7-6.2,2.5c-8.1,7.9-16.1,15.8-23,24.8c-1.4,1.8-2.8,3.1-5.1,3.7c-16.4,4.5-32.9,8.2-49.9,9.4
		c-13,0.9-26.1,0.9-38.3-4.6c-7.2-3.2-8.2-8-3.5-14.3c1.3-1.7,2.8-3.3,4.3-4.9c5.9-6.2,12-12.3,17.8-18.7c2.1-2.3,4.2-3.2,7.3-3.1
		c20.8,0.2,41.7-0.4,62.5,0.5c10.8,0.5,18.7-2.4,24.3-11.5c0.2-0.3,0.5-0.5,0.6-0.8c0.7-1,2.3-1.9,1.5-3.4c-0.7-1.5-2.4-0.8-3.6-0.8
		c-22.5-0.4-44.9-0.7-67.4-1.1c-1.5,0-3.3,0.7-4.9-1.1c3.3-3.5,6.5-7,9.7-10.6c0.6-0.7,1.7-1.3,1.4-2.4c-0.5-1.5-1.9-1-3-1.1
		c-3.5-0.1-7,0.2-10.5-0.1c-8.5-0.9-15.4,1.2-20.2,8.7c-2.3,3.6-5.9,4.9-10.3,4.6C48,53,42.4,53.8,37,53.2c-9.2-1-15.6,3.4-21.1,9.8
		c-0.8,0.9-1.5,1.8-2.2,2.6c-1,4.6-0.3,5.8,4.1,6.2c5.9,0.5,11.7,1.4,17.9,1.2c-0.9,2.6-2.6,3.8-3.9,5.2c-5.1,5.5-10,11.1-14.3,17.3
		c-7.9,11.5-5.8,23.7,5.7,31.6c3,2.1,6.4,3.4,9.9,4.7c16.7,6.3,34,5.8,51.3,4.4c16.5-1.4,32.6-4.9,48.3-10c3.8-1.2,6.7-0.7,9.4,2.3
		c3.4,3.9,7.9,5.9,12.7,7.5c10.3,3.3,20.4,1.9,30.4-1.4c3.2-1.1,6.1-1.1,9.1,0.4c5.5,2.7,11.4,3.3,17.5,3.5c8,0.2,16.1-2.2,24.1,0.4
		c10.8,0.6,20.1-3.1,28.5-9.8c7.7-6.3,15.7-12.3,23.2-18.8c9.3-8,19.9-13.1,31.8-15.7c4-0.9,7.9-1,11.9-0.5c2,0.2,4.2,0.6,4.9,2.8
		c0.7,2.1-0.9,3.4-2.2,4.7c-4.7,4.7-8.9,9.9-13.5,14.7c-3.9,4-3.9,6.6-0.5,10.9c5.2,6.7,11.4,11.4,20.5,11.4c2.2,0,4.6-0.1,6.8,0.9
		c4.3,0,8.7,0,13,0c0.9-1.9,2.6-1,3.9-1.1c11.6-1,23.2-1.9,34.1-6.5c2-0.8,3.9-0.5,5.8,0.1c13,4,26.3,3.9,39.5,1.8
		c10.6-1.6,20.2-4.3,31.6,0.4c15.1,6.3,31.8,3,47.5-1.4c14.6-4.1,27.8-10.8,38.4-21.9C566.8,105,571.1,98.3,569.9,89.9z
		 M415.5,105.1c-6,5.8-13.5,8.9-21.4,11.2c-14.3,4.2-28.8,4-43.4,1.8c-0.4-0.1-0.8-0.5-1.6-1c5.3-5,11.3-8.8,17.2-12.6
		c11.5-7.6,23.8-13.2,38-12.8c3.2,0.1,6.3,0.3,9.2,1.8C419.4,96.2,420.2,100.5,415.5,105.1z M536.5,105.2
		c-8.8,7.8-21.4,12.1-38,12.9c-3.5,0.1-8.6-0.6-13.5-2.4c-7.8-2.9-8.9-7.9-2.9-13.8c5.4-5.4,12.3-8.3,19.4-10.7
		c8.6-3,17.3-4.4,26.4-3.9c1.5,0.1,3,0.1,4.4,0.5c4,1.2,8.3,2.5,9.6,7C543.1,99.6,539.6,102.5,536.5,105.2z"/>
</g>
</svg>
