<?xml version="1.0" encoding="utf-8"?>
<!-- Generator: Adobe Illustrator 27.0.0, SVG Export Plug-In . SVG Version: 6.00 Build 0)  -->
<svg version="1.1" id="Layer_1" xmlns="http://www.w3.org/2000/svg" xmlns:xlink="http://www.w3.org/1999/xlink" x="0px" y="0px"
	 viewBox="0 0 250 129.37" style="enable-background:new 0 0 250 129.37;" xml:space="preserve">
<style type="text/css">
	.st0{fill:#231F20;}
</style>
<g transform="matrix(1.25 0 0 -1.25 15.12 842.36)">
	<path class="st0" d="M61.2,608.22c1.08-1.62,3.44-5.17,3.87-5.98c0.43-0.81,1.26-2.08-1.11-2.34c-2.37-0.27-5.57-0.7-6.84-0.46
		c-1.43,0.27-2.47,0.88-1.49,2.68c0.72,1.32,3.43,5.47,3.82,5.98C59.84,608.62,60.43,609.37,61.2,608.22 M79.75,606.43
		c-0.29-1.6-1.91-1.77-3.5-1.78c-2.08,2.71-3.16,5.18-3.73,6.84c0.31,0.69,0.89,2.52,1.25,3.48c0.36,0.95,1.4,0.53,2.46,0.35
		c7.41-1.29,15.18,4.03,21.55,5.08c2.32,0.38,1.83-0.98,1.53-2.47c-0.3-1.49-2.24-8.78-3.82-12.53c-1.26-3-3.86-4.05-6.9-4.58
		c-3.75-0.66-4.65-3.07-6.57-4.03c-0.79,0.53-1.75,1.61-2.07,2.4c0.38,1.24,1.53,1.3,2.94,1.79c2.46,0.85,3.05,1.89,4.16,2.69
		c3.4,2.44,2.61,4.37,0.76,4.22c-1.85-0.15-5.24-0.15-6.32,0.02C80.6,608.05,80.04,608.04,79.75,606.43 M-10.9,629.25
		c-0.7-1-0.43-1.19-0.49-2.28c-0.08-1.48,1.57-1.73,2.63-3.96c0.58-1.23,1.01-1.91,2.37-2.31c1.36-0.4,4.78,0.43,6.18,1.95
		c1.41,1.52,0.32,3.46,1,4.68c1.55,2.8,4.28,3.85,5.45,4.9c1.17,1.05,2.49,1.43,4.16,1.85c4.6,1.15,5.21,3.59,6.86,5.91
		c1.65,2.32,2.65,1.91,3.23,1.77c7.17-1.76,15.65-5.01,19.56-7.42c6.61-4.06,9.36-8.71,10.66-16c-3.22-5.24-1.84-6.86-1.74-8.95
		c0.28-5.55-1.89-8.32-2.38-9.72c-0.5-1.39-0.46-2.05,0.24-2.83c0.7-0.78,1.63-2.27,2.75-3.3c1.11-1.03,2.19-0.56,3.27-0.28
		c5.68,1.45,10.29,2.05,15.86,2.29c3.75,0.16,7.19-3.54,8.13-4.58c0.95-1.03-0.47-1.68-1.24-2.19c-2.16-1.43-3.06-3.17-4.91-3.99
		c-1.86-0.83-3.53-1.37-4.47-3.29c-0.68-1.39,0.21-2.55,0.9-3.12c-0.9-0.51-2.94-2.13-3.89-2.99c-0.95-0.86-1.15-2.66,0.16-3.08
		c1.31-0.41,3.59-1.04,4.92-1.2c1.63-0.2,1.8,0.89,2.13,1.36c1.45,2.09,4.53,5.32,7.23,5.98c4.82,1.17,5.06,3.71,8.18,6.51
		c1.81,1.62,2.07,0.27,4.29-1.52c4.28-3.44,4.45-0.68,8.25-3.03c6.29-3.88,6.51-1.47,6.18-0.46c-0.32,1.01-1.11,2.56-2.61,5.64
		c-1.69,3.48-4.3,0.5-6.5,2.48c-1.7,1.52-2.96,3.62-2.96,3.62c3.09,3.24,3.86,1.59,9.9,1.87c5.62,0.25,5.9,2.2,7.18,6.13
		c3.32,10.13,8.91,12.51,16.83,17.75c6.63,4.38,3.79,6.59,7.79,10.46c2.05,1.98,2.08,3.25,2.5,5.4c0.42,2.15,0.76,2.14,2.68,2.43
		c1.92,0.29,9.31,1.05,13.12,4.36c4.1,3.56,4.18,2.14,9,1.91c15.64-0.75,25.21,10.18,25.5,15.86c0.15,3.09-1.45,3.78-3.08,2.24
		c-1.63-1.53-6.4-5.09-13.64-5.87c-9.73-1.05-13.21,1.55-16.2,1.01c-5.89-1.06-5.62-3.66-8.92-8.7c-1.91-2.91-13.54,2.1-15.14,2.92
		c-7.37,3.76-15.64,8.72-29.41,6.57c-15.96-2.49-27.85,0.37-33.92,2.54c-4.67,1.67-2.34,2.04-1.25,2.84
		c1.08,0.8,4.43,3.23,3.74,4.68c-1.03,2.16-13.02-4.33-14.88-2.03c-0.88,1.09,8.21,5.59,6.06,8.22c-2.14,2.61-5.04-2.75-12.42-4.8
		c-4.2-1.17-5.67-1.69-6.21-1.01c-1.1,1.37,1.08,2.36-0.02,3.35c-1.46,1.3-5.5-1.69-9.01-3.25c-3.71-1.65,0.24,4.44-6.25-0.02
		c-4.81-3.29-8.07-3.73-11.64-3.77c-2.33-0.02-1.47,0.75-1.8,2.44c-0.32,1.69-1.29,6.56-2.49,7.36c-2.41,1.57-2.79-3.81-3.53-7.74
		c-0.74-3.93-2.41-6.71-6.75-10.57c-3.34-2.97-2.92-5-3.8-7.94C-5.08,641.31-6.54,635.46-10.9,629.25"/>
</g>
</svg>
