<?xml version="1.0" encoding="utf-8"?>
<!-- Generator: Adobe Illustrator 27.0.0, SVG Export Plug-In . SVG Version: 6.00 Build 0)  -->
<svg version="1.1" id="Layer_1" xmlns="http://www.w3.org/2000/svg" xmlns:xlink="http://www.w3.org/1999/xlink" x="0px" y="0px"
	 viewBox="0 0 559.5 222.4" style="enable-background:new 0 0 559.5 222.4;" xml:space="preserve">
<style type="text/css">
	.st0{fill:none;stroke:#000000;}
	.st1{fill:#CCCCCC;}
	.st2{fill:#999999;}
	.st3{fill:#666666;}
	.st4{fill:#333333;}
	.st5{fill:#AFDFE4;}
</style>
<g id="Layer_8">
	<g>
		<path d="M555.1,46.7c-2.8-3.1-29.2,9.4-37.5,9.4s-51.4-10.4-67-13.2c-31.2-6.2-37.5,16.7-38.5,24.3c-1,7.6-8.7,15.6-24.3,4.5
			c-15.6-11.1-42.4-33-77.1-34c-7.2-0.2-54.9,6.2-75.4,6.6s-35.1-5.9-35.1-5.9s12.1-5.9,11.8-9.7c-0.4-3.8-33.7,1.4-33.7,1.4
			s19.4-11.5,19.8-13.9c0.4-2.4-59.7,5.9-59.7,5.9s4.9-8,3.8-10.4c-1-2.4-30.9,6.6-30.9,6.6s2.8-4.9,1-6.2S79.7,25.9,79.7,25.9
			S80.1,7.5,75.6,5C71.1,2.6,56.8,35.6,55.8,37S40.9,50.5,37.7,55.7c-1.5,2.6-11.1,23.3-13.5,26s-13.5,22.6-14.9,23.6
			c-2.7,2-1,7.3-0.7,8.7c0.3,1.4,4.5,4.2,4.5,4.2s0.3,3.8,1.7,5.2c1.4,1.4,6.2,5.9,8.3,5.9s6.9,3.1,9.4-2.4
			c2.4-5.5,17-21.9,21.2-25.7c4.2-3.8,17.4-4.9,24.7-9.4c4.8-3,14.6-12.5,16.3-13.9s15.3,7.6,19.8,10.8s12.9,10.1,16.3,14.6
			c3.5,4.5,5.2,13.9,5.9,17.4c0.7,3.5-4.2,21.5-4.5,24.6s-5.6,15.6-5.6,18.8s9.4,9,11.8,10.1s8.7-1,13.9-1.7
			c5.2-0.7,27.1-0.4,27.1-0.4s2.4,5.6,7.6,8s21.9,11.8,21.9,11.8s-6.2,3.1-9,8.3s-9.7,5.6-11.5,5.6s-6.9,4.2-9.4,5.9
			c-2.4,1.7-3.8,7.3-3.8,7.3l27.1,1c0,0,1-7.6,2.1-9.4c1-1.7,11.8,0.7,11.8,0.7l9.4-5.2c0,0,4.9,5.2,7.3,5.9s8.3,0.4,8.3,0.4
			s4.5,4.9,8.7,5.9c4.2,1,16.7,2.4,19.8,1s-5.2-8.7-5.2-8.7s-10.1-12.1-11.8-13.2c-1.7-1-9,1.4-9,1.4l-4.5-5.2
			c3.8-3.1,22.9-8.7,28.1-9c5.2-0.4,29.9,9,29.9,9s21.5-29.9,24-32.3c2.4-2.4,29.2-9.4,41.7-24.6c7.3-8.9,22.9-28.5,29.2-33
			c6.2-4.5,15.3-1,31.6-1.4s18.4-6.6,25.7-16s16-0.7,23.3,1c7.3,1.7,27.4,8.3,58.3,0.7C561.7,80.4,557.9,49.8,555.1,46.7z
			 M154.8,162c-2.8-0.4-6.9-9-6.9-9l9-14.6c0,0,8.3,9,11.1,11.5s8.3,12.1,8.3,12.1S157.5,162.3,154.8,162z M277,129.7
			c-3.8,7.3-11,26.9-21.9,34.7c-6.2,4.5-12.1,1.4-15.3,2.8c-3.1,1.4-19.1,12.5-19.1,12.5s-4.5-2.4-5.9-4.2c-1.4-1.7-3.8-4.2-3.8-4.2
			l5.2-3.1l3.8-5.2c0,0,6.2-0.7,7.3-1.4c1-0.7,11.8-12.1,11.1-14.2c-0.7-2.1-25.4-3.8-26.7-3.1s-3.1,8-5.2,9.4s-3.1,2.1-3.1,2.1
			s-2.4-5.9-2.4-9.4c0-3.5,0.7-9.4,0.7-9.4c1.4,0.4,32.6-1.4,36.1-2.4c3.5-1,34.4-11.1,37.5-11.1S280.8,122.4,277,129.7z"/>
	</g>
</g>
<g id="Layer_2_00000083802778294025970940000009093842262465258139_">
	<path class="st0" d="M78.4,22.6c0,0,30.9-15.3,32.6-13.9c1.7,1.4-1,6.2-1,6.2s29.9-9,30.9-6.6S137,18.8,137,18.8s60.1-8.3,59.7-5.9
		c-0.4,2.4-19.8,13.9-19.8,13.9s33.3-5.2,33.7-1.4c0.4,3.8-11.8,9.7-11.8,9.7s14.6,6.2,35.1,5.9s68.2-6.8,75.4-6.6
		c34.7,1,61.5,22.9,77.1,34c15.6,11.1,23.3,3.1,24.3-4.5c1-7.6,7.3-30.6,38.5-24.3c15.6,2.8,58.7,13.2,67,13.2
		c8.3,0,34.7-12.5,37.5-9.4c2.8,3.1,6.6,33.7-24.3,41.3c-30.9,7.6-51,1-58.3-0.7c-7.3-1.7-16-10.4-23.3-1s-9.4,15.6-25.7,16
		c-16.3,0.4-25.4-3.1-31.6,1.4s-21.9,24-29.2,33c-12.5,15.3-39.2,22.2-41.7,24.6s-24,32.3-24,32.3s-24.6-9.4-29.9-9
		c-5.2,0.4-24.3,5.9-28.1,9l4.5,5.2c0,0,7.3-2.4,9-1.4c1.7,1,11.8,13.2,11.8,13.2s8.3,7.3,5.2,8.7c-3.1,1.4-15.6,0-19.8-1
		s-8.7-5.9-8.7-5.9s-5.9,0.4-8.3-0.4c-2.4-0.7-7.3-5.9-7.3-5.9l-9.4,5.2c0,0-10.8-2.4-11.8-0.7s-2.1,9.4-2.1,9.4l-27.1-1
		c0,0,1.4-5.5,3.8-7.3c2.4-1.7,7.6-5.9,9.4-5.9s8.7-0.4,11.5-5.6s9-8.3,9-8.3s-16.7-9.4-21.9-11.8s-7.6-8-7.6-8s-21.9-0.4-27.1,0.4
		c-5.2,0.7-11.5,2.8-13.9,1.7s-11.8-6.9-11.8-10.1s5.2-15.6,5.6-18.8c0.4-3.1,5.2-21.2,4.5-24.6c-0.7-3.5-2.4-12.9-5.9-17.4
		c-3.5-4.5-11.8-11.5-16.3-14.6c-4.5-3.1-18.1-12.1-19.8-10.8C91.6,76.1,81.8,85.6,77,88.6c-7.3,4.5-20.5,5.6-24.7,9.4
		c-4.2,3.8-18.8,20.1-21.2,25.7c-2.4,5.6-7.3,2.4-9.4,2.4s-6.9-4.5-8.3-5.9c-1.4-1.4-1.7-5.2-1.7-5.2s-4.2-2.8-4.5-4.2
		c-0.3-1.4-2-6.6,0.7-8.7c1.4-1,12.5-20.8,14.9-23.6s12-23.5,13.5-26c3.1-5.2,17-17.4,18.1-18.8c1-1.4,15.3-34.4,19.8-31.9
		C78.7,4.2,78.4,22.6,78.4,22.6z"/>
	<path class="st0" d="M200.2,133.7c1.4,0.4,32.6-1.4,36.1-2.4c3.5-1,34.4-11.1,37.5-11.1s5.6-1,1.7,6.2s-11,26.9-21.9,34.7
		c-6.2,4.5-12.1,1.4-15.3,2.8c-3.1,1.4-19.1,12.5-19.1,12.5s-4.5-2.4-5.9-4.2c-1.4-1.7-3.8-4.2-3.8-4.2l5.2-3.1l3.8-5.2
		c0,0,6.2-0.7,7.3-1.4c1-0.7,11.8-12.1,11.1-14.2c-0.7-2.1-25.4-3.8-26.7-3.1c-1.4,0.7-3.1,8-5.2,9.4s-3.1,2.1-3.1,2.1
		s-2.4-5.9-2.4-9.4S200.2,133.7,200.2,133.7z"/>
	<path class="st0" d="M155.4,135.1l-9,14.6c0,0,4.2,8.7,6.9,9c2.8,0.4,21.5,0,21.5,0s-5.6-9.7-8.3-12.1S155.4,135.1,155.4,135.1z"/>
</g>
<g id="Layer_6">
	<path class="st1" d="M172.7,95.8c0.7,3,2,22.7,3,26.7s9.7,23,11,30s3.3,18.7,4.7,20.3c1.3,1.7,6.3,4,8,5.3s9.7,6.3,11,7.3
		s4.3,2.3,5,0.3s-8.3-17.3-9.7-20c-1.3-2.7-11.7-26-3.3-38.7c2-3,1-35.3,1-35.3s18.7,0.7,23,9.3c4.3,8.7,7.7,16.3,0.3,23
		c-7.3,6.7,17.7-1,24.7-4.3s30.7-11.3,30.7-11.3s5-8.7,5-12.3s-3.7-4-3.3-7c0.3-3,3.7-5.3,0.3-10s-57.3-4.7-57.3-4.7
		s-39.3-2.7-40.7,0.7C184.7,78.5,172.7,95.8,172.7,95.8z"/>
	<path class="st1" d="M316,82.1c0,0,13.3-7.7,25.7-7c12.3,0.7,42.3,2.3,42.3,2.3s7.3,7.3,16.3,8.3s17.3,1.3,20-3s1.7-22.3,7.3-26
		c5.7-3.7,22-5,22-5s37.7,9.7,44.7,11s30,4,35.7,0.7s18.7-11.7,18.7-11.7s4-2.7,4-1s-2.3,10.7-2.3,10.7s-6.3,9.7-10.7,13.3
		s-14,6.3-21,7.3s-20.3,3-34.7-0.3s-33-9-35.7-7.7c-2.7,1.3-11.7,17.3-14,18.7c-2.3,1.3-14.7,3.3-18,3.3s-24-0.7-26-0.3
		s-17,19.7-20,23.7s-28.3,26-30.7,26.7c-2.3,0.7-25.3,10.7-25.3,10.7s-12.4,4.8-15,9c-6.3,10.3-24,7-26.7,7.3s-28,11.7-29.3,12.3
		c-1.3,0.7-20.7,16-22.7,17s-10.7,2.7-10-2s1.7-6.3,1.7-6.3l24.3-12.7c0,0,26-8.7,28.7-11s3.7-11,3.7-12.7s23.7-22.3,23.7-22.3
		s3.7-12,8.7-18s15.7-20,15.7-23.3s-4.7-11.7-4.7-11.7L316,82.1z"/>
	<path class="st1" d="M72.3,7.8c1,0.7-5.7,3.7-9.7,17.7s-4.7,25.3-4,29s9,11.3,7.3,18.3s-5.3,15.3-5.3,15.3l-2,2.3
		c0,0,14.7-3.3,18.7-6.3S92,70.8,92,70.8l2.3,0.7c0,0-0.7-4.3-2.3-10c-1.7-5.7-4.7-13.7-4.7-13.7L84,40.1l-10,1.7l-2.3-3.7
		c0,0,3.3-18.3,3.3-21.7C75,13.1,72.3,7.8,72.3,7.8z"/>
	<path class="st1" d="M9.8,104.4c-1.2,1.2-2,3.3-2,3.3s-1.5-0.3-1.2,0.4c0.3,0.7,0.4,4.3,1.9,4.4s3.3-1.5,3.3-1.5l1.2-3.3
		c0,0,1.1-2.5,0.5-2.8s-1.6,2.7-1.6,2.7s-0.3,4.3-2.1,3.3C8,110,7.7,109.7,9,108.1c1.3-1.6,2-1.1,2-1.1l1.7-2.5L9.8,104.4z"/>
	<path class="st1" d="M39.7,93.2c0,0-9.7,10.1-11,12.1c-1.3,2-3.9,16.4-3.9,16.4s5.7-1.5,7.5-6.5s13.5-20.5,13.5-20.5
		s-2.9,0-4.3-0.3C40.1,94.1,39.7,93.2,39.7,93.2z"/>
	<path class="st1" d="M38.2,56.4l-4.7,10.6c0,0,2.1-2.5,2.7-1.5s0,9.2-5.1,16.2c4.9-4.8,6.5-12.6,7.3-15.7c0.8-3.1,1.2-7.1,1.7-8.4
		c0.5-1.3-0.7-0.1-1.7-0.3C37.4,57.4,38.2,56.4,38.2,56.4z"/>
	<path class="st1" d="M106.8,26.9c0,0,1.2,3.1,2.4,3.9s4.1-0.7,4.1-0.7s14.8-7.2,16.4-8.9s1.7-2.3,1.7-2.3l2.4-4.1
		c0,0-10.4,3.3-11.3,3.9C121.6,19.1,106.8,26.9,106.8,26.9z"/>
	<path class="st1" d="M150.1,26.9c0,0,0.4,1.9,0.9,2.4c0.5,0.5,16.8-2.5,18-2.8s13.7-4.1,15.7-5.9c2-1.7,4-3.7,4-3.7
		s-13.3,4.8-18.8,6.1c-5.5,1.3-19.7,3.2-19.7,3.2L150.1,26.9z"/>
	<path class="st1" d="M171.6,32.7l5.9,1.9c0,0,18.8-1.9,21.6-2.5c2.8-0.7,6.9-2.8,6.7-3.9c-0.3-1.1-2.7,0.5-6.1,1.5
		c-3.5,0.9-19.4,2.7-21.6,2.9C175.9,32.9,171.6,32.7,171.6,32.7z"/>
	<path class="st1" d="M188.1,42c0,0,27.6,4.5,27.3,6.4c-0.3,1.9-21.3,2.7-21.3,2.7s4.5-1.5,4.5-2.9C198.7,46.7,188.1,42,188.1,42z"
		/>
	<path class="st1" d="M345.5,44.8c0.4,0.7,1.1,1.5,0.5,1.7c-0.5,0.3-3.7,0.4-3.7,0.4s20.4,11.5,23.2,13.5c2.8,2,22.6,15.9,24.1,16.8
		s7.1,4.4,10.8,4c-2-0.8-8.3-1.9-14.9-8c-6.7-6.1-14.8-14.9-18.8-17.4C351.9,46.4,345.5,44.8,345.5,44.8z"/>
	<path class="st1" d="M416.6,58.3c0,0-1.2,7.1-1.2,9.6s0,8.8-0.9,10.4s-0.5-0.7-2-2.3c-1.5-1.6-1.9-1.6-1.6-2.8
		c0.3-1.2,0.9-6.9,0.9-7.3s0.3-4.7,0.9-5.2C413.5,60.2,416.6,58.3,416.6,58.3z"/>
	<path class="st1" d="M216.8,146.1c0,0-1.5,3.9-1.8,5.1s-0.5,5.3-0.2,5.8c0.2,0.5,6.2-2.5,7.9-3.8s7-8.1,7-8.1l0.6,1.3l3.4-0.4
		l0.8-2.1c0,0-10.4,1.4-11.3,1.4C222.2,145.2,216.8,146.1,216.8,146.1z"/>
	<path class="st1" d="M145.1,157.4l-3.2,3.9c0,0,0,6.6,0.4,6.5s7.9-0.4,7.9-0.4l8,0.6l2.9-2c0,0-5.3-1.8-10.6-3.2
		C145.1,161.4,145.1,157.4,145.1,157.4z"/>
	<polygon class="st1" points="240.5,167.8 237.3,167.3 220.6,181.3 221.6,182.6 231.1,176.8 	"/>
	<path class="st1" d="M250,199.3c0,0,2.8,6.1,3.9,7.6c1.1,1.5,9.8,5.5,9.8,5.5l-0.6-2.4c0,0-7.9-9-9.1-9.9
		C252.6,199.2,250,199.3,250,199.3z"/>
	<path class="st1" d="M192.9,214c0,0,1,1.9,1.5,2.1s5.9,0,5.9,0s0.6-9.2,1.1-9.6s0.5-1.6-0.5-2.3c-1-0.6-4.6,0.4-4.8,1.1
		C196,206.1,192.9,214,192.9,214z"/>
	<path class="st1" d="M137,103.7l-2.1,3.9l5.8,7.6c0,0-0.6-3.7-0.9-5.2c-0.2-1.5-0.4-4.6-0.5-5.1C139.1,104.4,137,103.7,137,103.7z"
		/>
	<path class="st1" d="M107.6,13.2c0.5-0.2,4.7-3,4.7-3S111.4,9,109,9.3c-2.4,0.2-6.2,1.3-6.2,1.3s-2.4,4.7-14.7,11.5
		C94.8,18.9,107.6,13.2,107.6,13.2z"/>
	<path class="st1" d="M118.2,14c0,0-0.6,2-2.5,3s-5.3,3-5.3,3l25.9-6.8c0,0,5.4-2.9,5.3-3.8c-0.1-0.9-0.9-1.1-5.4-0.4
		C131.5,9.8,118.2,14,118.2,14z"/>
	<path class="st1" d="M151.3,18.6c0,0-1.6,1.4-3.7,2.3c-2,0.9-9,2.8-9,2.8l25-4.2c0,0-8.7,0.9-10,0.4
		C152.3,19.4,151.3,18.6,151.3,18.6z"/>
	<path class="st1" d="M217.1,40.4c0,0,10.3,0.8,15,1s21.7-0.1,21.7-0.1s1.1,0,1,0.6s-14.1,3-19.8,3s-16.9-1-17.7-1.8
		C216.4,42.5,217.1,40.4,217.1,40.4z"/>
</g>
<g id="Layer_5">
	<path class="st2" d="M392.9,94.4c-2.6,0-10.9,0.1-13.2,2.8s-19.3,23.2-26.6,29.8c-14.2,12.9-33.3,18.6-38.6,21
		c-5.3,2.4-21.4,11.3-20.3,13.1c1.2,1.8,7.2-2.2,7.5-1c0.3,1.2-6.2,8.7-7.6,9.2c-1.5,0.6-7.5,4.3-12.2,2.2c-4.7-2-1.6-3.2-1.6-3.2
		s-9.2,0.9-10.7,1.3s-4.7,4.4-5.9,5.1c-1.2,0.7-26.3,14-27.5,15c-1.2,1-13.8,9.7-15.3,10.3s-3.8,0-3.8,0s-2.4,1.8-3.5,1.9
		s-3.2,0.1-3.2,0.1s1.4,3.7,2.9,4.8s7.8-2.8,7.8-2.8l16.6-13.8c0,0,22.3-10.9,29.6-13c11.7-3.4,22.6-2.6,24.4-3.5
		c1.8-0.9,10.3-8.7,13.4-11s32.7-16.9,37.4-20.3c4.7-3.4,30.3-25.2,37.7-41.2C382.9,95.6,392.9,94.4,392.9,94.4z"/>
	<path class="st2" d="M314.5,89.4c1.2,1.5,0.6,4.8-2.2,9.1s-13.4,27.7-14.5,30.7s-7.6,21-14,25.1c-6.3,4.1-7,5.3-10,3.2
		c-2.9-2.1-3.7-2.4-4.7-1.5s-1.3,7.6-1.3,7.6s-7.9,6-11.6,8.8s-30.1,15.4-34.4,16.4c-4.3,1,0,0,0,0s31-19.7,39.6-28.3
		c8.7-8.7,10.9-15.1,11.6-17.6c0.7-2.5,7.8-21.3,11.6-26.9c3.8-5.6,4.3-8.2,3.5-9c-0.7-0.7-1.9,0.4-1.9,0.4s1-4,1.9-4.4
		C289.1,102.8,312,86.3,314.5,89.4z"/>
	<path class="st2" d="M225.7,125.7c0,0,14.4-2.6,19.7-4.7s10.3-5,13.2-6.3c2.9-1.3,10-3.7,14.4-4.7c4.4-1,4.7-4,7.9-3.1
		s4.5,0.7,3.8,3.5c-0.7,2.8-9.7,5.6-12.5,6.5s-31.6,10.6-35.1,11.3c-3.5,0.7-8.4,0.7-9.7-0.4C226.1,126.5,225.7,125.7,225.7,125.7z"
		/>
	<path class="st2" d="M192,204.5c-1.3,1.1-3.5,0.2-5.2,1.1c-1.8,0.9-9.5,9.7-9.5,9.7s8.1-0.3,10-0.6c1.9-0.3,6.3-0.4,6.3-0.4
		c0.4-0.5,0.5-5.1,0.3-5.9C193.7,207.5,192,204.5,192,204.5"/>
	<path class="st2" d="M191.7,175.3c0,0,4.3-0.6,4.9-0.4c0.6,0.2,0.7,2.4,0.4,2.2C196.7,176.9,191.7,175.3,191.7,175.3z"/>
	<path class="st2" d="M171.9,163.3l2.4,2.7c0,0-8.9,0.8-12.6,0.2c-3.7-0.6-11.7-2.8-13.1-5.4c3.1,0.5,11.9,3.8,17.4,3.4
		C171.5,163.8,171.9,163.3,171.9,163.3z"/>
	<path class="st2" d="M139.1,147.9l3.3-23.3c0,0-3.4,13.7-4.4,16s-3.9,10.6-6.4,13.2s-3.3,5.9-3.4,7.4c1.6-2.2,6.1-3.8,7.9-3.4
		c1.8,0.4,3.1,2.1,3.1,2.1L139.1,147.9z"/>
	<path class="st2" d="M90.7,65.2c0.3,0.2,2.1,3.5,2.5,3.9s1.7,0.2,1.7,0.2l7.3,5.3l-9.6-2.2L90.1,75L68.6,90c0,0-9.5,2.2-9.2,1.7
		c0.3-0.5,0.8-2.3,0.8-2.3s12.1-3.1,16.2-6.7C86.9,73.6,90.7,65.2,90.7,65.2z"/>
	<path class="st2" d="M90.6,25.7c0,0-10,4.5-10.1,5.4c-0.1,0.9,1.7,1.3,1.7,1.3s-4.3,0.6-4.4-0.5c-0.1-1.1,11-7.3,12.2-8.2
		s14.7-8.2,14.7-8.2l-7.6,7.6c0,0-1.4,1.5-2.8,1.8C92.9,25.2,90.6,25.7,90.6,25.7z"/>
	<path class="st2" d="M69.2,15.3c0.4,0.3,2.8-5.2,3-4.8s0.7,5.7,0.7,5.7s0-6.7-0.4-6.7C72.2,9.5,69.2,15.3,69.2,15.3z"/>
	<path class="st2" d="M93.6,27.5c0,0-3.2,1.9-2.7,2.3s14-2.5,15.6-3.1c1.6-0.6,19.1-8.7,19.1-8.7s-29.5,10.1-31.1,9.8
		C92.9,27.5,93.6,27.5,93.6,27.5z"/>
	<path class="st2" d="M134.1,21c0,0-20.6,8.1-20.4,8.6s10.5,1.4,17.2,0.8s20.7-3,20.7-3l-1.5-1.5c0,0-21.4,2.7-24.4,2.8
		c-3,0.1-8.1,0.8-8.2,0.3C117.5,28.5,134.1,21,134.1,21z"/>
	<path class="st2" d="M150.4,33.9c0,0-9.3-0.1-9.3-1c0-0.9,4.6-2.2,5.7-2.2s22.1,1.7,26.6,1.2c4.5-0.5,23.9-2.9,23.9-2.9
		s-12.3,3.5-25.3,4.2c-12.9,0.7-24.2-0.8-24.4-0.4C147.4,33.1,150.4,33.9,150.4,33.9z"/>
	<path class="st2" d="M186,41.3c0,0,30.5,5.8,30.4,7.1s-25.5,2.3-25.5,2.3s7.6-1.2,7.6-1.8c0-0.6-6.7-2.5-6.7-2.5s2.4-0.8,2.4-1.3
		C194.2,44.6,186,41.3,186,41.3z"/>
	<path class="st2" d="M303.8,38.9l1.1,1.3c0,0,14.5-0.3,25.7,4.2c11.1,4.5,43,21.5,43,21.5S344,46.4,330,42.5
		C315.9,38.6,303.8,38.9,303.8,38.9z"/>
	<path class="st2" d="M474.8,52.3c0,0,9.5,3.3,11.3,3.8c1.8,0.5,13.2,2.1,13.2,2.1s-10-2.3-12.4-3.1
		C484.5,54.3,474.8,52.3,474.8,52.3z"/>
	<path class="st2" d="M137.1,165.3c0.8,0.4,3.7-1.1,4.5-3.7c0.8-2.5,3.2-2.7,0.2-4c-3-1.3-2.8,1.6-3.2,2.8
		C138.1,161.7,136.3,164.9,137.1,165.3z"/>
	<path class="st2" d="M245,204.2l3,7.7h10.2l-3-3.4c0,0-1.3-0.8-3.4-0.7s-2.5,0.8-3.6-0.1C247,206.7,245,204.2,245,204.2z"/>
	<path class="st2" d="M231.9,199.1c1-0.1,3.4,2.4,3.2,3.1c-0.2,0.7-1.9,2.5-4.3,2.3c-2.5-0.2-3.9-2-3.9-2.6S230.7,199.2,231.9,199.1
		z"/>
</g>
<g id="Layer_3">
	<path class="st3" d="M69.7,9.7c0,0-11.8,25.4-13.5,32.6c-1.7,7.3-11.5,8.3-13.5,12.1s-3.8,22.2-9,27.1s-14.9,14.2-17.7,18.8
		s-3.5,9.4-3.5,9.4l2.8-0.7l0.7,7.3l3.8-1l1,3.8c0,0,3.5-1,5.2-2.8c1.7-1.7,1-13.5,7.3-19.1S40.2,83.7,52,84.7
		c8.7,0.8,19.1-11.1,20.8-12.1s12.5-9.7,12.8-12.9c0.3-3.1,2.4-5.2,4.9-3.5S107.9,72.6,112,75c4.2,2.4,23.6,13.5,23.6,17
		s-0.7,6.9-1.7,7.6c-1,0.7-0.4,4.9-0.4,4.9s12.1-15.6,13.2-13.5c1,2.1-5.9,9-6.2,13.5s1.7,11.8,1.7,11.8l27.4,32.6
		c0,0-16.7-22.6-19.1-25.7c-2.4-3.1-12.5-13.2-2.8-8c9.7,5.2,21.9,13.2,26.4,11.1c4.5-2.1,2.4-4.9-0.7-8.7s-7.3-11.1,0.4-19.1
		c7.6-8,14.2-20.8,27.8-19.1c13.5,1.7,38.9,4.5,48.6,4.2c9.7-0.4,26.7-6.2,28.8-6.2s10.8,2.8,15.6,2.8s10.4-0.4,14.2,1.7
		c3.8,2.1,5.6,3.5,5.6,3.5s12.5-3.8,15.6-4.2s37.1-3.1,43.1-2.8c5.9,0.4,35.4,9.4,40.3,9.7s13.5-2.4,15.3-4.9s-1.4-4.5-1.4-4.5
		l1.7-4.5l-3.8-0.7l7-5.6l-3.5-1.7c0,0-0.4-6.6,5.2-8c5.6-1.4,6.2-8.3,34.7-0.7c28.5,7.6,41.3,11.8,52.1,10.8
		c10.8-1,16.7-2.8,20.5-5.9s7.3-8.7,7.3-8.7s-14.2,6.9-20.5,7.6c-6.2,0.7-10.8,5.6-42-3.1s-41.7-10.1-47.9-8.3
		c-6.2,1.7-18.8,2.8-19.8,11.1s-0.8,17.1-3.1,19.4c-5.2,5.2-11.8,7.6-32.3-4.2c-22.2-12.8-30.9-20.8-53.1-26.7
		c-22.2-5.9-21.2-2.4-24.6-2.8s-8.3-4.2-10.8-3.5c-2.4,0.7-43.8,11.1-51,11.8c-7.3,0.7-47.2-3.5-50.4-3.8c-3.1-0.4-15.3-3.1-7.6-4.5
		s-12.5-6.9-18.1-6.9s-81.9-0.4-84.7-1c-2.8-0.7,0.3,6.9,0.3,6.9s-5.6-4.5-6.6-5.2c-1-0.7-5.2-2.1-5.2-2.1s-1.4,7.3-3.5,8
		c-2.1,0.7-13.9,3.5-5.6-7.3s13.2-19.1,3.8-10.1s-2.8-1-2.8-1L69.7,9.7z"/>
	<path class="st3" d="M147.3,131.8c-3-1-1.2,3-2,3.8s-7.7,9.5-7.8,11c-0.2,1.5-0.3,9.5,0.2,10.3s1,3.5,0.7,4.2s-2.3,3-1.7,3.7
		c2.2,2.3,5.3-2.7,6.5-5.8c0.6-1.5,2.5-2.5,2.5-2.5s-3.5,0.5-4.3-1.8s-1.2-4.8,3-11.7C148.5,136.1,150.3,132.8,147.3,131.8z"/>
	<path class="st3" d="M174.5,144.3c-1.2,0-1.8,1-2.3,1s-1.7,0.5-1.7,0.5s2.3,8.7,4,9.5s3.5,2.8,3,6s1.7-3.8,3.8-3.8
		c2.2,0,10.3,0.2,12.8-3.3c0,0-1.3-0.7-3-3s-2.8-4.7-4.3-5.2s-4.3-0.5-6.5-0.7C178.2,145.1,174.5,144.3,174.5,144.3z"/>
	<path class="st3" d="M251.5,175.5c0,0-26.5,12.5-30.8,13.3c-2.7,0.5-3.8,3-4.5,3.3s-9.8,1-11,1.8s-5.7,6.3-6.3,7
		c-0.7,0.7-6.8,3.5-6.8,3.5s-0.5,9.3,1,9.8s4-1.5,5.2-4s0.5-7,1.7-8.3s15.8-7.5,16.3-7.5s4.5-0.7,5.7-1.5
		C223,192.1,251.5,175.5,251.5,175.5z"/>
	<path class="st3" d="M239.8,201c-1-0.3-4,1.8-6,2.7c-2,0.8-7.7-1.8-7.7-1.8l9.2-8.2l-10.5,7.8c0,0,4.8,4.3,5.8,4.5s7.2-2.2,7.7-2.2
		s1.2,1.7,1.2,1.7s1.7-0.7,2.8,0.2c1.2,0.8,5.7,7.2,5.7,7.2s12.5,0.7,13.3,0.7s4.5,1.7,4.5,1.7l-4.5-4.8c0,0-0.3,0.3-1.8,0.5
		s-10.7,0.3-10.7,0.3s-3.7-6.3-4.2-7.2c-0.5-0.8-3.8-1.8-3.8-1.8L239.8,201z"/>
	<path class="st3" d="M305.7,111.1c0,0-9.8,24.5-11.7,28.6c-1.9,4.1-9,15.9-14.5,17.8c-5.6,1.9-7.3-1.2-8.1-1.8s-3.2-0.1-3.4,1.8
		s-0.1,6.2-0.1,6.2s7.6-2.1,10-2.6c2.4-0.6,11.2-8.4,12.6-10.4c1.5-2,6.6-6.2,7.2-6.9c0.6-0.7,2.6-5.3,2.9-5.9
		c0.3-0.6,3.7-6.9,3.8-8.8s3.5-9.7,2.2-9.2C301.4,121.5,305.7,111.1,305.7,111.1z"/>
</g>
<g id="Layer_4">
	<path class="st4" d="M63.8,23.6c0,0-2.1,4.9-2.1,8s2.4,4.9,0.7,7.3c-1.7,2.4,4.2-3.5,6.2-7.6s2.4-8,2.4-8s-4.2,4.2-6.6,6.9
		C62,33,63.8,23.6,63.8,23.6z"/>
	<path class="st4" d="M60.3,47.2c0,0-1.4,5.6-0.7,8s8.3,6.9,6.6,13.2c-1.7,6.2-1.4,10.1-1.4,10.1S82.9,66.3,85,60.8
		s-1-11.5-2.4-13.5c-1.4-2.1-11.8-8.7-11.8-8.7s0,6.6-3.1,8.7C64.5,49.3,60.3,47.2,60.3,47.2z"/>
	<path class="st4" d="M83.6,39.2c0,0-1,0,0,2.8s6.6,13.9,6.6,13.9s-1.4-1.4-2.4-1s-7.3-12.5-7.3-12.5l-0.7-4.2L83.6,39.2z"/>
	<path class="st4" d="M93.3,39.9c0,0,49.7-1.4,55.2-1s32.3,4.2,32.3,4.2s-3.5-1.7-6.6,3.5S162,65.3,158.6,65.6s-26-12.9-31.9-14.6
		C120.7,49.3,93.3,39.9,93.3,39.9z"/>
	<path class="st4" d="M187.7,51.7c0,0-14.9,28.8-16.7,34.7c-1.7,5.9,2.1,14.2,2.1,14.2s13.9-20.8,20.1-21.5s42.7,5.2,53.1,4.5
		c10.4-0.7,30.6-5.6,31.9-5.6c1.4,0,17,2.8,19.8,2.4s12.9-0.4,16,4.9c0,0,22.6-6.2,32.3-6.6s33.7-1.4,36.8-0.4s-35.1-22.9-42.4-25
		c-7.3-2.1-31.6-7.3-35.4-6.9c-3.8,0.4-9.4-3.1-11.8-2.8c-2.4,0.4-33.7,7.7-44.4,10.4C232.5,58.3,187.7,51.7,187.7,51.7z"/>
	<path class="st4" d="M230.2,145.3c0,0-5.5,8.6-7.4,9.2s-9.2,2.8-9.9,4.1s-2,4-2.9,4s-5.5-1.5-5.5-1.5l3.6,6.5c0,0,4.7,1.3,6.6-7
		c0.5-2.1,5.5-3.2,6.1-3.2s4.2,0.2,4.6-0.1s7.8-8.8,8.6-11s-1.5,0.4-2.8,0.4S230.2,145.3,230.2,145.3z"/>
	<polygon class="st4" points="196.1,153.8 190.1,157.3 192.6,156.8 200.1,160.3 198,155.8 195.5,154.8 	"/>
	<path class="st4" d="M183.9,145.5c0,0,1.9,2.8,1.9,4s-1.5,5.6,0.4,6.4s5.2-0.9,5.2-0.9l2.8-1.2c0,0-1.8-0.5-3.2-2.8s-2-4.4-3-4.6
		S183.9,145.5,183.9,145.5z"/>
	<path class="st4" d="M208.8,174c0,0,7.6,9,7.1,9.8s-5.4,3.8-5.4,3.8s7.8-1.4,8-2S208.8,174,208.8,174z"/>
	<path class="st4" d="M251.9,175.3c0,0-27.2,17-29.8,17.8s-9.6,3.9-10.5,4.1s-0.9,0.2-0.9,0.2l-0.2-3.8c0,0,3.6,0.2,5.1-1.1
		s13.9-9,13.9-9s-7.4,4.6-7.7,5.4C221.6,189.7,251.9,175.3,251.9,175.3z"/>
	<path class="st4" d="M176,163c0,0,5.4,9.6,5.8,10.2s6,3.5,9.4,4.1s7.1,3.9,7.1,3.9l6.9,4l3.2,1.8c0,0-13.4-10-15.2-10.6
		s-5.6,0.4-7.6-1.8s-3.2-4.2-4.4-5.9S176,163,176,163z"/>
	<path class="st4" d="M157.9,167.7c0,0-7.1-1.6-10.4-1.4s-7.9,3.8-9.8,3s-2.8-2.1-2.8-2.1s-3-1-4-1.8s-2.5-4.5-2.9-4.1
		c-0.4,0.5-2.3,0.5-2.3,0.5l10.2,8.6h7l9-1.9L157.9,167.7z"/>
	<path class="st4" d="M139.1,117.3c0.8,1.5,19.8,19.5,19.8,19.5s-13.4-17-14.5-18.2s-11.1-13-11.1-13L139.1,117.3z"/>
	<path class="st4" d="M133.5,100c0,0-15-13.9-19-16.6s-12.6-9-12.6-9l-9.5-2.1c0,0,10.8,4.4,12.6,5.6S133.5,100,133.5,100z"/>
	<path class="st4" d="M93,72.2c0,0-6.8,8.2-9.9,10.4s-11.5,7-14.1,7.6s-14.2,3.5-15.6,4.5s-14.8,14.8-17.1,17.5s-4.2,8.2-5.8,9.2
		s-8,1.9-8.4,1.9s-2.9-0.6-2.9-0.6s7.9,0.1,10-3.2s2.6-5.8,2.6-5.8s1.8-5,2.4-5.8s11.2-13.4,15.1-14.5s16.4-2.1,25.5-7.1
		S93,72.2,93,72.2z"/>
	<path class="st4" d="M107.8,27c-1.3,1.5,14-3.5,15.1-4.4s3-5.1,3-5.1S108.6,26,107.8,27z"/>
	<path class="st4" d="M93.1,25.8c1.5-0.8,3.1-2.1,3.1-2.1s-1.4-0.9-2.4-0.5s-4.1,2.4-4.1,2.4L93.1,25.8z"/>
	<path class="st4" d="M62.9,20.3l2-0.6l5-9.5c0,0-3.8,4-4.2,5.1S62.9,20.3,62.9,20.3z"/>
	<path class="st4" d="M149.6,26.2l0.5,1.6c0,0,10.2-1.1,18-3.5s18-6.8,18-6.8s-15.2,3.8-18.8,4.4S149.6,26.2,149.6,26.2z"/>
	<path class="st4" d="M164.1,31.7l40.5-4.1c0,0-9.1,4-18,4.8c-8.9,0.8-21.2,0.2-21.2,0.2L164.1,31.7z"/>
	<path class="st4" d="M175.6,39.5c0,0,16.8,4.2,16.9,5s-1.5,1.2-1.5,1.2l7.8,3.4l-7.2,0.4l1.9,1.2l-6-1.5l5.8-1.2l-4.1-2.1l0.4-1.5
		L175.6,39.5z"/>
	<path class="st4" d="M548.1,54.3c0,0-5.8,8.9-10.1,10.9s-11.1,6.1-26.8,3.6s-33.4-8-42.6-10.4s-24.5-6.1-30-3.1s-9.8-0.4-6.5-2.5
		s10-2.8,13.4-2.2s29.8,4.9,32.4,5.6s28.4,10,39.6,8.1s20.2-5.5,23.1-7.6S548.1,54.3,548.1,54.3z"/>
	<path class="st4" d="M550.4,55.9c-0.2,0.6,0.4,6.6,0.4,6.6l1.4-2.1c0,0-1.6,6.5-4.2,10s-10.8,12.1-23.8,15.1s-42.4,2.1-53.1-3
		s-17.4-5.9-19.4-5.2s-10.9,15.5-13.4,16.9s-10.1,5.6-29.2,4s-23.1,2.4-26.1,6.2s-14.8,21.6-17.4,23.8s-16.9,17.4-29.8,20.9
		s-18.4,9.4-21.8,10.8s-15.8,13.9-19.9,15.5s-16.5,3-22,3.8s-26,6.5-26,6.5s22.8-8.5,26.2-9.2s17.2-1.6,19.9-3s11.1-9.8,14.2-11.9
		s26.9-13.6,29.9-15.2s23.4-16.4,30.9-26s15-23.2,17.9-24.2s14.8-1.1,17.8-0.5s18.4,0,24.2-1.8c9.4-2.8,15.9-18.8,17.8-19.8
		s7-2.1,7.9-2s16.8,5.5,18.6,6.1s16,4,16,4l-10.5-4.2c0,0,19.5,7.8,37.8,4.4s25.2-8.6,28.4-12C549.1,63.7,550.4,55.9,550.4,55.9z"/>
	<path class="st4" d="M240.6,167.4l5.5-0.2c0,0-7.6,6.4-8.9,7.2s-13.5,8-12.4,6.9S240.6,167.4,240.6,167.4z"/>
	<path class="st4" d="M211.8,173.7l9.2,9.1c0,0-1.6-1.9,1.2-4.8s1.9-3.5,1.9-3.5l-4.2,2.6L211.8,173.7z"/>
	<path class="st4" d="M162.5,163.5c0,0-0.5,2.1-1.1,1.9s-9.1-0.4-12.6-4.4C153.5,163.3,162.5,163.5,162.5,163.5z"/>
	<path class="st4" d="M147.5,131.5c-0.9,0.1-2.2,5-3.1,5.9s-5.1,7.4-5.5,8.8s-0.2,6.2-0.6,6.8s-0.9,3.5,0,4.2s2.8,0.2,3,0.9
		s1,2.6,1,2.6s0.6-2,1.2-2.6s2.5-1.9,2.5-1.9s-2.6-0.1-3.1-1.2s-0.9-2-0.9-2s-1.8-0.4-1.5-1.6s2.6-5.8,4.1-7.8s4.1-8.6,4.2-9.9
		S147.5,131.5,147.5,131.5z"/>
	<polygon class="st4" points="143.4,124.7 151.9,132.9 142.5,150.3 144.9,149.4 149.9,140 154.1,133.3 157.2,135.3 	"/>
	<path class="st4" d="M29,104.5c0,0-1.1,2-2.2,5.9s-1.9,7-1.9,7s1.6-0.1,2.4-2.1s0.1-4.2,0.4-5.5S29,104.5,29,104.5z"/>
	<path class="st4" d="M20.9,101.7c2.4,1.5-2.9,6.1-3.8,5.8S18.5,100.1,20.9,101.7z"/>
	<polygon class="st4" points="14.4,120 18,118.7 18,121.5 	"/>
	<polygon class="st4" points="9.4,112.8 12.4,111.8 13.1,112.3 12.2,114.7 	"/>
	<path class="st4" d="M133.4,15.8c0,0-6.4,7-8.5,7.7S110,29.2,112,28.4s6.1-1.9,8.2-2.1s6.4-2.9,9.5-3.8s6.2-3.1,6.2-3.1l1.8-5.5
		l-5,3.9L133.4,15.8z"/>
	<path class="st4" d="M224.4,49.7c1,3.8-18.2,2-18.2,2s12.5,0.1,12.8-1.5S198,43.8,198,43.8S223.8,47.3,224.4,49.7z"/>
	<path class="st4" d="M262.2,41.9c0,0,21.1-3.4,25.1-3.5s20.1-0.2,20.1-0.2l-2.8-2.6L285.5,37L262.2,41.9z"/>
	<path class="st4" d="M384.6,80.7c0,0,17.5,6.5,21.4,6.9s11.8,1.4,15.4-0.6s4.6-2.9,4.1-4.5s-2.1-2.1-1.8-3.5s0.9-2,0.4-2.5
		s-2.1-1-1.4-2.6s2.8-2.8,3.1-3.6s-1.5-1.8,0.9-3.5s2.9-2.1,2.8-3s-0.1-2.4,0.6-3.1s1.9-2.1,2.1-2.5s-2-1.1-2.1-2.1s-1.5,0.2-2,1
		s-4.2,6.9-4.8,9.9s-2.2,11.8-3.8,14.8s-4.2,4.4-6.5,3.8s-0.2-2.1-0.2-2.1s-2.8,2.4-6.4,2.5S384.6,80.7,384.6,80.7z"/>
	<path class="st4" d="M314.3,160.7l-1.2,2l3.2-2.6l-21,28.6c0,0-12.1-4.5-15-5.2s-10.7-3.8-12.3-3.5c-1.7,0.3,9.7-0.9,12.1-1.2
		c2.5-0.3,12.1,0.7,13.3,0.3s3.9-3.9,4.7-5.2C299,172.5,314.3,160.7,314.3,160.7z"/>
</g>
<g id="Finition">
	<path class="st5" d="M28.7,81.5c-0.4-0.4,1.3-5,1.3-5S19.9,89.1,16.5,94.3c-3.4,5.2-5.9,7.3-5.9,7.3s2.2-1.1,2.6-0.5
		c0.4,0.6,0.7,2,0.7,2s2.4-5.1,3.9-6.9s8.3-8.4,9.6-9.4c1.3-1,3.4-4.3,3.9-5C31.7,81.3,29.4,82.2,28.7,81.5z"/>
	<path class="st5" d="M40.4,51.4l1.4,1.7c0,0,5.9-3.4,6.9-3.8c0.9-0.4,2.7-2.4,3.6-3.1s2.7-2.6,2.7-2.6s-1.9-0.4-1.7-1.4
		c0,0-3.2,1.5-6,3.4C44.4,47.5,40.4,51.4,40.4,51.4z"/>
	<path class="st5" d="M89.2,38.2c-1.2-0.2-12-1.9-12.9-3c0.2,0.8,2.8,3.4,2.8,3.4s-3-0.5-3.6-1.4c-0.6-1-1.5-2.5-0.9-3
		c0.6-0.5,0.7-1.8,0.7-1.8L73.1,32c0,0-1.8,3.5-1.8,4.3c0,0.7-0.2,1.8,0.6,2.1c0.8,0.4,6.6,1.9,9.2,6.5c0,0-2.4-4.9-1.1-6
		C81.4,37.7,89.2,38.2,89.2,38.2z"/>
	<path class="st5" d="M139.4,34.2c0,0-3,1.4-5.9,2c-3,0.6-13.4,1.5-13.4,1.5c4.5,1.3,27.7-0.2,31.4-0.2s21.7,1.9,23.6,2.1
		s3.8-0.4,3.8-0.4l3.3,0.7c0,0,3,1.2,3.4,1.3c0.5,0.1,39,7.7,38.7,8.8c-0.2,1.1-23.9,1.5-23.9,1.5c4.9,2.1,45.2,6.2,46.8-0.2
		c1.5-6.4-20.6-5.8-24.6-6.2c-4-0.4-18.4-1.9-19.7-2.1c-1.3-0.2-13.4-3.1-14.7-3.7c-1.3-0.6-14.7-3.8-16.8-3.9
		C169.2,35.3,139.4,34.2,139.4,34.2z"/>
	<polygon class="st5" points="117.4,27.9 150.3,22 190.2,15.2 153.5,24.1 	"/>
	<path class="st5" d="M247.3,45.4c0,0,17.2,1.1,18.4,1.1s12.8-3.3,17.3-3.9s9.7-2.7,9.7-2.7s-0.5,1.3,0,1.7c0.5,0.4,6.2,2.5,6.2,2.5
		l6.5,1.5c0,0,19.8,3,21.8,3.5s30.7,11.2,45.1,20.6c14.5,9.4,25.9,16.1,29.7,16.1s9.1-0.6,10.9-2.5c1.8-1.9,1.7-4.4,1.7-4.4l-2.6-3
		c0,0-0.5,3.5-2.2,4.1c-1.8,0.6-7.2,4-16-0.1s-31.3-22.5-39.7-26.2S329.4,41,316.5,40.7c0,0-2,1.2-1.1,2.7c1,1.5,2.4,1.7,2.2,2.1
		s-4.1,0.6-4.3-1.5c0,0-2.5-0.2-3.5-0.2c-1.1,0-5-0.6-6.3-1.7c-1.3-1.1-4.7-2-4.4-3c0.4-1,0.8-2.4,0.8-2.4s-9.4-0.4-22.7,3
		C264,43,247.3,45.4,247.3,45.4z"/>
	<path class="st5" d="M420.1,50.5c0,0-3.4,1.2-3,2.1s8.9-1.3,11-1.5c2.1-0.2,5.7-0.2,5.7-0.2s-0.6-1.7,0.4-2.6c1-1,4.3-3.8,4.3-3.8
		s-7.1,0.2-11.5,1.8C422.6,47.8,420.1,50.5,420.1,50.5z"/>
	<path class="st5" d="M440.9,44.9c0,0-4,2.7-4.3,3.5c-0.2,0.8-0.8,2.1-0.5,2.1s4.3-1.4,6.3-1.5c2-0.1,5.7-0.1,5.7-0.1l-0.6,1.1h2.6
		v-1.3l1.2-1.1l-1.3-2L440.9,44.9z"/>
	<path class="st5" d="M455.1,46.1l7.3,5.2c0,0,20.2,6.3,23.3,7.3c3.1,1.1,19.4,5.6,21.3,5.2c1.9-0.4,4.5-4.7,5-5.1
		c-1.4-0.1-3.9-0.6-8.4-1.8c-4.5-1.2-20.2-5.1-26.9-6.3C470.1,49.6,455.1,46.1,455.1,46.1z"/>
	<path class="st5" d="M514.9,59.1c0.1,0.5,0.6,4.5-0.4,4.9s4.5,0.6,7.7-0.1s10.9-3.5,10.9-3.5s-6,0.8-8,0.2s-3.4-2-3.4-2L514.9,59.1
		z"/>
	<path class="st5" d="M524.7,56.7c0,0-0.7,1.8,2.1,2.1s6.9,0,9.1-0.5s9.7-4.5,10.8-6.4s1.1-2.6,1.1-2.6s-8.5,1.2-12.8,3.1
		C530.7,54.3,524.7,56.7,524.7,56.7z"/>
	<path class="st5" d="M553.8,49l-3.2,1.2c0,0,3.7,6.3-0.1,13.4s-9.2,17-23.3,21.3c9.3-3.5,22.3-9.1,26.5-21.7
		C556.8,54.1,553.8,49,553.8,49z"/>
	<path class="st5" d="M229.5,182.5c14.3-8.2,25-15.9,32.2-24.2c0,0-31.4,27.5-51.5,30.4l-0.6,2l-4,0.7l-4.7,3.2l0.9,0.5
		c0,0,3.4-2.2,8.4-3l1.3-1.5C211.5,190.7,220.2,187.9,229.5,182.5z"/>
	<path class="st5" d="M202.6,203.4c1.1-0.6,7.5,0.5,8.1,0.8s2.1,2,2.1,2s-1.9,0.5-5-0.1s-5.4-0.7-5.4-0.7L202.6,203.4z"/>
	<path class="st5" d="M244.6,203.6c0,0,1.4,2.7,2.5,3.2c1.1,0.5,4,0.6,5.6,1.1c1.5,0.5,4.6,2.2,5.5,4c0.8,1.8-9.5,0.7-9.5,0.7
		s-3.2-1.7-3.2-3.9S244.6,203.6,244.6,203.6z"/>
	<path class="st5" d="M174.4,212.1c0.5,0.8,0.8,2.7,0.8,2.7s3.7-2.2,4.9-4.1c1.2-1.9,1.5-3.8,3.1-4.5c1.5-0.7,9.9-2.4,11.2-3
		s1.5-2.1,1.5-2.1s-1.9,0.6-7,1.7s-8.6,2.7-9.9,4.7C177.8,209.5,174.4,212.1,174.4,212.1z"/>
	<path class="st5" d="M135.5,139.1c0.7,1,2.6,0.4,2.6,0.4s-1.8,7.2-3.2,8.8s-5.2,7.2-5.2,7.2s0.6-1.9,0.1-2.4s-2.2,1-2.1,0.6
		c0.1-0.4,0.2-3.2,1.7-5.1s3.1-3.3,3.8-5c0.7-1.7,0.9-7.7,0.9-8.4C134.1,135.2,134.6,137.9,135.5,139.1z"/>
	<path class="st5" d="M176.8,60.7c0.8,1-6.6,11.8-15.2,14.9c0.8-2,3.4-6.3,6.8-9.4C171.7,63.2,176.3,60.1,176.8,60.7z"/>
</g>
</svg>
