<?xml version="1.0" encoding="utf-8"?>
<!-- Generator: Adobe Illustrator 27.0.0, SVG Export Plug-In . SVG Version: 6.00 Build 0)  -->
<svg version="1.1" id="text" xmlns="http://www.w3.org/2000/svg" xmlns:xlink="http://www.w3.org/1999/xlink" x="0px" y="0px"
	 viewBox="0 0 1815.5 145" style="enable-background:new 0 0 1815.5 145;" xml:space="preserve">
<style type="text/css">
	.st0{fill:#e833ec;}
</style>
<path class="st0" d="M1677.9,133.9c-8.3,0-15.9,0-23.8,0c0-43.8,0-87.4,0-131.5c8.2,0,16.2-0.2,24.1,0.2c1.4,0.1,3.1,2.2,3.9,3.8
	c8,15.2,15.8,30.4,23.7,45.7c0.8,1.6,1.7,3.1,3,5.4c5.9-11.4,11.4-22,16.9-32.6c3.4-6.5,6.6-13.1,10.2-19.5c0.7-1.3,2.6-2.8,3.9-2.9
	c7.6-0.3,15.3-0.1,23.3-0.1c0,44,0,87.5,0,131.5c-7.7,0-15.2,0-23.5,0c0-27.5,0-55.1,0-82.6c-0.4-0.1-0.9-0.2-1.3-0.4
	c-9.8,17.8-19.5,35.6-29.8,54.2c-10.2-18.5-19.9-36.2-29.6-53.9c-0.3,0.1-0.7,0.1-1,0.2C1677.9,78.8,1677.9,106.2,1677.9,133.9z"/>
<path class="st0" d="M1423.6,50.9c-9.7,17.8-19.5,35.5-29.7,54.2c-10-18.3-19.7-35.8-29.3-53.4c-0.3,0-0.5,0.1-0.8,0.1
	c0,27.2,0,54.3,0,81.9c-8.3,0-16,0-24,0c0-43.6,0-87.2,0-131.3c8.1,0,15.9-0.2,23.6,0.2c1.5,0.1,3.3,2.4,4.2,4
	c8.1,15.3,16,30.7,23.9,46.1c0.7,1.4,1.6,2.8,2.7,4.7c8.4-16.3,16.8-32.1,24.7-48c2.6-5.3,5.4-7.9,11.6-7.2
	c5.7,0.7,11.6,0.1,17.9,0.1c0,43.9,0,87.5,0,131.4c-7.5,0-15.1,0-23.3,0c0-27.5,0-55.1,0-82.6C1424.6,51.1,1424.1,51,1423.6,50.9z"
	/>
<path class="st0" d="M121,2.4c7.1,0,13.9-0.2,20.7,0.2c1.4,0.1,3,2.2,4,3.8c14.9,23.3,29.7,46.7,44.5,70c1,1.6,2.1,3.2,4,4.5
	c0-25.9,0-51.8,0-78.1c8.1,0,15.8,0,23.8,0c0,43.6,0,87.1,0,131.4c-6.4,0-12.8,0.2-19.2-0.2c-1.3-0.1-2.6-2.3-3.6-3.7
	c-15.7-24.6-31.3-49.2-46.9-73.8c-0.9-1.4-1.8-2.7-3.7-5.3c0,28.5,0,55.5,0,82.7c-8.2,0-15.8,0-23.7,0C121,90.2,121,46.7,121,2.4z"
	/>
<path class="st0" d="M441.4,28.3c0,8.9,0,17.2,0,26.2c16.9,0,33.8,0,50.9,0c0,9,0,17.3,0,26.1c-16.8,0-33.5,0-50.8,0
	c0,9.2,0,18,0,27.4c19.5,0,39,0,58.8,0c0,9,0,17.2,0,25.8c-27.6,0-55,0-82.8,0c0-43.6,0-87.1,0-131.1c27.3,0,54.5,0,82,0
	c0,8.4,0,16.7,0,25.6C480.1,28.3,460.9,28.3,441.4,28.3z"/>
<path class="st0" d="M71.3,2.6c8.1,0,15.7,0,23.7,0c0.1,1.6,0.3,3,0.3,4.5c0,24.5,0.4,49.1-0.2,73.6c-0.2,9-1.9,18.4-4.9,26.8
	c-7.4,20.7-24,29.7-45.5,28.3c-26.6-1.7-42.7-18.4-44-46.4c-1.1-24-0.5-48-0.7-72c0-4.8,0-9.6,0-14.7c8.1,0,15.7,0,24,0
	c0,1.9,0,3.9,0,5.8c0.1,24,0.1,48,0.4,72.1c0,4.1,0.8,8.3,2,12.3c3.2,10.5,11.2,16.4,21.4,16.3c10.5-0.1,18.9-6.3,21.4-16.9
	c1.5-6.3,2-12.9,2-19.3c0.2-21.5,0.1-43,0.1-64.6C71.3,6.5,71.3,4.7,71.3,2.6z"/>
<path class="st0" d="M712.6,17.2c-4.3,7.4-8.3,14.4-12.5,21.7c-4-2.6-7.7-5.2-11.5-7.5c-6-3.6-12.4-5.7-19.5-5.1
	c-5.9,0.5-10.4,3.9-11.4,8.8c-1.3,5.9,0.8,11,6.6,13.7c5.6,2.6,11.5,4.3,17.3,6.5c3.9,1.4,7.8,2.8,11.6,4.4
	c14.6,6.2,22.7,17,23.1,33.1c0.5,20.8-8.3,38.1-30,42.2c-22.4,4.2-41.2-3.6-57-20c4.8-6.9,9.4-13.6,14.1-20.3
	c5,3.6,9.6,7.4,14.6,10.4c7.5,4.6,15.7,6.4,24.4,4.4c5.4-1.2,8.8-4.4,9.7-10.1c0.8-5.3-1.1-9.6-6.6-12.2c-5.7-2.7-11.8-4.4-17.6-6.9
	c-7.6-3.3-15.8-5.9-22.3-10.7c-11.8-8.6-15.5-27.3-10.1-43.9c4.9-14.9,17.2-24.5,33.2-25.3C685.6-0.4,700.1,5.2,712.6,17.2z"/>
<path class="st0" d="M1188.4,2.6c27.7,0,55.1,0,82.9,0c0,8.6,0,17,0,26c-19.4,0-38.8,0-58.5,0c0,9.7,0,18.7,0,28.4
	c17.2,0,34.2,0,51.6,0c0,9,0,17.4,0,26.3c-17.2,0-34.3,0-51.9,0c0,17.1,0,33.7,0,50.6c-8.2,0-16,0-24,0
	C1188.4,90.1,1188.4,46.5,1188.4,2.6z"/>
<path class="st0" d="M399.4,2.4c-3.5,10.5-6.6,20.3-9.9,30c-10.9,32.7-22,65.3-32.8,98.1c-1.2,3.7-2.8,5.1-6.6,4.8
	c-5.4-0.5-12.2,1.5-16-1.1c-3.5-2.5-4-9.5-5.7-14.5C315.7,82,303.1,44.3,290.5,6.6c-0.4-1.1-0.6-2.2-1.2-4.1c8.6,0,16.8-0.2,25,0.2
	c1.1,0,2.5,2.6,3,4.3c8.4,27,16.8,54,25.1,81.1c0.5,1.6,1.1,3.1,2,5.9c0.9-2.7,1.5-4.2,2-5.8c8.4-27,16.8-54,25-81.1
	c1.1-3.5,2.6-4.8,6.2-4.6C384.7,2.6,391.5,2.4,399.4,2.4z"/>
<path class="st0" d="M948.4,133.9c-8.3,0-15.9,0-24.1,0c-0.1-1.8-0.3-3.5-0.3-5.3c0-14,0.1-28-0.1-42c0-2.9-0.8-6-2.1-8.5
	C909.6,54.8,897.3,31.6,885,8.3c-0.9-1.7-1.7-3.5-2.9-5.9c9.4,0,18-0.1,26.6,0.2c1.2,0,2.7,2.1,3.5,3.5
	c7.2,14.3,14.3,28.6,21.4,42.9c0.8,1.6,1.7,3.2,2.8,5.4c1.2-2,2.1-3.5,2.9-5.1c7.2-14.3,14.4-28.5,21.4-42.9
	c1.4-2.9,2.9-4.3,6.4-4.1c7.5,0.3,14.9,0.1,23.1,0.1c-1.1,2.4-1.9,4.4-2.9,6.2c-12.3,23.1-24.7,46.1-36.8,69.2
	c-1.3,2.5-2,5.6-2.1,8.5C948.3,102,948.4,117.6,948.4,133.9z"/>
<path class="st0" d="M874.1,2.7c0,8.9,0,17.5,0,26.5c-11,0-21.8,0-33.1,0c0,35,0,69.6,0,104.6c-8.3,0-16.1,0-24.3,0
	c0-34.6,0-69.2,0-104.4c-11.3,0-22,0-33,0c0-9.2,0-17.8,0-26.7C813.7,2.7,843.6,2.7,874.1,2.7z"/>
<path class="st0" d="M762.6,133.9c-7.7,0-15.3,0-23.4,0c0-43.5,0-87.1,0-131.1c7.5,0,15.2,0,23.4,0C762.6,46.3,762.6,90,762.6,133.9
	z"/>
<path class="st0" d="M1501.1,133.9c-8.2,0-15.8,0-23.7,0c0-43.8,0-87.4,0-131.3c8,0,15.7,0,23.7,0
	C1501.1,46.5,1501.1,90,1501.1,133.9z"/>
<path class="st0" d="M270.2,133.9c-7.9,0-15.5,0-23.5,0c0-43.7,0-87.3,0-131.2c7.7,0,15.5,0,23.5,0
	C270.2,46.5,270.2,90.1,270.2,133.9z"/>
<path class="st0" d="M1815.5,133.9c-8,0-15.6,0-23.5,0c0-43.7,0-87.3,0-131.2c7.8,0,15.5,0,23.5,0
	C1815.5,46.4,1815.5,89.9,1815.5,133.9z"/>
<path class="st0" d="M591.2,87.2c2-1.2,3.5-2,4.8-2.9c1.4-0.9,2.8-1.9,4-3c13.8-12,16-27.8,13.7-44.7c-2.9-21.5-17.4-34.1-39.1-34.3
	c-14.5-0.1-29,0-43.5,0c-2.6,0-5.2,0-8.1,0c0,44.4,0,87.8,0,131.5c8,0,15.7,0,24.2,0c0-14,0-27.7,0-41.7c5.2,0,9.7,0.2,14.1-0.1
	c3.2-0.2,5,0.9,6.6,3.8c6.3,11.7,12.9,23.3,19.5,34.9c0.8,1.4,2.4,3.2,3.7,3.3c8.6,0.3,17.2,0.2,26.7,0.2
	C608.7,118,600,102.6,591.2,87.2z M577.7,65.1c-9.8,1.4-19.8,1.2-30.3,1.6c0-13.1,0-25.2,0-37.4c10.1,0,19.9-0.7,29.6,0.2
	c8,0.7,12.4,7.5,12.7,16.7C590,56.2,585.9,63.9,577.7,65.1z"/>
<path class="st0" d="M1152.3,23.5c-22.5-30.8-65.3-31.4-88.5-1c-10.3,13.5-14.6,29-14.7,45.8c0,15.6,3.7,29.2,11.3,41.4
	c20.9,33.4,65.8,35.9,90.1,5.2C1170.3,89.7,1171.1,49.3,1152.3,23.5z M1133.7,93.6c-12.1,20.1-37.4,21-50.9,2
	c-11-15.6-10.9-40,0.3-55.5c12.5-17.3,35.8-17.2,48.7,0.2c6.3,8.5,8.5,18.3,8.7,28.4C1140.1,77.7,1138.2,86,1133.7,93.6z"/>
<path class="st0" d="M1634.6,128.8c-13.1-37-26.2-74-39.4-111c-1.9-5.5-2.7-12.9-6.7-15.6s-11.3-0.5-17.1-0.9
	c-3.7-0.3-5.1,1.3-6.2,4.6c-14.5,41.1-29.1,82.2-43.6,123.3c-0.5,1.5-0.9,3-1.5,5c7.7,0,14.7,0.2,21.7-0.2c1.4-0.1,3.4-1.8,3.9-3.2
	c2.8-7.5,5.4-15,7.8-22.7c0.9-2.9,2.4-3.8,5.3-3.7c12.7,0.2,25.3,0.2,38,0c3.3-0.1,4.6,1.2,5.6,4.2c2.3,7.5,4.9,14.9,7.5,22.2
	c0.5,1.3,1.9,3.2,3,3.2c7.6,0.3,15.2,0.1,23.3,0.1C1635.5,132,1635.1,130.4,1634.6,128.8z M1563.6,78.4c4.7-13.7,9.2-27,14.2-41.7
	c5,14.7,9.5,27.9,14.2,41.7C1582.3,78.4,1573.2,78.4,1563.6,78.4z"/>
</svg>
