<?xml version="1.0" encoding="utf-8"?>
<!-- Generator: Adobe Illustrator 27.0.0, SVG Export Plug-In . SVG Version: 6.00 Build 0)  -->
<svg version="1.1" id="logo" xmlns="http://www.w3.org/2000/svg" xmlns:xlink="http://www.w3.org/1999/xlink" x="0px" y="0px"
	 viewBox="0 0 495.37 57.31" style="enable-background:new 0 0 495.37 57.31;" xml:space="preserve">
<g id="logo-group" fill="#8a8a8a">
	<path d="M424.43,46.59c0-10.25,0.04-20.49-0.05-30.74c-0.01-1.61,0.46-1.94,1.98-1.94c19.97,0.05,39.94,0.06,59.92-0.01
		c1.63,0,2.14,0.35,2.09,2.04c-0.12,4.18-0.03,4.19-4.3,4.19c-16.84,0-33.69,0.02-50.53-0.04c-1.53-0.01-2.14,0.33-1.94,1.93
		c0.21,1.69-0.71,3.94,0.36,4.98c1.07,1.04,3.29,0.3,5,0.3c16.44,0.02,32.89,0.04,49.33-0.03c1.62-0.01,2.14,0.31,2.08,2.03
		c-0.14,4.11-0.04,4.11-4.14,4.11c-16.91,0-33.82,0.02-50.73-0.04c-1.6-0.01-2.09,0.43-1.91,1.97c0.19,1.7-0.71,3.96,0.34,4.98
		c1.04,1.02,3.28,0.28,5,0.29c16.44,0.02,32.89,0.03,49.33-0.02c1.58-0.01,2.32,0.25,2.1,2.01c-0.16,1.31-0.02,2.66-0.02,3.99
		C467.04,46.59,445.73,46.59,424.43,46.59z"/>
	<path d="M220.68,46.59c-0.04-0.19-0.12-0.39-0.12-0.58c0.02-1.72-0.6-3.97,0.26-5.03c0.9-1.12,3.25-0.34,4.95-0.35
		c15.25-0.03,30.49-0.05,45.74,0.02c1.91,0.01,2.59-0.52,2.55-2.47c-0.12-5.53,0.43-4.74-4.64-4.75c-13.85-0.02-27.69,0.01-41.54,0
		c-5.52,0-8.35-2.84-8.36-8.34c0-1.06-0.01-2.13,0-3.19c0.03-4.98,2.95-7.92,7.96-7.95c5.39-0.03,10.78-0.01,16.18-0.01
		c11.52,0,23.03,0.02,34.55-0.03c1.45-0.01,2.08,0.2,2.03,1.9c-0.12,4.31-0.03,4.32-4.38,4.32c-15.45,0-30.89,0-46.34,0
		c-2.78,0-2.78,0.01-2.78,2.77c0,4.77-0.48,4.45,4.37,4.44c13.85-0.01,27.69-0.02,41.54-0.03c5.91,0,8.63,2.73,8.63,8.67
		c0,0.53-0.04,1.07,0.01,1.6c0.32,4.14-1.2,7.22-5.08,8.99C257.7,46.59,239.19,46.59,220.68,46.59z"/>
	<path d="M294.59,46.59c-3.76-2.02-5.01-5.2-4.82-9.37c0.23-5.11,0.04-10.24,0.06-15.36c0.02-4.82,3-7.89,7.83-7.9
		c16.71-0.03,33.41,0,50.12-0.04c1.25,0,1.64,0.35,1.54,1.57c-0.1,1.32-0.13,2.67,0,3.99c0.14,1.45-0.42,1.73-1.78,1.72
		c-15.77-0.05-31.55-0.03-47.32-0.03c-3.16,0-3.16,0-3.16,3.23c0,4.26,0.09,8.52-0.04,12.77c-0.06,1.86,0.56,2.38,2.39,2.37
		c15.91-0.06,31.81-0.01,47.72-0.08c1.7-0.01,2.4,0.3,2.2,2.14c-0.18,1.64-0.02,3.32-0.02,4.98
		C331.08,46.59,312.84,46.59,294.59,46.59z"/>
	<path d="M357.71,46.59c0-10.3,0.01-20.61-0.04-30.91c-0.01-1.3,0.18-1.95,1.68-1.8c1.77,0.17,4.12-0.53,5.18,0.36
		c1.12,0.95,0.29,3.36,0.34,5.14c0.06,2.06,0.1,4.13-0.02,6.18c-0.08,1.38,0.32,1.8,1.74,1.77c5.45-0.09,10.91-0.03,16.36-0.03
		c7.85,0,15.7-0.07,23.55,0.05c1.93,0.03,2.31-0.6,2.24-2.34c-0.13-3.19,0.02-6.38-0.06-9.57c-0.03-1.22,0.32-1.68,1.56-1.55
		c1.83,0.2,4.2-0.78,5.36,0.4c1.06,1.08,0.3,3.42,0.3,5.2c0.03,8.31,0.01,16.62,0.02,24.93c0,0.73,0.08,1.45,0.12,2.18
		c-2.4,0-4.79,0-7.19,0c-0.68-0.77-0.62-1.72-0.63-2.65c-0.02-2.12,0.02-4.25-0.02-6.37c-0.04-2.08-0.23-2.29-2.3-2.31
		c-5.11-0.04-10.23-0.01-15.34-0.01c-7.44,0-14.88-0.01-22.32,0.01c-2.55,0.01-2.68,0.15-2.7,2.71c-0.02,2.06,0.01,4.12-0.01,6.17
		c-0.01,0.86,0,1.74-0.63,2.45C362.51,46.59,360.11,46.59,357.71,46.59z"/>
	<path d="M211.12,27.63c0.01-1.73,0-3.46,0-5.19c-0.01-5.78-2.75-8.51-8.58-8.51c-16.58,0-33.15,0-49.73,0c-3.54,0-3.53,0-3.54,3.54
		c-0.03,9.71-0.07,19.42-0.1,29.13c2.4,0,4.79,0,7.19,0c1.11-1.71,0.48-3.63,0.6-5.45c0.13-2.09,0.23-2.29,2.31-2.31
		c3.79-0.04,7.59-0.01,11.38-0.01c8.58,0,17.17-0.04,25.75,0.02c3.75,0.03,6.2,2.13,6.83,5.7c0.13,0.72,0.14,1.47,0.67,2.05
		c2.4,0,4.79,0,7.19,0c0.15-4.95-2.47-8.33-6.5-10.99C209.11,34.5,211.1,32.01,211.12,27.63z M201.7,30.94
		c-7.25-0.05-14.51-0.02-21.76-0.02c-7.19,0-14.38-0.04-21.56,0.03c-1.42,0.01-2.05-0.24-1.93-1.83c0.15-2.05,0.15-4.13,0-6.18
		c-0.11-1.57,0.48-1.85,1.92-1.84c12.44,0.07,24.89,0.05,37.33,0.06c2,0,3.99,0.05,5.99-0.02c1.59-0.05,2.34,0.51,2.24,2.2
		c-0.1,1.79-0.1,3.6,0,5.38C204.03,30.43,203.31,30.95,201.7,30.94z"/>
	<path d="M140.61,21.63c-0.05-4.77-3.03-7.67-7.81-7.67c-14.97-0.02-29.95-0.02-44.92,0c-4.88,0.01-7.85,2.96-7.87,7.79
		c-0.03,5.12,0.2,10.25-0.07,15.36c-0.22,4.28,1.06,7.47,4.92,9.48c16.91,0,33.82,0,50.74,0c3.15-1.56,5.07-3.9,5.05-7.6
		C140.6,33.21,140.68,27.42,140.61,21.63z M131.27,39.53c-7.05-0.07-14.1-0.03-21.15-0.03c-6.92,0-13.83-0.04-20.75,0.03
		c-1.6,0.02-2.23-0.39-2.19-2.12c0.11-4.72,0.09-9.44,0.01-14.15c-0.03-1.58,0.56-2.11,2.09-2.11c13.96,0.03,27.93,0.03,41.89,0
		c1.6,0,2.3,0.55,2.28,2.2c-0.05,4.65-0.05,9.3,0.02,13.96C133.51,38.92,132.94,39.55,131.27,39.53z"/>
	<path d="M71.49,21.1c-0.13-3.63-2.28-6.09-5.75-6.88c-0.37-0.2-0.78-0.15-1.17-0.15c-17.64,0-35.29,0.02-52.93-0.04
		c-1.51,0-1.7,0.58-1.7,1.86c0.04,9.71,0.02,19.43,0.03,29.15c0,0.52-0.13,1.07,0.19,1.56c2.26,0,4.53,0,6.79,0
		c0.02-2.13,0.2-4.26,0.02-6.37c-0.16-1.87,0.55-2.13,2.22-2.12c14.83,0.06,29.66,0.05,44.49,0.03c4.6-0.01,7.64-2.79,7.82-7.26
		C71.61,27.62,71.6,24.35,71.49,21.1z M62.06,30.97c-7.32-0.05-14.63-0.02-21.95-0.02c-7.12,0-14.24-0.04-21.35,0.03
		c-1.38,0.01-1.86-0.33-1.78-1.75c0.12-2.19,0.08-4.39,0.01-6.58c-0.03-1.05,0.17-1.54,1.39-1.53c14.63,0.05,29.27,0.06,43.9,0.04
		c1.45,0,2.05,0.6,2.01,2.04c-0.05,1.86-0.07,3.73,0.01,5.58C64.39,30.44,63.68,30.99,62.06,30.97z"/>
</g>
</svg>
