<?xml version="1.0" encoding="utf-8"?>
<!-- Generator: Adobe Illustrator 27.0.0, SVG Export Plug-In . SVG Version: 6.00 Build 0)  -->
<svg version="1.1" id="Layer_1" xmlns="http://www.w3.org/2000/svg" xmlns:xlink="http://www.w3.org/1999/xlink" x="0px" y="0px"
	 viewBox="0 0 595.3 841.9" style="enable-background:new 0 0 595.3 841.9;" xml:space="preserve">
<style type="text/css">
	.st0{fill:#010101;}
</style>
<g>
	<path class="st0" d="M101.6,396.9h20.8c4.1,0,7.4,0.6,10,1.8c2.5,1.2,4.6,3,6.3,5.3c1.7,2.3,2.9,5,3.6,8.1c0.7,3,1.1,5.2,1.1,8.6
		c0,5.3-0.6,9.5-1.7,12.4c-1.1,2.9-2.6,5.4-4.6,7.4c-2,2-4.1,3.3-6.3,4c-3.1,0.9-5.9,1.4-8.4,1.4h-20.8V396.9z M115.6,407.2v27.2
		h3.4c2.9,0,5-0.4,6.3-1.1c1.2-0.7,2.2-2,2.9-3.7c0.7-1.8,1.1-4.7,1.1-8.7c0-5.3-0.8-8.9-2.4-10.9c-1.6-2-4.2-2.9-7.8-2.9H115.6z"/>
	<path class="st0" d="M151.7,395.9h36.8V407h-22.2v8.3h14.3V426h-14.3v9.3h22.9v10.8h-37.6V395.9z"/>
	<path class="st0" d="M451.9,395.9h36.8V407h-22.2v8.3h14.3V426h-14.3v9.3h22.9v10.8h-37.6V395.9z"/>
	<path class="st0" d="M198.3,395.9h14v38.6h20.9v11.3h-34.9V395.9z"/>
	<path class="st0" d="M266.8,435.5h-12.9l-3.2,10.2h-12.3l16.1-49.9h15.3l14.1,49.9H270L266.8,435.5z M264.8,425.8l-4-15.9l-5,15.9
		H264.8z"/>
	<path class="st0" d="M378,435.5h-12.9l-3.2,10.2h-12.3l16.1-49.9h15.3l14.1,49.9h-13.7L378,435.5z M376.1,425.8l-4-15.9l-5,15.9
		H376.1z"/>
	<path class="st0" d="M283.3,395.9h14.2l7.8,27.9l7-27.9h12.2l7,27.9l7.8-27.9h11.2l-12.9,49.9h-12.7l-7.9-26.4l-6.9,26.4h-12.7
		L283.3,395.9z"/>
	<path class="st0" d="M401.6,445.8v-49.9H425c4.3,0,7.7,0.4,9.9,1.2c2.3,0.8,4.1,2.3,5.5,4.5c1.4,2.2,2.1,4.9,2.1,8.1
		c0,2.8-0.5,5.2-1.6,7.2c-1.1,2-2.6,3.6-4.4,4.9c-1.2,0.8-2.8,1.5-4.9,2c1.7,0.6,1.9,1.2,2.7,1.8c0.5,0.4,1.3,1.3,2.2,2.6
		s1.6,2.4,2,3.1l4.8,14.5h-15.9l-4.5-15.2c-1-2-1.8-3.3-2.5-3.8c-1-0.8-2.2-1.2-3.4-1.2h-1.2v20.2H401.6z M415.7,416.1h5.9
		c0.6,0,1.9-0.2,3.7-0.7c0.9-0.2,1.7-0.7,2.3-1.6c0.6-0.8,0.9-1.8,0.9-2.9c0-1.6-0.5-2.8-1.4-3.7c-0.9-0.9-2.7-1.3-5.2-1.3h-6.2
		V416.1z"/>
</g>
</svg>
