<?xml version="1.0" encoding="UTF-8"?>
<svg id="Layer_1" data-name="Layer 1" xmlns="http://www.w3.org/2000/svg" viewBox="0 0 561.67 93.05">
  <defs>
    <style>
      .cls-1 {
        fill: #010101;
      }
    </style>
  </defs>
  <path class="cls-1" d="M0,91.27v-2.51c3.47-.39,6.07-1.7,7.81-3.92,1.73-2.22,4.71-8.3,8.92-18.24L44.83,.33h2.69l33.61,76.57c2.24,5.07,4.03,8.21,5.37,9.41,1.34,1.2,3.59,2.02,6.75,2.46v2.51H58.94v-2.51c3.94-.35,6.48-.78,7.62-1.28,1.14-.5,1.71-1.74,1.71-3.71,0-.66-.22-1.81-.66-3.48-.44-1.66-1.05-3.41-1.84-5.25l-5.4-12.99H24.82c-3.5,8.84-5.6,14.23-6.28,16.18-.68,1.95-1.02,3.49-1.02,4.63,0,2.28,.92,3.85,2.76,4.73,1.14,.53,3.29,.92,6.44,1.18v2.51H0ZM58.1,56.58l-15.46-37.2-15.53,37.2h30.99Z"/>
  <path class="cls-1" d="M189.9,91.27v-2.51c3.47-.39,6.07-1.7,7.81-3.92,1.73-2.22,4.71-8.3,8.92-18.24L234.73,.33h2.69l33.61,76.57c2.24,5.07,4.03,8.21,5.37,9.41,1.34,1.2,3.59,2.02,6.75,2.46v2.51h-34.3v-2.51c3.94-.35,6.48-.78,7.62-1.28,1.14-.5,1.71-1.74,1.71-3.71,0-.66-.22-1.81-.66-3.48-.44-1.66-1.05-3.41-1.84-5.25l-5.4-12.99h-35.55c-3.5,8.84-5.6,14.23-6.28,16.18-.68,1.95-1.02,3.49-1.02,4.63,0,2.28,.92,3.85,2.76,4.73,1.14,.53,3.29,.92,6.44,1.18v2.51h-26.73Zm58.1-34.69l-15.46-37.2-15.53,37.2h30.99Z"/>
  <path class="cls-1" d="M468.43,91.27v-2.51c3.47-.39,6.07-1.7,7.81-3.92,1.73-2.22,4.71-8.3,8.92-18.24L513.26,.33h2.69l33.61,76.57c2.24,5.07,4.03,8.21,5.37,9.41,1.34,1.2,3.59,2.02,6.75,2.46v2.51h-34.3v-2.51c3.94-.35,6.48-.78,7.62-1.28,1.14-.5,1.71-1.74,1.71-3.71,0-.66-.22-1.81-.66-3.48-.44-1.66-1.05-3.41-1.84-5.25l-5.4-12.99h-35.55c-3.5,8.84-5.6,14.23-6.28,16.18-.68,1.95-1.02,3.49-1.02,4.63,0,2.28,.92,3.85,2.76,4.73,1.14,.53,3.29,.92,6.44,1.18v2.51h-26.73Zm58.1-34.69l-15.46-37.2-15.53,37.2h30.99Z"/>
  <path class="cls-1" d="M104.56,88.77c4.79-.52,7.89-1.41,9.31-2.66,1.42-1.25,2.13-4.41,2.13-9.48V16.55c0-4.79-.7-7.92-2.1-9.4-1.4-1.47-4.51-2.38-9.34-2.74V1.91h36.74v2.51c-4.79,.26-8,1.08-9.63,2.44-1.63,1.36-2.45,4.29-2.45,8.77V80.52c0,1.5,.24,2.67,.73,3.53,.49,.86,1.56,1.4,3.21,1.62,.98,.13,2,.22,3.09,.26,1.08,.04,3.11,.07,6.08,.07,11.58,0,19.41-.99,23.48-2.97,4.07-1.98,8.02-7.03,11.84-15.17h3.31l-.45,23.41H104.56v-2.51Z"/>
  <path class="cls-1" d="M290.16,64.1c2.32,6.07,5.04,10.9,8.16,14.51,5.44,6.29,12.19,9.43,20.25,9.43,4.37,0,8.14-1.36,11.33-4.09,3.19-2.73,4.78-6.53,4.78-11.41,0-4.4-1.6-8.22-4.81-11.48-2.09-2.07-6.5-5.17-13.23-9.3l-11.69-7.19c-3.52-2.2-6.33-4.42-8.42-6.66-3.88-4.26-5.82-8.97-5.82-14.11,0-6.81,2.3-12.49,6.9-17.01,4.6-4.53,10.69-6.79,18.28-6.79,3.12,0,6.88,.76,11.28,2.28,4.4,1.52,6.91,2.27,7.53,2.27,1.7,0,2.87-.4,3.51-1.19,.65-.79,1.15-1.91,1.51-3.36h5.77l.05,28.75h-3.28c-2.23-8.66-5.81-14.71-10.75-18.14-4.93-3.43-9.81-5.14-14.63-5.14-3.75,0-7.02,1.09-9.81,3.26-2.79,2.18-4.18,5.2-4.18,9.07,0,3.47,1.07,6.44,3.21,8.9,2.14,2.51,5.46,5.12,9.96,7.85l12.04,7.32c7.53,4.57,12.85,8.77,15.94,12.6,3.05,3.87,4.57,8.44,4.57,13.72,0,7.08-2.71,12.99-8.13,17.74-5.42,4.75-12.35,7.12-20.79,7.12-4.24,0-8.67-.79-13.29-2.37-4.62-1.58-7.26-2.37-7.93-2.37-1.61,0-2.69,.48-3.25,1.45-.56,.97-.93,2-1.1,3.1h-5.97l-1.12-28.75h3.15Z"/>
  <path class="cls-1" d="M359.76,88.97c5.96-.44,9.65-1.42,11.08-2.94,1.43-1.52,2.14-5.14,2.14-10.87V16.57c0-4.89-.8-8.05-2.39-9.48-1.6-1.43-5.21-2.32-10.83-2.68V1.91h41.67v2.51c-5.72,.26-9.41,1.14-11.08,2.64-1.67,1.49-2.5,4.66-2.5,9.49v27.68c9.01-7.09,16.38-13.12,22.11-18.1,10.26-8.99,15.38-14.76,15.38-17.3,0-1.8-.87-2.98-2.61-3.55-1.74-.57-4.21-.86-7.4-.86V1.91h38.35v2.51c-4.68,.43-8.36,1.26-11.06,2.5-2.7,1.24-6.43,3.94-11.2,8.12l-28.57,24.44,34.86,34.75c6.35,6.25,10.67,10.14,12.96,11.69,2.29,1.55,5.65,2.57,10.09,3.05v2.31h-44.77v-2.31c4.05-.13,6.79-.43,8.22-.89,1.43-.46,2.15-1.38,2.15-2.74,0-.75-.47-1.89-1.39-3.44-.93-1.54-2.4-3.33-4.4-5.35l-28.19-28.1-4.51,3.86v24.45c0,5.02,.82,8.2,2.47,9.55,1.64,1.34,5.23,2.24,10.76,2.68v2.31h-41.31v-2.31Z"/>
</svg>