<?xml version="1.0" encoding="UTF-8"?>
<svg id="Layer_1" data-name="Layer 1" xmlns="http://www.w3.org/2000/svg" viewBox="0 0 421.79 37.82">
  <defs>
    <style>
      .cls-1 {
        fill: #010101;
      }
    </style>
  </defs>
  <path class="cls-1" d="M44.11,29.48H19.34l-4.65,7.35H0L24,1.09h15.88l23.81,35.74h-15.24l-4.33-7.35Zm-3.92-6.16l-8.39-14.06-8.67,14.06h17.06Z"/>
  <path class="cls-1" d="M100.77,22.82h-14.51v14.01h-13.73V1.09h32.98c4.71,.05,8.34,.36,10.88,.92,2.54,.57,4.69,1.4,6.46,2.5,1.46,.91,2.62,1.91,3.47,3.01,.85,1.1,1.28,2.35,1.28,3.76,0,1.7-.81,3.37-2.42,5.01-1.61,1.64-4.27,2.8-7.98,3.48,3.1,.66,5.3,1.6,6.59,2.83s1.94,3.08,1.94,5.59v2.4c0,1.63,.12,2.74,.37,3.32,.37,.92,1.22,1.6,2.55,2.04v.9h-15.46c-.43-.79-.73-1.43-.91-1.92-.37-1-.56-2.03-.59-3.08l-.09-3.32c-.06-2.28-.85-3.8-2.35-4.56-1.51-.76-4.33-1.14-8.46-1.14Zm8.53-6.5c2.8-.68,4.2-2.02,4.2-4.02,0-2.17-1.36-3.62-4.06-4.36-1.52-.42-3.8-.63-6.84-.63h-16.33v9.6h15.92c3.16,0,5.54-.19,7.12-.58Z"/>
  <path class="cls-1" d="M138.59,1.09h13.96V36.83h-13.96V1.09Z"/>
  <path class="cls-1" d="M213.22,36.83h-52.32v-6.3L195.61,7.42h-33.85V1.09h51.37V7.08l-35.17,23.45h35.26v6.3Z"/>
  <path class="cls-1" d="M252.45,37.82c-9.61,0-16.96-1.39-22.03-4.17-6.81-3.41-10.22-8.32-10.22-14.74s3.4-11.46,10.22-14.74c5.08-2.78,12.42-4.17,22.03-4.17s16.95,1.39,22.03,4.17c6.78,3.28,10.17,8.2,10.17,14.74s-3.39,11.33-10.17,14.74c-5.08,2.78-12.42,4.17-22.03,4.17Zm13.28-9.6c3.25-2.18,4.88-5.29,4.88-9.31s-1.63-7.11-4.9-9.3-7.69-3.29-13.25-3.29-10.01,1.09-13.32,3.27c-3.32,2.18-4.97,5.29-4.97,9.31s1.66,7.13,4.97,9.31c3.31,2.18,7.75,3.27,13.32,3.27s9.99-1.09,13.28-3.27Z"/>
  <path class="cls-1" d="M349.75,36.83h-14.05l-27.46-25.39v25.39h-13.09V1.09h14.73l26.78,24.95V1.09h13.09V36.83Z"/>
  <path class="cls-1" d="M402.22,29.48h-24.77l-4.65,7.35h-14.69L382.1,1.09h15.88l23.81,35.74h-15.24l-4.33-7.35Zm-3.92-6.16l-8.39-14.06-8.67,14.06h17.06Z"/>
</svg>