<?xml version="1.0" encoding="utf-8"?>
<!-- Generator: Adobe Illustrator 27.0.0, SVG Export Plug-In . SVG Version: 6.00 Build 0)  -->
<svg version="1.1" id="Layer_1" xmlns="http://www.w3.org/2000/svg" xmlns:xlink="http://www.w3.org/1999/xlink" x="0px" y="0px"
	 viewBox="0 0 595.3 841.9" style="enable-background:new 0 0 595.3 841.9;" xml:space="preserve">
<style type="text/css">
	.st0{fill:#010101;}
</style>
<g>
	<path class="st0" d="M127.3,420.6c0,1.7-0.4,3.6-1.3,5.6c-0.9,2-2.2,4-4,5.9c-1.8,1.9-4.2,3.5-7,4.7c-2.8,1.2-6.2,1.8-10,1.8
		c-2.9,0-5.5-0.3-7.8-0.8c-2.4-0.5-4.5-1.4-6.4-2.5c-1.9-1.2-3.7-2.7-5.3-4.6c-1.4-1.7-2.7-3.6-3.7-5.7c-1-2.1-1.8-4.4-2.3-6.8
		c-0.5-2.4-0.8-5-0.8-7.7c0-4.4,0.6-8.3,1.9-11.8c1.3-3.5,3.1-6.4,5.5-8.9c2.4-2.5,5.2-4.3,8.4-5.6c3.2-1.3,6.6-1.9,10.2-1.9
		c4.4,0,8.3,0.9,11.8,2.6c3.4,1.8,6.1,3.9,7.9,6.5c1.8,2.6,2.8,5,2.8,7.3c0,1.3-0.4,2.4-1.3,3.3s-2,1.4-3.2,1.4
		c-1.4,0-2.5-0.3-3.2-1s-1.5-1.8-2.4-3.5c-1.4-2.7-3.1-4.7-5.1-6.1c-1.9-1.3-4.3-2-7.2-2c-4.5,0-8.1,1.7-10.8,5.2
		c-2.7,3.4-4,8.3-4,14.7c0,4.2,0.6,7.8,1.8,10.6c1.2,2.8,2.9,4.9,5.1,6.3c2.2,1.4,4.7,2.1,7.7,2.1c3.2,0,5.9-0.8,8-2.4
		c2.2-1.6,3.8-3.9,5-6.9c0.5-1.4,1.1-2.6,1.7-3.5c0.7-0.9,1.8-1.4,3.3-1.4c1.3,0,2.4,0.5,3.4,1.4
		C126.8,418.1,127.3,419.2,127.3,420.6z"/>
	<path class="st0" d="M161.2,382.4c5.6,0,10.5,1.1,14.5,3.4c4.1,2.3,7.1,5.6,9.2,9.8c2.1,4.2,3.1,9.2,3.1,14.9c0,4.2-0.6,8-1.7,11.5
		c-1.1,3.4-2.8,6.4-5.1,9c-2.3,2.5-5.1,4.5-8.4,5.8s-7.1,2-11.4,2c-4.3,0-8.1-0.7-11.4-2.1c-3.4-1.4-6.2-3.3-8.4-5.8
		c-2.3-2.5-4-5.5-5.1-9c-1.2-3.5-1.7-7.3-1.7-11.4c0-4.2,0.6-8,1.8-11.5c1.2-3.5,2.9-6.5,5.2-8.9c2.3-2.5,5.1-4.3,8.3-5.6
		S157,382.4,161.2,382.4z M176.8,410.4c0-4-0.6-7.4-1.9-10.4c-1.3-2.9-3.1-5.1-5.5-6.6s-5.1-2.2-8.2-2.2c-2.2,0-4.2,0.4-6.1,1.2
		c-1.9,0.8-3.5,2-4.8,3.6c-1.4,1.6-2.4,3.6-3.2,6.1s-1.2,5.2-1.2,8.3c0,3.1,0.4,5.9,1.2,8.4c0.8,2.5,1.9,4.6,3.3,6.2
		c1.4,1.6,3.1,2.9,4.9,3.7c1.8,0.8,3.9,1.2,6.1,1.2c2.8,0,5.4-0.7,7.8-2.1c2.4-1.4,4.2-3.6,5.6-6.5
		C176.1,418.4,176.8,414.7,176.8,410.4z"/>
	<path class="st0" d="M208.3,389.1v39.7h22.4c1.8,0,3.2,0.4,4.1,1.3c1,0.9,1.4,2,1.4,3.3c0,1.3-0.5,2.4-1.4,3.3
		c-0.9,0.8-2.3,1.2-4.1,1.2H204c-2.4,0-4.1-0.5-5.2-1.6c-1.1-1.1-1.6-2.8-1.6-5.2v-42c0-2.2,0.5-3.9,1.5-5c1-1.1,2.3-1.7,4-1.7
		c1.7,0,3,0.6,4,1.7C207.8,385.2,208.3,386.8,208.3,389.1z"/>
	<path class="st0" d="M263.6,382.4c5.6,0,10.5,1.1,14.5,3.4c4.1,2.3,7.1,5.6,9.2,9.8c2.1,4.2,3.1,9.2,3.1,14.9c0,4.2-0.6,8-1.7,11.5
		c-1.1,3.4-2.8,6.4-5.1,9c-2.3,2.5-5.1,4.5-8.4,5.8s-7.1,2-11.4,2c-4.3,0-8.1-0.7-11.4-2.1c-3.4-1.4-6.2-3.3-8.4-5.8
		c-2.3-2.5-4-5.5-5.1-9c-1.2-3.5-1.7-7.3-1.7-11.4c0-4.2,0.6-8,1.8-11.5c1.2-3.5,2.9-6.5,5.2-8.9c2.3-2.5,5.1-4.3,8.3-5.6
		S259.5,382.4,263.6,382.4z M279.3,410.4c0-4-0.6-7.4-1.9-10.4c-1.3-2.9-3.1-5.1-5.5-6.6s-5.1-2.2-8.2-2.2c-2.2,0-4.2,0.4-6.1,1.2
		c-1.9,0.8-3.5,2-4.8,3.6c-1.4,1.6-2.4,3.6-3.2,6.1s-1.2,5.2-1.2,8.3c0,3.1,0.4,5.9,1.2,8.4c0.8,2.5,1.9,4.6,3.3,6.2
		c1.4,1.6,3.1,2.9,4.9,3.7c1.8,0.8,3.9,1.2,6.1,1.2c2.8,0,5.4-0.7,7.8-2.1c2.4-1.4,4.2-3.6,5.6-6.5
		C278.6,418.4,279.3,414.7,279.3,410.4z"/>
	<path class="st0" d="M314.8,414.5h-3.9V432c0,2.3-0.5,4-1.5,5.1c-1,1.1-2.3,1.6-4,1.6c-1.8,0-3.1-0.6-4.1-1.7c-1-1.1-1.4-2.8-1.4-5
		v-41.9c0-2.4,0.5-4.1,1.6-5.2c1.1-1.1,2.8-1.6,5.2-1.6h17.9c2.5,0,4.6,0.1,6.4,0.3c1.8,0.2,3.3,0.6,4.8,1.3
		c1.7,0.7,3.2,1.7,4.5,3.1s2.3,2.9,3,4.7c0.7,1.8,1,3.6,1,5.6c0,4.1-1.1,7.3-3.4,9.7c-2.3,2.4-5.8,4.1-10.4,5.2c2,1,3.8,2.6,5.6,4.6
		c1.8,2,3.4,4.2,4.8,6.5c1.4,2.3,2.5,4.4,3.3,6.2c0.8,1.8,1.2,3.1,1.2,3.8c0,0.7-0.2,1.4-0.7,2.1c-0.5,0.7-1.1,1.3-1.9,1.7
		s-1.7,0.6-2.8,0.6c-1.2,0-2.3-0.3-3.1-0.9c-0.8-0.6-1.6-1.3-2.2-2.2c-0.6-0.9-1.4-2.2-2.5-3.9l-4.4-7.4c-1.6-2.7-3-4.8-4.3-6.2
		c-1.3-1.4-2.5-2.4-3.8-2.9C318.3,414.8,316.7,414.5,314.8,414.5z M321.1,391.6h-10.2v15h9.9c2.7,0,4.9-0.2,6.7-0.7s3.2-1.2,4.1-2.3
		c1-1.1,1.4-2.6,1.4-4.6c0-1.5-0.4-2.8-1.2-4c-0.8-1.2-1.8-2-3.2-2.6C327.4,391.9,324.9,391.6,321.1,391.6z"/>
	<path class="st0" d="M389.5,431.6l-2.6-6.8h-22.1l-2.6,7c-1,2.7-1.9,4.6-2.6,5.5c-0.7,1-1.9,1.4-3.5,1.4c-1.4,0-2.6-0.5-3.7-1.5
		s-1.6-2.2-1.6-3.5c0-0.7,0.1-1.5,0.4-2.3c0.2-0.8,0.7-1.9,1.2-3.3l13.9-35.4c0.4-1,0.9-2.2,1.4-3.7c0.6-1.4,1.2-2.6,1.8-3.5
		c0.6-0.9,1.5-1.7,2.5-2.3c1-0.6,2.3-0.9,3.8-0.9c1.5,0,2.8,0.3,3.8,0.9c1,0.6,1.9,1.3,2.5,2.2c0.6,0.9,1.2,1.9,1.6,3
		c0.4,1.1,1,2.5,1.7,4.2l14.2,35.2c1.1,2.7,1.7,4.6,1.7,5.8c0,1.3-0.5,2.4-1.6,3.5s-2.3,1.6-3.8,1.6c-0.9,0-1.6-0.2-2.2-0.5
		c-0.6-0.3-1.1-0.7-1.6-1.3c-0.4-0.5-0.9-1.4-1.4-2.5C390.3,433.5,389.9,432.5,389.5,431.6z M367.7,416.5h16.3l-8.2-22.5
		L367.7,416.5z"/>
	<path class="st0" d="M416.2,383.3h14.4c3.7,0,6.9,0.3,9.6,1c2.7,0.7,5.1,2,7.3,3.9c5.7,4.9,8.5,12.2,8.5,22.1c0,3.3-0.3,6.3-0.9,9
		c-0.6,2.7-1.4,5.1-2.6,7.3c-1.2,2.2-2.7,4.1-4.6,5.8c-1.5,1.3-3.1,2.4-4.8,3.2c-1.7,0.8-3.6,1.4-5.6,1.7c-2,0.3-4.2,0.5-6.7,0.5
		h-14.4c-2,0-3.5-0.3-4.5-0.9c-1-0.6-1.7-1.5-2-2.6c-0.3-1.1-0.5-2.5-0.5-4.3v-40c0-2.4,0.5-4.1,1.6-5.2
		C412.1,383.9,413.9,383.3,416.2,383.3z M420.5,392.1v37h8.4c1.8,0,3.3,0,4.3-0.1c1-0.1,2.1-0.3,3.2-0.7c1.1-0.4,2.1-1,2.9-1.7
		c3.7-3.1,5.5-8.5,5.5-16.1c0-5.4-0.8-9.4-2.4-12.1c-1.6-2.7-3.6-4.4-6-5.1c-2.4-0.7-5.3-1.1-8.6-1.1H420.5z"/>
	<path class="st0" d="M489.7,382.4c5.6,0,10.5,1.1,14.5,3.4c4.1,2.3,7.1,5.6,9.2,9.8c2.1,4.2,3.1,9.2,3.1,14.9c0,4.2-0.6,8-1.7,11.5
		c-1.1,3.4-2.8,6.4-5.1,9c-2.3,2.5-5.1,4.5-8.4,5.8s-7.1,2-11.4,2c-4.3,0-8.1-0.7-11.4-2.1c-3.4-1.4-6.2-3.3-8.4-5.8
		c-2.3-2.5-4-5.5-5.1-9c-1.2-3.5-1.7-7.3-1.7-11.4c0-4.2,0.6-8,1.8-11.5c1.2-3.5,2.9-6.5,5.2-8.9c2.3-2.5,5.1-4.3,8.3-5.6
		S485.6,382.4,489.7,382.4z M505.4,410.4c0-4-0.6-7.4-1.9-10.4c-1.3-2.9-3.1-5.1-5.5-6.6s-5.1-2.2-8.2-2.2c-2.2,0-4.2,0.4-6.1,1.2
		c-1.9,0.8-3.5,2-4.8,3.6c-1.4,1.6-2.4,3.6-3.2,6.1s-1.2,5.2-1.2,8.3c0,3.1,0.4,5.9,1.2,8.4c0.8,2.5,1.9,4.6,3.3,6.2
		c1.4,1.6,3.1,2.9,4.9,3.7c1.8,0.8,3.9,1.2,6.1,1.2c2.8,0,5.4-0.7,7.8-2.1c2.4-1.4,4.2-3.6,5.6-6.5
		C504.7,418.4,505.4,414.7,505.4,410.4z"/>
</g>
</svg>
