<?xml version="1.0" encoding="utf-8"?>
<!-- Generator: Adobe Illustrator 27.0.0, SVG Export Plug-In . SVG Version: 6.00 Build 0)  -->
<svg version="1.1" id="Layer_1" xmlns="http://www.w3.org/2000/svg" xmlns:xlink="http://www.w3.org/1999/xlink" x="0px" y="0px"
	 viewBox="0 0 595.3 841.9" style="enable-background:new 0 0 595.3 841.9;" xml:space="preserve">
<style type="text/css">
	.st0{fill:#010101;}
</style>
<g>
	<path class="st0" d="M164.5,416.3c-0.3-2.2-0.9-4.2-1.8-6.2c-0.9-2-2.1-3.8-3.4-5.3c-1.4-1.5-2.9-2.8-4.7-3.7
		c-1.7-0.9-3.6-1.4-5.6-1.4c-2.6,0-4.9,0.6-6.7,1.9c-1.8,1.3-3.3,2.9-4.4,4.8c-1.1,2-1.9,4.1-2.3,6.5c-0.5,2.4-0.7,4.7-0.7,7
		c0,2.9,0.4,5.6,1.1,8.1c0.7,2.5,1.8,4.6,3.3,6.4c1.5,1.8,3.3,3.2,5.4,4.2c2.2,1,4.7,1.5,7.6,1.5c2.1,0,3.9-0.3,5.6-1
		c1.7-0.7,3.2-1.5,4.6-2.5c1.3-1,2.5-2.2,3.6-3.5c1-1.3,1.9-2.6,2.7-3.8l1.6,1.8c-2.5,4.6-5.6,8.1-9.3,10.5c-3.7,2.4-8,3.7-13,3.7
		c-3.3,0-6.3-0.6-9.1-1.7c-2.8-1.2-5.2-2.8-7.2-4.9c-2-2.1-3.6-4.7-4.8-7.7c-1.1-3-1.7-6.3-1.7-10.1c0-3.7,0.6-7,1.8-10
		c1.2-3,2.8-5.5,4.9-7.7c2.1-2.1,4.6-3.8,7.6-4.9c2.9-1.2,6.2-1.8,9.7-1.8c1.2,0,2.7,0.1,4.4,0.4c1.7,0.3,3.3,0.6,4.8,0.9
		c1.6,0.3,3,0.6,4.2,0.9c1.2,0.3,1.9,0.4,2.1,0.4c0.4,0,0.6,0,0.7-0.1c0,0.9,0,1.8-0.1,2.7c0,0.9-0.1,1.8-0.1,2.7
		c0,2,0.1,3.9,0.2,5.9c0.1,2,0.3,3.9,0.5,5.9H164.5z"/>
	<path class="st0" d="M187.8,416.4c2,0,3.9,0.3,5.7,1c1.8,0.6,3.5,1.6,4.9,2.8c1.4,1.2,2.6,2.7,3.5,4.5c0.9,1.8,1.3,3.8,1.3,6.1
		c0,2.3-0.4,4.3-1.3,6.1c-0.9,1.8-2,3.3-3.5,4.5c-1.4,1.2-3.1,2.2-4.9,2.8c-1.8,0.6-3.8,1-5.7,1c-2,0-3.9-0.3-5.7-1
		c-1.8-0.6-3.5-1.6-4.9-2.8c-1.4-1.2-2.6-2.7-3.5-4.5c-0.9-1.8-1.3-3.8-1.3-6.1c0-2.3,0.4-4.3,1.3-6.1c0.9-1.8,2-3.3,3.5-4.5
		c1.4-1.2,3.1-2.2,4.9-2.8C183.9,416.7,185.8,416.4,187.8,416.4z M181.2,429.4c0,2.2,0.2,4.1,0.6,5.8c0.4,1.6,0.9,3,1.6,4.1
		c0.7,1.1,1.5,1.8,2.3,2.4c0.9,0.5,1.8,0.8,2.7,0.8c1.8,0,3.3-0.9,4.4-2.6c1.1-1.7,1.6-4.3,1.6-7.7c0-2.2-0.2-4.1-0.6-5.8
		c-0.4-1.6-0.9-3-1.6-4.1s-1.5-1.8-2.3-2.4c-0.9-0.5-1.8-0.8-2.7-0.8c-1.8,0-3.3,0.9-4.4,2.6C181.7,423.4,181.2,426,181.2,429.4z"/>
	<path class="st0" d="M218,420.9c1.5-1.4,3.1-2.5,4.6-3.3c1.5-0.8,3.3-1.2,5.2-1.2c2.7,0,4.8,0.8,6.4,2.4c1.6,1.6,2.3,3.8,2.3,6.5
		v13.3c0,0.8,0.1,1.5,0.4,2.1c0.3,0.5,0.6,1,1,1.3c0.4,0.3,0.9,0.5,1.4,0.6c0.5,0.1,1,0.2,1.6,0.2v1.4c-0.9,0-2-0.1-3.1-0.2
		c-1.2-0.1-2.9-0.1-5.2-0.1c-2.2,0-3.8,0-5.1,0.1c-1.2,0-2.2,0.1-3,0.2v-1.4c0.5,0,1-0.1,1.5-0.2c0.5-0.1,1-0.3,1.4-0.6
		c0.4-0.3,0.7-0.7,1-1.3s0.4-1.2,0.4-2.1v-13.1c0-1.4-0.5-2.5-1.5-3.3c-1-0.8-2.2-1.3-3.8-1.3c-1.1,0-2.1,0.3-3,0.8
		c-0.9,0.5-1.8,1.2-2.5,2v15c0,0.8,0.1,1.5,0.4,2.1c0.3,0.5,0.6,1,1,1.3c0.4,0.3,0.9,0.5,1.4,0.6c0.5,0.1,1,0.2,1.5,0.2v1.4
		c-0.4,0-0.9-0.1-1.4-0.1c-0.5,0-1,0-1.7-0.1c-0.6,0-1.4,0-2.2-0.1c-0.8,0-1.8,0-3,0c-2.2,0-3.9,0-5.1,0.1c-1.3,0-2.3,0.1-3.3,0.2
		v-1.4c0.6,0,1.1-0.1,1.7-0.2c0.6-0.1,1-0.3,1.5-0.6c0.4-0.3,0.8-0.7,1-1.3s0.4-1.2,0.4-2.1v-16.2c0-2.4-1.5-3.5-4.4-3.5v-1.4
		c2.2-0.1,4.3-0.2,6.5-0.3c2.2-0.1,4-0.4,5.7-0.8V420.9z"/>
	<path class="st0" d="M254.7,420.9c1.5-1.4,3.1-2.5,4.6-3.3c1.5-0.8,3.3-1.2,5.2-1.2c2.7,0,4.8,0.8,6.4,2.4c1.6,1.6,2.3,3.8,2.3,6.5
		v13.3c0,0.8,0.1,1.5,0.4,2.1s0.6,1,1,1.3c0.4,0.3,0.9,0.5,1.4,0.6c0.5,0.1,1,0.2,1.6,0.2v1.4c-0.9,0-2-0.1-3.1-0.2
		c-1.2-0.1-2.9-0.1-5.2-0.1c-2.2,0-3.8,0-5.1,0.1c-1.2,0-2.2,0.1-3,0.2v-1.4c0.5,0,1-0.1,1.5-0.2c0.5-0.1,1-0.3,1.4-0.6
		c0.4-0.3,0.7-0.7,1-1.3c0.3-0.5,0.4-1.2,0.4-2.1v-13.1c0-1.4-0.5-2.5-1.5-3.3c-1-0.8-2.2-1.3-3.8-1.3c-1.1,0-2.1,0.3-3,0.8
		c-0.9,0.5-1.8,1.2-2.5,2v15c0,0.8,0.1,1.5,0.4,2.1c0.3,0.5,0.6,1,1,1.3c0.4,0.3,0.9,0.5,1.4,0.6c0.5,0.1,1,0.2,1.5,0.2v1.4
		c-0.4,0-0.9-0.1-1.4-0.1c-0.5,0-1,0-1.7-0.1c-0.6,0-1.4,0-2.2-0.1c-0.8,0-1.8,0-3,0c-2.2,0-3.9,0-5.1,0.1c-1.3,0-2.3,0.1-3.3,0.2
		v-1.4c0.6,0,1.1-0.1,1.7-0.2c0.6-0.1,1-0.3,1.5-0.6c0.4-0.3,0.8-0.7,1-1.3s0.4-1.2,0.4-2.1v-16.2c0-2.4-1.5-3.5-4.4-3.5v-1.4
		c2.2-0.1,4.3-0.2,6.5-0.3c2.2-0.1,4-0.4,5.7-0.8V420.9z"/>
	<path class="st0" d="M288.4,430.7c0,3,0.8,5.4,2.3,7.3c1.6,1.9,3.8,2.9,6.6,2.9c1.5,0,3-0.4,4.5-1.1c1.5-0.7,2.7-1.7,3.7-3l1.6,1.8
		c-1.7,2.1-3.7,3.7-6,4.8c-2.3,1.1-4.7,1.7-7.2,1.7c-2.2,0-4.1-0.3-5.8-1c-1.7-0.7-3.2-1.6-4.4-2.9c-1.2-1.2-2.2-2.8-2.8-4.5
		c-0.7-1.8-1-3.7-1-5.9c0-2.2,0.3-4.1,1-5.9c0.7-1.8,1.6-3.3,2.8-4.5c1.2-1.2,2.7-2.2,4.4-2.9c1.7-0.7,3.7-1,5.8-1
		c2.1,0,4,0.4,5.6,1.1c1.6,0.7,3,1.7,4.1,3c1.1,1.3,2,2.8,2.6,4.6c0.6,1.7,1,3.6,1.2,5.6H288.4z M296.8,426.7c0.9,0,1.5-0.1,1.8-0.4
		c0.3-0.2,0.5-0.8,0.5-1.6c0-2.1-0.4-2.5-1.2-3.7c-0.8-1.3-2.2-1.9-4.1-1.9c-1,0-1.9,0.3-2.5,0.9s-1.2,1.3-1.6,2.2
		c-0.4,0.9-0.7,1.9-0.9,2.9c-0.2,1-0.3,0.7-0.3,1.6H296.8z"/>
	<path class="st0" d="M336.7,439.4c-2,1.8-4,3.2-6,4.2c-2,1-4.2,1.5-6.4,1.5c-2,0-3.9-0.3-5.7-1c-1.8-0.6-3.5-1.6-4.9-2.8
		c-1.4-1.2-2.6-2.7-3.5-4.5c-0.9-1.8-1.3-3.8-1.3-6.1c0-2.3,0.4-4.3,1.3-6.1c0.9-1.8,2-3.3,3.5-4.5c1.4-1.2,3.1-2.2,4.9-2.8
		c1.8-0.6,3.8-1,5.7-1c0.8,0,1.5,0,2.2,0.1c0.7,0.1,1.4,0.2,2,0.3c0.7,0.1,1.3,0.2,1.9,0.3c0.6,0.1,1.3,0.1,1.9,0.1h1.6
		c0,0.7,0,1.6,0,2.6c0,1,0.1,2.1,0.1,3.3c0.1,1.2,0.1,2.3,0.2,3.4c0.1,1.1,0.2,2.2,0.3,3.1h-1.3c-0.4-1-0.8-2.1-1.3-3.4
		c-0.5-1.2-1.2-2.4-1.9-3.5c-0.8-1.1-1.7-2-2.7-2.7c-1-0.7-2.2-1.1-3.5-1.1c-2.2,0-3.8,0.8-5,2.5c-1.2,1.6-1.7,3.7-1.7,6.1
		c0,1.9,0.2,3.6,0.7,5.3c0.5,1.6,1.2,3,2.1,4.2c0.9,1.2,2,2.1,3.3,2.7c1.3,0.7,2.7,1,4.2,1c1.4,0,2.7-0.2,3.9-0.7
		c1.2-0.5,2.4-1.3,3.8-2.3L336.7,439.4z"/>
	<path class="st0" d="M339.6,419.9v-1.6c1.4-0.1,2.7-0.4,3.8-1.1c1.1-0.6,2.1-1.4,3-2.3c0.9-0.9,1.6-2,2.3-3.2
		c0.7-1.2,1.2-2.4,1.7-3.7h1.3v9.5h9.1v2.4h-9.1v15c0,2.1,0.3,3.5,0.9,4.3c0.6,0.8,1.6,1.2,3.1,1.2c0.8,0,1.6-0.3,2.5-0.8
		c0.9-0.6,1.7-1.2,2.5-2l1.4,1.6c-0.7,0.6-1.4,1.3-2.2,2c-0.8,0.7-1.7,1.4-2.7,1.9c-0.9,0.6-1.9,1.1-2.8,1.4
		c-0.9,0.4-1.9,0.6-2.7,0.6c-2.3,0-4.1-0.6-5.4-1.8c-1.3-1.2-1.9-3-1.9-5.4v-17.9H339.6z"/>
	<path class="st0" d="M374,438.6c0,1.7,0.5,2.8,1.5,3.4c1,0.5,2.1,0.8,3.4,0.8v1.4c-0.6,0-1.1-0.1-1.7-0.1c-0.6,0-1.2,0-1.8-0.1
		c-0.7,0-1.4,0-2.2-0.1c-0.8,0-1.8,0-3,0c-2.2,0-3.9,0-5.1,0.1c-1.3,0-2.4,0.1-3.4,0.2v-1.4c1.2,0,2.3-0.3,3.3-0.8
		c1-0.5,1.5-1.7,1.5-3.4v-16.2c0-1.2-0.4-2.1-1.1-2.7c-0.7-0.6-2-0.8-3.6-0.8v-1.4c2.4-0.1,4.7-0.3,6.9-0.5c2.2-0.2,4.2-0.6,5.9-1.1
		c0,1.2-0.1,2.3-0.1,3.5c0,1.1-0.1,2.2-0.1,3.3V438.6z M369.8,396.7c1.4,0,2.6,0.5,3.6,1.6c1,1,1.5,2.3,1.5,3.9
		c0,1.6-0.5,2.8-1.5,3.9c-1,1-2.2,1.6-3.6,1.6c-1.4,0-2.6-0.5-3.6-1.6c-1-1-1.5-2.3-1.5-3.9c0-1.6,0.5-2.8,1.5-3.9
		C367.1,397.2,368.3,396.7,369.8,396.7z"/>
	<path class="st0" d="M408.8,439.4c-2,1.8-4,3.2-6,4.2c-2,1-4.2,1.5-6.4,1.5c-2,0-3.9-0.3-5.7-1c-1.8-0.6-3.5-1.6-4.9-2.8
		s-2.6-2.7-3.5-4.5c-0.9-1.8-1.3-3.8-1.3-6.1c0-2.3,0.4-4.3,1.3-6.1c0.9-1.8,2-3.3,3.5-4.5c1.4-1.2,3.1-2.2,4.9-2.8
		c1.8-0.6,3.8-1,5.7-1c0.8,0,1.5,0,2.2,0.1c0.7,0.1,1.4,0.2,2,0.3c0.7,0.1,1.3,0.2,1.9,0.3c0.6,0.1,1.3,0.1,1.9,0.1h1.6
		c0,0.7,0,1.6,0,2.6c0,1,0.1,2.1,0.1,3.3c0.1,1.2,0.1,2.3,0.2,3.4c0.1,1.1,0.2,2.2,0.3,3.1h-1.3c-0.4-1-0.8-2.1-1.3-3.4
		c-0.5-1.2-1.2-2.4-1.9-3.5c-0.8-1.1-1.7-2-2.7-2.7c-1-0.7-2.2-1.1-3.5-1.1c-2.2,0-3.8,0.8-5,2.5c-1.2,1.6-1.7,3.7-1.7,6.1
		c0,1.9,0.2,3.6,0.7,5.3c0.5,1.6,1.2,3,2.1,4.2c0.9,1.2,2,2.1,3.3,2.7c1.3,0.7,2.7,1,4.2,1c1.4,0,2.7-0.2,3.9-0.7
		c1.2-0.5,2.4-1.3,3.8-2.3L408.8,439.4z"/>
	<path class="st0" d="M440.6,439c0,1.2,0.4,2.1,1.1,2.7c0.7,0.6,2,0.8,3.6,0.8v1.4c-2.4,0.1-4.7,0.2-6.8,0.3
		c-2.2,0.1-4.1,0.4-5.7,0.8v-4.2c-1.4,1.1-2.9,2-4.6,2.9c-1.6,0.8-3.4,1.3-5.3,1.3c-2.4,0-4.3-0.8-5.7-2.3c-1.5-1.6-2.2-3.9-2.2-7
		v-13.3c0-2.4-1.5-3.5-4.4-3.5v-1.4c2.2-0.1,4.3-0.2,6.5-0.3c2.2-0.1,4-0.4,5.7-0.8v18.8c0,1.6,0.4,2.9,1.2,3.8
		c0.8,0.9,1.9,1.3,3.2,1.3c1.2,0,2.3-0.2,3.2-0.6c0.9-0.4,1.7-1,2.4-1.8v-15.5c0-1.2-0.4-2.1-1.1-2.7c-0.7-0.6-2-0.8-3.6-0.8v-1.4
		c2.4-0.1,4.7-0.2,6.8-0.3c2.2-0.1,4.1-0.4,5.7-0.8V439z"/>
	<path class="st0" d="M447.1,419.9v-1.6c1.4-0.1,2.7-0.4,3.8-1.1c1.1-0.6,2.1-1.4,3-2.3c0.9-0.9,1.6-2,2.3-3.2
		c0.7-1.2,1.2-2.4,1.7-3.7h1.3v9.5h9.1v2.4h-9.1v15c0,2.1,0.3,3.5,0.9,4.3c0.6,0.8,1.6,1.2,3.1,1.2c0.8,0,1.6-0.3,2.5-0.8
		c0.9-0.6,1.7-1.2,2.5-2l1.4,1.6c-0.7,0.6-1.4,1.3-2.2,2c-0.8,0.7-1.7,1.4-2.7,1.9c-0.9,0.6-1.9,1.1-2.8,1.4
		c-0.9,0.4-1.9,0.6-2.7,0.6c-2.3,0-4.1-0.6-5.4-1.8c-1.3-1.2-1.9-3-1.9-5.4v-17.9H447.1z"/>
</g>
</svg>
