<?xml version="1.0" encoding="utf-8"?>
<!-- Generator: Adobe Illustrator 27.0.0, SVG Export Plug-In . SVG Version: 6.00 Build 0)  -->
<svg version="1.1" id="Layer_1" xmlns="http://www.w3.org/2000/svg" xmlns:xlink="http://www.w3.org/1999/xlink" x="0px" y="0px"
	 viewBox="0 0 595.3 841.9" style="enable-background:new 0 0 595.3 841.9;" xml:space="preserve">
<style type="text/css">
	.st0{fill:#010101;stroke:#010101;stroke-miterlimit:10;}
</style>
<g>
	<path class="st0" d="M130.9,435.4v2.4c0,1.4,0,2.5,0.1,3.4s0.2,1.6,0.3,2.1c0.1,0.5,0.3,0.8,0.5,1c0.2,0.2,0.6,0.4,1,0.6l0.1,1.3
		c-2.5,1.4-4.9,2.6-7.3,3.6c-2.4,1-4.8,1.8-7.2,2.5c-2.4,0.6-4.8,1.1-7.2,1.3c-2.4,0.3-4.8,0.4-7.3,0.4c-5.2,0-9.9-0.7-14.2-2.2
		c-4.3-1.5-7.9-3.6-11-6.4c-3-2.8-5.4-6.2-7.1-10.3c-1.7-4.1-2.5-8.7-2.5-13.8c0-5.3,0.9-9.9,2.6-14.1c1.8-4.1,4.2-7.6,7.3-10.4
		c3.1-2.8,6.8-4.9,11-6.4c4.3-1.5,8.9-2.2,13.9-2.2v7.1c-4.1,0-7.8,0.6-11.2,1.7c-3.4,1.1-6.3,2.8-8.8,5.1c-2.5,2.2-4.4,5-5.7,8.1
		c-1.4,3.2-2,6.8-2,11s0.7,7.8,2,10.9c1.3,3.2,3.2,5.8,5.7,8c2.4,2.2,5.3,3.8,8.7,5c3.4,1.1,7.2,1.7,11.3,1.7c1.9,0,3.8-0.1,5.7-0.2
		c1.9-0.1,3.7-0.4,5.5-0.8c1.8-0.4,3.5-0.9,5.1-1.4c1.6-0.5,3.1-1.2,4.4-2.1v-6.8H130.9z M103.9,388.1c2.1,0,4.2,0.1,6,0.4
		c1.9,0.3,3.7,0.6,5.4,1.1s3.3,1,4.8,1.7c1.5,0.7,3,1.4,4.4,2.1c0.4,0.2,0.8,0.2,1.2-0.1c0.4-0.3,0.7-0.8,0.9-1.5h1l2.8,15.3
		l-1.2,0.4c-0.5-1.4-1.3-2.6-2.4-3.8c-1-1.1-2.2-2.1-3.4-3c-1.2-0.8-2.5-1.6-3.8-2.1c-1.3-0.6-2.5-1.1-3.5-1.4
		c-2.1-0.7-4.2-1.2-6.3-1.6c-2.1-0.3-4.1-0.5-6-0.5V388.1z M124.5,438v-6.7c0-1.1-0.1-2.1-0.2-2.9c-0.2-0.8-0.4-1.4-0.8-2
		c-0.4-0.5-0.9-1-1.5-1.4c-0.6-0.4-1.4-0.7-2.3-1v-1.3h8.3V438H124.5z M127.5,437.8v-15.1h7.4v1.3c-0.7,0.3-1.3,0.6-1.8,1
		c-0.5,0.4-0.9,0.9-1.2,1.4c-0.3,0.5-0.6,1.2-0.7,2c-0.2,0.8-0.2,1.7-0.2,2.9v6.5H127.5z"/>
	<path class="st0" d="M149.7,403.6v-5.9c0-1.1-0.1-2.1-0.2-2.9c-0.1-0.8-0.4-1.5-0.6-2c-0.3-0.5-0.7-1-1.2-1.3
		c-0.5-0.4-1.1-0.7-1.8-1v-1.3h7.2v14.5H149.7z M153,435.1v17.5h-7.2v-1.3c0.7-0.3,1.3-0.6,1.8-1c0.5-0.4,0.9-0.8,1.2-1.3
		c0.3-0.5,0.5-1.2,0.6-2c0.1-0.8,0.2-1.7,0.2-2.9v-9H153z M190.9,452.7h-41.2v-63.6h43.4l2.2,6.6h-39.2V417h31.5v6.3h-31.5v22.8
		h34.1L190.9,452.7z M152.7,403.6v-14.5h7.4v1.3c-0.7,0.3-1.3,0.6-1.8,1c-0.5,0.4-0.9,0.8-1.2,1.3c-0.3,0.5-0.6,1.2-0.7,2
		c-0.2,0.8-0.2,1.8-0.2,2.9v5.9H152.7z M156.2,435.1v9c0,1.1,0.1,2.1,0.2,2.9c0.2,0.8,0.4,1.4,0.7,2c0.3,0.5,0.7,1,1.2,1.3
		c0.5,0.4,1.1,0.7,1.8,1v1.3h-7.4v-17.5H156.2z M175.3,417h7c0.9,0,1.6-0.1,2.2-0.3c0.6-0.2,1.1-0.5,1.5-0.9c0.4-0.4,0.8-1,1.1-1.7
		c0.3-0.7,0.6-1.5,0.9-2.5h1v9.7h-13.5V417z M175.3,418.9h13.5v9.4h-1c-0.3-1-0.6-1.8-0.9-2.4c-0.3-0.7-0.6-1.2-1.1-1.6
		c-0.4-0.4-0.9-0.7-1.5-0.9c-0.6-0.2-1.3-0.3-2.2-0.3h-7V418.9z M188.8,389.1c0.8,0,1.5,0,2-0.1c0.5-0.1,1-0.1,1.4-0.3
		c0.4-0.1,0.8-0.3,1-0.5c0.3-0.2,0.5-0.5,0.8-0.8h1.1l2,13l-1,0.4c-0.3-0.9-0.6-1.7-1-2.3c-0.4-0.6-0.9-1.1-1.5-1.5
		c-0.6-0.4-1.5-0.7-2.5-0.9c-1-0.2-2.3-0.3-3.9-0.4L188.8,389.1z M189.2,446.1h1c1,0,1.9-0.1,2.8-0.4c0.9-0.2,1.8-0.6,2.6-1.1
		c0.8-0.5,1.5-1.1,2.2-1.9c0.7-0.7,1.2-1.6,1.6-2.6l1.1,0.4l-3.7,14h-1c-0.3-0.4-0.5-0.7-0.8-0.9c-0.3-0.2-0.6-0.4-0.9-0.5
		c-0.3-0.1-0.8-0.2-1.3-0.3c-0.5-0.1-1.1-0.1-1.8-0.1h-1L189.2,446.1z"/>
	<path class="st0" d="M274.7,435c-1.7,4.1-4.1,7.5-7.2,10.3c-3,2.8-6.7,4.9-10.9,6.4c-4.2,1.5-8.8,2.2-13.7,2.2
		c-5,0-9.6-0.7-13.8-2.2c-4.2-1.5-7.9-3.6-11-6.4c-3.1-2.8-5.5-6.2-7.2-10.3c-1.7-4.1-2.6-8.7-2.6-13.8c0-5.2,0.9-9.8,2.6-14
		c1.7-4.1,4.1-7.6,7.2-10.4c3.1-2.8,6.7-5,11-6.4c4.2-1.5,8.8-2.2,13.8-2.2c4.9,0,9.5,0.7,13.7,2.2c4.2,1.5,7.8,3.6,10.9,6.4
		c3,2.8,5.4,6.3,7.2,10.4c1.7,4.1,2.6,8.8,2.6,14C277.3,426.3,276.4,430.9,274.7,435z M268.3,410.3c-1.4-3.2-3.3-5.9-5.8-8.1
		c-2.5-2.2-5.3-3.9-8.7-5.1c-3.3-1.2-6.9-1.7-10.9-1.7c-4,0-7.6,0.6-11,1.7c-3.4,1.2-6.3,2.9-8.7,5.1c-2.4,2.2-4.3,4.9-5.7,8.1
		c-1.4,3.2-2.1,6.8-2.1,10.9c0,4,0.7,7.6,2.1,10.7c1.4,3.2,3.3,5.8,5.7,8c2.4,2.2,5.3,3.9,8.7,5.1c3.4,1.2,7,1.8,11,1.8
		c3.9,0,7.5-0.6,10.9-1.8c3.3-1.2,6.2-2.9,8.7-5.1c2.5-2.2,4.4-4.8,5.8-8c1.4-3.2,2.1-6.7,2.1-10.7
		C270.3,417.1,269.7,413.5,268.3,410.3z"/>
	<path class="st0" d="M292.7,403.6v-5.9c0-1.1-0.1-2.1-0.2-2.9c-0.1-0.8-0.4-1.5-0.6-2c-0.3-0.5-0.7-1-1.2-1.3
		c-0.5-0.4-1.1-0.7-1.8-1v-1.3h7.2v14.5H292.7z M295.9,435.1v17.5h-7.2v-1.3c0.7-0.3,1.3-0.6,1.8-1c0.5-0.4,0.9-0.8,1.2-1.3
		c0.3-0.5,0.5-1.2,0.6-2c0.1-0.8,0.2-1.7,0.2-2.9v-9H295.9z M299.1,426.6v26.1h-6.4v-63.6H324c6,0,10.5,1.6,13.7,4.8
		c3.2,3.2,4.7,7.9,4.7,13.9c0,3.3-0.4,6.2-1.2,8.6c-0.8,2.4-2,4.3-3.5,5.8c-1.6,1.5-3.5,2.6-5.8,3.3c-2.3,0.7-4.9,1.1-7.9,1.1H299.1
		z M295.7,403.6v-14.5h7.4v1.3c-0.7,0.3-1.3,0.6-1.8,1c-0.5,0.4-0.9,0.8-1.2,1.3c-0.3,0.5-0.6,1.2-0.7,2c-0.2,0.8-0.2,1.8-0.2,2.9
		v5.9H295.7z M299.1,435.1v9c0,1.1,0.1,2.1,0.2,2.9c0.2,0.8,0.4,1.4,0.7,2c0.3,0.5,0.7,1,1.2,1.3c0.5,0.4,1.1,0.7,1.8,1v1.3h-7.4
		v-17.5H299.1z M299.1,396v23.6h23.4c4.5,0,7.9-0.9,10-2.8c2.1-1.8,3.2-4.9,3.2-9c0-3.8-1.1-6.7-3.2-8.8c-2.1-2-5.5-3-10-3H299.1z
		 M324.5,424l10.6,16.7c1.4,2.2,2.6,4,3.5,5.3c0.9,1.3,1.7,2.4,2.4,3.1c0.6,0.7,1.2,1.2,1.6,1.5c0.5,0.3,0.9,0.6,1.4,0.8v1.3h-12.4
		v-1.3c0.4-0.2,0.7-0.5,0.8-0.8c0.1-0.3,0.1-0.7,0-1.3c-0.2-0.6-0.5-1.3-1-2.2c-0.5-0.9-1.3-2.2-2.3-3.7L317,424H324.5z"/>
	<path class="st0" d="M415.9,435.4v2.4c0,1.4,0,2.5,0.1,3.4s0.2,1.6,0.3,2.1c0.1,0.5,0.3,0.8,0.5,1c0.2,0.2,0.6,0.4,1,0.6l0.1,1.3
		c-2.5,1.4-4.9,2.6-7.3,3.6c-2.4,1-4.8,1.8-7.2,2.5c-2.4,0.6-4.8,1.1-7.2,1.3c-2.4,0.3-4.8,0.4-7.3,0.4c-5.2,0-9.9-0.7-14.2-2.2
		c-4.3-1.5-7.9-3.6-11-6.4c-3-2.8-5.4-6.2-7.1-10.3c-1.7-4.1-2.5-8.7-2.5-13.8c0-5.3,0.9-9.9,2.6-14.1c1.8-4.1,4.2-7.6,7.3-10.4
		c3.1-2.8,6.8-4.9,11-6.4c4.3-1.5,8.9-2.2,13.9-2.2v7.1c-4.1,0-7.8,0.6-11.2,1.7c-3.4,1.1-6.3,2.8-8.8,5.1c-2.5,2.2-4.4,5-5.7,8.1
		c-1.4,3.2-2,6.8-2,11s0.7,7.8,2,10.9c1.3,3.2,3.2,5.8,5.7,8c2.4,2.2,5.3,3.8,8.7,5c3.4,1.1,7.2,1.7,11.3,1.7c1.9,0,3.8-0.1,5.7-0.2
		c1.9-0.1,3.7-0.4,5.5-0.8c1.8-0.4,3.5-0.9,5.1-1.4c1.6-0.5,3.1-1.2,4.4-2.1v-6.8H415.9z M388.8,388.1c2.1,0,4.2,0.1,6,0.4
		c1.9,0.3,3.7,0.6,5.4,1.1s3.3,1,4.8,1.7c1.5,0.7,3,1.4,4.4,2.1c0.4,0.2,0.8,0.2,1.2-0.1c0.4-0.3,0.7-0.8,0.9-1.5h1l2.8,15.3
		l-1.2,0.4c-0.5-1.4-1.3-2.6-2.4-3.8c-1-1.1-2.2-2.1-3.4-3c-1.2-0.8-2.5-1.6-3.8-2.1c-1.3-0.6-2.5-1.1-3.5-1.4
		c-2.1-0.7-4.2-1.2-6.3-1.6c-2.1-0.3-4.1-0.5-6-0.5V388.1z M409.5,438v-6.7c0-1.1-0.1-2.1-0.2-2.9c-0.2-0.8-0.4-1.4-0.8-2
		c-0.4-0.5-0.9-1-1.5-1.4c-0.6-0.4-1.4-0.7-2.3-1v-1.3h8.3V438H409.5z M412.5,437.8v-15.1h7.4v1.3c-0.7,0.3-1.3,0.6-1.8,1
		c-0.5,0.4-0.9,0.9-1.2,1.4c-0.3,0.5-0.6,1.2-0.7,2c-0.2,0.8-0.2,1.7-0.2,2.9v6.5H412.5z"/>
	<path class="st0" d="M434.7,403.6v-5.9c0-1.1-0.1-2.1-0.2-2.9c-0.1-0.8-0.4-1.5-0.6-2c-0.3-0.5-0.7-1-1.2-1.3
		c-0.5-0.4-1.1-0.7-1.8-1v-1.3h7.2v14.5H434.7z M438,435.1v17.5h-7.2v-1.3c0.7-0.3,1.3-0.6,1.8-1c0.5-0.4,0.9-0.8,1.2-1.3
		c0.3-0.5,0.5-1.2,0.6-2c0.1-0.8,0.2-1.7,0.2-2.9v-9H438z M434.7,452.7v-63.6h6.4v63.6H434.7z M437.7,403.6v-14.5h7.4v1.3
		c-0.7,0.3-1.3,0.6-1.8,1c-0.5,0.4-0.9,0.8-1.2,1.3s-0.6,1.2-0.7,2c-0.2,0.8-0.2,1.8-0.2,2.9v5.9H437.7z M441.1,435.1v9
		c0,1.1,0.1,2.1,0.2,2.9c0.2,0.8,0.4,1.4,0.7,2s0.7,1,1.2,1.3s1.1,0.7,1.8,1v1.3h-7.4v-17.5H441.1z"/>
	<path class="st0" d="M486.9,388.1h1.3l25.3,50.9c1.2,2.3,2.2,4.2,3,5.7c0.8,1.5,1.5,2.6,2.2,3.5c0.6,0.9,1.2,1.5,1.7,2
		c0.5,0.4,1.1,0.9,1.7,1.2v1.3h-14.3v-1.3c0.5-0.4,0.9-0.7,1.3-1c0.4-0.3,0.6-0.7,0.8-1.2c0.1-0.5,0.1-1,0-1.7
		c-0.1-0.6-0.4-1.4-0.8-2.3l-21.9-44.5l-21.4,44.7c-0.4,0.9-0.7,1.6-0.8,2.2c-0.1,0.6-0.1,1.1,0,1.6c0.1,0.5,0.4,0.9,0.7,1.3
		c0.3,0.4,0.7,0.7,1,1v1.3h-13.3v-1.3c0.6-0.3,1.2-0.7,1.6-1.1c0.5-0.4,1-1,1.6-1.9c0.6-0.8,1.3-2,2.1-3.5c0.8-1.5,1.8-3.5,3.1-6
		L486.9,388.1z M507.5,436h-39.8l3.1-6.9h33.7L507.5,436z"/>
</g>
</svg>
