<?xml version="1.0" encoding="utf-8"?>
<!-- Generator: Adobe Illustrator 27.0.0, SVG Export Plug-In . SVG Version: 6.00 Build 0)  -->
<svg version="1.1" id="Layer_1" xmlns="http://www.w3.org/2000/svg" xmlns:xlink="http://www.w3.org/1999/xlink" x="0px" y="0px"
	 viewBox="0 0 595.3 841.9" style="enable-background:new 0 0 595.3 841.9;" xml:space="preserve">
<style type="text/css">
	.st0{fill:#010101;}
	.st1{fill:none;}
</style>
<g>
	<g>
		<g>
			<g>
				<path class="st0" d="M107.6,403v36.1c0.1,1.1,0.9,2.1,2.5,2.9l3.3,1.2v0.7H93.5v-0.7l3.3-1.2c1.6-0.8,2.4-1.8,2.5-2.9V403
					c-0.1-1.1-0.9-2.1-2.5-2.9l-3.3-1.2v-0.7h19.9v0.7l-3.3,1.2C108.5,400.9,107.6,401.8,107.6,403z"/>
			</g>
			<g>
				<polygon class="st0" points="97.3,398.2 97.2,398.2 97.1,398.2 				"/>
			</g>
		</g>
		<g>
			<g>
				<path class="st0" d="M235.2,403v36.1c0.1,1.1,0.9,2.1,2.5,2.9l3.3,1.2v0.7h-19.9v-0.7l3.3-1.2c1.6-0.8,2.4-1.8,2.5-2.9V403
					c-0.1-1.1-0.9-2.1-2.5-2.9l-3.3-1.2v-0.7H241v0.7l-3.3,1.2C236.1,400.9,235.3,401.8,235.2,403z"/>
			</g>
			<g>
				<polygon class="st0" points="224.9,398.2 224.9,398.2 224.7,398.2 				"/>
			</g>
		</g>
		<g>
			<g>
				<polygon class="st0" points="251.4,398.2 251.4,398.2 251.3,398.2 				"/>
			</g>
			<g>
				<line class="st1" x1="264.2" y1="399.9" x2="264.1" y2="398.6"/>
			</g>
		</g>
		<g>
			<g>
				<polygon class="st0" points="314.9,398.2 314.9,398.2 314.7,398.2 				"/>
			</g>
		</g>
		<g>
			<g>
				<path class="st0" d="M440,403v36.1c0.1,1.1,0.9,2.1,2.5,2.9l3.3,1.2v0.7h-19.9v-0.7l3.3-1.2c1.6-0.8,2.4-1.8,2.5-2.9V403
					c-0.1-1.1-0.9-2.1-2.5-2.9l-3.3-1.2v-0.7h19.9v0.7l-3.3,1.2C440.9,400.9,440.1,401.8,440,403z"/>
			</g>
			<g>
				<polygon class="st0" points="429.7,398.2 429.7,398.2 429.5,398.2 				"/>
			</g>
		</g>
		<g>
			<g>
				<path class="st0" d="M167.8,443.6h-46.2v-1l3.4-0.8c1.6-0.4,2.4-1.1,2.5-2.9v-35.7c0-0.1,0-0.2,0-0.4c0-2.7-4.5-3.5-4.5-3.5
					v-1.4h20.6v1.4c0,0-7.3-0.1-7.7,4.5v36.9h26.6c2.9-0.4,4.9-0.9,6.5-3.3c0,0,0.7-0.8,1.2-0.7c0.4,0.1,1,0.2,1.1,0.9
					C171.7,440,167.8,443.6,167.8,443.6z"/>
			</g>
		</g>
		<g>
			<g>
				<path class="st0" d="M222.4,437.6c0.2,2.4-3.7,6-3.7,6h-46.3v-1l3.4-0.8c1.6-0.4,2.4-1.1,2.5-2.9v-35.7c0-0.1,0-0.2,0-0.4
					c0-2.7-4.5-3.5-4.5-3.5v-1.4h20.7v1.4c0,0-7.3-0.1-7.7,4.5v36.9h26.7c2.9-0.4,4.9-0.9,6.6-3.3c0,0,0.7-0.8,1.2-0.7
					C221.8,436.8,222.4,436.9,222.4,437.6z"/>
			</g>
		</g>
		<g>
			<path class="st0" d="M331,398.2v0.7l-3.3,1.2c-1.6,0.8-2.5,1.9-2.6,3c0,0,0,0,0,0l-0.3,14.6l0.2-7.5v35.3l-1,0l-62.2-38.3v31.9
				c0.1,1.1,0.9,2.1,2.5,2.9l3.3,1.2v0.7h-19.9v-0.7l3.3-1.2c1.6-0.8,2.4-1.8,2.5-2.9V403c-0.1-1.1-0.9-2.1-2.5-2.9l-3.3-1.2v-0.7
				h17.7l0,2.4l52.2,34l-0.5-31.5h0c-0.1-1.1-1-2.2-2.6-3l-3.3-1.2v-0.7H331z"/>
		</g>
		<g>
			<path class="st0" d="M415.4,407.5c-3.7-3.5-9-6.3-15.5-8.2c-6.6-1.9-14.3-2.9-22.9-2.9c-8.6,0-16.2,1-22.8,2.9
				c-6.6,1.9-11.8,4.7-15.5,8.2c-3.8,3.5-5.7,7.7-5.7,12.5c0,4.7,1.9,8.9,5.7,12.5c3.7,3.5,9,6.3,15.5,8.2
				c6.6,1.9,14.2,2.9,22.8,2.9c8.7,0,16.4-1,22.9-2.9c6.6-1.9,11.8-4.7,15.5-8.2c3.8-3.5,5.7-7.7,5.7-12.5
				C421.1,415.3,419.2,411.1,415.4,407.5z M376.9,440.7c-6.7,0-12.7-0.9-17.7-2.6c-5-1.7-9-4.2-11.8-7.3c-2.8-3.1-4.2-6.7-4.2-10.8
				c0-4.1,1.4-7.7,4.2-10.8c2.8-3.1,6.8-5.5,11.8-7.3c5.1-1.8,11-2.6,17.7-2.6c6.8,0,12.8,0.9,17.8,2.6c5,1.7,9,4.2,11.8,7.3
				c2.8,3.1,4.2,6.7,4.2,10.8c0,4.1-1.4,7.7-4.2,10.8c-2.8,3.1-6.8,5.5-11.8,7.3C389.7,439.8,383.7,440.7,376.9,440.7z"/>
		</g>
		<g>
			<path class="st0" d="M497.5,432.7c0,3.8-2.3,7-6.8,9.4c-4.4,2.3-10.4,3.5-17.9,3.5c-2.1,0-4.5-0.1-7.3-0.3
				c-2.8-0.2-5.6-0.6-8.2-1.2c-2.7-0.6-4.9-1.3-6.7-2.2l-0.2-0.1l-0.1-0.2c-0.3-0.8-0.4-1.7-0.4-2.8c0-1.1,0.2-2.3,0.5-3.5
				c0.3-1.2,0.8-2.3,1.5-3.3l0.1-0.2h1.4l-0.1,0.6c-0.4,2.1,0.8,3.9,2.3,5.5c1.5,1.6,3.7,2.8,6.6,3.7c2.9,0.8,6.3,1.2,10,1.1
				c4.7-0.1,8.7-1,12-2.5c3.2-1.5,4.8-3.4,4.8-5.9c0-1.2-0.4-2.2-1.2-3.1c-0.8-1-2-1.8-3.6-2.6l-24.9-11.8c-2.7-1.3-4.5-2.7-5.6-4.2
				c-1.1-1.5-1.6-3-1.6-4.4c0-2,0.9-3.9,2.7-5.7c1.8-1.8,4.4-3.2,7.9-4.3c3.4-1.1,7.7-1.6,12.6-1.6c1.4,0,2.9,0,4.5,0.1
				c1.6,0.1,3.2,0.2,4.7,0.4c0.5,0,1,0.1,1.5,0.2h6v9.1h-1.7v-0.5c0-1.9-1.8-3.4-4.5-4.5c-2.8-1.2-6.2-1.8-10.2-1.8
				c-4.7,0-8.4,0.8-11.3,2.2c-2.7,1.4-4.1,3.1-4.1,4.9c0,0.7,0.3,1.6,1,2.7c0.7,1,2,2,3.9,3l25.5,12c2.7,1.3,4.5,2.7,5.4,4.2
				C497.1,429.8,497.5,431.3,497.5,432.7z"/>
		</g>
	</g>
</g>
</svg>
