<?xml version="1.0" encoding="utf-8"?>
<!-- Generator: Adobe Illustrator 27.0.0, SVG Export Plug-In . SVG Version: 6.00 Build 0)  -->
<svg version="1.1" id="Layer_1" xmlns="http://www.w3.org/2000/svg" xmlns:xlink="http://www.w3.org/1999/xlink" x="0px" y="0px"
	 viewBox="0 0 595.3 841.9" style="enable-background:new 0 0 595.3 841.9;" xml:space="preserve">
<style type="text/css">
	.st0{fill:#010101;}
</style>
<g>
	<path class="st0" d="M79.4,428c2.9-0.1,5-0.4,6.3-1c2.1-1,3.1-2.8,3.1-5.5v-44.4c0-2.6-1-4.4-2.9-5.3c-1.2-0.6-3.3-0.9-6.5-1.1
		v-2.3H116v2.3c-3.7,0.3-6.3,0.9-7.6,1.8c-1.3,0.9-2,3.1-2,6.6v19.7l23.3-20c1.6-1.4,2.7-2.3,3.1-2.9c0.5-0.6,0.7-1.3,0.7-2.1
		c0-1.2-0.6-1.9-1.9-2.2s-3.7-0.6-7.2-0.8v-2.3h31.3v2.3c-5.6,0.4-10.2,1.7-13.9,4c-3.7,2.3-10.6,7.9-20.9,16.8l33,34.6
		c0.7,0.7,1.4,1.2,2.1,1.4c0.7,0.2,1.8,0.3,3.2,0.5v2.3H123V428c3.3,0,5.5-0.1,6.7-0.4c1.2-0.2,1.8-0.7,1.8-1.6
		c0-0.4-0.2-0.9-0.6-1.5c-0.4-0.6-1.1-1.4-2.1-2.5l-19.7-20.8l-2.7,2.3v18c0,2.7,1,4.5,3.1,5.4c1.2,0.6,3.3,0.9,6.3,1v2.3H79.4V428z
		"/>
	<path class="st0" d="M164.2,428c2.7-0.1,4.8-1.1,6.4-3c1-1.2,2.5-3.7,4.5-7.7l24.6-50.2h3.1l24.7,48.2c2.8,5.4,4.8,8.9,6.2,10.5
		c1.4,1.6,3.3,2.3,5.8,2.3v2.3h-35.8V428c3.6-0.1,6-0.4,7.1-0.8c1.1-0.4,1.7-1.4,1.7-3c0-0.7-0.3-1.8-0.9-3.3
		c-0.4-0.9-0.8-1.9-1.5-3.1l-2.8-5.6h-24.9c-1.6,3.6-2.7,6-3.1,7.1c-1,2.4-1.5,4.1-1.5,5.2c0,1.3,1.1,2.3,3.2,2.9
		c1.3,0.3,3.2,0.5,5.7,0.5v2.3h-22.6V428z M205.7,408.7l-10.7-21.2h-0.9l-10,21.2H205.7z"/>
	<path class="st0" d="M246.3,428c3.9-0.1,6.4-0.7,7.6-1.9c1.1-1.2,1.7-3,1.7-5.4v-43.5c-3.2-3.1-5.2-5-6-5.5
		c-0.8-0.6-1.8-0.9-3.1-1.1v-2.3h22.4l36.3,38.3h0.5v-27c0-3.1-0.7-5.3-1.9-6.7c-1.3-1.3-3.9-2.1-7.8-2.4v-2.3h22.7v2.3
		c-3.3,0.5-5.5,1.1-6.6,1.9c-1.1,0.8-1.7,2.6-1.7,5.4V432h-2.9L260.9,383h-0.7v36c0,2.8,0.4,4.8,1.3,6c1.4,1.9,4.3,2.9,8.7,3.1v2.3
		h-23.9V428z"/>
	<path class="st0" d="M331.5,408.9h3c1.6,6.9,4.3,11.8,7.9,15c3.6,3.1,7.8,4.7,12.5,4.7c4.6,0,7.8-1.1,9.8-3.2
		c1.9-2.1,2.9-4.4,2.9-6.7c0-2.7-1-5-3-6.7c-1.3-1.1-4-2.6-8.1-4.4l-6.5-3c-6.5-2.9-11.1-5.8-13.7-8.7s-4-6.4-4-10.6
		c0-4.5,1.8-8.7,5.3-12.6c3.5-3.9,8.9-5.8,16.2-5.8c3.7,0,7.3,0.5,10.8,1.5c3.5,1,5.4,1.5,5.9,1.5c1.1,0,1.9-0.3,2.3-0.9
		c0.4-0.6,0.8-1.4,1-2.3h3.1v20H374c-1.3-4.6-3.7-8.6-7.1-12c-3.4-3.3-7.5-5-12.3-5c-3.4,0-6.1,0.8-8.1,2.5c-2,1.7-3,3.7-3,6.2
		c0,2.9,0.9,5.1,2.8,6.5c1.8,1.5,5.9,3.6,12.2,6.5l7.6,3.4c3.4,1.5,6.1,3.2,8.1,5.1c3.8,3.5,5.6,7.7,5.6,12.6c0,4.6-2,9-6,13.1
		c-4,4.1-10.5,6.2-19.4,6.2c-2,0-4.1-0.2-6.2-0.5c-2.1-0.3-4.2-0.9-6.2-1.6l-2-0.7c-0.5-0.1-0.9-0.2-1.3-0.3
		c-0.4-0.1-0.8-0.1-1.1-0.1c-1.1,0-1.8,0.3-2.2,0.8c-0.4,0.6-0.7,1.3-1,2.4h-3V408.9z"/>
	<path class="st0" d="M389.6,428c2.7-0.1,4.9-1.1,6.5-3c1.1-1.2,2.6-3.7,4.5-7.7l24.9-50.2h3.1l25,48.2c2.8,5.4,4.9,8.9,6.3,10.5
		c1.4,1.6,3.4,2.3,5.9,2.3v2.3h-36.2V428c3.6-0.1,6-0.4,7.2-0.8c1.1-0.4,1.7-1.4,1.7-3c0-0.7-0.3-1.8-0.9-3.3
		c-0.4-0.9-0.9-1.9-1.5-3.1l-2.8-5.6h-25.1c-1.6,3.6-2.7,6-3.2,7.1c-1,2.4-1.5,4.1-1.5,5.2c0,1.3,1.1,2.3,3.2,2.9
		c1.3,0.3,3.2,0.5,5.7,0.5v2.3h-22.8V428z M431.6,408.7l-10.8-21.2h-0.9l-10.1,21.2H431.6z"/>
	<path class="st0" d="M476.2,408.9h3c1.7,6.9,4.3,11.8,8,15c3.7,3.1,7.9,4.7,12.7,4.7c4.6,0,7.9-1.1,9.9-3.2
		c1.9-2.1,2.9-4.4,2.9-6.7c0-2.7-1-5-3.1-6.7c-1.3-1.1-4.1-2.6-8.2-4.4l-6.6-3c-6.6-2.9-11.2-5.8-13.9-8.7s-4-6.4-4-10.6
		c0-4.5,1.8-8.7,5.4-12.6c3.6-3.9,9-5.8,16.4-5.8c3.8,0,7.4,0.5,10.9,1.5c3.5,1,5.5,1.5,6,1.5c1.1,0,1.9-0.3,2.3-0.9
		c0.4-0.6,0.8-1.4,1-2.3h3.1v20h-2.9c-1.4-4.6-3.7-8.6-7.2-12c-3.4-3.3-7.6-5-12.5-5c-3.4,0-6.1,0.8-8.1,2.5c-2,1.7-3,3.7-3,6.2
		c0,2.9,0.9,5.1,2.8,6.5c1.8,1.5,6,3.6,12.4,6.5l7.7,3.4c3.4,1.5,6.1,3.2,8.2,5.1c3.8,3.5,5.7,7.7,5.7,12.6c0,4.6-2,9-6.1,13.1
		c-4.1,4.1-10.6,6.2-19.6,6.2c-2.1,0-4.1-0.2-6.3-0.5c-2.1-0.3-4.2-0.9-6.3-1.6l-2-0.7c-0.5-0.1-0.9-0.2-1.3-0.3
		c-0.4-0.1-0.8-0.1-1.1-0.1c-1.1,0-1.8,0.3-2.2,0.8c-0.4,0.6-0.7,1.3-1,2.4h-3V408.9z"/>
</g>
</svg>
