<?xml version="1.0" encoding="utf-8"?>
<!-- Generator: Adobe Illustrator 27.0.0, SVG Export Plug-In . SVG Version: 6.00 Build 0)  -->
<svg version="1.1" id="Layer_1" xmlns="http://www.w3.org/2000/svg" xmlns:xlink="http://www.w3.org/1999/xlink" x="0px" y="0px"
	 viewBox="0 0 595.3 841.9" style="enable-background:new 0 0 595.3 841.9;" xml:space="preserve">
<style type="text/css">
	.st0{fill:#010101;}
</style>
<g>
	<path class="st0" d="M89.8,401.2v71.1H74.6v-30.2l-21.8,29.1h-0.1l-21.8-29.1v30.2H15.7v-71.1h0.8l36.2,45.9l36.2-45.9H89.8z"/>
	<path class="st0" d="M148,457.5h-25.3l-7.8,14.9H98.4l36.1-70.3h0.5l36.1,70.3h-16.5L148,457.5z M144,445.7l-9.2-18.3l-9.2,18.3
		H144z"/>
	<path class="st0" d="M422.4,457.5H397l-7.8,14.9h-16.4l36.1-70.3h0.5l36.1,70.3h-16.5L422.4,457.5z M418.4,445.7l-9.2-18.3
		l-9.2,18.3H418.4z"/>
	<path class="st0" d="M218.9,472.4l-22.5-28.6l-0.3,28.6h-15.5l0-70.8h25.1c14.4,0,26.2,10.2,26.2,22.9c0,9.1-6,17-14.2,19.7
		l21.9,28.1H218.9z M196.1,433.5l9.9,0c5.3,0,9.9-3.9,9.9-8.9c0-5-4.7-8.9-9.9-8.9h-9.9V433.5z"/>
	<path class="st0" d="M266.7,442l-25.2-40.4h18.5l14.9,24.6l14.9-24.6h18.5L282.9,442v30.4h-16.3V442z"/>
	<path class="st0" d="M366.2,461.2v11.2H319v-70.8h15.7v59.6H366.2z"/>
	<path class="st0" d="M508.9,402.7v69.7h-0.6L467.9,433v38.2h-13.7v-69.6h0.7l40.3,39.3v-38.2H508.9z"/>
	<path class="st0" d="M582.4,437.1c0,22-14.3,35.3-37.8,35.3h-21.1v-70.7l21.1,0C568.1,401.5,582.4,415,582.4,437.1z M567.7,437
		c0-13.3-8.7-21.3-23.1-21.3H538v42.5h6.7C559,458.2,567.7,450.2,567.7,437z"/>
</g>
</svg>
