<?xml version="1.0" encoding="utf-8"?>
<!-- Generator: Adobe Illustrator 27.0.0, SVG Export Plug-In . SVG Version: 6.00 Build 0)  -->
<svg version="1.1" id="Layer_1" xmlns="http://www.w3.org/2000/svg" xmlns:xlink="http://www.w3.org/1999/xlink" x="0px" y="0px"
	 viewBox="0 0 595.3 841.9" style="enable-background:new 0 0 595.3 841.9;" xml:space="preserve">
<style type="text/css">
	.st0{fill:#010101;}
</style>
<g>
	<path class="st0" d="M77.3,422.3l3.9-43.2c0.4-4.1-1.6-6.1-4.9-6.7l0.3-3.7h16.8l9.6,40.6l16.4-40.6h16.8l-0.4,3.7
		c-3.5,0.6-5.5,2.6-5.9,6.7l-4.2,43.2c-0.4,4.1,1.3,6.1,4.7,6.7l-0.3,3.7h-22.1l0.4-3.7c3.5-0.6,5.5-2.6,5.9-6.7l3.7-39.4
		l-18.4,45.2h-3.2l-10.8-45.2l-3.7,39.4c-0.4,4.1,1.7,6.1,5.2,6.7l-0.4,3.7H70.6l0.3-3.7C74.5,428.4,76.9,426.5,77.3,422.3z"/>
	<path class="st0" d="M232.7,415.9c0-14.7,9.1-26.7,20.8-26.7c5.1,0,8.3,2.3,11.8,2.3c2.7,0,3.2-1.4,4.3-1.4c0.9,0,1.3,0.9,1.2,1.8
		l-3.2,30.6c-0.4,3.9,1.9,5.8,4.5,4.2l-0.5,3.2c-2.3,2.8-5.3,3.5-7.1,3.5c-3.3,0-5.9-2-6.9-4.8c-0.4-1.2-0.7-1.8-2.2,0
		c-2.8,3.5-6.5,4.8-9.8,4.8C239.1,433.3,232.7,428.3,232.7,415.9z M250.3,426.3c3.6,0,7.7-3.6,8.6-14.6l0.4-4.4
		c1-10.8-2.1-14-5.6-14c-6.1,0-10,9.7-10,20.2C243.7,422.7,246.7,426.3,250.3,426.3z"/>
	<path class="st0" d="M130.6,415.9c0-14.7,9.1-26.7,20.8-26.7c5.1,0,8.3,2.3,11.8,2.3c2.7,0,3.2-1.4,4.3-1.4c0.9,0,1.3,0.9,1.2,1.8
		l-3.2,30.6c-0.4,3.9,1.9,5.8,4.5,4.2l-0.5,3.2c-2.3,2.8-5.3,3.5-7.1,3.5c-3.3,0-5.9-2-6.9-4.8c-0.4-1.2-0.7-1.8-2.2,0
		c-2.8,3.5-6.5,4.8-9.8,4.8C137,433.3,130.6,428.3,130.6,415.9z M148.2,426.3c3.6,0,7.7-3.6,8.6-14.6l0.4-4.4c1-10.8-2.1-14-5.6-14
		c-6.1,0-10,9.7-10,20.2C141.6,422.7,144.6,426.3,148.2,426.3z"/>
	<path class="st0" d="M173.6,428.3c-1.5-5.1-1.1-11.1,2-11.1c1.1,0,1.7,0.7,1.9,2.2c1,6.8,4.3,10.9,8.6,10.9c3.7,0,4.9-3,4.9-5.3
		c0-8.7-15.7-10.8-15.7-23.5c0-7.4,5.2-12.5,13.3-12.5c4.5,0,8.8,1.6,11.2,4.1c1.5,5.2,1.2,11.1-1.9,11.1c-1.1,0-1.9-0.8-2.1-2.2
		c-1.1-7.5-4.2-10-7.3-10c-3.3,0-4.1,2.7-4.1,4.9c0,9.3,16.1,10.7,16.1,22.9c0,7.8-6.6,13.5-14.9,13.5
		C180,433.3,176,430.8,173.6,428.3z"/>
	<path class="st0" d="M202.8,428.3c-1.5-5.1-1.1-11.1,2-11.1c1.1,0,1.7,0.7,1.9,2.2c1,6.8,4.2,10.9,8.6,10.9c3.7,0,4.9-3,4.9-5.3
		c0-8.7-15.7-10.8-15.7-23.5c0-7.4,5.2-12.5,13.2-12.5c4.5,0,8.8,1.6,11.2,4.1c1.5,5.2,1.2,11.1-1.9,11.1c-1.1,0-1.9-0.8-2.1-2.2
		c-1.1-7.5-4.2-10-7.3-10c-3.3,0-4.1,2.7-4.1,4.9c0,9.3,16,10.7,16,22.9c0,7.8-6.6,13.5-14.9,13.5
		C209.2,433.3,205.2,430.8,202.8,428.3z"/>
	<path class="st0" d="M273.6,414.7c0-11.7,6.5-25.6,18.4-25.6c7.5,0,11.1,5.6,11.1,11.3c0,3.6-1.5,7.2-4.7,7.2c-2.6,0-3.8-2-3.8-4.5
		c0-1.7,0.5-3,0.5-5c0-2.3-0.7-5.1-4.1-5.1c-5.6,0-8.2,8-8.2,17c0,9.4,2.6,16.4,9.4,16.4c2.3,0,5.1-0.8,7.2-3.3l1.5,2.6
		c-1.9,3.1-6.6,7.8-13,7.8C280.1,433.3,273.6,426.4,273.6,414.7z"/>
	<path class="st0" d="M330.6,423.6l1.5-13.3c0.8-8.4,0.3-12.8-3.8-12.8c-5.5,0-8.8,7.7-10.2,21.8l-1.3,13.5h-9.1l4.8-49
		c0.6-6.3-0.6-7.9-4.3-7.9l0.3-3.3c5.5,0,9.7-0.4,14.3-1.9l-2.7,27.2c-0.7,6.4,4.2-8.7,13.4-8.7c4.3,0,9.2,3.3,7.8,17.6l-1.5,15.6
		c-0.4,4.2,1.8,6,4.2,4.4l-0.4,3.2c-2.4,2.8-5.7,3.5-7.1,3.5C333.2,433.3,330.1,429.7,330.6,423.6z"/>
	<path class="st0" d="M350,415.6l1.4-14c0.4-5.2-1.6-7.2-4.7-5.5l0.3-3.2c3-2.8,6.2-3.5,7.7-3.5c3.6,0,6.9,3.6,6.1,10.7l-1.3,12
		c-0.9,8.4-0.4,12.8,3.8,12.8c5.3,0,8.9-6.5,9.9-18.3l0.4-5c0.4-5.2-1.6-7.2-4.6-5.5l0.3-3.2c3-2.8,6.2-3.5,7.7-3.5
		c3.6,0,6.7,3.6,5.9,11.6l-2.2,21.4c-0.4,3.9,1.8,5.8,4.2,4.2l-0.4,3.2c-2.4,2.8-5.6,3.5-7.1,3.5c-3.6,0-6.8-3.7-6.1-8.8
		c0.7-5.7-3.9,8.8-13.4,8.8C353.5,433.3,348.6,429.9,350,415.6z"/>
	<path class="st0" d="M389,428.3c-1.5-5.1-1.1-11.1,2-11.1c1,0,1.6,0.7,1.9,2.2c1,6.8,4.2,10.9,8.5,10.9c3.7,0,4.9-3,4.9-5.3
		c0-8.7-15.5-10.8-15.5-23.5c0-7.4,5.2-12.5,13.1-12.5c4.4,0,8.7,1.6,11.1,4.1c1.5,5.2,1.2,11.1-1.9,11.1c-1,0-1.9-0.8-2.1-2.2
		c-1.1-7.5-4.1-10-7.2-10c-3.3,0-4,2.7-4,4.9c0,9.3,15.9,10.7,15.9,22.9c0,7.8-6.5,13.5-14.8,13.5
		C395.3,433.3,391.4,430.8,389,428.3z"/>
	<path class="st0" d="M419.9,416.1c-1-11.6,4.8-26.2,17.8-27.4c7.7-0.7,12.3,3.9,12.9,10.4c0.6,7.2-4,11.9-14,15l-3.2,1
		c-2.2,0.8-2.6,3-1.2,5.8c1.9,3.4,4.8,5.6,9,5.2c2.7-0.2,5.5-1.5,7.5-4.4l1.8,2.5c-1.8,3.3-6.2,8.3-13.2,9
		C428.9,434,421,427.8,419.9,416.1z M432.9,412.2l1.1-0.3c8.2-2.3,8.2-8.7,7.9-12c-0.5-6-2.8-7.4-5.6-7.1c-5.8,0.5-7.8,8.3-7.1,16.4
		C429.5,411.5,430.6,412.8,432.9,412.2z"/>
	<path class="st0" d="M456.1,419.8l2.3-21.9c0.3-3.1-0.4-3.7-2-3.7h-3.3l0.3-2.9c5.8-1.8,9.1-5.1,11.7-10.4c0.5-1,1-1.4,1.9-1.4h1.2
		c1,0,1.4,0.8,1.3,2l-0.6,6.1c-0.2,2,0.5,2.6,4.1,2.6h4.9l-0.4,4.7l-4.9-0.4c-3.7-0.4-4.3,0.6-4.6,3.7l-2.1,21.1
		c-0.5,5.3-0.2,8.8,2.8,8.8c1,0,3-0.4,4.5-1.7l1,2.5c-2,2.7-5.2,4.4-9.1,4.4C458.7,433.2,455.1,428.8,456.1,419.8z"/>
	<path class="st0" d="M476.8,419.8l2.4-21.9c0.3-3.1-0.4-3.7-2.1-3.7h-3.5l0.3-2.9c6.2-1.8,9.7-5.1,12.6-10.4c0.6-1,1.1-1.4,2-1.4
		h1.3c1.1,0,1.5,0.8,1.4,2l-0.7,6.1c-0.3,2,0.5,2.6,4.4,2.6h5.2l-0.4,4.7l-5.2-0.4c-3.9-0.4-4.6,0.6-5,3.7l-2.3,21.1
		c-0.6,5.3-0.2,8.8,3,8.8c1.1,0,3.2-0.4,4.8-1.7l1.1,2.5c-2.1,2.7-5.5,4.4-9.7,4.4C479.7,433.2,475.8,428.8,476.8,419.8z"/>
	<path class="st0" d="M497.4,428.3c-1.5-5.1-1.1-11.1,2.1-11.1c1.1,0,1.7,0.7,1.9,2.2c1,6.8,4.3,10.9,8.6,10.9c3.7,0,5-3,5-5.3
		c0-8.7-15.8-10.8-15.8-23.5c0-7.4,5.3-12.5,13.3-12.5c4.5,0,8.8,1.6,11.3,4.1c1.5,5.2,1.2,11.1-1.9,11.1c-1.1,0-1.9-0.8-2.1-2.2
		c-1.1-7.5-4.2-10-7.3-10c-3.4,0-4.1,2.7-4.1,4.9c0,9.3,16.2,10.7,16.2,22.9c0,7.8-6.6,13.5-15,13.5
		C503.8,433.3,499.8,430.8,497.4,428.3z"/>
</g>
</svg>
