<?xml version="1.0" encoding="utf-8"?>
<!-- Generator: Adobe Illustrator 27.0.0, SVG Export Plug-In . SVG Version: 6.00 Build 0)  -->
<svg version="1.1" id="Layer_1" xmlns="http://www.w3.org/2000/svg" xmlns:xlink="http://www.w3.org/1999/xlink" x="0px" y="0px"
	 viewBox="0 0 595.3 841.9" style="enable-background:new 0 0 595.3 841.9;" xml:space="preserve">
<style type="text/css">
	.st0{fill:#010101;}
</style>
<g>
	<g>
		<g>
			<path class="st0" d="M52.8,442.6v-33H63c2.4,0,4.2,0.2,5.3,0.6c1.6,0.6,2.8,1.6,3.7,3.2c0.9,1.5,1.4,3.4,1.4,5.7
				c0,3-0.8,5.4-2.3,7.3c-1.5,1.9-4.1,2.8-7.9,2.8h-6.9v13.4H52.8z M56.4,425.3h7c2.2,0,3.8-0.5,4.8-1.5c1-1,1.5-2.5,1.5-4.5
				c0-1.3-0.3-2.4-0.8-3.3c-0.5-0.9-1.1-1.6-1.8-1.9c-0.7-0.3-2-0.5-3.9-0.5h-6.9V425.3z"/>
			<path class="st0" d="M57,443.3h-4.9V409H63c2.5,0,4.3,0.2,5.6,0.7c1.7,0.6,3.1,1.8,4.1,3.5c1,1.6,1.5,3.7,1.5,6
				c0,3.1-0.8,5.7-2.4,7.7c-1.6,2-4.5,3.1-8.4,3.1H57V443.3z M53.5,441.9h2.2v-13.4h7.6c3.5,0,6-0.9,7.3-2.6c1.4-1.7,2.1-4,2.1-6.8
				c0-2.1-0.4-3.9-1.3-5.3c-0.9-1.4-2-2.4-3.4-2.9c-1.1-0.4-2.8-0.6-5.1-0.6h-9.5V441.9z M63.4,426h-7.7v-13.1h7.6
				c2,0,3.3,0.2,4.2,0.6c0.8,0.4,1.6,1.1,2.1,2.2c0.6,1,0.8,2.3,0.8,3.7c0,2.2-0.6,3.9-1.7,5C67.5,425.5,65.7,426,63.4,426z
				 M57,424.7h6.3c2,0,3.5-0.4,4.4-1.3c0.9-0.9,1.3-2.2,1.3-4c0-1.2-0.2-2.2-0.7-3c-0.4-0.8-0.9-1.3-1.5-1.6
				c-0.4-0.2-1.4-0.4-3.6-0.4H57V424.7z"/>
		</g>
		<g>
			<path class="st0" d="M107.5,409.7h4v19c0,3.2-0.3,5.8-1,7.9c-0.7,2-2,3.7-3.8,4.8s-4.2,1.8-7,1.8c-4,0-6.9-1.1-8.9-3.2
				c-2-2.1-3-5.9-3-11.3v-19h4v19c0,3,0.3,5.1,0.8,6.5c0.5,1.3,1.4,2.3,2.5,3c1.2,0.7,2.6,1,4.3,1c2.8,0,4.9-0.7,6.2-2.2
				c1.3-1.4,1.9-4.2,1.9-8.4V409.7z"/>
			<path class="st0" d="M99.7,443.9c-4.2,0-7.3-1.1-9.4-3.4c-2.1-2.3-3.2-6.1-3.2-11.7V409h5.3v19.7c0,2.9,0.2,5,0.7,6.2
				c0.5,1.2,1.2,2.1,2.3,2.7c1.1,0.6,2.4,1,4,1c2.6,0,4.5-0.6,5.7-1.9c1.2-1.3,1.7-4,1.7-8V409h5.3v19.7c0,3.3-0.4,6-1.1,8.1
				c-0.7,2.2-2.1,3.9-4.1,5.2C105.1,443.2,102.6,443.9,99.7,443.9z M88.5,410.4v18.4c0,5.2,0.9,8.8,2.8,10.8c1.8,2,4.7,3,8.4,3
				c2.7,0,4.9-0.6,6.6-1.7c1.7-1.1,2.9-2.6,3.5-4.5c0.7-2,1-4.5,1-7.6v-18.4h-2.6v18.3c0,4.4-0.7,7.3-2.1,8.9
				c-1.4,1.6-3.7,2.4-6.7,2.4c-1.8,0-3.4-0.4-4.6-1.1c-1.3-0.8-2.3-1.9-2.8-3.4c-0.6-1.4-0.8-3.6-0.8-6.7v-18.3H88.5z"/>
		</g>
		<g>
			<path class="st0" d="M128.2,442.6v-33h11.6c2.4,0,4.2,0.3,5.4,0.9s2.1,1.6,2.8,3.1c0.7,1.4,1.1,3.1,1.1,5c0,2.5-0.6,4.5-1.9,6
				c-1.3,1.5-3.1,2.5-5.5,2.9c1,0.6,1.7,1.2,2.2,1.8c1,1.3,1.9,2.7,2.7,4.2l4.6,9H147l-3.5-6.9c-1.4-2.7-2.4-4.5-3.1-5.4
				c-0.7-0.9-1.4-1.6-2-1.9c-0.6-0.3-1.5-0.5-2.7-0.5h-4v14.6H128.2z M131.7,424.2h7.4c1.6,0,2.9-0.2,3.7-0.6c0.8-0.4,1.5-1,2-1.9
				c0.5-0.9,0.7-1.9,0.7-3c0-1.7-0.5-3-1.4-3.9c-0.9-1-2.3-1.4-4.2-1.4h-8.3V424.2z"/>
			<path class="st0" d="M152.4,443.3h-5.9l-3.7-7.2c-1.3-2.6-2.3-4.4-3-5.3c-0.6-0.8-1.2-1.4-1.8-1.7c-0.5-0.3-1.4-0.4-2.4-0.4h-3.3
				v14.6h-4.8V409h12.3c2.6,0,4.4,0.3,5.7,1c1.3,0.7,2.3,1.8,3.1,3.4c0.8,1.5,1.2,3.3,1.2,5.3c0,2.6-0.7,4.8-2,6.5
				c-1.1,1.3-2.5,2.3-4.4,2.8c0.4,0.4,0.8,0.7,1.1,1.1c1.1,1.3,2,2.7,2.8,4.3L152.4,443.3z M147.4,441.9h2.8l-4.1-8
				c-0.8-1.5-1.6-2.9-2.6-4.1c-0.5-0.6-1.1-1.1-2.1-1.7l-1.5-0.9l1.8-0.3c2.2-0.4,3.9-1.3,5.1-2.7c1.1-1.4,1.7-3.3,1.7-5.6
				c0-1.8-0.3-3.3-1-4.7c-0.7-1.3-1.5-2.2-2.6-2.8c-1-0.6-2.7-0.8-5-0.8h-10.9v31.6h2.1v-14.6h4.7c1.3,0,2.3,0.2,3,0.6
				c0.7,0.4,1.5,1.1,2.2,2.1c0.7,1,1.7,2.8,3.1,5.5L147.4,441.9z M139.1,424.9H131v-12.3h9c2,0,3.6,0.5,4.7,1.6
				c1.1,1.1,1.6,2.6,1.6,4.4c0,1.3-0.3,2.4-0.8,3.4c-0.6,1-1.3,1.7-2.3,2.2C142.2,424.7,140.9,424.9,139.1,424.9z M132.4,423.5h6.8
				c1.5,0,2.7-0.2,3.4-0.5c0.7-0.3,1.3-0.9,1.7-1.6c0.4-0.8,0.7-1.7,0.7-2.7c0-1.5-0.4-2.6-1.2-3.4c-0.8-0.8-2.1-1.2-3.7-1.2h-7.6
				V423.5z"/>
		</g>
		<g>
			<path class="st0" d="M165.1,442.6v-33h19v3.9h-15.5v10.1h14.6v3.9h-14.6v11.2h16.2v3.9H165.1z"/>
			<path class="st0" d="M185.4,443.3h-21V409h20.4v5.3h-15.5v8.7h14.6v5.3h-14.6v9.9h16.2V443.3z M165.8,441.9h18.3v-2.5h-16.2
				v-12.6h14.6v-2.5h-14.6v-11.4h15.5v-2.5h-17.7V441.9z"/>
		</g>
		<g>
			<path class="st0" d="M314,442.6v-33h4.2v33H314z"/>
			<path class="st0" d="M318.8,443.3h-5.5V409h5.5V443.3z M314.6,441.9h2.8v-31.6h-2.8V441.9z"/>
		</g>
		<g>
			<path class="st0" d="M359.8,431.1l4.7,1.1c-1,3.7-2.8,6.5-5.4,8.3c-2.6,1.8-5.7,2.7-9.4,2.7c-3.2,0-6-0.6-8.3-1.8
				c-2.3-1.2-4.2-3.2-5.6-5.9c-1.5-2.7-2.2-5.9-2.2-9.6c0-3.6,0.7-6.7,2.2-9.2c1.5-2.5,3.5-4.4,6-5.7c2.5-1.3,5.3-1.9,8.4-1.9
				c3.4,0,6.3,0.8,8.7,2.4c2.4,1.6,4.1,4,5.1,7.1l-4.5,1c-1.6-4.6-4.7-6.9-9.4-6.9c-2.3,0-4.4,0.5-6.1,1.4c-1.7,0.9-3.1,2.4-4.1,4.3
				c-1,2-1.5,4.4-1.5,7.4c0,4.5,1,7.9,3.1,10.2c2.1,2.3,4.8,3.4,8.2,3.4c2.5,0,4.7-0.7,6.5-2.1C358,436,359.2,433.9,359.8,431.1z"/>
			<path class="st0" d="M349.7,443.9c-3.3,0-6.2-0.6-8.6-1.9c-2.4-1.3-4.4-3.4-5.9-6.2c-1.5-2.8-2.3-6.1-2.3-9.9
				c0-3.7,0.8-7,2.3-9.6c1.5-2.6,3.6-4.6,6.2-6c2.6-1.3,5.5-2,8.7-2c3.5,0,6.6,0.9,9.1,2.5c2.5,1.7,4.4,4.2,5.4,7.5l0.2,0.7
				l-5.9,1.3l-0.2-0.6c-1.5-4.3-4.3-6.4-8.7-6.4c-2.2,0-4.1,0.4-5.7,1.3c-1.6,0.9-2.9,2.2-3.8,4c-1,1.8-1.5,4.2-1.5,7.1
				c0,4.3,1,7.6,2.9,9.7c1.9,2.1,4.5,3.2,7.7,3.2c2.4,0,4.4-0.7,6.1-1.9c1.7-1.3,2.8-3.3,3.4-5.9l0.1-0.7l6,1.4l-0.2,0.7
				c-1.1,3.8-3,6.8-5.7,8.7C356.8,442.9,353.5,443.9,349.7,443.9z M350.1,409.8c-3,0-5.7,0.6-8.1,1.8c-2.4,1.2-4.3,3-5.7,5.4
				c-1.4,2.4-2.1,5.4-2.1,8.9c0,3.5,0.7,6.7,2.1,9.2c1.4,2.6,3.2,4.5,5.4,5.6c2.2,1.2,4.9,1.8,8,1.8c3.5,0,6.5-0.9,9-2.6
				c2.3-1.6,3.9-4,4.9-7.2l-3.3-0.8c-0.7,2.6-2,4.7-3.8,6c-1.9,1.5-4.3,2.2-6.9,2.2c-3.6,0-6.5-1.2-8.7-3.6
				c-2.2-2.4-3.3-5.9-3.3-10.6c0-3.1,0.5-5.7,1.6-7.7c1.1-2.1,2.6-3.6,4.4-4.6c1.8-1,4-1.5,6.4-1.5c4.8,0,8.1,2.3,9.8,6.7l3.2-0.7
				c-0.9-2.6-2.5-4.7-4.6-6.1C356.1,410.5,353.3,409.8,350.1,409.8z"/>
		</g>
		<g>
			<path class="st0" d="M375.3,442.6v-33h4.3v13.5h16.7v-13.5h4.3v33h-4.3v-15.5h-16.7v15.5H375.3z"/>
			<path class="st0" d="M401.2,443.3h-5.6v-15.5h-15.4v15.5h-5.6V409h5.6v13.5h15.4V409h5.6V443.3z M396.9,441.9h2.9v-31.6h-2.9
				v13.5h-18.1v-13.5h-2.9v31.6h2.9v-15.5h18.1V441.9z"/>
		</g>
		<g>
			<path class="st0" d="M417,442.6v-33h4.2v33H417z"/>
			<path class="st0" d="M421.8,443.3h-5.5V409h5.5V443.3z M417.7,441.9h2.8v-31.6h-2.8V441.9z"/>
		</g>
		<g>
			<path class="st0" d="M452.4,429.9V426l13.8,0v12.3c-2.1,1.7-4.3,3-6.6,3.9c-2.3,0.9-4.6,1.3-7,1.3c-3.2,0-6-0.7-8.5-2
				c-2.5-1.3-4.5-3.2-5.9-5.8c-1.5-2.5-2.2-5.6-2.2-9.1c0-3.6,0.7-6.7,2.2-9.4c1.5-2.7,3.4-4.6,5.8-5.9c2.4-1.3,5.2-1.9,8.4-1.9
				c2.4,0,4.5,0.4,6.3,1.1c1.8,0.7,3.3,1.8,4.4,3.1c1.2,1.3,2,3.2,2.6,5.6l-3.9,1.1c-0.5-1.9-1.2-3.2-2-4.2
				c-0.8-0.9-1.8-1.6-3.2-2.2c-1.3-0.5-2.8-0.8-4.4-0.8c-2.4,0-4.4,0.5-6.1,1.4c-1.7,1-3.1,2.4-4.1,4.4c-1,2-1.6,4.5-1.6,7.4
				c0,4.4,1.1,7.7,3.3,9.9c2.2,2.2,5.1,3.3,8.7,3.3c1.7,0,3.4-0.3,5.2-1c1.8-0.7,3.2-1.5,4.3-2.4v-6.1H452.4z"/>
			<path class="st0" d="M452.7,444.1c-3.3,0-6.3-0.7-8.8-2.1c-2.6-1.4-4.7-3.4-6.2-6c-1.5-2.6-2.3-5.8-2.3-9.5c0-3.7,0.8-7,2.3-9.7
				c1.5-2.8,3.6-4.9,6-6.2c2.5-1.3,5.4-2,8.7-2c2.5,0,4.7,0.4,6.5,1.2c1.9,0.8,3.5,1.9,4.7,3.3c1.2,1.4,2.1,3.4,2.8,5.8l0.2,0.6
				l-5.2,1.4l-0.2-0.7c-0.5-1.8-1.1-3.1-1.8-3.9c-0.7-0.8-1.7-1.5-2.9-2c-1.2-0.5-2.6-0.7-4.1-0.7c-2.2,0-4.2,0.5-5.8,1.3
				c-1.6,0.9-2.9,2.3-3.9,4.2c-1,1.9-1.5,4.3-1.5,7c0,4.2,1.1,7.4,3.1,9.4c2.1,2.1,4.8,3.1,8.2,3.1c1.6,0,3.3-0.3,5-1
				c1.6-0.6,2.8-1.3,3.8-2.1v-5.1h-9.6v-5.3l15.2,0v13.3l-0.3,0.2c-2.2,1.7-4.4,3.1-6.8,4C457.6,443.6,455.2,444.1,452.7,444.1z
				 M452.4,410c-3.1,0-5.8,0.6-8.1,1.8c-2.2,1.2-4.1,3.1-5.5,5.6c-1.4,2.6-2.1,5.6-2.1,9.1c0,3.4,0.7,6.4,2.1,8.8
				c1.4,2.4,3.3,4.3,5.7,5.5c2.4,1.3,5.1,1.9,8.2,1.9c2.3,0,4.6-0.4,6.7-1.2c2.1-0.8,4.2-2,6.1-3.5v-11.2l-12.5,0v2.5h9.6v7.1
				l-0.2,0.2c-1.1,1-2.6,1.8-4.5,2.5c-1.9,0.7-3.7,1.1-5.5,1.1c-3.7,0-6.8-1.2-9.2-3.5c-2.4-2.3-3.5-5.8-3.5-10.4
				c0-3,0.6-5.6,1.6-7.7c1.1-2.1,2.6-3.7,4.4-4.7c1.8-1,4-1.5,6.5-1.5c1.7,0,3.3,0.3,4.7,0.8c1.4,0.6,2.5,1.4,3.4,2.4
				c0.8,0.9,1.4,2.2,1.9,3.8l2.6-0.7c-0.5-1.9-1.3-3.5-2.3-4.6c-1.1-1.3-2.5-2.2-4.2-2.9C456.8,410.3,454.7,410,452.4,410z"/>
		</g>
		<g>
			<path class="st0" d="M476.3,442.6l13.5-33h4.9l14.3,33h-5.3l-4.1-8.2h-14.7l-3.8,8.2H476.3z M486.3,430.9h11.9l-3.6-10.9
				c-1-2.8-1.9-5-2.5-6.8c-0.6,2.1-1.2,4.1-1.9,6.3L486.3,430.9z"/>
			<path class="st0" d="M510,443.3h-6.7l-4.1-8.2h-13.8l-3.8,8.2h-6.3l14-34.3h5.8L510,443.3z M504.1,441.9h3.8l-13.7-31.6h-4
				l-12.9,31.6h3.4l3.8-8.2H500L504.1,441.9z M499.1,431.6h-13.8l4.2-12.4c0.7-2.2,1.3-4.2,1.9-6.3l0.6-2.1l0.7,2
				c0.4,1,0.8,2.2,1.3,3.5c0.4,1,0.8,2.1,1.2,3.3L499.1,431.6z M487.2,430.2h10l-3.3-10c-0.4-1.2-0.8-2.3-1.2-3.3
				c-0.2-0.6-0.4-1.1-0.6-1.6c-0.4,1.4-0.8,2.8-1.3,4.3L487.2,430.2z"/>
		</g>
		<g>
			<path class="st0" d="M520,442.6v-33h4.8l18.7,25.9v-25.9h4.5v33h-4.8l-18.7-25.9v25.9H520z"/>
			<path class="st0" d="M548.7,443.3h-5.9l-17.6-24.5v24.5h-5.9V409h5.9l17.7,24.5V409h5.9V443.3z M543.5,441.9h3.8v-31.6h-3.1v27.4
				l-19.7-27.4h-3.8v31.6h3.2v-27.4L543.5,441.9z"/>
		</g>
	</g>
	<g>
		<path d="M296.4,463.6c-3.8-2.7-6.5-6.3-8-10.8c-2.7-7.7-3.1-15.6-1.9-23.6c1.1-7.2,2.3-14.4,3.4-21.5c0.1-0.8,0-1.7,0-2.6
			c-0.3-0.2-0.7-0.3-1-0.5c-2.1,2.5-4.2,4.8-6.2,7.4c-10.8,14.4-21.5,28.9-32.2,43.4c-3.5,4.7-8.5,6.8-13.8,8.3
			c-3.7,1.1-5.8-1.1-4.8-4.9c1.6-6,3.5-12,5.7-17.9c5-13.5,10.2-26.8,15.3-40.3c1.4-3.8,2.6-7.7,3.7-11.5c0.4-1.4,0.4-2.9,0.5-4.4
			c-0.3-0.2-0.6-0.4-0.8-0.7c-3.3,2.4-6.8,4.6-9.9,7.2c-10.9,9.3-20.5,19.8-29.6,30.9c-8.2,10-16.4,20-24.1,30.4
			c-6.2,8.4-11.7,17.4-17.5,26.1c-0.7,1-1.3,2.1-2.2,2.8c-1.7,1.4-3.6,1.8-5.5,0.2c-2-1.6-1.2-3.3-0.1-4.8
			c5.7-8.4,11.1-17.2,17.4-25.2c12.9-16.2,25.9-32.4,39.6-47.9c7.2-8.2,15.3-15.6,23.9-22.3c4.9-3.8,11.3-5.9,17.2-8.2
			c4.8-1.8,8.2,0.9,6.9,6c-2.4,10.2-5.2,20.4-8.6,30.3c-3,8.6-7,16.8-10.6,25.1c-0.5,1.1-0.9,2.2-1.3,3.3c0.2,0.1,0.5,0.3,0.7,0.4
			c3.5-4.3,6.9-8.7,10.4-13c6.7-8.3,13.7-16.5,20.2-25c3.2-4.2,6.6-8.1,11.3-10.3c3.3-1.6,7-2.4,10.6-3.1c0.6-0.1,2.3,2,2.3,3.1
			c0.1,2.5-0.4,5-1,7.5c-2.5,10.2-4.6,20.5-4.7,31.1c-0.1,6.6-0.1,12.8,2,19.4c2.6,8,14,10.8,14.8,11.5c-0.7,0.7-14.4,7.8-14.4,7.8
			S300.6,466.4,296.4,463.6z"/>
	</g>
</g>
</svg>
