<?xml version="1.0" encoding="utf-8"?>
<!-- Generator: Adobe Illustrator 27.0.0, SVG Export Plug-In . SVG Version: 6.00 Build 0)  -->
<svg version="1.1" id="Layer_1" xmlns="http://www.w3.org/2000/svg" xmlns:xlink="http://www.w3.org/1999/xlink" x="0px" y="0px"
	 viewBox="0 0 595.3 841.9" style="enable-background:new 0 0 595.3 841.9;" xml:space="preserve">
<style type="text/css">
	.st0{fill:#010101;}
</style>
<g>
	<g>
		<polygon class="st0" points="164.7,377.9 164.7,427.7 154.1,427.7 154,398 139.6,422.4 134.5,422.4 120.1,398.4 120.1,427.7 
			109.5,427.7 109.5,377.9 118.9,377.9 137.3,408.8 155.2,377.9 		"/>
		<path class="st0" d="M176.7,427.7v-49.8h12v49.8H176.7z"/>
		<path class="st0" d="M221.4,428.6c-4.1,0-8.1-0.5-11.9-1.6c-3.8-1.1-6.9-2.5-9.2-4.2l4.1-8.7c2.2,1.5,4.8,2.8,7.8,3.7
			c3.1,1,6.1,1.5,9.2,1.5c2.4,0,4.3-0.2,5.7-0.7c1.5-0.5,2.5-1.1,3.2-1.9c0.7-0.8,1-1.7,1-2.7c0-1.3-0.5-2.4-1.6-3.2
			c-1.1-0.8-2.5-1.4-4.3-1.9c-1.8-0.5-3.8-1-5.9-1.4c-2.1-0.4-4.2-1-6.4-1.6c-2.1-0.6-4.1-1.5-5.9-2.6c-1.8-1.1-3.2-2.5-4.3-4.2
			c-1.1-1.7-1.6-3.9-1.6-6.5c0-2.8,0.8-5.4,2.4-7.8c1.6-2.3,4-4.2,7.2-5.6c3.2-1.4,7.3-2.1,12.2-2.1c3.3,0,6.5,0.4,9.6,1.1
			c3.2,0.8,5.9,1.9,8.3,3.3l-3.8,8.7c-2.3-1.3-4.7-2.2-7.2-2.9c-2.5-0.6-4.8-1-7.1-1c-2.4,0-4.3,0.2-5.7,0.7c-1.4,0.5-2.5,1.2-3.1,2
			c-0.7,0.9-1,1.8-1,2.8c0,1.3,0.5,2.4,1.6,3.2c1.1,0.8,2.5,1.4,4.3,1.9c1.8,0.5,3.7,0.9,5.9,1.4c2.2,0.5,4.3,1,6.4,1.7
			c2.1,0.7,4.1,1.5,5.8,2.5c1.8,1,3.2,2.4,4.3,4.1s1.7,3.9,1.7,6.4c0,2.8-0.8,5.4-2.4,7.7c-1.6,2.3-4,4.2-7.3,5.6
			C230.3,427.9,226.2,428.6,221.4,428.6z"/>
		<path class="st0" d="M270.2,428.6c-4.1,0-8.1-0.5-11.9-1.6c-3.8-1.1-6.9-2.5-9.2-4.2l4.1-8.7c2.2,1.5,4.8,2.8,7.8,3.7
			c3.1,1,6.1,1.5,9.2,1.5c2.4,0,4.3-0.2,5.7-0.7c1.5-0.5,2.5-1.1,3.2-1.9c0.7-0.8,1-1.7,1-2.7c0-1.3-0.5-2.4-1.6-3.2
			c-1.1-0.8-2.5-1.4-4.3-1.9c-1.8-0.5-3.8-1-5.9-1.4c-2.1-0.4-4.2-1-6.4-1.6c-2.1-0.6-4.1-1.5-5.9-2.6c-1.8-1.1-3.2-2.5-4.3-4.2
			c-1.1-1.7-1.6-3.9-1.6-6.5c0-2.8,0.8-5.4,2.4-7.8c1.6-2.3,4-4.2,7.2-5.6c3.2-1.4,7.3-2.1,12.2-2.1c3.3,0,6.5,0.4,9.6,1.1
			c3.2,0.8,5.9,1.9,8.3,3.3l-3.8,8.7c-2.3-1.3-4.7-2.2-7.2-2.9c-2.5-0.6-4.8-1-7.1-1c-2.4,0-4.3,0.2-5.7,0.7c-1.4,0.5-2.5,1.2-3.1,2
			c-0.7,0.9-1,1.8-1,2.8c0,1.3,0.5,2.4,1.6,3.2c1.1,0.8,2.5,1.4,4.3,1.9c1.8,0.5,3.7,0.9,5.9,1.4c2.2,0.5,4.3,1,6.4,1.7
			c2.1,0.7,4.1,1.5,5.8,2.5c1.8,1,3.2,2.4,4.3,4.1c1.1,1.7,1.7,3.9,1.7,6.4c0,2.8-0.8,5.4-2.4,7.7c-1.6,2.3-4,4.2-7.3,5.6
			C279.1,427.9,275.1,428.6,270.2,428.6z"/>
		<path class="st0" d="M325.1,428.6c-3.9,0-7.5-0.6-10.7-1.9c-3.3-1.3-6.1-3.1-8.6-5.4c-2.4-2.3-4.3-5.1-5.7-8.2
			c-1.3-3.1-2-6.5-2-10.2c0-3.7,0.7-7.2,2-10.3c1.3-3.1,3.2-5.8,5.7-8.1c2.4-2.3,5.3-4.1,8.5-5.4c3.3-1.3,6.8-1.9,10.7-1.9
			c3.9,0,7.5,0.6,10.7,1.9c3.3,1.3,6.1,3,8.5,5.4c2.4,2.3,4.3,5.1,5.7,8.2s2,6.6,2,10.3c0,3.7-0.7,7.1-2,10.3
			c-1.3,3.2-3.2,5.9-5.7,8.2c-2.4,2.3-5.3,4.1-8.5,5.4C332.5,428,328.9,428.6,325.1,428.6z M325,418.8c2.2,0,4.2-0.4,6.1-1.2
			c1.8-0.8,3.5-1.9,4.9-3.3c1.4-1.4,2.5-3.1,3.3-5.1c0.8-1.9,1.2-4.1,1.2-6.4s-0.4-4.5-1.2-6.4c-0.8-1.9-1.9-3.6-3.3-5.1
			c-1.4-1.4-3-2.6-4.9-3.3c-1.9-0.8-3.9-1.2-6.1-1.2c-2.2,0-4.2,0.4-6.1,1.2c-1.9,0.8-3.5,1.9-4.9,3.3c-1.4,1.4-2.5,3.1-3.2,5.1
			c-0.8,1.9-1.2,4.1-1.2,6.4s0.4,4.5,1.2,6.4c0.8,1.9,1.8,3.6,3.2,5.1c1.4,1.4,3,2.6,4.9,3.3C320.8,418.4,322.8,418.8,325,418.8z"/>
		<path class="st0" d="M383.9,428.6c-7.3,0-13.1-2-17.2-5.9c-4.1-3.9-6.2-9.6-6.2-16.9v-27.8h12v27.5c0,4.7,1,8.1,3,10.2
			c2,2.1,4.8,3.2,8.4,3.2c3.6,0,6.5-1.1,8.5-3.2c2-2.1,3-5.5,3-10.2v-27.5h11.7v27.8c0,7.4-2.1,13-6.2,16.9
			C396.9,426.6,391.2,428.6,383.9,428.6z"/>
		<path class="st0" d="M451.3,411.7C451.3,411.7,451.3,411.7,451.3,411.7c3.2-1.4,5.6-3.5,7.3-6.2s2.6-5.9,2.6-9.7
			c0-3.7-0.9-6.9-2.6-9.6c-1.7-2.7-4.1-4.8-7.3-6.2c-3.2-1.4-6.9-2.2-11.2-2.2h-21v49.8h11.3v-13.9h9.7c0.2,0,0.3,0,0.5,0l9.4,14
			h12.1L451.3,411.7z M430.4,387.3h9.1c3.4,0,6,0.8,7.8,2.3c1.8,1.5,2.6,3.6,2.6,6.4c0,2.8-0.9,4.9-2.6,6.4
			c-1.8,1.5-4.3,2.3-7.8,2.3h-9.1V387.3z"/>
		<path class="st0" d="M473.4,427.7v-49.8h12v49.8H473.4z"/>
	</g>
	<g>
		<path class="st0" d="M162.8,452.6c-0.7-1.1-1.7-2-2.9-2.6c-0.3-0.2-0.6-0.3-1-0.4c1.1-0.6,1.9-1.4,2.5-2.4c0.7-1.1,1-2.4,1-3.9
			c0-2.3-0.9-4.1-2.6-5.4c-1.7-1.3-4.2-2-7.4-2h-12.8v28.5h13.6c3.5,0,6.1-0.7,7.9-2c1.8-1.4,2.7-3.3,2.7-5.7
			C163.8,455.1,163.5,453.7,162.8,452.6z M146.4,440.2h5.4c1.7,0,3.1,0.3,4,1s1.4,1.6,1.4,3c0,1.3-0.5,2.3-1.4,2.9c-1,0.7-2.3,1-4,1
			h-5.4V440.2z M157.3,459.4c-1,0.7-2.5,1-4.3,1h-6.5v-8.2h6.5c1.9,0,3.3,0.3,4.3,1c1,0.7,1.5,1.7,1.5,3.1
			C158.8,457.7,158.3,458.7,157.3,459.4z"/>
		<path class="st0" d="M170,464.5V436h5.3v28.5H170z"/>
		<path class="st0" d="M195.8,464.9c-2.2,0-4.2-0.4-6.1-1.1c-1.8-0.7-3.5-1.7-4.8-3.1c-1.4-1.3-2.4-2.9-3.2-4.6
			c-0.8-1.8-1.1-3.7-1.1-5.9c0-2.1,0.4-4.1,1.1-5.9c0.8-1.8,1.8-3.3,3.2-4.6c1.4-1.3,3-2.4,4.8-3.1s3.9-1.1,6.1-1.1
			c2.3,0,4.5,0.4,6.4,1.2c1.9,0.8,3.6,2,4.9,3.6l-3.4,3.2c-1.1-1.1-2.2-1.9-3.5-2.5c-1.3-0.6-2.6-0.8-4.1-0.8
			c-1.5,0-2.9,0.2-4.1,0.7c-1.2,0.5-2.3,1.2-3.2,2.1c-0.9,0.9-1.6,2-2.1,3.2c-0.5,1.2-0.8,2.6-0.8,4c0,1.5,0.3,2.8,0.8,4
			c0.5,1.2,1.2,2.3,2.1,3.2c0.9,0.9,2,1.6,3.2,2.1c1.2,0.5,2.6,0.7,4.1,0.7c1.5,0,2.8-0.3,4.1-0.8c1.3-0.6,2.4-1.4,3.5-2.5l3.4,3.2
			c-1.3,1.6-3,2.8-4.9,3.6C200.3,464.5,198.1,464.9,195.8,464.9z"/>
		<path class="st0" d="M217.2,460.1h16.1v4.5h-21.4V436h20.8v4.5h-15.5V460.1z M216.8,447.9h14.2v4.4h-14.2V447.9z"/>
		<polygon class="st0" points="264.6,436 264.6,464.5 260.2,464.5 244.6,445.2 244.6,464.5 239.3,464.5 239.3,436 243.7,436 
			259.4,455.4 259.4,436 		"/>
		<path class="st0" d="M278.7,464.5v-24h-9.5V436h24.2v4.5H284v24H278.7z"/>
		<polygon class="st0" points="319.5,460.1 319.5,464.5 298.1,464.5 298.1,436 318.9,436 318.9,440.5 303.4,440.5 303.4,447.9 
			317.2,447.9 317.2,452.2 303.4,452.2 303.4,460.1 		"/>
		<polygon class="st0" points="350.7,436 350.7,464.5 346.3,464.5 330.7,445.2 330.7,464.5 325.4,464.5 325.4,436 329.8,436 
			345.5,455.4 345.5,436 		"/>
		<polygon class="st0" points="383.7,436 383.7,464.5 379.3,464.5 363.7,445.2 363.7,464.5 358.4,464.5 358.4,436 362.8,436 
			378.5,455.4 378.5,436 		"/>
		<path class="st0" d="M391.4,464.5V436h5.3v28.5H391.4z"/>
		<path class="st0" d="M419,436h-5.2L401,464.5h5.4l2.8-6.6h14.3l2.8,6.6h5.6L419,436z M411,453.8l5.4-12.5l5.3,12.5H411z"/>
		<path class="st0" d="M435.8,464.5V436h5.3v24H456v4.5H435.8z"/>
	</g>
</g>
</svg>
