<?xml version="1.0" encoding="utf-8"?>
<!-- Generator: Adobe Illustrator 27.0.0, SVG Export Plug-In . SVG Version: 6.00 Build 0)  -->
<svg version="1.1" id="Layer_1" xmlns="http://www.w3.org/2000/svg" xmlns:xlink="http://www.w3.org/1999/xlink" x="0px" y="0px"
	 viewBox="0 0 595.3 841.9" style="enable-background:new 0 0 595.3 841.9;" xml:space="preserve">
<style type="text/css">
	.st0{fill:#010101;}
</style>
<g>
	<path class="st0" d="M84.5,404.8v-27.1h16.2v63.5l-36.3-29.8v28.2H48.2v-64.4L84.5,404.8z"/>
	<path class="st0" d="M133.2,393v8.6h25.5v13.7h-25.5v8.9h27.1v15.4h-43.9v-61.8h43.9V393H133.2z"/>
	<path class="st0" d="M225.8,424.7c-1,9.7-6.3,14.9-23.6,14.9h-28.9v-61.8h30c12.3,0,20.2,7.6,20.3,16.1
		c0.1,10.3-7.6,13.9-10.4,13.9C221.5,409.3,226.8,414.6,225.8,424.7z M208.8,420.1c0-3.8-3.1-6.1-8.5-6.1l-9.7,0v12.3h9.5
		C204.6,426.3,208.8,424.3,208.8,420.1z M207.3,396.9c0-3.1-2.8-5.1-7.8-5.1l-8.9,0V402h8.8C203.4,402,207.3,400.4,207.3,396.9z"/>
	<path class="st0" d="M265.4,421.9l-10-0.1l0,17.7h-17l-0.1-61.8h25.7c14.6,0,24.6,9,25.1,20.1c0.3,8.2-2.1,15.1-8.7,17.9l15.1,23.8
		h-20L265.4,421.9z M256.4,408.4l7.4,0c3.8,0,7.3-3.1,7.3-7.9c0-4.9-3.5-7.9-7.3-7.9h-7.4V408.4z"/>
	<path class="st0" d="M328.1,375.8l2.7,0.1l30.3,63.7h-17.7l-4.1-8.2h-20.7l-4.1,8.2h-17.7L328.1,375.8z M334.4,418.8l-5.8-13.1
		l-5.8,13.1H334.4z"/>
	<path class="st0" d="M514.1,375.8l2.7,0.1l30.3,63.7h-17.7l-4.1-8.2h-20.7l-4.1,8.2h-17.7L514.1,375.8z M520.3,418.8l-5.8-13.1
		l-5.8,13.1H520.3z"/>
	<path class="st0" d="M364.2,425.5l12.8-5.2c2.8,3.8,5.3,7.2,11,7.4c5.7,0.3,8.9-2.5,7.9-6.1c-0.8-3.1-5.1-4.7-14.6-6.7
		c-9-1.9-16.6-3.7-15.9-19.8c0.5-10.7,11.1-18.5,24-18.3c16.3,0.2,19.8,8.9,22.4,15l-12.8,4.6c-2.3-2.7-3.2-5.6-10.2-6.9
		c-5-0.9-8,1.8-7,6.1c0.6,2.8,5.7,5.7,13.5,6.5c13.7,1.5,17.6,10,17.6,19.1c0,11.8-9.7,20-25.6,19.6
		C376.3,440.7,368,438.6,364.2,425.5z"/>
	<path class="st0" d="M450,418.2l-6.9,9.2l0,12.2h-16.9v-61.8h16.9v26l17.7-26h19.7l-19.8,27.1l20.3,34.7h-19.8L450,418.2z"/>
</g>
</svg>
