<?xml version="1.0" encoding="utf-8"?>
<!-- Generator: Adobe Illustrator 27.0.0, SVG Export Plug-In . SVG Version: 6.00 Build 0)  -->
<svg version="1.1" id="Layer_1" xmlns="http://www.w3.org/2000/svg" xmlns:xlink="http://www.w3.org/1999/xlink" x="0px" y="0px"
	 viewBox="0 0 595.3 841.9" style="enable-background:new 0 0 595.3 841.9;" xml:space="preserve">
<style type="text/css">
	.st0{fill:#010101;}
</style>
<g>
	<path class="st0" d="M16.8,358.1h12.7c1.8,0.8,3.9,1.9,6.1,3.4c2.2,1.4,4.3,3,6.3,4.6c1.9,1.6,3.6,3.2,5.1,4.7v-12.6h12.7v44.5
		H46.9v-14.5c-1.1-1.3-2.3-2.7-3.7-4.1c-1.4-1.4-3-2.9-4.6-4.4c-1.7-1.5-3.2-2.7-4.7-3.9c-1.5-1.1-2.9-2.1-4.4-3v29.8H16.8V358.1z"
		/>
	<path class="st0" d="M65.1,380.4c0-3.8,0.6-7.1,1.7-10c1.1-2.9,2.8-5.4,4.9-7.4c2.1-2,4.6-3.5,7.3-4.5c2.8-1,5.8-1.5,9.1-1.5
		c3.3,0,6.3,0.5,9.1,1.5c2.8,1,5.2,2.5,7.4,4.5c2.1,2,3.7,4.4,4.9,7.3c1.2,2.9,1.7,6.2,1.7,10c0,3.8-0.6,7.1-1.7,10
		c-1.2,2.9-2.8,5.3-4.9,7.3c-2.1,2-4.6,3.5-7.4,4.5s-5.8,1.5-9.1,1.5c-4.5,0-8.4-0.9-11.9-2.7c-3.5-1.8-6.2-4.4-8.2-7.9
		C66.1,389.6,65.1,385.3,65.1,380.4z M78.1,380.4c0,3.8,0.8,7,2.5,9.5c1.7,2.5,4.2,3.7,7.6,3.7c3.4,0,5.9-1.2,7.6-3.7
		c1.7-2.5,2.5-5.6,2.5-9.5c0-2.4-0.3-4.6-1-6.6c-0.7-2-1.8-3.6-3.3-4.8c-1.5-1.2-3.4-1.8-5.7-1.8c-2.4,0-4.3,0.6-5.8,1.8
		s-2.6,2.7-3.3,4.7C78.5,375.7,78.1,377.9,78.1,380.4z"/>
	<path class="st0" d="M116.8,358.1h17.8c3.5,0,6.8,0.3,9.9,0.9s5.9,2.1,8.4,4.4c2.5,2.4,3.8,5.9,3.8,10.6c0,3.1-0.6,5.6-1.9,7.7
		s-2.8,3.7-4.7,4.8s-3.9,1.8-6,2.2c2.8,1.4,5.1,2.4,6.8,3c1.8,0.6,3.4,0.9,4.8,1v11c-1.9-0.4-4-1-6.3-1.7c-2.3-0.8-4.5-1.7-6.7-2.7
		c-2.2-1-4.1-2-5.7-2.9c-1.6-0.9-3.4-2-5.3-3.2v-11.5c1.4,0.4,2.9,0.7,4.2,0.7c2.2,0,4-0.6,5.4-1.7c1.5-1.2,2.2-3,2.2-5.5
		c0-2.1-0.5-3.6-1.5-4.7c-1-1-2.2-1.6-3.4-1.9c-1.2-0.2-2.5-0.4-3.9-0.4h-5.3v34.6h-12.7V358.1z"/>
	<path class="st0" d="M158.6,358.1h33.9v10h-10.6v34.6h-12.7v-34.6h-10.6V358.1z"/>
	<path class="st0" d="M196.1,358.1h12.7v44.5h-12.7V358.1z M223.4,358.1H236v44.5h-12.7v-22h-12.2v-10h12.2V358.1z"/>
	<path class="st0" d="M295.7,358.1v9.7c-2.1-0.6-4.1-0.9-6-0.9c-2.2,0-4.2,0.3-6,1c-1.7,0.6-3.2,1.6-4.4,2.8
		c-1.2,1.2-2.1,2.6-2.7,4.2c-0.6,1.6-0.9,3.4-0.9,5.4c0,2.8,0.4,5.1,1.3,6.9s2,3.2,3.4,4.2c1.4,1,2.8,1.6,4.2,2s2.8,0.5,4,0.5
		c2.4,0,4.7-0.4,7-1.1v10c-3,0.7-6.3,1-9.7,1c-5.4,0-9.9-1.1-13.4-3.4c-3.5-2.2-6-5.1-7.6-8.7c-1.5-3.5-2.3-7.3-2.3-11.4
		c0-4.5,1-8.5,2.9-12.1c2-3.5,4.8-6.2,8.5-8.2c3.7-1.9,8.1-2.9,13.2-2.9C290,357.1,292.8,357.5,295.7,358.1z"/>
	<path class="st0" d="M312.5,358.1h12.1c2.2,3.5,4.2,7.2,5.9,11c1.7,3.8,3.2,7.8,4.5,11.8c1.3,4,2.4,7.8,3.2,11.5
		c0.9,3.7,1.5,7.1,2.1,10.2h-12.7c-0.2-0.8-0.4-1.9-0.6-3.3c-0.3-1.7-0.5-3.1-0.8-4.2h-12.5c0.6-3,1.4-6.1,2.3-9.3h7.7
		c-0.5-2-1.1-3.8-1.7-5.6c-0.6-1.7-1.3-3.3-1.9-4.7c-0.6-1.4-1.1-2.4-1.4-2.9c-1.4,3.1-2.7,6.3-3.9,9.7s-2.2,6.8-3.1,10.3
		c-0.9,3.5-1.6,6.9-2.1,10H297c0.7-3.7,1.6-7.6,2.7-11.8c1.1-4.2,2.4-8.3,3.8-12.5c1.4-4.1,2.9-7.9,4.4-11.3
		C309.4,363.6,310.9,360.6,312.5,358.1z"/>
	<path class="st0" d="M343.8,358.1h17.8c3.5,0,6.8,0.3,9.9,0.9s5.9,2.1,8.4,4.4c2.5,2.4,3.8,5.9,3.8,10.6c0,3.1-0.6,5.6-1.9,7.7
		s-2.8,3.7-4.7,4.8c-1.9,1.1-3.9,1.8-6,2.2c2.8,1.4,5.1,2.4,6.8,3c1.8,0.6,3.4,0.9,4.8,1v11c-1.9-0.4-4-1-6.3-1.7
		c-2.3-0.8-4.5-1.7-6.7-2.7c-2.2-1-4.1-2-5.7-2.9c-1.6-0.9-3.4-2-5.3-3.2v-11.5c1.4,0.4,2.9,0.7,4.2,0.7c2.2,0,4-0.6,5.4-1.7
		c1.5-1.2,2.2-3,2.2-5.5c0-2.1-0.5-3.6-1.5-4.7c-1-1-2.2-1.6-3.4-1.9c-1.2-0.2-2.5-0.4-3.9-0.4h-5.3v34.6h-12.7V358.1z"/>
	<path class="st0" d="M387.6,380.4c0-3.8,0.6-7.1,1.7-10c1.1-2.9,2.8-5.4,4.9-7.4s4.6-3.5,7.3-4.5c2.8-1,5.8-1.5,9.1-1.5
		c3.3,0,6.3,0.5,9.1,1.5c2.8,1,5.2,2.5,7.4,4.5c2.1,2,3.7,4.4,4.9,7.3s1.7,6.2,1.7,10c0,3.8-0.6,7.1-1.7,10
		c-1.2,2.9-2.8,5.3-4.9,7.3c-2.1,2-4.6,3.5-7.4,4.5s-5.8,1.5-9.1,1.5c-4.5,0-8.4-0.9-11.9-2.7s-6.2-4.4-8.2-7.9
		C388.6,389.6,387.6,385.3,387.6,380.4z M400.6,380.4c0,3.8,0.8,7,2.5,9.5s4.2,3.7,7.6,3.7c3.4,0,5.9-1.2,7.6-3.7
		c1.7-2.5,2.5-5.6,2.5-9.5c0-2.4-0.3-4.6-1-6.6s-1.8-3.6-3.3-4.8c-1.5-1.2-3.4-1.8-5.7-1.8c-2.4,0-4.3,0.6-5.8,1.8s-2.6,2.7-3.3,4.7
		C400.9,375.7,400.6,377.9,400.6,380.4z"/>
	<path class="st0" d="M439.3,358.1h12.7v34.6h17.3v10h-29.9V358.1z"/>
	<path class="st0" d="M472,358.1h12.7v44.5H472V358.1z"/>
	<path class="st0" d="M491.8,358.1h12.7c1.8,0.8,3.9,1.9,6.1,3.4c2.2,1.4,4.3,3,6.3,4.6c1.9,1.6,3.6,3.2,5.1,4.7v-12.6h12.7v44.5
		H522v-14.5c-1.1-1.3-2.3-2.7-3.7-4.1c-1.4-1.4-3-2.9-4.6-4.4c-1.7-1.5-3.2-2.7-4.7-3.9c-1.5-1.1-2.9-2.1-4.4-3v29.8h-12.7V358.1z"
		/>
	<path class="st0" d="M553.8,358.1h12.1c2.2,3.5,4.2,7.2,5.9,11c1.7,3.8,3.2,7.8,4.5,11.8c1.3,4,2.4,7.8,3.2,11.5
		c0.9,3.7,1.5,7.1,2.1,10.2h-12.7c-0.2-0.8-0.4-1.9-0.6-3.3c-0.3-1.7-0.5-3.1-0.8-4.2h-12.5c0.6-3,1.4-6.1,2.3-9.3h7.7
		c-0.5-2-1.1-3.8-1.7-5.6c-0.6-1.7-1.3-3.3-1.9-4.7c-0.6-1.4-1.1-2.4-1.4-2.9c-1.4,3.1-2.7,6.3-3.9,9.7s-2.2,6.8-3.1,10.3
		c-0.9,3.5-1.6,6.9-2.1,10h-12.7c0.7-3.7,1.6-7.6,2.7-11.8s2.4-8.3,3.8-12.5c1.4-4.1,2.9-7.9,4.4-11.3
		C550.6,363.6,552.2,360.6,553.8,358.1z"/>
</g>
</svg>
