<?xml version="1.0" encoding="UTF-8"?>
<svg id="Layer_1" data-name="Layer 1" xmlns="http://www.w3.org/2000/svg" viewBox="0 0 174.71 182.96">
  <g>
    <path d="M13.72,99.31c-.41-12.89-1.39-25.81-1-38.68,.2-6.54,2.46-13.15,4.58-19.45,1.24-3.67,4.72-5.41,8.83-5.63,4.97-.27,9.22,.63,12.14,5.2,4.29,6.71,5.49,14.28,6.1,22.06,.4,5.05,1.35,10.07,1.56,15.13,.2,4.72-.18,9.47-.45,14.2-.32,5.73-.7,11.47-1.23,17.18-.53,5.7-2.39,11.01-5.74,15.59-3.52,4.81-8.85,5.12-13.87,4.1-4.63-.94-8.32-4.13-9.09-9.26-1.02-6.76-1.5-13.6-2.22-20.4l.39-.05Zm9.33-5.03c.06,0,.11,0,.17,0,0,4.2-.11,8.41,.04,12.61,.08,2.3,.12,4.82,1.06,6.79,.8,1.66,2.74,3.34,4.45,3.73,1.03,.23,3.27-1.74,3.77-3.16,1.26-3.59,2.11-7.4,2.62-11.19,.46-3.38-.12-6.91,.4-10.27,2.01-13.13,.14-25.99-2.15-38.83-.35-1.99-1.43-3.98-2.6-5.67-1.85-2.66-4.35-2.37-5.28,.67-1.11,3.63-2.28,7.42-2.38,11.17-.31,11.37-.11,22.76-.11,34.15Z"/>
    <path d="M149.08,88.95c-.84,6.91-1.89,17.64-3.55,28.27-.81,5.2-3.7,9.28-8.9,11.37-8.41,3.37-17.85-2.83-18.3-12.02-.29-5.84-1.13-11.66-1.5-17.5-.28-4.5-.32-9.02-.28-13.53,.09-10.05,.09-20.11,.54-30.15,.19-4.12,.96-8.37,2.34-12.23,2.65-7.36,12.35-9.51,18.67-5.14,6.17,4.27,8.08,10.52,8.76,17.28,.99,9.88,1.35,19.84,2.22,33.65Zm-22.93,1.17c-.16,.01-.31,.03-.47,.04,.6,7.48,1.24,14.96,1.79,22.45,.21,2.91,2.06,3.88,4.45,4.43,2.44,.56,3.25-1.28,4.08-2.93,.49-.96,.77-2.08,.95-3.16,2.48-14.9,3.26-29.87,1.39-44.91-.54-4.38-1.24-8.75-2.01-13.1-.58-3.28-2.99-4.32-5.92-4.6-3-.29-3.21,2.02-3.61,4.07-.32,1.62-.62,3.27-.63,4.91-.05,10.94-.03,21.87-.03,32.81Z"/>
    <path d="M85.45,90.71c0,11.17,.05,22.34-.03,33.51-.03,3.61-1.76,5.69-4.18,5.56-3.13-.17-5.42-3-5.39-6.29,.13-14.26,.21-28.51,.24-42.77,0-2.09-.31-4.2-.61-6.28-.59-4.12-1.96-5.25-5.82-4.95-2.18,.17-4.39,3.24-4.35,6.04,.14,11.05,.31,22.1,.41,33.14,.05,5.29,0,10.59-.11,15.88-.06,2.97-1.97,4.34-4.61,4.63-2.7,.29-4.92-.69-5.14-3.74-.46-6.61-.74-13.25-.93-19.87-.15-5.19-.11-10.38-.04-15.57,.09-6.42,.47-12.84,.4-19.25-.11-9.96-.57-19.91-.73-29.87-.07-4.53,2.96-6.87,7.02-5.49,.98,.33,2.17,1.62,2.32,2.61,.4,2.6,.3,5.27,.36,7.92,.08,3.75,.08,7.51,.2,11.26,.09,2.75,1.97,2.43,3.75,2.1,5.65-1.04,10.73,.48,13.53,5.53,1.99,3.59,2.8,8.08,3.32,12.28,.55,4.47,.12,9.07,.12,13.61,.09,0,.17,0,.26,0Z"/>
    <path d="M96.3,118.37c0-7.62,.07-15.24-.02-22.86-.12-10.6-.31-21.2-.54-31.8-.09-3.89,1.86-6.27,5.65-6.59,2.73-.23,4.38,.95,4.7,3.79,.15,1.32,.24,2.65,.2,3.97-.28,12.02-.79,24.05-.82,36.07-.01,5.16,.97,10.32,1.41,15.49,.23,2.75,.41,5.52,.36,8.27-.06,2.71-.82,5.1-4.13,5.3-2.83,.17-5.27-1.63-5.76-4.69-.37-2.28-.28-4.63-.4-6.94-.22,0-.44,0-.66-.01Z"/>
    <path d="M99.54,42.36c2.62-.06,4.78,2.1,4.81,4.81,.03,2.69-2.33,5.18-4.97,5.01-2.5-.16-3.94-1.77-4.17-4.25-.28-3,1.79-5.51,4.33-5.57Z"/>
  </g>
  <g id="BsXfv1.tif">
    <path d="M171.2,81c1.07,5.31-1.01,10.01-2.5,14.81-.98,3.15-2.56,6.12-3.59,9.26-.4,1.21-.05,2.68-.01,4.02,.1,3.15,.73,6.41,.13,9.42-.37,1.86-2.29,3.96-4.07,4.9-3.76,1.98-6.82,4.37-9.28,7.9-1.41,2.03-3.74,3.49-5.87,4.9-.76,.5-2.18,.36-3.17,.08-2.23-.64-3.99-.29-5.59,1.47-1.79,1.97-3.57,4.16-6.8,2.4-.34-.18-1.62,.5-1.77,.99-.77,2.4-1.38,4.86-1.87,7.34-.17,.88,.19,1.87,.27,2.81,.45,5.15-4.12,8.46-8.79,6.34-1.79-.82-3.59-1.63-5.3-2.6-1.59-.9-2.24-.54-2.67,1.23-.44,1.87-1.4,3.61-1.88,5.47-.4,1.55-.58,3.19-.56,4.79,.04,2.88,.19,5.7-2.44,7.74-.37,.29-.63,.85-.73,1.34-.83,4.03-4.28,5.41-7.35,6.95-2.64,1.33-4.5-.97-6.35-2.35-2.99-2.24-5.95-4.56-8.65-7.13-1.17-1.11-1.74-2.9-2.45-4.44-.6-1.31-.85-3.21-2.74-2.81-1.81,.39-3.6,1.28-5.17,2.3-1.27,.82-2.1,2.95-3.31,3.12-3.3,.46-6.75,1.39-10.02-.67-2.52-1.59-5.15-2.8-8.28-1.05-4.93,2.76-8.35-.27-11.42-3.54-1.43-1.52-2.92-2.21-4.92-2.28-1.53-.05-3.09-.27-4.58-.61-3.17-.74-5.15-2.49-5.95-5.93-.95-4.11-4-6.95-7.45-9.17-.78-.5-2.14-.06-3.22-.17-2.43-.23-4.98-.16-7.25-.91-2.96-.98-4.62-3.16-4.58-6.66,.06-5.99-.28-11.99-.44-17.98-.1-3.65-.2-7.31-.24-10.97l-.3-26.85c.52-6.13,.82-12.29,.94-18.45,.14-7.12,.01-14.24,0-21.36,0-7.56-.02-15.11-.01-22.67,0-2.06,0-4.12,.14-6.17,.24-3.27,1.41-4.49,4.69-4.6,4.12-.14,8.26-.05,12.39-.06,9.37-.03,18.75-.08,28.12-.07,2.99,0,6-.18,8.53,2.1,.6,.54,2.22,.43,3.11,.04,2.77-1.21,5.44-1.37,8.23-.16,3.15,1.36,6.42,2.48,9.49,3.99,3.39,1.67,3.78,3,3.01,6.8-.1,.48,.5,1.24,.98,1.63,.32,.26,1.07,.26,1.49,.07,3.97-1.71,7.35-.68,10.82,1.62,1.23,.81,3.44,.57,5.1,.25,7.86-1.52,15.31-5,23.65-4.3,4.29,.36,7.92-1.95,11.12-4.71,1.69-1.46,3.45-2.86,4.99-4.47,4.56-4.74,11.12-5.12,16.67-7.69,4.43-2.05,9.12-3.54,13.71-5.26,.88-.33,1.79-.61,2.71-.79,3.67-.73,4.85,.37,4.81,4.16-.11,11.08-.18,22.16-.21,33.24,0,0-.94,26.81-1.31,28.39-.36,1.58,.24,3.03-1.22,4.13s-.78,10.87-.78,10.87Zm-.97-46.07c0-4.81,0-9.62,0-14.43-.01-4.04,.06-8.08-.11-12.11-.11-2.45-1.25-3.12-3.4-2.35-4.6,1.66-9.15,3.45-13.78,5.02-6.81,2.32-13.08,5.36-18.3,10.55-4.01,3.99-9.12,6.23-14.89,6.16-5.55-.07-10.93,.38-16.11,2.61-1.78,.77-3.83,.93-5.75,1.38-3.34,.77-6.5,.4-9.4-1.52-1.81-1.2-3.58-1.19-5.63-.51-1.44,.47-3.21,.6-4.67,.24-2.05-.5-4.02-1.49-5.91-2.48-2.51-1.32-2.85-2.63-1.26-4.95,1.03-1.51,.85-2.54-.69-3.35-4.18-2.22-8.43-3.48-13.02-1.08-.9,.47-1.92,.74-2.9,1.05-1.93,.61-3.36,.03-4.8-1.48-.94-.98-2.58-1.78-3.92-1.8-8.33-.16-16.67-.05-25-.07-3.78,0-7.55-.19-11.33-.15-3.37,.04-4.01,.91-4.04,4.19-.17,21.11-.51,42.23-.54,63.34-.03,18.46,.25,36.92,.44,55.38,.03,3.1,2.87,5.24,5.76,4.57,6.74-1.56,14.8,3.75,16.25,10.7,.78,3.73,1.73,5.01,5.36,5,4.58-.02,8.07,1.56,11.07,4.95,1.39,1.57,3.14,1.94,5.56,.99,2.19-.86,5.01-.6,7.45-.23,1.97,.3,3.82,1.48,5.71,2.32,2.03,.89,3.73,.77,5.3-1.04,2.43-2.79,5.79-3.97,9.31-4.56,2.42-.41,4.32,.53,5.52,2.85,1.09,2.11,2.14,4.34,3.68,6.11,2.07,2.37,4.56,4.39,6.92,6.5,1.78,1.58,4.3,1.64,5.48-.19,1.57-2.42,3.92-5.21,3.77-7.7-.3-4.83,.93-8.89,3.11-12.93,.19-.36,.18-.83,.25-1.26,.89-5.18,4.43-6.88,9.04-4.35,1.35,.74,2.69,1.55,4.12,2.1,1.99,.76,2.97,.1,2.59-1.91-.77-3.99,.69-7.49,2.16-10.94,1.27-2.98,3.14-5.32,7.1-4.54,.93,.18,2.26-.59,3.13-1.28,2.78-2.2,5.56-3.96,9.41-3.07,.97,.22,2.41-.36,3.24-1.05,1.3-1.08,2.18-2.63,3.37-3.85,1.53-1.58,2.95-3.52,4.84-4.45,5.98-2.93,6.3-3.17,5.76-9.78-.09-1.1-.62-2.22-.51-3.28,.22-2.13,.67-4.25,1.19-6.33,.22-.88,1.01-1.61,1.28-2.48,1.13-3.69,2.64-7.34,3.11-11.12,.67-5.42,.67-10.93,.74-16.4,.03-2.36,.38-4.35,2.25-6,.69-.61,1.16-1.71,1.32-2.65,.29-1.68,.35-3.42,.35-5.13,.03-7.72,.01-15.45,0-23.18Z"/>
  </g>
</svg>