<?xml version="1.0" encoding="utf-8"?>
<!-- Generator: Adobe Illustrator 27.0.0, SVG Export Plug-In . SVG Version: 6.00 Build 0)  -->
<svg version="1.1" id="Layer_1" xmlns="http://www.w3.org/2000/svg" xmlns:xlink="http://www.w3.org/1999/xlink" x="0px" y="0px"
	 viewBox="0 0 595.3 841.9" style="enable-background:new 0 0 595.3 841.9;" xml:space="preserve">
<style type="text/css">
	.st0{fill:#010101;}
</style>
<g>
	<path class="st0" d="M20.3,392.9c0-22.3,16.5-40.5,36.6-40.5s36.6,18.2,36.6,40.5c0,22.1-16.5,40.2-36.7,40.2
		C36.8,433.1,20.3,415,20.3,392.9z M77.3,392.8c0-12.2-9.2-22.2-20.4-22.2c-11.2,0-20.3,10-20.3,22.2c0,12.1,9.1,22,20.3,22
		C68.1,414.8,77.3,404.9,77.3,392.8z"/>
	<path class="st0" d="M349.7,392.9c0-22.3,16.5-40.5,36.6-40.5c20.1,0,36.6,18.2,36.6,40.5c0,22.1-16.5,40.2-36.7,40.2
		C366.2,433.1,349.7,415,349.7,392.9z M406.7,392.8c0-12.2-9.2-22.2-20.4-22.2c-11.2,0-20.3,10-20.3,22.2c0,12.1,9.1,22,20.3,22
		C397.5,414.8,406.7,404.9,406.7,392.8z"/>
	<path class="st0" d="M149.3,445.1l-35.2-48.2v33.5h-16v-76.5h16V387l22.4-33.1H155l-25.6,37.4l39.4,53.8H149.3z"/>
	<path class="st0" d="M210,415.1l-4.6,15.3h-41.5v-76.5h16.6v61.2H210z"/>
	<path class="st0" d="M262.3,419.7h-30.2l-4.8,10.7h-16.4l33.6-78.4h4.4l34.6,78.4H267L262.3,419.7z M254.5,402.8l-7.9-19.2l-8,19.2
		H254.5z"/>
	<path class="st0" d="M553.7,419.7h-30.2l-4.8,10.7h-16.4L536,352h4.4l34.6,78.4h-16.4L553.7,419.7z M546,402.8l-7.9-19.2l-8,19.2
		H546z"/>
	<path class="st0" d="M344.7,353.9v76.5h-15.3v-30.7h-26.6v30.7h-16.2v-76.5h16.2v30.6h26.6v-30.6H344.7z"/>
	<path class="st0" d="M486.1,352l12.5,78.4h-15.9l-6.2-39.6l-15.3,24h-1l-15.5-23.6l-5.8,39.2H423l11.8-78.4h3.9l22.2,37l22-37
		H486.1z"/>
</g>
</svg>
