<?xml version="1.0" encoding="utf-8"?>
<!-- Generator: Adobe Illustrator 27.0.0, SVG Export Plug-In . SVG Version: 6.00 Build 0)  -->
<svg version="1.1" id="Layer_1" xmlns="http://www.w3.org/2000/svg" xmlns:xlink="http://www.w3.org/1999/xlink" x="0px" y="0px"
	 viewBox="0 0 595.3 841.9" style="enable-background:new 0 0 595.3 841.9;" xml:space="preserve">
<style type="text/css">
	.st0{fill:#010101;}
</style>
<g>
	<path class="st0" d="M94.8,363.4c16-16.4,40.7-17.9,57.7-0.4c18.4,18.9,16.8,44.4,0.5,61.2c-17.3,17.8-42.4,17.7-59,0.5
		C79.2,409.6,75.1,383.7,94.8,363.4z M108.6,360.2c-10.2,5-12.8,19.2-4.1,37.6c8.3,17.6,22.2,29.4,35.7,22.8
		c9.5-4.7,12.4-17.9,3.4-37C133.9,363,120.3,354.5,108.6,360.2z"/>
	<path class="st0" d="M215.7,436.4h-40.4v-5.2c8.1-0.9,8.9-1.7,8.9-10.9v-33.5c0-7.7-0.6-8.4-7.8-10v-4.7c9.5-1.1,18.1-2.9,27.6-5.8
		c0,5.1,0,11.6,0,16.5c6.9-10.6,12.4-16.2,18.7-16.2c5.7,0,10,3.8,10,9.2c0,7.5-5.4,11.8-7.8,13c-2.1,0.9-3.7,0.2-4.7-0.8
		c-2.6-2.1-4.6-4.6-7.2-4.6c-2.3,0-6.1,2-8.9,7.8v29.1c0,9.2,1.1,9.6,11.8,10.9V436.4z"/>
	<path class="st0" d="M289.1,421.4c-9.3,13.8-21.6,16.8-28,16.8c-20.5,0-32.2-15.2-32.2-33.4c0-10.7,5.1-21.3,11.5-27.6
		c6.9-6.9,15.5-10.7,23.9-10.7c15,0,25.4,12.4,25.3,25c0,2.6-0.2,5.2-2,5.7c-2.9,0.8-24.5,1.8-39.4,2.5c0.6,16.2,9.6,24.5,20.7,24.5
		c6,0,11.9-2.1,17.5-6.9L289.1,421.4z M261.2,372.8c-6.1,0-11.3,7.2-12.3,19.3c6.3-0.2,12.1-0.3,18.5-0.5c2.1-0.2,3.1-0.5,3.1-3.1
		C270.7,380.9,267.2,372.8,261.2,372.8z"/>
	<path class="st0" d="M287.8,456.5c-12.2-14.3,10.3-27.5,10.3-27.5c-2.1-2.3-3.2-5.8-2.8-7.8c1.5-8.1,10.2-7.5,13.6-10.8l9.5,2
		c-1.8,1.6-4.5,3.4-4.5,4.8c0,2.3,7.9,4.8,14.5,6.3c5.7,1.2,12.8,2.9,18.5,4.1c10.9,2.3,26.5,4.5,27.4,12.5
		c2.5,22.2-24.4,26.4-47.9,27.7C299.8,469.1,287.8,456.5,287.8,456.5z M325.1,414c-17.5,0-28.8-9.3-28.8-23.1
		c0-16.5,16.2-24,30-24.7c6.6-0.3,11.4-0.4,17.1,2.4c6.4,0,17.3-1.1,21.1-2.1l2.2,0c-0.5,7.8-0.9,7-3.8,7.4
		c-2.6,0-10.5-0.1-12.6-0.2c2.3,2.8,3.9,11.5,3.9,17.3C354.2,406.2,340.1,414,325.1,414z M325.4,436.1c-11.2-1.9-16.7-2.1-20.3-1.3
		c-4,0.9-6.7,2.6-7.1,4.8c-0.9,5.6,9.3,11.8,28.1,14.9c16.9,2.8,28,0.8,29-5c0.7-3.9-4.2-7.3-10.8-9.3
		C338.5,438.5,333.5,437.5,325.4,436.1z M319.6,371.6c-5,1.3-8.6,8.1-5.8,18.9c2.6,10.1,8.5,17.4,16,15.5c6.3-1.6,8.2-8.6,5.5-19.3
		C332.9,377.3,327.3,369.6,319.6,371.6z"/>
	<path class="st0" d="M398.1,367.4c19.3,0,31.5,16,31.5,34.2c0,24.4-15.9,36.6-32.1,36.6c-20.7,0-32.5-17.3-32.5-35
		C365.1,380.1,382.3,367.4,398.1,367.4z M390.4,374.2c-5.8,1.2-10,9.1-6.1,27.3c3.9,18.4,12.4,31.3,20.8,29.5
		c5.1-1.1,9.8-6.1,5.2-27.7C405.9,382.7,398.7,372.5,390.4,374.2z"/>
	<path class="st0" d="M476.3,436.4v-5.2c6.9-0.9,7.4-1.5,7.4-12.1v-26.2c0-10.9-5.8-14.2-11.5-14.2c-4.3,0-7.9,1.5-12.4,4.6v37.1
		c0,9.3,0.7,10,7.4,10.9v5.2h-38.2v-5.2c8.6-1.4,9.6-1.5,9.6-11.5v-31.9c0-9.2-1.3-9.6-8.6-11v-4.9c12.7-2.8,16.7-7.2,24.7-12.6
		c2.3-1.5,5.3,0.2,5.2,2.9c-0.1,4.8-0.1,12.7-0.1,14.9c3.3-2.1,6.8-4.4,10.5-6.6c4.9-2.8,10.3-6.3,15.1-6.9
		c14.2-1.8,19.5,12,19.5,27.6v28.9c0,9.5,1,10,8.9,11v5.2H476.3z"/>
</g>
</svg>
