<?xml version="1.0" encoding="utf-8"?>
<!-- Generator: Adobe Illustrator 27.0.0, SVG Export Plug-In . SVG Version: 6.00 Build 0)  -->
<svg version="1.1" id="Layer_1" xmlns="http://www.w3.org/2000/svg" xmlns:xlink="http://www.w3.org/1999/xlink" x="0px" y="0px"
	 viewBox="0 0 595.3 841.9" style="enable-background:new 0 0 595.3 841.9;" xml:space="preserve">
<style type="text/css">
	.st0{fill:#010101;}
</style>
<g>
	<path class="st0" d="M76.6,398.6h33h6c0.5,0,1.1,0,1.6,0c0.5,0,1,0.1,1.3,0.2c0.4,0.2,0.7,0.5,0.8,0.8c0.1,0.4,0.1,0.8,0.1,1.3v0.7
		c-0.1,0.3-0.2,0.6-0.3,0.8c-0.1,0.2-0.3,0.4-0.5,0.6c-0.4,0.2-1,0.3-1.7,0.3s-1.4,0-2.1,0h-9c-0.6,0-1.1,0-1.7,0
		c-0.6,0-1.1,0-1.5,0.1c-0.4,0.1-0.8,0.2-1.1,0.4c-0.3,0.2-0.6,0.5-0.7,0.8c-0.2,0.4-0.2,0.9-0.2,1.4c0.1,0.6,0.1,1.1,0.1,1.6v6.1
		v19.7v6.6c0,0.6,0,1.2-0.1,1.7s-0.4,0.9-0.9,1.1c-0.3,0.1-0.6,0.1-0.9,0.2c-0.4,0-0.8,0-1.2,0c-0.7,0-1.4,0-2.2,0
		c-0.8,0-1.3-0.1-1.5-0.4c-0.3-0.3-0.5-0.7-0.5-1.2c0-0.5,0-1,0-1.5v-5.6v-20.5v-6.2c0-0.5,0-1,0-1.6c0-0.6,0-1.1-0.2-1.5
		c-0.3-0.7-0.9-1-1.8-1.1c-0.9,0-1.9-0.1-3-0.1h-8.7c-0.6,0-1.4,0-2.2,0c-0.8,0-1.4,0-1.9-0.2c-0.2-0.1-0.3-0.2-0.5-0.2
		c-0.2-0.1-0.3-0.2-0.4-0.3c-0.2-0.2-0.3-0.4-0.3-0.8c-0.1-0.4-0.1-0.7,0-1.1c0-0.4,0.1-0.7,0.2-1.1c0.1-0.3,0.2-0.6,0.4-0.7
		c0.1-0.1,0.2-0.2,0.4-0.3c0.2-0.1,0.4-0.1,0.6-0.2c0.1,0,0.2-0.1,0.3,0C76.4,398.6,76.5,398.6,76.6,398.6z"/>
	<path class="st0" d="M130.7,398.7h23.7h6.2c0.5,0,1.1,0,1.6,0c0.5,0,1,0.1,1.3,0.3c0.1,0.1,0.3,0.2,0.4,0.3
		c0.1,0.1,0.2,0.2,0.3,0.4c0.1,0.3,0.1,0.8,0.1,1.4c0,0.6,0,1.1-0.1,1.5c-0.2,0.6-0.6,0.9-1.2,1c-0.6,0.1-1.4,0.1-2.2,0.1h-7.2
		h-12.2c-0.8,0-1.7,0-2.7,0c-1,0-1.8,0.1-2.3,0.3c-0.5,0.2-0.7,0.7-0.8,1.3c0,0.6,0,1.3,0,1.9v6.4c0,0.5,0,1,0,1.6
		c0,0.6,0,1.1,0.1,1.5c0.1,0.5,0.4,0.8,0.9,1c0.2,0.1,0.5,0.2,1,0.2h0.7c0.2,0,0.4,0.1,0.6,0c0.2,0,0.4,0,0.7,0h2.5h10.2
		c0.4,0,0.9,0,1.4,0c0.5,0,1.1,0,1.6,0c0.6,0,1.1,0.1,1.5,0.1c0.5,0.1,0.8,0.2,1,0.3c0.1,0.1,0.3,0.3,0.4,0.6
		c0.1,0.3,0.2,0.6,0.2,0.9c0,0.3,0.1,0.7,0,1c0,0.4-0.1,0.7-0.2,0.9c-0.1,0.4-0.3,0.6-0.7,0.8c-0.1,0.1-0.2,0.1-0.4,0.2
		c-0.2,0-0.3,0.1-0.5,0.1h-0.4c-0.2,0-0.5,0.1-0.7,0c-0.2,0-0.5,0-0.7,0h-2.7h-11.3c-0.6,0-1.1,0-1.7,0c-0.6,0-1.1,0-1.6,0.1
		c-0.5,0.1-0.9,0.2-1.3,0.3c-0.4,0.2-0.6,0.5-0.8,0.9c-0.1,0.2-0.1,0.5-0.1,0.9c0,0.3,0,0.7,0,1v3.5v5.9c0,0.6,0,1.1,0.1,1.6
		c0,0.5,0.2,0.8,0.6,1c0.3,0.2,0.7,0.3,1.2,0.3c0.4,0,0.9,0,1.4,0h4.6h13.4h4.1c0.4,0,0.8,0,1.2,0c0.4,0,0.7,0,1,0.1
		c0.6,0.2,1,0.4,1.2,0.7c0.1,0.1,0.2,0.3,0.2,0.6c0,0.3,0.1,0.6,0.1,0.9c0,0.3,0,0.6,0,0.9c0,0.3-0.1,0.6-0.1,0.7
		c-0.2,0.3-0.4,0.6-0.7,0.7c-0.3,0.2-0.7,0.2-1.1,0.2c-0.5,0-0.9,0-1.3,0h-5.1h-19.2h-5.1c-0.7,0-1.3,0-1.7-0.1
		c-0.5-0.1-0.8-0.3-1.1-0.6c-0.2-0.2-0.3-0.6-0.3-1c0-0.4,0-0.8,0-1.2v-4.4v-16.7v-14v-3.9c0-0.4,0-0.7,0-1.1c0-0.4,0.1-0.7,0.3-0.9
		c0.2-0.3,0.6-0.5,1.1-0.6c0.1,0,0.2-0.1,0.3,0C130.5,398.7,130.6,398.7,130.7,398.7z"/>
	<path class="st0" d="M444,398.7h23.7h6.2c0.5,0,1.1,0,1.6,0c0.5,0,1,0.1,1.3,0.3c0.1,0.1,0.3,0.2,0.4,0.3c0.1,0.1,0.2,0.2,0.3,0.4
		c0.1,0.3,0.1,0.8,0.1,1.4c0,0.6,0,1.1-0.1,1.5c-0.2,0.6-0.6,0.9-1.2,1c-0.6,0.1-1.4,0.1-2.2,0.1h-7.2h-12.2c-0.8,0-1.7,0-2.7,0
		c-1,0-1.8,0.1-2.3,0.3c-0.5,0.2-0.7,0.7-0.8,1.3c0,0.6,0,1.3,0,1.9v6.4c0,0.5,0,1,0,1.6c0,0.6,0,1.1,0.1,1.5c0.1,0.5,0.4,0.8,0.9,1
		c0.2,0.1,0.5,0.2,1,0.2h0.7c0.2,0,0.4,0.1,0.6,0c0.2,0,0.4,0,0.7,0h2.5h10.2c0.4,0,0.9,0,1.4,0c0.5,0,1.1,0,1.6,0
		c0.6,0,1.1,0.1,1.5,0.1c0.5,0.1,0.8,0.2,1,0.3c0.1,0.1,0.3,0.3,0.4,0.6c0.1,0.3,0.2,0.6,0.2,0.9c0,0.3,0.1,0.7,0,1
		c0,0.4-0.1,0.7-0.2,0.9c-0.1,0.4-0.3,0.6-0.7,0.8c-0.1,0.1-0.2,0.1-0.4,0.2c-0.2,0-0.3,0.1-0.5,0.1h-0.4c-0.2,0-0.5,0.1-0.7,0
		c-0.2,0-0.5,0-0.7,0h-2.7h-11.3c-0.6,0-1.1,0-1.7,0c-0.6,0-1.1,0-1.6,0.1c-0.5,0.1-0.9,0.2-1.3,0.3c-0.4,0.2-0.6,0.5-0.8,0.9
		c-0.1,0.2-0.1,0.5-0.1,0.9c0,0.3,0,0.7,0,1v3.5v5.9c0,0.6,0,1.1,0.1,1.6c0,0.5,0.2,0.8,0.6,1c0.3,0.2,0.7,0.3,1.2,0.3
		c0.4,0,0.9,0,1.4,0h4.6h13.4h4.1c0.4,0,0.8,0,1.2,0c0.4,0,0.7,0,1,0.1c0.6,0.2,1,0.4,1.2,0.7c0.1,0.1,0.2,0.3,0.2,0.6
		c0,0.3,0.1,0.6,0.1,0.9c0,0.3,0,0.6,0,0.9c0,0.3-0.1,0.6-0.1,0.7c-0.2,0.3-0.4,0.6-0.7,0.7c-0.3,0.2-0.7,0.2-1.1,0.2
		c-0.5,0-0.9,0-1.3,0h-5.1h-19.2h-5.1c-0.7,0-1.3,0-1.7-0.1c-0.5-0.1-0.8-0.3-1.1-0.6c-0.2-0.2-0.3-0.6-0.3-1c0-0.4,0-0.8,0-1.2
		v-4.4v-16.7v-14v-3.9c0-0.4,0-0.7,0-1.1c0-0.4,0.1-0.7,0.3-0.9c0.2-0.3,0.6-0.5,1.1-0.6c0.1,0,0.2-0.1,0.3,0
		C443.8,398.7,443.9,398.7,444,398.7z"/>
	<path class="st0" d="M493.5,398.7h23.7h6.2c0.5,0,1.1,0,1.6,0c0.5,0,1,0.1,1.3,0.3c0.1,0.1,0.3,0.2,0.4,0.3
		c0.1,0.1,0.2,0.2,0.3,0.4c0.1,0.3,0.1,0.8,0.1,1.4c0,0.6,0,1.1-0.1,1.5c-0.2,0.6-0.6,0.9-1.2,1c-0.6,0.1-1.4,0.1-2.2,0.1h-7.2H504
		c-0.8,0-1.7,0-2.7,0c-1,0-1.8,0.1-2.3,0.3c-0.5,0.2-0.7,0.7-0.8,1.3c0,0.6,0,1.3,0,1.9v6.4c0,0.5,0,1,0,1.6c0,0.6,0,1.1,0.1,1.5
		c0.1,0.5,0.4,0.8,0.9,1c0.2,0.1,0.5,0.2,1,0.2h0.7c0.2,0,0.4,0.1,0.6,0c0.2,0,0.4,0,0.7,0h2.5h10.2c0.4,0,0.9,0,1.4,0
		c0.5,0,1.1,0,1.6,0c0.6,0,1.1,0.1,1.5,0.1c0.5,0.1,0.8,0.2,1,0.3c0.1,0.1,0.3,0.3,0.4,0.6c0.1,0.3,0.2,0.6,0.2,0.9
		c0,0.3,0.1,0.7,0,1c0,0.4-0.1,0.7-0.2,0.9c-0.1,0.4-0.3,0.6-0.7,0.8c-0.1,0.1-0.2,0.1-0.4,0.2c-0.2,0-0.3,0.1-0.5,0.1H519
		c-0.2,0-0.5,0.1-0.7,0c-0.2,0-0.5,0-0.7,0h-2.7h-11.3c-0.6,0-1.1,0-1.7,0c-0.6,0-1.1,0-1.6,0.1c-0.5,0.1-0.9,0.2-1.3,0.3
		c-0.4,0.2-0.6,0.5-0.8,0.9c-0.1,0.2-0.1,0.5-0.1,0.9c0,0.3,0,0.7,0,1v3.5v5.9c0,0.6,0,1.1,0.1,1.6c0,0.5,0.2,0.8,0.6,1
		c0.3,0.2,0.7,0.3,1.2,0.3c0.4,0,0.9,0,1.4,0h4.6h13.4h4.1c0.4,0,0.8,0,1.2,0c0.4,0,0.7,0,1,0.1c0.6,0.2,1,0.4,1.2,0.7
		c0.1,0.1,0.2,0.3,0.2,0.6c0,0.3,0.1,0.6,0.1,0.9c0,0.3,0,0.6,0,0.9c0,0.3-0.1,0.6-0.1,0.7c-0.2,0.3-0.4,0.6-0.7,0.7
		c-0.3,0.2-0.7,0.2-1.1,0.2c-0.5,0-0.9,0-1.3,0h-5.1h-19.2h-5.1c-0.7,0-1.3,0-1.7-0.1c-0.5-0.1-0.8-0.3-1.1-0.6
		c-0.2-0.2-0.3-0.6-0.3-1c0-0.4,0-0.8,0-1.2v-4.4v-16.7v-14v-3.9c0-0.4,0-0.7,0-1.1c0-0.4,0.1-0.7,0.3-0.9c0.2-0.3,0.6-0.5,1.1-0.6
		c0.1,0,0.2-0.1,0.3,0C493.3,398.7,493.4,398.7,493.5,398.7z"/>
	<path class="st0" d="M180,398.7c0.9,0,1.8,0,2.9,0c1.1,0,1.8,0.1,2.4,0.5c0.4,0.2,0.7,0.6,1.1,1.1c0.3,0.5,0.6,0.9,0.9,1.3
		c0.6,0.8,1.3,1.7,1.9,2.5c0.6,0.9,1.3,1.7,1.9,2.6c0.3,0.5,0.7,0.9,1,1.3c0.4,0.4,0.7,0.9,1,1.3c1.4,2,2.9,4,4.4,6c1.5,2,3,4,4.5,6
		c0.4,0.6,0.8,1.1,1.3,1.7c0.5,0.5,0.9,1.1,1.3,1.7c0.8,1.1,1.6,2.2,2.5,3.3c0.8,1.1,1.7,2.2,2.5,3.3c0.2,0.3,0.5,0.7,0.9,1.2
		c0.4,0.5,0.8,0.7,1.3,0.7c0.2-0.1,0.4-0.1,0.4-0.2c0.2-0.2,0.4-0.6,0.4-1.1c0-0.5,0-0.9,0-1.3v-4.9v-19.1v-3.7c0-0.3,0-0.6-0.1-0.9
		c0-0.3,0-0.6,0.1-0.9v-0.7c0.1-0.2,0.2-0.3,0.2-0.5c0-0.2,0.1-0.3,0.2-0.4c0.3-0.3,0.7-0.5,1.3-0.5c0.6,0,1.2,0,1.9,0
		c0.3,0,0.6,0,0.9,0c0.3,0,0.6,0,0.8,0.1c0.6,0.2,0.9,0.6,1,1.1c0.1,0.5,0.1,1.1,0.1,1.8v6.9v26.1v5.2c0,0.5,0,0.9,0,1.4
		c0,0.5-0.1,0.8-0.3,1.1c-0.2,0.2-0.4,0.4-0.7,0.5c-0.3,0.1-0.6,0.1-1,0.2H215c-0.6,0-1.2,0-1.8,0c-0.6,0-1.1-0.1-1.5-0.2
		c-0.4-0.1-0.7-0.3-0.9-0.6c-0.2-0.3-0.4-0.6-0.7-0.9c-0.4-0.5-0.8-1-1.2-1.6c-0.4-0.5-0.8-1.1-1.2-1.6c-1.7-2.2-3.4-4.5-5.1-6.7
		c-1.7-2.2-3.4-4.4-5-6.7c-0.9-1.2-1.8-2.5-2.8-3.7c-0.9-1.2-1.9-2.4-2.8-3.7c-1.6-2.2-3.2-4.3-5-6.5c-0.2-0.3-0.4-0.6-0.6-0.8
		c-0.2-0.3-0.5-0.5-0.8-0.7c-0.1,0-0.2-0.1-0.3-0.2c-0.1-0.1-0.2-0.1-0.4-0.1c-0.3,0.1-0.5,0.2-0.5,0.5c0,0.2-0.1,0.5-0.2,0.7v0.4
		c-0.1,0.3-0.1,0.6-0.1,1c0,0.4,0.1,0.7,0.1,1v4.1v19.8v2.9c0,0.2,0,0.5,0,0.7c0,0.3,0,0.5-0.1,0.7v0.5c-0.1,0.4-0.2,0.7-0.3,0.9
		c-0.1,0.2-0.3,0.3-0.5,0.4c-0.2,0.1-0.5,0.1-0.8,0.2h-1.4c-0.7,0-1.3,0-1.8-0.1c-0.5,0-0.9-0.2-1.2-0.6c-0.2-0.2-0.4-0.6-0.4-1
		s0-0.9,0-1.3V435v-26.1v-6.7c0-0.5,0-1,0-1.6c0-0.6,0.1-1,0.4-1.3c0.1-0.2,0.4-0.4,0.9-0.6c0.1,0,0.2-0.1,0.4,0
		C179.8,398.7,179.9,398.7,180,398.7z"/>
	<path class="st0" d="M238,398.7c0.9,0,1.8,0,2.9,0c1.1,0,1.8,0.1,2.4,0.5c0.4,0.2,0.7,0.6,1.1,1.1c0.3,0.5,0.6,0.9,0.9,1.3
		c0.6,0.8,1.3,1.7,1.9,2.5c0.6,0.9,1.3,1.7,1.9,2.6c0.3,0.5,0.7,0.9,1,1.3c0.4,0.4,0.7,0.9,1,1.3c1.4,2,2.9,4,4.4,6c1.5,2,3,4,4.5,6
		c0.4,0.6,0.8,1.1,1.3,1.7c0.5,0.5,0.9,1.1,1.3,1.7c0.8,1.1,1.6,2.2,2.5,3.3c0.8,1.1,1.7,2.2,2.5,3.3c0.2,0.3,0.5,0.7,0.9,1.2
		c0.4,0.5,0.8,0.7,1.3,0.7c0.2-0.1,0.4-0.1,0.4-0.2c0.2-0.2,0.4-0.6,0.4-1.1c0-0.5,0-0.9,0-1.3v-4.9v-19.1v-3.7c0-0.3,0-0.6-0.1-0.9
		c0-0.3,0-0.6,0.1-0.9v-0.7c0.1-0.2,0.2-0.3,0.2-0.5c0-0.2,0.1-0.3,0.2-0.4c0.3-0.3,0.7-0.5,1.3-0.5c0.6,0,1.2,0,1.9,0
		c0.3,0,0.6,0,0.9,0c0.3,0,0.6,0,0.8,0.1c0.6,0.2,0.9,0.6,1,1.1c0.1,0.5,0.1,1.1,0.1,1.8v6.9v26.1v5.2c0,0.5,0,0.9,0,1.4
		c0,0.5-0.1,0.8-0.3,1.1c-0.2,0.2-0.4,0.4-0.7,0.5c-0.3,0.1-0.6,0.1-1,0.2H273c-0.6,0-1.2,0-1.8,0c-0.6,0-1.1-0.1-1.5-0.2
		c-0.4-0.1-0.7-0.3-0.9-0.6c-0.2-0.3-0.4-0.6-0.7-0.9c-0.4-0.5-0.8-1-1.2-1.6c-0.4-0.5-0.8-1.1-1.2-1.6c-1.7-2.2-3.4-4.5-5.1-6.7
		c-1.7-2.2-3.4-4.4-5-6.7c-0.9-1.2-1.8-2.5-2.8-3.7c-0.9-1.2-1.9-2.4-2.8-3.7c-1.6-2.2-3.2-4.3-5-6.5c-0.2-0.3-0.4-0.6-0.6-0.8
		c-0.2-0.3-0.5-0.5-0.8-0.7c-0.1,0-0.2-0.1-0.3-0.2c-0.1-0.1-0.2-0.1-0.4-0.1c-0.3,0.1-0.5,0.2-0.5,0.5c0,0.2-0.1,0.5-0.2,0.7v0.4
		c-0.1,0.3-0.1,0.6-0.1,1c0,0.4,0.1,0.7,0.1,1v4.1v19.8v2.9c0,0.2,0,0.5,0,0.7c0,0.3,0,0.5-0.1,0.7v0.5c-0.1,0.4-0.2,0.7-0.3,0.9
		c-0.1,0.2-0.3,0.3-0.5,0.4c-0.2,0.1-0.5,0.1-0.8,0.2h-1.4c-0.7,0-1.3,0-1.8-0.1c-0.5,0-0.9-0.2-1.2-0.6c-0.2-0.2-0.4-0.6-0.4-1
		s0-0.9,0-1.3V435v-26.1v-6.7c0-0.5,0-1,0-1.6c0-0.6,0.1-1,0.4-1.3c0.1-0.2,0.4-0.4,0.9-0.6c0.1,0,0.2-0.1,0.4,0
		C237.8,398.7,237.9,398.7,238,398.7z"/>
	<path class="st0" d="M296.1,398.7h24.6h6.5c0.6,0,1.1,0,1.7,0c0.6,0,1,0.1,1.4,0.3c0.1,0.1,0.3,0.2,0.4,0.3
		c0.1,0.1,0.2,0.2,0.3,0.4c0.1,0.3,0.2,0.8,0.2,1.4c0,0.6-0.1,1.1-0.2,1.5c-0.2,0.6-0.6,0.9-1.3,1c-0.7,0.1-1.4,0.1-2.3,0.1h-7.5
		h-12.7c-0.8,0-1.7,0-2.8,0c-1.1,0-1.9,0.1-2.4,0.3c-0.5,0.2-0.8,0.7-0.8,1.3c0,0.6,0,1.3,0,1.9v6.4c0,0.5,0,1,0,1.6
		c0,0.6,0,1.1,0.1,1.5c0.2,0.5,0.5,0.8,0.9,1c0.2,0.1,0.6,0.2,1.1,0.2h0.8c0.2,0,0.4,0.1,0.6,0c0.2,0,0.5,0,0.7,0h2.6h8.8
		c0.5,0,1,0,1.5,0c0.6,0,1.1,0,1.7,0c0.6,0,1.1,0.1,1.6,0.1c0.5,0.1,0.8,0.2,1.1,0.3c0.2,0.1,0.3,0.3,0.4,0.6
		c0.1,0.3,0.2,0.6,0.2,0.9c0,0.3,0.1,0.7,0,1c0,0.4-0.1,0.7-0.2,0.9c-0.1,0.4-0.3,0.6-0.7,0.8c-0.1,0.1-0.2,0.1-0.4,0.2
		c-0.2,0-0.3,0.1-0.5,0.1h-0.5c-0.3,0-0.5,0.1-0.8,0c-0.3,0-0.5,0-0.8,0h-2.8h-9.9c-0.6,0-1.2,0-1.8,0c-0.6,0-1.1,0-1.6,0.1
		c-0.5,0.1-0.9,0.2-1.3,0.3c-0.4,0.2-0.6,0.5-0.8,0.9c-0.1,0.2-0.1,0.5-0.1,0.9c0,0.3,0,0.7,0,1v3.5v5.9c0,0.6,0,1.1,0.1,1.6
		c0,0.5,0.3,0.8,0.6,1c0.4,0.2,0.8,0.3,1.2,0.3c0.5,0,1,0,1.5,0h4.8h13.9h4.3c0.4,0,0.8,0,1.2,0c0.4,0,0.8,0,1.1,0.1
		c0.6,0.2,1,0.4,1.2,0.7c0.1,0.1,0.2,0.3,0.2,0.6c0,0.3,0.1,0.6,0.1,0.9c0,0.3,0,0.6,0,0.9c-0.1,0.3-0.1,0.6-0.2,0.7
		c-0.2,0.3-0.4,0.6-0.7,0.7c-0.3,0.2-0.7,0.2-1.2,0.2c-0.5,0-0.9,0-1.4,0h-5.3h-20h-5.3c-0.7,0-1.3,0-1.8-0.1
		c-0.5-0.1-0.9-0.3-1.1-0.6c-0.2-0.2-0.3-0.6-0.3-1c0-0.4,0-0.8,0-1.2v-4.4v-16.7v-14v-3.9c0-0.4,0-0.7,0-1.1c0-0.4,0.1-0.7,0.3-0.9
		c0.2-0.3,0.6-0.5,1.1-0.6c0.1,0,0.2-0.1,0.3,0C295.9,398.7,296,398.7,296.1,398.7z"/>
	<path class="st0" d="M359,397.7c2.5-0.1,4.7,0.1,6.7,0.6c1.9,0.5,3.7,1.1,5.1,2.1c0.3,0.2,0.5,0.3,0.8,0.4c0.2,0.1,0.5,0.3,0.7,0.5
		c0.1,0.1,0.2,0.2,0.3,0.2c0.1,0.1,0.2,0.1,0.3,0.2c0.1,0.1,0.2,0.2,0.3,0.3c0.1,0.1,0.2,0.2,0.3,0.3c0.2,0.2,0.4,0.4,0.5,0.6
		c0.2,0.2,0.4,0.4,0.5,0.6c0.2,0.2,0.3,0.4,0.4,0.7c0.1,0.2,0.2,0.4,0.4,0.7c0.4,0.6,0.7,1.2,0.9,2c0.2,0.7,0.4,1.5,0.7,2.3
		c0.1,0.3,0.1,0.7,0.1,1.1c0,0.4-0.1,0.7-0.2,0.9c-0.2,0.3-0.6,0.5-1.1,0.5c-0.5,0-1,0.1-1.5,0.1c-0.2,0-0.4,0-0.6,0
		c-0.2,0-0.4,0-0.5-0.1c-0.2,0-0.4-0.1-0.6-0.1s-0.3,0-0.5-0.1c-0.1,0-0.2-0.1-0.3-0.2c-0.1-0.1-0.2-0.1-0.3-0.2
		c-0.3-0.4-0.5-0.8-0.6-1.4c-0.1-0.5-0.3-1-0.5-1.4c-0.7-1.7-1.8-2.9-3.2-3.7c-1-0.7-2.2-1.2-3.6-1.5c-0.3-0.1-0.5-0.1-0.8-0.2
		c-0.3,0-0.5-0.1-0.8-0.2h-0.5c-0.4-0.1-0.7-0.1-1.1-0.1c-0.4,0-0.7,0-1.1,0c-2.3,0-4.2,0.3-5.7,1c-0.9,0.3-1.7,0.8-2.4,1.3
		c-0.7,0.6-1.2,1.3-1.6,2.1c-0.2,0.3-0.3,0.7-0.4,1c-0.1,0.4-0.1,0.7-0.2,1.2c-0.1,0.3-0.1,0.7-0.1,1.1c0,0.4,0.1,0.8,0.2,1.1
		c0.3,1,0.7,1.7,1.2,2.2s1.1,1,1.9,1.4c1,0.6,2,1,3.2,1.3c1.2,0.3,2.4,0.6,3.7,0.9c0.4,0.1,0.8,0.1,1.2,0.2c0.4,0,0.8,0.1,1.2,0.2
		c0.6,0.2,1.3,0.3,1.9,0.4c0.7,0.1,1.3,0.3,1.9,0.5c0.2,0,0.3,0.1,0.5,0.1c0.1,0,0.3,0.1,0.5,0.1c0.4,0.1,0.8,0.2,1.2,0.3
		c0.4,0.1,0.8,0.2,1.2,0.3c0.9,0.3,1.7,0.6,2.6,0.9c0.8,0.3,1.6,0.7,2.4,1.2c1,0.6,1.8,1.3,2.6,2c0.8,0.8,1.4,1.7,1.9,2.7
		c0.2,0.4,0.3,0.7,0.4,1.1c0.1,0.4,0.2,0.8,0.3,1.2c0.1,0.2,0.1,0.4,0.1,0.7c0,0.3,0,0.5,0.1,0.8v0.7v0.6c0,0.2-0.1,0.3-0.1,0.5
		c0,0.2,0,0.3,0,0.5c-0.1,0.3-0.1,0.7-0.2,1c0,0.4-0.1,0.7-0.2,1c-0.2,0.6-0.5,1.2-0.7,1.8c-0.3,0.6-0.6,1.1-1,1.6
		c-0.7,1.1-1.7,2-2.8,2.7c-1.1,0.7-2.4,1.4-3.7,2c-0.4,0.2-0.9,0.3-1.3,0.4c-0.4,0.1-0.9,0.2-1.4,0.4c-0.5,0.2-1,0.3-1.5,0.3
		s-1.1,0.2-1.6,0.3c-0.2,0-0.5,0.1-0.7,0.1c-0.2,0-0.5,0-0.7,0.1c-0.3,0-0.5,0-0.8,0c-0.3,0-0.5,0-0.8,0c-0.2,0-0.5,0.1-1,0.1
		c-0.4,0-0.7,0-1-0.1h-0.7c-0.4-0.1-0.9-0.1-1.3-0.1c-0.4,0-0.9,0-1.3-0.1c-0.2,0-0.4-0.1-0.5-0.1c-0.2,0-0.4-0.1-0.6-0.1
		c-0.5-0.1-0.9-0.2-1.4-0.2c-0.4-0.1-0.8-0.2-1.3-0.4c-2.2-0.7-4-1.5-5.4-2.6c-1.5-1-2.7-2.4-3.8-4.1c-0.4-0.5-0.6-1.1-0.9-1.7
		c-0.2-0.6-0.5-1.2-0.7-1.9c-0.1-0.2-0.1-0.5-0.2-0.7c0-0.2-0.1-0.5-0.2-0.7c-0.1-0.4-0.1-0.8-0.1-1.3c0-0.5,0.1-0.8,0.3-1
		c0.2-0.3,0.6-0.5,1.1-0.5c0.5,0,1-0.1,1.5-0.1c0.2,0,0.4,0,0.6,0c0.2,0,0.4,0,0.5,0.1c0.2,0,0.4,0.1,0.5,0c0.1,0,0.3,0,0.5,0.1
		c0.3,0.2,0.5,0.3,0.6,0.5c0.1,0.2,0.2,0.4,0.2,0.7c0,0.2,0.1,0.5,0.2,0.7c0.1,0.3,0.2,0.6,0.2,0.9c0.1,0.3,0.2,0.6,0.3,0.9
		c0.7,1.8,1.9,3.2,3.4,4.2c0.7,0.5,1.6,1,2.4,1.3c0.9,0.3,1.8,0.6,2.8,0.9c0.4,0.1,0.7,0.1,1.1,0.2c0.4,0,0.7,0.1,1.1,0.1
		c0.1,0,0.2,0,0.3,0c0.1,0,0.3,0,0.4,0c0.2,0,0.4,0,0.6,0c0.2,0,0.5,0,0.7,0.1c0.2,0,0.4,0.1,0.8,0.1c0.3,0,0.6,0,0.8-0.1h0.5
		c0.2,0,0.4-0.1,0.7-0.1s0.4,0,0.7-0.1c0.1,0,0.3-0.1,0.4,0c0.1,0,0.3,0,0.4-0.1c0.4-0.1,0.7-0.2,1.1-0.2c0.4-0.1,0.8-0.2,1.1-0.3
		c1.1-0.5,2.2-1,3.1-1.6c0.9-0.6,1.6-1.4,2.1-2.5c0.1-0.3,0.2-0.7,0.3-1c0.1-0.3,0.2-0.7,0.3-1c0.1-0.3,0.1-0.7,0.1-1.2
		c0-0.5,0-0.8-0.1-1.1c-0.1-0.2-0.1-0.4-0.1-0.5c0-0.1,0-0.3-0.1-0.5c-0.3-0.7-0.6-1.3-1.1-1.8c-0.4-0.5-1-0.9-1.6-1.3
		c-0.9-0.6-2-1.1-3.1-1.5c-1.1-0.4-2.3-0.7-3.6-1c-1.3-0.3-2.5-0.5-3.9-0.8c-1.3-0.2-2.6-0.5-3.8-0.9c-0.7-0.2-1.4-0.4-2.1-0.5
		c-0.7-0.1-1.4-0.3-2-0.6c-0.1,0-0.2-0.1-0.2-0.1c0,0-0.1,0-0.2-0.1c-0.4-0.2-0.9-0.3-1.3-0.5c-0.4-0.2-0.9-0.4-1.3-0.6
		c-1-0.6-1.9-1.2-2.8-1.9c-0.8-0.7-1.5-1.6-2-2.7c-0.2-0.4-0.4-0.8-0.5-1.2c-0.1-0.4-0.2-0.9-0.3-1.3c0-0.2,0-0.3,0-0.4
		c0-0.1,0-0.2,0-0.4c-0.1-0.5-0.2-1.1-0.1-1.9c0.1-0.8,0.2-1.4,0.3-1.8c0.1-0.5,0.3-0.9,0.4-1.3c0.1-0.4,0.3-0.8,0.4-1.2
		c0.6-1.2,1.4-2.3,2.4-3.1c1-0.9,2-1.6,3.2-2.3c0.1-0.1,0.2-0.1,0.3-0.2c0.1,0,0.2-0.1,0.3-0.2c1-0.5,2.1-0.9,3.4-1.2
		c0.4-0.1,0.7-0.2,1-0.2c0.3-0.1,0.6-0.1,1-0.2c0.4-0.1,0.7-0.1,1.2-0.1c0.4,0,0.8,0,1.2-0.1c0.1,0,0.3,0,0.6,0
		C358.7,397.8,358.9,397.8,359,397.7z"/>
	<path class="st0" d="M407.1,397.7c2.5-0.1,4.7,0.1,6.7,0.6c1.9,0.5,3.7,1.1,5.1,2.1c0.3,0.2,0.5,0.3,0.8,0.4
		c0.2,0.1,0.5,0.3,0.7,0.5c0.1,0.1,0.2,0.2,0.3,0.2c0.1,0.1,0.2,0.1,0.3,0.2c0.1,0.1,0.2,0.2,0.3,0.3c0.1,0.1,0.2,0.2,0.3,0.3
		c0.2,0.2,0.4,0.4,0.5,0.6c0.2,0.2,0.4,0.4,0.5,0.6c0.2,0.2,0.3,0.4,0.4,0.7c0.1,0.2,0.2,0.4,0.4,0.7c0.4,0.6,0.7,1.2,0.9,2
		c0.2,0.7,0.4,1.5,0.7,2.3c0.1,0.3,0.1,0.7,0.1,1.1c0,0.4-0.1,0.7-0.2,0.9c-0.2,0.3-0.6,0.5-1.1,0.5c-0.5,0-1,0.1-1.5,0.1
		c-0.2,0-0.4,0-0.6,0c-0.2,0-0.4,0-0.5-0.1c-0.2,0-0.4-0.1-0.6-0.1c-0.2,0-0.3,0-0.5-0.1c-0.1,0-0.2-0.1-0.3-0.2
		c-0.1-0.1-0.2-0.1-0.3-0.2c-0.3-0.4-0.5-0.8-0.6-1.4c-0.1-0.5-0.3-1-0.5-1.4c-0.7-1.7-1.8-2.9-3.2-3.7c-1-0.7-2.2-1.2-3.6-1.5
		c-0.3-0.1-0.5-0.1-0.8-0.2c-0.3,0-0.5-0.1-0.8-0.2h-0.5c-0.4-0.1-0.7-0.1-1.1-0.1c-0.4,0-0.7,0-1.1,0c-2.3,0-4.2,0.3-5.7,1
		c-0.9,0.3-1.7,0.8-2.4,1.3c-0.7,0.6-1.2,1.3-1.6,2.1c-0.2,0.3-0.3,0.7-0.4,1c-0.1,0.4-0.1,0.7-0.2,1.2c-0.1,0.3-0.1,0.7-0.1,1.1
		c0,0.4,0.1,0.8,0.2,1.1c0.3,1,0.7,1.7,1.2,2.2c0.5,0.5,1.1,1,1.9,1.4c1,0.6,2,1,3.2,1.3c1.2,0.3,2.4,0.6,3.7,0.9
		c0.4,0.1,0.8,0.1,1.2,0.2c0.4,0,0.8,0.1,1.2,0.2c0.6,0.2,1.3,0.3,1.9,0.4c0.7,0.1,1.3,0.3,1.9,0.5c0.2,0,0.3,0.1,0.5,0.1
		c0.1,0,0.3,0.1,0.5,0.1c0.4,0.1,0.8,0.2,1.2,0.3c0.4,0.1,0.8,0.2,1.2,0.3c0.9,0.3,1.7,0.6,2.6,0.9c0.8,0.3,1.6,0.7,2.4,1.2
		c1,0.6,1.8,1.3,2.6,2c0.8,0.8,1.4,1.7,1.9,2.7c0.2,0.4,0.3,0.7,0.4,1.1c0.1,0.4,0.2,0.8,0.3,1.2c0.1,0.2,0.1,0.4,0.1,0.7
		c0,0.3,0,0.5,0.1,0.8v0.7v0.6c0,0.2-0.1,0.3-0.1,0.5c0,0.2,0,0.3,0,0.5c-0.1,0.3-0.1,0.7-0.2,1c0,0.4-0.1,0.7-0.2,1
		c-0.2,0.6-0.5,1.2-0.7,1.8c-0.3,0.6-0.6,1.1-1,1.6c-0.7,1.1-1.7,2-2.8,2.7c-1.1,0.7-2.4,1.4-3.7,2c-0.4,0.2-0.9,0.3-1.3,0.4
		c-0.4,0.1-0.9,0.2-1.4,0.4c-0.5,0.2-1,0.3-1.5,0.3s-1.1,0.2-1.6,0.3c-0.2,0-0.5,0.1-0.7,0.1c-0.2,0-0.5,0-0.7,0.1
		c-0.3,0-0.5,0-0.8,0c-0.3,0-0.5,0-0.8,0c-0.2,0-0.5,0.1-1,0.1c-0.4,0-0.7,0-1-0.1h-0.7c-0.4-0.1-0.9-0.1-1.3-0.1s-0.9,0-1.3-0.1
		c-0.2,0-0.4-0.1-0.5-0.1c-0.2,0-0.4-0.1-0.6-0.1c-0.5-0.1-0.9-0.2-1.4-0.2c-0.4-0.1-0.8-0.2-1.3-0.4c-2.2-0.7-4-1.5-5.4-2.6
		c-1.5-1-2.7-2.4-3.8-4.1c-0.4-0.5-0.6-1.1-0.9-1.7c-0.2-0.6-0.5-1.2-0.7-1.9c-0.1-0.2-0.1-0.5-0.2-0.7c0-0.2-0.1-0.5-0.2-0.7
		c-0.1-0.4-0.1-0.8-0.1-1.3c0-0.5,0.1-0.8,0.3-1c0.2-0.3,0.6-0.5,1.1-0.5c0.5,0,1-0.1,1.5-0.1c0.2,0,0.4,0,0.6,0
		c0.2,0,0.4,0,0.5,0.1c0.2,0,0.4,0.1,0.5,0c0.1,0,0.3,0,0.5,0.1c0.3,0.2,0.5,0.3,0.6,0.5c0.1,0.2,0.2,0.4,0.2,0.7
		c0,0.2,0.1,0.5,0.2,0.7c0.1,0.3,0.2,0.6,0.2,0.9c0.1,0.3,0.2,0.6,0.3,0.9c0.7,1.8,1.9,3.2,3.4,4.2c0.7,0.5,1.6,1,2.4,1.3
		c0.9,0.3,1.8,0.6,2.8,0.9c0.4,0.1,0.7,0.1,1.1,0.2c0.4,0,0.7,0.1,1.1,0.1c0.1,0,0.2,0,0.3,0c0.1,0,0.3,0,0.4,0c0.2,0,0.4,0,0.6,0
		c0.2,0,0.5,0,0.7,0.1c0.2,0,0.4,0.1,0.8,0.1s0.6,0,0.8-0.1h0.5c0.2,0,0.4-0.1,0.7-0.1s0.4,0,0.7-0.1c0.1,0,0.3-0.1,0.4,0
		c0.1,0,0.3,0,0.4-0.1c0.4-0.1,0.7-0.2,1.1-0.2c0.4-0.1,0.8-0.2,1.1-0.3c1.1-0.5,2.2-1,3.1-1.6c0.9-0.6,1.6-1.4,2.1-2.5
		c0.1-0.3,0.2-0.7,0.3-1c0.1-0.3,0.2-0.7,0.3-1c0.1-0.3,0.1-0.7,0.1-1.2c0-0.5,0-0.8-0.1-1.1c-0.1-0.2-0.1-0.4-0.1-0.5
		c0-0.1,0-0.3-0.1-0.5c-0.3-0.7-0.6-1.3-1.1-1.8c-0.4-0.5-1-0.9-1.6-1.3c-0.9-0.6-2-1.1-3.1-1.5c-1.1-0.4-2.3-0.7-3.6-1
		c-1.3-0.3-2.5-0.5-3.9-0.8c-1.3-0.2-2.6-0.5-3.8-0.9c-0.7-0.2-1.4-0.4-2.1-0.5c-0.7-0.1-1.4-0.3-2-0.6c-0.1,0-0.2-0.1-0.2-0.1
		c0,0-0.1,0-0.2-0.1c-0.4-0.2-0.9-0.3-1.3-0.5c-0.4-0.2-0.9-0.4-1.3-0.6c-1-0.6-1.9-1.2-2.8-1.9c-0.8-0.7-1.5-1.6-2-2.7
		c-0.2-0.4-0.4-0.8-0.5-1.2c-0.1-0.4-0.2-0.9-0.3-1.3c0-0.2,0-0.3,0-0.4c0-0.1,0-0.2,0-0.4c-0.1-0.5-0.2-1.1-0.1-1.9
		c0.1-0.8,0.2-1.4,0.3-1.8c0.1-0.5,0.3-0.9,0.4-1.3c0.1-0.4,0.3-0.8,0.4-1.2c0.6-1.2,1.4-2.3,2.4-3.1c1-0.9,2-1.6,3.2-2.3
		c0.1-0.1,0.2-0.1,0.3-0.2c0.1,0,0.2-0.1,0.3-0.2c1-0.5,2.1-0.9,3.4-1.2c0.4-0.1,0.7-0.2,1-0.2c0.3-0.1,0.6-0.1,1-0.2
		c0.4-0.1,0.7-0.1,1.2-0.1c0.4,0,0.8,0,1.2-0.1c0.1,0,0.3,0,0.6,0C406.9,397.8,407,397.8,407.1,397.7z"/>
</g>
</svg>
