<?xml version="1.0" encoding="UTF-8"?>
<svg id="Layer_1" data-name="Layer 1" xmlns="http://www.w3.org/2000/svg" viewBox="0 0 390.69 78.85">
  <defs>
    <style>
      .cls-1 {
        fill: #010101;
      }
    </style>
  </defs>
  <polygon class="cls-1" points="73.19 1.68 73.19 22.55 49.38 22.55 49.38 76.05 23.22 76.05 23.22 22.55 0 22.55 0 1.68 73.19 1.68"/>
  <polygon class="cls-1" points="103.47 20.2 103.47 30.2 137.86 30.2 137.86 45.75 103.47 45.75 103.47 55.9 149.03 55.9 149.03 75.76 79.95 75.76 79.95 1.98 149.03 1.98 149.03 20.2 103.47 20.2"/>
  <polygon class="cls-1" points="155.08 1.27 183.59 1.27 194.59 21.09 206.05 1.27 232.33 1.27 209.11 39.02 231.74 76.17 203.23 76.17 192.53 57.77 180.36 76.76 154.49 76.76 178.3 39.02 155.08 1.27"/>
  <path d="M381.54,70.36c-7.86,6.07-16.98,8.23-26.68,8.47-14.45,.35-27.53-3.88-39.4-11.98-.91-.62-1.67-1.47-2.77-2.47l13.58-14.71,2.2,1.49c6.47,4.28,13.36,7.67,21.13,8.76,2.76,.39,5.65,.34,8.43,.03,2.21-.25,4.3-1.3,4.5-3.99,.2-2.67-1.95-3.66-3.87-4.3-4.49-1.5-9.1-2.66-13.66-3.97-6.93-2-13.78-4.03-19.76-8.43-8.31-6.12-9.33-18.62-2.68-26.83,4.16-5.13,9.62-8.32,15.84-10.07,16.44-4.64,31.96-2.52,46.27,7.03,1.57,1.04,2.98,2.34,4.42,3.58,.49,.41,.83,.99,1.6,1.93-4.69,3.85-9.12,7.57-13.68,11.11l-1.46,1.19-1.81-1.19-.24-.15c-5.76-3.84-11.79-7.02-18.88-7.29-2.29-.08-4.79,.3-6.89,1.19-3.14,1.32-3.36,4.35-.31,5.73,4.72,2.13,9.78,3.51,14.67,5.29,5.87,2.12,11.98,3.8,17.52,6.59,14.93,7.52,12.9,24.53,1.93,32.99Z"/>
  <path d="M288.4,1.95h-27.22l-25.55,74.16h23.55l3.44-11.95h19.71l2.82,12.33h27.82L288.4,1.95Zm-21.8,47.25l6.82-22.63,5.5,22.63h-12.32Z"/>
</svg>