<?xml version="1.0" encoding="utf-8"?>
<!-- Generator: Adobe Illustrator 27.0.0, SVG Export Plug-In . SVG Version: 6.00 Build 0)  -->
<svg version="1.1" id="Layer_1" xmlns="http://www.w3.org/2000/svg" xmlns:xlink="http://www.w3.org/1999/xlink" x="0px" y="0px"
	 viewBox="0 0 595.3 841.9" style="enable-background:new 0 0 595.3 841.9;" xml:space="preserve">
<style type="text/css">
	.st0{fill:#010101;}
</style>
<g>
	<path class="st0" d="M79.3,368.3v2.3c-3.8,0.2-6.2,0.5-7.4,0.9c-1.1,0.4-1.7,1.3-1.7,2.9c0,0.5,0,0.9,0.1,1.4
		c0.1,0.4,0.2,0.9,0.5,1.4L87.7,412h-0.2l13.9-32c0.3-0.7,0.6-1.4,0.8-2.2c0.4-1.2,0.6-2.2,0.6-2.9c0-1.8-0.6-2.9-1.8-3.3
		c-1.2-0.4-3.6-0.8-7.3-1v-2.3h22.5v2.3c-2.6,0.2-4.5,0.9-5.8,2c-1.3,1.1-2.5,3-3.7,5.7l-24.1,55.5h-2.8l-27.2-56.5
		c-1.1-2.3-2.2-3.9-3.4-4.9c-1.2-1-3-1.6-5.4-1.8v-2.3H79.3z"/>
	<path class="st0" d="M120.3,429.7c3-0.1,5.2-0.4,6.5-1c2.1-1,3.2-2.9,3.2-5.7v-45.7c0-2.8-1-4.6-3.1-5.6c-1.2-0.6-3.4-0.9-6.6-1.1
		v-2.4h37v2.4c-3.3,0.1-5.6,0.5-6.8,1c-2.1,0.9-3.1,2.8-3.1,5.6V423c0,2.6,0.8,4.4,2.5,5.3c1.7,0.9,4.1,1.3,7.4,1.3v2.4h-37V429.7z"
		/>
	<path class="st0" d="M161.5,429.7c3.6-0.2,6-0.8,7.3-1.8c1.3-1,2-3.3,2-6.8v-41.7c0-3.6-0.8-6-2.3-7.1c-1-0.7-3.4-1.2-7-1.5v-2.4
		h34.1c7.1,0,12.8,0.7,17.2,2c8.5,2.7,12.7,7.5,12.7,14.4c0,5.1-2.2,9.2-6.7,12.1c-3.4,2.2-7,3.6-10.8,4.2l22.5,26.9
		c0.6,0.7,1.2,1.2,1.9,1.5c0.7,0.2,1.5,0.4,2.4,0.4v2.3h-22.1L188,402.6h0V421c0,3.3,0.6,5.6,1.9,6.7c1.2,1.2,3.7,1.8,7.4,1.9v2.4
		h-35.8V429.7z M202.8,396.9c3-1.6,4.5-5.4,4.5-11.4c0-3.7-0.6-6.5-1.7-8.7c-2-3.6-5.5-5.4-10.8-5.4c-2.8,0-4.7,0.3-5.6,0.9
		c-0.9,0.6-1.3,1.7-1.3,3.1v24C194.9,399.4,199.8,398.6,202.8,396.9z"/>
	<path class="st0" d="M250.3,377c7-6.6,16-9.9,26.9-9.9c4.4,0,8.7,0.7,13.1,2.2c4.3,1.5,7,2.2,8.1,2.2c1.1,0,2.1-0.4,2.7-1.1
		c0.7-0.7,1.3-1.8,1.7-3.2h2.9v22.1h-2.7c-2.6-4.8-5.2-8.6-7.8-11.3c-5-5.1-10.6-7.6-16.9-7.6c-6.8,0-11.8,2.6-14.9,7.9
		c-3.1,5.3-4.7,12.7-4.7,22.3c0,7.9,1.5,14.9,4.4,21c2.9,6.2,8.5,9.2,16.9,9.2c4.5,0,7.5-0.8,9.1-2.5c0.9-1,1.3-2.4,1.3-4.3v-10
		c0-2.9-1-4.7-2.9-5.6c-1.3-0.6-3.9-0.9-7.8-0.9V405h36.3v2.4c-3.7,0.1-6.1,0.8-7.3,2c-1.2,1.2-1.8,3.4-1.8,6.7v12
		c-2.3,1.3-6.1,2.6-11.4,3.9c-5.2,1.3-11.1,1.9-17.6,1.9c-11.8,0-21.1-3.3-28.2-9.9c-6.5-6.2-9.8-13.9-9.8-23.2
		C240.1,391.3,243.5,383.4,250.3,377z"/>
	<path class="st0" d="M320.3,429.7c3-0.1,5.2-0.4,6.5-1c2.1-1,3.2-2.9,3.2-5.7v-45.7c0-2.8-1-4.6-3.1-5.6c-1.2-0.6-3.4-0.9-6.6-1.1
		v-2.4h37v2.4c-3.3,0.1-5.6,0.5-6.8,1c-2.1,0.9-3.1,2.8-3.1,5.6V423c0,2.6,0.8,4.4,2.5,5.3c1.7,0.9,4.1,1.3,7.4,1.3v2.4h-37V429.7z"
		/>
	<path class="st0" d="M361.5,429.7c3.9-0.1,6.5-0.8,7.6-2s1.7-3.1,1.7-5.5v-44.7c-3.2-3.2-5.2-5.1-6-5.7c-0.8-0.6-1.8-0.9-3.1-1.1
		v-2.4h22.4l36.4,39.4h0.5V380c0-3.2-0.7-5.5-2-6.8s-3.9-2.2-7.8-2.5v-2.4H434v2.4c-3.3,0.5-5.5,1.1-6.6,2s-1.7,2.7-1.7,5.5v55.6
		h-2.9l-46.6-50.4h-0.7v37c0,2.9,0.4,5,1.3,6.2c1.4,1.9,4.3,3,8.7,3.1v2.4h-24V429.7z"/>
	<path class="st0" d="M438,429.7c3-0.1,5.2-0.4,6.5-1c2.1-1,3.2-2.9,3.2-5.7v-45.7c0-2.8-1-4.6-3.1-5.6c-1.2-0.6-3.4-0.9-6.6-1.1
		v-2.4h37v2.4c-3.3,0.1-5.6,0.5-6.8,1c-2.1,0.9-3.1,2.8-3.1,5.6V423c0,2.6,0.8,4.4,2.5,5.3c1.7,0.9,4.1,1.3,7.4,1.3v2.4h-37V429.7z"
		/>
	<path class="st0" d="M479.4,429.7c2.5-0.2,4.6-1.2,6.2-3.1c1-1.2,2.4-3.8,4.3-7.9l23.5-51.6h2.9l23.6,49.6
		c2.7,5.6,4.6,9.1,5.9,10.8c1.3,1.6,3.2,2.4,5.6,2.3v2.4h-34.3v-2.4c3.4-0.1,5.7-0.4,6.8-0.8c1.1-0.4,1.6-1.4,1.6-3
		c0-0.7-0.3-1.9-0.8-3.4c-0.3-0.9-0.8-2-1.4-3.2l-2.7-5.7h-23.8c-1.6,3.7-2.6,6.2-3,7.3c-0.9,2.4-1.4,4.2-1.4,5.3
		c0,1.4,1,2.3,3.1,2.9c1.2,0.3,3,0.5,5.4,0.6v2.4h-21.6V429.7z M519.1,409.8L508.9,388h-0.9l-9.6,21.8H519.1z"/>
</g>
</svg>
