<?xml version="1.0" encoding="utf-8"?>
<!-- Generator: Adobe Illustrator 27.0.0, SVG Export Plug-In . SVG Version: 6.00 Build 0)  -->
<svg version="1.1" id="Layer_1" xmlns="http://www.w3.org/2000/svg" xmlns:xlink="http://www.w3.org/1999/xlink" x="0px" y="0px"
	 viewBox="0 0 595.3 841.9" style="enable-background:new 0 0 595.3 841.9;" xml:space="preserve">
<style type="text/css">
	.st0{fill:#010101;}
</style>
<g>
	<path class="st0" d="M107.5,446.7l-8-35h-0.1l-7.9,35H80.9l-12.5-51.4h10.4l7.5,35h0.1l8.2-35h9.8l8.1,35.4h0.1l7.8-35.4h10.2
		l-12.7,51.4H107.5z"/>
	<path class="st0" d="M157.4,395.3l17.7,51.4h-10.8l-3.6-11.4H143l-3.7,11.4h-10.5l17.9-51.4H157.4z M158,426.9l-6-18.9h-0.1
		l-6.2,18.9H158z"/>
	<path class="st0" d="M187.2,434.1c0.6,1.2,1.3,2.2,2.3,2.9c1,0.7,2.1,1.3,3.4,1.7c1.3,0.4,2.6,0.5,4,0.5c0.9,0,1.9-0.1,3-0.3
		c1.1-0.2,2.1-0.5,3-1s1.7-1.1,2.3-2c0.6-0.8,0.9-1.9,0.9-3.2c0-1.4-0.4-2.5-1.2-3.4s-1.9-1.6-3.2-2.2c-1.3-0.6-2.8-1.1-4.5-1.5
		s-3.4-0.9-5.1-1.4c-1.8-0.5-3.5-1.1-5.2-1.8c-1.7-0.7-3.2-1.6-4.5-2.7c-1.3-1.1-2.4-2.5-3.2-4.1c-0.8-1.7-1.2-3.7-1.2-6
		c0-2.6,0.5-4.9,1.6-6.9c1-1.9,2.4-3.6,4.1-4.9c1.7-1.3,3.6-2.3,5.7-2.9c2.1-0.6,4.2-0.9,6.4-0.9c2.5,0,4.9,0.3,7.1,0.9
		c2.3,0.6,4.3,1.6,6.1,2.9c1.8,1.3,3.2,3.1,4.2,5.1s1.6,4.6,1.6,7.6h-10.1c-0.1-1.5-0.4-2.8-0.9-3.8c-0.5-1-1.2-1.8-2-2.4
		c-0.8-0.6-1.8-1-2.9-1.2c-1.1-0.2-2.3-0.4-3.5-0.4c-0.8,0-1.7,0.1-2.5,0.3c-0.8,0.2-1.6,0.5-2.3,1c-0.7,0.5-1.2,1.1-1.7,1.8
		s-0.7,1.6-0.7,2.7c0,1,0.2,1.8,0.5,2.4c0.4,0.6,1,1.2,2.1,1.7c1,0.5,2.5,1.1,4.3,1.6c1.8,0.5,4.2,1.2,7.2,2c0.9,0.2,2.1,0.5,3.7,1
		c1.6,0.5,3.1,1.3,4.7,2.4c1.5,1.1,2.9,2.6,4,4.4c1.1,1.8,1.7,4.2,1.7,7.1c0,2.4-0.4,4.5-1.3,6.5s-2.1,3.8-3.7,5.2
		c-1.7,1.5-3.7,2.6-6.2,3.4c-2.5,0.8-5.3,1.2-8.5,1.2c-2.6,0-5.1-0.3-7.6-1c-2.5-0.7-4.6-1.8-6.5-3.3c-1.9-1.5-3.4-3.4-4.5-5.7
		c-1.1-2.3-1.6-5-1.6-8.2h10.1C186.3,431.4,186.6,432.9,187.2,434.1z"/>
	<path class="st0" d="M232.7,395.3v19.7h19.2v-19.7h10.4v51.4h-10.4v-22.2h-19.2v22.2h-10.4v-51.4H232.7z"/>
	<path class="st0" d="M281.8,395.3v51.4h-10.4v-51.4H281.8z"/>
	<path class="st0" d="M301.3,395.3l19.8,34.5h0.1v-34.5h9.8v51.4h-10.4l-19.7-34.4h-0.1v34.4H291v-51.4H301.3z"/>
	<path class="st0" d="M368.2,446.3c-2.3,1-4.5,1.5-6.8,1.5c-3.6,0-6.9-0.7-9.8-2.1s-5.3-3.2-7.3-5.6c-2-2.4-3.5-5.2-4.6-8.5
		s-1.6-6.7-1.6-10.5c0-3.8,0.5-7.4,1.6-10.7c1.1-3.3,2.6-6.2,4.6-8.6c2-2.4,4.4-4.4,7.3-5.8c2.9-1.4,6.2-2.1,9.8-2.1
		c2.4,0,4.8,0.4,7.1,1.2c2.3,0.8,4.3,2,6.2,3.5c1.8,1.5,3.3,3.4,4.5,5.7c1.2,2.3,1.9,4.8,2.2,7.8h-10c-0.6-2.9-1.8-5-3.6-6.5
		c-1.8-1.4-3.9-2.2-6.4-2.2c-2.3,0-4.3,0.5-6,1.5c-1.6,1-3,2.3-4,4c-1,1.7-1.8,3.5-2.2,5.6c-0.5,2.1-0.7,4.3-0.7,6.5
		c0,2.2,0.2,4.3,0.7,6.3c0.5,2,1.2,3.9,2.2,5.5c1,1.6,2.3,2.9,4,3.9c1.6,1,3.6,1.5,6,1.5c3.4,0,6.1-0.9,8-2.8c1.9-1.9,3-4.6,3.3-8.2
		h-10.5v-8.4h19.9v27.8h-6.6l-1.1-5.8C372.5,443.5,370.5,445.3,368.2,446.3z"/>
	<path class="st0" d="M386.8,404.8v-9.5h38.8v9.5h-14.2v41.9H401v-41.9H386.8z"/>
	<path class="st0" d="M430.6,410.6c1.1-3.3,2.6-6.2,4.6-8.6c2-2.4,4.4-4.4,7.3-5.8c2.9-1.4,6.2-2.1,9.8-2.1c3.7,0,6.9,0.7,9.8,2.1
		c2.9,1.4,5.3,3.3,7.3,5.8c2,2.4,3.5,5.3,4.6,8.6c1.1,3.3,1.6,6.8,1.6,10.7c0,3.7-0.5,7.2-1.6,10.5s-2.6,6.1-4.6,8.5
		c-2,2.4-4.4,4.3-7.3,5.6c-2.9,1.4-6.1,2.1-9.8,2.1c-3.6,0-6.9-0.7-9.8-2.1c-2.9-1.4-5.3-3.2-7.3-5.6c-2-2.4-3.5-5.2-4.6-8.5
		s-1.6-6.7-1.6-10.5C429,417.4,429.5,413.9,430.6,410.6z M440.1,427.5c0.5,2,1.2,3.9,2.2,5.5c1,1.6,2.3,2.9,4,3.9
		c1.6,1,3.6,1.5,6,1.5c2.3,0,4.3-0.5,6-1.5c1.6-1,3-2.3,4-3.9c1-1.6,1.8-3.5,2.2-5.5c0.5-2,0.7-4.1,0.7-6.3c0-2.3-0.2-4.4-0.7-6.5
		c-0.5-2.1-1.2-4-2.2-5.6c-1-1.7-2.3-3-4-4c-1.6-1-3.6-1.5-6-1.5c-2.3,0-4.3,0.5-6,1.5c-1.6,1-3,2.3-4,4c-1,1.7-1.8,3.5-2.2,5.6
		c-0.5,2.1-0.7,4.3-0.7,6.5C439.4,423.4,439.6,425.5,440.1,427.5z"/>
	<path class="st0" d="M493,395.3l19.8,34.5h0.1v-34.5h9.8v51.4h-10.4l-19.7-34.4h-0.1v34.4h-9.8v-51.4H493z"/>
</g>
</svg>
