<?xml version="1.0" encoding="utf-8"?>
<!-- Generator: Adobe Illustrator 27.0.0, SVG Export Plug-In . SVG Version: 6.00 Build 0)  -->
<svg version="1.1" id="_x0031_" xmlns="http://www.w3.org/2000/svg" xmlns:xlink="http://www.w3.org/1999/xlink" x="0px" y="0px"
	 viewBox="0 0 901.5 1290.5" style="enable-background:new 0 0 901.5 1290.5;" xml:space="preserve">
<style type="text/css">
	.st0{display:none;}
	.st1{display:inline;}
	.st2{fill:#d8d8d8;}
</style>
<g class="st0">
	<g id="_x32_qV1Nn.tif_00000135651133250681949090000009792697421302410923_" class="st1">
		<g>
			<path d="M397.4,622c0.5,4.9-2.7,4.6-5.8,4.6c-40.2,0-80.5,0-120.7,0c-6.2,0-12.3,0.1-18.5,0c-3.7-0.1-5.8,1.4-6.8,5
				c-2.9,9.8-6.2,19.6-9.1,29.4c-1.6,5.2,0.4,7.8,6,7.8c16.3,0.1,32.6-0.1,48.9,0.1c3.8,0,5.9-1.6,6.9-5c1.2-4.1,2.3-8.2,3.7-12.2
				c1.5-4,0.1-5.4-4-5.4c-8.8,0.1-17.6,0-26.5,0c-0.3-3.6,0.8-5.1,4.4-5.1c9.1,0.1,18.3,0,27.4,0.1c4.9,0.1,6.3,2,5,6.5
				c-1.8,6.1-3.6,12.2-5.6,18.3c-1.7,5.1-5.3,7.7-10.8,7.7c-16.6,0-33.2,0.1-49.9,0c-8.2,0-12.7-6-10.4-13.8
				c3-10.2,6.1-20.3,9.3-30.4c1.8-5.6,5.1-8,11-8c47.2,0,94.4,0,141.6,0C394.8,621.7,396.1,621.9,397.4,622z"/>
			<path d="M357.6,629.8c-4.3,13.8-8.5,27.5-12.9,41.1c-0.5,1.4-2.5,2.3-3.8,3.5c-0.4-0.3-0.9-0.7-1.3-1c0.2-1.2,0.2-2.5,0.5-3.6
				c3.1-10.1,6.1-20.3,9.5-30.3c1.2-3.8,0.7-5.3-3.7-5.3c-29.4,0.1-58.8,0.1-88.3,0c-3.6,0-5.4,1.2-6.4,4.6c-2,7-4.2,14-6.6,21.7
				c1.9,0.3,3.4,0.7,5,0.7c12.1,0.1,24.3-0.1,36.4,0.1c4.9,0.1,6.4-2.3,6.6-7c-7.9,0-15.6,0-23.3,0c-0.3-0.5-0.6-1.1-1-1.6
				c1.4-1.1,2.8-3.2,4.2-3.3c8.8-0.3,17.6-0.2,27.2-0.2c-1.6,5.3-2.9,10.1-4.7,14.7c-0.4,1-2.6,2-3.9,2c-16.1,0.1-32.2,0.1-48.4,0.1
				c-3.9,0-4.5-1.7-3.5-5c2.9-9.3,5.6-18.7,8.8-28c0.6-1.6,3.2-3.6,4.8-3.6c34.1-0.2,68.2-0.1,102.2-0.1
				C355.8,629.5,356.5,629.7,357.6,629.8z"/>
			<path d="M412,666.1c-0.1-4.2,2-5,5.4-4.9c16.6,0.1,33.2-0.1,49.8,0.2c4.9,0.1,7.1-1.5,6.9-7.1c-19.4,0-38.8,0-58.9,0
				c3.3-10.7,6.2-20.5,9.4-30.2c0.3-1.1,2.4-2.2,3.7-2.2c23.1-0.1,46.2-0.1,69.3-0.1c0.5,4.3-1.8,5-5.3,5
				c-19.3-0.1-38.5,0.1-57.8-0.1c-4.1,0-6.4,0.8-7.2,5.2c-0.8,4.3-2.2,8.5-3.8,12.6c-1.5,3.8-0.3,4.9,3.6,4.9
				c15.9-0.1,31.9-0.1,47.9,0c5.9,0,6.3,0.7,4.7,6.3c-3.1,10.6-3.1,10.6-14.5,10.6C447.5,666.1,429.9,666.1,412,666.1z"/>
			<path d="M425.7,646.4c1.7-5.4,3-10.2,4.7-15c0.3-0.9,1.8-2,2.8-2c20.6-0.1,41.1-0.1,61.9-0.1c0.4,4.2-1.5,5-4.9,5
				c-16.4-0.1-32.9,0.1-49.3-0.2c-5.2-0.1-7.9,1.4-7.9,7.2c10.4,0,20.8,0,31.2,0c4.5,0,9-0.1,13.5,0c8,0.2,12.3,6,10.2,13.6
				c-1.1,3.9-2.2,7.8-3.6,11.7c-1.5,4.5-4.7,7.1-9.6,7.2c-20.9,0.1-41.9,0-62.8,0c-0.6,0-1.3-0.2-2.1-0.3c-0.4-3.8,1.5-4.7,5-4.7
				c18.9,0.1,37.9-0.1,56.8,0.1c5,0.1,7.8-1.5,8.8-6.4c0.5-2.7,1.7-5.3,2.4-7.9c1.5-5.5-0.4-8.1-6.2-8.2c-15-0.1-29.9,0-44.9,0
				C429.9,646.4,428.1,646.4,425.7,646.4z"/>
			<path d="M529.4,673.9c-8.8,0-17.6,0.1-26.4,0c-7.4-0.1-10.9-4.7-8.8-11.6c3.5-11.4,7.2-22.7,10.7-34c1.4-4.5,4.3-6.7,9.1-6.6
				c17.6,0.1,35.2,0,52.8,0.1c6.9,0,11.1,4.7,9.4,11.3c-3.3,12.1-7.1,24-11.1,35.9c-1.2,3.5-4.3,5.1-8.3,5
				C547.7,673.9,538.5,673.9,529.4,673.9z M530.6,668.9c7.8,0,15.6-0.2,23.4,0.1c4.4,0.2,6.7-1.5,7.9-5.6c2.8-9.4,5.8-18.7,8.7-28
				c1.9-6.1-0.1-8.7-6.4-8.8c-15.8-0.1-31.5,0.1-47.3-0.1c-4.7-0.1-6.9,1.9-8.1,6.1c-2.7,9.4-5.7,18.7-8.5,28
				c-1.7,5.5,0.2,8.1,5.9,8.2C514.4,668.9,522.5,668.9,530.6,668.9z"/>
			<path d="M611.2,673.9c-9,0-17.9,0.1-26.9,0c-6.8-0.1-10.3-4.6-8.4-11c3.5-11.5,7.1-23.1,10.6-34.6c1.4-4.4,4.2-6.7,9.1-6.7
				c17.3,0.1,34.5,0,51.8,0.1c8,0,12.3,5.5,10,13.1c-3.2,10.9-6.8,21.8-10.1,32.7c-1.4,4.6-4.4,6.5-9.2,6.5
				C629.1,673.9,620.1,673.9,611.2,673.9z M612.1,668.9c8,0,16-0.2,23.9,0.1c4.2,0.2,6.4-1.5,7.6-5.4c2.9-9.5,5.9-19,8.8-28.5
				c1.8-5.8-0.2-8.4-6.3-8.4c-16-0.1-31.9,0.1-47.9-0.1c-4.1,0-6.4,1.4-7.6,5.4c-2.8,9.7-6,19.3-8.9,29c-1.6,5.3,0.3,7.8,5.9,7.9
				C595.8,668.9,604,668.9,612.1,668.9z"/>
			<path d="M347.2,673.1c1.6-5.3,3.2-10.5,4.8-15.8c2.5-8.1,4.9-16.2,7.6-24.2c0.5-1.4,2.1-3.4,3.2-3.5c10.7-0.3,21.5-0.2,32.3-0.2
				c0.2,3.9-1.6,5-4.9,4.9c-6.8-0.1-13.6,0.2-20.4-0.1c-4.1-0.2-6.1,1-7.2,5.1c-2.9,10.5-6.3,20.9-9.8,31.2c-0.5,1.6-2.4,2.7-3.7,4
				C348.5,674.1,347.9,673.6,347.2,673.1z"/>
			<path d="M530.4,666.1c-8,0-15.9,0-23.9,0c-3.5,0-4.8-1.1-3.6-4.8c3-9.3,5.8-18.7,8.6-28c0.9-3.1,2.7-4,5.8-3.9
				c15.4,0.1,30.9,0,46.3,0.1c5.3,0,5.8,0.8,4.3,5.7c-2.8,8.9-5.8,17.6-8.3,26.6c-1,3.7-2.8,4.5-6.3,4.4
				C545.7,666,538,666.1,530.4,666.1z M508.3,660.1c1.2,0.6,1.5,0.8,1.7,0.8c13.8,0.1,27.5,0.3,41.3,0.1c1.4,0,3.5-1.9,4-3.3
				c2.3-6.4,4.1-13,6.3-19.5c1-3-0.2-3.9-3-3.9c-12.9,0-25.9-0.1-38.8,0.1c-1.5,0-3.8,1.2-4.2,2.4
				C512.9,644.5,510.7,652.3,508.3,660.1z"/>
			<path d="M650.2,630.2c-0.3,1.9-0.4,3.7-0.9,5.3c-2.7,8.9-5.6,17.7-8.2,26.6c-0.9,3.1-2.5,4-5.6,4c-15.6-0.1-31.2-0.1-46.9,0
				c-4.2,0-5.3-1.3-4-5.3c3-9.1,5.5-18.4,8.6-27.5c0.5-1.6,2.8-3.6,4.3-3.6c16.8-0.2,33.6-0.1,50.4-0.1
				C648.4,629.6,648.9,629.8,650.2,630.2z M613.2,661.3c6,0,11.9-0.1,17.9,0.1c3.5,0.1,5.5-0.9,6.5-4.4c1.7-6.1,3.4-12.2,5.6-18.2
				c1.3-3.5,0.1-4.4-3.2-4.4c-12.6,0-25.2,0.1-37.8,0c-3.2,0-4.9,1.3-5.7,4.2c-1.8,6.2-3.6,12.5-5.7,18.6c-1.1,3.2,0,4.2,3.1,4.2
				C600.3,661.2,606.7,661.3,613.2,661.3z"/>
		</g>
	</g>
</g>
<g id="_x36_wEgah.tif">
	<g>
		<path class="st2" d="M754.7,1256.2c-9.9,0-19.7,0-29.6,0c-2.3-1-4.9,0.1-7.2-0.7c-15.6-0.1-31.2-1.8-46.7-3.3
			c-2.7-0.3-5.1,0.4-7.4,2c-7.2,5-15.5,6.7-23.9,8c-14.9,2.4-29.8,4.6-44.9,5.3c-1.9,0.8-4.1-0.2-6.1,0.7c-3,0.1-6,0.2-8.9,0.3
			c-3,0.9-6.2-0.3-9.3,0.7c-3.6,0.1-7.1,0.2-10.7,0.3c-6,1-12.1-0.4-18.1,0.7c-41.2,0-82.4,0-123.5,0c-4.7-1.1-9.5,0.2-14.1-0.7
			c-2.9-0.1-5.8-0.2-8.7-0.3c-2.7-1-5.6,0.2-8.3-0.7c-2.6-0.1-5.3-0.2-7.9-0.3c-1.6-0.9-3.4,0.1-5.1-0.7
			c-22.7-1.1-45.2-4.3-67.8-6.3c-1.6-0.9-3.5,0.1-5.1-0.7c-1-0.1-2-0.2-3-0.3c-1.5-0.9-3.4,0.1-5-0.7c-18-1.7-35.8-5.1-53.8-7.4
			c-17.2-2.2-34.1-6.3-51.3-9.3c-15.2-2.6-30.1-6.7-45.3-9.2c-14.6-2.4-28.7-6.5-43.1-9.7c-21-4.6-41.7-10.3-62.5-15.7
			c-5-1.3-9.8-3.1-15-4c-7.8-1.5-10.9-12.2-5.2-17.7c11.1-11,21.9-22.2,33.6-32.4c9.2-8.1,17-17.5,26.8-24.9
			c3.7-2.8,2.2-4.5-0.6-6.5c-7.6-5.3-14.2-11.6-19.8-19c-5.8-7.6-5.5-12.7,1.2-19.5c10.8-10.8,21.2-22.1,32.5-32.3
			c12.5-11.4,25.1-22.6,38-33.4c14.4-12.1,29.2-23.8,44.4-34.9c11.9-8.8,24.5-16.7,37.2-24.3c13.8-8.2,28.3-15.3,43.6-20.5
			c20.2-6.9,39.5-3.7,58.4,4.9c26.6,12.2,50.4,28.8,73.2,47c9.5,7.6,19,15.3,28.5,22.9c2.3,0.3,3.8,1.7,5.5,3.1
			c34.9,29.7,66.6,62.7,99,95.1c3.5,3.4,5.8,8.1,10.7,10.8c1.3-10,1.9-19.5,2.3-29.1c1.8-42.8-6.6-84.1-20.1-124.5
			c-3.8-11.5-7.5-23.1-12.1-34.4c-0.9-2.2-0.4-4.6-1.4-6.7c-6.3-16.8-13.6-33.1-20.5-49.6c-8-19.3-16.9-38.2-25.7-57.1
			c-10.9-23.2-22.5-46-34.4-68.7c-11.4-21.7-23.5-43-35.5-64.4c-10.7-19.1-21.4-38.2-32.5-57c-15-25.5-30.5-50.8-45.5-76.3
			c-10.3-17.4-20.1-35.2-30.4-52.6c-9.8-16.4-19.1-33.1-28.4-49.9c-9.8-17.7-19-35.6-27.6-53.9c-8.5-18.3-16.4-36.9-20.6-56.7
			c-3.1-14.7-1.7-29.4,4.2-43.8c9.4-23,22.5-43.9,36.7-64c10.4-14.8,22.1-28.8,33.6-42.9c13-16.1,27.2-31.2,41.1-46.5
			c12.9-14.1,26.5-27.5,40.2-40.7c13.9-13.4,28.3-26.4,43.3-38.7c13.5-11.1,27.1-22.2,41.9-31.6c11.8-7.5,23.6-15.4,37.9-17.5
			c9.7-1.4,19.7-1.2,29.4-0.3c38.5,3.7,76.1,12.6,113.3,22.7c48.7,13.3,96.9,28.3,143.2,48.7c10.7,4.7,21.6,9.3,29.7,18.3
			c17,19,34,38.1,51.1,57c10,11,19.7,22.2,28.2,34.4c5,7.1,4.4,8.7-2.8,13.9c-8.1,5.9-17.2,10.1-26.1,14.5c-3.4,1.7-5.7,3.1-6.5,7.9
			c-2.1,12.6-8.5,23.6-15.9,34c-3.1,4.4-6.9,8.1-10.8,11.7c-1.8,1.7-4.1,3.8-6.9,2.5c-3-1.3-2.2-4.4-1.8-6.6
			c1.4-8.9,3.2-17.8,2.9-27c-0.4-12.8-3.8-24.9-8.5-36.7c-0.4-1-1.2-2.1-2.1-2.6c-22.7-11.9-45.2-24.3-69.2-33.6
			c-9.5-3.7-19.4-6.1-29.5-7.5c-1.5-0.2-3-0.1-4.5,0c-6.3,0.4-7.1,1.2-7.1,7.3c0,10-0.5,20,0.1,30c2.1,31.5,4.8,62.9,17.9,92.2
			c5.1,11.5,11,22.5,23.2,28.3c3.5,1.6,7.1,1.8,10.6,0.7c7.5-2.4,14.5-5.8,21.3-9.9c7.9-4.7,14.9-10.8,23.7-14
			c1.6-0.6,3.5-1.3,4.6-0.1c1,1.2,0.4,3-0.3,4.7c-6.2,13.6-14.1,26.1-23.6,37.7c-5.6,6.8-11.9,12.9-19.1,17.9
			c-8.4,5.8-17.5,9.6-28.1,8.9c-9.1-0.6-16.6-5.2-23.7-10.1c-9.9-6.9-18.5-15.5-26.4-24.9c-3.4-4-7.1-7.6-9.9-12.1
			c-1.5-2.4-2.8-1-4.1,0.4c-8.5,9.2-13.8,20.2-18.3,31.7c-7.7,19.5-11.4,39.9-14,60.6c-2.6,20.9-2.4,41.8-1.5,62.6
			c0.9,21,3.8,41.9,7.4,62.7c9.2,53.7,25.9,105.2,44.7,156.1c14.9,40.4,28.1,81.5,40,122.9c10.8,37.3,20.3,75,28.1,113.1
			c4.5,22,8.9,44,11.5,66.4c1.3,10.9,3.3,21.8,3.8,32.8c0.1,2.7,1.7,3.4,3.5,4.1c28.1,10.4,54.1,24.5,77.8,42.7
			c25.4,19.5,46.6,42.5,55.7,74.3c4.8,16.7,6.7,33.6-0.1,50.3c-5.1,12.5-14.4,21.1-25.6,28c-14.2,8.7-29.8,13.2-45.8,16.8
			c-17.9,4.1-36.1,5.4-54.4,6.2C758.9,1256.3,756.7,1255.2,754.7,1256.2z"/>
		<g>
			<path d="M605.9,1073.3c-2.8-25.6-9.2-50.6-16.4-75.3c-17-58.3-39.7-114.4-65-169.5c-29.5-64.3-64.6-125.4-99.9-186.6
				c-38.9-67.5-77.7-135-113.3-204.4c-13.9-27.2-27.2-54.8-37.6-83.6c-6.1-16.9-3.6-30.8,7.1-45c23.5-31.3,49.8-60.1,76.7-88.4
				c30.4-32,61.9-62.8,94.6-92.5c20.1-18.3,40.5-36.4,62.9-51.9c6.5-4.5,13-9.2,21-10.7c11.2-2.1,22.3-0.6,33.2,1.4
				c22.7,4.2,44.6,11.3,66.2,19.6c10.9,4.2,19.4,11.2,25,21.5c3.8,7.1,6.7,14.7,9.1,22.4c1.2,3.8,3.3,6,6.8,7
				c7.4,2.3,14.8,4.6,22.2,6.7c30.7,8.5,59.6,21.7,89.3,32.8c8.3,3.1,16.7,5.9,25.3,8.2c1.5,0.4,3.3,1,4.3-0.1
				c1.2-1.3-0.3-2.9-0.8-4.1c-1.5-3.3-3.3-6.5-5.3-9.5c-9.7-14.9-20.9-28.7-32.9-41.8c-10.3-11.1-20.8-21.9-35.9-27.5
				c-32.7-12.1-66.1-22.1-99.8-31.1C595.2,58,547.6,45.5,498.6,39c-16.4-2.2-30.8,0.3-44.7,9.6c-26.4,17.6-49.7,38.9-72.2,61
				c-41.7,40.9-80.4,84.5-115.5,131.3c-13.6,18.1-26.5,36.6-36.3,57.2c-4.2,8.9-6.2,17.9-3.9,27.8c5,21,13.9,40.5,22.9,59.8
				c21.6,46.4,46,91.5,70.4,136.5c42.9,79.2,86.9,157.8,129,237.5c23.4,44.3,47.5,88.3,67,134.6c22.4,53.2,39.9,107.7,46,165.4
				c2.8,26.9,2.9,53.8-2.4,80.4c-4.8,23.9-16.6,43.6-36.6,58.1c-25.9,18.7-55.6,25.4-86.6,27.1c-17.2,0.9-34.5,0.4-51.7-1.6
				c-21-2.4-41.7-6.1-62.3-10.7c-11-2.5-21.9-5.5-33-7.9c1.1,0.6,2.1,1.2,3.2,1.7c61.5,29.5,126.2,45.6,194.6,46
				c21,0.1,41.2-3.1,59.8-13.1c25-13.5,39.8-35.2,48.7-61.5c5.8-17.1,8.8-34.8,10.1-52.8C606.5,1107.8,607.8,1090.5,605.9,1073.3z"
				/>
			<path d="M735.1,1032.8c-1.1-15.5-3-30.9-5.5-46.3c-4.8-28.9-12.7-57.1-21.3-85.1c-14.4-47-31.4-93.1-47.9-139.4
				c-22.9-64.4-45.8-128.9-60.9-195.7c-6.5-28.7-11.4-57.7-13.2-87.1c-1-17.1-1-34.2,0.6-51.4c1.8-18.5,5.1-36.5,10.9-54.1
				c8.3-25.1,20.8-47.8,38.4-67.6c1.9-2.2,4.2-4.1,2.8-8c-11.1-30.6-20.5-61.8-27.5-93.6c-4.2-19.2-8.6-38.4-6.5-58.3
				c0.3-3.1-1.3-4.1-3.6-4.8c-13.4-4.1-26.7-8-40.8-9.5c-12-1.3-22.3,1-32.1,8c-16.9,12.1-32.7,25.5-48.1,39.5
				c-22.5,20.5-44.1,41.9-64.2,64.9c-16.7,19.1-32.4,39-45.1,61.1c-7.3,12.8-13.6,26.1-14.9,40.9c-1.4,15.8,1.3,31.4,5.5,46.7
				c9.3,33.8,23.3,65.7,37.9,97.3c28.2,61,59.2,120.6,89,180.8c36.2,73,73.5,145.5,104.8,220.8c20.3,48.8,38.2,98.4,48.5,150.5
				c6.2,31.3,9.1,62.6,5.9,94.4c-3.4,33.3-14.4,63.8-34.1,91c-3.4,4.7-7.1,9.2-10.5,13.9c-1.4,2-3.2,4.6,1,5.5
				c7.4,1.6,14.8,3.2,22.9,3c4.8,0.5,9.9-0.6,15-1.3c22.8-3.3,39.1-16.2,51.7-34.8c28.5-42,39-89.3,41.6-138.9
				C736.5,1061.1,736.2,1047,735.1,1032.8z"/>
			<path d="M117.6,1096.5c58.1,36.7,118.4,68.9,183.6,91.4c35.1,12.1,71,20.4,111,21.2c9.8-0.7,22.2-1.1,34.4-3.8
				c28-6.1,51.5-19.4,68.8-42.6c2-2.6,3.7-5.4,2.4-8.7c-1.5-3.6-5.3-3.2-8.2-3.3c-15.6-0.2-30.9-2.2-46.2-5.3
				c-60.2-12.5-112-41.1-157.8-81.5c-25.8-22.7-47.9-48.7-67.5-76.9c-5.7-8.2-15.7-10-24.1-4.5c-3.2,2.1-6.2,4.4-9.3,6.6
				c-31.9,22.9-62.4,47.3-90,75.4C104.2,1075.3,105.3,1088.8,117.6,1096.5z"/>
			<path d="M333.7,1059.4c26.3,22,54.8,40.4,86.9,52.7c23.2,8.9,47,14.1,72,11.5c0.1-0.4,0.3-0.8,0.4-1.3c-1-0.9-2-1.7-2.9-2.6
				c-25.6-24.2-51.7-47.9-78.5-70.8c-26.4-22.5-53.2-44.5-82-63.8c-16.6-11.1-33.3-22.2-53.4-26.4c-10.5-2.2-15.7,3.1-13.2,13.5
				c2,8.7,6.5,16.2,11.4,23.5C290.8,1020.3,311.4,1040.7,333.7,1059.4z"/>
			<path d="M852.6,1130.4c-6.4,5.7-12.8,10.9-19.9,15.1c-27.6,16.7-58,22-89.6,22.6c-3.4,0.1-5.1,1-6.7,4.1
				c-7.6,14.8-16.2,29.1-26.2,42.5c-4.8,6.5-10.4,12.3-16,19.4c10.7,1.1,20.2,2.8,29.8,3.1c16.3,0.5,32.5,0.9,48.8-0.7
				c19.3-1.9,38.2-5.4,56-13.1c18.3-7.9,33.4-19.2,36.6-40.3C868.3,1164.1,862,1146.9,852.6,1130.4z"/>
			<path d="M203,1198.3c-32.6-15.5-64.4-32.4-95.2-51.3c-1.9-1.2-3.3-2-5.5,0.1c-9.6,9.2-19.4,18.2-29.2,27.2
				c-3.5,3.2-5.3,6.9-4.1,11.5c1.2,4.7,4.4,7.4,9.2,8.7c16.4,4.5,32.8,8.6,49.3,12.4c26,5.9,52.1,11.1,78.4,15.5
				c19.5,3.3,39,6.6,58.5,9.7c9.1,1.5,18.4,2.4,27.5,3.6c0.1-0.3,0.2-0.5,0.3-0.8c-1.1-0.5-2.2-1.1-3.3-1.5
				C259.5,1223.5,230.9,1211.6,203,1198.3z"/>
			<path d="M754.9,1060c-5.9-1.5-6.6-0.9-6.6,5.2c0,11.3,0,22.6,0,34s0.4,22.7-0.2,34c-0.2,5.3,2.3,6.2,6.4,6.3
				c8.5,0,16.9,0.4,25.4-1c16.3-2.6,32-6.6,45.5-16.7c9.9-7.4,10.2-13.7,1.3-22.3c-7.8-7.5-16.8-13.4-26.1-18.8
				C786,1072.1,771.3,1064.3,754.9,1060z"/>
		</g>
		<g id="Main_Colors">
			<path class="st2" d="M697.2,106c11.3,3.1,22.5,6.8,33.9,9.3c12.8,2.9,19.6,11.8,25.4,22.3c0.9,1.6,2.4,3.7,0.8,5.5
				c-1.6,2-4,1.2-6,0.6c-9.3-2.6-18.2-6.7-27.3-9.8c-13.2-4.4-20.7-14.1-26.6-25.7C697.1,107.5,696.6,106.9,697.2,106z"/>
			<path class="st2" d="M370.3,355c0-10.1,2.6-18.5,5.9-26.9c1.4-3.4,3-3.8,6.2-3c23.1,5.6,46.3,11.1,69.5,16.6
				c42.1,9.9,84.2,19.7,126.3,29.4c3.4,0.8,5.4,1.3,4,6c-3.6,12.2-6.1,24.6-7.2,37.3c-0.3,3.5-1.7,5.2-5.6,4.7
				c-13.8-1.7-27.7-3-41.5-4.5c-10.7-1.2-21.4-2.3-32-3.5c-16.6-1.8-33.2-3.7-49.8-5.5c-10.7-1.2-21.4-2.3-32.1-3.5
				c-11.2-1.3-22.3-2.7-33.5-3.8c-2.1-0.2-2.2-1.5-2.7-2.9C373.6,381.8,370.9,368.1,370.3,355z"/>
			<path class="st2" d="M495.3,494.9c-24.6,1.5-49.2,0.8-73.9,1.1c-2.2,0-3.2-0.7-4.1-2.6c-11.6-25.1-22.9-50.3-32.3-76.3
				c-1.2-3.3-1.2-4.4,2.9-3.8c10.6,1.5,21.3,2.5,31.9,3.7c14,1.6,28,3.2,42,4.7c10.3,1.1,20.7,2.2,31,3.3c13.3,1.4,26.6,2.9,40,4.3
				c11.2,1.2,22.4,2.5,33.6,3.6c4,0.4,6.5,0.7,6.2,6.4c-1.1,17.3-0.7,34.6,1.3,51.8c0.5,4.1-1.9,3.5-4.2,3.6
				c-18.5,0.1-36.9,0.1-55.4,0.2C507.9,494.9,501.6,494.9,495.3,494.9z"/>
			<path class="st2" d="M510.2,509.9c13.5-0.2,36.1-1.2,58.7-1.1c4.8,0,6.8,0.5,7.5,6.3c2.6,20.2,6.2,40.4,10.9,60.2
				c0.7,3,0.2,3.3-2.5,3.5c-16.5,1.2-33,2.5-49.5,4c-21,1.8-41.9,3.8-62.9,5.8c-8.4,0.8-8.4,0.9-12-6.4
				c-11-22.4-21.8-44.8-32.9-67.1c-1.6-3.3-1.4-4.2,2.6-4.4C453.9,509.7,477.5,509.9,510.2,509.9z"/>
			<path class="st2" d="M385.2,310.7c8.6-14.6,18.4-28.1,29-41c7.2-8.8,7.4-8.7,18.2-5c56.3,19.1,112.6,38.2,168.9,57.3
				c3.4,1.1,3.7,2.2,1.9,5.3c-5.2,8.6-9.7,17.6-13,27.1c-1.4,4.1-3.5,4.3-6.9,3.5c-24-5.7-47.9-11.4-71.9-17
				c-41.1-9.7-82.2-19.3-123.4-28.9C387.3,311.7,386.4,311.1,385.2,310.7z"/>
			<path class="st2" d="M431.8,249c10.1-10.7,19.8-20.9,29.4-31.2c1.3-1.4,2.4-1.5,4.3-1c41.6,9.7,83.3,19.2,125,28.8
				c3.2,0.7,6.4,1.9,9.7,2.1c6.5,0.3,9,3.9,10.6,9.9c3.2,11.7,7,23.3,10.9,34.8c1.4,4.1,1.4,7.1-1.5,10.8c-6.4,8-6.2,8.2-15.9,4.8
				c-56.8-19.3-113.5-38.6-170.3-57.9C433.5,249.9,433.1,249.6,431.8,249z"/>
			<path class="st2" d="M471,603.1c13-1.1,25.3-2.2,37.7-3.3c14.2-1.3,28.3-2.6,42.5-3.8c12.2-1.1,24.4-2,36.6-3.1
				c2.8-0.3,3.9,0.6,4.6,3.5c5.1,19.5,10.2,39.1,16.7,58.2c1.3,3.7-0.4,4.6-3.1,4.9c-8.5,1.2-17,2.1-25.5,3.3
				c-14.4,1.9-28.8,3.9-43.2,5.8c-9.8,1.3-19.6,2.5-29.4,3.9c-1.8,0.2-2.4-0.7-3-2C493.6,648.1,482.4,625.9,471,603.1z"/>
			<path class="st2" d="M547.6,751.7c-2,0.3-2.9-0.6-3.8-2.4c-9.9-20.1-19.8-40.2-29.8-60.2c-1.4-2.8-0.7-3.1,2.1-3.5
				c21.8-2.8,43.5-5.8,65.3-8.7c10.1-1.4,20.3-2.7,30.4-4.1c2-0.3,2.9,0.3,3.5,2.3c6.6,19.8,13.2,39.6,20.1,59.3
				c0.8,2.4,0.2,2.9-1.9,3.3c-22.9,3.6-45.9,7.3-68.8,11C559,749.6,553.3,750.7,547.6,751.7z"/>
			<path class="st2" d="M581.2,822.6c-1.8,0.4-2.7-0.7-3.5-2.4c-8.1-17.3-16.3-34.5-24.6-51.7c-1.3-2.7-0.7-3.4,2-3.8
				c25.6-4,51.1-8.1,76.7-12.1c9.3-1.5,9.4-1.5,12.5,7.2c5,13.7,9.8,27.5,14.8,41.2c0.8,2.2,1.2,3.2-1.9,3.9
				c-25,5.7-49.9,11.7-74.8,17.6C582.1,822.7,581.7,822.6,581.2,822.6z"/>
			<path class="st2" d="M606.4,878.5c-2.4,0.8-2.8-0.6-3.6-2.3c-5.2-12.1-10.4-24.2-15.9-36.1c-1.5-3.2-0.6-3.9,2.4-4.6
				c23.7-5.5,47.4-11.1,71-16.7c2.9-0.7,5-0.9,6.2,3c4.2,13.3,8.8,26.5,13.5,39.7c0.9,2.5,0.9,3.5-1.9,4
				c-23.2,4.3-46.3,8.6-69.4,12.9C607.9,878.7,607.1,878.5,606.4,878.5z"/>
			<path class="st2" d="M700,925.4c0.5,1.8-0.5,2-2.1,2.2c-15.4,1.9-30.8,3.9-46.2,6c-7.2,0.9-14.4,1.8-21.6,2.9
				c-2.5,0.4-3.9-0.3-4.8-2.8c-4.7-12.6-9.5-25.2-14.5-37.8c-0.9-2.2-1.2-3,1.7-3.5c13.8-2.4,27.5-5.2,41.2-7.8
				c9.7-1.8,19.4-3.5,29.1-5.6c2.1-0.4,3.2,0,3.7,1.9c4.4,14.5,8.8,28.9,13.2,43.4C700,924.6,700,925,700,925.4z"/>
			<path class="st2" d="M600.5,233.1c-11.9-2.7-23.9-5.4-36-8.2c-28.7-6.6-57.3-13.2-86-19.8c-2.6-0.6-2.8-1.1-1-3
				c9.9-9.9,20.5-19,30.8-28.4c1.8-1.6,3.2-1.5,5.3-0.6c27.1,12,54.2,24,81.3,36c2.1,0.9,3.6,2.1,4.1,4.5c1.2,5.5,2.7,10.9,3.9,16.3
				C603.3,231.7,603.9,234,600.5,233.1z"/>
			<path class="st2" d="M702.7,941.5c2-0.6,2.6,1.3,2.9,2.8c2.7,11.3,5.3,22.7,8,34c0.7,2.8-1.3,2.8-3.1,3.3
				c-18.9,4.9-37.8,9.9-56.7,14.9c-7.4,1.9-7.5,1.9-9.5-5.4c-3.3-12-6.8-24-11.3-35.7c-1.6-4.1-0.1-5.3,3.4-5.7
				c11.2-1.4,22.4-2.7,33.6-4.1c10.3-1.3,20.6-2.6,30.9-3.9C701.3,941.6,701.8,941.6,702.7,941.5z"/>
			<path class="st2" d="M721.3,1033.8c0.8,4.6-1.1,6.3-5.6,7.3c-18,3.9-35.9,8.2-53.8,12.6c-2.4,0.6-2.9,0.1-3.3-1.8
				c-2.6-12.4-5.1-24.8-7.8-37.2c-0.5-2.4,0.7-2.8,2.5-3.2c19.8-5.2,39.7-10.5,59.5-15.7c2-0.5,3.7-0.5,4,2.1
				C718.3,1009.8,719.8,1021.8,721.3,1033.8z"/>
			<path class="st2" d="M722.3,1067c-0.8,10.2-1.6,20.5-2.3,30.7c-0.1,1.9-1,2.5-2.8,2.7c-16.8,1.9-33.5,3.8-50.2,5.7
				c-1.7,0.2-2.8,0.3-3-2c-0.9-11.1-0.9-22.2-2.7-33.2c-0.6-3.6,2.9-2.9,4.5-3.3c13.1-3.3,26.2-6.2,39.3-9.2
				c4.6-1.1,9.3-1.9,13.8-3.4c3-1,3.1,0.3,3.1,2.4c0,3.2,0,6.3,0,9.5C722,1066.9,722.1,1066.9,722.3,1067z"/>
			<path class="st2" d="M699.3,1158.5c-11.9-2.4-24.1-0.2-36.2-2c-2.4-0.4-3.4-0.4-2.8-3.4c1.5-8,2.6-16,2.7-24.2
				c0.2-7.5,0.2-7.7,7.5-8.6c14.4-1.8,29-3.1,43.4-4.9c2.9-0.4,3.4,0.3,3,2.9c-2,13.1-5.7,25.7-10.1,38.1
				C705.5,1160.2,701.9,1157.5,699.3,1158.5z"/>
			<path class="st2" d="M593.8,193.3c-22.5-10-44.4-19.7-66.3-29.4c-3.3-1.5-4.9-2.7-0.6-5.2c2.4-1.4,4.6-3.3,6.7-5.1
				c10.6-9.5,23.1-8.2,35.6-6c6,1,11.8,2.9,17.7,4.4c1.6,0.4,3.1,0.7,3.2,3c0.2,12.1,1.8,24.1,3.9,36
				C594.1,191.5,593.9,192.2,593.8,193.3z"/>
			<path class="st2" d="M699.9,1174.3c-0.2,0.4-0.6,1.1-0.9,1.9c-5.1,11.3-11.4,21.9-18.6,31.9c-1.6,2.1-3,2.7-5.4,1.9
				c-8.4-2.8-16.8-5.4-25.2-8.1c-2.1-0.7-3.3-1.1-2.2-4c3-7.8,5.6-15.8,8.1-23.8c0.7-2.1,1.4-2.7,3.6-2.8
				c12.8-0.4,25.5,1.3,38.3,1.1C698.6,1172.4,700,1172,699.9,1174.3z"/>
			<path class="st2" d="M666.7,1222.4c-6.4,7.9-21.6,12.9-39.5,12.9c4.1-6.9,8-13.6,12-20.3c0.6-1.1,1.8-0.9,2.7-0.6
				C650.1,1217,658.3,1219.7,666.7,1222.4z"/>
			<path class="st2" d="M263.8,1043.1c-1,0.8-1.9,1.6-2.8,2.3c-26.6,20.9-48.6,46-67.4,74.1c-1.9,2.9-3.3,3-6.2,1.4
				c-20.6-11.2-40.8-23-60.6-35.6c-6.1-3.9-6.4-6.1-1.3-11.1c29.2-29.3,61.6-54.9,95.4-78.8c3.4-2.4,4.7-0.9,6.3,1.4
				c9,13.2,18.9,25.5,29.1,37.7c1.8,2.2,3.8,4.2,5.7,6.3C262.6,1041.4,263,1042.1,263.8,1043.1z"/>
			<path class="st2" d="M267.6,1159.3c-0.8-0.3-1.5-0.7-2.2-1c-19.8-8.1-39-17.5-58.1-27c-2.4-1.2-2.9-2.1-1.2-4.6
				c18.1-26.5,39.2-50.2,64.1-70.4c2.6-2.1,4.4-2.5,7.2,0.4c10.2,10.9,21.2,21.1,33,30.3c1.7,1.4,2.3,2.2,0.6,4.3
				c-15.7,19.9-28.3,41.9-40,64.3C270.2,1157.1,270.1,1159.4,267.6,1159.3z"/>
			<path class="st2" d="M365.8,1126.1c-0.4,0.6-0.8,1.1-1.2,1.6c-9.8,16.3-17.2,33.8-23.3,51.7c-1.2,3.6-2.6,4.5-6.3,3.4
				c-16.6-4.8-33-10-49.1-16.3c-2.9-1.2-3.5-1.6-1.9-4.6c11.1-21.1,23-41.5,37.3-60.6c2.1-2.8,3.3-3,6.1-0.9
				c11.2,8.5,23.2,15.8,35.3,22.8C364,1124,365.6,1124.3,365.8,1126.1z"/>
			<path class="st2" d="M406.9,1194.4c-17.3-1-33.6-2.7-49.7-6.1c-2.4-0.5-3.4-1.5-2.4-4.1c6.3-16.6,12.7-33.1,21.9-48.4
				c1.7-2.8,3.1-3.6,6.6-1.9c13.1,6.6,26.7,12,40.7,16.5c2.8,0.9,3.6,1.6,1.9,4.6c-5.7,10.3-9.1,21.5-11.5,33
				C413.3,1192.8,411.7,1196,406.9,1194.4z"/>
			<path class="st2" d="M494.2,1164.6c-6.3,6.7-12.9,11-19.7,14.9c-13.5,7.7-28.2,11.5-43.5,13.7c-2.9,0.4-3.2-1-2.7-3.1
				c2.7-10.9,6.1-21.5,11.6-31.4c1.3-2.4,2.9-2.9,5.2-2.3c13,3.6,26.4,5.7,39.7,7.7C487.5,1164.5,490.1,1164.4,494.2,1164.6z"/>
		</g>
	</g>
</g>
</svg>
