<?xml version="1.0" encoding="utf-8"?>
<!-- Generator: Adobe Illustrator 27.0.0, SVG Export Plug-In . SVG Version: 6.00 Build 0)  -->
<svg version="1.1" id="_x0031_" xmlns="http://www.w3.org/2000/svg" xmlns:xlink="http://www.w3.org/1999/xlink" x="0px" y="0px"
	 viewBox="0 0 298.6 187.5" style="enable-background:new 0 0 298.6 187.5;" xml:space="preserve">
<style type="text/css">
	.st0{fill:#ED1C24;}
	.st1{fill:none;stroke:#939598;}
	.st2{fill:url(#SVGID_1_);}
	.st3{fill:url(#SVGID_00000058583877473488418380000011335610631278184383_);}
	.st4{fill:#FFFFFF;}
	.st5{fill:url(#SVGID_00000161621383176048912390000002914904454075694983_);}
	.st6{fill:url(#SVGID_00000169559858788516352740000017025205051051597704_);}
	.st7{fill:url(#SVGID_00000129897612214540968970000000884797423071590530_);}
	.st8{fill:url(#SVGID_00000178887052143478928070000008122040332587087023_);}
	.st9{fill:url(#SVGID_00000105424200868800369080000000489770307568927131_);}
	.st10{fill:url(#SVGID_00000183934998915304698840000011713137047774746033_);}
</style>
<path id="text" class="st0" d="M248.9,143.9c0,0,0,34.7,0,37.7h-15.6v-37.7H248.9z M85.1,129.3l34.9,52.2h-18.2l-5.2-8.6H63.3
	l-5.2,8.6H40.6l30.7-46l-5.7-6.3H85.1z M90.4,162.7l-10.6-17.4l-10.4,17.4H90.4z M150.4,165.7c0,3-2.6,7.4-9,7.4c-6.4,0-9-4.4-9-7.4
	c0-3,0-21.8,0-21.8h-15.6v21.8c0,10.5,9,17.6,24.6,17.6c15.6,0,24.6-7.2,24.6-17.6v-21.8h-15.6C150.4,143.9,150.4,162.7,150.4,165.7
	z M224.9,150.3c2.8,3.7,4.3,8,4.3,12.6c0,11.2-13.4,20.4-29.9,20.4c-16.5,0-29.9-9.1-29.9-20.4c0-22.4,31.1-20.5,34.4-19.2
	l-13.6-14.5h18.5L224.9,150.3z M214,162.6c0-5.8-6.5-10.4-14.6-10.4c-8.1,0-14.6,4.7-14.6,10.4c0,5.8,6.5,10.4,14.6,10.4
	C207.4,173,214,168.3,214,162.6z"/>
<g id="logo">
	<g>
		<path class="st1" d="M56.5,94.5c-21.5,0-38.8-17.4-38.8-38.8c0-21.5,17.4-38.8,38.8-38.8c21.5,0,38.8,17.4,38.8,38.8
			C95.4,77.1,78,94.5,56.5,94.5z"/>
		<path class="st1" d="M118.9,94.5c-21.5,0-38.8-17.4-38.8-38.8c0-21.5,17.4-38.8,38.8-38.8c21.5,0,38.8,17.4,38.8,38.8
			C157.8,77.1,140.4,94.5,118.9,94.5z"/>
		<path class="st1" d="M181.4,94.5c-21.5,0-38.8-17.4-38.8-38.8c0-21.5,17.4-38.8,38.8-38.8c21.5,0,38.8,17.4,38.8,38.8
			C220.2,77.1,202.8,94.5,181.4,94.5z"/>
		<path class="st1" d="M243.8,94.5c-21.5,0-38.8-17.4-38.8-38.8c0-21.5,17.4-38.8,38.8-38.8c21.5,0,38.8,17.4,38.8,38.8
			C282.6,77.1,265.2,94.5,243.8,94.5z"/>
		
			<ellipse transform="matrix(0.6468 -0.7626 0.7626 0.6468 -22.4786 62.7695)" class="st1" cx="56.5" cy="55.7" rx="50.4" ry="50.4"/>
		
			<ellipse transform="matrix(0.5496 -0.8354 0.8354 0.5496 7.0767 124.4352)" class="st1" cx="118.9" cy="55.7" rx="50.4" ry="50.4"/>
		
			<ellipse transform="matrix(0.5605 -0.8282 0.8282 0.5605 33.6202 174.6567)" class="st1" cx="181.4" cy="55.7" rx="50.4" ry="50.4"/>
		
			<ellipse transform="matrix(0.9992 -4.018160e-02 4.018160e-02 0.9992 -2.0394 9.8399)" class="st1" cx="243.8" cy="55.7" rx="50.4" ry="50.4"/>
	</g>
	<g>
		<g>
			<g>
				<linearGradient id="SVGID_1_" gradientUnits="userSpaceOnUse" x1="274.3467" y1="86.233" x2="213.1889" y2="25.0752">
					<stop  offset="5.000000e-02" style="stop-color:#FFFFFF"/>
					<stop  offset="0.1038" style="stop-color:#ECEDEE"/>
					<stop  offset="0.2717" style="stop-color:#C1C3C5"/>
					<stop  offset="0.4366" style="stop-color:#9EA0A2"/>
					<stop  offset="0.5951" style="stop-color:#848689"/>
					<stop  offset="0.7453" style="stop-color:#727476"/>
					<stop  offset="0.884" style="stop-color:#67686B"/>
					<stop  offset="1" style="stop-color:#636466"/>
				</linearGradient>
				<path class="st2" d="M243.8,94.5c-21.5,0-38.8-17.4-38.8-38.8c0-21.5,17.4-38.8,38.8-38.8c21.5,0,38.8,17.4,38.8,38.8
					C282.6,77.1,265.2,94.5,243.8,94.5z M287,55.7c0-23.9-19.4-43.2-43.2-43.2c-23.9,0-43.2,19.4-43.2,43.2
					c0,23.9,19.4,43.2,43.2,43.2C267.7,98.9,287,79.5,287,55.7z"/>
				
					<linearGradient id="SVGID_00000098926433395525205140000001736568301021500294_" gradientUnits="userSpaceOnUse" x1="208.1425" y1="20.0289" x2="279.3936" y2="91.28">
					<stop  offset="5.000000e-02" style="stop-color:#FFFFFF"/>
					<stop  offset="0.1038" style="stop-color:#ECEDEE"/>
					<stop  offset="0.2717" style="stop-color:#C1C3C5"/>
					<stop  offset="0.4366" style="stop-color:#9EA0A2"/>
					<stop  offset="0.5951" style="stop-color:#848689"/>
					<stop  offset="0.7453" style="stop-color:#727476"/>
					<stop  offset="0.884" style="stop-color:#67686B"/>
					<stop  offset="1" style="stop-color:#636466"/>
				</linearGradient>
				<path style="fill:url(#SVGID_00000098926433395525205140000001736568301021500294_);" d="M243.8,106
					c-27.8,0-50.4-22.6-50.4-50.4s22.6-50.4,50.4-50.4c27.8,0,50.4,22.6,50.4,50.4S271.6,106,243.8,106z M288.6,55.7
					c0-24.8-20.1-44.8-44.8-44.8c-24.8,0-44.8,20.1-44.8,44.8c0,24.8,20.1,44.8,44.8,44.8C268.5,100.5,288.6,80.4,288.6,55.7z"/>
			</g>
			<path class="st4" d="M243.8,10.8c-24.8,0-44.8,20.1-44.8,44.8c0,24.8,20.1,44.8,44.8,44.8c24.8,0,44.8-20.1,44.8-44.8
				C288.6,30.9,268.5,10.8,243.8,10.8z M243.8,98.9c-23.9,0-43.2-19.4-43.2-43.2c0-23.9,19.4-43.2,43.2-43.2
				c23.9,0,43.2,19.4,43.2,43.2C287,79.5,267.7,98.9,243.8,98.9z"/>
		</g>
		<g>
			<g>
				
					<linearGradient id="SVGID_00000032629715759924143260000015392320341455308218_" gradientUnits="userSpaceOnUse" x1="87.1103" y1="86.233" x2="25.9527" y2="25.0753">
					<stop  offset="5.000000e-02" style="stop-color:#FFFFFF"/>
					<stop  offset="0.1038" style="stop-color:#ECEDEE"/>
					<stop  offset="0.2717" style="stop-color:#C1C3C5"/>
					<stop  offset="0.4366" style="stop-color:#9EA0A2"/>
					<stop  offset="0.5951" style="stop-color:#848689"/>
					<stop  offset="0.7453" style="stop-color:#727476"/>
					<stop  offset="0.884" style="stop-color:#67686B"/>
					<stop  offset="1" style="stop-color:#636466"/>
				</linearGradient>
				<path style="fill:url(#SVGID_00000032629715759924143260000015392320341455308218_);" d="M56.5,94.5
					c-21.5,0-38.8-17.4-38.8-38.8c0-21.5,17.4-38.8,38.8-38.8c21.5,0,38.8,17.4,38.8,38.8C95.4,77.1,78,94.5,56.5,94.5z M99.8,55.7
					c0-23.9-19.4-43.2-43.2-43.2c-23.9,0-43.2,19.4-43.2,43.2c0,23.9,19.4,43.2,43.2,43.2C80.4,98.9,99.8,79.5,99.8,55.7z"/>
				
					<linearGradient id="SVGID_00000078767720270869809160000000956465579897920399_" gradientUnits="userSpaceOnUse" x1="20.9063" y1="20.029" x2="92.1572" y2="91.2799">
					<stop  offset="5.000000e-02" style="stop-color:#FFFFFF"/>
					<stop  offset="0.1038" style="stop-color:#ECEDEE"/>
					<stop  offset="0.2717" style="stop-color:#C1C3C5"/>
					<stop  offset="0.4366" style="stop-color:#9EA0A2"/>
					<stop  offset="0.5951" style="stop-color:#848689"/>
					<stop  offset="0.7453" style="stop-color:#727476"/>
					<stop  offset="0.884" style="stop-color:#67686B"/>
					<stop  offset="1" style="stop-color:#636466"/>
				</linearGradient>
				<path style="fill:url(#SVGID_00000078767720270869809160000000956465579897920399_);" d="M56.5,106C28.7,106,6.1,83.5,6.1,55.7
					S28.7,5.3,56.5,5.3c27.8,0,50.4,22.6,50.4,50.4S84.4,106,56.5,106z M101.4,55.7c0-24.8-20.1-44.8-44.8-44.8
					c-24.8,0-44.8,20.1-44.8,44.8c0,24.8,20.1,44.8,44.8,44.8C81.3,100.5,101.4,80.4,101.4,55.7z"/>
			</g>
			<path class="st4" d="M56.5,10.8c-24.8,0-44.8,20.1-44.8,44.8c0,24.8,20.1,44.8,44.8,44.8c24.8,0,44.8-20.1,44.8-44.8
				C101.4,30.9,81.3,10.8,56.5,10.8z M56.5,98.9c-23.9,0-43.2-19.4-43.2-43.2c0-23.9,19.4-43.2,43.2-43.2
				c23.9,0,43.2,19.4,43.2,43.2C99.8,79.5,80.4,98.9,56.5,98.9z"/>
		</g>
		<g>
			<g>
				
					<linearGradient id="SVGID_00000127005582786102557800000000797339575454490538_" gradientUnits="userSpaceOnUse" x1="149.5185" y1="86.2299" x2="88.3682" y2="25.0795">
					<stop  offset="5.000000e-02" style="stop-color:#FFFFFF"/>
					<stop  offset="0.1038" style="stop-color:#ECEDEE"/>
					<stop  offset="0.2717" style="stop-color:#C1C3C5"/>
					<stop  offset="0.4366" style="stop-color:#9EA0A2"/>
					<stop  offset="0.5951" style="stop-color:#848689"/>
					<stop  offset="0.7453" style="stop-color:#727476"/>
					<stop  offset="0.884" style="stop-color:#67686B"/>
					<stop  offset="1" style="stop-color:#636466"/>
				</linearGradient>
				<path style="fill:url(#SVGID_00000127005582786102557800000000797339575454490538_);" d="M141.9,87c-6.4,4.7-14.4,7.5-23,7.5
					c-8.6,0-16.5-2.8-23-7.5l-7.1-0.3c7.8,7.5,18.4,12.2,30.1,12.2c11.7,0,22.3-4.6,30.1-12.2L141.9,87z M150.1,32.5
					c4.8,6.5,7.6,14.5,7.6,23.1c0,8.7-2.8,16.7-7.6,23.1l0,6.8c7.4-7.8,12-18.3,12-29.9c0-11.6-4.6-22.2-12-29.9V32.5z M149,24.6
					c-7.8-7.5-18.4-12.2-30.1-12.2c-11.7,0-22.3,4.6-30.1,12.2l7.1-0.3c6.4-4.7,14.4-7.5,23-7.5c8.6,0,16.5,2.8,23,7.5L149,24.6z
					 M87.7,78.8c-4.8-6.5-7.6-14.5-7.6-23.1c0-8.7,2.8-16.7,7.6-23.1l0-6.8c-7.5,7.8-12,18.3-12,29.9c0,11.6,4.6,22.1,12,29.9
					L87.7,78.8z"/>
				
					<linearGradient id="SVGID_00000148631526650151511880000005211027082384244354_" gradientUnits="userSpaceOnUse" x1="83.5492" y1="20.2598" x2="154.3385" y2="91.0491">
					<stop  offset="5.000000e-02" style="stop-color:#FFFFFF"/>
					<stop  offset="0.1038" style="stop-color:#ECEDEE"/>
					<stop  offset="0.2717" style="stop-color:#C1C3C5"/>
					<stop  offset="0.4366" style="stop-color:#9EA0A2"/>
					<stop  offset="0.5951" style="stop-color:#848689"/>
					<stop  offset="0.7453" style="stop-color:#727476"/>
					<stop  offset="0.884" style="stop-color:#67686B"/>
					<stop  offset="1" style="stop-color:#636466"/>
				</linearGradient>
				<path style="fill:url(#SVGID_00000148631526650151511880000005211027082384244354_);" d="M150.2,23.4
					c-8.1-7.8-19.1-12.6-31.2-12.6c-12.1,0-23.1,4.8-31.2,12.6l0-7.3c8.6-6.8,19.4-10.8,31.2-10.8c11.8,0,22.6,4,31.2,10.8
					L150.2,23.4z M150.2,95.2c-8.6,6.8-19.4,10.8-31.2,10.8c-11.8,0-22.6-4-31.2-10.8l0-7.4c8.1,7.8,19.1,12.6,31.2,12.6
					c12.1,0,23.1-4.8,31.2-12.6V95.2z M158.4,24.3c6.8,8.6,10.9,19.5,10.9,31.3c0,11.8-4.1,22.7-10.9,31.3l-7.1-0.3
					c7.7-8.1,12.5-19,12.5-31.1c0-12.1-4.8-23-12.5-31.1L158.4,24.3z M79.5,87c-6.8-8.6-10.9-19.5-10.9-31.3
					c0-11.8,4.1-22.7,10.9-31.3l7.1,0.3c-7.7,8.1-12.5,19-12.5,31.1c0,12.1,4.8,23,12.5,31.1L79.5,87z"/>
			</g>
			<path class="st4" d="M118.9,10.8c-24.8,0-44.8,20.1-44.8,44.8c0,24.8,20.1,44.8,44.8,44.8c24.8,0,44.8-20.1,44.8-44.8
				C163.8,30.9,143.7,10.8,118.9,10.8z M118.9,98.9c-23.9,0-43.2-19.4-43.2-43.2c0-23.9,19.4-43.2,43.2-43.2
				c23.9,0,43.2,19.4,43.2,43.2C162.2,79.5,142.8,98.9,118.9,98.9z"/>
		</g>
		<g>
			<g>
				
					<linearGradient id="SVGID_00000053517588483231421100000007496760373194188169_" gradientUnits="userSpaceOnUse" x1="211.9306" y1="86.2299" x2="150.7805" y2="25.0798">
					<stop  offset="5.000000e-02" style="stop-color:#FFFFFF"/>
					<stop  offset="0.1038" style="stop-color:#ECEDEE"/>
					<stop  offset="0.2717" style="stop-color:#C1C3C5"/>
					<stop  offset="0.4366" style="stop-color:#9EA0A2"/>
					<stop  offset="0.5951" style="stop-color:#848689"/>
					<stop  offset="0.7453" style="stop-color:#727476"/>
					<stop  offset="0.884" style="stop-color:#67686B"/>
					<stop  offset="1" style="stop-color:#636466"/>
				</linearGradient>
				<path style="fill:url(#SVGID_00000053517588483231421100000007496760373194188169_);" d="M204.3,87c-6.4,4.7-14.4,7.5-23,7.5
					c-8.6,0-16.5-2.8-23-7.5l-7.1-0.3c7.8,7.5,18.4,12.2,30.1,12.2c11.7,0,22.3-4.6,30.1-12.2L204.3,87z M212.6,32.5
					c4.8,6.5,7.6,14.5,7.6,23.1c0,8.7-2.8,16.7-7.6,23.1l0,6.8c7.4-7.8,12-18.3,12-29.9c0-11.6-4.6-22.2-12-29.9V32.5z M211.4,24.6
					c-7.8-7.5-18.4-12.2-30.1-12.2c-11.7,0-22.3,4.6-30.1,12.2l7.1-0.3c6.4-4.7,14.4-7.5,23-7.5c8.6,0,16.5,2.8,23,7.5L211.4,24.6z
					 M150.1,78.8c-4.8-6.5-7.6-14.5-7.6-23.1c0-8.7,2.8-16.7,7.6-23.1v-6.8c-7.5,7.8-12,18.3-12,29.9c0,11.6,4.6,22.1,12,29.9
					L150.1,78.8z"/>
				
					<linearGradient id="SVGID_00000043432447816970254520000005847563915657046938_" gradientUnits="userSpaceOnUse" x1="145.9613" y1="20.2598" x2="216.7506" y2="91.0491">
					<stop  offset="5.000000e-02" style="stop-color:#FFFFFF"/>
					<stop  offset="0.1038" style="stop-color:#ECEDEE"/>
					<stop  offset="0.2717" style="stop-color:#C1C3C5"/>
					<stop  offset="0.4366" style="stop-color:#9EA0A2"/>
					<stop  offset="0.5951" style="stop-color:#848689"/>
					<stop  offset="0.7453" style="stop-color:#727476"/>
					<stop  offset="0.884" style="stop-color:#67686B"/>
					<stop  offset="1" style="stop-color:#636466"/>
				</linearGradient>
				<path style="fill:url(#SVGID_00000043432447816970254520000005847563915657046938_);" d="M212.6,23.4
					c-8.1-7.8-19.1-12.6-31.2-12.6c-12.1,0-23.1,4.8-31.2,12.6v-7.3c8.6-6.8,19.4-10.8,31.2-10.8c11.8,0,22.6,4,31.2,10.8
					L212.6,23.4z M212.6,95.2C204,102,193.1,106,181.4,106c-11.8,0-22.6-4-31.2-10.8l0-7.4c8.1,7.8,19.1,12.6,31.2,12.6
					s23.1-4.8,31.2-12.6V95.2z M220.8,24.3c6.8,8.6,10.9,19.5,10.9,31.3c0,11.8-4.1,22.7-10.9,31.3l-7.1-0.3
					c7.7-8.1,12.5-19,12.5-31.1c0-12.1-4.8-23-12.5-31.1L220.8,24.3z M141.9,87c-6.8-8.6-10.9-19.5-10.9-31.3
					c0-11.8,4.1-22.7,10.9-31.3l7.1,0.3c-7.7,8.1-12.5,19-12.5,31.1c0,12.1,4.8,23,12.5,31.1L141.9,87z"/>
			</g>
			<path class="st4" d="M181.4,10.8c-24.8,0-44.8,20.1-44.8,44.8c0,24.8,20.1,44.8,44.8,44.8c24.8,0,44.8-20.1,44.8-44.8
				C226.2,30.9,206.1,10.8,181.4,10.8z M181.4,98.9c-23.9,0-43.2-19.4-43.2-43.2c0-23.9,19.4-43.2,43.2-43.2s43.2,19.4,43.2,43.2
				C224.6,79.5,205.2,98.9,181.4,98.9z"/>
		</g>
	</g>
</g>
</svg>
