<?xml version="1.0" encoding="utf-8"?>
<!-- Generator: Adobe Illustrator 27.0.0, SVG Export Plug-In . SVG Version: 6.00 Build 0)  -->
<svg version="1.1" id="Layer_1" xmlns="http://www.w3.org/2000/svg" xmlns:xlink="http://www.w3.org/1999/xlink" x="0px" y="0px"
	 viewBox="0 0 2025.46 1610.7" style="enable-background:new 0 0 2025.46 1610.7;" xml:space="preserve">
<style type="text/css">
	.st0{fill:#FFFFFF;}
	.st1{fill:#F48220;}
	.st2{fill:#055979;}
	.st3{fill:#078D96;}
</style>
<g>
	<path class="st0" d="M1565.27,459.32c-1.87,1.42-4.12,4.11-6.51,7.47c-9.36,13.18-20.87,36.9-20.87,36.9
		c17.3-25.63,71.84-47.27,104.09-58.24c-0.35-0.49-0.63-0.97-0.86-1.45c-0.04-0.06-0.05-0.11-0.08-0.17
		c-1.66-3.64-0.19-7.35,1.53-10C1590.67,430.02,1565.27,459.32,1565.27,459.32"/>
	<path class="st1" d="M1617.32,1064.53c-11.04,22.38,17.65,91.57,43.86,112.14c-19.18-5.75-119.43-34.28-135.51,2.81
		c-17.69,40.8,80.3,190.41,91.42,218.37c-45.17-44.82-168.89-145.29-186.42-133.79c-17.54,11.48-13.22,67.49-8.66,95.96
		c-16.99-20.7-46.15-53.87-71.36-43.95c-25.18,9.93-22.08,106.08-23.71,147.04c-20.79-48.19-54.72-145.21-86.12-141.66
		c-31.43,3.53-66.66,69.56-73.36,94.78c-4.81-25.26-25.35-80.79-56.43-80.79c-31.11,0-103.38,146.97-125.24,194.73
		c-0.09-36.96,8.77-217.25-10.82-226.2c-19.61-8.94-85.72,32.15-99.93,50.84c5.27-23.67,9.75-103.73-7.89-113.41
		c-17.64-9.7-67.93-12.72-158.84,71.33c15.09-32.25,39.95-67.35,45.97-101.36c37.66-1.95,74.93-6.23,112.53-13.57
		c82.02,59.37,182.87,94.4,291.89,94.4c275.32,0,498.49-223.17,498.49-498.48c0-21.57-1.39-42.82-4.04-63.64
		c18.48-17.39,36.18-34.22,52.66-49.92c-3.77,9.01-5.85,19.9-5.51,33.33c1.08,42.02,109.95,50.99,167.82,55.67
		c-64.63,8.76-177.56,55.53-156.1,80.63c21.45,25.09,84.01,59.57,92.89,63.92c-29.81,0-127.81,10.14-138.76,37.92
		c-10.98,27.8,141.81,120.91,197.75,142.8C1794.32,1074.84,1628.35,1042.15,1617.32,1064.53"/>
	<path class="st1" d="M1532.95,348.08c-32.59,6.39-66.23,15.76-101,28.71c-78.47-51.54-172.37-81.55-273.27-81.55
		c-275.29,0-498.47,223.18-498.47,498.45c0,66.29,12.95,129.51,36.44,187.34c-28.37,21.01-55.54,37.69-83.38,50.54
		c20.36-24.24,38.04-70.83,15.05-83.26c-15.71-8.5-88.74-11.88-88.74-11.88s82.24-55.27,80.31-95.24
		c-1.9-39.93-133.05-60.42-184.91-71.9c45.75-9.63,193.91-43.11,200.27-72.93c6.4-29.78-46.3-50.93-68.43-61.34
		c24.8,0.33,87.7,10.85,96.18-19.85c9.71-35.21-145.19-126.93-180.5-139.63c7.89,1.86,155.43,36.29,209.36,24.61
		c40.15-8.7-6.64-62.73-14.37-69.12c11.85,5.77,79.49,19.71,98.85-12.39c19.35-32.12-46.34-159.99-83.12-214.18
		c32.68,32.56,181.8,138.68,204.06,120.62c22.25-18.06,5.24-76.38-6.69-95.63c24.04,22.5,47.7,52.57,78.24,51.93
		c15.29-0.31,34.54-50.88,37.71-165.18c20.69,64.04,70.1,151.08,106.38,145.8c36.32-5.27,48.72-59.17,53.75-82.13
		c4.17,24.64,23.24,87.99,47.47,90.31c29.71,4.65,86.58-127.64,107.29-187.41c3.12,29.52-18.53,181.13,13.52,193.73
		c32.02,12.63,84.98-51.21,115.02-86.97c-18.22,34.6-53.86,118.29-32.65,138.32c21.23,20.04,94.6-0.97,123.18-24.53
		C1532.49,320.88,1530.79,334.89,1532.95,348.08"/>
	<path class="st0" d="M1069.62,931.85c-2.77,13.2-12.66,57.31-31.26,103.49c-65.87,34.95-171.16,79.75-266.41,102.07
		c-187.57,43.99-307.69,5.84-328.27-0.89l-2.93-0.95c4.59,1.01,50.16,2.98,50.16,2.98c9.85,0.21,137.89,5.23,278.48-47.53
		C884.32,1049.06,997.33,980.52,1069.62,931.85"/>
	<path class="st0" d="M2025.39,391.84c-0.33-7.56-1.76-12.06-1.76-12.06l-0.04-0.04c-9.2-32.14-42.02-52.01-86.74-52.01
		c-4.75,0-9.57,0.25-14.37,0.72c-34.26,3.41-95.17,24.03-113.24,30.35c-56.8-14.36-110.02-21.33-162.55-21.33
		c-27.15,0-54.16,1.91-81.1,5.68l0.03-0.02l-11.09,1.49c0,0-4.34-14.05,6.97-46.9c5.86-17.02,13.9-32.69,13.9-32.69
		s-123.64,64.28-139.08,43.76c-15.45-20.52,53.7-183.62,53.7-183.62s-119.2,132.45-142.62,126.58
		c-9.18-2.3-10.05-50.27-10.51-101.91C1336.26,79.96,1338.72,0,1338.72,0s-98.18,244.04-122.13,242.75
		c-20.76-1.1-50.98-131.34-50.98-131.34s-18.94,112.23-53.01,125.96C1078.52,251.1,990.9,41.2,990.9,41.2s-4.06,210.11-28.42,214.82
		c-24.39,4.7-101.98-73.81-101.98-73.81s36.37,104.64,24.06,118.43c-7.36,8.24-81.99-37.92-159.66-93.62
		c-44.85-32.17-82.36-59.14-82.36-59.14s43.76,72.69,78.56,148.66c23.95,52.31,38.5,102.51,32.22,112.28
		c-15.36,23.96-130.62-10.19-130.62-10.19s65.53,63.11,61.28,79.36c-2.03,7.9-67.18,2.2-133.4-6.85
		c-70.22-9.6-141.69-22.84-141.69-22.84s233.89,135.98,226.54,160.44c-5.8,19.38-151.35,3.5-151.35,3.5s126.55,57.83,126.03,76.93
		c-0.51,19.11-247.71,81.66-247.71,81.66s223.9,46.83,228.16,71.8c4.29,24.97-88.3,105.08-88.3,105.08s107.79,9.74,113.14,23.86
		c5.35,14.11-26.19,69.87-53.59,78.71c-33.81,10.91-64.64,17.85-102.15,17.85c-5.39,0-10.67-0.14-15.83-0.43
		c1.86-2.39,3.69-4.87,5.3-7.23c9.21-13.49,16.09-27.94,19.82-41.73l0.05-0.14l0.04-0.14c1.91-7.56,2.9-15.12,2.94-22.41l0.01-0.3
		l-0.02-0.32c-0.25-8.3-2.96-15.36-7.85-20.19c-9.15-7.98-17.7-7.02-23.83-4.3l-21.28,10.43c-1.58,0.69-3.37,1.37-5.53,2.02
		c-4.06,1.21-12.64,2.67-30.43,2.67c-16.87,0-36.93-1.26-56.33-2.47c0,0-11.93-0.66-14.23-0.66c-23.15,0-38.6,7.37-47.93,14.12
		l-5.06-2.66c-47.36-25.16-102.47-35.34-136.88-41.69c-2.69-0.5-5.24-0.96-7.64-1.42c-38.01-7.45-58.82-30.01-60.51-31.85
		c-3.22-3.48-7.41-7.98-12.88-11.14c0,0-9.9-6.18-24.55-1.66c-9.56,3.36-13.61,10.8-13.61,10.8c-8.21,13.63-0.38,33.62,9.94,56.18
		c11.73,25.62,48.52,89.59,136.55,130.45c28.83,13.38,66.74,22.9,112.71,28.31c34.6,4.06,63.82,4.58,75.45,4.59
		c11.2,5.46,45.71,21.4,97,37.43c56.31,17.61,144.3,38.53,245.13,39.02c0,0,35.78,0.44,55.09-0.79
		c1.95,8.06-12.02,36.84-28.82,70.61c-19.89,40-45.43,87.3-45.43,87.3s46.13-40.75,89.11-70.98
		c43.28-30.41,91.75-54.85,103.21-40.78c21.64,26.62-1.46,136.45-1.46,136.45s87.41-77.36,107.69-66.88
		c9.28,4.8,10.21,62.61,10.25,123.48c0.04,72.15-1.82,148.78-1.82,148.78s120.4-243.63,145.47-236.66
		c25.03,6.94,52.45,118.04,52.45,118.04s45.75-135.34,73.71-132.06c11.17-1.37,35.18,42.53,56.52,87.39
		c23.38,49.17,43.42,97.25,43.42,97.25s0.49-50.26,3.99-101.59c3.18-46.41,9.06-91.69,19.26-94.2c21.49-5.28,83.8,78.24,83.8,78.24
		s-22.04-116.42-4.77-126.29c17.26-9.85,224.66,169.46,224.66,169.46s-136.11-252.2-119.56-271.46
		c16.55-19.26,161.92,20.04,161.92,20.04s-21.66-25.57-40.19-54.48c-19.36-30.2-35.51-63.98-27.92-72.09
		c6.89-7.38,82.66,0.3,160.97,15.49c90.29,17.51,149.03,29.99,149.03,29.99s-53.19-28.77-131.61-75.96
		c-67.91-40.84-127.62-86.83-125.08-94.28c5.5-16.09,167.65-31.51,167.65-31.51s-27.22-16.01-56.46-33.9
		c-31.73-19.4-65.64-43.57-65.64-52.43c0-7.73,40.66-26.9,94.28-43.4c64.3-19.76,123.78-33.03,123.78-33.03
		s-221.07-17.75-234.89-49.25c-9.41-21.54,7.91-49.62,20.6-67.74c12.68-18.13,30.85-34.59,30.85-34.59
		c60.41-55.77,137.28-107.1,161.84-122.22c1.72-1.07,3.39-2.11,5.09-3.17c0,0,56.71-41.86,62.52-46.77
		c5.08-4.25,18.06-17.85,20.96-35.18C2024.7,404.24,2025.72,399.47,2025.39,391.84 M628.31,948.32
		c-15.7-8.5-88.74-11.88-88.74-11.88s82.24-55.27,80.33-95.24c-1.91-39.94-133.07-60.41-184.92-71.9
		c45.75-9.65,193.9-43.11,200.28-72.93c6.38-29.78-46.31-50.94-68.45-61.34c24.81,0.33,87.71,10.87,96.19-19.85
		c9.71-35.2-145.19-126.92-180.5-139.63c7.9,1.86,155.42,36.3,209.35,24.62c40.16-8.7-6.64-62.73-14.36-69.12
		c11.85,5.78,79.47,19.71,98.86-12.39c19.34-32.12-46.36-159.99-83.12-214.19c32.65,32.58,181.79,138.69,204.05,120.63
		c22.25-18.06,5.24-76.39-6.69-95.63c24.04,22.49,47.69,52.56,78.23,51.93c15.31-0.31,34.56-50.88,37.73-165.18
		c20.68,64.04,70.09,151.08,106.38,145.79c36.31-5.26,48.72-59.16,53.74-82.12c4.17,24.64,23.24,87.99,47.46,90.31
		c29.72,4.65,86.6-127.64,107.3-187.41c3.12,29.52-18.53,181.13,13.52,193.74c32.01,12.62,84.98-51.21,115.02-86.98
		c-18.22,34.6-53.85,118.3-32.65,138.32c21.23,20.04,94.58-0.95,123.18-24.54c-8.01,17.54-9.72,31.56-7.53,44.75
		c-32.6,6.39-66.24,15.77-101.01,28.71c-78.49-51.54-172.37-81.54-273.27-81.54c-275.3,0-498.47,223.17-498.47,498.46
		c0,66.26,12.95,129.49,36.44,187.32c-28.36,21.01-55.53,37.68-83.37,50.54C633.64,1007.33,651.31,960.75,628.31,948.32
		 M318.45,1000.55c38.15,2.34,80.31,5.45,100.03-0.46c16.96-5.09,20.18-12.49,27.45-13.44h0.03c1.15-0.18,8.27-1.77,8.61,9.33
		c-0.03,5.97-0.84,12.02-2.41,18.2c-2.87,10.57-8.44,23.34-17.44,36.52c-5.46,8.05-14.45,18.2-14.57,18.32
		c-1.48,0.09-8.41,0.38-14.25-0.19c-5.87-0.6-12.11-1.64-14.68-2.12c-47.82-9.19-103.79-41.75-121.15-51.63
		C276.01,1009.28,290.67,998.84,318.45,1000.55 M1868.11,769.15c-64.63,8.77-177.56,55.54-156.11,80.64
		c21.46,25.09,84.02,59.57,92.9,63.92c-29.81,0-127.81,10.14-138.76,37.92c-10.98,27.8,141.81,120.91,197.75,142.8
		c-69.59-19.6-235.54-52.28-246.58-29.9c-11.03,22.38,17.64,91.57,43.87,112.14c-19.2-5.75-119.45-34.27-135.52,2.81
		c-17.68,40.8,80.3,190.4,91.41,218.37c-45.17-44.82-168.88-145.3-186.41-133.79c-17.54,11.48-13.22,67.5-8.66,95.96
		c-16.99-20.7-46.15-53.87-71.36-43.95c-25.19,9.93-22.08,106.08-23.7,147.06c-20.8-48.2-54.73-145.22-86.13-141.67
		c-31.43,3.53-66.66,69.56-73.36,94.78c-4.81-25.26-25.35-80.79-56.43-80.79c-31.11,0-103.38,146.97-125.23,194.73
		c-0.1-36.96,8.76-217.25-10.83-226.2c-19.61-8.94-85.72,32.16-99.93,50.85c5.27-23.68,9.75-103.74-7.89-113.42
		c-17.65-9.7-67.93-12.72-158.85,71.32c15.1-32.24,39.95-67.34,45.99-101.35c37.65-1.94,74.92-6.22,112.52-13.56
		c82.02,59.36,182.87,94.39,291.89,94.39c275.31,0,498.49-223.17,498.49-498.47c0-21.58-1.39-42.83-4.04-63.65
		c18.48-17.39,36.18-34.22,52.65-49.94c-3.76,9.04-5.85,19.92-5.5,33.33C1701.35,755.51,1810.25,764.48,1868.11,769.15
		 M2007.49,386.83c-17.73-27.82-186.18,28.13-234.08,47.39c-13.01,5.27-93.16,41.41-175.1,88.18
		c-55.45,31.64-111.65,68.12-148.31,103.11c-71.04,66.38-95.34,143.93-165.71,249.87l-1.77,2.76
		c237.1-179.81,420.31-388.05,609.71-454.58c6.03-2.11,11.76-4.09,17.24-5.95c0.23-0.08,0.46-0.15,0.67-0.22
		c64.47-21.82,90.53-25.2,92.42-13.06c0.84,5.27-3.4,13.14-4.99,16.04c0,0-3.11,4.6-13.5,13.68c-10.37,9.09-28.02,22.63-57.07,40.5
		c-27.82,17.1-105.33,69.51-164.83,124.52c-2.22,2.05-161.33,152.2-165.3,155.91c-0.43,1.39-21.08,78.26-70.37,178.24
		c-34.54,70.05-86.1,113.82-104.38,123.84c-1.18,0.6-11.78,7.33-18.9,2.8c-3.69-2.23-5.09-6.92-5.2-11.78
		c-0.17-8.64,18.81-53.24,26.26-147.1c0,0.1-51.55,37.93-80.71,57.35c-16.31,10.82-91.07,57.4-136.4,82.14
		c-38.5,21.01-119.12,59.23-119.38,59.33c-41.99,35.45-74.87,52.01-83.68,49.79c-5.39-1.33-7.25-7.69-7.35-8.02
		c-0.58-1.85-0.75-3.3-0.75-3.3c-152.91,59.73-277.62,56.92-278.08,56.96c-210.3,9.96-375.76-75.66-375.8-75.68
		c-0.42,0-1.59,0.02-3.36,0.02c-19.74,0-117.39-1.51-181.52-31.29c-70.13-32.54-110.48-83.54-128.05-121.89
		c-13.07-28.56-13.71-37.69-9.56-41.45c1.42-1.35,3.4-2.04,5.66-2.68c8.83-2.49,14.78,8.58,22.53,15.18
		c7.74,6.59,27.62,24.15,63.92,30.98c36.32,6.82,104.02,17.64,155.08,50.34c42.05,25.27,147.1,111,333.52,38.02
		c85.93-33.62,162.7-100.89,276.79-213.77c18.55-18.32,36.94-37.56,55.66-57.42c-2.69-13.38-9.99-37.6-26.1-47.61
		c-24.98-15.61-62.88-16.22-87.87-14.39c-25.02,1.85-38.2,5.27-46.74-1.56c-3.06-2.46-3.59-6.34-2.83-9.97
		c0.79-3.71,2.47-7.2,4.48-10.42c0.52-0.85,1.05-1.68,1.63-2.5c4.17-5.8,7.21-8.98,11.18-12.64
		c13.15-12.15,60.07-43.59,160.35-56.78c63.86-8.39,86.2-6.81,116.96-12.88c13.55-2.4,27.91-5.95,46.53-11.93
		c27.38-24.8,56.74-49.5,88.67-73.77c31.96-24.27,66.49-48.06,104.3-71.08c202.5-123.24,367.58-119.16,506.68-83.07
		c0,0,76.17-27.43,114.18-31.19C1961.69,342.05,2000.11,354.79,2007.49,386.83"/>
	<g>
		<path class="st2" d="M1750.67,404.79c-15.28,3.68-52.91,4.85-68.98,4.85c-16.04,0-38.74-2.38-73.6,12.84
			c-24.98,10.91-41.81,32.78-49.32,44.31c2.37-3.36,4.62-6.05,6.5-7.47c0,0,25.4-29.3,77.29-25.49c-1.72,2.64-3.2,6.35-1.53,9.99
			c0.02,0.06,0.05,0.12,0.08,0.17c0.24,0.49,0.51,0.97,0.86,1.46c0.09,0.11,0.16,0.23,0.26,0.36c0,0,18.59-5.97,31.75-9.94
			c28.54-7.11,46.25-11.92,65.5-19.8c26.32-10.79,34.71-15.57,33.84-17.61C1772.48,396.42,1765.97,401.1,1750.67,404.79"/>
		<path class="st3" d="M1924.22,345.8c-38.01,3.76-114.19,31.19-114.19,31.19c-139.09-36.11-304.17-40.17-506.67,83.07
			c-37.8,23.02-72.34,46.81-104.31,71.09c-31.92,24.27-61.27,48.96-88.65,73.76c-11.85,10.68-27.04,24.39-40.03,37.52
			c-65.72,21.92-94.91,1.44-185.21,13.3c-71.46,9.41-99.22,33.79-114.96,52.95c-2.03,5.52-1.82,10.37,1.89,13.34
			c8.53,6.84,21.72,3.41,46.74,1.56c25-1.82,62.88-1.22,87.87,14.39c16.11,10.02,23.41,34.23,26.1,47.61
			c-18.72,19.86-37.11,39.1-55.66,57.42c-114.09,112.86-190.86,180.15-276.79,213.77c-186.42,72.98-291.45-12.73-333.53-38.02
			l-0.02,0.05c-51.02-32.75-118.73-43.56-155.04-50.39c-36.32-6.83-56.17-24.38-63.92-30.98c-7.75-6.6-13.72-17.67-22.54-15.19
			c-2.26,0.64-4.24,1.34-5.65,2.69c1.41-1.32,3.39-2.01,5.65-2.65c1.37,15.75,54.25,147.26,222.25,171.13
			c48.02,6.83,63.29,4.69,72.26,4.03c-28.24-24.83-51.52-59.47-53.5-61.49c6.42,5.58,12.82,10.89,19.25,15.98
			c50.14,53.53,107.11,75.61,154.98,83.58c3.14,0.99,50.38,3.03,50.38,3.03c55.1-1.18,129.06-17.34,197.71-37.27
			c201.56-58.49,396-233.16,396-233.16s-10.8,47.08-15.01,63.75c-2.77,13.19-12.65,57.3-31.27,103.5c0,0.02-5.58,13.93-13.68,30.97
			c-11.96,25.2-28.76,56.94-28.76,70.18c0,0.65,0.02,1.24,0.1,1.75c0,0,0.15,1.45,0.74,3.31c15.15-8.04,35.75-21.98,59.18-41.75
			c36.7-30.59,83.2-77.15,137.02-143.54c120.95-149.19,140.16-251.31,225.19-330.76c36-33.68,130.61-85.69,179.08-102.58
			c0.53-0.3,0.93-0.47,1.08-0.53c0.03,0,0.03-0.03,0.05,0l0.04-0.03c81.85-46.73,162.01-82.88,175.01-88.15
			c47.9-19.26,216.36-75.21,234.09-47.38h0.03C2000.1,354.79,1961.69,342.05,1924.22,345.8 M1739.49,416.07
			c-19.26,7.89-36.95,12.71-65.51,19.8c-13.15,3.96-31.76,9.95-31.76,9.95c-0.08-0.12-0.14-0.26-0.22-0.37
			c-32.24,10.96-86.73,32.6-104.08,58.19c0.69-1.42,11.76-24.09,20.85-36.85c7.51-11.54,24.32-33.4,49.31-44.31
			c34.86-15.21,57.57-12.84,73.62-12.84s53.68-1.16,68.97-4.83c15.3-3.69,21.81-8.4,22.66-6.35
			C1774.22,400.52,1765.8,405.26,1739.49,416.07"/>
		<path class="st2" d="M1084.62,868.12c0,0-10.78,47.09-15.01,63.76c-72.29,48.65-185.28,117.17-300.22,159.15
			c-140.6,52.75-268.64,47.72-278.47,47.52c55.1-1.18,129.05-17.36,197.72-37.27C890.18,1042.79,1084.62,868.12,1084.62,868.12"/>
		<path class="st3" d="M1562.78,785.75c-14.31,44.13-36.29,104.45-63.19,155.48c-31.99,60.65-74.14,102.53-96.35,118.62
			c-3.7-2.24-5.08-6.94-5.19-11.8c-0.19-8.64,18.8-53.24,26.26-147.1c23.99-18.01,45.53-35.18,64.55-51
			C1513.07,829.83,1538.01,808.03,1562.78,785.75"/>
		<path class="st2" d="M454.57,995.99c-0.02,5.95-0.84,12.01-2.41,18.19c-2.87,10.56-8.44,23.34-17.43,36.52
			c-5.47,8.05-14.46,18.2-14.58,18.32c-1.48,0.09-8.41,0.37-14.24-0.19c-5.87-0.59-12.11-1.63-14.69-2.12v-0.04
			c-1.6-2.18,75.67-54.54,54.75-80.02C447.1,986.47,454.23,984.88,454.57,995.99"/>
		<path class="st2" d="M1997.6,420.33c-0.03,0-0.03,0.02-0.03,0.02s-3.11,4.6-13.5,13.68c-10.37,9.09-28.01,22.63-57.07,40.5
			c-27.81,17.1-105.32,69.51-164.84,124.52c-2.21,2.05-161.31,152.2-165.3,155.91c-0.42,1.39-21.07,78.26-70.36,178.24
			c-34.53,70.05-86.09,113.82-104.39,123.84c-1.16,0.6-11.78,7.33-18.89,2.8c22.21-16.07,64.36-57.95,96.35-118.59
			c26.9-51.04,48.88-111.36,63.19-155.49c-24.76,22.28-49.71,44.06-73.91,64.21c-19.04,15.82-40.57,32.99-64.56,51
			c0,0.1-51.56,37.93-80.69,57.31c0,0-0.03,0-0.03,0.04c-16.31,10.82-91.07,57.4-136.41,82.15c-38.49,21-119.1,59.22-119.34,59.32
			h-0.03c-41.98,35.45-74.87,52.01-83.67,49.79c-5.39-1.33-7.25-7.69-7.37-8.02c15.16-8.03,35.77-21.96,59.19-41.74
			c36.7-30.59,83.2-77.15,137.02-143.54c120.93-149.18,140.16-251.31,225.19-330.77c36-33.67,130.61-85.68,179.08-102.58
			c0.53-0.29,0.94-0.46,1.08-0.52c-55.45,31.64-111.65,68.12-148.31,103.1c-71.03,66.39-95.33,143.94-165.7,249.88l-1.77,2.76
			c237.08-179.81,420.29-388.05,609.71-454.58c6.02-2.11,11.75-4.09,17.23-5.95c0.23-0.08,0.47-0.13,0.67-0.22
			c64.47-21.82,90.52-25.2,92.42-13.06C2003.41,409.58,1999.16,417.47,1997.6,420.33"/>
		<path class="st3" d="M391.2,1066.67v0.04c-47.82-9.2-103.78-41.75-121.15-51.63c5.95-5.79,20.62-16.24,48.39-14.53
			c38.16,2.34,80.31,5.45,100.03-0.47c16.96-5.08,20.18-12.47,27.44-13.43h0.03C466.88,1012.12,389.6,1064.49,391.2,1066.67"/>
		<path class="st2" d="M885.17,655.73c90.28-11.87,119.49,8.62,185.2-13.31c12.99-13.14,28.16-26.81,40.01-37.52
			c-18.61,5.97-32.98,9.52-46.52,11.93c-30.79,6.09-53.11,4.5-116.96,12.87c-100.29,13.2-147.2,44.64-160.35,56.79
			c-3.96,3.66-7.02,6.84-11.18,12.64c-2.86,3.99-4.88,8.72-5.19,9.59C785.93,689.54,813.65,665.14,885.17,655.73"/>
		<path class="st2" d="M1024.67,1066.33c-11.96,25.2-28.76,56.94-28.76,70.18c0,0.65,0.03,1.24,0.1,1.75
			c-152.92,59.73-277.63,56.93-278.09,56.96c-210.3,9.96-375.77-75.66-375.77-75.66s0-0.02-0.02-0.02c-0.43,0-1.6,0.02-3.37,0.02
			c-19.74,0-117.39-1.51-181.52-31.29c-70.13-32.54-110.48-83.55-128.05-121.89c-13.07-28.55-13.71-37.69-9.55-41.45
			c0.34-0.34,0.74-0.62,1.16-0.87c0,0,0.03,0,0.03-0.05c1.25-0.72,2.79-1.27,4.48-1.72c1.36,15.75,54.24,147.26,222.24,171.15
			c48.02,6.81,63.29,4.67,72.26,4.01c-28.24-24.83-51.52-59.47-53.5-61.49c6.42,5.58,12.83,10.89,19.25,15.98
			c50.14,53.53,107.11,75.61,154.98,83.58c0.07,0.03,0.12,0.03,0.21,0.06h0.02l0.2,0.06l2.71,0.86
			c20.58,6.74,140.7,44.91,328.27,0.91c95.25-22.32,200.54-67.12,266.41-102.07C1038.36,1035.38,1032.77,1049.29,1024.67,1066.33"/>
	</g>
</g>
</svg>
