<?xml version="1.0" encoding="utf-8"?>
<!-- Generator: Adobe Illustrator 27.0.0, SVG Export Plug-In . SVG Version: 6.00 Build 0)  -->
<svg version="1.1" id="Layer_1" xmlns="http://www.w3.org/2000/svg" xmlns:xlink="http://www.w3.org/1999/xlink" x="0px" y="0px"
	 viewBox="0 0 2129.8 1740.2" style="enable-background:new 0 0 2129.8 1740.2;" xml:space="preserve">
<style type="text/css">
	.st0{fill:#FFFFFF;}
	.st1{fill:#F48220;}
	.st2{fill:#055979;}
	.st3{fill:#078D96;}
</style>
<g id="Layer_2">
	<path d="M2082.6,448.5c-0.3-7.6-1.8-12.1-1.8-12.1l0,0c-9.2-32.1-42-52-86.7-52c-4.8,0-9.6,0.2-14.4,0.7
		c-34.3,3.4-95.2,24-113.2,30.4c-56.8-14.4-110-21.3-162.6-21.3c-27.2,0-54.2,1.9-81.1,5.7l0,0l-11.1,1.5c0,0-4.3-14,7-46.9
		c5.9-17,13.9-32.7,13.9-32.7s-123.6,64.3-139.1,43.8c-15.4-20.5,53.7-183.6,53.7-183.6S1428,314.3,1404.6,308.4
		c-9.2-2.3-10.1-50.3-10.5-101.9c-0.6-69.9,1.8-149.8,1.8-149.8s-98.2,244-122.1,242.8c-20.8-1.1-51-131.3-51-131.3
		s-18.9,112.2-53,126c-34.1,13.7-121.7-196.2-121.7-196.2s-4.1,210.1-28.4,214.8c-24.4,4.7-102-73.8-102-73.8s36.4,104.6,24.1,118.4
		c-7.4,8.2-82-37.9-159.7-93.6c-44.8-32.2-82.4-59.1-82.4-59.1s43.8,72.7,78.6,148.7c24,52.3,38.5,102.5,32.2,112.3
		c-15.4,24-130.6-10.2-130.6-10.2s65.5,63.1,61.3,79.4c-2,7.9-67.2,2.2-133.4-6.8c-70.2-9.6-141.7-22.8-141.7-22.8
		s233.9,136,226.5,160.4c-5.8,19.4-151.4,3.5-151.4,3.5s126.6,57.8,126,76.9c-0.5,19.1-247.7,81.7-247.7,81.7s223.9,46.8,228.2,71.8
		c4.3,25-88.3,105.1-88.3,105.1s107.8,9.7,113.1,23.9c5.3,14.1-26.2,69.9-53.6,78.7c-33.8,10.9-64.6,17.8-102.2,17.8
		c-5.4,0-10.7-0.1-15.8-0.4c1.9-2.4,3.7-4.9,5.3-7.2c9.2-13.5,16.1-27.9,19.8-41.7l0-0.1l0-0.1c1.9-7.6,2.9-15.1,2.9-22.4l0-0.3
		l0-0.3c-0.2-8.3-3-15.4-7.9-20.2c-9.1-8-17.7-7-23.8-4.3l-21.3,10.4c-1.6,0.7-3.4,1.4-5.5,2c-4.1,1.2-12.6,2.7-30.4,2.7
		c-16.9,0-36.9-1.3-56.3-2.5c0,0-11.9-0.7-14.2-0.7c-23.1,0-38.6,7.4-47.9,14.1l-5.1-2.7c-47.4-25.2-102.5-35.3-136.9-41.7
		c-2.7-0.5-5.2-1-7.6-1.4c-38-7.5-58.8-30-60.5-31.8c-3.2-3.5-7.4-8-12.9-11.1c0,0-9.9-6.2-24.5-1.7c-9.6,3.4-13.6,10.8-13.6,10.8
		c-8.2,13.6-0.4,33.6,9.9,56.2c11.7,25.6,48.5,89.6,136.6,130.4c28.8,13.4,66.7,22.9,112.7,28.3c34.6,4.1,63.8,4.6,75.4,4.6
		c11.2,5.5,45.7,21.4,97,37.4c56.3,17.6,144.3,38.5,245.1,39c0,0,35.8,0.4,55.1-0.8c2,8.1-12,36.8-28.8,70.6
		c-19.9,40-45.4,87.3-45.4,87.3s46.1-40.8,89.1-71c43.3-30.4,91.8-54.8,103.2-40.8c21.6,26.6-1.5,136.4-1.5,136.4
		s87.4-77.4,107.7-66.9c9.3,4.8,10.2,62.6,10.2,123.5c0,72.2-1.8,148.8-1.8,148.8s120.4-243.6,145.5-236.7c25,6.9,52.4,118,52.4,118
		s45.8-135.3,73.7-132.1c11.2-1.4,35.2,42.5,56.5,87.4c23.4,49.2,43.4,97.2,43.4,97.2s0.5-50.3,4-101.6c3.2-46.4,9.1-91.7,19.3-94.2
		c21.5-5.3,83.8,78.2,83.8,78.2s-22-116.4-4.8-126.3c17.3-9.8,224.7,169.5,224.7,169.5s-136.1-252.2-119.6-271.5s161.9,20,161.9,20
		s-21.7-25.6-40.2-54.5c-19.4-30.2-35.5-64-27.9-72.1c6.9-7.4,82.7,0.3,161,15.5c90.3,17.5,149,30,149,30s-53.2-28.8-131.6-76
		c-67.9-40.8-127.6-86.8-125.1-94.3c5.5-16.1,167.7-31.5,167.7-31.5s-27.2-16-56.5-33.9c-31.7-19.4-65.6-43.6-65.6-52.4
		c0-7.7,40.7-26.9,94.3-43.4c64.3-19.8,123.8-33,123.8-33s-221.1-17.8-234.9-49.2c-9.4-21.5,7.9-49.6,20.6-67.7
		c12.7-18.1,30.8-34.6,30.8-34.6c60.4-55.8,137.3-107.1,161.8-122.2c1.7-1.1,3.4-2.1,5.1-3.2c0,0,56.7-41.9,62.5-46.8
		c5.1-4.2,18.1-17.9,21-35.2C2081.9,460.9,2082.9,456.1,2082.6,448.5 M685.5,1005c-15.7-8.5-88.7-11.9-88.7-11.9
		s82.2-55.3,80.3-95.2c-1.9-39.9-133.1-60.4-184.9-71.9c45.8-9.7,193.9-43.1,200.3-72.9c6.4-29.8-46.3-50.9-68.5-61.3
		c24.8,0.3,87.7,10.9,96.2-19.8c9.7-35.2-145.2-126.9-180.5-139.6c7.9,1.9,155.4,36.3,209.3,24.6c40.2-8.7-6.6-62.7-14.4-69.1
		c11.8,5.8,79.5,19.7,98.9-12.4c19.3-32.1-46.4-160-83.1-214.2c32.7,32.6,181.8,138.7,204,120.6c22.2-18.1,5.2-76.4-6.7-95.6
		c24,22.5,47.7,52.6,78.2,51.9c15.3-0.3,34.6-50.9,37.7-165.2c20.7,64,70.1,151.1,106.4,145.8c36.3-5.3,48.7-59.2,53.7-82.1
		c4.2,24.6,23.2,88,47.5,90.3c29.7,4.6,86.6-127.6,107.3-187.4c3.1,29.5-18.5,181.1,13.5,193.7c32,12.6,85-51.2,115-87
		c-18.2,34.6-53.8,118.3-32.7,138.3c21.2,20,94.6-1,123.2-24.5c-8,17.5-9.7,31.6-7.5,44.8c-32.6,6.4-66.2,15.8-101,28.7
		c-78.5-51.5-172.4-81.5-273.3-81.5c-275.3,0-498.5,223.2-498.5,498.5c0,66.3,13,129.5,36.4,187.3c-28.4,21-55.5,37.7-83.4,50.5
		C690.8,1064,708.5,1017.4,685.5,1005 M375.6,1057.2c38.1,2.3,80.3,5.4,100-0.5c17-5.1,20.2-12.5,27.5-13.4h0
		c1.1-0.2,8.3-1.8,8.6,9.3c0,6-0.8,12-2.4,18.2c-2.9,10.6-8.4,23.3-17.4,36.5c-5.5,8.1-14.5,18.2-14.6,18.3
		c-1.5,0.1-8.4,0.4-14.2-0.2c-5.9-0.6-12.1-1.6-14.7-2.1c-47.8-9.2-103.8-41.8-121.1-51.6C333.2,1065.9,347.9,1055.5,375.6,1057.2
		 M1925.3,825.8c-64.6,8.8-177.6,55.5-156.1,80.6c21.5,25.1,84,59.6,92.9,63.9c-29.8,0-127.8,10.1-138.8,37.9
		c-11,27.8,141.8,120.9,197.8,142.8c-69.6-19.6-235.5-52.3-246.6-29.9c-11,22.4,17.6,91.6,43.9,112.1
		c-19.2-5.8-119.4-34.3-135.5,2.8c-17.7,40.8,80.3,190.4,91.4,218.4c-45.2-44.8-168.9-145.3-186.4-133.8
		c-17.5,11.5-13.2,67.5-8.7,96c-17-20.7-46.2-53.9-71.4-43.9c-25.2,9.9-22.1,106.1-23.7,147.1c-20.8-48.2-54.7-145.2-86.1-141.7
		c-31.4,3.5-66.7,69.6-73.4,94.8c-4.8-25.3-25.3-80.8-56.4-80.8c-31.1,0-103.4,147-125.2,194.7c-0.1-37,8.8-217.2-10.8-226.2
		c-19.6-8.9-85.7,32.2-99.9,50.8c5.3-23.7,9.8-103.7-7.9-113.4c-17.7-9.7-67.9-12.7-158.8,71.3c15.1-32.2,40-67.3,46-101.3
		c37.7-1.9,74.9-6.2,112.5-13.6c82,59.4,182.9,94.4,291.9,94.4c275.3,0,498.5-223.2,498.5-498.5c0-21.6-1.4-42.8-4-63.7
		c18.5-17.4,36.2-34.2,52.7-49.9c-3.8,9-5.8,19.9-5.5,33.3C1758.5,812.2,1867.4,821.1,1925.3,825.8 M2064.7,443.5
		c-17.7-27.8-186.2,28.1-234.1,47.4c-13,5.3-93.2,41.4-175.1,88.2c-55.4,31.6-111.7,68.1-148.3,103.1
		c-71,66.4-95.3,143.9-165.7,249.9l-1.8,2.8c237.1-179.8,420.3-388,609.7-454.6c6-2.1,11.8-4.1,17.2-6c0.2-0.1,0.5-0.1,0.7-0.2
		c64.5-21.8,90.5-25.2,92.4-13.1c0.8,5.3-3.4,13.1-5,16c0,0-3.1,4.6-13.5,13.7c-10.4,9.1-28,22.6-57.1,40.5
		c-27.8,17.1-105.3,69.5-164.8,124.5c-2.2,2-161.3,152.2-165.3,155.9c-0.4,1.4-21.1,78.3-70.4,178.2
		c-34.5,70.1-86.1,113.8-104.4,123.8c-1.2,0.6-11.8,7.3-18.9,2.8c-3.7-2.2-5.1-6.9-5.2-11.8c-0.2-8.6,18.8-53.2,26.3-147.1
		c0,0.1-51.6,37.9-80.7,57.3c-16.3,10.8-91.1,57.4-136.4,82.1c-38.5,21-119.1,59.2-119.4,59.3c-42,35.4-74.9,52-83.7,49.8
		c-5.4-1.3-7.2-7.7-7.3-8c-0.6-1.8-0.8-3.3-0.8-3.3c-152.9,59.7-277.6,56.9-278.1,57c-210.3,10-375.8-75.7-375.8-75.7
		c-0.4,0-1.6,0-3.4,0c-19.7,0-117.4-1.5-181.5-31.3c-70.1-32.5-110.5-83.5-128.1-121.9c-13.1-28.6-13.7-37.7-9.6-41.5
		c1.4-1.3,3.4-2,5.7-2.7c8.8-2.5,14.8,8.6,22.5,15.2c7.7,6.6,27.6,24.2,63.9,31c36.3,6.8,104,17.6,155.1,50.3
		c42,25.3,147.1,111,333.5,38c85.9-33.6,162.7-100.9,276.8-213.8c18.5-18.3,36.9-37.6,55.7-57.4c-2.7-13.4-10-37.6-26.1-47.6
		c-25-15.6-62.9-16.2-87.9-14.4c-25,1.8-38.2,5.3-46.7-1.6c-3.1-2.5-3.6-6.3-2.8-10c0.8-3.7,2.5-7.2,4.5-10.4c0.5-0.8,1-1.7,1.6-2.5
		c4.2-5.8,7.2-9,11.2-12.6c13.2-12.2,60.1-43.6,160.4-56.8c63.9-8.4,86.2-6.8,117-12.9c13.6-2.4,27.9-6,46.5-11.9
		c27.4-24.8,56.7-49.5,88.7-73.8c32-24.3,66.5-48.1,104.3-71.1c202.5-123.2,367.6-119.2,506.7-83.1c0,0,76.2-27.4,114.2-31.2
		C2018.9,398.7,2057.3,411.4,2064.7,443.5"/>
	<g id="base">
		<path class="st0" d="M1622.5,516c-1.9,1.4-4.1,4.1-6.5,7.5c-9.4,13.2-20.9,36.9-20.9,36.9c17.3-25.6,71.8-47.3,104.1-58.2
			c-0.3-0.5-0.6-1-0.9-1.5c0-0.1-0.1-0.1-0.1-0.2c-1.7-3.6-0.2-7.4,1.5-10C1647.9,486.7,1622.5,516,1622.5,516"/>
		<path class="st1" d="M1674.5,1121.2c-11,22.4,17.7,91.6,43.9,112.1c-19.2-5.8-119.4-34.3-135.5,2.8
			c-17.7,40.8,80.3,190.4,91.4,218.4c-45.2-44.8-168.9-145.3-186.4-133.8c-17.5,11.5-13.2,67.5-8.7,96c-17-20.7-46.2-53.9-71.4-43.9
			c-25.2,9.9-22.1,106.1-23.7,147c-20.8-48.2-54.7-145.2-86.1-141.7c-31.4,3.5-66.7,69.6-73.4,94.8c-4.8-25.3-25.3-80.8-56.4-80.8
			c-31.1,0-103.4,147-125.2,194.7c-0.1-37,8.8-217.2-10.8-226.2c-19.6-8.9-85.7,32.2-99.9,50.8c5.3-23.7,9.8-103.7-7.9-113.4
			c-17.6-9.7-67.9-12.7-158.8,71.3c15.1-32.2,40-67.3,46-101.4c37.7-1.9,74.9-6.2,112.5-13.6c82,59.4,182.9,94.4,291.9,94.4
			c275.3,0,498.5-223.2,498.5-498.5c0-21.6-1.4-42.8-4-63.6c18.5-17.4,36.2-34.2,52.7-49.9c-3.8,9-5.8,19.9-5.5,33.3
			c1.1,42,109.9,51,167.8,55.7c-64.6,8.8-177.6,55.5-156.1,80.6c21.4,25.1,84,59.6,92.9,63.9c-29.8,0-127.8,10.1-138.8,37.9
			c-11,27.8,141.8,120.9,197.8,142.8C1851.5,1131.5,1685.5,1098.8,1674.5,1121.2"/>
		<path class="st1" d="M1590.1,404.7c-32.6,6.4-66.2,15.8-101,28.7c-78.5-51.5-172.4-81.5-273.3-81.5
			c-275.3,0-498.5,223.2-498.5,498.4c0,66.3,13,129.5,36.4,187.3c-28.4,21-55.5,37.7-83.4,50.5c20.4-24.2,38-70.8,15-83.3
			c-15.7-8.5-88.7-11.9-88.7-11.9s82.2-55.3,80.3-95.2c-1.9-39.9-133-60.4-184.9-71.9c45.8-9.6,193.9-43.1,200.3-72.9
			c6.4-29.8-46.3-50.9-68.4-61.3c24.8,0.3,87.7,10.8,96.2-19.8c9.7-35.2-145.2-126.9-180.5-139.6c7.9,1.9,155.4,36.3,209.4,24.6
			c40.2-8.7-6.6-62.7-14.4-69.1c11.8,5.8,79.5,19.7,98.8-12.4c19.3-32.1-46.3-160-83.1-214.2c32.7,32.6,181.8,138.7,204.1,120.6
			c22.2-18.1,5.2-76.4-6.7-95.6c24,22.5,47.7,52.6,78.2,51.9c15.3-0.3,34.5-50.9,37.7-165.2c20.7,64,70.1,151.1,106.4,145.8
			c36.3-5.3,48.7-59.2,53.8-82.1c4.2,24.6,23.2,88,47.5,90.3c29.7,4.6,86.6-127.6,107.3-187.4c3.1,29.5-18.5,181.1,13.5,193.7
			c32,12.6,85-51.2,115-87c-18.2,34.6-53.9,118.3-32.7,138.3c21.2,20,94.6-1,123.2-24.5C1589.7,377.5,1588,391.5,1590.1,404.7"/>
		<path class="st0" d="M1126.8,988.5c-2.8,13.2-12.7,57.3-31.3,103.5c-65.9,34.9-171.2,79.8-266.4,102.1
			c-187.6,44-307.7,5.8-328.3-0.9l-2.9-0.9c4.6,1,50.2,3,50.2,3c9.8,0.2,137.9,5.2,278.5-47.5
			C941.5,1105.7,1054.5,1037.2,1126.8,988.5"/>
		<path class="st0" d="M2082.6,448.5c-0.3-7.6-1.8-12.1-1.8-12.1l0,0c-9.2-32.1-42-52-86.7-52c-4.8,0-9.6,0.2-14.4,0.7
			c-34.3,3.4-95.2,24-113.2,30.4c-56.8-14.4-110-21.3-162.6-21.3c-27.2,0-54.2,1.9-81.1,5.7l0,0l-11.1,1.5c0,0-4.3-14,7-46.9
			c5.9-17,13.9-32.7,13.9-32.7s-123.6,64.3-139.1,43.8c-15.4-20.5,53.7-183.6,53.7-183.6S1428,314.3,1404.6,308.4
			c-9.2-2.3-10.1-50.3-10.5-101.9c-0.6-69.9,1.8-149.8,1.8-149.8s-98.2,244-122.1,242.8c-20.8-1.1-51-131.3-51-131.3
			s-18.9,112.2-53,126c-34.1,13.7-121.7-196.2-121.7-196.2s-4.1,210.1-28.4,214.8c-24.4,4.7-102-73.8-102-73.8
			s36.4,104.6,24.1,118.4c-7.4,8.2-82-37.9-159.7-93.6c-44.8-32.2-82.4-59.1-82.4-59.1s43.8,72.7,78.6,148.7
			c24,52.3,38.5,102.5,32.2,112.3c-15.4,24-130.6-10.2-130.6-10.2s65.5,63.1,61.3,79.4c-2,7.9-67.2,2.2-133.4-6.8
			c-70.2-9.6-141.7-22.8-141.7-22.8s233.9,136,226.5,160.4c-5.8,19.4-151.4,3.5-151.4,3.5s126.6,57.8,126,76.9
			c-0.5,19.1-247.7,81.7-247.7,81.7s223.9,46.8,228.2,71.8c4.3,25-88.3,105.1-88.3,105.1s107.8,9.7,113.1,23.9
			c5.3,14.1-26.2,69.9-53.6,78.7c-33.8,10.9-64.6,17.8-102.2,17.8c-5.4,0-10.7-0.1-15.8-0.4c1.9-2.4,3.7-4.9,5.3-7.2
			c9.2-13.5,16.1-27.9,19.8-41.7l0-0.1l0-0.1c1.9-7.6,2.9-15.1,2.9-22.4l0-0.3l0-0.3c-0.2-8.3-3-15.4-7.9-20.2
			c-9.1-8-17.7-7-23.8-4.3l-21.3,10.4c-1.6,0.7-3.4,1.4-5.5,2c-4.1,1.2-12.6,2.7-30.4,2.7c-16.9,0-36.9-1.3-56.3-2.5
			c0,0-11.9-0.7-14.2-0.7c-23.1,0-38.6,7.4-47.9,14.1l-5.1-2.7c-47.4-25.2-102.5-35.3-136.9-41.7c-2.7-0.5-5.2-1-7.6-1.4
			c-38-7.5-58.8-30-60.5-31.8c-3.2-3.5-7.4-8-12.9-11.1c0,0-9.9-6.2-24.5-1.7c-9.6,3.4-13.6,10.8-13.6,10.8
			c-8.2,13.6-0.4,33.6,9.9,56.2c11.7,25.6,48.5,89.6,136.6,130.4c28.8,13.4,66.7,22.9,112.7,28.3c34.6,4.1,63.8,4.6,75.4,4.6
			c11.2,5.5,45.7,21.4,97,37.4c56.3,17.6,144.3,38.5,245.1,39c0,0,35.8,0.4,55.1-0.8c2,8.1-12,36.8-28.8,70.6
			c-19.9,40-45.4,87.3-45.4,87.3s46.1-40.8,89.1-71c43.3-30.4,91.8-54.8,103.2-40.8c21.6,26.6-1.5,136.4-1.5,136.4
			s87.4-77.4,107.7-66.9c9.3,4.8,10.2,62.6,10.2,123.5c0,72.2-1.8,148.8-1.8,148.8s120.4-243.6,145.5-236.7
			c25,6.9,52.4,118,52.4,118s45.8-135.3,73.7-132.1c11.2-1.4,35.2,42.5,56.5,87.4c23.4,49.2,43.4,97.2,43.4,97.2s0.5-50.3,4-101.6
			c3.2-46.4,9.1-91.7,19.3-94.2c21.5-5.3,83.8,78.2,83.8,78.2s-22-116.4-4.8-126.3c17.3-9.8,224.7,169.5,224.7,169.5
			s-136.1-252.2-119.6-271.5s161.9,20,161.9,20s-21.7-25.6-40.2-54.5c-19.4-30.2-35.5-64-27.9-72.1c6.9-7.4,82.7,0.3,161,15.5
			c90.3,17.5,149,30,149,30s-53.2-28.8-131.6-76c-67.9-40.8-127.6-86.8-125.1-94.3c5.5-16.1,167.7-31.5,167.7-31.5
			s-27.2-16-56.5-33.9c-31.7-19.4-65.6-43.6-65.6-52.4c0-7.7,40.7-26.9,94.3-43.4c64.3-19.8,123.8-33,123.8-33
			s-221.1-17.8-234.9-49.2c-9.4-21.5,7.9-49.6,20.6-67.7c12.7-18.1,30.8-34.6,30.8-34.6c60.4-55.8,137.3-107.1,161.8-122.2
			c1.7-1.1,3.4-2.1,5.1-3.2c0,0,56.7-41.9,62.5-46.8c5.1-4.2,18.1-17.9,21-35.2C2081.9,460.9,2082.9,456.1,2082.6,448.5 M685.5,1005
			c-15.7-8.5-88.7-11.9-88.7-11.9s82.2-55.3,80.3-95.2c-1.9-39.9-133.1-60.4-184.9-71.9c45.8-9.7,193.9-43.1,200.3-72.9
			c6.4-29.8-46.3-50.9-68.5-61.3c24.8,0.3,87.7,10.9,96.2-19.8c9.7-35.2-145.2-126.9-180.5-139.6c7.9,1.9,155.4,36.3,209.3,24.6
			c40.2-8.7-6.6-62.7-14.4-69.1c11.8,5.8,79.5,19.7,98.9-12.4c19.3-32.1-46.4-160-83.1-214.2c32.7,32.6,181.8,138.7,204,120.6
			c22.2-18.1,5.2-76.4-6.7-95.6c24,22.5,47.7,52.6,78.2,51.9c15.3-0.3,34.6-50.9,37.7-165.2c20.7,64,70.1,151.1,106.4,145.8
			c36.3-5.3,48.7-59.2,53.7-82.1c4.2,24.6,23.2,88,47.5,90.3c29.7,4.6,86.6-127.6,107.3-187.4c3.1,29.5-18.5,181.1,13.5,193.7
			c32,12.6,85-51.2,115-87c-18.2,34.6-53.8,118.3-32.7,138.3c21.2,20,94.6-1,123.2-24.5c-8,17.5-9.7,31.6-7.5,44.8
			c-32.6,6.4-66.2,15.8-101,28.7c-78.5-51.5-172.4-81.5-273.3-81.5c-275.3,0-498.5,223.2-498.5,498.5c0,66.3,13,129.5,36.4,187.3
			c-28.4,21-55.5,37.7-83.4,50.5C690.8,1064,708.5,1017.4,685.5,1005 M375.6,1057.2c38.1,2.3,80.3,5.4,100-0.5
			c17-5.1,20.2-12.5,27.5-13.4h0c1.1-0.2,8.3-1.8,8.6,9.3c0,6-0.8,12-2.4,18.2c-2.9,10.6-8.4,23.3-17.4,36.5
			c-5.5,8.1-14.5,18.2-14.6,18.3c-1.5,0.1-8.4,0.4-14.2-0.2c-5.9-0.6-12.1-1.6-14.7-2.1c-47.8-9.2-103.8-41.8-121.1-51.6
			C333.2,1065.9,347.9,1055.5,375.6,1057.2 M1925.3,825.8c-64.6,8.8-177.6,55.5-156.1,80.6c21.5,25.1,84,59.6,92.9,63.9
			c-29.8,0-127.8,10.1-138.8,37.9c-11,27.8,141.8,120.9,197.8,142.8c-69.6-19.6-235.5-52.3-246.6-29.9
			c-11,22.4,17.6,91.6,43.9,112.1c-19.2-5.8-119.4-34.3-135.5,2.8c-17.7,40.8,80.3,190.4,91.4,218.4
			c-45.2-44.8-168.9-145.3-186.4-133.8c-17.5,11.5-13.2,67.5-8.7,96c-17-20.7-46.2-53.9-71.4-43.9c-25.2,9.9-22.1,106.1-23.7,147.1
			c-20.8-48.2-54.7-145.2-86.1-141.7c-31.4,3.5-66.7,69.6-73.4,94.8c-4.8-25.3-25.3-80.8-56.4-80.8c-31.1,0-103.4,147-125.2,194.7
			c-0.1-37,8.8-217.2-10.8-226.2c-19.6-8.9-85.7,32.2-99.9,50.8c5.3-23.7,9.8-103.7-7.9-113.4c-17.7-9.7-67.9-12.7-158.8,71.3
			c15.1-32.2,40-67.3,46-101.3c37.7-1.9,74.9-6.2,112.5-13.6c82,59.4,182.9,94.4,291.9,94.4c275.3,0,498.5-223.2,498.5-498.5
			c0-21.6-1.4-42.8-4-63.7c18.5-17.4,36.2-34.2,52.7-49.9c-3.8,9-5.8,19.9-5.5,33.3C1758.5,812.2,1867.4,821.1,1925.3,825.8
			 M2064.7,443.5c-17.7-27.8-186.2,28.1-234.1,47.4c-13,5.3-93.2,41.4-175.1,88.2c-55.4,31.6-111.7,68.1-148.3,103.1
			c-71,66.4-95.3,143.9-165.7,249.9l-1.8,2.8c237.1-179.8,420.3-388,609.7-454.6c6-2.1,11.8-4.1,17.2-6c0.2-0.1,0.5-0.1,0.7-0.2
			c64.5-21.8,90.5-25.2,92.4-13.1c0.8,5.3-3.4,13.1-5,16c0,0-3.1,4.6-13.5,13.7c-10.4,9.1-28,22.6-57.1,40.5
			c-27.8,17.1-105.3,69.5-164.8,124.5c-2.2,2-161.3,152.2-165.3,155.9c-0.4,1.4-21.1,78.3-70.4,178.2
			c-34.5,70.1-86.1,113.8-104.4,123.8c-1.2,0.6-11.8,7.3-18.9,2.8c-3.7-2.2-5.1-6.9-5.2-11.8c-0.2-8.6,18.8-53.2,26.3-147.1
			c0,0.1-51.6,37.9-80.7,57.3c-16.3,10.8-91.1,57.4-136.4,82.1c-38.5,21-119.1,59.2-119.4,59.3c-42,35.4-74.9,52-83.7,49.8
			c-5.4-1.3-7.2-7.7-7.3-8c-0.6-1.8-0.8-3.3-0.8-3.3c-152.9,59.7-277.6,56.9-278.1,57c-210.3,10-375.8-75.7-375.8-75.7
			c-0.4,0-1.6,0-3.4,0c-19.7,0-117.4-1.5-181.5-31.3c-70.1-32.5-110.5-83.5-128.1-121.9c-13.1-28.6-13.7-37.7-9.6-41.5
			c1.4-1.3,3.4-2,5.7-2.7c8.8-2.5,14.8,8.6,22.5,15.2c7.7,6.6,27.6,24.2,63.9,31c36.3,6.8,104,17.6,155.1,50.3
			c42,25.3,147.1,111,333.5,38c85.9-33.6,162.7-100.9,276.8-213.8c18.5-18.3,36.9-37.6,55.7-57.4c-2.7-13.4-10-37.6-26.1-47.6
			c-25-15.6-62.9-16.2-87.9-14.4c-25,1.8-38.2,5.3-46.7-1.6c-3.1-2.5-3.6-6.3-2.8-10c0.8-3.7,2.5-7.2,4.5-10.4
			c0.5-0.8,1-1.7,1.6-2.5c4.2-5.8,7.2-9,11.2-12.6c13.2-12.2,60.1-43.6,160.4-56.8c63.9-8.4,86.2-6.8,117-12.9
			c13.6-2.4,27.9-6,46.5-11.9c27.4-24.8,56.7-49.5,88.7-73.8c32-24.3,66.5-48.1,104.3-71.1c202.5-123.2,367.6-119.2,506.7-83.1
			c0,0,76.2-27.4,114.2-31.2C2018.9,398.7,2057.3,411.4,2064.7,443.5"/>
		<path class="st2" d="M1807.9,461.4c-15.3,3.7-52.9,4.9-69,4.9c-16,0-38.7-2.4-73.6,12.8c-25,10.9-41.8,32.8-49.3,44.3
			c2.4-3.4,4.6-6,6.5-7.5c0,0,25.4-29.3,77.3-25.5c-1.7,2.6-3.2,6.4-1.5,10c0,0.1,0.1,0.1,0.1,0.2c0.2,0.5,0.5,1,0.9,1.5
			c0.1,0.1,0.2,0.2,0.3,0.4c0,0,18.6-6,31.8-9.9c28.5-7.1,46.2-11.9,65.5-19.8c26.3-10.8,34.7-15.6,33.8-17.6
			C1829.7,453.1,1823.2,457.7,1807.9,461.4"/>
		<path class="st3" d="M1981.4,402.4c-38,3.8-114.2,31.2-114.2,31.2c-139.1-36.1-304.2-40.2-506.7,83.1
			c-37.8,23-72.3,46.8-104.3,71.1c-31.9,24.3-61.3,49-88.7,73.8c-11.8,10.7-27,24.4-40,37.5c-65.7,21.9-94.9,1.4-185.2,13.3
			c-71.5,9.4-99.2,33.8-115,53c-2,5.5-1.8,10.4,1.9,13.3c8.5,6.8,21.7,3.4,46.7,1.6c25-1.8,62.9-1.2,87.9,14.4
			c16.1,10,23.4,34.2,26.1,47.6c-18.7,19.9-37.1,39.1-55.7,57.4c-114.1,112.9-190.9,180.1-276.8,213.8
			c-186.4,73-291.5-12.7-333.5-38l0,0.1c-51-32.8-118.7-43.6-155-50.4c-36.3-6.8-56.2-24.4-63.9-31s-13.7-17.7-22.5-15.2
			c-2.3,0.6-4.2,1.3-5.7,2.7c1.4-1.3,3.4-2,5.7-2.7c1.4,15.8,54.2,147.3,222.2,171.1c48,6.8,63.3,4.7,72.3,4
			c-28.2-24.8-51.5-59.5-53.5-61.5c6.4,5.6,12.8,10.9,19.2,16c50.1,53.5,107.1,75.6,155,83.6c3.1,1,50.4,3,50.4,3
			c55.1-1.2,129.1-17.3,197.7-37.3c201.6-58.5,396-233.2,396-233.2s-10.8,47.1-15,63.8c-2.8,13.2-12.7,57.3-31.3,103.5
			c0,0-5.6,13.9-13.7,31c-12,25.2-28.8,56.9-28.8,70.2c0,0.7,0,1.2,0.1,1.8c0,0,0.2,1.4,0.7,3.3c15.2-8,35.8-22,59.2-41.8
			c36.7-30.6,83.2-77.2,137-143.5c120.9-149.2,140.2-251.3,225.2-330.8c36-33.7,130.6-85.7,179.1-102.6c0.5-0.3,0.9-0.5,1.1-0.5
			c0,0,0,0,0.1,0l0,0c81.8-46.7,162-82.9,175-88.1c47.9-19.3,216.4-75.2,234.1-47.4h0C2057.3,411.4,2018.9,398.7,1981.4,402.4
			 M1796.7,472.7c-19.3,7.9-36.9,12.7-65.5,19.8c-13.2,4-31.8,10-31.8,10c-0.1-0.1-0.1-0.3-0.2-0.4c-32.2,11-86.7,32.6-104.1,58.2
			c0.7-1.4,11.8-24.1,20.8-36.8c7.5-11.5,24.3-33.4,49.3-44.3c34.9-15.2,57.6-12.8,73.6-12.8s53.7-1.2,69-4.8
			c15.3-3.7,21.8-8.4,22.7-6.4C1831.4,457.2,1823,461.9,1796.7,472.7"/>
		<path class="st2" d="M1141.8,924.8c0,0-10.8,47.1-15,63.8c-72.3,48.7-185.3,117.2-300.2,159.2c-140.6,52.8-268.6,47.7-278.5,47.5
			c55.1-1.2,129.1-17.4,197.7-37.3C947.4,1099.4,1141.8,924.8,1141.8,924.8"/>
		<path class="st3" d="M1620,842.4c-14.3,44.1-36.3,104.5-63.2,155.5c-32,60.7-74.1,102.5-96.3,118.6c-3.7-2.2-5.1-6.9-5.2-11.8
			c-0.2-8.6,18.8-53.2,26.3-147.1c24-18,45.5-35.2,64.6-51C1570.3,886.5,1595.2,864.7,1620,842.4"/>
		<path class="st2" d="M511.8,1052.6c0,6-0.8,12-2.4,18.2c-2.9,10.6-8.4,23.3-17.4,36.5c-5.5,8.1-14.5,18.2-14.6,18.3
			c-1.5,0.1-8.4,0.4-14.2-0.2c-5.9-0.6-12.1-1.6-14.7-2.1v0c-1.6-2.2,75.7-54.5,54.8-80C504.3,1043.1,511.4,1041.5,511.8,1052.6"/>
		<path class="st2" d="M2054.8,477C2054.8,477,2054.8,477,2054.8,477c0,0-3.1,4.6-13.5,13.7c-10.4,9.1-28,22.6-57.1,40.5
			c-27.8,17.1-105.3,69.5-164.8,124.5c-2.2,2-161.3,152.2-165.3,155.9c-0.4,1.4-21.1,78.3-70.4,178.2
			c-34.5,70.1-86.1,113.8-104.4,123.8c-1.2,0.6-11.8,7.3-18.9,2.8c22.2-16.1,64.4-57.9,96.3-118.6c26.9-51,48.9-111.4,63.2-155.5
			c-24.8,22.3-49.7,44.1-73.9,64.2c-19,15.8-40.6,33-64.6,51c0,0.1-51.6,37.9-80.7,57.3c0,0,0,0,0,0
			c-16.3,10.8-91.1,57.4-136.4,82.1c-38.5,21-119.1,59.2-119.3,59.3h0c-42,35.4-74.9,52-83.7,49.8c-5.4-1.3-7.2-7.7-7.4-8
			c15.2-8,35.8-22,59.2-41.7c36.7-30.6,83.2-77.2,137-143.5c120.9-149.2,140.2-251.3,225.2-330.8c36-33.7,130.6-85.7,179.1-102.6
			c0.5-0.3,0.9-0.5,1.1-0.5c-55.4,31.6-111.7,68.1-148.3,103.1c-71,66.4-95.3,143.9-165.7,249.9l-1.8,2.8
			c237.1-179.8,420.3-388,609.7-454.6c6-2.1,11.8-4.1,17.2-6c0.2-0.1,0.5-0.1,0.7-0.2c64.5-21.8,90.5-25.2,92.4-13.1
			C2060.6,466.2,2056.3,474.1,2054.8,477"/>
		<path class="st3" d="M448.4,1123.3L448.4,1123.3c-47.8-9.2-103.8-41.7-121.1-51.6c6-5.8,20.6-16.2,48.4-14.5
			c38.2,2.3,80.3,5.5,100-0.5c17-5.1,20.2-12.5,27.4-13.4h0C524.1,1068.8,446.8,1121.1,448.4,1123.3"/>
		<path class="st2" d="M942.4,712.4c90.3-11.9,119.5,8.6,185.2-13.3c13-13.1,28.2-26.8,40-37.5c-18.6,6-33,9.5-46.5,11.9
			c-30.8,6.1-53.1,4.5-117,12.9c-100.3,13.2-147.2,44.6-160.4,56.8c-4,3.7-7,6.8-11.2,12.6c-2.9,4-4.9,8.7-5.2,9.6
			C843.1,746.2,870.8,721.8,942.4,712.4"/>
		<path class="st2" d="M1081.9,1123c-12,25.2-28.8,56.9-28.8,70.2c0,0.7,0,1.2,0.1,1.8c-152.9,59.7-277.6,56.9-278.1,57
			c-210.3,10-375.8-75.7-375.8-75.7s0,0,0,0c-0.4,0-1.6,0-3.4,0c-19.7,0-117.4-1.5-181.5-31.3c-70.1-32.5-110.5-83.5-128.1-121.9
			c-13.1-28.5-13.7-37.7-9.5-41.5c0.3-0.3,0.7-0.6,1.2-0.9c0,0,0,0,0,0c1.2-0.7,2.8-1.3,4.5-1.7c1.4,15.8,54.2,147.3,222.2,171.2
			c48,6.8,63.3,4.7,72.3,4c-28.2-24.8-51.5-59.5-53.5-61.5c6.4,5.6,12.8,10.9,19.2,16c50.1,53.5,107.1,75.6,155,83.6
			c0.1,0,0.1,0,0.2,0.1h0l0.2,0.1l2.7,0.9c20.6,6.7,140.7,44.9,328.3,0.9c95.2-22.3,200.5-67.1,266.4-102.1
			C1095.5,1092,1090,1105.9,1081.9,1123"/>
	</g>
</g>
</svg>
