<?xml version="1.0" encoding="utf-8"?>
<!-- Generator: Adobe Illustrator 27.0.0, SVG Export Plug-In . SVG Version: 6.00 Build 0)  -->
<svg version="1.1" id="katman_1" xmlns="http://www.w3.org/2000/svg" xmlns:xlink="http://www.w3.org/1999/xlink" x="0px" y="0px"
	 viewBox="0 0 278 388" style="enable-background:new 0 0 278 388;" xml:space="preserve">
<style type="text/css">
	.st0{fill:#FFFFFF;}
	.st1{fill:#FCFCFC;}
</style>
<path class="st0" d="M132.1,17.5c1.3,0.7,1.8,1.2,3.2,1.5c1.2,0.3,2.8,1.2,3.2,0.2c0.5-1-0.2-2.3-1-3.5c-1.3-2.2-2-2.7-3.8-5.6
	c-0.3-0.7-0.7-1.3-1.3-1.3c0,0-0.2,2.2-0.8,3.5c-0.5,1.2-1.8,2-1.7,2.8C129.9,15.9,130.7,16.9,132.1,17.5z"/>
<path class="st1" d="M270.7,159.6c-1.5,2-2.2,6-4.3,9.3c-3,4.6-7.3,10.3-9.5,10.3c-1.2,0-1.5-2.7-1.5-2.7s-1.5-4.5,1-10.1
	c1.8-4,2.8-5.1,5.1-8.1c2.2-2.8,3.5-4.3,5-7.3c1.3-2.7,1.7-3.2,2.5-7.3c0.2-1-0.2-3.2-1.2-3c-1.3,0-5,8-8.8,12.4
	c-3.6,4.1-10.4,9.5-10.4,9.5s-0.7,0.5-0.7-0.8c-0.2-1.2-0.3-4.6,0.3-7.8c0.7-3.2,1.7-6.3,4.5-11.1c3.2-5.5,7.1-9.3,9.1-11.3
	c0.8-0.8,3.3-2.3,2-3.2c-1.2-0.7-4.6,2.3-7.3,4.3c-3.3,2.5-4.5,3.2-7.8,7.1s-4.1,5.6-4.1,5.6s-3.2,5.1-4,10.1s-0.8,7.8-0.8,7.8
	s0,4.5,0.5,7.1c0.3,2.8,1.5,7.1,1.5,7.1s1.7,4.8,2.3,7.8c0.7,3,1.8,11.8,1.8,11.8s0.8,6.3,0.3,12.3s-1,9.5-1.7,11.3
	s-2.5,6.6-5.5,9.9c-2.8,3.2-3.5,3.6-3.5,3.6s-3,2.5-5.5,3.8s-6.1,3-7.8,3.5c-1.7,0.3-4,0.5-4.1,0.5h-2.2l-0.7-0.5l-0.3-1.3
	c0,0-1.7-6.5-3.6-10.6c-1.7-3.5-5.1-8.3-5.1-8.3s-6-8.1-10.6-12.6c-5.3-5.3-11.3-9.3-14.9-12.1c-1.3-1-4.3-2.8-4.3-2.8
	s-12.1-12.1-16.4-21.7c-3-6.6-5-11.4-4.1-18.7c0.2-1.7,0.8-4.8,1.2-4.8l2.2,0.7c0.2,0.2,2.2,2,4,2.7c1,0.3,2.8,0.7,2.8,0.7
	s1.5,0.2,2.3,0.3c0.8,0.3,2.3,0.8,3.3,1.3s2.5,1.5,2.5,1.5l2.8,2.2l3,2.3c0,0,1.7,1.2,2.2,1.3c0.5,0.2,0.8,0.3,1,0.3h0.7
	c0,0,0.7-0.2,0.8-0.8c0.2-0.8-0.8-0.2-2.3-1.8c-1.7-1.5-2.3-2.8-2.3-2.8s-0.3-1.3-1.7-2.8c-1.3-1.5-3-2.8-3-2.8s-1.2-0.8-2.8-1.3
	c-1.7-0.5-2.2-0.5-2.3-1.2c-0.2-0.7,2-0.3,2-0.3s2.5,0.3,4.5,1.3s3.2,2.2,3.2,2.2l1.3,1.2l0.8,0.8l0.8,0.5c0,0,0.8,0.8,1-0.3
	c0.2-1-0.2-1.8-0.3-2l-0.8-0.8l-3.3-2.8c-1-1-1.7-1.7-2.7-2.3s-2.5-1.7-4.3-2.3c-1.7-0.7-2.7-0.5-4.3-1.3c-1.2-0.5-2.2-0.8-2.8-1.8
	c-0.2-0.2-1-0.8,0.5-0.5s2.5,0.8,4.1,1.2c2.7,0.7,4.3,0.7,6.8,1.5c1,0.3,2.3,1,2.3,1l3.2,1.3c0,0,4.3,2.3,7.3,2.5s5.5-0.5,6.5-1
	c1-0.3,2.8-1.5,3.3-2s0.8-1,0.8-1l0.3-0.8V142c-0.8-1-2.5,1.7-5.1,2.2c-2.8,0.5-2.7,0.8-4.5,0.5c-2-0.3-3.2-0.8-4.6-2.3
	c-2.7-2.5-3.6-4.8-7.1-6.3c-1.5-0.7-4.1-1.3-4.1-1.3s-3.6-1.2-5.6-2.3c-1.5-0.8-4.6-1.3-3.6-2.7c0.5-0.7,4.5,1.7,7.5,2
	c2.2,0.3,3.6,0.2,5.3,0.2s4-0.5,4.3-0.5c0.3-0.2,1.7,0,2.8,0.3c1.2,0.3,1.8,0.8,3,1.3s2.5,1.3,2.8,1.3l0.7,0.2l0.3-0.3l0.2-0.3
	l-0.2-0.3l-0.5-0.3l-1-0.7c0,0-1.5-0.8-2.8-2.2c-1.3-1.3-2.5-2.8-4.5-3.5s-4.3-1-4.3-1l-2.3-0.2l-1-0.2c0,0-1.7-0.5-0.3-0.8
	c1.3-0.3,2-0.5,2.3-0.5c0.2-0.2,2.5-0.3,3.8,0.2s3.5,1.7,3.6,1.7c0.2,0.2,2.2,1.7,4.3,2.2c2.2,0.5,5,0.7,5,0.7l1.3-0.3l0.7-0.2
	l0.5-0.3l-0.2-0.8c0,0,0-0.7-1-0.8s-3-0.5-4.8-1.8s-3.2-2.7-3.2-2.7s-1.3-1.2-4-1.8c-2.5-0.7-3.3-0.7-3.3-0.7l-0.8-0.3l-1.8-0.8
	c0,0-0.8-0.5-1.5-1.3s-1.7-2.3,1.2-1.5s3.5,1.3,3.5,1.3s1.5,1.5,2.8,1.7c0.8,0.2,1.5,0.3,2-0.3c0.8-0.8-1.5-1.8-3.2-3
	c-1.3-0.8-2.7-3-2.7-3s-1-0.8,0.5-0.5s4.1,2,4.1,2s1.3,0.7,2,0.8c0.5,0.2,1.8,1,2.5,1.3c0.5,0.2,2,0.5,3,1c1.3,0.8,2,2.2,2.7,2.7
	s1.2,1.3,2,1.5s1,0.5,1.5,0.2s0.7-0.5,0.7-0.5s0.2-0.3-0.7-0.8c-0.8-0.5-1.8-1.8-1.8-1.8l-0.3-0.7l-0.2-0.7l-0.8-1.3l-1.5-2.2
	c0,0-2.3-3.2-4.5-4.3c-2-1.2-3.5-1.8-3.5-1.8s-1-0.5-1.5-0.8c-0.8-0.7-1.2-1.2-1.8-2c-0.8-1-1.2-1.7-2.2-2.7
	c-1.8-1.8-7.5-2.8-5.3-4.1c1.2-0.7,2.7-0.3,3.3-0.2c0.7,0.2,2.2,0.8,3.6,1.3c1,0.3,1.7,0.3,2.7,0.7c1,0.3,2.2,0.5,2.7,0.8
	s1,1,1.3,1.2c0.2,0.2,1.5,2.3,3.8,3.5s3.5,2,5.8,2.2c1.8,0.2,4.8-0.5,4.8-0.5s0.8-0.3,0.2-1.2c-0.8-0.8-0.8-1-1.5-1.2
	c-2.7-1-4.8-0.7-6.8-2.7c-0.8-0.8-1.2-1-1.8-2.3c-0.7-1.3-0.3-1.7-0.8-2.5c-0.3-0.8-1.2-2-1.2-2s-2.5-3-5.1-4.5
	c-2.8-1.5-4.8-3-5.1-3.3c-0.5-0.3-1.5-1.7-1.5-1.7l-0.8-1.3l-0.5-1c-0.3-1.8,3,0.5,4.8,1.2c3,1,4.5,2.3,7.5,3.3
	c1.7,0.5,2.7,0.5,4.3,1.2c2.8,1.2,3.6,4,6.6,4.3c1.7,0.2,5,0.8,4.3-0.7c-0.7-1.7-4-1.7-5.6-3.6c-0.8-0.8-0.8-1.7-1.7-2.5
	c-1.3-1.7-4.5-3.2-4.5-3.2s-1-0.8-2.2-3.2c-1-2.3-3.5-4-8-6.1c-3-1.5-9-1.8-6.6-3.3c1.3-1,2.5-0.8,4.3-0.3c1.8,0.7,2.5,1.5,4,2.2
	s2.2,0.8,2.5,1s1.5,0.7,2,0.7c0.3,0.2,2.8,0.5,3.5,0.7l3.3,0.8l2.7,1c0,0,1.3,0.5,2.2,0.5c0.8,0,2.2-0.3,2.2-0.3l1-0.7l0.2-0.3
	c0,0,0.5-0.8-0.8-1c-1.2-0.2-1.8-0.2-2-0.2l-1.2-0.3l-0.5-0.2c0,0-2.3-1.8-4.3-2.7c-2.2-0.8-2.5-1-2.5-1l-0.8-0.2l-1-0.2
	c0,0-0.8,0-2.2-1.2s-1.8-1.8-3-3l-1.5-1.5c0,0-1.3-1-1.3-1.8c0.2-1.3,3,1.5,3,1.5l2,1.3c0,0,1.7,1.2,4.6,1.3c3,0.2,6.6-0.8,6.6-0.8
	s0.5-0.3,2.2,0.2s3,1.5,3,1.5l1.3,1.2l2,2.2l0.3-0.2c0.2-0.2,1-1-0.5-2.8s-4-3.5-4-3.5s-3.3-2-6.6-2.7s-4.8-0.7-4.8-0.7
	s-2.5,0-4-1.7s-2.5-3.3-2.5-3.3l-0.5-2.3c0,0-0.8-1-2.5-1.7c-1.5-0.7-3.2-1.7-3.2-1.7s-2.5-0.8-2.7-2c-0.5-2.2,4.1,0,6.6,0.5
	c2.3,0.5,3.3,1.3,5.6,1.8c2,0.5,3.2,0.7,5.3,0.5c1.2,0,1.8-0.2,3-0.3c1.2,0,2-0.2,3.2,0c1.7,0.3,2.3,1.2,4,1.8c1,0.5,1.5,1,2.7,1.2
	c1,0.2,3,0.8,2.7-0.2l-0.5-0.7c-0.8-1.2-1.8-1.2-2.8-2c-2.2-1.7-3.2-3-5.6-4.1c-1.7-0.8-2.7-1.2-4.5-1.5c-1.3-0.2-2.3,0.2-3.6-0.2
	c-1.5-0.5-2-1.2-3.5-2c-2.3-1.3-3.6-2.5-6.1-3.5c-1.7-0.7-4.5-1.3-4.5-1.3l-1.2-0.2l-0.5-0.2c-2.3-0.8,4.1-2.7,7.1-3.5
	c1.5-0.3,2.2-0.7,3.6-0.5c1.3,0.2,2.8,2,4.3,1.2c2.2-1.2-2.5-4.3-4-4.8c-2-0.8-5.5-0.2-5.5-0.2l-7.6-0.2l-2.2-0.3c0,0-1.3,0-2.3-1.2
	s-4.8-5.8-9.1-6.5c-4.5-0.7-5.8,0-6.1-0.3c-3.8-6-7.8-7.3-10.8-10.1c-0.8-0.8-2.2-2.7-2.5-2.5s-0.8,2.7-1.7,4.8
	c-1,2.5-0.3,3.6,0.2,4.6c0.7,1,1.5,1.7-0.2,2.7s-3.8,0.7-3.8,0.7s-1.8-0.3-3.3-1.2c-1.5-0.7-4.6-2-4.6-2s-3-0.8-5-0.7
	c-2,0.2-2.2,0.3-3.6,0.5c-0.8,0-1.2,0-2,0.2c-0.7,0.2-1.5-0.3-1.5,0.5s1.7,0.8,2.8,1.3s3.8,0.5,3.3,1.2c-0.7,0.7-3.2,0.8-3.3,0.7
	c-0.2,0-1.8-0.3-3.2-0.3c-2.2,0.2-2.3,0.2-5.5,1.7c-0.5,0.2-0.3,1.3,0.7,1c1.2-0.3,2.8-0.7,4.6-0.7c2,0,3.2,0.7,5.1,1.2
	c1.7,0.5,1.8,0.8,4.3,1.2c0.5,0,1.5-0.3,1.5,0.3c0,0.3-0.7,0.8-0.7,0.8s-1.5,0.3-1.3,0.8c0.3,0.7,1.7,0,2.3,0c0.7,0,1.7,0.2,1.5,0.8
	l-0.3,0.5c-1.8,0.5-2.8,0.8-4.5,1.5c-4.1,1.7-5.8,3.6-9.8,5.6c-3.8,1.8-9.9,4.1-9.9,4.1s-1.8,1-4.5,1.7S97.8,43,96,43.3
	c-1.8,0.2-2.7,0.5-4.1,1.3c-1,0.5-1.5,1-2.3,1.8l-2.3,3.5l-1.3,2c-0.3,0.7-0.7,1-0.8,1.7c-0.3,0.8-0.5,1.2-0.7,2
	c-0.5,2,0,3.2,0.3,5.1c0.2,0.5,0.2,0.8,0.3,1.3c0.2,0.5,0.8,1,0.8,1l0.7,0.2c0,0,2.3-0.2,3.8-0.5s3.6-0.8,3.6-0.8l2.8-0.8l1.8-0.7
	c0,0,1.2,0,1.3,0.7c0.2,0.5-0.3,1.3-0.3,1.3s-1,0.5-1.8,0.8s-2.8,0.8-3,1l-2.2,0.7l-1.8,0.2c0,0-0.3,0.2-0.7,0.7
	c-0.3,0.5-0.3,0.5-0.3,0.8c0.3,0.3,0.5,0.7,0.8,1c0.7,0.5,1,0.8,1.8,1c1.2,0.5,1.8,0.3,3,0.3c1.7,0,2.7-0.3,4.1-1
	c1.3-0.8,1.8-0.8,3.6-1.5c0.5-0.2,1.5-0.3,1.8-0.3c3.2-0.3,5,0.2,8.1,0.7c3.2,0.5,4.6,1.5,7.8,2c3.3,0.5,5.3,1.5,8.8,0.7
	c1.7-0.3,2.7-1.2,3.5,0.5c0.8,1.5,0.7,2.3,0.7,2.3s0,1-1.2,4.1c-1.2,3.2-4.8,10.9-4.8,10.9l-2.5,5c0,0-2,4-6.6,9.1s-5,5.5-5,5.5
	s-2.5,1.8-5,5s-2.5,4.3-4.8,6.6c-1.5,1.5-2.3,2.3-4.1,3.5c-1.8,1.2-4,0.8-9.8,4.8c-5,3.5-7.6,6.3-8,6.1c-0.3-0.2-2-1.5-2.7-1.8
	c-0.5-0.3-10.1-6.8-10.1-6.8l-4-2.7l-1.8-1.2l-0.3-0.7l-1-1.3c0,0-1.5-1.8-3.3-3.3c-1.8-1.7-3.8-3-6.8-3.6c-2.8-0.8-4.6-1.3-7.5-0.3
	c-1.8,0.7-2.8,1.3-4.1,2.7c-1.7,1.7-2,3-3.3,5s-2.7,3.8-3.3,4.8c-0.7,1-2,3.6-2,3.6s-3.3,5.3-5.1,8.8c-2.2,3.8-3,6.1-5,9.8
	c-3.2,5.8-7.6,11.8-8.8,14.4c-1.2,2.7-1.3,3-1.3,3s-0.3,1.5-0.5,2.5s-0.2,2.7-0.3,3.3c-0.2,0.8-0.7,1.7-0.8,1.8
	c-0.2,0.2-2,4-2.7,6.5S5.1,187.7,7,188.7c1.8,1,15.3-4.8,17.1-10.4c1.2-3.6-3.6-5.5-2.3-8.8c0.5-1.2,0.8-1.3,1.7-2.5
	c1.3-2.2,0.8-6.6,3.3-10.8c1.8-3,5.5-6.8,10.4-12.4c3.2-3.5,6.1-9.1,6.1-9.1s0.7-2,2-1.7c1.5,0.3,2.8,0.2,2.8,0.2l0.7,0.5l1.3,1.3
	l2,3c0,0,3.3,4.8,4.5,6.1s2.3,2.3,4,3.6c1.8,1.7,2.5,2.5,4.8,4.3c3.3,2.7,2.2,3.6-2.2,1.3c-1.5-0.8-3.8-1.7-5.6-2.2
	c-2-0.5-9.5-2.5-13.3-3c-3.6-0.5-4.3-0.3-4.3-0.3s-1.8-0.2-4,1.2c-2.2,1.3-3.3,2.3-3.3,2.3s-2.5,2.8-2.7,3.3s-1.3,2.5-1.3,2.5
	s-0.7,1-0.8,2.2c-0.3,1.2-0.2,2.3-0.2,2.3l0.2,2.5l0.2,2.3c0,0,0.5,5.8,1.7,11.6c0.3,1.7,0.7,4.3,0.7,4.3l0.8,6c0,0,0.5,6.3,1,8.5
	c0.5,2,0.8,2.2,1.2,3.5c0.7,2.5-0.5,3.6,0.7,6.6s2.2,2.7,3.3,4.5c0.8,1.3,1.2,1.7,1.8,3.3c0.7,1.7,2.8,7.1,5.3,11.1
	c2.7,4.1,6.1,9.3,8.5,8.8c2.3-0.5,4-4.1,4-4.1s2.7-7.1,1-14.1c-1.7-7.1-9.3-3.8-10.3-9c-0.2-1.2,0-3,0-3s-0.2-2.2-0.5-2.8
	c-0.3-0.7-3-5.6-4-9.8c-0.8-3.2-0.7-13.3-1.3-16.1c-1.8-7.3-2-6.6-1-8c1.2-1.3,2.2-1,2.2-1l1.5,0.2l1.2,0.5c0,0,1.3,0.8,2.2,1.3
	c0.7,0.5,3,2.3,3,2.3l5.6,3.6c0,0,3.2,1.8,4.5,2.5s2.5,1.5,2.5,1.5l1.5,1l2.5,1.8l0.5,0.5l0.3,0.7c0,0,1.2,2.7,6.1,5.5
	c4,2.3,7.5,1.7,9,3.5c0.3,0.3,3.2,4.1,4.5,6.5c1.7,2.7,3.6,5.8,4.3,6.8s4.8,6.1,4.8,6.1l5.5,6l7.1,6.6l6.5,5.5l4.1,3.3
	c0,0,3.6,3.5,7.8,6.3c4,2.7,4.1,3,6.8,4.8c2,1.3,4.6,3.2,7.3,5.1c2.7,2.2,5.6,6.1,4.5,7.5c-0.8,0.5-2.3-1.7-5.1-4.1
	c-2.3-2-3.5-3-5.8-4.6c-3-2.3-4.5-3.5-7.8-5.5c-1.7-1-4.6-2.8-4.8-2.5c-1.2,3.5-1,6.8-0.8,11.1c0.2,3,0.7,6,1.7,9.8
	c0.8,3.6,1.7,5.6,3,9.1s3.8,9,3.8,9l3.8,7.6l3.5,5.8l1.8,3l0.7,1c0,0,0.8,2,0,3.3s-1.8,4.1-3.3,4.3c-1.5,0.3-5,0.5-5,0.5l-19.7-0.3
	l-10.3-0.8c0,0-1.2-0.7-7.1-0.7c-3.5,0-6.3,1.5-8.3,1.7c-1.7,0.2-9.8-0.5-15.3,1.7c-5.1,2.2-7.5,2.7-9.3,6c-1.3,2.5,6.5,6.5,12.9,8
	c10.4,2.3,7.5-2.2,11.4-5c0.5-0.3,0.7-0.7,1.2-0.8c2.7-0.8,4.1,1.3,6.8,1.3c3,0,4.6-1,7.6-1.5c15.1-2,38.6,5.1,38.6,5.1
	s5.8,1.8,8.5,1.3c3.2-0.7,2.5-1.8,3.5-3.6c0.8-1.5,0.5-1.8,0.7-3.5c0-1-0.2-1.5-0.3-2.5c-0.7-2.8-2.5-6.8-2.5-6.8s-1.3-3-1.8-4.5
	c-0.7-2.2-1.3-3.5-1.7-5.8c-1-6.1-0.8-5.6-0.8-9.1c0-6.3,0.7-9.8,2.3-15.9c2.5-9,7.1-12.8,10.6-21.4c1-2.3,1-5.6,2.2-6
	c1.3-0.2,1.2,4.1,0.5,6.6c-2.2,8.6-7.5,12.3-9.9,21.1c-1.8,6.8-2.8,10.8-2.3,17.7c0.2,3.8,1.7,9.8,1.7,9.8s2,6.6,3,9.1s3,6.6,3,6.6
	l4.5,8l2.3,3.8c0,0,1.7,1.5,0.8,4c-0.8,2.5-2.5,4-4.5,6.1c-5.6,6.6-18.7,16.4-22.1,18.7c-4.6,3.5-4.5,4.5-4.8,5.5
	c-1.8,5.3-7.1,5.5-12.9,11.8c-1.3,1.3-4.8,5-4.1,8.1c0.3,1.2,14.6,3.6,22.9,0.2c6.5-2.8,0.8-6,2.7-9.1c1.3-2.3,4.6-2.3,6.1-4.3
	c2.5-3.3,0.8-3.2,3-5.8c7.1-8.6,11.8-13.6,24.5-21.4c1.2-0.7,3.3-1.7,3.3-1.7s1.8-0.8,2.5-1.8c0.8-1.3,0.7-2.5,0.7-4
	c0-1-0.2-1.5-0.2-2.5c0-1.2,0.2-1.8-0.2-3c-0.3-1.8-1.5-3.3-2.2-4.3c-0.7-0.8-1.8-2.3-2.5-5.5c-0.8-3.2-0.8-5.8,0.5-9.3
	s4.3-6.3,4.3-6.3l7.5-5c0,0,6.5-4.6,8.5-6.5c2.2-1.8,6.3-5.6,9.3-9.9c3.5-4.8,5.3-7.8,6.8-13.6c0.5-2.2,1-5.5,1-5.5s0-2.3,1.3-2.5
	s1.7,0.3,1.7,0.3s1.2,0.7,1.5,4c0.2,3.3-0.8,7.1-0.8,7.1s-1,3.8-1.3,6.1c-0.2,1.5-0.2,2.3-0.2,4c0,2.8,1.2,5.1,1.2,5.1
	s0.7,0.5,0.7-0.7c0-1.3,0.3-3.3,0.8-5.3c0.5-1.7,0.8-1.3,1.8-4.1c1.3-3.6,0.2-3.3,0.8-5.5c0.3-1,1.2-2,2.2-2s1.2,1.3,1.2,1.3
	s1,4.3,0.2,8.3s-3.8,9.5-3.8,9.5l-2.3,4c0,0-1.7,2.8-2.3,4.6c-0.7,2-0.8,2.8-0.5,4.6c0.5,2,2,4.6,2.8,4.1c0.7-0.5-1-2.2,1-6.1
	c2-4,4.6-6.5,4.6-6.5s3.6-4.3,5.3-7.6c1.5-3,3-7.8,3-7.8s1.2-4.3,0.8-8c-0.2-3.5-0.8-5.3-0.8-5.3l-1.5-2.7l-0.8-2l0.3-1.2
	c0.3-0.2,1.5,0.7,2.5,2s2,3,2.5,5.3c0.5,1.7,0.7,3.2,0.7,4.6c0,1.3-0.5,6.8,1.5,10.3c0.8,1.7,2.8,5.5,3,3.8c0.3-3.8-1.3-5.6-1.2-9.1
	c0.2-4,1.2-3,1.5-5c0.3-2.2,0.8-2.7,0.5-5.5c-0.3-2.7-1.5-6.1-1.5-6.1l-1.2-2.7l-0.5-1c0,0,0.3-0.5,0.8-0.5l4-1.3c0,0,5.1-2.3,7.1-4
	c2.2-1.5,4.6-4.1,4.6-4.1s3.3-4.1,5-7.1c4-7.5,4-16.9,3.8-21.2c-0.2-4.1-1.3-9.6-1.3-9.6s-1.3-6.6-1-10.9c0.3-4.3,0.7-6.3,0.7-6.3
	s-0.2-4.3,3.5-9c3.6-4.6,5.3-7.6,6-11.1C273,162.6,272,157.8,270.7,159.6L270.7,159.6z M160.9,129.8c-0.5,0-1.2-0.7-1.2-0.7
	s-0.2-0.2,0.3-0.5s1.2-0.2,1.2-0.2l0.5,0.2l0.8,1.2C162.4,130.3,161.4,130,160.9,129.8z M162.9,124.3c-0.5-0.2-1.3-0.7-1.3-0.7
	s-0.2-0.3,0.3-0.7c0.5-0.3,1.3-0.2,1.3-0.2l0.5,0.3c0.2,0.2,1,1,1,1.3C164.7,125,163.6,124.5,162.9,124.3z M164.7,118.7
	c-0.7-0.2-1.7-0.8-1.7-0.8s-0.2-0.3,0.5-0.7s1.7-0.2,1.7-0.2l0.7,0.3c0.3,0.3,1.2,1.2,1.2,1.7C166.9,119.5,165.4,118.8,164.7,118.7z
	 M166.2,113.5c-0.7-0.2-1.7-0.8-1.7-0.8s-0.2-0.3,0.5-0.7s1.7-0.2,1.7-0.2l0.7,0.3c0.3,0.3,1.2,1.2,1.2,1.7
	C168.4,114.2,166.9,113.5,166.2,113.5z M167.7,107.4c-0.8-0.2-1.8-1-1.8-1s-0.2-0.3,0.5-0.8s1.8-0.2,1.8-0.2l0.7,0.3
	c0.3,0.3,1.3,1.3,1.3,1.8C170.2,108.2,168.4,107.4,167.7,107.4z M168.7,100.8c-1-0.2-2.3-1.2-2.3-1.2s-0.3-0.5,0.7-1
	c0.8-0.5,2.2-0.3,2.2-0.3l0.8,0.5c0.3,0.3,1.5,1.7,1.7,2.3C171.7,101.8,169.7,100.9,168.7,100.8z M169.4,94.1
	c-1.2-0.2-2.8-1.5-2.8-1.5s-0.3-0.5,0.7-1.2s2.7-0.3,2.7-0.3s0.5,0.2,1,0.5c0.5,0.5,1.8,2,2,2.8S170.5,94.3,169.4,94.1z M170.4,86.5
	c-1.3-0.2-3.2-1.7-3.2-1.7s-0.3-0.7,0.8-1.3c1.2-0.8,3-0.3,3-0.3s0.7,0.2,1.2,0.7s2.2,2.3,2.3,3.2C174.5,88,171.7,86.7,170.4,86.5z
	 M169.7,55.7c-1-0.2-2.3-1.2-2.3-1.2s-0.3-0.3,0.7-0.8s2.3-0.2,2.3-0.2s0.5,0.2,0.8,0.5s1.7,1.5,1.7,2.2
	C172.8,56.7,170.7,55.8,169.7,55.7z M173.3,63.1c0.2,0.7-2.2-0.2-3.3-0.3c-1-0.2-2.5-1.3-2.5-1.3s-0.3-0.5,0.7-1
	c1-0.7,2.3-0.3,2.3-0.3s0.5,0.2,1,0.5C172,61.1,173.2,62.5,173.3,63.1z M168.5,75.4c1-0.7,2.7-0.3,2.7-0.3s0.5,0.2,1,0.5
	c0.5,0.5,1.8,2,2,2.8s-2.3-0.2-3.5-0.5c-1.2-0.2-2.8-1.5-2.8-1.5S167.5,76.1,168.5,75.4z M170.7,69.8c-1.2-0.2-2.8-1.5-2.8-1.5
	s-0.3-0.5,0.7-1.2s2.7-0.3,2.7-0.3s0.5,0.2,1,0.5c0.5,0.5,1.8,2,2,2.8C174.3,71.1,171.9,70.1,170.7,69.8z M172.8,44.9
	c1.3,0.3,1.7,1.2,1,1.2c-0.7,0.2-1,0.2-1.5,0.2c-1.5,0-1.3-0.7-3.3,0.3s-0.5,0.5-3.3,1.5c-2.7,1-2-1.7-2-1.7s0.2-0.5,0.5-1.8
	s2,0,3.2,0C169.5,44.6,171.4,44.6,172.8,44.9z M165.4,34.6l0.8,0.5c0.3,0.3,1.5,1.7,1.7,2.3c0.2,0.7-2-0.2-2.8-0.3
	c-1-0.2-2.3-1.2-2.3-1.2s-0.3-0.5,0.7-1C164.2,34.3,165.4,34.6,165.4,34.6z M159.4,26.7c0.8-0.5,2.2-0.3,2.2-0.3l0.8,0.5
	c0.3,0.3,1.5,1.7,1.7,2.3c0.2,0.7-2-0.2-2.8-0.3c-1-0.2-2.3-1.2-2.3-1.2S158.6,27.2,159.4,26.7z M157.8,134.1
	c0.5-0.3,1.2-0.2,1.2-0.2l0.5,0.2l0.8,1.2c0,0.3-1-0.2-1.5-0.2s-1.2-0.7-1.2-0.7S157.3,134.3,157.8,134.1z M91.3,55.2
	c-0.5,0.3-0.8,0.5-1.5,1c-0.8,0.7-1.7,2.3-2.2,1.8c-0.7-0.5-0.3-2.3-0.3-2.3s0.5-1.3,1.2-2.7c0.8-1.3,1.8-1.3,1.8-1.3
	c1,0,2.8,0.7,2.8,2.2C93.3,55.3,92.1,54.7,91.3,55.2z M104.9,60.3c0,0-0.7,0.2-0.8-1c-0.2-1.2,0.8-1.3,0.8-1.3s2-1,2,0.3
	C107,59.5,104.9,60.3,104.9,60.3z M122.6,37.8c0,0-2.2,3.5-5.1,4.8c-3,1.3-5,2-10.6,2.5c-0.8,0-0.5-0.5-0.5-0.5s6.5-1.8,10.1-3.8
	c2-1.2,4.3-2.7,5-3.3C123.8,35.5,122.6,37.8,122.6,37.8z M11.2,181.3c0,0.8-1,2.3-1.3,2.3s-1-1.5-0.8-2.3s0.3-3.2,1.7-2.8
	C11.7,178.7,11.2,180.5,11.2,181.3z M15.5,162.6c0,0-1.5,3.2-2,1.8c-0.5-1.2,0.5-3.3,0.5-3.3c1.3-1.2,1.8-2.8,2.5-2.2
	C17,159.6,15.5,162.6,15.5,162.6z M36.1,130.3c-1.5,1.7-6.1,10.4-7.1,9c-1-1.2,4.5-9.5,5.6-11.1c1.2-1.8,2.2-1.5,2.2-1.5l0.3,0.3
	C36.9,127,37.6,128.6,36.1,130.3z M48.5,117.2c0,0-3.3,0.7-2.8-0.5c0.7-1.2,3-1.7,3-1.7c1.8,0.3,2.2,0.5,2,1.3
	C50.8,117.2,48.5,117.2,48.5,117.2z M61.9,140.4c-1.5,1.5-2-0.5-4.1-3c-2.2-2.3-1.7-4.3-1.7-4.3h0.3l0.3,0.2l0.8,0.3l0.5,0.5
	l1.7,1.7C60.4,136.7,62.3,140.1,61.9,140.4z M36.2,190c-0.5,0-1-1-1-1s-1.3-2-1.8-3.5c-0.5-1.3-0.7-3.5-0.7-3.5s-0.3-2.8-0.3-3.8
	c0.2-1.3,0.2-2.5,0.3-3.2c0.2-0.7,0.8-0.5,0.8-0.5c1,0,1,0.8,1,0.8v0.5c0,0,0,3,0.2,5.3c0,0.7,1.8,8.1,1.8,8.1S36.9,190,36.2,190z
	 M35.9,155.2c-1.2,1.8-2,1.8-2,1.8c0-0.2-0.3-0.8,0.7-2.8s2-1.8,2-1.8l0.3,0.3C36.9,152.7,37.1,153.3,35.9,155.2z M47.7,224.6
	c0.3-0.7,2.5,1,2.5,1c0.8,0.2,1.7,1.7,1.7,1.7s0.3,1.2-0.7,1.5c-1,0.5-1.7-0.5-1.7-0.5S47.3,225.3,47.7,224.6z M63.3,173.9
	c-2.3-0.5-7.3-4.3-9.3-5.3s-5.3-1.3-3.8-2.7c0.2-0.2,0.3-0.5,0.7-0.5c0.3,0,1.8,0.5,1.8,0.5l3.6,1.5c0.2,0,2,0.8,3.5,1.7
	c1.3,0.8,3.6,2.3,3.6,2.3l1,0.8C64.4,172.6,65.6,174.4,63.3,173.9z M83.5,140.9c0,0-2.8,3.8-4.5,6.1c-2.2,3.2-4.8,8-5.3,7.5
	s2.3-5.8,3.8-8.6c1.7-3.5,4.1-5.3,5.1-5.6C84.8,139.2,83.5,140.9,83.5,140.9z M74.5,306.9c0,0,0,0.7-1.2,1.5s-1.7,0.3-1.8,0.3
	c-0.2,0-1.3-0.7-1.3-1.3c0.2-0.7,2-1.2,2-1.2C75.4,306,74.5,306.9,74.5,306.9L74.5,306.9z M100.2,305.9c-1.2-0.2-1.3-0.5-1.2-0.7
	c0-0.2,0.3-0.5,1.7-0.5c1.3,0,1.3,0.7,1.3,0.7C102.1,305.9,101.6,306,100.2,305.9z M129.7,307.5c-2.5,0.7-3.5,0.3-5.6,0.5
	c-1.8,0.2-2.7,0.3-4.5,0.3c-3.2,0-3.5,0.2-8-1.2c-0.8-0.3-1.8-1.3-1.5-1.7c0.3-0.5,1-0.3,1-0.3s5.6,1,9.3,1.2c2.7,0.2,4,0.3,6.6,0.2
	c1.5,0,0.7-0.2,3-0.2C130.9,306.2,130.4,307.4,129.7,307.5z M145.5,302.9c-0.2,0.2-1.2,0.5-2,0.7c-1,0.2-0.5-0.7-0.5-0.7
	s0.7-1,1.5-1.5c1-0.5,1.5,0,1.5,0C146.3,302,145.7,302.7,145.5,302.9z M157.8,271c-1.2,2.5-1.5,3.3-1.7,5.6
	c-0.3,2.5,1.2,9.5-1.2,6.8c-0.8-1.2-1.7-6.6-1-9.3C155.1,268.2,159.9,266.6,157.8,271z M124.3,372.3c-1,0.7,1,2.7-2.2,2.5
	c-1.8-0.2-0.8-1.8-0.7-2l1.2-1.7c0.8-1.2,1.3-1.3,2.2-1.8c0.8-0.5,1.5,0.8,1.5,0.8s0.3,0.5,0.3,1.2
	C126.6,371.8,125.1,371.7,124.3,372.3z M141.7,355.6l-1.5,1.2c-0.2,0-1.2,0.8-1.5,0.3s0.2-1.2,0.2-1.3s1-1.3,1.8-1.7
	c0.8-0.5,1.3,0,1.3,0C142.5,355.3,141.7,355.6,141.7,355.6L141.7,355.6z M149.5,65.1c0,0-0.7,2.2-2,2.7c-1.7,0.5-8,0.7-8.1,0.2
	c-0.2-0.5,7.3-1.2,10.1-4C150.1,63.3,149.5,65.1,149.5,65.1z M147.1,59.7c0.5-0.8,0.2,1.3,0.2,1.3s-0.5,2.2-1.7,2.8
	c-1.5,0.8-5.1,1.8-5.5,1.3C140.2,64.8,145,63.3,147.1,59.7z M136.9,34.8c0,0,0.7,0,1.7,0.5c1,0.7,1.7,2.7,1.7,2.7s0.2,0.3-0.7,0.3
	c-0.5,0-0.5-0.8-1-1.2c-0.7-0.5-1.2-0.7-2-1s-2,0.2-2.2-0.7C134.4,34.5,136.9,34.8,136.9,34.8z M129.2,40.3c0,0,0.3-1,1.8-1.8
	c1.3-0.8,3.2-0.8,3.2-0.8s1,0,2.2,0.8s2.2,3.6,2.2,3.6s0.3,1.8-0.5,2.5s-2.2-0.5-2.8-1.5c-0.8-1-1.3-1.3-2.5-1.7
	c-1.3-0.5-3.3,1-3.6,0C129.1,41.1,129.2,40.3,129.2,40.3z M128.7,63.1c-1,0.2-0.3-0.8-0.3-0.8s2.8-1.2,4.6-2.2
	c3-1.5,8.6-7.5,7.1-4.6c-0.7,1.3-2.7,3-2.7,3s-2.3,3.3-2.8,3.8C132.6,64,129.9,63,128.7,63.1L128.7,63.1z M105.4,127.5l0.2-0.3
	c0,0,5-3.3,12.8-2.3c4.6,0.7,9.1,4.8,8.5,5.3c-0.7,0.5-1.7,0-2,0l-1.7-0.8l-2.5-0.7c0,0-4.5-1-7.8-0.8s-6.3,1.3-6.3,1.3
	s-1.3,0.7-1.7-0.2C104.7,128,105.4,127.5,105.4,127.5z M117.6,220.8c-11.4-8.8-25.4-26.7-23.7-28.4c1.5-1.3,7.1,7,15.6,16.1
	c9,9.6,19.4,18.7,19.7,19.9C129.9,230.4,121.9,224.1,117.6,220.8L117.6,220.8z M143.7,97c-4.8,8.3-11.4,14.6-11.4,14.6
	c-2.3,1.7-0.8-1.3-0.8-1.3s6.5-9,9.5-15.3c2.2-4.5,3.5-10.4,4.5-11.6C147.6,80.5,146.5,92,143.7,97z M156.9,187.8
	c-5-6-8.6-12.4-9.8-20.6c-0.3-1.8-0.3-4.5,1.3-4.1c1.5,0.2,1.3,3,1.3,3.6c0.5,4.8,2.5,9.6,6.1,15.4c5.1,8.1,13.4,14.4,13.1,14.9
	C168.2,197.9,159.9,191.5,156.9,187.8z M158.4,342.8c-2.8,2.7-7.6,6.3-7.6,6.3h-0.7v-0.8l0.2-0.3l0.3-0.5l0.3-0.5l0.3-0.5l1-1.2
	l2.3-2.2l2.3-2.2l3.6-3.6c0,0,1.3-1.5,1.8-1.8s0.8-0.7,1.3-1c0.7-0.3,1.5-0.8,1.8-0.5v0.7C165.7,335.2,161.4,340,158.4,342.8
	L158.4,342.8z M168.7,220.1c-2.2,1.5-3,1.3-4.3,2.8c-1.5,1.8-2,8-3.5,5.5s-0.5-6,2-8.6C165.9,216.3,172.3,217.5,168.7,220.1z
	 M176.5,329.2c1-0.3,1.5-0.2,1.5-0.2l0.3,0.7c0,0.2-1.3,2-2,2c-0.8-0.2-0.5-1.2-0.5-1.2S175.5,329.6,176.5,329.2L176.5,329.2z
	 M204.8,261.8c-1.5-1,0.8-4,0.8-6.5c0-2-0.3-3.5-0.3-5.1s1.7-2.2,1.7-2.2c0.3,0,1,0.3,1.8,2C209.7,251.6,207.5,263.4,204.8,261.8z
	 M255.6,214.3c-0.3,7-0.7,11.9-4.8,17.2c-5,6.5-13.6,13.1-11.8,7.8c1.2-3.2,8.8-7.1,11.8-15.9c1.7-5.3,2-10.3,2-10.3l-0.3-10.1
	c0,0-0.2-0.8-0.2-2c0.5-1.3,1.2-0.3,1.2-0.3l0.3,0.5C253.8,201.6,255.7,209.4,255.6,214.3z"/>
</svg>
