<?xml version="1.0" encoding="utf-8"?>
<!-- Generator: Adobe Illustrator 27.0.0, SVG Export Plug-In . SVG Version: 6.00 Build 0)  -->
<svg version="1.1" id="Layer_1" xmlns="http://www.w3.org/2000/svg" xmlns:xlink="http://www.w3.org/1999/xlink" x="0px" y="0px"
	 viewBox="0 0 348 282" style="enable-background:new 0 0 348 282;" xml:space="preserve">
<style type="text/css">
	.st0{filter:url(#Adobe_OpacityMaskFilter);}
	.st1{fill-rule:evenodd;clip-rule:evenodd;fill:#FFFFFF;}
	.st2{mask:url(#mask-2_00000044859511958555327280000002563325668762935977_);fill-rule:evenodd;clip-rule:evenodd;fill:#8400DF;}
</style>
<g id="HARLEY-DAVIDSON_OUTLINE_RGB_BLACK">
	<g id="Group-3">
		<g id="Clip-2">
		</g>
		<defs>
			<filter id="Adobe_OpacityMaskFilter" filterUnits="userSpaceOnUse" x="0" y="0.7" width="347" height="281.3">
				<feColorMatrix  type="matrix" values="1 0 0 0 0  0 1 0 0 0  0 0 1 0 0  0 0 0 1 0"/>
			</filter>
		</defs>
		
			<mask maskUnits="userSpaceOnUse" x="0" y="0.7" width="347" height="281.3" id="mask-2_00000044859511958555327280000002563325668762935977_">
			<g class="st0">
				<polygon id="path-1_00000043441122894525037620000009324728887434241977_" class="st1" points="0,0.7 347,0.7 347,281.9 
					0,281.9 				"/>
			</g>
		</mask>
		<path id="Fill-1" class="st2" d="M21.4,166.6h304.2v-48H21.4V166.6z M264.3,209.5c0,0-39.3,35.9-90.8,48.9
			c-51.5-13-90.8-48.9-90.8-48.9c11.7-7,15.6-16.1,17-21.7h147.6C248.6,193.4,252.6,202.5,264.3,209.5z M82.4,66.2
			c0,0,44.2,2.3,91.1-32.6c46.9,34.9,91.1,32.6,91.1,32.6c-14.3,14.6-16.7,26.2-17,31.2H99.4C99.1,92.4,96.8,80.8,82.4,66.2z
			 M347,97.4h-76.2c0.4-12.1,16.1-17.9,16.1-17.9V48.2C201.8,43.6,173.5,0.7,173.5,0.7S145.3,43.6,60.1,48.2v31.3
			c0,0,15.7,5.8,16.1,17.9H0v90.4h76c-4.3,15.6-26,19.5-26,19.5c62,64.3,123.5,74.7,123.5,74.7S235,271.7,297,207.3
			c0,0-21.7-3.9-26-19.5h76V97.4L347,97.4z"/>
	</g>
</g>
</svg>
