<?xml version="1.0" encoding="utf-8"?>
<!-- Generator: Adobe Illustrator 27.0.0, SVG Export Plug-In . SVG Version: 6.00 Build 0)  -->
<svg version="1.0" id="katman_1" xmlns="http://www.w3.org/2000/svg" xmlns:xlink="http://www.w3.org/1999/xlink" x="0px" y="0px"
	 viewBox="0 0 214.2 261.8" style="enable-background:new 0 0 214.2 261.8;" xml:space="preserve">
<desc>Created with Sketch.</desc>
<path fill="#1a44f5" d="M106.4,3c-22.7,0.1-45.3,2.9-67.3,8.2C28.2,14,17.6,17.6,7.2,21.7l-0.6,0.3c0,0,1.3,77.5,2.2,115.9
	c0.3,11.3,2.4,22.4,6.2,33.2c4.4,12.1,10.2,23.6,17.3,34.3c10.5,15.5,24,28.7,39.7,38.8c7,4.2,14.3,7.9,21.8,11
	c2.5,1.1,4.7,2.1,6.6,2.7c2.1,0.9,4.2,1.5,6.3,2c2.2-0.5,4.3-1.2,6.3-1.9c2.1-0.7,4.2-1.7,6.7-2.7c12.6-4.8,24.3-11.7,34.6-20.4
	c10.4-8.5,19.4-18.5,26.9-29.6c7.2-10.8,13-22.2,17.3-34.3c3.9-10.8,5.9-21.9,6.2-33.2c0.9-38.5,2.2-115.9,2.2-115.9l-0.7-0.4
	C181.6,11.7,155.5,5.7,129,3.9C121.5,3.3,114.7,3,107.1,3H106.4L106.4,3z M106.4,6.9h0.6c21.8,0.2,43.5,2.9,64.7,8.1
	c10.4,2.7,20.6,5.9,30.7,10l0.6,0.3l-0.4,24.3h-0.3c-23.7-9.6-48.7-15.5-74.2-17.3c-7-0.7-14-1-21-1.2h-0.6
	c-21.8,0.2-43.5,3-64.7,8.2C31.3,42.1,21,45.5,10.9,49.6l-0.4-24.5l0.6-0.2C34.9,15.3,60,9.5,85.5,7.7C92.5,7.1,99.5,6.8,106.4,6.9
	L106.4,6.9z M99.2,10.6c-0.5,0.1-1,0.3-1.4,0.6c-0.4,0.2-0.6,0.6-0.7,1v3.8l-0.1,3.6c0,0.4,0.4,0.9,0.7,1.1c0.4,0.4,0.9,0.4,1.5,0.5
	h4.8l5,0.1l5,0.3c0.4,0,0.6,0.2,0.7,0.5v2c0,0.4,0,0.7-0.2,1.1c-0.1,0.3-0.4,0.4-1,0.4h-4.4l-2.4-0.1h-6.3l-3.7,0.2l-0.2,3.2
	l5.2-0.2l4-0.1h3.2l2.9,0.1l2,0.1h2.2c0.5,0,1.1-0.2,1.5-0.5c0.4-0.3,0.6-0.7,0.7-1.2v-3.6l0.1-3.6c-0.1-0.4-0.3-0.8-0.6-1.1
	c-0.3-0.3-0.7-0.4-1.2-0.5l-4.6-0.2H101l-0.3-0.2c-0.2-0.2-0.3-0.4-0.3-0.6v-1.3c0-0.5,0-1.1,0.2-1.6c0.1-0.2,0.4-0.4,0.9-0.4
	l11.2,0.1h1.6l3.9,0.1v-3.2l-5.2-0.2L99.2,10.6L99.2,10.6z M88.5,11.1c-1.9,0-19.2,1.8-19.2,1.8v18.4l2-0.2l1.9-0.3v-5.7L84,23.9
	c1.4,0,2.7,0.7,3.3,2c0.5,1.1,0.9,2.3,1.3,3.6l4.2-0.4c-0.1-1.2-0.4-2.3-0.9-3.3c-0.6-1.3-1.6-2.5-2.7-3.5c1-0.6,1.7-1.6,2-2.7
	c0.1-2.2,0-4.3-0.2-6.4C90.9,12.2,90.4,11.2,88.5,11.1z M127.3,11.3c-0.9,0-1.9,0.3-2.6,0.9c-0.7,0.5-1.2,1.3-1.3,2.2v12.9l0.1,0.9
	c0.1,0.4,0.3,0.6,0.5,0.8c0.3,0.4,0.7,0.6,1.3,0.7h0.8l0.2,0.1h0.2l8.4,0.9l8.7,0.9l1.3,0.3v-3.4l-1.5-0.3l-1.2-0.1h-0.3l-7.2-0.9
	l-7.2-0.9c-0.1,0-0.3,0-0.4-0.2l-0.1-0.4v-9.8c0-0.4,0-0.7,0.4-0.9c0.3-0.2,0.6-0.3,0.9-0.4c1.6,0.1,15,1.9,17,2.2v-3.6L133.9,12
	L127.3,11.3L127.3,11.3z M148.7,14.1V15c0,1.1,0,2.6-0.2,4.3c0,2.3-0.1,4.6-0.2,6.9l-0.1,1.5v2.2l-0.1,2.2l0.9,0.2l0.5,0.2l0.9,0.1
	l1.4,0.2l0.1-1.3v-1.1l0.1-1.3v-3.6c0.2,0,0.5,0,0.7,0.1h0.3l4.3,0.9l6.6,1.3l0.5,0.2l0.7,0.2l0.8,0.2V32l-0.1,1.2v1.4l-0.1,0.7
	l1.2,0.3l0.7,0.2l0.7,0.2l1,0.3v-1.8c0.2-2.2,0.2-4.5,0.3-7.2v-8.8l-1.4-0.4l-1.9-0.4v2.8l-0.2,1.8v3h-0.1l-0.9-0.2l-0.7-0.2
	l-0.5-0.1l-0.5-0.2l-4.2-0.9l-4.3-0.8h-0.4l-1.1-0.3l-1.1-0.2h-0.3v-7.7l-0.9-0.2h-0.6l-0.7-0.2L148.7,14.1L148.7,14.1z M61.8,14.4
	l-17,3.3c-1.3,0.4-2.7,1.4-2.7,2.8v12.3c0,1.3,1.6,3,2.9,2.7l17-3.3c1.6-0.4,2.7-1.8,2.9-3.4V16.4C64.6,15,63.2,14.1,61.8,14.4
	C61.9,14.4,61.9,14.4,61.8,14.4L61.8,14.4z M85.5,15c0.5,0,0.9,0,1.3,0.4c0.3,0.3,0.4,0.5,0.4,0.9v2.1c0,0.6-0.2,1.2-0.6,1.6
	c-0.4,0.4-1,0.7-1.6,0.7l-6,0.5l-6,0.5v-5.6L85.5,15L85.5,15z M58.8,17.9c1.6-0.2,2.1,0.7,2.1,1.8v7.9c0.1,1-0.6,1.9-1.6,2.2
	l-12.1,2.3c-1.2,0.3-1.9-0.6-1.9-1.7v-7.8c0-1.6,0.7-2.3,2.6-2.7C47.9,19.9,58.8,17.9,58.8,17.9z M175.1,19.5l-0.2,10.8l-0.2,7.4
	l10,3c3.2,1.1,6.8,2.2,10.4,3.5l0.4,0.1l1.2,0.4c0.2-1.3,0.2-2.3,0.2-3.6l-1-0.4h-0.2l-0.2-0.1c-1.8-0.7-3.9-1.3-5.8-2l-6.1-2
	l-1.3-0.4l-1.4-0.4l-1.5-0.4l-0.8-0.3v-1.8l0.1-1.8l2,0.5l7.4,2.2l7,2.4l0.7,0.2l1.2,0.4v-3.8l-1.1-0.4l-0.5-0.1
	c-4.3-1.6-8.6-3-13-4.2l-1-0.3l-1.1-0.3l-0.5-0.2l-0.9-0.3v-3.7l1.3,0.4l1.6,0.4l1.4,0.4h0.1c3.9,1.1,7.8,2.3,11.6,3.7l0.9,0.4
	l1.3,0.5v-3.3l-0.9-0.4l-0.8-0.3h-0.1C188.6,23.5,181.9,21.3,175.1,19.5z M36,20.2h-1.2c-7,2.2-13.9,4.5-20.8,7.1l0.2,9.2v8.6
	l4.8-1.6v-6.3l17.9-5.6c0.4-0.1,0.7-0.4,0.9-0.7c0.3-0.2,0.4-0.6,0.5-0.9c0-0.1,0.1-0.3,0.1-0.4l-0.2-7.3c-0.1-0.7-0.5-1.4-1.2-1.8
	C36.7,20.3,36.3,20.2,36,20.2z M32.5,24h0.2c0.4,0,0.7,0.1,0.9,0.4c0.3,0.3,0.4,0.5,0.4,0.9l0.2,2.6c-0.1,0.5-0.3,0.9-0.6,1.2
	c-0.3,0.3-0.7,0.5-1.1,0.6l-13.8,4.5l-0.1-5.4c0,0,5.4-2.2,7.6-3C28.3,25.1,32.5,24,32.5,24z M104.4,34.6V84H72.8
	c-0.4,0-0.2-0.2,0.2-0.5c2.2-1.7,4.8-2.8,7.6-3.3c0.3,0,0.4-0.1,0-0.5c-2.7-2.7-6.5-3.6-10-2.3c-3.1,1.1-5.6,3.4-6.7,6.5
	c0,0.3-0.2,0.4-0.4,0.4l-5.1,0.2c-0.3,0-0.4-0.4-0.4-0.6c0.4-2.2,1.8-4,3.7-5.1c1.7-1.2,3.6-1.8,5.6-2h0.1c0.2-0.1,0.2-0.4,0.1-0.6
	c-0.3-0.4-0.7-0.7-1.2-1C64.7,74,62.8,73.7,61,74c-5.4,0.6-9.7,4.9-10.1,10.4c-0.1,0.6,0,0.8-0.5,1c-1.3,0.4-3.5,0.7-4.7,0.9
	c-0.2,0.1-0.5-0.4-0.4-0.6c0.4-2.1,1.3-3.9,2.6-5.6c0.9-1.3,2.2-2.3,3.6-3.1c0.4-0.1,0.5-0.4,0.4-0.6c-2.7-2.4-8.3,0.1-10.6,2.6
	c-2.1,2.7-3.1,6.3-2.9,9.7v0.5L34,90.7l-0.2-0.4c-0.4-2.6,0.2-5.1,1.6-7.3c0.6-1.1,1.5-2,2.6-2.7v-0.2c-1.3-1.6-6.1-0.5-7.6,0.9
	c-3.4,3.4-3.1,6.6-3.3,11.8c0,0.3-0.4,1.2-0.6,1.3c-0.6,0.4-1.3,0.7-2,0.8h-0.3l-0.4-0.9c-1.2-2-3.7-2.7-5.7-1.5
	c-0.2,0-0.3,0.2-0.4,0.3c-1.6,1.4-1.8,3.8-0.4,5.4c0.2,0.2,0.3,0.4,0,0.4c-2.4,0.7-3.7,3.2-3,5.6c0,0.1,0,0.1,0.1,0.2
	c0.5,1.3,1.8,2.2,3.2,2.2c1.4,0,2.8-0.4,3.9-1.2c0.2-0.2,0.4-0.1,0.6,0c1.2,2,3.8,2.6,5.6,1.4c1.8-1.2,2.5-3,1.3-6
	c-0.1-0.2,0.2-0.4,0.4-0.6c10.2-5.9,21.8-9.1,33.6-9.4c1.7,0.2,3.3,0.5,4.9,1.2h0.2v10.1l-0.3,0.3c-2.2,1.3-3.9,3.4-4.7,5.9
	c0,0.2,0,0.2-0.4,0.2l-6.3,0.7c-0.2,0-0.4-0.3-0.4-0.4c1.5-3.9,4.2-7.4,7.8-9.7c0.1-0.2,0.1-0.5,0-0.7c-0.5-0.5-1.1-0.9-1.8-1.1
	c-3.6-0.3-7.2,1.2-9.5,3.9c-2.2,2.7-3.3,5.9-3.3,9.3c0,0.3,0,0.6-0.3,0.7l-4.1,1.2c-0.2,0-0.4-0.2-0.4-0.4c-0.7-4.4,1.4-8.8,5.2-11
	c0.5-0.4-0.4-1.1-1.1-1.1c-4.1-0.2-8,2-9.9,5.6c-0.9,2.7-1,5.7-0.3,8.5c0,0.3,0.2,0.7,0,0.7l-3.6,1.2c-0.2,0.1-0.4,0-0.4-0.4
	c-0.5-1.7-0.6-3.5-0.2-5.2c0.4-2,1.4-3.8,2.9-5.2V105c-1.3-0.6-2.8-0.7-4.1-0.3c-2.2,0.6-4,2-5,4c-1.8,3.2-1.3,6.3,0.5,10.8
	c0,0.3,0.2,0.6,0,0.8l-1.5,0.9c-0.1,0.1-0.3,0-0.4-0.2c-0.6-0.9-1.3-2.2-2.2-2.6c-1.5-0.7-3.2-0.6-4.6,0.4c-1.3,1.2-1.8,3-1.3,4.7
	l1,1.6c0.1,0.1,0,0.4-0.1,0.4c-0.6,0.5-1.5,0.9-2.1,1.5c-1.1,1.5-1.1,3.5,0,5c1,1.6,3,2.2,4.8,1.3c0.9-0.4,1.7-0.8,2.5-1.3
	c0.3-0.2,0.4-0.5,0.7-0.3c0.6,0.7,1.4,1.3,2.4,1.6c1.3,0.4,2.7,0.2,3.8-0.6c1.3-0.7,2.1-2.1,1.8-3.6c-0.3-1-0.9-2-1.5-2.9
	c-0.4-0.4-0.4-0.4,0-0.6c5.6-3.2,11.7-5.8,17.8-7.7c5.9-1.8,12-2.6,18.1-2.2h0.4v20.9H12.5l-1.5-83.8l0.2-0.1
	c23.7-9.6,48.8-15.4,74.3-17.1C92,34.9,98,34.7,104.4,34.6z M72.2,43.4c-2.9-0.2-5.7,0.7-8.2,2.4c-3,2.1-4.9,8.2-5.4,10.5
	c0,0.2-0.1,0.4-0.4,0.4c-2.5,0.3-4.9,0.7-7.4,1.3c0.2-2.4,1.2-4.6,2.7-6.3c1.7-1.6,3.5-3,5.4-4.3c0.1-0.1,0-0.4-0.2-0.5
	c-2.7-1.1-5.8-1.1-8.5,0.1c-3.9,1.7-6.5,5.2-7.2,9.3c-0.3,1.4-0.4,3-0.4,4.5l-0.4,0.2l-7.6,2.5l-0.4-0.1c-0.1-2.5,0.5-4.9,1.8-7.1
	c1.3-2.1,3.7-3.2,5.4-5c0.2-0.1,0.4-0.4,0.2-0.5c-4.4-1.8-8.5,0-12,4c-2.4,3.6-3.1,7.9-2.2,12.1c0.1,0.4,0,0.7-0.2,0.9l-2.4,0.9
	c-0.2,0-0.4,0-0.4-0.2c-1.1-3.2-4.8-2.6-6.5-1.6c-1.8,1.1-2.5,3.4-1.4,5.2c0,0.3,0,0.4-0.2,0.5c-2.3,1.2-3.3,3.9-2.2,6.3
	c0.9,1.6,2.8,2.2,4.5,1.5l2.7-1.3h0.3c0,0,0,0.2,0.2,0.2c1.4,1.8,4,2.2,5.9,0.6c1.2-0.9,1.7-1,2.2-2.6c0.2-1.2-0.2-2.3-0.9-3.2
	c-0.2,0,0-0.4,0-0.4c14-7.2,29.3-11.1,45-11.5c5.6,0.2,11.1,2.2,15.4,5.9c0.2,0.2,0.4,0.4,0.7,0.4c0.3-0.1,0.4-0.4,0.5-0.6
	c0.8-2.6-0.1-5.5-2.2-7.3c-1.8-1.8-4-3.1-6.5-3.7c-0.2,0-0.2-0.4-0.1-0.4c0.9-1,2.2-1.8,3.6-2.3c2.1-0.4,4.2-0.5,6.5-0.5
	c0.1,0,0.4-0.2,0.4-0.4c-0.9-2.4-3.1-4.1-5.6-4.2c-2.5-0.3-5.1,0.1-7.4,1.1c-2.4,1.3-4.3,3.4-5.4,5.9L73.7,56h-6.5
	c-0.1,0-0.3,0-0.3-0.2c0.3-2.2,1.2-4,2.7-5.6c2.2-1.8,4.7-3.3,7.3-4.1c0.3-0.1,0.4-0.4,0.4-0.6c-0.6-0.8-1.3-1.4-2.2-1.8
	C74.2,43.5,73.2,43.4,72.2,43.4L72.2,43.4z M202.5,52.8v4.8h-0.8h0.8V52.8z M107.7,60.6h94.7c0,7.4-0.2,15.2-0.4,23.5h-94.2
	L107.7,60.6L107.7,60.6z M71.2,87.3h71.4c0.2,0,0.2,0.1,0.2,0.2v55c0,2.9-0.5,5.6-1.5,8.2c-2.9,7.4-8.4,13.4-15.4,17
	c-5.6,3.3-12.1,5.2-18.6,5.3c-9-0.1-17.5-3.4-24.2-9.2c-7.3-5.6-11.6-14.1-11.8-23.3V87.6L71.2,87.3z M146,87.5v0.4V87.5z
	 M201.9,87.5l-0.4,20.6h-0.8h0.9C201.6,108.1,201.9,87.5,201.9,87.5z M119.7,92c-0.4,0.1-0.9,0.4-1,0.9l-2.5,7.7l0.1,0.6l0.5,0.3
	c0.4,0,0.6,0,0.7-0.4l0.4-1.3h3.6l0.4,1.3c0,0.3,0.4,0.4,0.6,0.4c0.2,0,0.5-0.1,0.6-0.3c0.1-0.2,0.1-0.5,0-0.7l-2.7-7.7
	C120.3,92.4,120,92.1,119.7,92L119.7,92z M97.3,92.1c-0.4,0-0.7,0.3-0.7,0.6s0.3,0.6,0.7,0.6h1.2v7.4c0,0.4,0.4,0.6,0.7,0.6
	s0.6-0.3,0.6-0.6v-7.4h1.3c0.3,0,0.6-0.3,0.6-0.6s-0.3-0.6-0.6-0.6C101,92.1,97.3,92.1,97.3,92.1z M103.2,92.1
	c-0.3,0-0.6,0.3-0.6,0.6s0.3,0.6,0.6,0.6h1.3v7.4c0,0.4,0.4,0.6,0.7,0.6s0.6-0.3,0.6-0.6v-7.4h1.3c0.3,0,0.6-0.3,0.6-0.6
	s-0.3-0.6-0.6-0.6H103.2z M111.8,92.1c-1-0.1-1.9,0.5-2.3,1.3c-0.6,1-0.9,2.1-0.9,3.2c0,1.2,0.3,2.2,0.8,3.3
	c0.4,0.9,1.3,1.5,2.4,1.5c0.6,0,1.1-0.2,1.6-0.4c0.8-0.6,1.3-1.5,1.5-2.5c0.1-0.5,0.2-1.1,0.2-1.6c0-0.4-0.2-0.9-0.9-0.9h-2
	c-0.5,0-0.6,0.2-0.6,0.4c0,0.4,0.2,0.6,0.5,0.6h1.5v0.4c0.1,1.2-0.7,2.3-1.8,2.6c-0.7,0-1.4-0.5-1.6-1.2c-0.4-0.7-0.5-1.5-0.5-2.3
	c0-0.9,0.3-1.7,0.6-2.4c0.2-0.6,0.8-1,1.4-1.1c0.6,0,1.1,0.4,1.4,0.9c0.1,0.3,0.4,0.4,0.7,0.3c0.3,0,0.4-0.4,0.4-0.6
	C113.9,92.7,112.9,92,111.8,92.1z M132.6,92.1c-0.4,0-0.7,0.3-0.7,0.6s0.3,0.6,0.7,0.6h1.3v7.4c0,0.4,0.3,0.6,0.6,0.6
	s0.6-0.3,0.6-0.6v-7.4h1.3c0.4,0,0.6-0.3,0.6-0.6s-0.3-0.6-0.6-0.6H132.6z M79.6,92.1c-0.7-0.1-1.5,0.1-2.1,0.5
	c-0.6,0.4-1,1.1-1,1.8c-0.1,0.7,0.2,1.5,0.7,2.1c0.4,0.5,1.1,0.8,1.8,0.8c0.9,0,1.6,0.3,2.1,1c0.2,0.4,0,0.9-0.3,1.3
	c-0.4,0.4-1,0.6-1.6,0.5c-0.6,0-1.2-0.3-1.6-0.7c-0.2-0.3-0.6-0.4-0.9-0.3c-0.4,0.2-0.4,0.7-0.4,0.9c0.6,0.9,1.6,1.5,2.8,1.4
	c1,0.1,2-0.2,2.7-0.9c0.5-0.5,0.7-1.2,0.7-1.9c0.1-0.7-0.3-1.5-0.9-1.9c-0.9-0.5-1.9-0.8-2.9-0.9c-0.6-0.1-1-0.7-0.9-1.3
	c0.2-0.8,0.9-1.2,1.5-1.1c0.6,0,1.3,0.2,1.7,0.7c0.4,0.4,1,0,1-0.4C82.1,93.3,81.5,92.1,79.6,92.1z M83.8,92.1
	c-0.3,0-0.6,0.3-0.6,0.6c0,0,0,0.1,0,0.1c0,0.3,0.3,0.6,0.6,0.6h1.3v7.3c0,0.4,0.3,0.7,0.6,0.7c0.4,0,0.7-0.4,0.7-0.7v-7.3h1.3
	c0.3,0,0.6-0.3,0.6-0.6c0-0.3-0.2-0.7-0.5-0.7c0,0-0.1,0-0.1,0H83.8z M125.3,92.1l-0.5,0.3c-0.1,0.1-0.2,0.3-0.2,0.4v7.8
	c0,0.4,0.2,0.6,0.5,0.7h0.1c0.4,0,0.7-0.3,0.7-0.6v-2.5h1.3l2,2.7c0.2,0.3,0.4,0.4,0.6,0.4c0.4,0,0.6-0.3,0.6-0.5
	c0-0.2-0.1-0.5-0.3-0.6l-1.6-2.2h0.2c0.5-0.2,0.9-0.5,1.3-0.9c0.6-0.5,0.9-1.3,0.8-2.1c0-0.9-0.5-1.7-1.2-2.2
	c-0.7-0.4-1.4-0.6-2.2-0.6C127.4,92.1,125.3,92.1,125.3,92.1z M90,92.1c-0.3,0-0.6,0.3-0.6,0.6c0,0,0,0.1,0,0.1v4.7
	c0,0.9,0.2,2,0.6,2.8c0.6,0.8,1.5,1.2,2.5,1.1c0.9,0.2,1.8-0.3,2.4-1.1c0.4-0.9,0.7-1.8,0.6-2.8v-4.7c0-0.3-0.3-0.6-0.6-0.6
	c0,0-0.1,0-0.1,0c-0.3,0-0.6,0.3-0.6,0.6v5c0,0.6-0.1,1.2-0.4,1.7c-0.3,0.4-0.8,0.6-1.3,0.5c-0.5,0.1-1-0.1-1.3-0.5
	c-0.3-0.5-0.5-1.1-0.4-1.7v-5C90.7,92.5,90.5,92.2,90,92.1C90.1,92.2,90,92.2,90,92.1L90,92.1z M125.9,93.5h1.7c0.5,0,1,0.1,1.3,0.4
	c0.4,0.4,0.5,0.7,0.5,1.2c0,1.1-0.9,1.9-2,1.9H126L125.9,93.5L125.9,93.5z M119.6,93.6l1.6,5h-3L119.6,93.6z M107.1,104.5
	c-0.9,0.3-1.8,0.5-2.5,1c-0.6,0.5-1.1,1.1-1.5,1.8c-0.1,0.1-0.2,0.2-0.4,0.3l-0.5,0.1l-1.9,0.9c-0.6,0.3-1.2,0.7-1.8,0.9
	c-0.5,0.2-0.9,0.3-1.4,0.4c-1.1-0.2-2.3-0.1-2.7,1.1c0,0.3,0.1,0.5,0.4,0.6c0.2,0.1,0.3,0.2,0.5,0.3l0.6,0.3c0.2,0,0.3,0,0.4,0.2
	l0.1,0.2v0.1c0,0.2-0.3,0.4-0.4,0.4c-0.6,0.1-1.1,0-1.6-0.3h-0.1c-0.2-0.2-0.5-0.2-0.7,0c-1.1,0.9-2.2,1.8-3.4,2.5l-0.4,0.4
	l-0.1,0.2v0.3c0,0.3-0.3,0.4-0.5,0.4c-0.2,0.1-0.4,0.3-0.4,0.5v0.5c0.1,0.4,0.4,0.6,0.9,0.6h0.2l0.9-0.4H91l0.1,0.1v0.4
	c-0.1,0.2-0.2,0.4-0.4,0.5c-0.2,0.3-0.3,0.5,0,0.7c0.4,0.4,1,0.3,1.3-0.1c0.2-0.2,0.3-0.5,0.4-0.7c0.1-0.3,0.3-0.5,0.6-0.5
	c0.5-0.2,1.1-0.3,1.6-0.4c0.4,0,0.8,0,1.1,0.3l0.3,0.3v0.2c-0.1,0.4-0.2,0.7-0.4,1.1l-0.3,0.9l-0.3,0.8l-0.4,0.4l-1.6,1.3
	c-0.9,0.8-1.5,1.6-2.2,2.7c-0.2,0.3-0.3,0.6-0.4,0.9c-0.2,0.9-0.4,2-1.3,1.3c-0.9-0.4-1.8-1.1-2.7-1.8c-0.3-0.2-0.7-0.5-0.9-0.9
	c-0.9-1.3-2,0-2.5,0.9c-1,1.7-2.2,3.3-3.5,4.8c-0.1,0.4-0.3,0.7-0.5,1c-0.3,0.4-0.5,0.9-0.4,1.4c0,0.9-0.3,1.7-0.7,2.4
	c-0.4,0.4-0.6,0.9-0.6,1.4v1.4c0,0.4,0.2,0.6,0.5,0.6h0.3c0.7-0.3,1.4-0.7,2.1-1.3l0.3-0.2c0.2-0.2,0.2-0.5,0.1-0.7l-0.1-0.2
	l-0.2-0.2c-0.1-0.1-0.3-0.2-0.4-0.4v-0.6l0.2-0.6c0-0.2,0.1-0.5,0.3-0.6l1.1-0.9c0.4-0.4,0.6-1.1,0.4-1.6v-0.5
	c0-0.3,0.1-0.4,0.3-0.7l0.7-0.9c0.3-0.5,0.8-0.9,1.3-1.1c0.8,0,1.5,0.2,2.1,0.7c0.5,0.7,0.9,1.6,1.2,2.5c0.2,0.8,0.5,1.5,0.9,2.2
	c0.4,0.4,0.9,0.7,1.4,0.4l0.3-0.2l0.2-0.1c0.2,0,0.4,0,0.5,0.3l0.9,0.9c0.4,0.3,0.1,0.5-0.3,0.5h-1.4c-1.5,0.5-3.2,0.8-4.8,0.8h-0.3
	c-0.3,0-0.4,0.2-0.4,0.4l-0.1,0.2l-0.2,0.4c-0.1,0.4-0.1,0.8,0,1.2c0.6,2.2,0.9,4.5,0.4,6.8c-0.2,0.9,0,1.8,0.6,2.4l0.7,0.4l0.4,0.2
	c0.2,0.3,0.3,0.5,0.3,0.9c0,0.4,0.3,0.9,0.5,1.2c0.4,0.5,0.9,0.9,1.5,1.3h0.2c0.4,0.2,0.7,0,0.9-0.3c0.3-0.7,0.5-1.5,0.4-2.3
	c0-0.4-0.3-0.7-0.7-0.8l-0.4,0.1l-0.3,0.1h-0.4c-0.2-0.1-0.3-0.3-0.4-0.5c-0.2-0.5-0.2-1-0.1-1.5v-0.3l0.1-0.7c0-0.2,0-0.4-0.2-0.6
	c-0.2-0.4-0.2-0.5-0.5-0.6c-0.2,0-0.3-0.1-0.4-0.3c-0.2-0.2-0.2-0.3-0.1-0.4c0.2-1.1,0.2-2.2,0.1-3.3c0-0.4,0-0.7,0.2-0.9
	c0.8-0.7,2.1-0.2,2.8,0.1c1.1,0.4,2.1,0.6,3.1,0.8c1.8,0.2,3.6-0.3,5-1.3c0.1-0.1,0.1-0.2,0.3-0.1l1.5,1.1c1.3,0.9,2.7,1.5,4.1,2
	c2,0.2,3.9,0.2,6-0.1c0.4,0,1,0.1,1.4,0.3l0.2,0.3c0,0.8-0.4,1.4-0.4,2.2c0,0.4,0.2,0.8,0.4,1.2l0.4,1.1l0.3,0.4
	c1.1,1.4,1.2,3.5,0,4.9c-0.7,0.7-1.5,1.4-2.4,2c-0.8,0.6-1.8,1-2.8,1.1c-0.7,0-1.3,0.3-1.8,0.8c-0.6,0.6-1.2,1.1-1.9,1.4
	c-0.3,0.1-0.6,0.4-0.6,0.7c-0.4,0.8-0.6,1.6-0.8,2.5c-0.1,0.4,0.3,0.6,0.7,0.6c0.7-0.1,1.4-0.4,2.2-0.6c0.4,0,0.6-0.5,0.5-0.9
	l-0.1-0.1l-0.3-0.6v-0.5c0.2-0.1,0.3-0.3,0.5-0.4c0.2-0.2,0.5-0.2,0.7-0.2h0.4c1,0.4,2.2,0,2.6-1c0,0,0,0,0,0
	c0.2-0.3,0.4-0.6,0.6-0.8c1.9-1.2,3.9-2.2,6.1-3c0.2,0,0.4-0.2,0.4-0.4v-3.1c0-0.5,0.2-1.4,0.9-1.4c0.3,0,0.5,0.2,0.6,0.4
	c0.7,0.9,1.6,1.5,2.7,1.9l0.9,0.4c0.8,0.4,1.3,1.1,1.4,2c0.1,0.5,0,0.9-0.3,1.3l-2.1,3c-0.3,0.5-0.7,1-1.3,1.3
	c-1.4,0.9-2.6,2-3.8,3.2l-1,3.1c-0.2,0.6,0.2,0.8,0.7,0.6c0.9-0.2,1.6-0.5,2.3-0.9l0.4-0.3c0.1-0.1,0.1-0.3,0.1-0.4
	c0-0.3-0.2-0.6-0.4-0.8c-0.2-0.3-0.2-0.7,0-1c0.1-0.2,0.3-0.3,0.4-0.4l1.8-0.5c0.7-0.1,1.4-0.4,2-0.9c0.1-0.2,0.2-0.3,0.3-0.5v-0.2
	c0.7-2.3,2.3-4.5,4.5-5.6c0.3-0.1,0.4-0.4,0.4-0.7l-0.1-0.9l-1.6-2.5c-0.5-0.7-0.8-1.4-0.9-2.2c0-0.9,0.2-1.7,0.6-2.4l0.4-0.6
	c0.3-0.6,0.9-0.9,1.3-1.5c0.4-0.5,0.9-1.1,1.2-1.8l0.9-2.4c0.2-0.7-0.1-1.4-0.1-2.1c0-0.3,0.2-0.4,0.3-0.7c0.3-0.4,0.7-0.7,1.2-0.9
	c0.5-0.1,1-0.1,1.4,0.1l2.3,0.9c0.4,0,0.9,0,1.3-0.2c0.4-0.1,0.9-0.4,1.3-0.7v-0.4h-1.1c-0.4-0.1-0.7-0.3-0.9-0.6
	c-0.2-0.3-0.4-0.6-0.4-0.9l0.3-0.5c0.6-0.4,1.1-0.9,1.4-1.4c0.3-0.6,0.4-1.2,0.4-1.8h-0.3c-0.4,0.4-0.5,0.9-1,1.2
	c-0.4,0.3-0.9,0.4-1.3,0.4c-0.3,0-0.6-0.1-0.9-0.4c-0.2-0.3-0.3-0.6-0.4-0.9c-0.1-0.4,0.4-0.5,0.6-0.6c0.6,0,1.2-0.2,1.8-0.4
	c0.4-0.2,0.6-0.5,0.8-0.9c0.1-0.3,0.2-0.6,0.2-0.9c0-0.2,0-0.3-0.1-0.2c-0.4,0-0.6,0.3-0.9,0.4c-0.5,0.2-1.1,0.1-1.6-0.1
	c-0.5-0.4-0.9-0.9-1.2-1.4v-0.4c0.6,0,1.1-0.6,1.4-1.3l0.2-0.4l0.4-0.5c0.1-0.4,0.1-0.8,0.1-1.2c0-0.3-0.2-0.7-0.4-0.9H133
	c-0.2,0.4,0,0.9-0.4,1.3c-0.3,0.4-0.6,0.8-1,1.1c-0.3,0.2-0.5,0.4-0.7,0.4c-0.5-0.2-0.8-0.6-0.9-1.1c0-0.4,0.2-1,0.4-1.4l1.7-2.7
	l1.4-1.6c0.3-0.4,0.4-1.3,0.1-1.5c-0.4-0.1-0.6,0.8-0.9,1c-1.4,0.5-2.7,1.2-3.9,2.1c-0.6,0.7-0.9,1.5-1.2,2.4
	c-0.2,0.5-0.1,1.2-0.3,1.7c0,0.2-0.4,0.4-0.6,0.3c-0.4-0.4-0.7-1-0.9-1.5c-0.1-0.4-0.1-0.8,0-1.3c0.1-0.2,0-0.3-0.1-0.2
	c-0.6,0.3-0.9,0.8-1.2,1.3c-0.2,0.8-0.2,1.6,0.2,2.3c0.6,1.2,1.3,2.2,2.2,3.2c0.6,0.9,1.3,2,1.8,2.9c0.5,0.7,0.7,1.7,0.6,2.7
	c-0.3,0.9-0.7,1.8-1.4,2.4c0,0-0.3,0.2-0.4,0.1c-0.7-0.7-1.5-1.3-2.3-1.9c-1-0.6-2-1.1-3.1-1.3c-1.4-0.2-2.9-0.2-4.3,0
	c-1.5,0-3,0.3-4.5,0.2c-1.2,0.1-2.4,0-3.6-0.4c-0.8-0.4-1.5-1-2-1.8c-0.4-0.8-0.6-1.8-0.4-2.7c0-0.8,0.3-1.5,0.6-2.2
	c0.3-0.6,0.8-1.1,1.3-1.4c0.7-0.4,1.5-0.5,2.2-0.3l0.9,0.6c0.3,0.3,0.6,0.6,0.9,0.9l0.3-0.1c0.1-1-0.1-2-0.4-3
	c-0.3-0.7-0.8-1.4-1.3-2.1c0-0.2,0.4-0.1,0.5-0.2c0.8,0,1.6,0.2,2.2,0.7c0.4,0.3,0.9,0.6,1.2,1.2l0.1-0.1c0.1-1.2-0.4-2.4-1.2-3.3
	c-0.3-0.5-0.8-1-1.3-1.3c-0.4-0.1,0.2-0.4,0.5-0.4c0.6-0.1,1.3,0,1.8,0.3l0.6,0.4l0.4,0.4c0.1,0,0.3-0.2,0.2-0.3
	c-0.1-0.4-0.2-0.7-0.4-1c-0.9-0.9-1.9-1.8-3-2.6l-0.4-0.3c-0.3-0.4-0.6-0.9-0.7-1.3l-0.4-0.6v-0.7c0.4-0.6,0.6-0.7,1.3-1
	c0.5-0.2,1-0.3,1.5-0.4l0.5,0.2c0,0,0.1-0.3-0.1-0.4c-0.6-0.4-1.4-0.6-2.2-0.6c-1-0.2-2-0.1-3,0.2c-0.7,0.4-1.5,0.6-2.2,0.6
	c-0.5,0-1.1,0-1.5-0.3c-0.3-0.2-0.6-0.5-0.6-0.9c0-0.5,0.1-1.2,0.4-1.7c0.2-0.4,0.6-0.7,1-0.9c0.4,0,0.5-0.2,0.4-0.4
	C107.6,104.3,107.2,104.4,107.1,104.5L107.1,104.5z M103.2,110.3c0.5,0,0.9,0.2,1.3,0.5c1.2,1,1.8,2.4,2,3.9c0.3,2,0.4,4.1,0,6.1
	c0,0.7-0.3,1.3-0.9,1.6c-0.3,0.1-0.6,0.2-0.9,0.2c-0.3,0-0.4-0.5-0.4-1.3V116c-0.2-1.2-0.5-2.4-1.1-3.6c0-0.3-0.2-0.4-0.4-0.6
	l-0.4-0.5c-0.2-0.2-0.5-0.3-0.7-0.5l0.1-0.3C102.3,110.2,102.7,110.2,103.2,110.3L103.2,110.3z M146,111.4h55.4l-0.5,24.2H146
	C146,135.6,146,111.4,146,111.4z M146.1,138.8H201c-0.5,10.6-2.5,21.1-6,31.1c-4.2,11.8-9.8,22.9-16.7,33.4
	c-10,15-23,27.8-38.2,37.7c-6.7,4.1-13.7,7.6-21,10.8c-2.3,1-4.5,2-6.3,2.6c-2.1,0.6-3.9,1.3-5.1,1.6v-79.3c1.2,0,2.2,0,3.4-0.2
	l0.4,1.1c0.5,0.9,1.3,1.5,2.3,1.8c1.3,0.2,2.5-0.3,3.3-1.2c1.2,0.9,2.7,1.3,4.1,0.7c1.1-0.3,1.9-1.3,1.9-2.4c0.1-0.8,0-1.5-0.4-2.2
	l-0.4-0.6c2.9-1.3,5.5-2.7,8-4.5h0.3c3.9-1,20-6.8,29.9-6.9c6.1-0.1,12.1,1.3,17.4,4.2c2.9,1.7,5.5,3.8,7.7,6.4l0.4-0.3
	c0.6-1.8,1-3.6,0.9-5.6c-0.3-3-3.3-5.2-4.2-6.1c0,0,0-0.2,0.3-0.4c0.3-0.3,0.7-0.6,1.1-0.9c1.8-1.3,3.9-2.2,6.1-2.2
	c0.3,0,0.2-0.4,0.1-0.9c-0.6-2.6-4.5-4.3-8.4-3.8c-2.7,0.5-5,2.2-6.5,4.5c-0.1,0.2-0.5,0.4-0.6,0.2c-1.3-0.5-2.6-0.9-3.9-1.2
	c-0.4-0.1-0.2-0.5-0.2-0.5c0.8-1.4,1.8-2.7,3.2-3.6c1.5-1.2,3.4-2.1,5.4-2.4c0.2,0,0.2-0.3,0-0.4c-0.7-1.6-2.2-2.8-3.9-3.2
	c-2.8-0.9-6-0.4-8.3,1.4c-2.2,1.9-3.9,4.5-4.8,7.2c-0.1,0.3-0.2,0.4-0.4,0.4c-1.1-0.3-3.7-0.1-3.9-0.3c-0.2,0-0.2-0.4-0.1-0.5
	c0.4-1.5,1.3-2.9,2.3-4c1.1-1.3,2.4-2.4,3.9-3l0.2-0.2c0.2-0.3,0.2-0.7-0.1-0.9c0,0,0,0,0,0c-4.5-2.2-9.9-1-13.1,2.9
	c-1.5,2.2-2.6,4.8-3.2,7.4c0,0.1-0.2,0.4-0.4,0.4l-5.4,1.3l-0.9,0.2l-0.2,0.2c3.2-5.3,5-11.3,5.2-17.6
	C146.1,140.6,146.1,138.8,146.1,138.8z M72,147.5c0.3,1.2,0.9,2.3,1.3,3.5L72,147.5z M78.1,160.2c7.1,8.9,17.7,14.1,29,14.3
	c8.7-0.1,17.1-3.3,23.7-9c-6.6,5.6-15,8.7-23.7,8.8C95.8,174.1,85.2,169,78.1,160.2z M76.1,163.1h1.1H76.1z M17.1,165.7h62.8
	l1.3,1.1c6.5,5.6,14.7,9,23.2,9.7v12.9H27.1C23.1,181.8,19.8,173.9,17.1,165.7L17.1,165.7z M148.2,170.9c-1.6,0.2-3.1,0.7-4.5,1.6
	c-1.8,1.1-3.3,2.6-4.2,4.5c-1.1,2.7-1.6,5.4-1.8,8.2l-0.4,0.4l-3.6,0.9c0,0-0.2,0-0.3-0.2c-0.4-2.7,0.2-5.4,1.6-7.7
	c0.6-1.1,1.4-2.1,2.3-2.9c0.2-0.1,0.3-0.4,0.2-0.5l-0.4-0.2c-2.3-0.4-4.8,0-6.9,1.3c-2.7,1.4-4.5,4.1-4.8,7.2
	c-0.3,2.1-0.1,4.2,0.4,6.3c0,0.1,0,0.3-0.2,0.4l-3.9,1.9h-0.2c-0.4-1.6-1.4-3-2.9-3.9c-1.6-0.7-3.3-0.6-4.8,0.2
	c-1,0.6-1.8,1.4-2.2,2.4c-0.8,1.8-0.2,3.8,1.3,4.8c0,0.1,0.2,0.3,0,0.4c-1,0.4-1,0.6-1.8,1.7c-0.7,1.6-0.5,3.5,0.6,4.8
	c1.5,2.3,4.6,2.9,6.8,1.4c0.2-0.1,0.4-0.3,0.6-0.5c0,0,0.2,0,0.3,0.2c0.4,0.6,0.9,1.2,1.5,1.6c1.5,0.9,3.4,0.9,4.8,0
	c1.6-0.9,2.5-2.7,2.2-4.5c0-1-0.4-2-1.2-2.7c-0.1-0.2,0-0.3,0.4-0.5c6.5-3.7,13.6-6.2,21.1-7.2c3.8-0.5,7.7-0.4,11.5,0.3
	c2.4,0.5,4.8,1.7,6.7,3.3c1.6,1.3,3,2.7,4.4,4.3c0.4,0,0.9,0,1.3-0.3c0.8-1.8,0.9-3.8,0.1-5.6c-0.9-2.4-2.3-4.5-4.1-6.3v-0.2
	c0-0.4,0.2-0.5,0.5-0.9c1.7-1.5,3.8-2.7,6-3.1c0.3,0,0.4-0.3,0.3-0.5c-1.6-3.2-5.4-4.6-8.7-3.3c-2.1,0.9-3.9,2.5-4.8,4.5
	c-0.1,0.2-0.3,0.5-0.4,0.4l-3.6-0.4c-0.4,0-0.3-0.4-0.2-0.4c0.4-1.3,1.1-2.5,2.1-3.4c1.3-1.5,3-2.7,4.8-3.4c0.2,0,0.2-0.2,0.2-0.3
	c-1.2-1.5-3.1-2.4-5-2.5c-2.4-0.1-4.8,0.8-6.5,2.5c-2.1,2.2-3.3,5-3.6,8c-0.2,0.2-0.3,0.4-0.4,0.4c-0.9,0.2-2,0.2-3,0.3
	c-0.2,0-0.2-0.3-0.2-0.4c0-1.5,0.4-3,1.1-4.3c1.3-2.6,3.4-4.8,5.9-6.3c0.4-0.3,0.4-0.9,0.3-0.9C151.4,170.9,149.8,170.7,148.2,170.9
	L148.2,170.9z M104.3,192.4L104.3,192.4l0.1,23.5L104.3,192.4z M136.4,204.9c-1,0-2,0.3-2.8,0.9c-2.4,1.2-4.2,3.3-5.1,5.9
	c-0.4,2-0.4,4.1,0.2,6.1v0.3l-2.3,1.1h-0.3c-1.4-2.6-1.1-5.7,0.9-7.9c0.2-0.2,0.3-0.4-0.1-0.5c-2.1-0.3-4.2,0.5-5.6,2.1
	c-1.7,2-2.2,4.7-1.3,7.2c0.2,0.9,0.5,1.8,1.1,2.7c0,0,0.4,0.3,0.1,0.4l-1.5,1.3h-0.3c-0.6-1.3-1.8-2.2-3.1-2.6
	c-1.2-0.3-2.4,0.1-3.3,0.9c-1.5,1.5-1.6,3.9-0.1,5.5c0,0,0.1,0.1,0.1,0.1c0.4,0.4,0.9,0.7,1.5,0.9c0.1,0,0.2,0.2,0.1,0.3
	c-0.9,0.6-1.6,1.3-2.1,2.2c-0.6,1.5-0.3,3.2,0.9,4.4c0.9,0.7,2,1.1,3.1,0.9c1.7-0.5,3-1.8,3.9-3.3c0,0,0.2-0.2,0.3,0
	c0.7,0.9,1.7,1.6,2.9,2.1c1.2,0.4,2.5,0.2,3.4-0.7c1.3-0.9,1.8-2.7,1.2-4.3c-0.5-0.9-1.2-1.7-2.1-2.2c-0.2-0.2,0-0.4,0.2-0.6
	c4.3-3.5,9.5-5.8,15.1-6.6c3.7-0.5,7.5,0.1,10.9,1.8c1.3,0.7,2.5,1.7,3.6,2.8c0.1,0,0.5,0.2,0.6,0c1.7-1.4,1.8-4,0.4-5.7
	c-0.6-0.7-1.3-1.3-2.2-1.8l-0.1-0.2c1.1-2.8,3.4-5,6.4-5.7c0.3,0,0.2-0.2,0-0.5c-1.2-3-6.6-3.1-9.1-1.5c-1.6,1.1-2.9,2.5-3.8,4.2
	c0,0.2-0.1,0.4-0.3,0.4l-2.2-0.7v-0.3c1.5-3,4.2-5.2,7.4-6c0.2-0.1,0.1-0.3,0-0.4c-1.1-2.9-7-2.7-9.9-0.8c-2.7,1.8-4.7,4.5-5.4,7.7
	v0.4c-0.9,0.3-1.6,0.5-2.5,0.6c-0.1,0-0.2-0.1-0.2-0.3c-0.2-1.4,0-2.9,0.7-4.1c0.9-1.6,2.2-3.1,3.5-4.5c0.2-0.2,0.2-0.5,0-0.6
	C138.3,205.2,137.3,205,136.4,204.9L136.4,204.9z M47.4,218.9h56.8v36.7c-1.1-0.4-2.3-0.9-3.7-1.3c-1.9-0.6-3.9-1.7-6.4-2.7
	c-12.1-4.7-23.3-11.3-33.2-19.7C56.1,227.9,51.6,223.6,47.4,218.9z"/>
</svg>
