<?xml version="1.0" encoding="utf-8"?>
<!-- Generator: Adobe Illustrator 27.0.0, SVG Export Plug-In . SVG Version: 6.00 Build 0)  -->
<svg version="1.1" id="Layer_1" xmlns="http://www.w3.org/2000/svg" xmlns:xlink="http://www.w3.org/1999/xlink" x="0px" y="0px"
	 viewBox="0 0 2179 2500" style="enable-background:new 0 0 2179 2500;" xml:space="preserve">
<style type="text/css">
	.st0{fill:#F7DE9F;}
	.st1{fill:#F9CE5C;}
	.st2{fill:#D8A016;}
	.st3{fill:#9F6B08;}
	.st4{fill:#5C4B21;}
	.st5{fill:#282928;}
	.st6{fill:#040404;}
</style>
<path class="st0" d="M1024.4,2481.4c-35.3-19.8-136.1-97.3-216.1-166.2c-132.9-114.3-249.4-240.2-353.6-382
	C230.3,1627.8,91.6,1272.6,30.9,848.3C2,645.8-9.3,362.9,9.1,299.8c11.6-40,38.1-77.2,71.7-100.6c36.2-25.3,151.9-71,255.7-100.8
	c219.9-63.3,462.8-93.6,751-93.8c367.4-0.2,668.1,48.9,921.8,150.3c90.6,36.2,124.1,62.2,150.2,116.5l17.2,35.6l-0.4,155.9
	c-1.1,433.3-98.9,854.6-277.1,1194.4c-45.4,86.6-152.8,254.1-206,321.3c-98.3,124.2-212,243.4-324.8,340.6
	c-76.2,65.6-188.9,151.1-220.1,167C1109.9,2505.8,1064.6,2504,1024.4,2481.4L1024.4,2481.4z M1100.6,2470.2
	c-5.9-1.6-15.5-1.6-21.4,0c-5.9,1.6-1.1,2.9,10.7,2.9C1101.7,2473.1,1106.5,2471.8,1100.6,2470.2z M857.2,2316.3
	c0-1.3-4.8-6.2-10.7-10.9c-9.7-7.8-9.9-7.5-2.3,2.4C852.2,2318.1,857.2,2321.4,857.2,2316.3L857.2,2316.3z M820.5,2285.4
	c0-1.1-7.6-8.8-16.8-17.1l-16.8-15.1l14.8,17.2C815.5,2286.3,820.5,2290.3,820.5,2285.4L820.5,2285.4z M734.8,2203.2
	c-21.7-22.3-40.8-40.5-42.5-40.5s14.7,18.2,36.4,40.5c21.7,22.3,40.8,40.5,42.5,40.5C772.8,2243.8,756.4,2225.5,734.8,2203.2z
	 M642.9,2109.7c-21.7-22.3-40.8-40.5-42.5-40.5s14.7,18.2,36.4,40.5c21.7,22.3,40.8,40.5,42.5,40.5S664.6,2132,642.9,2109.7
	L642.9,2109.7z M587.8,2048.4c0-1.1-7.6-8.8-16.8-17.2l-16.8-15.1l14.8,17.2C582.9,2049.3,587.8,2053.3,587.8,2048.4L587.8,2048.4z
	 M551.1,2004.6c0-1.2-6.2-7.5-13.8-14l-13.8-11.9l11.7,14C546.1,2005.9,551.1,2009.6,551.1,2004.6z M526.6,1973.4
	c0-1.2-6.2-7.5-13.8-14l-13.8-11.9l11.7,14C521.7,1974.7,526.6,1978.4,526.6,1973.4L526.6,1973.4z M502.1,1942
	c0-1.3-4.8-6.2-10.7-10.9c-9.7-7.8-9.9-7.5-2.3,2.4C497.1,1943.8,502.1,1947.1,502.1,1942z M483.7,1917.1c0-1.3-4.8-6.2-10.7-10.9
	c-9.7-7.8-9.9-7.5-2.3,2.4C478.7,1918.9,483.7,1922.2,483.7,1917.1z M465.4,1892.1c0-1.3-4.8-6.2-10.7-10.9
	c-9.7-7.8-9.9-7.5-2.3,2.4C460.3,1893.9,465.4,1897.2,465.4,1892.1z M379.6,1763.5c-3.6-6.9-7.9-12.5-9.6-12.5
	c-1.7,0-0.1,5.6,3.5,12.5c3.6,6.9,7.9,12.5,9.6,12.5S383.2,1770.3,379.6,1763.5z M361.3,1732.3c-3.6-6.9-7.9-12.5-9.6-12.5
	s-0.1,5.6,3.5,12.5c3.6,6.9,7.9,12.5,9.6,12.5C366.4,1744.8,364.9,1739.2,361.3,1732.3z M342.9,1701.1c-3.6-6.9-7.9-12.5-9.6-12.5
	s-0.1,5.6,3.5,12.5c3.6,6.9,7.9,12.5,9.6,12.5C348.1,1713.6,346.5,1708,342.9,1701.1z M286.5,1592.2c-17.5-35.9-32.8-64.2-34-63
	c-2.7,2.8,58.8,128.3,62.9,128.3C317,1657.4,304,1628.1,286.5,1592.2z M233.4,1478.6c-7.2-12.6-9-8.6-3.1,7.1
	c2.1,5.6,5.1,8.8,6.7,7.2C238.6,1491.3,237,1484.9,233.4,1478.6L233.4,1478.6z M821.6,399.5c-4.4-1.8-9.7-1.6-11.7,0.5
	c-2,2.1,1.6,3.5,8,3.3C825.1,402.9,826.5,401.5,821.6,399.5L821.6,399.5z M51.3,281.8c2.1-5.6,1.1-8.1-2.4-5.9
	c-3.3,2.1-6.1,6.5-6.1,9.7C42.9,294.6,47.3,292.6,51.3,281.8L51.3,281.8z M2136.9,285.9c0-3.1-5.7-12.2-12.7-20.3l-12.7-14.7
	l11,20.3C2133.8,292.2,2136.9,295.3,2136.9,285.9L2136.9,285.9z M686.9,193.6c-4.4-1.8-9.7-1.6-11.7,0.5c-2,2.1,1.6,3.6,8,3.3
	C690.4,197.1,691.8,195.6,686.9,193.6z M952.1,185.4c6.1-6.9,9.7-12.5,8-12.5s-8,5.6-14.1,12.5s-9.7,12.5-8,12.5
	C939.7,197.9,946,192.3,952.1,185.4z M797.1,181.1c-4.4-1.8-9.7-1.6-11.7,0.5s1.6,3.6,8,3.3C800.6,184.6,802,183.1,797.1,181.1
	L797.1,181.1z M1531.9,62.6c-4.4-1.8-9.7-1.6-11.7,0.5c-2,2.1,1.6,3.6,8,3.3C1535.3,66.1,1536.8,64.6,1531.9,62.6z M1482.9,56.4
	c-4.4-1.8-9.7-1.6-11.7,0.5c-2,2.1,1.6,3.5,8,3.3C1486.3,59.9,1487.8,58.4,1482.9,56.4z M1434.3,50.3c-4.2-1.7-11.1-1.7-15.3,0
	c-4.2,1.7-0.8,3.1,7.7,3.1C1435.1,53.4,1438.5,52,1434.3,50.3z M827.7,43.9c-4.4-1.8-9.7-1.6-11.7,0.5c-2,2.1,1.6,3.5,8,3.3
	C831.2,47.4,832.6,45.9,827.7,43.9z M1363.8,43.9c-6-1.6-14.2-1.5-18.4,0.2c-4.1,1.7,0.7,3,10.8,2.9
	C1366.3,46.8,1369.7,45.4,1363.8,43.9L1363.8,43.9z M944.3,37.4c-11-1.4-27.5-1.4-36.7,0.1s-0.2,2.6,20,2.5
	C947.8,40,955.4,38.8,944.3,37.4z M1268.9,37.4c-11-1.4-27.5-1.4-36.7,0.1s-0.2,2.6,20,2.5S1279.9,38.8,1268.9,37.4z"/>
<path class="st1" d="M1032.3,2483.8c-109.6-58.6-365.7-290.7-498.9-452.1C194.4,1620.9,25.3,1124.5,2.3,473.1
	c-5.7-161.4,4.8-203.2,65-258.4c76.9-70.4,379.6-158,649.1-187.7c500.4-55.3,980.8-3.4,1323.9,143c95.9,40.9,133.1,95.4,138.2,202.2
	c3.3,70.1-7.6,279.6-20.3,392.2c-78.7,693.4-363.5,1218.3-884.1,1629.4c-109.1,86.2-135.1,101.4-176.9,104
	C1069,2499.5,1056.6,2496.8,1032.3,2483.8L1032.3,2483.8z M1173.7,2437.3c198-136.9,402.1-339.5,549.7-545.8
	c195.4-273.1,324.3-596.8,388.6-976.3c37.7-222.5,53.7-543.3,30.9-620.6c-13.4-45.5-54.7-78.1-144.5-114.2
	c-261.7-104.9-619.9-159-985.1-148.7C681.2,41,412.9,88.9,182.8,180.1c-65.8,26.1-82.5,35.6-111.1,63.2
	c-33,31.9-33.8,33.6-41.3,82.7c-8.9,58-0.6,281.6,15.7,427c79.4,706.2,369.6,1232.8,906.4,1645c84.2,64.6,105.6,76.5,138.2,76.5
	C1116.1,2474.5,1126.5,2469.9,1173.7,2437.3L1173.7,2437.3z M1028.5,2442.4c-28.5-17.7-109-79.8-171.3-132.3
	C524,2029.4,294.3,1687.8,162.4,1276.5c-50.7-158.2-88.9-344.2-110.2-536.4c-10.3-93-22.4-359.8-17.7-389.5
	c7.5-47.1,7.7-47.6,21.4-40.1c19.4,10.6,28.1-2,15.2-22c-7.9-12.3-8.8-18.8-3.7-28.6C101,196.2,407.8,98.6,682.7,64.3
	C815.5,47.7,919.8,42,1090.5,42c329.7,0,578.4,35,816.8,115.1c107.7,36.2,172.6,65.1,190,84.7c10.8,12.2,10.9,13.5,0.6,31.2
	c-13.4,23.1-8.9,30.9,17.8,30.9c22.2,0,21.8-0.7,29.9,49c5,30.6-7.3,302.3-18.2,400.1c-50.1,450.8-190.8,834.9-421.7,1152
	c-136.1,186.8-345.1,393-529.4,522.4l-43.9,30.8l-9.9-14.3c-8.4-12.2-13.6-13.8-34.8-10.9c-13.7,1.9-28,7.7-31.7,12.9
	C1050,2454,1046.7,2453.6,1028.5,2442.4L1028.5,2442.4z M896.6,1666.4c10.8-11,12.9-27.6,3.5-27.6c-3.4,0-6.1,2.8-6.1,6.1
	s-6.9,7.9-15.3,10c-15.3,3.9-18.9,9.3-11.2,17.1C874.3,1679,886.5,1676.7,896.6,1666.4L896.6,1666.4z M734.7,1585.3
	c0-1.5-2.8-2.8-6.1-2.8c-3.4,0-6.1,3-6.1,6.6c0,3.6,2.8,4.9,6.1,2.8C732,1589.8,734.8,1586.9,734.7,1585.3L734.7,1585.3z
	 M1162.6,1532.5c-10.3-17-19.7-30.9-20.9-30.9c-1.2,0,5.2,15,14.3,33.3c9.1,18.3,18.5,32.3,20.9,30.9
	C1179.3,1564.5,1172.9,1549.5,1162.6,1532.5z M1264.4,1426.7c2.2-3.6-2.1-5.6-10.1-4.7c-11,1.2-14.8-2.4-18-17.2
	c-3.8-17.5-4.1-17.6-4.8-2.8C1230.3,1426.1,1254,1443.8,1264.4,1426.7L1264.4,1426.7z M1126,1330.8c27.6-5.3,37.3-14.4,37.3-34.7
	c0-18.2-17.8-49-18.2-31.4c-0.1,5.3-12.4,21.8-27.2,36.7c-14.9,14.9-28.5,32.6-30.2,39.3c-2.8,11-2.1,11.3,7.1,3.2
	C1100.5,1338.9,1114.6,1333,1126,1330.8L1126,1330.8z M1322.4,1320.8c-40.6-5.3-54.6-12.4-75.7-37.9c-26.3-31.8-19-68.3,16.7-84.1
	l19.4-8.6l-21.8-0.2c-64.2-0.7-65.2,89.6-1.4,123.9c16.3,8.7,34.2,12.3,60,11.9l36.7-0.5L1322.4,1320.8L1322.4,1320.8z
	 M1493.5,1261.4c-0.3-6.9-1.9-9-3.6-4.7c-1.7,4.3-8.4,7.8-14.8,7.8c-6.5,0-11.7,2.1-11.7,4.7s6.9,4.7,15.3,4.7
	C1490.1,1273.8,1493.9,1270.6,1493.5,1261.4L1493.5,1261.4z M841.7,1225.2c10.2-16,25.1-30.9,32.9-33.1c16.7-4.8,58.1,7.3,82.1,24
	c24.1,16.8,55.3,20.8,65.4,8.4c4.5-5.5,15.4-10.1,24.2-10.2c15.5-0.2,15.6-0.6,4.2-9.4c-7.4-5.7-26-9.2-49-9.2
	c-45-0.1-64.7-9.3-77.2-36.3l-9.5-20.4l-11.6,13.1c-16.5,18.5-35.9,14-39.9-9.3l-3.2-18.7l-18.9,28.1c-26.8,39.8-39,65.7-39,82.9
	C802.1,1268,816.5,1264.4,841.7,1225.2L841.7,1225.2z M1210.8,1152.6c6.3-1.5-0.7-42.8-10.6-62.5c-9.2-18.4-16.9-25.1-32.1-28.2
	c-60.2-12.1-75.1-30.7-69.6-86.7c4.2-42.6,3.8-43.6-29-68.5c-12.8-9.8-26.4-24.5-30.1-32.7c-8.8-19.6-17.6-18.9-59.7,4.7
	c-49.4,27.7-53.9,37.2-31.5,66.3c10,12.9,19.8,35,22.1,49.7c2.3,14.8,7.5,26.5,11.8,26.5c11.3,0,21.9,28.1,21.9,58.1
	c0,22.2,4.2,31.2,26.9,57.7l26.9,31.3l75.7-7.7C1175.2,1156.4,1210,1152.8,1210.8,1152.6L1210.8,1152.6z M1343.6,1105.1
	c-8.3-22.5-23.4-73.7-33.6-113.8c-10.8-42.4-30.2-97.2-46.4-130.7c-26.5-54.7-34.2-64.5-41.4-52.5c-4,6.7,28.1,87.3,51.2,128.5
	c9.7,17.4,25,61,33.8,97.1c9.3,37.7,22.8,75.4,31.9,88.9c8.7,12.9,16.6,23.4,17.7,23.4C1357.9,1146,1351.9,1127.6,1343.6,1105.1
	L1343.6,1105.1z M1198.6,782.2c-31.7-26.5-15.6-45.9,23.2-27.9c12.4,5.7,15.4,10.9,13.3,22.3c-1.8,9.6-0.7,12.7,3.1,8.8
	c11-11.2,1.9-29.1-20.4-40.2c-40.1-20-60.7,3.6-29.3,33.5c10.5,10,20.8,18,23,17.9C1213.6,796.3,1207.8,789.9,1198.6,782.2
	L1198.6,782.2z M1454.5,743.9c4.9-11.9,8.9-28,8.8-35.9c0-19.1-20.5-52.2-37.9-61.5l-14.1-7.5l13,14.9
	c28.5,32.6,33.8,60.9,17.5,93.2c-5.8,11.4-6.8,18.4-2.8,18.4C1442.7,765.5,1449.6,755.8,1454.5,743.9L1454.5,743.9z M1005.3,596.9
	c-27.1-16.9-25.2-40.2,5-60.9c17.2-11.8,27.8-14.3,53.6-12.7c21.9,1.4,32.2-0.3,32.2-5.4c0-4.1,13.1-11.7,29.1-16.8l29.1-9.4
	l-36.7,3.3c-56.3,5-96.2,18.6-122.2,41.5c-20,17.6-23,23.4-19.5,37.5c2.3,9.2,11.6,20.8,20.9,25.9
	C1021.7,613.7,1028.6,611.4,1005.3,596.9L1005.3,596.9z M201.2,442.7c-2-122.5-2-123.2,11.7-129.3c20.4-9.2,16.6-16.1-4.7-8.5
	l-18.4,6.5v127.3c0,88.1,2.1,127.3,6.7,127.3C201.2,565.9,202.6,529.1,201.2,442.7L201.2,442.7z M1211.3,560.4
	c6.3-4.1,5.6-6-3.2-8.3c-6.3-1.7-14.9,0.7-19.1,5.4c-6.3,6.9-5.7,8.4,3.2,8.3C1198.2,565.7,1206.8,563.3,1211.3,560.4z
	 M1970.1,310.8c9.4,3.6,14,3.8,10.6,0.5c-3.4-3.3-12.3-7.8-19.9-10.2l-13.8-4.2l1.4,129.8l1.4,129.9l1.8-126.1l1.8-126.1
	L1970.1,310.8L1970.1,310.8z M309.2,495.8c4-4,0.8-4.5-9.2-1.5c-23.9,7.1-55.1,20.8-55.1,24.2C244.9,523,302.1,502.8,309.2,495.8
	L309.2,495.8z M368,376.3c26.1-114.9,27.2-118.1,45.2-126.1l18.5-8.2l-16.1-0.2c-8.8-0.1-18.8,3.3-22.2,7.5
	c-6.1,7.7-63.1,247.3-62.3,262.1C331.9,527.7,342.2,489.9,368,376.3L368,376.3z M1856,486.8c-7.2-12.7-8.9-8.6-3,7.1
	c2.1,5.6,5.1,8.8,6.7,7.2S1859.5,493.1,1856,486.8L1856,486.8z M1772.5,249.3c8.2,1.6,13.5,0.5,11.8-2.4c-1.8-2.9-10-5.3-18.2-5.3
	h-14.9l1.4,126.3l1.4,126.3l1.8-123.9l1.8-123.9L1772.5,249.3L1772.5,249.3z M449.7,457.1c-2.3-12.5-5.6-21.3-7.2-19.6
	s-1.2,13.4,1.1,25.9c2.3,12.5,5.6,21.4,7.2,19.6C452.5,481.2,452,469.6,449.7,457.1L449.7,457.1z M528.5,346.7
	c1.1-120,1.2-120.7,14.9-122.7c7.6-1.1,13.8-4.9,13.8-8.5c0-3.7-5.9-4.9-13.8-2.8c-7.6,2.1-15.8,3.8-18.4,3.8
	c-2.5,0.1-4.6,58.1-4.6,129s1.6,127.3,3.4,125.4C525.8,469,527.9,413.1,528.5,346.7L528.5,346.7z M1688.5,227.3
	c15.4-2.4,15.1-2.7-3.2-3.5l-19.9-0.9l1.4,126.3l1.4,126.3l1.8-122.8l1.8-122.8L1688.5,227.3L1688.5,227.3z M594.5,400.8
	c-8.6-25.4-16.6-45.2-17.8-44c-1.2,1.2,4.2,24.7,12,52.3c7.8,27.6,15.8,47.4,17.8,44C608.5,449.8,603.1,426.2,594.5,400.8
	L594.5,400.8z M1584.2,374.1c-1.3-16.3-2.3-3-2.3,29.6c0,32.6,1,45.9,2.3,29.6C1585.5,417.1,1585.5,390.4,1584.2,374.1z
	 M667.4,380.8c0-36.6-1-65.4-2.2-63.9c-5.3,6.1-8.4,130.5-3.3,130.5C664.9,447.4,667.4,417.4,667.4,380.8L667.4,380.8z M753.1,313.3
	V192.4l27.5-4.2c15.1-2.3,37.1-3,49-1.6c11.8,1.4,19.2,0.2,16.3-2.7c-2.8-2.9-26.9-4.4-53.6-3.4l-48.4,1.8l-1.7,129.9
	c-1.1,87.1,0.4,128.6,4.6,125.9C750.8,435.6,753.1,388.8,753.1,313.3L753.1,313.3z M1492.6,197.3l16.7-0.6L1494,192
	c-8.4-2.5-17.4-3.5-19.9-2.1c-2.5,1.4-4,59.2-3.2,128.4l1.4,125.9l1.8-123.2l1.8-123.2L1492.6,197.3L1492.6,197.3z M1884.5,281.2
	c16.3,3.4,16.2,3.3-1.7-5l-18.4-8.5l-3.1,75.8c-1.7,41.7-1.7,80,0,85.2c1.7,5.1,3.8-26.7,4.8-70.8l1.7-80.2L1884.5,281.2z
	 M946.8,403.5c-18.9-22.9-25.1-50.9-24.5-110.3c0.5-51,14.9-96.7,34.8-110.9c7.2-5.1,24.2-9.4,37.7-9.5c20.4-0.2,22.7-1.3,13.5-6.8
	c-15.3-9.1-40.6-1.6-60.9,18.1c-43.2,41.8-47.5,178.2-7.1,222.6C960.4,428.9,965.6,426.4,946.8,403.5z M1162.9,173.9
	c26.6,1.2,45.1,0.2,41.2-2.4c-3.9-2.5-27.1-4.6-51.5-4.7l-44.4-0.1l1.4,129.4l1.4,129.4l1.8-127l1.8-127L1162.9,173.9L1162.9,173.9z
	 M1203.1,385c-5.7-17.6-11.8-30.6-13.5-28.9c-1.7,1.7,1.6,17.5,7.4,35.1c5.7,17.6,11.8,30.6,13.5,28.9
	C1212.2,418.4,1208.9,402.6,1203.1,385L1203.1,385z M839.3,393.9c14.5-13.4,15.7-51.4,2.3-68.5c-9.2-11.7-9.3-11.6-3.1,1.5
	c16,33.8,0.6,70.5-29.7,70.7c-8.7,0.1-20,3.1-25.1,6.7c-6.9,5-2.5,5.9,17.3,3.6C815.6,406.2,832.8,399.9,839.3,393.9L839.3,393.9z
	 M1300.2,389.7c-13.8-26.8-18.5-114.1-8.2-151.5c10.5-38.2,37.1-60.9,67.9-57.9c12.6,1.2,21.6,0.1,20-2.6s-14-4.8-27.5-4.8
	c-30.3,0-56,23.3-65.9,59.7c-11.1,40.5-8.2,120.3,5.3,150.8c6.5,14.6,13.4,26.5,15.3,26.5C1309,410,1305.9,400.8,1300.2,389.7z
	 M427.5,398.3c6.7-4.3,6.4-10.7-1.4-35.8l-9.5-30.5l3.5,28.4c3.1,25.4,1.9,29.2-10.8,35.4c-13,6.4-13.2,7-2.1,7.3
	C413.9,403.4,423.1,401.2,427.5,398.3z M1389.7,391.7c3.5-6.6,6.3-15.8,6.2-20.3c0-4.5-3.6-1.2-8,7.4c-6.4,12.6-12.2,15.5-30.4,14.9
	c-12.4-0.4-21,1.7-19.2,4.7C1344.9,409.2,1383.1,404.2,1389.7,391.7z M1024,372.5c7.7-15.6,10.7-36.9,10.7-74.9
	c0-66.7-11.9-95.7-40.3-98.6c-11.2-1.1-22,1.9-26.5,7.4c-6.6,8.2-5.2,8.4,11.8,1.9c17.5-6.7,20.5-6,30.7,6.9
	c22.2,27.9,24,128.4,2.9,161.2c-8,12.5-14.2,15.4-27.8,13.4c-9.6-1.4-16-0.2-14.2,2.8c1.8,3,12,4.6,22.6,3.6
	C1009.1,394.8,1015.7,389.6,1024,372.5L1024,372.5z M665.3,204.1c2.8-2.7,10.7-6.3,17.4-8c8.2-2,6-3.2-6.9-3.7l-19.1-0.7l-19.2,67
	c-10.6,36.9-19,71.3-18.8,76.4c0.2,5.1,9.6-21.1,20.9-58.4C650.9,239.5,662.5,206.8,665.3,204.1L665.3,204.1z M1397.9,308.5
	l31.8-2.3l-35.2-1.2c-34.8-1.1-35.2-0.9-34.4,16c0.7,14.2,1.3,14.8,3.4,3.4C1365.8,312.9,1371,310.4,1397.9,308.5L1397.9,308.5z
	 M872.8,310.6c-2.2-3.7-7-6.7-10.5-6.7c-4.1,0-3.6,3.6,1.2,9.5C871.8,323.7,879.4,321.4,872.8,310.6L872.8,310.6z M1585.8,259.6V209
	l16.8,4c12.5,3,14.5,2.4,7.7-2.3c-5.1-3.5-14-6.4-19.9-6.4c-9.3-0.1-10.7,6.4-10.7,49.9v50l-32.1-2.4c-25-1.9-27.4-1.4-10.7,2.2
	C1587.3,314.7,1585.8,316,1585.8,259.6L1585.8,259.6z M833.1,279.9c17.4-14.4,18.8-47,2.5-62.1c-10.5-9.7-10.8-9.7-3.7-0.1
	c10,13.6,6.5,49.2-5.3,55.4c-5.1,2.6-18.8,7.5-30.6,10.9l-21.4,6.1l22.3,0.6C810.2,291.2,824.7,286.8,833.1,279.9z M1206.2,272.7
	c14.6-14.9,16-45.2,2.6-58.8c-13.9-14.2-17.1-12-6,4.1c21.3,31,7.9,54.2-35.4,61.4l-25.5,4.2l26,0.8
	C1186.5,285,1197.5,281.7,1206.2,272.7L1206.2,272.7z M1387.5,230.8c-2-2.1-3.5,1.6-3.2,8.2c0.3,7.3,1.7,8.7,3.7,3.8
	C1389.7,238.2,1389.5,232.8,1387.5,230.8z"/>
<path class="st2" d="M1037.8,2485.2c-73.6-35.8-266.4-198.1-394.9-332.6c-350.7-367-546.5-801.1-618.3-1371.5
	C15,705.3,0.1,477.3,0.1,405.9C0,290.3,36.1,219.8,115.1,181.6C199.7,140.7,369.3,87.5,499,61.2c226.6-46,543.8-66.4,783.7-50.4
	c268.8,18,471.1,55.7,666,124.4c139.3,49,181,77.3,212,143.7c15.9,34.1,16,35.4,14.9,171.5c-4.7,559.5-149.9,1053-425.5,1445.6
	c-129.5,184.5-313.1,372.8-510.8,524.1C1133.6,2501.1,1095.7,2513.3,1037.8,2485.2L1037.8,2485.2z M1171,2441.4
	c144.3-98.1,371.5-312.1,484.8-456.5c121.4-154.9,250.6-378.4,315.4-545.8c99.6-257.4,155.5-520.8,177.9-838.9
	c7.5-106.2,7.8-253.6,0.6-285.1c-3.6-15.8-3.1-23.8,1.6-25.4c9-3.1-11.7-35.7-22.6-35.7c-4.4,0-14.7-7.3-22.8-16.2
	c-57.6-62.9-354-151.3-624.1-186c-196.3-25.3-526.5-28.4-722.5-6.9C457.8,78,136.3,169.3,71,240.5c-9.8,10.7-19.8,18.1-22.3,16.5
	c-31.7-19.9-31.3,276.6,0.7,533.5c70.2,564.1,271.4,1000.6,630,1366.4c126.4,129,280.2,258.6,362.9,305.9
	C1086.6,2488.2,1107.2,2484.7,1171,2441.4L1171,2441.4z M1055.4,2410c-13.9-8.3-53.7-36.9-88.3-63.6c-34.6-26.7-66.6-48.6-71-48.6
	c-4.4,0-17-8.2-28-18.1l-20-18.1l23,16.8c30.9,22.6,29.2,16.3-2.6-9.8c-14.1-11.5-23.5-17.6-21.1-13.5c10.2,16.8-7.6,5.6-30.2-18.9
	c-13.3-14.5-17.3-20.8-8.9-14.1c8.4,6.7-30.2-35.4-85.9-93.7c-98.1-102.8-192-215.8-253.6-305.6c-35.1-51.1-44.4-62.1-34.3-40.5
	l7.3,15.6l-12.5-15.6c-6.9-8.6-11.2-19.2-9.7-23.7c1.6-4.5,0.3-6.5-2.9-4.5c-6.1,3.9-26.4-30.4-21.1-35.7
	c1.7-1.7-10.5-28.6-27.1-59.6c-44-82.4-77.8-155.3-117.2-252.3c-19.1-47.2-36.5-84.1-38.5-82c-2,2.1-2.2-2.9-0.5-10.9
	c2.1-9.6,1.3-12-2.3-6.9c-7.7,11-28.4-49.7-23.3-68.3c3.2-11.6,2.6-12.5-2.9-5c-5.4,7.3-6.1,4.5-3.1-12.5c3-17.3,2.3-19.9-3.3-12.5
	c-6,7.9-6.5,7.6-3.4-2c2-6.3-3.1-38.5-11.3-71.7c-39.8-160.9-81.4-447.1-83.4-574.9c-0.3-19.7-1.8-24.4-5.1-15.9
	c-4.3,11.2-5,11-8.7-3.1c-2.2-8.4-4-30-4.1-48c-0.1-49.6-12.1-43.2-20.5,10.9c-1.3,8.6-2.7-26.5-3.2-78c-0.4-51.5,1.3-96.4,3.8-99.8
	c2.5-3.4,12.7-6.2,22.8-6.2c22,0,26.5-13.5,13.4-40.3c-8.6-17.5-8.2-19.3,7.2-35.3c15.7-16.2,73.3-46.3,105-54.9
	c14.8-4,14.7-3.8-1.5,5.6c-9.3,5.4-16.8,12.5-16.8,15.8c0,7.7-0.2,7.7,30.6-3.3c31-11.2,38.9-11.7,33.3-2.4
	c-2.7,4.5-0.2,5.6,7.3,3.2c131.8-42.3,244.6-70.5,363.5-90.9c56.3-9.7,95.6-19,88.8-21.1c-6.7-2,1.5-2.3,18.4-0.6
	c23.4,2.4,28.4,1.5,21.4-3.8c-7-5.3-1.2-6.2,24.5-3.9c18.5,1.7,92.9,0.7,165.3-2.3c244.1-9.9,346-12.1,338.4-7.2
	c-4.2,2.7,33.3,8.3,83.3,12.5c111,9.3,280.2,33.9,371.7,54.1c37.4,8.2,74.7,13.5,82.8,11.6c12.1-2.7,13.1-2,5.6,3.9
	c-7.6,5.9-6.9,6.5,4.1,3.4c15.8-4.5,46.1,2.2,41.8,9.3c-1.7,2.7,2.9,3.4,10.2,1.5c9.6-2.6,11.9-1.4,8.4,4.4c-3.6,5.9-1.3,6.8,9,3.4
	c8.8-2.9,12.4-2.2,9.9,1.9c-2.2,3.7,9.8,11,28.3,17.2c61.1,20.6,130.2,53.4,147.5,70.1c36.4,35.1,37.8,42.4,36.5,180.6
	c-1.1,107.2-12.9,297.8-23.4,375.7c-3.3,24.5-1.4,20.3,16.5-37.4c6.9-22.3,15-43.6,17.9-47.3c2.9-3.7,7.9-22,11.2-40.5
	c5.6-32.1,5.7-31.4,2.7,13c-21.4,311.4-127.2,682.1-269.3,943.8c-120.9,222.8-295.7,443.3-467.7,590.2l-39.7,33.9l27.9-30.8
	c15.3-16.9,32.3-41,37.8-53.5c5.5-12.5,19-33.5,30-46.8l20-24.1l-21.1,19.1c-11.6,10.5-39,35.6-60.9,55.7
	c-47.9,44.1-171.8,145.4-227.6,186C1105.3,2426.1,1088.4,2429.6,1055.4,2410L1055.4,2410z M900.1,1669.9
	c26-26.5,10.3-45.2-19.8-23.7c-11,7.9-21.1,14.9-22.4,15.7c-5,3,13.4,20.4,21.5,20.4C884,1682.4,893.3,1676.8,900.1,1669.9
	L900.1,1669.9z M738.5,1576.1c0.5-10.2-1.1-18.5-3.5-18.5c-8.3,0-20.3,30.4-16.2,41.2C724.7,1614.4,737.4,1599.8,738.5,1576.1z
	 M1187.2,1572.4c11.2-5.7,12.4-8.3,5.5-12.5c-4.7-2.9-14.5-15.2-21.6-27.2c-16.2-27.1-38.5-51.8-42.8-47.4
	c-1.8,1.8,5.7,17.5,16.7,34.9c16.4,26.1,19.4,35.9,16.7,56c-3.5,26.9,2.7,40.8,8,17.9C1171.6,1586.1,1179.4,1576.3,1187.2,1572.4
	L1187.2,1572.4z M1512.3,1562.3c0-4.3-2.5-11.6-5.4-16.3c-6.7-10.8-15.6,1.7-10.6,15C1500.5,1572.1,1512.4,1573.1,1512.3,1562.3
	L1512.3,1562.3z M1267.4,1426.2c0-2.9-5.5-8.4-12.2-12s-12.2-10.8-12.2-15.8c0-5-2.8-9.1-6.1-9.1c-10.5,0-6.9,36.4,4.2,42.7
	C1252.2,1438.3,1267.4,1435,1267.4,1426.2z M785.4,1339.3l3.3-34.3l-9.5,21.8c-5.2,12-10.5,35.9-11.7,53
	c-2.2,30.7-2.1,30.9,6.1,12.5C778.3,1382.1,783.6,1358.2,785.4,1339.3L785.4,1339.3z M1107,1378.9c1.5-10.5,6.3-12.4,31.5-12
	c34.3,0.5,52.5-12.2,58.8-41.3c3-14.1,0.9-22-8.9-32.6c-7.1-7.7-23.6-35.7-36.6-62.3c-26.9-54.8-25.8-57.1,24.1-52.2
	c16.7,1.6,30.4,1,30.4-1.4c0-8.2,31.2-18.8,55.3-18.8c17.5,0,26.3,3.4,31.8,12.5c4.2,6.9,11.8,12.4,16.9,12.3c7.3-0.1,7-1.5-1.5-6.5
	c-19.1-11.3-11.4-18.9,8.5-8.4c14.8,7.8,17.3,11.4,10.7,15.7c-6.3,4-4.4,5.5,6.8,5.4c15.3-0.1,15.3-0.1-4.7-18.6
	c-15.3-14.1-25.9-18.5-44.8-18.5c-13.6,0-30.1-2.9-36.6-6.5c-14.5-7.9-16.4-27.8-2.1-22.3c5.4,2.1,17.1,5.4,26,7.3l16.3,3.5
	l-15.3-13.7c-8.4-7.5-22.9-16.4-32.1-19.8c-20.2-7.3-22-22-3.5-29c12.6-4.7,12.3-5.3-4.6-8.8c-11.5-2.4-21.8-10.8-28.7-23.3
	c-9.4-17.2-12.9-19-29.3-15.4c-20.9,4.7-48.7-9.7-48.7-25.1c0-5.1,5.8-15.1,12.9-22.3l12.9-13.1l-11.8-38.3
	c-11.3-36.7-13.3-39-45.7-54.9c-50.3-24.7-52-45.3-6.5-76.8c27.6-19.1,49.2-19.8,81.8-2.9c26.5,13.8,42.2,41.1,42.2,73.4
	c0,12.1,11,33.3,33.3,64c34.5,47.7,48.8,84,45.3,115.3c-1.7,14.8-5.4,18.7-20.4,21c-16.2,2.4-15,3.2,9.2,6.2
	c23,2.9,29.1,6.6,36.9,22.6c12.6,25.7,42.5,63.9,42.6,54.4c0-4.2-5.7-22.4-12.7-40.5c-7-18.1-22.3-69.5-33.9-114.1
	c-12.2-46.9-32-103.3-46.9-133.8c-14.2-29-26.7-54.9-27.9-57.7c-1.1-2.8,3.6-5,10.5-5c20.3,0,54.8,36,80.9,84.6
	c25.8,47.8,46.5,67.1,68.6,63.9c11.6-1.7,13.3-5.5,12.3-27.8c-1.3-29.9-21.3-73.6-38.8-84.8c-17.8-11.4-14.8-17.2,9-17.2
	c21.1,0,33.3-8.4,22.2-15.3c-3.3-2.1-26.4-9.1-51.4-15.6s-73.4-24.9-107.5-40.8c-37.6-17.6-66.4-27.5-73.4-25.2
	c-6.3,2-26.4,17-44.5,33.2c-50.2,44.7-89.9,72.5-133.8,93.7c-73.6,35.5-88.8,60.4-106.5,175.6c-5.5,35.9-12.2,66.7-14.9,68.6
	c-11.5,8-69.4,90.6-77.7,110.8c-10.9,26.5-11.3,39.8-1.9,60.7c8.9,19.8,31.5,21.1,44.2,2.6c14.2-20.6,28.4-11.1,24.1,16.1
	c-2.3,14.4-1.1,22.2,3.4,22.2c10.8,0,31.6-23.9,41.3-47.6c11.6-28.3,22.9-31.8,51.1-15.6c29.4,16.8,63.8,17.2,84.1,0.9
	c8.5-6.8,17.7-11,20.4-9.3c6.7,4.2,15-9.7,15-25c0-16.8,19-19.4,27.3-3.8c4.9,9.4,4.7,15.9-0.9,25c-10.8,17.7-1,23.7,19.3,11.9
	l17.4-10.2l2.6,22.6c2.3,20.3-0.4,25.6-26.7,51.7c-32.3,32.1-41.1,54.5-30.5,78.1C1091,1398.6,1104.3,1397.5,1107,1378.9
	L1107,1378.9z M869.5,1248.5c0-18.5,10-40.1,18.6-40.1c8.5,0,7.3,39.7-1.4,48.6C875.1,1268.7,869.5,1265.9,869.5,1248.5z
	 M952,1166.8c-5.6-5.7-12.6-17-15.7-25.1c-8.1-21.6-22.4-24.5-39.7-8c-18.1,17.3-25.1,12.6-16.4-11c3.5-9.5,9.7-43.8,13.7-76
	c11.5-92.2,37.6-107.4,58.5-34.1c5.3,18.4,13.5,37.5,18.3,42.4c4.8,4.9,8.7,20.2,8.7,33.9c0,20.2,4.7,30.5,24.5,53.8
	c13.5,15.9,24.5,30.1,24.5,31.6c0,1.5-14.9,2.7-33.2,2.7C972.6,1177.2,959,1173.9,952,1166.8L952,1166.8z M1197,775
	c-14.7-12.4-16.7-16.6-9.7-21.2c17-11.4,54.6,13.6,42.6,28.3C1220.7,793.3,1218.3,792.8,1197,775L1197,775z M1378.7,1322.1
	c6-6.1-1.7-7.7-36.8-7.7c-67,0-98.9-22.3-98.9-69c0-51.4,64.3-65.6,80.7-17.8c3.4,10,8.8,18.2,12,18.2c3.4,0,3.1-5-0.6-12.1
	c-10.4-19.7-7.4-25.3,13.6-26.1c14.9-0.5,11.7-2.1-12.7-6.2c-17.9-3-37.7-8.3-44-11.7c-25-13.6-66.8-4.6-84,18.2
	c-21.5,28.5,3.6,87.5,47.3,111.3c23.3,12.7,34.3,14.6,71.7,12.8C1351.2,1330.7,1374.5,1326.3,1378.7,1322.1z M1502.7,1282.4
	c-2.4-3.9-4.6-12.8-4.9-19.8c-0.4-7-4.5-14-9.2-15.6c-5.2-1.7-6.8-0.1-4.2,4.2c2.6,4.3-0.4,7-7.7,7c-6.6,0-13.5,4.2-15.5,9.4
	c-2.6,7,1,9.4,14.3,9.4c9.8,0,19.5,2.8,21.6,6.2s5.2,6.2,6.8,6.2C1505.6,1289.4,1505,1286.2,1502.7,1282.4L1502.7,1282.4z
	 M1478,1123.6c4.6-12.2-2.2-58.8-8.6-58.8c-9.7,0-16.7,55.7-8.1,64.5C1468,1136.2,1474.1,1134.1,1478,1123.6L1478,1123.6z
	 M845.1,1088.9c13.4-21.1,24.3-41.5,24.3-45.2c0-3.8-6.9,5.3-15.2,20.1c-8.3,14.8-20.9,35.2-27.9,45.2c-7,10.1-11.2,18.3-9.2,18.3
	S831.7,1110,845.1,1088.9L845.1,1088.9z M1496.8,951.3c-4.3-26.2-13.7-35.9-21.8-22.8c-9,14.5-6.1,48.5,5.2,60.3
	c10.3,10.7,10.9,10.6,15.6-1.4C1498.5,980.4,1499,964.2,1496.8,951.3L1496.8,951.3z M879.3,960.5c-2-2.1-3.5,1.6-3.2,8.2
	c0.3,7.3,1.7,8.7,3.7,3.8C881.5,968,881.3,962.6,879.3,960.5L879.3,960.5z M927.6,871.5c6.1-6.9,9.7-12.5,8-12.5
	c-1.7,0-8,5.6-14.1,12.5c-6.1,6.9-9.7,12.5-8,12.5C915.2,884,921.5,878.4,927.6,871.5z M1466.6,725.9c8.1-43.9-31.1-91.8-83-101.3
	c-21.2-3.9-21.2-3.8,6.2,10.8c48.2,25.7,69.9,81,45.6,116.2c-5.2,7.6-7.6,17.1-5.1,21.1C1436.8,783.5,1462,751,1466.6,725.9
	L1466.6,725.9z M1099.1,759.3c6.1-6.9,9.7-12.5,8-12.5s-8,5.6-14.1,12.5c-6.1,6.9-9.7,12.5-8,12.5S1093,766.1,1099.1,759.3
	L1099.1,759.3z M1138.9,725c4.2-5.1,6.2-9.4,4.6-9.4s-6.5,4.2-10.7,9.4s-6.2,9.4-4.6,9.4C1129.9,734.3,1134.7,730.1,1138.9,725z
	 M1031.7,605.9c-52.9-19.4-55.5-55.5-5.5-74.9c24.2-9.4,39.6-9.1,66.1,1.2c6.5,2.5,9.7,0.4,9.7-6.4c0-13.5,24.1-22.2,63.2-23
	c25.1-0.5,28.5-1.7,16.4-5.6c-62.8-20.5-178.6,12-205,57.5l-11.2,19.4l22.3,20.8c17.3,16.2,27.4,20.7,45.3,20.4l23.1-0.4
	L1031.7,605.9L1031.7,605.9z M202.1,441.4c0-104.2,1.4-124.3,9.2-127.3c7.9-3.1,9.2,11.1,9.2,105.4c0,121-2.2,115.8,42.9,99.6
	c29.9-10.8,36.7-11.5,36.7-4c0,3-20.8,13.1-46.2,22.6c-25.4,9.4-45.1,18.3-43.8,19.6c1.3,1.3,23.3-5.2,48.8-14.6
	c41-15,46.7-19,48.9-34.4c2.8-19.2,0.2-19.2-43.6-0.9c-39.4,16.4-38.2,19.7-36.3-100.6c1-60,1.5-109.2,1.2-109.1
	c-0.3,0-9.3,3.1-19.9,6.9l-19.3,6.8v130.7c0,85.6,2.1,129.4,6.1,126.9C199.7,566.7,202.1,517.2,202.1,441.4L202.1,441.4z
	 M1217.4,560.4c6.1-3.9,4.6-6.2-5.9-9c-7.7-2.1-15.6-1.3-17.4,1.7c-1.8,3-13,6.7-24.7,8.1c-17.2,2.1-15.4,2.8,9.2,3.5
	C1195.5,565.3,1212.9,563.3,1217.4,560.4L1217.4,560.4z M1954.5,431.1l-1.8-122.4l17.1,4.3c20.2,5.1,12.4-5.3-8.9-11.9l-13.8-4.2
	v128.3c0,70.6,2.1,128.3,4.6,128.3C1954.2,553.4,1955.4,498.4,1954.5,431.1z M1836.1,429.4c-20.8-52-38.9-93.5-40.2-92.1
	c-1.3,1.4,11.7,38.6,29.1,82.8c17.3,44.2,34.1,87,37.2,95.2c3.1,8.2,7,13.5,8.7,11.8S1856.9,481.4,1836.1,429.4L1836.1,429.4z
	 M370.4,480c5.8-39.4,8.1-43.5,26.5-48c9-2.2,21-5.4,26.6-7.1c8.2-2.5,11.6,3.8,17.2,31l7,34.1l18.6-6.6
	c21.6-7.7,23.1,6.5-14.6-142.6l-26.1-103.3l-18.8,5c-17.7,4.7-19.5,8-29.3,53.4c-5.8,26.6-19.6,88-30.7,136.4l-20.2,88l19.8-6.2
	C363.9,508.7,366.7,504.7,370.4,480L370.4,480z M351.1,481.4c-2-5.3-2.3-11-0.6-12.7c1.7-1.7,4.5,2.6,6.3,9.6
	C360.7,493.2,356.4,495.5,351.1,481.4z M355.6,451c-0.3-6.6,1.2-10.3,3.2-8.2s2.3,7.5,0.5,12C357.4,459.8,355.9,458.3,355.6,451z
	 M367.9,394.9c-0.3-6.6,1.2-10.3,3.2-8.2c2,2.1,2.3,7.4,0.5,12C369.6,403.6,368.2,402.2,367.9,394.9z M392.5,380.3
	c0.3-9.4,3.9-31.2,8-48.3l7.4-31.2l7.7,43.1c6.3,35.2,6.2,44-0.3,48.3C400,401.9,391.9,397.7,392.5,380.3z M374,369.9
	c-0.3-6.6,1.2-10.3,3.2-8.2c2,2.1,2.2,7.5,0.5,12C375.7,378.7,374.3,377.2,374,369.9z M383.5,332c6.9-41.8,14.8-60,10.8-25
	c-2,17.2-6.1,35.4-9.2,40.5C381.4,353.7,380.8,348.2,383.5,332L383.5,332z M398.1,264.9c-0.1-7.3,4.4-10.8,13.7-10.4
	c9.2,0.3,10.7,1.7,4.6,4.1c-5.1,2-11.2,6.7-13.7,10.4C399.9,273.2,398.1,271.7,398.1,264.9z M1763.4,370.3V249.5l16.8,2.7
	c13.2,2.1,14.8,1.3,7.7-3.9c-5.1-3.7-15.4-6.7-23-6.7l-13.8-0.1v124.7c0,79,2.2,124.7,6.1,124.7S1763.4,446.6,1763.4,370.3z
	 M548.5,466.1c7,0,8.8-15.9,9.5-82.6c0.4-45.5,2-75.6,3.5-67.1c4.3,24.9,39.5,139.8,44.5,145.4c2.5,2.8,6.3-5.6,8.5-18.7
	c2.2-13.1,13.4-53.3,25.1-89.3l21.1-65.5l-3.6,81.7l-3.6,81.7l18.9-2.8l18.9-2.8l1.8-127.2l1.8-127.2h-19.3
	c-18.6,0-19.8,1.6-32.8,45.2c-7.4,24.9-18.3,64.3-24.1,87.7l-10.6,42.4l-22.4-71.3c-12.3-39.2-22.4-74.4-22.4-78.3
	c0-7.8-8.5-8.7-29.1-3.1c-13.7,3.7-13.8,4.3-13.8,131.6c0,114,1.1,127.4,9.7,124C535.5,467.8,543.7,466.1,548.5,466.1L548.5,466.1z
	 M1672.8,350l-1.8-122.4l15.6,4c8.6,2.2,15.6,1.4,15.6-1.7c0-3.1-8.3-6.9-18.4-8.4l-18.4-2.7v126.8c0,69.7,2.1,126.8,4.6,126.8
	C1672.5,472.3,1673.8,417.3,1672.8,350L1672.8,350z M1584.2,364.7c-1.2-18-2.2-3.3-2.2,32.7s1,50.8,2.2,32.7
	C1585.5,412.2,1585.5,382.8,1584.2,364.7L1584.2,364.7z M827,428.2c33.4-8.6,50.1-30.7,53.4-70.7c2.4-29.7,0.9-35.8-12.2-49.1
	c-14.6-14.8-14.7-15.5-3.8-29.2c17.1-21.5,15-65.4-4.1-84.9c-14.2-14.4-18.9-15.4-65.8-13.8l-50.5,1.8l-1.7,128.5l-1.7,128.5
	l32.3-2.8C790.6,435,815,431.2,827,428.2L827,428.2z M777.6,356.9v-40.5h23.5c28.2,0,43.8,14.8,43.8,41.6
	c0,24.6-16.9,39.5-44.9,39.5h-22.5V356.9L777.6,356.9z M780,276.5c-1.8-4.7-2.3-20.8-1.3-35.8c1.7-24.4,3.7-27.4,18.5-29.2
	c26.6-3.1,41.6,8.7,41.6,32.6c0,24-7.2,31.5-35.4,37C789.2,283.8,782.3,282.5,780,276.5L780,276.5z M1481.7,318.8
	c0-119.3,0.3-122.3,12.2-119.1c6.7,1.8,12.2,1,12.2-1.7c0-4.4-20.3-12.3-32.1-12.5c-2.5-0.1-4.6,57.5-4.6,127.8
	c0,81.1,2.2,127.9,6.1,127.9C1479.5,441.1,1481.7,396.2,1481.7,318.8z M1884.5,282.1c16.5,3.2,16.5,3.1-1.7-5.6l-18.4-8.8l-1.7,72
	c-1.6,64.8-2.6,70.9-10.8,60.2c-8.2-10.8-8.5-10.2-2.7,6.9c13.4,39.7,15.2,34.9,16.9-45.3l1.7-82.7L1884.5,282.1L1884.5,282.1z
	 M1396,424.9c10-6.3,11.1-8.1,3.1-5.2c-6.7,2.4-21.9,6.5-33.7,9.1c-21.1,4.6-21.1,4.7-3.1,5.2C1372.4,434.2,1387.6,430.2,1396,424.9
	z M1021.4,416c24.6-15.3,37.3-44.2,42-95.5c9.8-106.3-38-179.8-97.9-150.9c-30.8,14.9-48.3,54-51.8,115.6
	C907.2,397.7,955.8,456.7,1021.4,416L1021.4,416z M967.9,379.2c-25.2-25.7-25.5-132.3-0.5-159.4c18.7-20.3,33.8-19.9,47.4,1.2
	c8.5,13.2,10.9,29.9,10.9,76.7s-2.4,63.5-10.9,76.7C1002,394.2,984.4,396,967.9,379.2L967.9,379.2z M1242.9,415.9
	c0-2.8-7.9-27.9-17.6-55.8l-17.6-50.7l14.5-9.7c32.9-22,31.9-93.3-1.7-120.2c-13-10.5-24.8-12.8-64.1-12.8h-48.2v255.7h15.3
	c15.2,0,15.3-0.4,15.3-56.1v-56.1l16.8,0.1c15.9,0.1,17.8,3.3,34.3,58.1c17.2,57.3,17.7,58,35.2,55.4
	C1235,422.2,1242.9,418.7,1242.9,415.9L1242.9,415.9z M1216.6,411.5c-1.4-2.6-10.1-27.8-19.2-56.1l-16.6-51.5h-24
	c-15.1,0-24-2.9-23.9-7.8c0-5.2,11.5-8.1,33.9-8.8c18.6-0.6,37.6-4.2,42.2-8.1c22.7-19.2,15.1-67.7-12.6-80.6
	c-18.2-8.4-55.4-9.3-60.2-1.4c-1.9,3.1-3.9,36.7-4.6,74.7c-0.6,38-2.7,67.5-4.6,65.6c-1.9-1.9-4.8-38.3-6.5-80.9l-3.1-77.5l43,0
	c50.1,0,66,8.5,76.4,40.6c9.6,29.5,2.7,56.1-18.9,73.4l-18,14.3l18,54.4c13.8,41.4,16,54.4,9.6,54.4
	C1223,416.2,1218,414.1,1216.6,411.5L1216.6,411.5z M1141.4,270.4c-1.8-4.7-2.4-22.3-1.3-39c1.8-29.2,2.7-30.5,21.7-32.3
	c39.5-3.9,67.2,48.6,37,70.2C1181.8,281.3,1145.8,282,1141.4,270.4L1141.4,270.4z M1323.4,412.9c-23.9-20.5-33.5-51.1-34-108.9
	c-0.6-62.4,14.6-104,42.1-115.7c27.9-11.9,61-0.8,75.5,25.3c3.8,6.9,7,8.7,7.1,4.2c0.1-4.6-7.9-16.5-17.7-26.5
	c-13.7-14-23.5-18.2-42-18.2c-53,0-77.3,45.5-73.7,138.2c2.5,63.9,15.6,102.2,38.2,111.5C1341.2,431.8,1342.4,429.1,1323.4,412.9
	L1323.4,412.9z M1385.6,400.9c21.4-21.8,17.5-72-5.7-72c-4.6,0-8.4-4.5-8.4-10c0-6.6,3.3-8.7,9.7-6.2c5.3,2.1,16.2,3.8,24.2,3.8
	c13.1,0,14.7,3.1,16.7,32.7l2.2,32.7l1.1-39l1.1-39H1393c-31.6,0-33.7,0.9-33.7,15.2c0,11.9,3.6,15.6,16.8,17.2
	c14.8,1.7,16.6,4.3,14.7,20.7c-3.2,27.6-11.9,40.6-27.1,40.4c-22.7-0.2-40.8-19.6-46.6-49.8c-3.7-19.1-5.6-22.6-6-11.2
	C1308.9,387.6,1357.5,429.6,1385.6,400.9L1385.6,400.9z M1419.3,394.2c-1.9-1.9-5.3,1.5-7.6,7.7c-3.3,8.9-2.6,9.6,3.4,3.5
	C1419.3,401.2,1421.2,396.1,1419.3,394.2L1419.3,394.2z M1585.8,263c0-45.6,0.3-46.4,15.7-46.4c8.9,0,14-2.7,11.9-6.2
	c-2.1-3.4-10.5-6.2-18.7-6.2c-14.6,0-14.9,1.2-14.9,49.9c0,36-2.1,49.8-7.7,49.5c-4.2-0.2-20.7-2.6-36.7-5.2
	c-16-2.7-29.1-2.7-29.1,0c0,2.7,13.1,6.7,29.1,8.9c16,2.2,31.8,4.8,35.2,5.8C1583.2,316.6,1585.8,308.1,1585.8,263L1585.8,263z
	 M1319.3,252.1c2.2-13.1,9.3-29.2,15.8-35.9c6.5-6.7,9.2-12.1,5.9-12.1c-10.8,0-25.7,30.2-28.3,57.5
	C1309.8,292.4,1313.6,287,1319.3,252.1L1319.3,252.1z M1396,245c0-8.4-14.9-34.3-21.2-36.8c-4.8-1.9-4.1,4.2,2.4,18.2
	C1385.4,244.2,1396,254.7,1396,245L1396,245z M1420.5,235.5c0-3.3-4.1-4.4-9.2-2.4s-9.2,4.7-9.2,6s4.1,2.5,9.2,2.5
	S1420.5,238.8,1420.5,235.5L1420.5,235.5z M162.4,217.8c-1.9-1.9-6.8,0-11,4.3c-6,6.2-5.3,6.9,3.4,3.5
	C160.9,223.2,164.3,219.7,162.4,217.8L162.4,217.8z"/>
<path class="st3" d="M1075,2493.8c-23.1-3.2-38.7-10.8-71.6-34.9c-113-82.5-206.4-158.9-290-237.5
	c-32.1-30.1-102.6-102.5-127.3-130.8c-101.2-115.6-185.1-234-287.9-406.2c-22.7-38-50.3-94.7-88-180.6
	C87.5,1224.5,23.5,942.7,4.6,599.1C1,532.2-0.3,480.6,0,404.8c0.3-62.7,0.6-70.2,3.6-86.7c5.7-31.3,16.6-61,29.9-80.9
	c16.5-24.7,61.1-60.3,96.8-77.3c50.5-24,173.4-61.1,284.2-85.8c30.1-6.7,89.4-18.9,109.6-22.4c5.9-1,18.3-3.3,27.6-4.9
	c9.2-1.7,18.4-3.2,27.6-4.5c5.9-0.8,15.6-2.5,21.5-3.7c5.9-1.2,16.9-3.1,24.5-4.1c7.6-1,23.4-3.1,35.2-4.8
	c9.4-1.3,18.9-2.6,28.3-3.8c37-4.4,49-5.8,73.6-8.5C887.1,3.8,1052.8-2.6,1172.3,1.5c52.5,1.8,171.6,8.7,181,10.4
	c2.6,0.5,14.3,1.4,26,2.1c11.7,0.7,30.9,2.4,42.7,3.8c11.8,1.4,30.8,3.7,42.1,5c53.4,6.1,99.7,12.1,119.5,15.6
	c7.2,1.2,26.1,4.4,42.1,7c168.6,27.1,308.3,66.5,412.2,116.5c44.9,21.6,62.9,33.7,84.7,57.3c25.5,27.5,40.6,56.4,48.6,92.9
	c6.8,30.9,3.7,223.2-5.4,345.4c-12.5,166.7-34,307.1-69.7,453.8c-38.5,158.5-90.1,303.8-165.2,464.7
	c-25.4,54.4-32.2,67.8-53.3,103.7c-11.3,19.3-20.9,35.8-21.3,36.7c-0.4,0.9-2.8,4.7-5.4,8.6s-5.4,8.4-6.4,10.1c-1,1.7-4.8,8-8.4,14
	c-3.6,6-6.9,11.6-7.2,12.5c-0.3,0.9-1,1.9-1.6,2.3c-0.5,0.4-4,5.7-7.7,11.7c-4.1,6.6-8.3,13.2-12.6,19.7c-3.2,4.9-5.9,9.5-5.9,10.4
	s-0.5,1.8-1.2,2.1c-1.6,0.7-9.6,13.4-9.6,15.1c0,0.8-1,1.8-2.3,2.3c-1.3,0.5-2.3,1.6-2.3,2.5c0,0.9-3.8,7.2-8.4,14
	c-4.6,6.8-8.4,13.1-8.4,13.9c0,0.8-1,1.9-2.3,2.4c-1.3,0.5-2.3,2-2.3,3.3s-0.6,2.4-1.3,2.4c-0.7,0-2.3,1.9-3.4,4.3
	c-1.2,2.4-2.7,5-3.3,5.8c-5.2,6.9-11.4,15.7-22.6,31.9c-11,15.9-22.6,32-38.2,53.1c-137.9,186.3-282.2,326.3-508.8,493.5
	c-33.1,24.4-48.6,33.1-67.9,38.1C1105.6,2493.9,1086.5,2495.4,1075,2493.8L1075,2493.8z M1114.2,2479.6c19.1-4.9,34.9-13.7,65.2-36
	c289.4-213.6,451.1-387.3,635.4-682.5c49.5-79.4,73.6-121.4,93.3-163.2c53.6-113.8,92.3-208.5,124-304.2
	c77.1-232.6,118.8-478.5,129.3-763.4c2.5-66.9,2-196.4-0.7-212.5c-7.5-43.9-34-85.6-72.9-115c-14.2-10.7-64.4-36.5-96.5-49.6
	c-95.1-38.9-203.9-68.1-346.2-92.9c-83.6-14.6-192.8-28-298-36.7c-11-0.9-23.7-2-28.4-2.4c-14.3-1.3-81.6-5.3-120.3-7.1
	c-73.8-3.5-207.5-1.7-301.1,4.1c-244.9,15-513.7,64.1-698,127.5c-50.7,17.4-68.8,25.6-95,42.8c-42.5,28.1-61.9,49.4-75.9,83.6
	C12,312,9.1,345.7,11.6,466.4c3.1,153.1,12.1,272.4,29.9,397.7c35.3,248.7,97.2,458.6,203.1,688.5c41.2,89.4,53,111,118.5,216
	c16.2,26,60.2,92.5,78.4,118.5c123.4,176.3,242.8,303.7,420.7,448.7c46.2,37.7,156.1,121.1,174.7,132.6c6.7,4.2,24.5,11.1,32.8,12.8
	C1081.5,2483.6,1101.6,2482.9,1114.2,2479.6z M1073,2416.7c-9.4-2.7-30.7-17.5-74.2-51.8c-267.5-210.3-418.5-375-569.2-620.5
	c-20.2-32.9-47.1-78.9-65.2-111.5c-18.1-32.6-75.7-154.7-104.5-221.4C157.8,1174.7,101.7,929,84.4,643.4c-6-100.4-7-238-1.8-266.7
	c5.7-31.5,16-59.1,30.1-80.5c15.3-23.3,43.7-46.5,70.6-57.7c55.4-23.1,180.7-59.2,287.9-83c186.6-41.3,360.7-62.6,556.2-68.2
	c53.8-1.5,147.2-1,166.3,0.9c3.4,0.3,16.5,1,29.1,1.5c121,4.9,283.4,22.3,399.9,43c143.8,25.5,253.3,58,347.1,102.7
	c14.7,7,32,15.2,38.3,18.2c51.8,24.5,75.5,62.2,83.4,132.8c3.8,34.7-5.3,206.7-17.5,327.7c-34.5,343.2-103.9,593.8-234.5,847.3
	c-52.7,102.4-137,242.2-200.7,333.2c-109.3,155.9-215.1,264.9-428.1,440.8c-4.3,3.6-22.3,18.5-40,33.2
	c-17.7,14.7-36.8,29.9-42.5,33.8C1108.3,2416.3,1088.9,2421.2,1073,2416.7L1073,2416.7z M675.9,1859.2c18.8-8.7,25-22,27.6-58.7
	c1.7-24.4,6.4-33.7,18.5-36.3l6.1-1.3l-0.8-14.7c-1.2-22-0.9-54.7,0.4-59.5c0.6-2.3,8.3-13.2,17-24.2c20.6-26,32.9-44,36.3-53.3
	c1.5-4.1,4.3-17.6,6.1-30c3.7-25.3,2.1-21.6,29.8-67.5c8.2-13.6,20.5-36.3,27.4-50.5c7.4-15.4,14.8-28.2,18.2-32
	c3-3.3,6-6.6,8.9-9.9c1.7-2,3.8-3.6,4.6-3.6c3.1,0,12.3,9.8,15.7,16.8c3.4,7,3.6,8.8,3.6,43.7c0,36.4,0,36.4,3.6,39.4
	c2,1.6,5.2,3,7.1,3c3.5,0,3.5-0.1-0.8-4.7c-6.3-6.8-7.7-16.2-6.6-42.6c0.9-20.8,0.7-23.5-2.4-32.9c-1.9-5.6-3.2-12.5-2.9-15.3
	c0.4-4.8,0.8-5.1,7.4-5.6c7.8-0.6,11.3-3.2,15.5-11.5c2.9-5.8,3.7-10.6,3.2-19.5c-0.2-4.3-1.4-5.6-8.2-9.4
	c-10.5-5.8-13.4-10.2-15.3-23.2c-2.2-15-0.4-61.4,2.8-72.1c2.8-9.4,4.1-9.5,15-1.9c10.7,7.5,43.2,21.5,59.3,25.6
	c19.7,5.1,46.4,5.6,54.9,1.2c7.4-3.8,34.8-25.2,46.3-36c5.3-5,13.7-12.1,18.8-15.8c5.1-3.7,11.9-9.1,15.2-12
	c3.3-2.8,7.6-5.2,9.5-5.2c5.4,0,20,6,25.1,10.4c9.2,7.9,4.6,15.9-17.8,30.7c-17.7,11.7-36.6,32.6-45.4,50c-4,8-22.6,64.1-22.6,68.2
	c0,6.6,5,20.2,10.1,27.4c18.4,26,27.3,40.7,29.2,48.1c1.1,4.5,3.1,10.7,4.4,13.8c5,12.1-1,18.8-21.1,23.8c-7.8,1.9-18.1,4-22.8,4.6
	l-8.7,1.1l2.5,3.8c2.1,3.3,2.7,3.5,3.8,1.4c1.1-2,4.5-2.5,18.8-2.5c14.1,0,19.1-0.6,25.6-3.2l8.1-3.2l3.9,4.9
	c4.3,5.5,29.1,31.4,29.1,30.5c0-3.9-11.9-31.3-21.3-49.2c-6.6-12.4-15-29.3-18.8-37.4c-3.9-8.3-12.4-22.2-19.4-31.8
	c-6.9-9.4-13-18.8-13.7-21c-2.1-7.9-1-21.2,2.7-31.9c5.9-17,10.6-15.8,10.7,2.6c0,13.4,1.7,17.4,16.5,38.9
	c16.9,24.7,18.1,26.9,26.5,48.1c7.1,18,15.9,34.5,26.3,49.5c5.1,7.4,15,34.3,15,40.8c0,2.6-1.9,6-5.2,9.2l-5.2,5.1l-3.3-4.2
	c-1.8-2.3-3.8-3.8-4.3-3.2c-0.6,0.6-1.3,5.6-1.7,11.1c-0.6,9.9-0.6,10.1,4.9,15c5.2,4.7,5.5,5.5,5.5,14.5c0,11.3,3.3,18.9,10.2,23.6
	c2.8,1.9,12,4.7,21.9,6.7l17,3.5l6-4.9c10.6-8.5,22.9-23.6,24.6-30c2-7.5,0.7-13.9-3.4-17.8c-2.1-2-3.8-4.4-5.2-6.9
	c-3.1-6.1-0.4-7.6,13.3-7.6c11.2,0,12-0.3,15.5-4.5c4.1-4.9,14.5-28.1,20.6-45.8c3.1-9.1,3.8-14.1,3.8-26c-0.1-12,0.7-16.9,3.9-26.5
	c5.4-16,5.5-27.9,0.1-38.3c-4.5-8.8-7.8-12.1-19.2-19.4c-12.5-8-11-13,6.2-19.6c9.8-3.8,14.8-8,14.8-12.5c0-3.7-0.1-3.7-13.6-2.8
	c-13.5,0.9-13.6,0.9-16.5-3.4c-8.5-12.5-13.3-14.3-22-8.2c-9.5,6.6-30.7,45.7-30.7,56.5c0,6.3,6.9,12.7,19.6,17.9
	c6.5,2.7,13.4,6,15.4,7.2c6.3,4.1,9.5,11.4,9.5,21.9c0,5.3,0.7,11.6,1.6,13.9s1.6,8.8,1.7,14.3c0.1,8.2-0.8,11.9-4.7,19.8
	c-6.2,12.8-25.4,38-30.5,40c-5.5,2.1-11.2-2.4-13.9-11.1c-2-6.2-1.9-7.3,1.3-14.7c7.2-16.7,8.1-22.8,6.4-46.9
	c-0.9-12.2-2.4-24.1-3.5-26.4c-3.2-7.1-8.2-4.9-18.8,8.1c-10,12.2-16.5,17.4-21.9,17.4c-5.2,0-7.1-5.3-6.2-17.8
	c0.9-12.6,3.7-21.1,14.6-45.4c8.3-18.4,21.3-53.1,25.8-68.5c3.4-11.8,3.8-41.5,0.7-53.8c-1.7-6.6-4-10.5-10.1-17.2
	c-13.8-14.9-31.9-40.7-41.6-59.3c-11.1-21.3-18.6-43.7-14.6-43.7c2.1,0,19.1,22.1,26.1,33.9c8.5,14.4,13,18.1,20.6,17.1
	c5.6-0.8,5.7-0.6,6.6,4.9c3,18.4,11.6,36.6,25.2,52.7c6.3,7.4,32.2,28.6,39.8,32.5c8.8,4.5,23.1,9.2,39.9,13.3
	c10.3,2.5,18.3,3.1,38,3.2c26.2,0,32.1-1.2,38.3-7.5c1.7-1.7,7.1-4.6,12-6.4c4.9-1.8,10.6-4.2,12.7-5.2c5.4-2.9,9.5-9.2,8.4-13
	c-0.8-3-2.3-3.3-20.3-4.2c-23.2-1.2-43.8-6-59.7-14.2c-7-3.5-14.1-6.7-21.3-9.6c-18-6.9-31.7-18-34.8-28.3
	c-1.6-5.2,1.5-9.5,7.6-10.7c2.9-0.6,5.7-1.6,6.2-2.4c0.5-0.8,2-1.4,3.4-1.4c6.5-0.1,6.9-2,3.5-16.7c-4.1-17.7-4.1-20.7-0.2-20.7
	c6.3,0,10.8,3.9,19.4,16.9c4.9,7.4,12.9,17.5,17.6,22.4c7.7,8,9.3,9,14.8,9c3.4,0,6.6-0.7,7.1-1.5c0.5-0.8-0.5-4.3-2.2-7.7
	c-1.9-3.8-3.1-9.3-3.1-14c0-6.5,0.8-8.7,4.7-13.3c4.4-5.1,5.4-5.5,13.6-5.5c10.4,0,17.1,3.8,22.9,12.9c3.4,5.3,4.3,5.8,10.6,5.8
	c5,0,8.6-1.2,12.8-4.1c5-3.5,6.4-3.9,9.6-2.4c2.1,1,5.4,4.4,7.5,7.6c2.4,3.7,5.2,7.2,8.4,10.4c4.3,4.2,5.3,4.4,12.9,3.4
	c4.6-0.6,10-0.4,12.3,0.5c6.9,2.7,7.8,6.4,4.8,21.9c-2.5,13-2.5,14.3,0,20.8c1.4,3.8,4.7,9.2,7.2,12.1c5.2,5.9,5.3,6.2,7.6,25.8
	c2.2,18.7,0.4,31.9-7.4,52.4c-3.3,8.8-8.5,22.7-11.6,30.9c-3.1,8.2-7.5,17.2-9.9,20.2l-4.4,5.3l6.3,4.8c8.1,6.3,14.2,16.8,22.9,39.5
	c12.4,32.3,13.5,36.3,13.7,48.7c0.1,9.9-0.8,14.8-6.3,31.5c-8.7,26.5-8.9,36.7-1.1,47.1c2.9,3.9,5.4,8.3,5.4,9.8
	c0,1.4-3.8,9-8.4,16.8c-19.1,32.2-19.1,46.8,0.3,64.8c10.1,9.4,19.1,14.4,24.7,13.7c3.8-0.4,4.1-1.1,4.6-9.1
	c0.5-9.6,4.8-16.1,10.2-15.3c2.7,0.4,3.3,2,4.2,11.1c1.3,13.2,2,15.1,5.5,15.1c6.3,0,27.7-16.9,32-25.4l2.3-4.6l-6.6,4.7
	c-3.6,2.6-8.3,6.5-10.3,8.7c-4.4,4.9-9,5.2-14.4,0.9c-5.4-4.3-6.3-10.4-3.3-22c3.5-13.6,2.4-24.2-3-28.9c-3.5-3.1-5.8-3.6-15.9-3.6
	c-6.5,0-12.8-0.7-14-1.5c-4.1-2.6,0.6-9,10.5-14c14.4-7.4,15.1-12.6,2.8-19c-8.2-4.2-10.2-7-10.3-14c-0.1-8,5.5-15.6,13.7-18.7
	c9.8-3.7,13.9-9.2,13.9-18.8c0-10.7-3.6-17.7-12.9-24.8c-15.1-11.5-14.7-10.9-14.7-24.8c0-10.1,0.6-13.1,2.8-15.4
	c2.1-2.1,3.1-6.1,3.7-15.6c0.6-8.2,2-15.1,4.1-19.4c5.1-10.7,4.6-13.4-5.4-28.4c-6.3-9.6-8.3-19.3-8.3-41.4c0-9.3-0.6-18.5-1.4-20.6
	c-2-5.3-0.2-23,2.4-24c4.5-1.7,11.3,3.1,16.2,11.4c5.4,9.2,6.5,9.9,7.7,5.3c1.3-5,8.7-3.9,26.4,3.9c40,17.7,84.8,21.3,109,8.8
	c13.8-7.2,38.6-29.1,45-39.7c5.9-9.9,5.6-10.1-19.2-9.2c-25.1,0.9-40.1-1-56.7-7c-14.1-5.1-29.6-15.7-38.4-26.1
	c-3.9-4.6-14.2-14.4-22.9-21.8c-8.7-7.4-16.2-14.4-16.7-15.7c-0.6-1.3-1.9-2.2-3.3-2.3c-4.7,0-25.4-9.7-36.8-17.3
	c-6.3-4.2-14.3-9.1-17.7-10.9c-11-5.7-53-14.4-79.1-16.3l-14.1-1.1l-1-5.7c-1.9-10.4-5-17.3-14.3-32c-7.7-12.1-9.3-15.7-9.3-21.4
	c0-8.2-3.4-16.1-14.4-34c-5.5-8.9-9.4-17.6-11.6-25.8c-1.8-6.8-6-18.5-9.3-26c-7.4-17.1-10-26.5-12.1-44.2
	c-2.4-19.6-5.1-30.7-12-49.3c-3.3-8.9-7.6-23.9-9.4-33.3c-4.8-24.5-6.6-29-19.1-47.6c-6.2-9.2-11.7-19-12.3-21.9
	c-0.6-2.9-3-7.4-5.3-10.1c-2.3-2.7-6.8-9.3-10.1-14.8c-3.3-5.5-7.5-12.4-9.5-15.3c-1.9-2.9-3.5-7.2-3.5-9.6c0-6.6,3.7-8.6,15.2-8.1
	c24.3,1,43,19.5,67.6,66.7c19.5,37.5,35.5,56.8,55.4,67c7.8,4,12.9,5.5,18.1,5.5c9.2,0,12.5-3.4,13.5-13.9c0.9-9-0.9-17.3-9.2-43.8
	c-4.8-15.3-6.3-23-7.1-35.4c-1.2-19.3-2-20.5-19.4-26.6c-14.9-5.3-15.8-8-3.6-11.2c12.1-3.1,25.1,0.2,39.2,10.1
	c9.3,6.5,11.1,7.2,17,6.5c5.3-0.6,8.2-2.3,15.4-9.1c8.1-7.7,8.8-8.8,8.2-14c-0.7-6.3,3.4-15.9,8.9-20.9c4.5-4.1,7.1-10.6,12.4-31
	c7-27.2,5.2-50-5.6-68.8c-8.6-15-49.6-48.1-73.3-59.3c-21.7-10.2-22.8-10.3-140.4-11.7c-131.2-1.6-189.6-4.5-206.5-10.3
	c-24.5-8.4-42.1-23.7-39.5-34.2c1.5-6,9.7-14.3,17-17.1c13.7-5.3,32.9-1.5,70.4,13.8c34.4,14,55.2,17.6,94.9,16.3
	c35.3-1.2,63.2-5.5,70.3-10.8c2.6-2,2.6-2.1,0-4.6c-1.5-1.4-12.8-5.1-25-8.3c-26.8-7-41.4-12.6-41.4-15.9c0-2.1,2.7-2.3,20.3-1.5
	c20.5,0.9,43.4,4.8,61.2,10.5c11,3.5,35.8,4.3,43.9,1.4c5.4-1.9,6.3-5.9,2.4-9.9c-9.8-10-63.7-29.6-105.1-38.2
	c-26.1-5.4-46.3-6.8-89.8-5.9c-53.6,1.1-75.7,5-101.3,18.2c-20.9,10.7-45.4,33.4-53.1,49.1c-9,18.4-2.9,30.7,23,46.5
	c18,10.9,32,15.4,62.1,19.8c54.4,7.9,92.8,9.8,198.4,9.7c51.6-0.1,92.7,0.6,98.1,1.4c15.9,2.7,34.5,9.4,44.3,16.1
	c11.4,7.8,25.4,24.6,32.8,39.1c4.8,9.6,5.5,12.4,5.6,22.6c0.1,10.1-0.5,12.8-4.3,19.8c-5.9,10.9-18.1,24.5-24.1,27
	c-7.2,3-24.5-0.1-45-7.9c-14.2-5.5-19.4-6.7-33.7-7.7c-18.7-1.4-20.8-2-48.5-14.5c-28.3-12.8-71.5-27-93.1-30.7
	c-10.3-1.8-20.3,0.2-34.7,7c-14.5,6.8-22.8,13.5-51.7,41.6c-27.2,26.5-39.5,36.3-54.7,43.7c-27.6,13.4-106.3,58.4-113.7,65
	c-10.8,9.6-28.9,31.9-36.5,45c-14,24-18.3,42.8-20,87c-1.1,30.1-1.3,31.6-6.1,44c-5.3,13.8-19.5,38.7-38.7,67.8
	c-18,27.4-31,49.1-39.6,66.6c-17,34.3-20,47.5-21.4,96.1l-1.1,35.9l-5.6,16.5c-3.1,9-9.4,25.9-14.2,37.4
	c-17.6,42.8-17.2,40.6-18.9,119.2l-1.2,57.7l-6.4,12.9c-3.5,7.1-9.4,17.4-13.1,22.9c-8.5,12.6-10.9,22.8-14,59.3
	c-1,11.5-2,23-3.1,34.6c-0.6,5.7-3,9-20,28.1c-32.5,36.3-44.9,55.2-44.9,68.2c0,6.5-0.5,7.3-6.5,11.6c-11.9,8.3-28.6,27.8-34.2,39.8
	c-6.6,14.2-8.2,27.4-4.2,35.3c4.5,8.8,7.5,7.4,20.2-9.9l11.3-15.3l3.7,3.5c2,1.9,3.7,4.4,3.7,5.5s-2.8,7.8-6.2,14.9
	c-3.4,7.2-6,14.7-5.7,16.9c0.6,5.2,5.9,6,38,5.7C665.6,1862.8,669,1862.4,675.9,1859.2L675.9,1859.2z M661.6,1774.7
	c-5.3-2.1-13.2-20.2-11.9-27.2c1.1-6,2.6-6.5,10.6-3.1c8.3,3.5,12.3,2.9,20.1-3.1c7.5-5.9,9.9-6.5,12.8-3.6
	c2.7,2.8,2.2,7.6-1.4,14.6c-1.8,3.5-3.7,7-5.5,10.5C682,1771,668.6,1777.4,661.6,1774.7L661.6,1774.7z M711,1627.5
	c-3.4-3.5-3.8-5.1-3.8-17c0-7.3-0.3-14.1-0.7-15.3c-0.4-1.2-0.1-3.1,0.7-4.4c1.2-1.9,2.3-1.5,6.2,2.7c3.8,4.1,5.9,5.1,11,5.1
	c4.4,0,7.4-1,9.8-3.3c4.7-4.5,8.3-2.9,8.1,3.7c-0.2,10.5-6.9,22.4-15.7,28.3C718.9,1632.3,715.8,1632.4,711,1627.5z M1198.7,1613.5
	c-4.1-1.1-8.1-2.7-8.9-3.6c-2.7-2.7-5.2-21.7-3.5-26.5c3.2-9.4,14.8-5,17.7,6.6c1.7,6.8,1.9,7,7.6,7c6.8,0,9.1,2.9,9.1,11.4
	c0,4.8-0.5,5.5-4.8,6.3C1209.5,1616,1207.4,1615.9,1198.7,1613.5L1198.7,1613.5z M743,1484c-6.4-2.9-8.7-10.5-7.9-26.8
	c0.7-14.9,6.7-28.9,14.9-34.4l5.1-3.5l3.8,4.6c2.3,2.8,5.3,4.6,7.6,4.6c5.6,0,17.2-6.7,25.9-14.9c4.2-4,11.6-10.8,16.4-15
	c10.8-9.6,13.5-16.1,13.5-32c-0.1-20.7-1.5-25-11.3-33.9c-9.8-8.9-13.6-16.8-13.6-28.2c0-13.4,6.4-20.9,17.9-20.9
	c6.3,0,10.7,4.3,18.7,18.2c13.2,22.9,32.3,31.7,45,20.8c6-5.3,8-5.6,11.4-2.2c2,2,2.4,6.6,2.4,24.9c0,12.3,0.6,24.1,1.4,26.2
	c1,2.6,4.2,4.9,10,7.3c10.5,4.3,13.8,9.6,12.7,19.9c-0.9,8.4-5.6,13.9-13.6,16.1c-8.6,2.4-14.9,0.1-41.1-14.9
	c-7.9-4.5-16.8-5.1-22.3-1.4c-2.1,1.4-7.3,7.3-11.6,13.2c-6.1,8.4-11.2,13-23,21.1c-16.7,11.4-21.5,16.2-31.2,31.7
	c-7,11.1-15.3,20.4-18.2,20.4c-1,0-3.2,0.4-4.9,0.8C749.2,1485.9,745.7,1485.2,743,1484L743,1484z M989.2,1154
	c-5.5-2.6-13.4-5.4-17.6-6.4c-9.8-2.1-15.5-5.1-18.4-9.7c-2.1-3.3-2.1-4.6,0.1-13.2c2.8-11,1.3-19.6-4-24.6
	c-2.7-2.5-5.4-2.9-16.5-2.7c-7.6,0.1-16.1,1.3-19.9,2.7c-3.7,1.4-6.9,2.5-7.1,2.5c-0.7,0,1.1-14.8,2.5-20.6c1-4.1,3-6.7,6.8-9.1
	c9.2-5.7,10.4-9.1,9.4-24.7c-1.2-18.8,1.1-28.1,7.1-28.2c0.7,0,3.9,2.6,7,5.8c4,4.1,6.8,9.2,9.2,16.8c6,18.6,8.5,22.6,14.2,22.6
	c9.2,0.1,9.5,1,9.5,22.9c0,24,1.5,27.7,17.4,43.8C1013.5,1156.6,1013.6,1165.5,989.2,1154L989.2,1154z M1238.4,1028.7
	c-0.6-2.3-0.6-10.3,0-17.9l1-13.8l-4.4-2.9c-3.9-2.6-7.8-2.9-35.8-3c-27.5-0.1-32.3-0.4-37.6-3l-6.1-2.9l4.6-1.1
	c2.5-0.6,11.2-1.2,19.2-1.3c16.8-0.2,23.4-1.7,30.5-7.1c19.9-15,15.9-33.5-13.7-63.3c-18.5-18.6-21.7-23.7-21.1-33.1l0.5-6.5
	l7.7,7.9c4.2,4.3,10.1,12.1,13,17.2c8.4,14.6,36.3,53.4,46.8,65.1c15.3,17,21,31.9,18.5,48.1c-1.3,8.6-10.3,19.6-17.2,20.9
	C1239.9,1032.7,1239.3,1032.3,1238.4,1028.7L1238.4,1028.7z M1205,781.8c-2.6-3-5.1-6.2-7.4-9.5c-1.9-2.9-6.8-9-10.8-13.7
	c-8.7-10.2-9.9-13.8-6-17.8c4.1-4.2,21.4-4.2,29-0.1c7.7,4.2,13.6,16.6,14.8,31.2l0.9,11.5l-4.6-1c-3.4-0.8-4.9-0.4-5.6,1.4
	C1214.1,787.4,1209.3,786.5,1205,781.8L1205,781.8z M1160.1,562c-1.7-0.4-6.3-2.2-10.3-3.9c-8.7-3.8-10.9-8.3-5.8-12.4
	c4.4-3.7,7.9-3.6,15.7,0.5c3.5,1.8,10.5,3.6,15.6,4.1c6.5,0.5,11,2,15.1,4.7c6.3,4.3,7,5.8,3.3,7.2
	C1190.8,563.2,1164.6,563.1,1160.1,562L1160.1,562z M844.6,1780.6c10.5-5.5,20.3-16.9,28.9-34c4.3-8.4,10.2-17.3,14.7-21.8
	c9-9.2,10.9-12.7,15.1-28.5c4-14.8,10.7-28.7,23-47.4c13.9-21.2,20.1-27.2,38.4-37.2c28.9-15.8,30.6-17.9,32.4-39.8
	c0.7-8.6,2.3-17.6,3.6-20c2.9-5.6,17.3-19,29-26.8l9-6h-42.5c-32.9,0-44.8,0.5-53,2.4c-5.8,1.3-13.8,2.2-17.9,1.9l-7.4-0.5
	l-9.5,24.2c-5.2,13.3-9.6,25.5-9.6,27.2c-0.1,5.2-4.9,23.2-7.8,29c-4,7.9-30,35.5-36.9,39.1c-3.2,1.7-7.9,3.1-10.3,3.1
	c-5.4,0-11.5,4.6-13.9,10.5c-1,2.4-6.7,7.8-12.7,12.1c-13.8,9.9-30.7,25.8-35,32.9c-5.1,8.4-7.6,20.3-7.6,36.7
	c0,16.6,3.2,31.1,7,31.1c1.3,0,7.2-3.5,13.2-7.8c17.5-12.5,21.1-9.9,10.4,7.8c-3.4,5.6-6.1,10.9-6.1,11.9c0,3,10.9,5.1,24.5,4.6
	C834.2,1784.8,838.3,1783.9,844.6,1780.6L844.6,1780.6z M859.6,1695.6c-9.8-7.3-19-16.7-19-19.5c0-1.6,3.6-4.4,9.4-7.4l9.3-4.8
	l6.2,4.2c8.4,5.7,15.4,6.4,25.4,2.5c11.2-4.3,12.4-3.6,10.7,6.5c-0.7,4.5-2.2,9.8-3.2,11.9c-2.4,4.9-12.3,9.3-23.6,10.4
	C866.6,1700.2,865.4,1699.9,859.6,1695.6L859.6,1695.6z M1020.6,1698.4c3.4-0.9,1.8-1.2-6.6-1.4c-9.8-0.2-11.2-0.5-10.7-2.9
	c0.3-1.5,4.1-4.5,8.4-6.6c4.4-2.1,8.5-4.5,9.2-5.2c0.7-0.7,1.2-6.8,1.2-13.6c0-14.7,2.1-17.8,13.7-20c8-1.5,11.6-4.7,11.6-10.5
	c0-2.7-1.6-4.3-6.8-6.6c-8.4-3.8-11.4-8.4-7.4-11.9c1.5-1.3,8.4-7.4,15.4-13.5c11.2-9.8,12.9-12,14.7-19.1c4-15.3,7.2-34.8,6.1-37.7
	c-1.5-4.2-6.9-10-9.3-10c-1.1,0-3.4-1.4-5.1-3.1c-2.1-2.1-3.1-2.4-3.1-1c0,1.1-4.6,9.7-10.2,19.1c-5.6,9.4-13,22.9-16.3,30
	c-5.5,11.6-7.2,13.7-15.5,19.4c-23.3,16.1-35.8,36.4-39.2,64c-1.6,12.9-0.6,21.4,2.6,21.4c1.2,0,5.9-3.2,10.3-7
	c4.4-3.9,9.3-7,10.7-7c2.4,0,2.6,1.2,1.6,10.7l-1.1,10.7l5.1,1.7C1006.1,1699.9,1014.1,1700,1020.6,1698.4L1020.6,1698.4z
	 M1499.1,1160.9c2.9-2.2,8.3-8.3,12-13.5l6.8-9.4l-3.9-4.9c-15.3-19.2-24.9-33.6-32.2-48.5c-4.7-9.5-8.5-18.3-8.4-19.5
	c0.1-3.8,4.8-8.7,14-14.6c20.8-13.4,23.1-19,24-59.4c0.4-19,0-32.9-1.2-39c-2.5-13.1-9.6-27.2-19.1-37.8l-8-8.9l-6,1.8
	c-7.3,2.3-18.5,13-22.3,21.4c-4,8.9-3.5,19.4,1.8,40.6c3.2,12.7,4.7,22.4,4.7,30.4c0,14.1-0.6,17.7-7.1,45.1
	c-6.6,27.7-8.6,42.9-8.6,65.9c0,20.5,2.1,30.5,7.9,39.2C1463.8,1165.2,1486.6,1170.6,1499.1,1160.9L1499.1,1160.9z M206.3,570.2
	c14.1-7.6,51.5-23.7,82.3-35.3l26.4-10v-21.4c0-12.1-0.6-21.4-1.4-21.4c-1.9,0-46.9,18.6-62,25.6c-6.6,3.1-12.7,5.6-13.4,5.6
	c-0.8,0-1.3-48.1-1.3-109.9c0-60.5-0.5-109.9-1.1-110c-0.6,0-11.2,4.7-23.6,10.5l-22.4,10.5l-0.7,129.4c-0.4,71.2-0.4,130-0.1,130.6
	C190.2,576.9,196.8,575.3,206.3,570.2L206.3,570.2z M1984,515.1c-0.3-30.7-0.9-89.7-1.5-131.1l-1.1-75.3l-19.9-8.5
	c-11-4.7-21.8-8.5-24.1-8.5h-4.2v260.1l6.5,1.7c3.6,1,14.4,5.2,24.1,9.4c9.7,4.2,18.3,7.7,19.1,7.8
	C1983.9,570.8,1984.3,551.6,1984,515.1L1984,515.1z M1899.2,349.3l0.2-72.7l-17.2-5.8c-9.5-3.2-18.4-6.5-19.9-7.3
	c-1.5-0.8-4.7-1.4-7.3-1.4h-4.6l-0.2,65.9c-0.1,36.2-0.1,66.8,0.1,67.8c1.1,8.7-6.5-8.4-33.6-75.4c-23.5-58-32.1-77.7-34.4-78.7
	c-5.8-2.5-34.3-9.2-39-9.2h-4.7v262h3.9c3.2,0,33.2,7,44,10.3c2.6,0.8,2.6-3.3,1.7-79.2c-0.7-55.3-0.5-79.5,0.6-78.5
	c0.9,0.9,17.8,41.5,37.6,90.4l36,88.8l17.4,5.6l17.4,5.5l0.9-57.7C1898.5,447.9,1899.1,389.3,1899.2,349.3L1899.2,349.3z
	 M335.9,518.7c2.5-1.3,11.4-4.4,19.7-7c8.3-2.6,15.2-4.9,15.3-5.1c0.1-0.2,3.6-17,7.6-37.4l7.4-37l7-2.1c24.2-7.3,40.3-10.8,41.4-9
	c0.6,1,4.1,15.3,7.8,31.9c3.7,16.5,7.1,30.5,7.7,31.2c0.5,0.6,10.9-1.2,23.1-4.1c18.2-4.3,22-5.7,21.7-7.9c-0.3-1.4-6-21.7-12.7-45
	c-6.8-23.3-22.3-77.2-34.5-119.6s-22.5-77.5-22.9-77.8c-0.3-0.4-7.7,1.2-16.4,3.5c-8.6,2.3-17.4,4.3-19.5,4.5
	c-3.7,0.4-4.1,2.1-22.5,85.4c-10.3,46.7-24.2,109.8-30.9,140.1c-12.1,54.6-12.2,55.1-8.9,56.4C330.8,521.3,330.8,521.3,335.9,518.7
	L335.9,518.7z M393.2,398.1c0-2.5,15.3-78.9,16.3-81.4c1.1-2.8,3,4.3,12,44.1L428,390l-6.3,1.6c-6.6,1.7-21.3,5.8-25.8,7.1
	C394.4,399.2,393.1,398.9,393.2,398.1L393.2,398.1z M1705.3,353l0.9-129.7l-8.8-1.8c-8.3-1.7-16.6-3.5-24.9-5.4
	c-8.8-2-17.3-3.5-18.8-3.5c-2.5,0.1-2.7,5.7-3.1,93.8c-0.4,90.8,0.1,166.5,1.2,167.5c1.2,1.2,50.6,10.6,51.5,9.7
	C1704,483.2,1704.8,424.4,1705.3,353L1705.3,353z M539.6,465.6c10.8-2.1,19.8-3.9,20.1-3.9c0.2,0,0.6-29.6,0.9-65.9
	c0.3-49.1,0.8-64.9,2.1-62c0.9,2.1,11.2,30,22.8,62c11.7,31.9,21.9,58.1,22.8,58.1c5-0.1,4.5,1.3,36.4-109.1
	c4.3-15,8.5-27.9,9.2-28.8c0.7-0.8,1.3,28.1,1.3,64.3c0,36.2,0.5,65.8,1.1,65.8c1.8,0,35.9-4.5,41.1-5.4l4.7-0.8L701.5,314
	c-0.3-69.3-0.9-128.3-1.3-131.1c-0.8-4.9-1.1-5.2-5.7-4.4c-13.1,2.3-35.1,4.4-38.6,3.8c-2.1-0.4-4.2-0.3-4.5,0.3
	c-0.3,0.6-10,31.5-21.5,68.8s-21.6,70.1-22.5,72.9c-0.9,2.8-1.9,4.9-2.3,4.5c-0.4-0.4-10.3-29-22.1-63.6
	c-11.8-34.6-21.7-63.7-22-64.7c-0.4-1.2-6.2-0.6-18.7,1.9c-10,2-20.3,3.6-22.9,3.7l-4.7,0.1l-1,49.4c-0.6,27.2-1,86.1-1,130.9
	c0,87.1-0.4,81.9,6.4,83.1C519.6,469.5,528.8,467.8,539.6,465.6L539.6,465.6L539.6,465.6z M1617.1,336.5l0.4-130.4l-3.5-0.7
	c-14.9-3.3-37.6-7.1-41.8-7.1h-5.1l0.9,50.7c0.8,49.1,0.8,50.7-2.1,50.7c-1.6,0-14.3-1.7-28.2-3.9c-13.9-2.1-25.8-3.9-26.4-3.9
	c-0.6,0-1.2-23.2-1.2-51.5v-51.4l-3.4-0.7c-6.8-1.4-38.8-5.6-42.9-5.6h-4.2V444l24.1,3.2c13.3,1.8,24.5,3,25.1,2.7
	s0.6-27.3,0.2-60.1l-0.8-59.5l3.7,0.9c2,0.5,14.9,2.4,28.6,4.4l24.9,3.5v121.1l5,0.1c2.7,0.1,13.6,1.7,24.1,3.7
	c10.5,2,19.8,3.5,20.7,3.3C1616.2,467,1616.8,421.9,1617.1,336.5L1617.1,336.5L1617.1,336.5z M1380.4,439.1
	c23.3-6.2,38.4-21,45.7-44.6c2.5-8.3,2.9-14.7,2.9-53V298h-70.5v7.6c0,4.2-0.4,12.9-1,19.5l-1,11.9h29.9l-0.5,20.8
	c-0.5,19.4-0.8,21.2-4.6,27c-11.3,17.4-34.7,14.3-48.4-6.4c-9.9-15-10.3-18.5-10.3-84.4c0-58,0.1-59.4,3.4-65.6
	c4.1-7.8,12.8-15.8,18.5-17.1c2.3-0.5,5-1.2,6-1.5c3.6-1.1,13,2.7,18.3,7.4c6.6,5.9,11.1,14.5,12.4,23.8l0.9,7h22.8
	c26,0,24.2,1.4,20.6-15.8c-7.4-35.5-36-59.1-71.8-59.1c-35.4,0-64.3,22.4-74.9,57.9c-1.5,5.2-2,21.8-2,68.4c0,68,0.9,76.2,10,94.7
	c5.8,11.8,18.4,26,29.5,33.4c8.3,5.4,22.7,11.2,31.7,12.8C1356.7,441.9,1372.3,441.3,1380.4,439.1L1380.4,439.1z M800.7,430.6
	c52.5-4.5,55.9-5.5,69.2-19.9c24.5-26.6,27.9-81.8,6.4-103.9c-4.8-4.9-14.9-10.2-19.7-10.3c-2,0-0.7-1.2,3.6-3.4
	c23.1-11.7,30-60.3,13.5-95.7c-6.4-13.8-15.2-23.1-26.8-28.5l-8.6-4l-25.3,1.9c-25.9,2-75.6,6.6-76.2,7.1
	c-0.2,0.2-0.8,59.1-1.4,131.1l-1.1,130.8l14.4-0.9C756.7,434.2,780.1,432.3,800.7,430.6L800.7,430.6z M780.4,393.8
	c-0.6-0.6-1.2-17.4-1.2-37.3v-36.2l22.6-0.9l22.6-0.9l5.1,4.9c2.8,2.7,6.9,8.8,9.2,13.5c3.6,7.4,4.1,10.5,4.1,22.6
	c0,12.6-0.4,14.8-4.3,21.4c-6.5,11.3-10.4,12.7-35.6,13.4C791.2,394.7,781.1,394.4,780.4,393.8L780.4,393.8z M788.1,279.7l-8.8-0.6
	l0.4-33.8l0.4-33.8l20.9-0.4l20.9-0.4l7.1,8c16.6,18.8,14.8,49.3-3.6,58.7C818.3,280.9,812.8,281.2,788.1,279.7L788.1,279.7z
	 M1009.6,425.1c32-6.9,54-29.9,57.7-60.4c0.8-6.3,1.2-39.5,1.1-73.8c-0.4-68.8-0.7-71-10.6-90.4c-5.8-11.3-20.5-26.6-31-32.3
	c-10.2-5.5-23.6-9.4-35.6-10.2c-26.8-1.8-56.2,18.3-70.9,48.7c-10.5,21.6-11,27.1-9.8,98.2c1.2,66.9,1.8,72.5,9.5,87
	C934,418.5,973.2,433,1009.6,425.1L1009.6,425.1z M976.8,384.7c-8.4-3.1-14.7-8.3-19-15.7l-3.9-6.8l-0.3-65.3l-0.3-65.3l4.2-8.8
	c10.7-22.2,36.1-26.2,54.5-8.6c7,6.7,11,15.2,12.6,26.6c0.7,5.2,1.5,34.1,1.7,64.1c0.5,54.2,0.4,54.6-3,61.9
	C1015.4,383,994.4,391.1,976.8,384.7z M1252.8,423.9c0-1.1-10-27.4-22.2-58.5c-12.2-31.1-22.2-57.1-22.2-57.9c0-0.8,2.6-1.9,5.7-2.5
	c22.7-4.3,35.6-27,35.7-62.4c0-33.6-13.9-64.2-34.8-76.7c-7.9-4.7-20.3-5.8-79.7-7.5l-37.2-1v261.9l5,0.8c2.7,0.4,13.5,0.9,23.8,1
	l18.8,0.3l-0.2-55.8l-0.2-55.8l12.9-0.4l12.9-0.4l13.7,44.9c7.5,24.7,15.5,50.5,17.7,57.4l4,12.5l16.7,0.4c9.2,0.2,17.8,0.7,19.1,1
	C1247.5,426.2,1252.8,425.7,1252.8,423.9L1252.8,423.9z M1145,273.6c-0.6-0.6-1-17-1-36.5v-35.4l18.9-1.1c20.9-1.2,27,0.2,35.1,8.1
	c13.3,13,12.6,48.8-1.3,61.2l-5.3,4.7h-22.7C1156.2,274.6,1145.6,274.1,1145,273.6L1145,273.6z"/>
<path class="st4" d="M1048.3,2401.3c-51.2-31.8-178.9-135.6-264.6-215.3c-140.7-130.7-281.8-305.9-378-469.3
	C200.6,1368.4,94.1,962.2,81.5,480.9c-3.7-140.5-3.4-145,9.9-173.1c17.7-37.2,33.6-48.1,117.7-81C441.4,136,686.7,94,1022.5,87.5
	c379.2-7.4,692.7,38.4,945,137.9c87.4,34.5,103,45.1,120.8,82.5c13.4,28.2,13.6,32.3,9.9,176.2
	c-20.5,790.4-291.7,1376.6-844.9,1826.8c-67.1,54.6-137.1,104.4-154.5,109.9C1090.1,2423.5,1074.2,2417.4,1048.3,2401.3
	L1048.3,2401.3z M676.5,1862.2c9.6-4.5,16.6-15.9,21.8-35.5c4.2-15.9,11.9-34,17.2-40.2c5.8-6.8,10.5-27.6,12.1-52.6
	c2.3-36.6,5.3-44.9,26.1-71.7c13.4-17.3,27.7-45.5,33.4-65.8c5.5-19.6,14.2-44,19.5-54.3c39.3-77,64.7-121.6,69.1-121.6
	c13.5,0,24.3,29.6,24.3,66.6c0,29.2,2.4,40.2,9.8,44.5c8.8,5,8.9,7.5,0.9,23.7c-4.9,10-10.9,26.3-13.3,36.4
	c-5.9,25.1-25.6,51.8-46,62.6c-9.4,4.9-29.8,21.6-45.4,37.1c-22.5,22.3-28.4,32.4-28.3,48.6c0.1,27.5,8.9,41.9,19.2,31.4
	c12.3-12.6,17.9-8.9,13.6,8.8c-3.9,16-3.4,16.4,16.4,12.4c25.4-5.2,48.3-20,52.5-34c1.7-5.8,5.6-14.8,8.6-19.9s14.3-28.5,25.2-52
	c13.6-29.2,28.4-49.8,47.1-65.5c15-12.6,31.4-32.6,36.2-44.5c14.5-35.3,56.6-65.4,56.6-40.5c0,14.6-23.7,58.7-41,76.4
	c-21.8,22.2-38.5,51.9-38.6,68.4c0,14.5,8.6,18.8,15.3,7.8c6.7-11,14.3-6.7,11,6.2c-2.7,10.5-0.2,12.5,15.7,12.5
	c31.5,0,61.1-18,65.6-40c2.2-10.6,9.3-28.2,15.8-39.1c7.7-13,10.5-25.3,7.9-35.5c-4.1-16.8,7.1-60,15.6-60
	c6.3,0,28.5,46.5,34.2,71.7c2.3,10.3,9.6,24.8,16.2,32.2c11.2,12.6,16.1,13.3,71.1,10.1c57-3.2,59.7-4.1,74.4-22.6
	c11.1-13.9,16.3-29.6,18.8-56.9c4.4-48.1,25.2-80.9,72.8-115l35.7-25.5l8.8,14c4.8,7.7,15.3,30.1,23.2,49.9
	c13.3,33,13.8,38.4,6.7,66.8c-4.3,17-5.9,36.7-3.7,43.9c2.3,7.3-0.7,26.7-6.8,43.8l-10.9,30.8l14.5,15.7c16.4,17.8,27.8,20,32.9,6.3
	c4.7-12.4,16.2-12,16.2,0.5c0,13.3,12,8.4,25.9-10.5c10.6-14.4,10.7-17.1,1.6-43.3c-5.3-15.3-8.4-32.7-6.9-38.6
	c1.5-5.9,0-22.8-3.3-37.4c-7.6-33.5-7.2-72.8,1.2-114.1c5.9-29,5.1-35.3-8.7-65.6c-8.4-18.5-14.1-34.7-12.7-36.2
	c1.4-1.4,13,1.6,25.8,6.7c59.4,23.8,105.7,18.4,133.9-15.7l16.7-20.2l-36.2-3.1c-41.1-3.6-43-4.5-86.3-43.2
	c-30.6-27.3-31.7-29.4-28.4-53.8c1.9-14.4-1.1-46-7-73c-9.6-43.9-9.6-50.3-0.7-81.7c5.4-18.7,9.7-42.3,9.7-52.4
	c0-30.1-16.5-76.7-35.9-101.3c-10-12.7-21.2-34.4-24.8-48.2c-3.7-13.8-13.4-35.2-21.7-47.7c-14.2-21.3-14.5-23.8-6.1-44.3
	c4.9-12,8.9-37.2,8.9-56c0-29.8-2.6-37.3-19.9-57.4c-37.5-43.5-55.1-47.5-234.2-52.9c-206.8-6.2-239.3-14.1-207.2-50.3
	c13.1-14.8,34.6-14.4,79.2,1.4c48.8,17.3,108.4,21.6,143.3,10.3c30-9.7,30.5-9.2-21.4-20.2c-8.4-1.8-15.3-6.4-15.3-10.2
	c0-4.7,9.5-5.6,29.1-3c80,10.8,93.4,11.6,93.4,5.6c0-10.1-53.8-30.9-109.9-42.5c-90.2-18.6-177.1-3.2-218.3,38.7
	c-25.3,25.8-28.2,53.1-7.1,67.1c26.5,17.6,70.1,23,225.8,28c142.4,4.5,159.5,6.2,184.2,18.4c30.4,15,43.7,34.6,42.9,63.5
	c-0.7,24-16.4,49.6-30.6,49.6c-23.9,0-103-20.2-159-40.6c-32.9-12-65.3-21.7-72-21.7c-15.2,0-33.1,12-86,57.5
	c-22.8,19.6-63.4,47.3-90.3,61.5c-86.8,46-113.6,82.6-125.7,171.6c-6.5,48.2-14.6,67.5-52,123.7c-31,46.6-52.9,109.3-53.1,151.7
	c-0.1,20.5-7.3,53.2-19.1,87.3c-15.7,45.1-19.2,65.4-20.4,116.9c-1.2,53.5-3.6,66.5-17,91.5c-9.6,18-17.3,44.8-19.9,70.3
	c-3.9,37.5-7,44.3-34.4,77c-16.5,19.7-30.1,39.2-30.1,43.4c0,4.2-8.4,17.2-18.5,29c-23.4,27.1-34.8,58.2-25.1,68.1
	c5.2,5.3,9.4,3.6,16.4-6.7c13.4-19.5,21.1-17.2,15,4.6c-3.5,12.5-2.9,19.4,2,21.5C623.6,1876.1,658.4,1870.6,676.5,1862.2
	L676.5,1862.2z M1145.1,553.7c-17.2-11.1-0.8-14,25.5-4.5l26.4,9.5l-21.4,0.4C1163.8,559.3,1150.1,556.9,1145.1,553.7L1145.1,553.7z
	 M261.8,546.1c47.5-17.6,50.5-19.9,50.5-36.9c0-10-0.9-18.1-2.1-18.1c-1.2,0-18.1,5.6-37.7,12.5c-19.6,6.9-36.5,12.5-37.7,12.5
	c-1.2,0-2.1-49.1-2.1-109.2s-1-109.2-2.1-109.2c-1.2,0-10.8,3.1-21.4,6.8l-19.3,6.8v131c0,122.3,0.7,130.8,10.7,126.7
	C206.4,566.8,234,556.4,261.8,546.1L261.8,546.1z M1989.9,441.8V311.4l-19.3-6.8c-10.6-3.8-20.2-6.8-21.4-6.8
	c-1.2,0-2.1,58.5-2.1,130.1v130.1l19.9,6.5c7.2,2.3,14.3,4.7,21.4,7.1C1989.2,571.8,1989.9,513.5,1989.9,441.8z M1896.7,405.7
	l-1.7-129l-16.8-4.6l-16.8-4.6l-0.1,69.6c-0.1,79.8-0.7,79.6-37.4-14.6c-26.9-69-35.6-81.1-58.6-81.1h-14.1v127.9
	c0,98.1,1.8,127.9,7.7,128c4.2,0,13.8,1.7,21.2,3.8c13.4,3.7,13.6,2.8,15.3-72.3l1.7-76l33.5,85.1c18.4,46.8,37.7,87.6,42.9,90.7
	C1897.7,543.3,1898.4,539.8,1896.7,405.7L1896.7,405.7z M368.2,512.2c2.1-1.3,5.8-17.7,8.1-36.6c4.7-38.5,4.3-38,34.8-43.8l22.2-4.2
	l7.4,31.5c7.3,30.9,7.8,31.4,26.8,27.7c10.6-2.1,20.5-4.7,21.8-5.9c3.1-2.7-55-234.7-60.1-240c-2-2.1-12.1-1.5-22.4,1.4
	c-18.6,5.2-18.9,6-41.6,106.7c-10.3,45.9-20.8,91.8-31.3,137.7l-8.4,36.3l19.4-4.2C355.6,516.4,366.1,513.5,368.2,512.2L368.2,512.2
	z M394.7,385.6c2-6.5,5.8-24,8.4-39l4.7-27.2L416,353c6.8,28.2,6.7,34.3-0.4,38.9C400.8,401.4,390.8,398.4,394.7,385.6L394.7,385.6z
	 M1708.3,357.3c0-70.1-2.1-128.7-4.6-130.1c-2.5-1.4-12.2-4.5-21.4-6.7l-16.8-4.1v261.4l16.8,2.6c9.3,1.4,18.9,3,21.4,3.5
	C1706.2,484.4,1708.3,427.4,1708.3,357.3L1708.3,357.3z M552.1,469.2c6-2.3,7.6-14.5,6.2-45.4c-1.1-23.2-1.1-53.4,0-67
	c1.8-23,3.7-19.6,25.8,46.5l23.8,71.3l22.1-79.9l22.1-79.9l1.7,70.1c1.5,60.2,3.1,69.5,11.2,66.3c5.2-2,14.8-3.7,21.2-3.7
	c11.2,0,11.7-6,11.7-129.7V187.9l-20.9,2.5c-20.5,2.4-21.2,3.6-37.1,56.4c-8.9,29.7-19.8,65.2-24.2,78.9l-8,24.9l-19.9-65.5
	c-11-36-22.1-67.9-24.7-70.8c-2.6-2.9-13.3-3.4-23.8-1.1l-19,4.2V345c0,121.4,0.6,127.4,11.7,127.4
	C538.7,472.3,547.6,470.9,552.1,469.2L552.1,469.2z M1615,336.7l-1.7-129.4l-16.8-2l-16.8-2v100.8l-26-3.7
	c-42.7-6.1-41.3-4.1-41.3-58.6c0-35.9-2.2-50.1-7.6-50.2c-4.2,0-13.9-1.8-21.4-3.8l-13.8-3.8V446l21.4,2.5l21.4,2.5v-58
	c0-64.2-2-61.8,44.4-54l23,3.9v58c0,50,1.5,58.4,10.7,60.8C1617.4,469,1616.8,472.3,1615,336.7L1615,336.7z M844.4,426.5
	c25.2-12.2,39.4-38.1,39.9-72.3c0.3-24-2.6-34.3-12.8-44.6c-13.1-13.4-13.1-13.6-1.6-32.9c14-23.5,14.9-48.1,2.5-72.6
	c-11.6-22.8-41.1-31-91.8-25.6l-36.7,3.9l-1.7,130.1l-1.6,130.1l44.5-4.4C809.6,435.6,836.3,430.4,844.4,426.5L844.4,426.5z
	 M783.7,361.2c0-32.5,1.6-37.5,12.9-40.5c34.3-9.1,59.1,25.4,41.4,57.7c-6.5,12-14.6,16.5-31.6,18l-22.8,1.9L783.7,361.2
	L783.7,361.2z M783.7,250.7v-34.1h20.2c24.5,0,34.9,9.5,34.9,31.7c0,19.8-8.4,27.6-35.2,32.8l-19.9,3.8L783.7,250.7L783.7,250.7z
	 M1406.1,425.5c16.2-10.8,26.6-44.2,26.6-85.9c0-32.8-0.5-33.2-44.4-37.5l-29.1-2.8v21.1c0,18.3,2,21.1,15.3,21.1
	c12.3,0,15.3,3.1,15.3,16c0,37-29.2,53.4-51,28.8c-30-33.8-23.3-162.5,9-172.9c13.5-4.4,35.9,12,35.9,26.2c0,5.4,7.6,8.4,21.4,8.4
	c24.3,0,27-8.3,12.3-37.4c-12.9-25.5-32.5-37.5-61.3-37.5c-52.6,0-76.3,39.9-76.1,127.9c0.1,58.1,8.9,94.8,27.6,115.9
	C1329.3,441.1,1376.5,445.3,1406.1,425.5z M1027.4,418.9c7.5-5.4,19.7-21.5,27-35.9c19.2-37.5,19.6-131.8,0.7-173.8
	c-12.9-28.6-37.8-48.8-60.4-48.8c-21.4,0-50.2,20.1-63.6,44.3c-28.5,51.6-22.9,165.7,10,205.6c12.8,15.5,19.6,18.3,43.9,18.3
	C1001.1,428.7,1019.7,424.4,1027.4,418.9L1027.4,418.9z M969.1,374.4c-7.9-12.3-11.3-32.2-12.7-73.3c-1.6-48.3,0-59.4,10.9-77.1
	c15.8-25.8,35.7-25,49.1,2c13.8,27.9,12.7,126.1-1.6,148.4C1000.9,395.9,982.9,395.9,969.1,374.4L969.1,374.4z M1145,370.5
	c0-52.7,0.6-54.9,13.1-53c10.4,1.6,17,13.1,32,56.6l18.9,54.6h45.8l-20.1-58.8l-20.1-58.8l16.4-15.8c20.1-19.3,26.3-47.4,17.8-79.8
	c-9.5-36.1-33.5-48.7-92.8-48.7l-47.2,0l-1.8,128.4c-1,70.6-1.3,128.9-0.7,129.4c0.6,0.6,9.5,1,19.9,1h18.9L1145,370.5L1145,370.5z
	 M1149.6,275.4c-2.5-2.6-4.6-20-4.6-38.8v-34.1l25.8,3.5c36.7,5,52.2,30.8,33.9,56.3C1196.4,273.8,1157.1,283.1,1149.6,275.4
	L1149.6,275.4z M1,447.4c0-8.6,1.4-12.1,3.1-7.8c1.7,4.3,1.7,11.3,0,15.6C2.4,459.5,1,456,1,447.4L1,447.4z M1.9,391.2
	c0-18.9,1.1-26.6,2.6-17.1s1.4,24.9,0,34.3C3,417.8,1.9,410.1,1.9,391.2L1.9,391.2z"/>
<path class="st5" d="M1030.8,2371c-150.5-109.4-338.3-287.3-443.8-420.4C268.2,1548.7,117.2,1096.4,94.5,475.5
	c-6-165,2.3-185.3,92-223.5c234.4-100,535.9-150,903.4-149.8c277,0.1,470.5,21.9,682.7,77c96.2,24.9,230.8,72.6,264.9,93.7
	c25.4,15.8,42.8,44.9,48.2,80.9c5.4,35.8-6.9,288.5-19.3,399.4c-64.5,572.9-271.1,1016.2-646.1,1387
	c-120.5,119.1-303,265.9-330.5,265.9C1083.8,2405.9,1057.3,2390.2,1030.8,2371L1030.8,2371z M677.8,1863.6
	c14.4-9,20.7-18.4,23.8-35.8c2.4-13,9.4-30.4,15.6-38.6c8.3-10.9,11.4-25.4,11.4-53.9c0-36.4,1.7-41.1,24.7-69.3
	c16.9-20.8,29.3-45.4,39.2-78.4c8-26.5,20-55.9,26.6-65.5c6.6-9.5,20.7-34.9,31.3-56.3s21.6-39,24.5-39c13,0,21.6,21.8,20.3,51.7
	c-1.6,38.2,2.7,54.3,14.6,54.3c7.7,0,7.7,2.5-0.4,18.4c-5.1,10.1-9.3,21.9-9.3,26.1c0,19.1-27.1,62.2-46.9,74.6
	c-11.9,7.5-27.7,19.5-35.2,26.8c-8.7,8.3-17.7,16.3-27,24c-12.4,10.1-16.5,27.5-13.5,57.8c1.8,18,11,25.8,19.8,16.8
	c11.6-11.8,18.2-8.7,11,5c-5.9,11.3-4.7,12.5,13.6,12.5c23.1,0,59.9-20.6,59.9-33.4c0-8.6,43.3-96.5,58.4-118.6
	c4.4-6.4,16.5-16.9,26.9-23.4c10.4-6.4,23.6-22.3,29.3-35.1c13.8-31.1,31.9-51.5,45.6-51.5c6.1,0,11.2,1.5,11.2,3.3
	c0,10.5-37.7,76.8-45.4,79.8c-11.4,4.5-42.1,64.8-37.1,73c4.8,7.9,21.3,7.7,21.3-0.2c0-3.4,2.7-6.2,5.9-6.2c3.3,0,4.2,4.5,2.2,10
	c-5.4,14.2,8.1,20.4,32.5,14.8c31.9-7.3,51.3-22.8,51.3-40.8c0-8.6,5.9-23.8,13.1-33.8c10-13.8,12.3-23.4,9.5-40.7
	c-3.5-22.2,5.1-53,15-53c7.1,0,21.1,29.5,29.7,62.4c12,45.9,16.7,48.5,86.5,48.5c46.4,0,63-2.2,68.5-9.1c4-5,12.6-15,19.1-22.2
	c8.4-9.4,12.1-23.3,12.8-48.8c0.8-29.8,4.4-40.6,21.9-65.3c26.2-37.1,77.2-74.5,88.5-64.9c4.3,3.7,15.2,25.3,24.2,48.1
	c14.8,37.6,15.6,44,9,68.1c-4,14.7-5.9,34.5-4.1,44s-0.6,26.8-5.4,38.4c-12.2,29.7-10.8,42.8,6.4,60.3c18.6,19,26.7,19.3,33.5,1.3
	l5.3-14l5.8,15.3l5.8,15.3l16.2-16.6c18.3-18.7,20.3-34.7,7.4-60.1c-4.9-9.6-7.3-23.6-5.3-31.1c1.9-7.5,0-30.6-4.3-51.3
	c-6.4-30.5-6.4-47.2,0-88.7c7.4-48.5,7.1-52.5-5.2-75.9c-19.7-37.4-17.4-41,17.7-27.4c53,20.5,108.8,12,130.8-20
	c15.4-22.4,12.8-30.7-8.2-26.4c-32.5,6.6-58.5-3-94.6-35.3l-34.8-31l-3.1-54.6c-3.3-57.3-3.5-90.7-0.9-181.5
	c1.6-54.9,1.5-55.3-22.7-92c-13.3-20.3-28.8-50.3-34.3-66.7c-5.5-16.4-16.2-36.5-23.7-44.6c-12.9-14-13.1-15.7-3.8-34
	c29.2-57.5,11.8-114.3-45-146.5l-33.1-18.8l-156.7-5c-198.7-6.3-236.2-13.6-220.7-43.2c10.2-19.4,31.9-20.1,85-3
	c53.9,17.3,113.1,21.1,146.4,9.2c22.4-8,20-18.1-4.4-18.1c-9.3,0-22.2-4.4-28.7-9.7c-11.1-9.1-10.3-9.5,12.6-6.3
	c74.9,10.2,101,11.3,101,4.2c0-4-11.7-12.4-26-18.6c-88.6-38.4-201-42.6-265.2-9.9c-32.6,16.6-63.9,49.1-63.9,66.5
	c0,11.5,29.9,35.4,52.8,42.3c13.1,3.9,95.4,9.9,182.9,13.2c171.9,6.5,200.7,11.9,223.4,41.3c16.5,21.4,15.8,53.1-1.6,73.7
	l-13.9,16.5l-47.7-10c-26.2-5.5-71.7-18.8-100.9-29.5c-91.7-33.5-92.2-33.4-164.8,28.4c-24.6,20.9-72.7,53.6-107,72.7
	c-87.2,48.5-104.8,76.5-118.3,188c-2.5,20.9-12.6,43.4-34.8,78c-46.9,73-60.1,106.7-66.3,168.8c-3.2,32.1-13,76.3-23.9,107.5
	c-15.4,44.1-18.5,62.6-18.6,109.9c-0.1,48.4-2.3,61-14.9,84.2c-8.2,15-16.6,41.3-18.7,58.5c-6.6,52.9-8.7,58.1-36.4,89.9
	c-14.8,17-28.9,37.4-31.4,45.3c-2.4,7.9-12.3,23.6-21.9,34.8c-19.5,22.7-27.2,45.8-20.9,62.2c3.7,9.5,6.1,8.6,19.6-7.8l15.4-18.7
	l-3.9,23.4l-3.9,23.4l26.3,0C647.2,1875.7,666.4,1870.6,677.8,1863.6L677.8,1863.6z M1147.8,553c-6.4-10.5-1.4-11,21.7-2.3l21.4,8
	l-19.5,0.5C1160.6,559.4,1150,556.7,1147.8,553L1147.8,553z M210.4,1088.3c-28.7-149.7-47.5-319.6-57-513
	c-10-203.4-10.2-205.7-21.6-223.5c-5.9-9.1-13.1-16.6-16.1-16.6c-17.7,0,5.4,353.8,35,536.4c17,104.7,55.2,262,63.6,262
	C216.9,1133.5,215.1,1113.2,210.4,1088.3L210.4,1088.3z M318.4,508.2c0-12.9-0.9-23.4-2.1-23.4c-1.2,0-18.1,5.6-37.7,12.5
	c-19.6,6.9-37,11-38.8,9.3c-1.7-1.8-4.4-49.5-5.9-106.1c-1.5-56.6-5-102.8-7.7-102.8s-12,2.7-20.6,6.1l-15.7,6.1v267.9l64.3-23.1
	l64.3-23.1L318.4,508.2L318.4,508.2z M1985.4,309.5c-2.6-2.6-12.3-6.6-21.5-8.9l-16.8-4.2v263.3l19.9,8.3l19.9,8.3l1.7-131
	C1989.4,373.1,1988,312.1,1985.4,309.5L1985.4,309.5z M1904.2,410.3c0-71.8-2.1-131.9-4.6-133.4c-2.5-1.5-13.8-4.8-25.1-7.2
	l-20.5-4.5l2.1,63c1.2,34.7,0.7,63-0.9,63c-1.7,0-14.8-30.2-29.2-67.1c-31.9-82.1-30.7-80.1-55-85.4l-19.9-4.4v131.1
	c0,72.1,2.1,132.3,4.6,133.7c2.5,1.4,12.2,4.5,21.4,6.7l16.8,4.1v-73.1c0-40.2,2.3-70.4,5.1-67.2s18.4,40.6,34.7,82.9
	c28.8,75,37.1,86.6,62.7,87.9C1902.4,540.9,1904.2,510.9,1904.2,410.3L1904.2,410.3z M354,521.7c17-6,19.8-10.7,26.1-43
	c6.4-33.2,8.6-36.6,25.5-40c27.7-5.6,27.8-5.6,32,19.8c6,36.3,9.6,39.5,35.7,32.2c12.5-3.5,22.7-7.9,22.7-9.7s-10.6-43.1-23.7-91.7
	c-13-48.6-27.3-103.2-31.8-121.4c-8-32.3-8.6-32.9-26.9-29c-10.3,2.2-20.7,5.9-23.1,8.1c-4.4,4.2-65.9,259.1-66,273.7
	C324.5,530.2,329.5,530.4,354,521.7L354,521.7z M400.4,377.6c2.1-10.5,3.7-23.5,3.7-28.9c0-15.8,10.2-0.2,14.2,21.6
	c3,16.2,1.4,20.2-9.1,23C398,396.3,397,394.6,400.4,377.6L400.4,377.6z M2075.1,400.6c0.4-45-3.8-71.7-11.3-71.7
	c-2.3,0-9.2,3.7-15.3,8.2c-10.5,7.9-10.6,11.1-0.6,76.4c5.7,37.5,12,72.4,13.9,77.6C2066.9,504.6,2074.7,451.7,2075.1,400.6
	L2075.1,400.6z M1708.3,357.7V224.4l-19.4-3.9c-10.6-2.2-19.9-3.2-20.6-2.3c-0.7,0.9-3.1,59.6-5.3,130.4l-4,128.8l23.1,6.2
	c12.7,3.4,23.8,6.5,24.6,6.9C1707.6,490.8,1708.3,431,1708.3,357.7L1708.3,357.7z M549.5,474.6c13-3.6,13.8-7,14.4-63.9l0.6-60.1
	l19.9,60.9c10.9,33.5,21.4,62.4,23.2,64.3c1.8,1.9,8.9-15.7,15.7-39.1l21.5-73.6l9.1-31.2l0.6,62.9l0.6,62.9l23-3.8l23-3.8
	l-2.3-130.8c-1.3-72-3-131.7-3.9-132.8c-0.9-1.1-10.8,0.5-22,3.5c-19.9,5.2-20.9,7.2-41.7,79.2L609.8,343l-22.2-67.9
	c-22-67-22.5-67.9-40.1-65.8c-9.8,1.2-19.7,4-22.1,6.2c-2.3,2.3-5.1,62.4-6.1,133.6C517.2,489,516,483.8,549.5,474.6L549.5,474.6z
	 M1622.6,341.7c0-71.8-2.1-131.9-4.6-133.5c-2.5-1.6-12.9-3.8-23-5l-18.4-2.2l-1.8,48.3c-1.8,48-1.9,48.3-18.4,48.3
	c-41.3-0.2-43.5-3-45.4-58.3l-1.8-50.8l-19.9-2l-19.9-2v130.7c0,139.8-0.3,138.3,30.9,138.3c10.3,0,11.7-6,13.3-57.7l1.8-57.7
	l24.5,2.2c13.5,1.2,26.6,3.5,29.1,5c2.5,1.6,4.6,29.2,4.6,61.4v58.5l19.9,2.5c10.9,1.4,22,3,24.5,3.5
	C1620.5,471.9,1622.6,413.6,1622.6,341.7z M843.3,431.4c40.1-16.6,57.2-78.1,33-118.5c-9.9-16.5-10.3-20.7-3-30.8
	c11.5-16,10.7-65.6-1.4-83.2c-14.8-21.5-36.8-27.2-86.5-22.5l-44.5,4.2v267.1l41.3-4.1C804.9,441.4,832.4,435.8,843.3,431.4
	L843.3,431.4z M786.2,388.8c-1.8-4.7-2.4-20.9-1.3-35.9c1.7-24.6,3.6-27.4,19.1-29.2c24-2.8,34.8,8.7,34.8,37.2
	c0,20.4-2.6,25.3-15.7,30.4C801.4,399.8,790,399,786.2,388.8L786.2,388.8z M783.7,251.6c0-23.8,2-27.9,14.8-31.2
	c20.7-5.3,33.6,1.2,38,19c4.9,20-12.6,39.6-35.4,39.6C784.7,279,783.7,277.5,783.7,251.6L783.7,251.6z M1398.5,434
	c22.2-10.3,34.3-41.4,34.3-88.1v-40.3l-28.4-4c-44.6-6.2-45.1-6-45.1,17.9c0,17.7,2.3,21.8,12.2,21.8c17.8,0,18,47.2,0.2,52.9
	c-31.1,10.1-49.1-24.8-49.2-95.2c0-52.3,12.3-82.4,33.9-82.4c12.4,0,17.8,4.4,23.2,19.1c6.5,17.7,8.7,18.8,28.6,15
	c11.8-2.2,22.3-4.9,23.4-6c1-1-2.1-11.5-6.9-23.3c-26.9-65.5-106.2-70.5-133.2-8.3c-16.3,37.5-21.2,97.6-11.8,143.8
	c10.3,50.6,41.7,84.3,78.6,84.3C1372,441.1,1390.1,437.9,1398.5,434L1398.5,434z M1026.1,423.1c27.3-17,41.1-51.3,44.2-110.4
	c5-95.2-24.7-152.2-79.4-152.2c-19.7,0-28.7,4.1-44.9,20.6c-27,27.5-35.4,62.5-32.6,135.4c1.9,47.6,5,63.8,15.8,81.6
	C951.6,435.2,990.6,445.2,1026.1,423.1L1026.1,423.1z M977.2,381.6c-31.4-32-25.9-161.2,7.5-174.3c39-15.2,57.4,132.1,21.6,172.5
	C993.9,393.7,989.4,394,977.2,381.6z M1255.2,429.8c0-2.8-8.2-29.8-18.3-60.1l-18.3-55.1l18.9-22c17.2-20,18.7-25,16.2-55.3
	c-4.6-56.2-35-76.8-113.4-76.9l-38.3,0v268.2h49v-56.1c0-74.8,10.2-74.9,36.6-0.4c17.4,49.1,21.7,56.1,36,58.3
	C1252.6,435,1255.2,435,1255.2,429.8L1255.2,429.8z M1151.1,240v-33.4l21.2,2.5c26.7,3.2,35.2,13.5,32.8,39.8
	c-1.8,19.5-3.4,20.8-28,22.6l-26,1.9V240z M165.1,296.1c0.4-8.2-21-5-35.6,5.4l-14,10l14,15.1l14,15.1l10.7-20.5
	C160,310,164.9,298.7,165.1,296.1L165.1,296.1z"/>
<path class="st6" d="M997.8,2341.2c-430.5-329.8-696.7-734.8-820.1-1247.6c-49.6-206.2-79.7-461-79.7-675
	c0-116.8,8.2-129.6,108.7-170.3c323-130.7,802.4-176.8,1268.9-121.9c236.1,27.8,534.8,114.7,581.8,169.2
	c19.1,22.2,23.5,34.7,10.6,30c-4.2-1.6-14,2.1-21.7,8.2c-14,11-14,11.2-5.1,63.8c4.9,29,10.8,83,13.2,119.8
	c2.4,36.9,6.4,67.1,8.9,67.1c8.1,0,12.1-44.4,13.6-149.7l1.4-102.9l2.1,84.2c4,158.1-18.9,393.3-56.9,583.6
	c-70.9,355-208.5,661.7-417,929c-131.5,168.6-463.8,470.9-517.7,470.9C1079.8,2399.7,1044.9,2377.2,997.8,2341.2L997.8,2341.2z
	 M1145.6,2348.9c79.9-52.6,158-119.4,248.1-212.4c123.6-127.5,195.2-212.6,220-261.4c7.6-14.9,7.2-17.8-3.5-27.6
	c-11.6-10.7-14.4-8.5-96.2,73.8c-102.3,102.9-173.1,161.1-173.1,142.3c0-11.1-79.3-56.9-126.6-73.1c-84.5-28.9-176.2-26.3-251.2,7.2
	l-31.9,14.2l-10.2-35.4c-28.8-99.9-45-232.7-29.6-243c3.7-2.5,14.4-22,23.8-43.4c12.2-27.8,26.1-46.8,48.9-66.7
	c19.3-16.8,34.1-35.6,37.5-47.8c5.8-20.6,32.9-46.4,44.4-42.3c10,3.5-12,48.1-39.9,80.9c-13.4,15.8-28,37.7-32.5,48.7
	c-7.1,17.4-6.9,21.4,1.7,30.1c9.1,9.2,10.2,9.1,14.4-2c4.1-10.9,4.9-10.6,8.1,3.6c4.7,20.4,22.9,22.8,57.1,7.4
	c23.8-10.7,27.3-15,30.8-37c2.1-13.7,8.3-28.6,13.6-33.1c6.5-5.5,9.2-16.5,8.2-33.6c-1.6-26.6,5.2-59.7,12.2-59.7
	c7.4,0,23.9,33.7,28.3,57.7c2.4,12.9,9.7,30.4,16.3,39c11.4,14.8,15.1,15.5,75.1,15.5h63.1l17.4-23.3c13.5-18,17.6-30.6,18.4-55.9
	c1.3-44.3,23.7-81.7,68.1-114.2l34.9-25.5l10,13.4c5.5,7.4,15.8,30,23,50.3c10.2,28.8,11.6,40.5,6.8,53.5
	c-3.4,9.2-7.3,33.7-8.5,54.4c-1.3,20.8-4.1,47.9-6.4,60.2c-3.5,19.6-1.9,24.2,12.6,35.9c21.1,16.9,26.3,16.8,33.2-0.7
	c4-10.2,5.6-11.1,5.9-3.5c0.7,17.8,12.8,19.6,28.9,4.1c13.1-12.5,14.8-18.4,11.7-39.6c-3.1-21.8-6.1-43.6-8.9-65.5
	c-2.9-22.3-7.3-45.6-9.8-51.7c-2.5-6.1-1.1-37,3.2-68.7c7.4-54.8,7.1-58.7-5.4-83.7c-18-35.9-16.8-41.4,6.2-29.3
	c26.6,14,85.7,18.8,109.2,8.8c20-8.4,42.9-33.7,42.9-47.3c0-6.1-7.4-7.4-29.1-4.8c-24.1,2.8-32.4,0.9-48.4-11.2
	c-10.6-8-30.6-23-44.5-33.3c-24-17.8-25-20-21.8-44.4c1.9-14.6-0.9-45.3-6.7-71c-5.6-24.9-8.5-54-6.4-64.7s6.4-32.9,9.7-49.4
	c8.4-41.3-1.6-83.6-30.2-127.7c-12.7-19.7-26.7-47-30.9-60.7c-4.3-13.7-13.1-32.7-19.6-42.2c-11.4-16.6-11.5-18.4-1.5-49
	c19.7-60.3-0.6-109.4-56.7-137.2c-27.3-13.5-39.5-14.8-179.3-19c-134.4-4-204.3-10.7-220.9-21.1c-11.4-7.2-5.4-28.1,10-35.3
	c13.2-6.1,24.2-4.4,68.9,10.8c57,19.3,116.9,23.3,150,9.9c22-8.9,17.1-16.7-13.7-21.7c-13.3-2.2-26-6.8-28.1-10.2
	c-5.2-8.6,7.8-7.8,54.7,3.3c37.9,8.9,70.8,7.5,70.8-3.2c0-6.9-51.7-28.5-95.8-40.1c-49.8-13.1-138.6-12.9-179,0.4
	c-37.2,12.2-77.3,45.3-83,68.4c-5.1,20.8,12,41,44.2,51.8c12.9,4.3,97.3,11.1,194.3,15.6c182.2,8.4,198.8,11.6,220.1,42.5
	c14,20.3,12,51.3-4.6,70.9c-13.9,16.5-14.9,16.7-47.5,9.3c-18.3-4.1-69.2-19.4-113.1-33.9c-61.9-20.5-83.9-25.3-98-21.4
	c-10,2.8-38.8,23.3-64.1,45.5c-25.4,22.4-72.7,54.8-105.8,72.6c-84.4,45.3-110.3,80.5-120.7,164.4c-5.9,47.2-16,71.5-58.6,140.3
	c-29.1,46.9-45.5,94.5-45.5,131.7c0,19.2-8.3,56.6-21.4,96.5c-18.1,55.1-21.4,73.9-21.4,120.7c0,46.9-2.4,60.1-15.3,85.7
	c-8.4,16.6-16.9,44.2-18.8,61.4c-5.7,51.4-7.1,54.7-39.2,93.3c-17,20.4-30.9,42.2-30.9,48.3c0,6.2-2.7,11.2-5.9,11.2
	c-10.3,0-37,45.8-37,63.4c0,23.6,11.7,28.5,25.3,10.7l11.4-14.9l-3.8,20.3c-3.3,17.6-2.1,20.3,9,20.3c8.8,0,17.9,9.2,29.4,29.6
	c64.8,115.6,207.8,285.4,314.5,373.5c53.9,44.5,127.8,95.9,137.9,95.9C1103.2,2374.7,1124,2363.1,1145.6,2348.9L1145.6,2348.9z
	 M728.4,1773.4c3.4-9,5.8-30.2,5.4-47c-0.6-25.3,2.6-34.9,17.6-54.5c23.3-30.2,35.2-54,44.4-89c7.9-29.9,71.7-156.2,79-156.2
	c12.8,0,19.1,18.8,19.1,57.1c0,31.6,2.4,43.5,9.5,47.5c15.6,8.9-6.7,72.4-35.2,100.7c-37.1,36.6-55.8,53-73.6,64.4
	c-12.1,7.8-17.9,17.8-20.8,35.9c-2.2,13.8-6.1,25.1-8.8,25.1c-2.7,0-13.4,7.3-23.8,16.2l-18.9,16.2L728.4,1773.4L728.4,1773.4z
	 M1151.1,553.4c-7.6-5-7-6,3.1-5.7c6.7,0.2,17.8,2.8,24.5,5.7c11.2,4.9,11,5.4-3.1,5.7C1167.2,559.3,1156.2,556.8,1151.1,553.4
	L1151.1,553.4z M283.9,1347.1c-11.5-36.9-33.1-117.6-48.1-179.3c-51.3-211.6-68.5-354.2-86.2-715.1c-3-61.4-6.4-83.1-15.4-98.2
	c-13.6-22.8-23.8-25.1-24.4-5.4C102,605.2,143.4,930.9,214,1168.7c30.7,103.2,80.8,245.5,86.4,245.5
	C302.8,1414.2,295.4,1384,283.9,1347.1z M474.5,980.9c119.1-32,230.3-125.4,282.2-237.2c6.4-13.7,11.8-26.3,12.1-28.1
	c0.3-1.7,5.7-20,12-40.5c8.6-27.8,11.6-56.8,11.8-112.3c0.3-83.9-4.2-108.8-19.8-109.9c-5.8-0.4,5.2-3.1,24.4-6
	c66.5-9.9,90.5-34.4,90.5-92c0-21.1-3.7-35.4-11.7-45.5c-11-13.8-11.1-15.5-1.5-26.3c6.7-7.5,10.2-22.4,10.2-42.6
	c0-27.2-2.5-33.3-20-49.2c-21.1-19.2-48.4-23-100.9-14.2l-23,3.9v82.9c0,45.6-1.7,87.3-3.7,92.7c-2,5.4-10.3,9.9-18.4,9.9h-14.7
	v-90.4c0-89.7-0.1-90.4-13.8-90.4c-35.7,0.2-38.3,3.7-59.9,79.5l-20.6,72.5l-21.5-66.7l-21.5-66.7l-21.6,4
	c-11.9,2.2-23.7,5.2-26.2,6.6c-2.5,1.5-4.6,41.5-4.6,88.9v86.3l-16.2,4.1c-8.9,2.3-18.1,1.9-20.5-0.9c-2.4-2.8-12.9-38.3-23.3-79.1
	c-10.4-40.7-20.2-75.3-21.7-76.8c-1.5-1.5-12.5-0.9-24.4,1.4l-21.7,4.1l-16.1,69.6c-29.1,125.8-23.4,114.1-59.8,122.8
	c-17.6,4.2-41,11.3-52,15.9l-19.9,8.2v-84.5c0-74.8-1.1-84.1-9.8-80.7c-5.4,2.1-16.5,5.5-24.8,7.7l-15,3.8l2.4,141.2
	c2.6,155.7,10.4,212,49.7,357.1c30,110.7,57,179.7,73.2,186.9C332.7,998.6,430.2,992.7,474.5,980.9z M400.4,381.4
	c2.1-5.4,3.7-15.8,3.7-23.1c0-17,9.4-6.9,14.6,15.8c3.4,14.6,2,17.2-9,17.2C400.3,391.2,397.7,388.5,400.4,381.4L400.4,381.4z
	 M789.9,360.8c0-26,1.9-31,13.2-34c21.3-5.7,35.7,6.1,35.7,29.1c0,25-9.3,35.3-31.8,35.3C790.6,391.2,789.9,390,789.9,360.8
	L789.9,360.8z M567.4,380.8c-2.2-2.3-4-8.6-3.9-14c0.2-8.1,1.3-7.8,6.7,1.5C576.8,379.9,574.9,388.5,567.4,380.8z M650,360.1
	c0-8.6,1.4-12.1,3.1-7.8c1.7,4.3,1.7,11.3,0,15.6C651.4,372.1,650,368.6,650,360.1z M789.9,250.9c0-27.9,0.1-28.1,21.4-28.1
	c21.5,0,24.9,4.9,21.7,31.2c-1.5,12.1-18,24.9-32.1,24.9C791.9,279,789.9,273.8,789.9,250.9L789.9,250.9z M1971.2,815.8
	c17.2-43.7,43.3-202.1,43-260.7c-0.1-22.3-4.7-45.3-12-60.9c-9.8-20.7-11.9-39-12-106.6l-0.2-81.6l-21.3-6.6l-21.2-6.6l-1.7,75.8
	c-1.6,71.7-2.4,75.7-14,73.9c-27.6-4.2-27.6-4-27.6-87.6v-80.5l-19.1-3.9c-10.5-2.1-21.5-3.9-24.5-3.9c-3,0-5.5,27.4-5.6,60.8
	l-0.2,60.8l-27.9-68.6c-15.3-37.7-29.7-70.4-31.9-72.6c-2.2-2.2-13-5.9-23.9-8.3l-19.9-4.3v81.6c0,81-0.1,81.6-14.1,81.6
	c-25.7,0-28.8-10.2-28.8-94.1c0-76.8-0.4-79.2-13.8-82.9c-35.8-9.8-35.2-11.3-35.2,81v84.9l-13.8-3.8c-7.6-2.1-15.8-3.8-18.4-3.8
	c-2.5-0.1-4.6-39-4.6-86.6v-86.5l-19.1-3.9c-10.5-2.1-21.5-3.9-24.5-3.9s-5.4,22.5-5.4,49.9c0,53.8,0.3,53.4-35.7,46.1l-18.9-3.9
	l-1.8-50.7l-1.8-50.7l-23-1.9l-23-1.9v267.6l21.6,2.6c11.9,1.4,22.9,1.3,24.5-0.4c1.6-1.6,2.9-27.7,2.9-58c0-59.6-0.6-58.7,36-51.2
	l19.1,3.9l0.4,47.6c0.4,52.8,8.9,171.6,13.7,191c23.7,96.6,99.7,185.9,188.8,221.8c47.2,19,74.9,23.7,135.1,22.9
	C1962.8,831.8,1965.2,831.1,1971.2,815.8L1971.2,815.8z M1803.5,408.4c-6.4-21.5-7.9-35.5-3.4-32.8c8.2,5.2,18.5,40.6,11.8,40.6
	C1808.6,416.2,1804.8,412.7,1803.5,408.4L1803.5,408.4z M1406.7,431.4c19.7-13.2,26.1-33.5,26.1-83.5c0-47.4-2.6-50-50.5-50.1
	c-22.7-0.1-23,0.2-23,24.9c0,20.8,2,24.9,12.2,24.9c9.4,0,12.2,4.2,12.2,18c0,26.3-14.2,36.1-33.5,23.3
	c-19.3-12.9-24.6-32.6-24.6-91.4c0-71.4,27.2-104.6,50.8-61.9c8.9,16.2,13.5,18.6,31.9,17.1c19.2-1.6,21.3-3.5,20.3-19
	c-2.7-40.6-50.9-74.6-91.1-64.3c-24,6.2-49,36.2-57,68.5c-15,60.5-3.8,144.4,24.1,180.5C1326.6,447,1374.2,453.1,1406.7,431.4
	L1406.7,431.4z M1033.6,419.3c25.7-22,38.8-60,39.7-115.3c1.6-91.4-26.9-143.6-78.4-143.6c-54.2,0-85.6,51.5-85.6,140.3
	c0,57.8,13.9,102.3,37.9,121.6C970.1,440.7,1010.4,439.3,1033.6,419.3z M972.8,374.7c-5.5-6.8-9-30.9-10.1-70.2
	c-1.9-66.2,5.2-89.7,28-93.1c22.5-3.3,33.8,33.5,30.7,99.6c-2.6,55.8-9.9,73.9-29.4,73.9C986,385,977.4,380.4,972.8,374.7
	L972.8,374.7z M1149.8,377.2c2.4-72.9,12.4-72.5,38.4,1.6l19.7,56.1h26.7c14.7,0,26.6-0.7,26.5-1.6c-0.1-0.9-9.3-27.8-20.3-59.9
	l-20.1-58.3l17.3-17.6c14.4-14.7,17.3-22.9,17.3-49c0-64.7-21.1-83.1-99.5-87l-53.6-2.7v134.3c0,143.1-0.2,142.1,30.6,139.7
	C1147.7,431.8,1148.1,430.4,1149.8,377.2L1149.8,377.2z M1151.1,241.6c0-31.1,0-31.2,20.2-31.2c24.3,0,34.9,9.4,34.9,31.2
	s-10.6,31.2-34.9,31.2C1151.1,272.7,1151.1,272.7,1151.1,241.6z M153.1,333.1c0-4.1,7-18,15.5-30.8c12.4-18.6,13.6-23.3,5.9-23.3
	c-10.6,0-58.1,23.3-58.1,28.5c0,1.8,5.9,11.4,13.2,21.5C142.4,346.5,153.1,348.5,153.1,333.1L153.1,333.1z M509.5,188.7
	c256.3-42.1,510.4-55.3,779.3-40.5c109.9,6,296.3,24.5,370.4,36.7c32.2,5.3,42.6,4.5,35.5-2.8c-5.2-5.3-149-32.6-225.3-42.7
	c-143.2-19-256.6-24.1-461.9-20.9c-213.7,3.4-303.9,11.4-444.2,39.2c-103.9,20.6-191.5,46.4-157.3,46.4
	C411.5,204.1,458.1,197.2,509.5,188.7L509.5,188.7z"/>
</svg>
