<?xml version="1.0" encoding="utf-8"?>
<!-- Generator: Adobe Illustrator 27.0.0, SVG Export Plug-In . SVG Version: 6.00 Build 0)  -->
<svg version="1.1" id="Layer_1" xmlns="http://www.w3.org/2000/svg" xmlns:xlink="http://www.w3.org/1999/xlink" x="0px" y="0px"
	 viewBox="0 0 2504.4 2885.1" style="enable-background:new 0 0 2504.4 2885.1;" xml:space="preserve">
<style type="text/css">
	.st0{display:none;}
	.st1{fill:#F7DE9F;}
	.st2{fill:#F9CE5C;}
	.st3{fill:#D8A016;}
	.st4{fill:#9F6B08;}
	.st5{fill:#5C4B21;}
</style>
<path class="st0" d="M1206,2551.8c-150.5-109.4-338.3-287.3-443.8-420.4c-318.8-401.9-469.8-854.2-492.5-1475.1
	c-6-165,2.3-185.3,92-223.5c234.4-100,535.9-150,903.4-149.8c277,0.1,470.5,21.9,682.7,77c96.2,24.9,230.8,72.6,264.9,93.7
	c25.4,15.8,42.8,44.9,48.2,80.9c5.4,35.8-6.9,288.5-19.3,399.4c-64.5,572.9-271.1,1016.2-646.1,1387
	c-120.5,119.1-303,265.9-330.5,265.9C1259,2586.7,1232.5,2571,1206,2551.8L1206,2551.8z M853,2044.4c14.4-9,20.7-18.4,23.8-35.8
	c2.4-13,9.4-30.4,15.6-38.6c8.3-10.9,11.4-25.4,11.4-53.9c0-36.4,1.7-41.1,24.7-69.3c16.9-20.8,29.3-45.4,39.2-78.4
	c8-26.5,20-55.9,26.6-65.5c6.6-9.5,20.7-34.9,31.3-56.3s21.6-39,24.5-39c13,0,21.6,21.8,20.3,51.7c-1.6,38.2,2.7,54.3,14.6,54.3
	c7.7,0,7.7,2.5-0.4,18.4c-5.1,10.1-9.3,21.9-9.3,26.1c0,19.1-27.1,62.2-46.9,74.6c-11.9,7.5-27.7,19.5-35.2,26.8
	c-8.7,8.3-17.7,16.3-27,24c-12.4,10.1-16.5,27.5-13.5,57.8c1.8,18,11,25.8,19.8,16.8c11.6-11.8,18.2-8.7,11,5
	c-5.9,11.3-4.7,12.5,13.6,12.5c23.1,0,59.9-20.6,59.9-33.4c0-8.6,43.3-96.5,58.4-118.6c4.4-6.4,16.5-16.9,26.9-23.4
	c10.4-6.4,23.6-22.3,29.3-35.1c13.8-31.1,31.9-51.5,45.6-51.5c6.1,0,11.2,1.5,11.2,3.3c0,10.5-37.7,76.8-45.4,79.8
	c-11.4,4.5-42.1,64.8-37.1,73c4.8,7.9,21.3,7.7,21.3-0.2c0-3.4,2.7-6.2,5.9-6.2c3.3,0,4.2,4.5,2.2,10c-5.4,14.2,8.1,20.4,32.5,14.8
	c31.9-7.3,51.3-22.8,51.3-40.8c0-8.6,5.9-23.8,13.1-33.8c10-13.8,12.3-23.4,9.5-40.7c-3.5-22.2,5.1-53,15-53
	c7.1,0,21.1,29.5,29.7,62.4c12,45.9,16.7,48.5,86.5,48.5c46.4,0,63-2.2,68.5-9.1c4-5,12.6-15,19.1-22.2c8.4-9.4,12.1-23.3,12.8-48.8
	c0.8-29.8,4.4-40.6,21.9-65.3c26.2-37.1,77.2-74.5,88.5-64.9c4.3,3.7,15.2,25.3,24.2,48.1c14.8,37.6,15.6,44,9,68.1
	c-4,14.7-5.9,34.5-4.1,44s-0.6,26.8-5.4,38.4c-12.2,29.7-10.8,42.8,6.4,60.3c18.6,19,26.7,19.3,33.5,1.3l5.3-14l5.8,15.3l5.8,15.3
	l16.2-16.6c18.3-18.7,20.3-34.7,7.4-60.1c-4.9-9.6-7.3-23.6-5.3-31.1c1.9-7.5,0-30.6-4.3-51.3c-6.4-30.5-6.4-47.2,0-88.7
	c7.4-48.5,7.1-52.5-5.2-75.9c-19.7-37.4-17.4-41,17.7-27.4c53,20.5,108.8,12,130.8-20c15.4-22.4,12.8-30.7-8.2-26.4
	c-32.5,6.6-58.5-3-94.6-35.3l-34.8-31l-3.1-54.6c-3.3-57.3-3.5-90.7-0.9-181.5c1.6-54.9,1.5-55.3-22.7-92
	c-13.3-20.3-28.8-50.3-34.3-66.7c-5.5-16.4-16.2-36.5-23.7-44.6c-12.9-14-13.1-15.7-3.8-34c29.2-57.5,11.8-114.3-45-146.5
	l-33.1-18.8l-156.7-5c-198.7-6.3-236.2-13.6-220.7-43.2c10.2-19.4,31.9-20.1,85-3c53.9,17.3,113.1,21.1,146.4,9.2
	c22.4-8,20-18.1-4.4-18.1c-9.3,0-22.2-4.4-28.7-9.7c-11.1-9.1-10.3-9.5,12.6-6.3c74.9,10.2,101,11.3,101,4.2c0-4-11.7-12.4-26-18.6
	c-88.6-38.4-201-42.6-265.2-9.9c-32.6,16.6-63.9,49.1-63.9,66.5c0,11.5,29.9,35.4,52.8,42.3c13.1,3.9,95.4,9.9,182.9,13.2
	c171.9,6.5,200.7,11.9,223.4,41.3c16.5,21.4,15.8,53.1-1.6,73.7l-13.9,16.5l-47.7-10c-26.2-5.5-71.7-18.8-100.9-29.5
	c-91.7-33.5-92.2-33.4-164.8,28.4c-24.6,20.9-72.7,53.6-107,72.7c-87.2,48.5-104.8,76.5-118.3,188c-2.5,20.9-12.6,43.4-34.8,78
	c-46.9,73-60.1,106.7-66.3,168.8c-3.2,32.1-13,76.3-23.9,107.5c-15.4,44.1-18.5,62.6-18.6,109.9c-0.1,48.4-2.3,61-14.9,84.2
	c-8.2,15-16.6,41.3-18.7,58.5c-6.6,52.9-8.7,58.1-36.4,89.9c-14.8,17-28.9,37.4-31.4,45.3c-2.4,7.9-12.3,23.6-21.9,34.8
	c-19.5,22.7-27.2,45.8-20.9,62.2c3.7,9.5,6.1,8.6,19.6-7.8l15.4-18.7l-3.9,23.4l-3.9,23.4h26.3
	C822.4,2056.5,841.6,2051.4,853,2044.4L853,2044.4z M1323,733.8c-6.4-10.5-1.4-11,21.7-2.3l21.4,8l-19.5,0.5
	C1335.8,740.2,1325.2,737.5,1323,733.8L1323,733.8z M385.6,1269.1c-28.7-149.7-47.5-319.6-57-513c-10-203.4-10.2-205.7-21.6-223.5
	c-5.9-9.1-13.1-16.6-16.1-16.6c-17.7,0,5.4,353.8,35,536.4c17,104.7,55.2,262,63.6,262C392.1,1314.3,390.3,1294,385.6,1269.1
	L385.6,1269.1z M493.6,689c0-12.9-0.9-23.4-2.1-23.4s-18.1,5.6-37.7,12.5s-37,11-38.8,9.3c-1.7-1.8-4.4-49.5-5.9-106.1
	s-5-102.8-7.7-102.8s-12,2.7-20.6,6.1l-15.7,6.1v267.9l64.3-23.1l64.3-23.1L493.6,689L493.6,689z M2160.6,490.3
	c-2.6-2.6-12.3-6.6-21.5-8.9l-16.8-4.2v263.3l19.9,8.3l19.9,8.3l1.7-131C2164.6,553.9,2163.2,492.9,2160.6,490.3L2160.6,490.3z
	 M2079.4,591.1c0-71.8-2.1-131.9-4.6-133.4s-13.8-4.8-25.1-7.2l-20.5-4.5l2.1,63c1.2,34.7,0.7,63-0.9,63c-1.7,0-14.8-30.2-29.2-67.1
	c-31.9-82.1-30.7-80.1-55-85.4l-19.9-4.4v131.1c0,72.1,2.1,132.3,4.6,133.7s12.2,4.5,21.4,6.7l16.8,4.1v-73.1
	c0-40.2,2.3-70.4,5.1-67.2c2.8,3.2,18.4,40.6,34.7,82.9c28.8,75,37.1,86.6,62.7,87.9C2077.6,721.7,2079.4,691.7,2079.4,591.1
	L2079.4,591.1z M529.2,702.5c17-6,19.8-10.7,26.1-43c6.4-33.2,8.6-36.6,25.5-40c27.7-5.6,27.8-5.6,32,19.8
	c6,36.3,9.6,39.5,35.7,32.2c12.5-3.5,22.7-7.9,22.7-9.7s-10.6-43.1-23.7-91.7c-13-48.6-27.3-103.2-31.8-121.4
	c-8-32.3-8.6-32.9-26.9-29c-10.3,2.2-20.7,5.9-23.1,8.1c-4.4,4.2-65.9,259.1-66,273.7C499.7,711,504.7,711.2,529.2,702.5
	L529.2,702.5z M575.6,558.4c2.1-10.5,3.7-23.5,3.7-28.9c0-15.8,10.2-0.2,14.2,21.6c3,16.2,1.4,20.2-9.1,23
	C573.2,577.1,572.2,575.4,575.6,558.4L575.6,558.4z M2250.3,581.4c0.4-45-3.8-71.7-11.3-71.7c-2.3,0-9.2,3.7-15.3,8.2
	c-10.5,7.9-10.6,11.1-0.6,76.4c5.7,37.5,12,72.4,13.9,77.6C2242.1,685.4,2249.9,632.5,2250.3,581.4L2250.3,581.4z M1883.5,538.5
	V405.2l-19.4-3.9c-10.6-2.2-19.9-3.2-20.6-2.3s-3.1,59.6-5.3,130.4l-4,128.8l23.1,6.2c12.7,3.4,23.8,6.5,24.6,6.9
	C1882.8,671.6,1883.5,611.8,1883.5,538.5L1883.5,538.5z M724.7,655.4c13-3.6,13.8-7,14.4-63.9l0.6-60.1l19.9,60.9
	c10.9,33.5,21.4,62.4,23.2,64.3c1.8,1.9,8.9-15.7,15.7-39.1l21.5-73.6l9.1-31.2l0.6,62.9l0.6,62.9l23-3.8l23-3.8L874,500.1
	c-1.3-72-3-131.7-3.9-132.8s-10.8,0.5-22,3.5c-19.9,5.2-20.9,7.2-41.7,79.2L785,523.8l-22.2-67.9c-22-67-22.5-67.9-40.1-65.8
	c-9.8,1.2-19.7,4-22.1,6.2c-2.3,2.3-5.1,62.4-6.1,133.6C692.4,669.8,691.2,664.6,724.7,655.4L724.7,655.4z M1797.8,522.5
	c0-71.8-2.1-131.9-4.6-133.5s-12.9-3.8-23-5l-18.4-2.2l-1.8,48.3c-1.8,48-1.9,48.3-18.4,48.3c-41.3-0.2-43.5-3-45.4-58.3l-1.8-50.8
	l-19.9-2l-19.9-2V496c0,139.8-0.3,138.3,30.9,138.3c10.3,0,11.7-6,13.3-57.7l1.8-57.7l24.5,2.2c13.5,1.2,26.6,3.5,29.1,5
	c2.5,1.6,4.6,29.2,4.6,61.4V646l19.9,2.5c10.9,1.4,22,3,24.5,3.5C1795.7,652.7,1797.8,594.4,1797.8,522.5z M1018.5,612.2
	c40.1-16.6,57.2-78.1,33-118.5c-9.9-16.5-10.3-20.7-3-30.8c11.5-16,10.7-65.6-1.4-83.2c-14.8-21.5-36.8-27.2-86.5-22.5l-44.5,4.2
	v267.1l41.3-4.1C980.1,622.2,1007.6,616.6,1018.5,612.2L1018.5,612.2z M961.4,569.6c-1.8-4.7-2.4-20.9-1.3-35.9
	c1.7-24.6,3.6-27.4,19.1-29.2c24-2.8,34.8,8.7,34.8,37.2c0,20.4-2.6,25.3-15.7,30.4C976.6,580.6,965.2,579.8,961.4,569.6
	L961.4,569.6z M958.9,432.4c0-23.8,2-27.9,14.8-31.2c20.7-5.3,33.6,1.2,38,19c4.9,20-12.6,39.6-35.4,39.6
	C959.9,459.8,958.9,458.3,958.9,432.4L958.9,432.4z M1573.7,614.8c22.2-10.3,34.3-41.4,34.3-88.1v-40.3l-28.4-4
	c-44.6-6.2-45.1-6-45.1,17.9c0,17.7,2.3,21.8,12.2,21.8c17.8,0,18,47.2,0.2,52.9c-31.1,10.1-49.1-24.8-49.2-95.2
	c0-52.3,12.3-82.4,33.9-82.4c12.4,0,17.8,4.4,23.2,19.1c6.5,17.7,8.7,18.8,28.6,15c11.8-2.2,22.3-4.9,23.4-6c1-1-2.1-11.5-6.9-23.3
	c-26.9-65.5-106.2-70.5-133.2-8.3c-16.3,37.5-21.2,97.6-11.8,143.8c10.3,50.6,41.7,84.3,78.6,84.3
	C1547.2,621.9,1565.3,618.7,1573.7,614.8L1573.7,614.8z M1201.3,603.9c27.3-17,41.1-51.3,44.2-110.4c5-95.2-24.7-152.2-79.4-152.2
	c-19.7,0-28.7,4.1-44.9,20.6c-27,27.5-35.4,62.5-32.6,135.4c1.9,47.6,5,63.8,15.8,81.6C1126.8,616,1165.8,626,1201.3,603.9
	L1201.3,603.9z M1152.4,562.4c-31.4-32-25.9-161.2,7.5-174.3c39-15.2,57.4,132.1,21.6,172.5C1169.1,574.5,1164.6,574.8,1152.4,562.4
	z M1430.4,610.6c0-2.8-8.2-29.8-18.3-60.1l-18.3-55.1l18.9-22c17.2-20,18.7-25,16.2-55.3c-4.6-56.2-35-76.8-113.4-76.9h-38.3v268.2
	h49v-56.1c0-74.8,10.2-74.9,36.6-0.4c17.4,49.1,21.7,56.1,36,58.3C1427.8,615.8,1430.4,615.8,1430.4,610.6L1430.4,610.6z
	 M1326.3,420.8v-33.4l21.2,2.5c26.7,3.2,35.2,13.5,32.8,39.8c-1.8,19.5-3.4,20.8-28,22.6l-26,1.9V420.8z M340.3,476.9
	c0.4-8.2-21-5-35.6,5.4l-14,10l14,15.1l14,15.1l10.7-20.5C335.2,490.8,340.1,479.5,340.3,476.9L340.3,476.9z"/>
<path d="M1199.6,2662.2c-35.3-19.8-136.1-97.3-216.1-166.2c-132.9-114.3-249.4-240.2-353.6-382
	c-224.4-305.4-363.1-660.6-423.8-1084.9c-28.9-202.5-40.2-485.4-21.8-548.5c11.6-40,38.1-77.2,71.7-100.6
	c36.2-25.3,151.9-71,255.7-100.8c219.9-63.3,462.8-93.6,751-93.8c367.4-0.2,668.1,48.9,921.8,150.3
	c90.6,36.2,124.1,62.2,150.2,116.5l17.2,35.6l-0.4,155.9c-1.1,433.3-98.9,854.6-277.1,1194.4c-45.4,86.6-152.8,254.1-206,321.3
	c-98.3,124.2-212,243.4-324.8,340.6c-76.2,65.6-188.9,151.1-220.1,167C1285.1,2686.6,1239.8,2684.8,1199.6,2662.2L1199.6,2662.2z"/>
<path d="M1275.8,2651c-5.9-1.6-15.5-1.6-21.4,0s-1.1,2.9,10.7,2.9C1276.9,2653.9,1281.7,2652.6,1275.8,2651z"/>
<path d="M1032.4,2497.1c0-1.3-4.8-6.2-10.7-10.9c-9.7-7.8-9.9-7.5-2.3,2.4C1027.4,2498.9,1032.4,2502.2,1032.4,2497.1L1032.4,2497.1
	z"/>
<path d="M995.7,2466.2c0-1.1-7.6-8.8-16.8-17.1l-16.8-15.1l14.8,17.2C990.7,2467.1,995.7,2471.1,995.7,2466.2L995.7,2466.2z"/>
<path d="M910,2384c-21.7-22.3-40.8-40.5-42.5-40.5s14.7,18.2,36.4,40.5s40.8,40.5,42.5,40.5C948,2424.6,931.6,2406.3,910,2384z"/>
<path d="M818.1,2290.5c-21.7-22.3-40.8-40.5-42.5-40.5s14.7,18.2,36.4,40.5s40.8,40.5,42.5,40.5S839.8,2312.8,818.1,2290.5
	L818.1,2290.5z"/>
<path d="M763,2229.2c0-1.1-7.6-8.8-16.8-17.2l-16.8-15.1l14.8,17.2C758.1,2230.1,763,2234.1,763,2229.2L763,2229.2z"/>
<path d="M726.3,2185.4c0-1.2-6.2-7.5-13.8-14l-13.8-11.9l11.7,14C721.3,2186.7,726.3,2190.4,726.3,2185.4z"/>
<path d="M701.8,2154.2c0-1.2-6.2-7.5-13.8-14l-13.8-11.9l11.7,14C696.9,2155.5,701.8,2159.2,701.8,2154.2L701.8,2154.2z"/>
<path d="M677.3,2122.8c0-1.3-4.8-6.2-10.7-10.9c-9.7-7.8-9.9-7.5-2.3,2.4C672.3,2124.6,677.3,2127.9,677.3,2122.8z"/>
<path d="M658.9,2097.9c0-1.3-4.8-6.2-10.7-10.9c-9.7-7.8-9.9-7.5-2.3,2.4C653.9,2099.7,658.9,2103,658.9,2097.9z"/>
<path d="M640.6,2072.9c0-1.3-4.8-6.2-10.7-10.9c-9.7-7.8-9.9-7.5-2.3,2.4C635.5,2074.7,640.6,2078,640.6,2072.9z"/>
<path d="M554.8,1944.3c-3.6-6.9-7.9-12.5-9.6-12.5s-0.1,5.6,3.5,12.5s7.9,12.5,9.6,12.5S558.4,1951.1,554.8,1944.3z"/>
<path d="M536.5,1913.1c-3.6-6.9-7.9-12.5-9.6-12.5s-0.1,5.6,3.5,12.5s7.9,12.5,9.6,12.5C541.6,1925.6,540.1,1920,536.5,1913.1z"/>
<path d="M518.1,1881.9c-3.6-6.9-7.9-12.5-9.6-12.5s-0.1,5.6,3.5,12.5s7.9,12.5,9.6,12.5S521.7,1888.8,518.1,1881.9z"/>
<path d="M461.7,1773c-17.5-35.9-32.8-64.2-34-63c-2.7,2.8,58.8,128.3,62.9,128.3C492.2,1838.2,479.2,1808.9,461.7,1773z"/>
<path d="M408.6,1659.4c-7.2-12.6-9-8.6-3.1,7.1c2.1,5.6,5.1,8.8,6.7,7.2C413.8,1672.1,412.2,1665.7,408.6,1659.4L408.6,1659.4z"/>
<path d="M996.8,580.3c-4.4-1.8-9.7-1.6-11.7,0.5s1.6,3.5,8,3.3C1000.3,583.7,1001.7,582.3,996.8,580.3L996.8,580.3z"/>
<path d="M226.5,462.6c2.1-5.6,1.1-8.1-2.4-5.9c-3.3,2.1-6.1,6.5-6.1,9.7C218.1,475.4,222.5,473.4,226.5,462.6L226.5,462.6z"/>
<path d="M2312.1,466.7c0-3.1-5.7-12.2-12.7-20.3l-12.7-14.7l11,20.3C2309,473,2312.1,476.1,2312.1,466.7L2312.1,466.7z"/>
<path d="M862.1,374.4c-4.4-1.8-9.7-1.6-11.7,0.5s1.6,3.6,8,3.3C865.6,377.9,867,376.4,862.1,374.4z"/>
<path d="M1127.3,366.2c6.1-6.9,9.7-12.5,8-12.5s-8,5.6-14.1,12.5s-9.7,12.5-8,12.5S1121.2,373.1,1127.3,366.2z"/>
<path d="M972.3,361.9c-4.4-1.8-9.7-1.6-11.7,0.5s1.6,3.6,8,3.3C975.8,365.4,977.2,363.9,972.3,361.9L972.3,361.9z"/>
<path d="M1707.1,243.4c-4.4-1.8-9.7-1.6-11.7,0.5s1.6,3.6,8,3.3C1710.5,246.9,1712,245.4,1707.1,243.4z"/>
<path d="M1658.1,237.2c-4.4-1.8-9.7-1.6-11.7,0.5s1.6,3.5,8,3.3C1661.5,240.7,1663,239.2,1658.1,237.2z"/>
<path d="M1609.5,231.1c-4.2-1.7-11.1-1.7-15.3,0c-4.2,1.7-0.8,3.1,7.7,3.1C1610.3,234.2,1613.7,232.8,1609.5,231.1z"/>
<path d="M1002.9,224.7c-4.4-1.8-9.7-1.6-11.7,0.5s1.6,3.5,8,3.3C1006.4,228.2,1007.8,226.7,1002.9,224.7z"/>
<path d="M1539,224.7c-6-1.6-14.2-1.5-18.4,0.2c-4.1,1.7,0.7,3,10.8,2.9C1541.5,227.6,1544.9,226.2,1539,224.7L1539,224.7z"/>
<path d="M1119.5,218.2c-11-1.4-27.5-1.4-36.7,0.1s-0.2,2.6,20,2.5C1123,220.8,1130.6,219.6,1119.5,218.2z"/>
<path d="M1444.1,218.2c-11-1.4-27.5-1.4-36.7,0.1s-0.2,2.6,20,2.5S1455.1,219.6,1444.1,218.2z"/>
<path class="st1" d="M1199.6,2662.2c-35.3-19.8-136.1-97.3-216.1-166.2c-132.9-114.3-249.4-240.2-353.6-382
	c-224.4-305.4-363.1-660.6-423.8-1084.9c-28.9-202.5-40.2-485.4-21.8-548.5c11.6-40,38.1-77.2,71.7-100.6
	c36.2-25.3,151.9-71,255.7-100.8c219.9-63.3,462.8-93.6,751-93.8c367.4-0.2,668.1,48.9,921.8,150.3
	c90.6,36.2,124.1,62.2,150.2,116.5l17.2,35.6l-0.4,155.9c-1.1,433.3-98.9,854.6-277.1,1194.4c-45.4,86.6-152.8,254.1-206,321.3
	c-98.3,124.2-212,243.4-324.8,340.6c-76.2,65.6-188.9,151.1-220.1,167C1285.1,2686.6,1239.8,2684.8,1199.6,2662.2L1199.6,2662.2z
	 M1275.8,2651c-5.9-1.6-15.5-1.6-21.4,0s-1.1,2.9,10.7,2.9C1276.9,2653.9,1281.7,2652.6,1275.8,2651z M1032.4,2497.1
	c0-1.3-4.8-6.2-10.7-10.9c-9.7-7.8-9.9-7.5-2.3,2.4C1027.4,2498.9,1032.4,2502.2,1032.4,2497.1L1032.4,2497.1z M995.7,2466.2
	c0-1.1-7.6-8.8-16.8-17.1l-16.8-15.1l14.8,17.2C990.7,2467.1,995.7,2471.1,995.7,2466.2L995.7,2466.2z M910,2384
	c-21.7-22.3-40.8-40.5-42.5-40.5s14.7,18.2,36.4,40.5s40.8,40.5,42.5,40.5C948,2424.6,931.6,2406.3,910,2384z M818.1,2290.5
	c-21.7-22.3-40.8-40.5-42.5-40.5s14.7,18.2,36.4,40.5s40.8,40.5,42.5,40.5S839.8,2312.8,818.1,2290.5L818.1,2290.5z M763,2229.2
	c0-1.1-7.6-8.8-16.8-17.2l-16.8-15.1l14.8,17.2C758.1,2230.1,763,2234.1,763,2229.2L763,2229.2z M726.3,2185.4
	c0-1.2-6.2-7.5-13.8-14l-13.8-11.9l11.7,14C721.3,2186.7,726.3,2190.4,726.3,2185.4z M701.8,2154.2c0-1.2-6.2-7.5-13.8-14
	l-13.8-11.9l11.7,14C696.9,2155.5,701.8,2159.2,701.8,2154.2L701.8,2154.2z M677.3,2122.8c0-1.3-4.8-6.2-10.7-10.9
	c-9.7-7.8-9.9-7.5-2.3,2.4C672.3,2124.6,677.3,2127.9,677.3,2122.8z M658.9,2097.9c0-1.3-4.8-6.2-10.7-10.9
	c-9.7-7.8-9.9-7.5-2.3,2.4C653.9,2099.7,658.9,2103,658.9,2097.9z M640.6,2072.9c0-1.3-4.8-6.2-10.7-10.9c-9.7-7.8-9.9-7.5-2.3,2.4
	C635.5,2074.7,640.6,2078,640.6,2072.9z M554.8,1944.3c-3.6-6.9-7.9-12.5-9.6-12.5s-0.1,5.6,3.5,12.5s7.9,12.5,9.6,12.5
	S558.4,1951.1,554.8,1944.3z M536.5,1913.1c-3.6-6.9-7.9-12.5-9.6-12.5s-0.1,5.6,3.5,12.5s7.9,12.5,9.6,12.5
	C541.6,1925.6,540.1,1920,536.5,1913.1z M518.1,1881.9c-3.6-6.9-7.9-12.5-9.6-12.5s-0.1,5.6,3.5,12.5s7.9,12.5,9.6,12.5
	S521.7,1888.8,518.1,1881.9z M461.7,1773c-17.5-35.9-32.8-64.2-34-63c-2.7,2.8,58.8,128.3,62.9,128.3
	C492.2,1838.2,479.2,1808.9,461.7,1773z M408.6,1659.4c-7.2-12.6-9-8.6-3.1,7.1c2.1,5.6,5.1,8.8,6.7,7.2
	C413.8,1672.1,412.2,1665.7,408.6,1659.4L408.6,1659.4z M996.8,580.3c-4.4-1.8-9.7-1.6-11.7,0.5s1.6,3.5,8,3.3
	C1000.3,583.7,1001.7,582.3,996.8,580.3L996.8,580.3z M226.5,462.6c2.1-5.6,1.1-8.1-2.4-5.9c-3.3,2.1-6.1,6.5-6.1,9.7
	C218.1,475.4,222.5,473.4,226.5,462.6L226.5,462.6z M2312.1,466.7c0-3.1-5.7-12.2-12.7-20.3l-12.7-14.7l11,20.3
	C2309,473,2312.1,476.1,2312.1,466.7L2312.1,466.7z M862.1,374.4c-4.4-1.8-9.7-1.6-11.7,0.5s1.6,3.6,8,3.3
	C865.6,377.9,867,376.4,862.1,374.4z M1127.3,366.2c6.1-6.9,9.7-12.5,8-12.5s-8,5.6-14.1,12.5s-9.7,12.5-8,12.5
	S1121.2,373.1,1127.3,366.2z M972.3,361.9c-4.4-1.8-9.7-1.6-11.7,0.5s1.6,3.6,8,3.3C975.8,365.4,977.2,363.9,972.3,361.9
	L972.3,361.9z M1707.1,243.4c-4.4-1.8-9.7-1.6-11.7,0.5s1.6,3.6,8,3.3C1710.5,246.9,1712,245.4,1707.1,243.4z M1658.1,237.2
	c-4.4-1.8-9.7-1.6-11.7,0.5s1.6,3.5,8,3.3C1661.5,240.7,1663,239.2,1658.1,237.2z M1609.5,231.1c-4.2-1.7-11.1-1.7-15.3,0
	c-4.2,1.7-0.8,3.1,7.7,3.1C1610.3,234.2,1613.7,232.8,1609.5,231.1z M1002.9,224.7c-4.4-1.8-9.7-1.6-11.7,0.5s1.6,3.5,8,3.3
	C1006.4,228.2,1007.8,226.7,1002.9,224.7z M1539,224.7c-6-1.6-14.2-1.5-18.4,0.2c-4.1,1.7,0.7,3,10.8,2.9
	C1541.5,227.6,1544.9,226.2,1539,224.7L1539,224.7z M1119.5,218.2c-11-1.4-27.5-1.4-36.7,0.1s-0.2,2.6,20,2.5
	C1123,220.8,1130.6,219.6,1119.5,218.2z M1444.1,218.2c-11-1.4-27.5-1.4-36.7,0.1s-0.2,2.6,20,2.5S1455.1,219.6,1444.1,218.2z"/>
<path class="st2" d="M1207.5,2664.6c-109.6-58.6-365.7-290.7-498.9-452.1c-339-410.8-508.1-907.2-531.1-1558.6
	c-5.7-161.4,4.8-203.2,65-258.4c76.9-70.4,379.6-158,649.1-187.7c500.4-55.3,980.8-3.4,1323.9,143c95.9,40.9,133.1,95.4,138.2,202.2
	c3.3,70.1-7.6,279.6-20.3,392.2c-78.7,693.4-363.5,1218.3-884.1,1629.4c-109.1,86.2-135.1,101.4-176.9,104
	C1244.2,2680.3,1231.8,2677.6,1207.5,2664.6L1207.5,2664.6z M1348.9,2618.1c198-136.9,402.1-339.5,549.7-545.8
	c195.4-273.1,324.3-596.8,388.6-976.3c37.7-222.5,53.7-543.3,30.9-620.6c-13.4-45.5-54.7-78.1-144.5-114.2
	c-261.7-104.9-619.9-159-985.1-148.7c-332.1,9.3-600.4,57.2-830.5,148.4c-65.8,26.1-82.5,35.6-111.1,63.2
	c-33,31.9-33.8,33.6-41.3,82.7c-8.9,58-0.6,281.6,15.7,427c79.4,706.2,369.6,1232.8,906.4,1645c84.2,64.6,105.6,76.5,138.2,76.5
	C1291.3,2655.3,1301.7,2650.7,1348.9,2618.1L1348.9,2618.1z M1203.7,2623.2c-28.5-17.7-109-79.8-171.3-132.3
	c-333.2-280.7-562.9-622.3-694.8-1033.6c-50.7-158.2-88.9-344.2-110.2-536.4c-10.3-93-22.4-359.8-17.7-389.5
	c7.5-47.1,7.7-47.6,21.4-40.1c19.4,10.6,28.1-2,15.2-22c-7.9-12.3-8.8-18.8-3.7-28.6C276.2,377,583,279.4,857.9,245.1
	c132.8-16.6,237.1-22.3,407.8-22.3c329.7,0,578.4,35,816.8,115.1c107.7,36.2,172.6,65.1,190,84.7c10.8,12.2,10.9,13.5,0.6,31.2
	c-13.4,23.1-8.9,30.9,17.8,30.9c22.2,0,21.8-0.7,29.9,49c5,30.6-7.3,302.3-18.2,400.1c-50.1,450.8-190.8,834.9-421.7,1152
	c-136.1,186.8-345.1,393-529.4,522.4l-43.9,30.8l-9.9-14.3c-8.4-12.2-13.6-13.8-34.8-10.9c-13.7,1.9-28,7.7-31.7,12.9
	C1225.2,2634.8,1221.9,2634.4,1203.7,2623.2L1203.7,2623.2z M1071.8,1847.2c10.8-11,12.9-27.6,3.5-27.6c-3.4,0-6.1,2.8-6.1,6.1
	s-6.9,7.9-15.3,10c-15.3,3.9-18.9,9.3-11.2,17.1C1049.5,1859.8,1061.7,1857.5,1071.8,1847.2L1071.8,1847.2z M909.9,1766.1
	c0-1.5-2.8-2.8-6.1-2.8c-3.4,0-6.1,3-6.1,6.6s2.8,4.9,6.1,2.8C907.2,1770.6,910,1767.7,909.9,1766.1L909.9,1766.1z M1337.8,1713.3
	c-10.3-17-19.7-30.9-20.9-30.9c-1.2,0,5.2,15,14.3,33.3c9.1,18.3,18.5,32.3,20.9,30.9C1354.5,1745.3,1348.1,1730.3,1337.8,1713.3z
	 M1439.6,1607.5c2.2-3.6-2.1-5.6-10.1-4.7c-11,1.2-14.8-2.4-18-17.2c-3.8-17.5-4.1-17.6-4.8-2.8
	C1405.5,1606.9,1429.2,1624.6,1439.6,1607.5L1439.6,1607.5z M1301.2,1511.6c27.6-5.3,37.3-14.4,37.3-34.7c0-18.2-17.8-49-18.2-31.4
	c-0.1,5.3-12.4,21.8-27.2,36.7c-14.9,14.9-28.5,32.6-30.2,39.3c-2.8,11-2.1,11.3,7.1,3.2C1275.7,1519.7,1289.8,1513.8,1301.2,1511.6
	L1301.2,1511.6z M1497.6,1501.6c-40.6-5.3-54.6-12.4-75.7-37.9c-26.3-31.8-19-68.3,16.7-84.1l19.4-8.6l-21.8-0.2
	c-64.2-0.7-65.2,89.6-1.4,123.9c16.3,8.7,34.2,12.3,60,11.9l36.7-0.5L1497.6,1501.6L1497.6,1501.6z M1668.7,1442.2
	c-0.3-6.9-1.9-9-3.6-4.7s-8.4,7.8-14.8,7.8c-6.5,0-11.7,2.1-11.7,4.7s6.9,4.7,15.3,4.7C1665.3,1454.6,1669.1,1451.4,1668.7,1442.2
	L1668.7,1442.2z M1016.9,1406c10.2-16,25.1-30.9,32.9-33.1c16.7-4.8,58.1,7.3,82.1,24c24.1,16.8,55.3,20.8,65.4,8.4
	c4.5-5.5,15.4-10.1,24.2-10.2c15.5-0.2,15.6-0.6,4.2-9.4c-7.4-5.7-26-9.2-49-9.2c-45-0.1-64.7-9.3-77.2-36.3l-9.5-20.4l-11.6,13.1
	c-16.5,18.5-35.9,14-39.9-9.3l-3.2-18.7l-18.9,28.1c-26.8,39.8-39,65.7-39,82.9C977.3,1448.8,991.7,1445.2,1016.9,1406L1016.9,1406z
	 M1386,1333.4c6.3-1.5-0.7-42.8-10.6-62.5c-9.2-18.4-16.9-25.1-32.1-28.2c-60.2-12.1-75.1-30.7-69.6-86.7c4.2-42.6,3.8-43.6-29-68.5
	c-12.8-9.8-26.4-24.5-30.1-32.7c-8.8-19.6-17.6-18.9-59.7,4.7c-49.4,27.7-53.9,37.2-31.5,66.3c10,12.9,19.8,35,22.1,49.7
	c2.3,14.8,7.5,26.5,11.8,26.5c11.3,0,21.9,28.1,21.9,58.1c0,22.2,4.2,31.2,26.9,57.7l26.9,31.3l75.7-7.7
	C1350.4,1337.2,1385.2,1333.6,1386,1333.4L1386,1333.4z M1518.8,1285.9c-8.3-22.5-23.4-73.7-33.6-113.8
	c-10.8-42.4-30.2-97.2-46.4-130.7c-26.5-54.7-34.2-64.5-41.4-52.5c-4,6.7,28.1,87.3,51.2,128.5c9.7,17.4,25,61,33.8,97.1
	c9.3,37.7,22.8,75.4,31.9,88.9c8.7,12.9,16.6,23.4,17.7,23.4S1527.1,1308.4,1518.8,1285.9L1518.8,1285.9z M1373.8,963
	c-31.7-26.5-15.6-45.9,23.2-27.9c12.4,5.7,15.4,10.9,13.3,22.3c-1.8,9.6-0.7,12.7,3.1,8.8c11-11.2,1.9-29.1-20.4-40.2
	c-40.1-20-60.7,3.6-29.3,33.5c10.5,10,20.8,18,23,17.9C1388.8,977.1,1383,970.7,1373.8,963L1373.8,963z M1629.7,924.7
	c4.9-11.9,8.9-28,8.8-35.9c0-19.1-20.5-52.2-37.9-61.5l-14.1-7.5l13,14.9c28.5,32.6,33.8,60.9,17.5,93.2
	c-5.8,11.4-6.8,18.4-2.8,18.4C1617.9,946.3,1624.8,936.6,1629.7,924.7L1629.7,924.7z M1180.5,777.7c-27.1-16.9-25.2-40.2,5-60.9
	c17.2-11.8,27.8-14.3,53.6-12.7c21.9,1.4,32.2-0.3,32.2-5.4c0-4.1,13.1-11.7,29.1-16.8l29.1-9.4l-36.7,3.3
	c-56.3,5-96.2,18.6-122.2,41.5c-20,17.6-23,23.4-19.5,37.5c2.3,9.2,11.6,20.8,20.9,25.9C1196.9,794.5,1203.8,792.2,1180.5,777.7
	L1180.5,777.7z M376.4,623.5c-2-122.5-2-123.2,11.7-129.3c20.4-9.2,16.6-16.1-4.7-8.5l-18.4,6.5v127.3c0,88.1,2.1,127.3,6.7,127.3
	C376.4,746.7,377.8,709.9,376.4,623.5L376.4,623.5z M1386.5,741.2c6.3-4.1,5.6-6-3.2-8.3c-6.3-1.7-14.9,0.7-19.1,5.4
	c-6.3,6.9-5.7,8.4,3.2,8.3C1373.4,746.5,1382,744.1,1386.5,741.2z M2145.3,491.6c9.4,3.6,14,3.8,10.6,0.5s-12.3-7.8-19.9-10.2
	l-13.8-4.2l1.4,129.8l1.4,129.9l1.8-126.1l1.8-126.1L2145.3,491.6L2145.3,491.6z M484.4,676.6c4-4,0.8-4.5-9.2-1.5
	c-23.9,7.1-55.1,20.8-55.1,24.2C420.1,703.8,477.3,683.6,484.4,676.6L484.4,676.6z M543.2,557.1C569.3,442.2,570.4,439,588.4,431
	l18.5-8.2l-16.1-0.2c-8.8-0.1-18.8,3.3-22.2,7.5c-6.1,7.7-63.1,247.3-62.3,262.1C507.1,708.5,517.4,670.7,543.2,557.1L543.2,557.1z
	 M2031.2,667.6c-7.2-12.7-8.9-8.6-3,7.1c2.1,5.6,5.1,8.8,6.7,7.2S2034.7,673.9,2031.2,667.6L2031.2,667.6z M1947.7,430.1
	c8.2,1.6,13.5,0.5,11.8-2.4c-1.8-2.9-10-5.3-18.2-5.3h-14.9l1.4,126.3l1.4,126.3l1.8-123.9l1.8-123.9L1947.7,430.1L1947.7,430.1z
	 M624.9,637.9c-2.3-12.5-5.6-21.3-7.2-19.6c-1.6,1.7-1.2,13.4,1.1,25.9s5.6,21.4,7.2,19.6C627.7,662,627.2,650.4,624.9,637.9
	L624.9,637.9z M703.7,527.5c1.1-120,1.2-120.7,14.9-122.7c7.6-1.1,13.8-4.9,13.8-8.5c0-3.7-5.9-4.9-13.8-2.8
	c-7.6,2.1-15.8,3.8-18.4,3.8c-2.5,0.1-4.6,58.1-4.6,129s1.6,127.3,3.4,125.4C701,649.8,703.1,593.9,703.7,527.5L703.7,527.5z
	 M1863.7,408.1c15.4-2.4,15.1-2.7-3.2-3.5l-19.9-0.9L1842,530l1.4,126.3l1.8-122.8l1.8-122.8L1863.7,408.1L1863.7,408.1z
	 M769.7,581.6c-8.6-25.4-16.6-45.2-17.8-44s4.2,24.7,12,52.3s15.8,47.4,17.8,44C783.7,630.6,778.3,607,769.7,581.6L769.7,581.6z
	 M1759.4,554.9c-1.3-16.3-2.3-3-2.3,29.6s1,45.9,2.3,29.6C1760.7,597.9,1760.7,571.2,1759.4,554.9z M842.6,561.6
	c0-36.6-1-65.4-2.2-63.9c-5.3,6.1-8.4,130.5-3.3,130.5C840.1,628.2,842.6,598.2,842.6,561.6L842.6,561.6z M928.3,494.1V373.2
	l27.5-4.2c15.1-2.3,37.1-3,49-1.6c11.8,1.4,19.2,0.2,16.3-2.7c-2.8-2.9-26.9-4.4-53.6-3.4l-48.4,1.8L917.4,493
	c-1.1,87.1,0.4,128.6,4.6,125.9C926,616.4,928.3,569.6,928.3,494.1L928.3,494.1z M1667.8,378.1l16.7-0.6l-15.3-4.7
	c-8.4-2.5-17.4-3.5-19.9-2.1s-4,59.2-3.2,128.4l1.4,125.9l1.8-123.2l1.8-123.2L1667.8,378.1L1667.8,378.1z M2059.7,462
	c16.3,3.4,16.2,3.3-1.7-5l-18.4-8.5l-3.1,75.8c-1.7,41.7-1.7,80,0,85.2c1.7,5.1,3.8-26.7,4.8-70.8l1.7-80.2L2059.7,462z M1122,584.3
	c-18.9-22.9-25.1-50.9-24.5-110.3c0.5-51,14.9-96.7,34.8-110.9c7.2-5.1,24.2-9.4,37.7-9.5c20.4-0.2,22.7-1.3,13.5-6.8
	c-15.3-9.1-40.6-1.6-60.9,18.1c-43.2,41.8-47.5,178.2-7.1,222.6C1135.6,609.7,1140.8,607.2,1122,584.3z M1338.1,354.7
	c26.6,1.2,45.1,0.2,41.2-2.4c-3.9-2.5-27.1-4.6-51.5-4.7l-44.4-0.1l1.4,129.4l1.4,129.4l1.8-127l1.8-127L1338.1,354.7L1338.1,354.7z
	 M1378.3,565.8c-5.7-17.6-11.8-30.6-13.5-28.9s1.6,17.5,7.4,35.1c5.7,17.6,11.8,30.6,13.5,28.9S1384.1,583.4,1378.3,565.8
	L1378.3,565.8z M1014.5,574.7c14.5-13.4,15.7-51.4,2.3-68.5c-9.2-11.7-9.3-11.6-3.1,1.5c16,33.8,0.6,70.5-29.7,70.7
	c-8.7,0.1-20,3.1-25.1,6.7c-6.9,5-2.5,5.9,17.3,3.6C990.8,587,1008,580.7,1014.5,574.7L1014.5,574.7z M1475.4,570.5
	c-13.8-26.8-18.5-114.1-8.2-151.5c10.5-38.2,37.1-60.9,67.9-57.9c12.6,1.2,21.6,0.1,20-2.6s-14-4.8-27.5-4.8
	c-30.3,0-56,23.3-65.9,59.7c-11.1,40.5-8.2,120.3,5.3,150.8c6.5,14.6,13.4,26.5,15.3,26.5C1484.2,590.8,1481.1,581.6,1475.4,570.5z
	 M602.7,579.1c6.7-4.3,6.4-10.7-1.4-35.8l-9.5-30.5l3.5,28.4c3.1,25.4,1.9,29.2-10.8,35.4c-13,6.4-13.2,7-2.1,7.3
	C589.1,584.2,598.3,582,602.7,579.1z M1564.9,572.5c3.5-6.6,6.3-15.8,6.2-20.3c0-4.5-3.6-1.2-8,7.4c-6.4,12.6-12.2,15.5-30.4,14.9
	c-12.4-0.4-21,1.7-19.2,4.7C1520.1,590,1558.3,585,1564.9,572.5z M1199.2,553.3c7.7-15.6,10.7-36.9,10.7-74.9
	c0-66.7-11.9-95.7-40.3-98.6c-11.2-1.1-22,1.9-26.5,7.4c-6.6,8.2-5.2,8.4,11.8,1.9c17.5-6.7,20.5-6,30.7,6.9
	c22.2,27.9,24,128.4,2.9,161.2c-8,12.5-14.2,15.4-27.8,13.4c-9.6-1.4-16-0.2-14.2,2.8s12,4.6,22.6,3.6
	C1184.3,575.6,1190.9,570.4,1199.2,553.3L1199.2,553.3z M840.5,384.9c2.8-2.7,10.7-6.3,17.4-8c8.2-2,6-3.2-6.9-3.7l-19.1-0.7
	l-19.2,67c-10.6,36.9-19,71.3-18.8,76.4s9.6-21.1,20.9-58.4C826.1,420.3,837.7,387.6,840.5,384.9L840.5,384.9z M1573.1,489.3
	l31.8-2.3l-35.2-1.2c-34.8-1.1-35.2-0.9-34.4,16c0.7,14.2,1.3,14.8,3.4,3.4C1541,493.7,1546.2,491.2,1573.1,489.3L1573.1,489.3z
	 M1048,491.4c-2.2-3.7-7-6.7-10.5-6.7c-4.1,0-3.6,3.6,1.2,9.5C1047,504.5,1054.6,502.2,1048,491.4L1048,491.4z M1761,440.4v-50.6
	l16.8,4c12.5,3,14.5,2.4,7.7-2.3c-5.1-3.5-14-6.4-19.9-6.4c-9.3-0.1-10.7,6.4-10.7,49.9v50l-32.1-2.4c-25-1.9-27.4-1.4-10.7,2.2
	C1762.5,495.5,1761,496.8,1761,440.4L1761,440.4z M1008.3,460.7c17.4-14.4,18.8-47,2.5-62.1c-10.5-9.7-10.8-9.7-3.7-0.1
	c10,13.6,6.5,49.2-5.3,55.4c-5.1,2.6-18.8,7.5-30.6,10.9l-21.4,6.1l22.3,0.6C985.4,472,999.9,467.6,1008.3,460.7z M1381.4,453.5
	c14.6-14.9,16-45.2,2.6-58.8c-13.9-14.2-17.1-12-6,4.1c21.3,31,7.9,54.2-35.4,61.4l-25.5,4.2l26,0.8
	C1361.7,465.8,1372.7,462.5,1381.4,453.5L1381.4,453.5z M1562.7,411.6c-2-2.1-3.5,1.6-3.2,8.2c0.3,7.3,1.7,8.7,3.7,3.8
	C1564.9,419,1564.7,413.6,1562.7,411.6z"/>
<path class="st3" d="M1213,2666c-73.6-35.8-266.4-198.1-394.9-332.6c-350.7-367-546.5-801.1-618.3-1371.5
	c-9.6-75.8-24.5-303.8-24.5-375.2c-0.1-115.6,36-186.1,115-224.3c84.6-40.9,254.2-94.1,383.9-120.4c226.6-46,543.8-66.4,783.7-50.4
	c268.8,18,471.1,55.7,666,124.4c139.3,49,181,77.3,212,143.7c15.9,34.1,16,35.4,14.9,171.5c-4.7,559.5-149.9,1053-425.5,1445.6
	c-129.5,184.5-313.1,372.8-510.8,524.1C1308.8,2681.9,1270.9,2694.1,1213,2666L1213,2666z M1346.2,2622.2
	c144.3-98.1,371.5-312.1,484.8-456.5c121.4-154.9,250.6-378.4,315.4-545.8c99.6-257.4,155.5-520.8,177.9-838.9
	c7.5-106.2,7.8-253.6,0.6-285.1c-3.6-15.8-3.1-23.8,1.6-25.4c9-3.1-11.7-35.7-22.6-35.7c-4.4,0-14.7-7.3-22.8-16.2
	c-57.6-62.9-354-151.3-624.1-186c-196.3-25.3-526.5-28.4-722.5-6.9c-301.5,33.1-623,124.4-688.3,195.6
	c-9.8,10.7-19.8,18.1-22.3,16.5c-31.7-19.9-31.3,276.6,0.7,533.5c70.2,564.1,271.4,1000.6,630,1366.4
	c126.4,129,280.2,258.6,362.9,305.9C1261.8,2669,1282.4,2665.5,1346.2,2622.2L1346.2,2622.2z M1230.6,2590.8
	c-13.9-8.3-53.7-36.9-88.3-63.6c-34.6-26.7-66.6-48.6-71-48.6s-17-8.2-28-18.1l-20-18.1l23,16.8c30.9,22.6,29.2,16.3-2.6-9.8
	c-14.1-11.5-23.5-17.6-21.1-13.5c10.2,16.8-7.6,5.6-30.2-18.9c-13.3-14.5-17.3-20.8-8.9-14.1c8.4,6.7-30.2-35.4-85.9-93.7
	c-98.1-102.8-192-215.8-253.6-305.6c-35.1-51.1-44.4-62.1-34.3-40.5l7.3,15.6l-12.5-15.6c-6.9-8.6-11.2-19.2-9.7-23.7
	c1.6-4.5,0.3-6.5-2.9-4.5c-6.1,3.9-26.4-30.4-21.1-35.7c1.7-1.7-10.5-28.6-27.1-59.6c-44-82.4-77.8-155.3-117.2-252.3
	c-19.1-47.2-36.5-84.1-38.5-82s-2.2-2.9-0.5-10.9c2.1-9.6,1.3-12-2.3-6.9c-7.7,11-28.4-49.7-23.3-68.3c3.2-11.6,2.6-12.5-2.9-5
	c-5.4,7.3-6.1,4.5-3.1-12.5c3-17.3,2.3-19.9-3.3-12.5c-6,7.9-6.5,7.6-3.4-2c2-6.3-3.1-38.5-11.3-71.7
	c-39.8-160.9-81.4-447.1-83.4-574.9c-0.3-19.7-1.8-24.4-5.1-15.9c-4.3,11.2-5,11-8.7-3.1c-2.2-8.4-4-30-4.1-48
	c-0.1-49.6-12.1-43.2-20.5,10.9c-1.3,8.6-2.7-26.5-3.2-78c-0.4-51.5,1.3-96.4,3.8-99.8s12.7-6.2,22.8-6.2c22,0,26.5-13.5,13.4-40.3
	c-8.6-17.5-8.2-19.3,7.2-35.3c15.7-16.2,73.3-46.3,105-54.9c14.8-4,14.7-3.8-1.5,5.6c-9.3,5.4-16.8,12.5-16.8,15.8
	c0,7.7-0.2,7.7,30.6-3.3c31-11.2,38.9-11.7,33.3-2.4c-2.7,4.5-0.2,5.6,7.3,3.2c131.8-42.3,244.6-70.5,363.5-90.9
	c56.3-9.7,95.6-19,88.8-21.1c-6.7-2,1.5-2.3,18.4-0.6c23.4,2.4,28.4,1.5,21.4-3.8s-1.2-6.2,24.5-3.9c18.5,1.7,92.9,0.7,165.3-2.3
	c244.1-9.9,346-12.1,338.4-7.2c-4.2,2.7,33.3,8.3,83.3,12.5c111,9.3,280.2,33.9,371.7,54.1c37.4,8.2,74.7,13.5,82.8,11.6
	c12.1-2.7,13.1-2,5.6,3.9c-7.6,5.9-6.9,6.5,4.1,3.4c15.8-4.5,46.1,2.2,41.8,9.3c-1.7,2.7,2.9,3.4,10.2,1.5c9.6-2.6,11.9-1.4,8.4,4.4
	c-3.6,5.9-1.3,6.8,9,3.4c8.8-2.9,12.4-2.2,9.9,1.9c-2.2,3.7,9.8,11,28.3,17.2c61.1,20.6,130.2,53.4,147.5,70.1
	c36.4,35.1,37.8,42.4,36.5,180.6c-1.1,107.2-12.9,297.8-23.4,375.7c-3.3,24.5-1.4,20.3,16.5-37.4c6.9-22.3,15-43.6,17.9-47.3
	s7.9-22,11.2-40.5c5.6-32.1,5.7-31.4,2.7,13c-21.4,311.4-127.2,682.1-269.3,943.8c-120.9,222.8-295.7,443.3-467.7,590.2l-39.7,33.9
	l27.9-30.8c15.3-16.9,32.3-41,37.8-53.5s19-33.5,30-46.8l20-24.1l-21.1,19.1c-11.6,10.5-39,35.6-60.9,55.7
	c-47.9,44.1-171.8,145.4-227.6,186C1280.5,2606.9,1263.6,2610.4,1230.6,2590.8L1230.6,2590.8z M1075.3,1850.7
	c26-26.5,10.3-45.2-19.8-23.7c-11,7.9-21.1,14.9-22.4,15.7c-5,3,13.4,20.4,21.5,20.4C1059.2,1863.2,1068.5,1857.6,1075.3,1850.7
	L1075.3,1850.7z M913.7,1756.9c0.5-10.2-1.1-18.5-3.5-18.5c-8.3,0-20.3,30.4-16.2,41.2C899.9,1795.2,912.6,1780.6,913.7,1756.9z
	 M1362.4,1753.2c11.2-5.7,12.4-8.3,5.5-12.5c-4.7-2.9-14.5-15.2-21.6-27.2c-16.2-27.1-38.5-51.8-42.8-47.4
	c-1.8,1.8,5.7,17.5,16.7,34.9c16.4,26.1,19.4,35.9,16.7,56c-3.5,26.9,2.7,40.8,8,17.9C1346.8,1766.9,1354.6,1757.1,1362.4,1753.2
	L1362.4,1753.2z M1687.5,1743.1c0-4.3-2.5-11.6-5.4-16.3c-6.7-10.8-15.6,1.7-10.6,15C1675.7,1752.9,1687.6,1753.9,1687.5,1743.1
	L1687.5,1743.1z M1442.6,1607c0-2.9-5.5-8.4-12.2-12s-12.2-10.8-12.2-15.8s-2.8-9.1-6.1-9.1c-10.5,0-6.9,36.4,4.2,42.7
	C1427.4,1619.1,1442.6,1615.8,1442.6,1607z M960.6,1520.1l3.3-34.3l-9.5,21.8c-5.2,12-10.5,35.9-11.7,53
	c-2.2,30.7-2.1,30.9,6.1,12.5C953.5,1562.9,958.8,1539,960.6,1520.1L960.6,1520.1z M1282.2,1559.7c1.5-10.5,6.3-12.4,31.5-12
	c34.3,0.5,52.5-12.2,58.8-41.3c3-14.1,0.9-22-8.9-32.6c-7.1-7.7-23.6-35.7-36.6-62.3c-26.9-54.8-25.8-57.1,24.1-52.2
	c16.7,1.6,30.4,1,30.4-1.4c0-8.2,31.2-18.8,55.3-18.8c17.5,0,26.3,3.4,31.8,12.5c4.2,6.9,11.8,12.4,16.9,12.3c7.3-0.1,7-1.5-1.5-6.5
	c-19.1-11.3-11.4-18.9,8.5-8.4c14.8,7.8,17.3,11.4,10.7,15.7c-6.3,4-4.4,5.5,6.8,5.4c15.3-0.1,15.3-0.1-4.7-18.6
	c-15.3-14.1-25.9-18.5-44.8-18.5c-13.6,0-30.1-2.9-36.6-6.5c-14.5-7.9-16.4-27.8-2.1-22.3c5.4,2.1,17.1,5.4,26,7.3l16.3,3.5
	l-15.3-13.7c-8.4-7.5-22.9-16.4-32.1-19.8c-20.2-7.3-22-22-3.5-29c12.6-4.7,12.3-5.3-4.6-8.8c-11.5-2.4-21.8-10.8-28.7-23.3
	c-9.4-17.2-12.9-19-29.3-15.4c-20.9,4.7-48.7-9.7-48.7-25.1c0-5.1,5.8-15.1,12.9-22.3l12.9-13.1l-11.8-38.3
	c-11.3-36.7-13.3-39-45.7-54.9c-50.3-24.7-52-45.3-6.5-76.8c27.6-19.1,49.2-19.8,81.8-2.9c26.5,13.8,42.2,41.1,42.2,73.4
	c0,12.1,11,33.3,33.3,64c34.5,47.7,48.8,84,45.3,115.3c-1.7,14.8-5.4,18.7-20.4,21c-16.2,2.4-15,3.2,9.2,6.2
	c23,2.9,29.1,6.6,36.9,22.6c12.6,25.7,42.5,63.9,42.6,54.4c0-4.2-5.7-22.4-12.7-40.5s-22.3-69.5-33.9-114.1
	c-12.2-46.9-32-103.3-46.9-133.8c-14.2-29-26.7-54.9-27.9-57.7c-1.1-2.8,3.6-5,10.5-5c20.3,0,54.8,36,80.9,84.6
	c25.8,47.8,46.5,67.1,68.6,63.9c11.6-1.7,13.3-5.5,12.3-27.8c-1.3-29.9-21.3-73.6-38.8-84.8c-17.8-11.4-14.8-17.2,9-17.2
	c21.1,0,33.3-8.4,22.2-15.3c-3.3-2.1-26.4-9.1-51.4-15.6s-73.4-24.9-107.5-40.8c-37.6-17.6-66.4-27.5-73.4-25.2
	c-6.3,2-26.4,17-44.5,33.2c-50.2,44.7-89.9,72.5-133.8,93.7c-73.6,35.5-88.8,60.4-106.5,175.6c-5.5,35.9-12.2,66.7-14.9,68.6
	c-11.5,8-69.4,90.6-77.7,110.8c-10.9,26.5-11.3,39.8-1.9,60.7c8.9,19.8,31.5,21.1,44.2,2.6c14.2-20.6,28.4-11.1,24.1,16.1
	c-2.3,14.4-1.1,22.2,3.4,22.2c10.8,0,31.6-23.9,41.3-47.6c11.6-28.3,22.9-31.8,51.1-15.6c29.4,16.8,63.8,17.2,84.1,0.9
	c8.5-6.8,17.7-11,20.4-9.3c6.7,4.2,15-9.7,15-25c0-16.8,19-19.4,27.3-3.8c4.9,9.4,4.7,15.9-0.9,25c-10.8,17.7-1,23.7,19.3,11.9
	l17.4-10.2l2.6,22.6c2.3,20.3-0.4,25.6-26.7,51.7c-32.3,32.1-41.1,54.5-30.5,78.1C1266.2,1579.4,1279.5,1578.3,1282.2,1559.7
	L1282.2,1559.7z M1044.7,1429.3c0-18.5,10-40.1,18.6-40.1c8.5,0,7.3,39.7-1.4,48.6C1050.3,1449.5,1044.7,1446.7,1044.7,1429.3z
	 M1127.2,1347.6c-5.6-5.7-12.6-17-15.7-25.1c-8.1-21.6-22.4-24.5-39.7-8c-18.1,17.3-25.1,12.6-16.4-11c3.5-9.5,9.7-43.8,13.7-76
	c11.5-92.2,37.6-107.4,58.5-34.1c5.3,18.4,13.5,37.5,18.3,42.4s8.7,20.2,8.7,33.9c0,20.2,4.7,30.5,24.5,53.8
	c13.5,15.9,24.5,30.1,24.5,31.6s-14.9,2.7-33.2,2.7C1147.8,1358,1134.2,1354.7,1127.2,1347.6L1127.2,1347.6z M1372.2,955.8
	c-14.7-12.4-16.7-16.6-9.7-21.2c17-11.4,54.6,13.6,42.6,28.3C1395.9,974.1,1393.5,973.6,1372.2,955.8L1372.2,955.8z M1553.9,1502.9
	c6-6.1-1.7-7.7-36.8-7.7c-67,0-98.9-22.3-98.9-69c0-51.4,64.3-65.6,80.7-17.8c3.4,10,8.8,18.2,12,18.2c3.4,0,3.1-5-0.6-12.1
	c-10.4-19.7-7.4-25.3,13.6-26.1c14.9-0.5,11.7-2.1-12.7-6.2c-17.9-3-37.7-8.3-44-11.7c-25-13.6-66.8-4.6-84,18.2
	c-21.5,28.5,3.6,87.5,47.3,111.3c23.3,12.7,34.3,14.6,71.7,12.8C1526.4,1511.5,1549.7,1507.1,1553.9,1502.9z M1677.9,1463.2
	c-2.4-3.9-4.6-12.8-4.9-19.8c-0.4-7-4.5-14-9.2-15.6c-5.2-1.7-6.8-0.1-4.2,4.2c2.6,4.3-0.4,7-7.7,7c-6.6,0-13.5,4.2-15.5,9.4
	c-2.6,7,1,9.4,14.3,9.4c9.8,0,19.5,2.8,21.6,6.2s5.2,6.2,6.8,6.2C1680.8,1470.2,1680.2,1467,1677.9,1463.2L1677.9,1463.2z
	 M1653.2,1304.4c4.6-12.2-2.2-58.8-8.6-58.8c-9.7,0-16.7,55.7-8.1,64.5C1643.2,1317,1649.3,1314.9,1653.2,1304.4L1653.2,1304.4z
	 M1020.3,1269.7c13.4-21.1,24.3-41.5,24.3-45.2c0-3.8-6.9,5.3-15.2,20.1c-8.3,14.8-20.9,35.2-27.9,45.2c-7,10.1-11.2,18.3-9.2,18.3
	S1006.9,1290.8,1020.3,1269.7L1020.3,1269.7z M1672,1132.1c-4.3-26.2-13.7-35.9-21.8-22.8c-9,14.5-6.1,48.5,5.2,60.3
	c10.3,10.7,10.9,10.6,15.6-1.4C1673.7,1161.2,1674.2,1145,1672,1132.1L1672,1132.1z M1054.5,1141.3c-2-2.1-3.5,1.6-3.2,8.2
	c0.3,7.3,1.7,8.7,3.7,3.8C1056.7,1148.8,1056.5,1143.4,1054.5,1141.3L1054.5,1141.3z M1102.8,1052.3c6.1-6.9,9.7-12.5,8-12.5
	s-8,5.6-14.1,12.5s-9.7,12.5-8,12.5S1096.7,1059.2,1102.8,1052.3z M1641.8,906.7c8.1-43.9-31.1-91.8-83-101.3
	c-21.2-3.9-21.2-3.8,6.2,10.8c48.2,25.7,69.9,81,45.6,116.2c-5.2,7.6-7.6,17.1-5.1,21.1C1612,964.3,1637.2,931.8,1641.8,906.7
	L1641.8,906.7z M1274.3,940.1c6.1-6.9,9.7-12.5,8-12.5s-8,5.6-14.1,12.5s-9.7,12.5-8,12.5S1268.2,946.9,1274.3,940.1L1274.3,940.1z
	 M1314.1,905.8c4.2-5.1,6.2-9.4,4.6-9.4s-6.5,4.2-10.7,9.4s-6.2,9.4-4.6,9.4C1305.1,915.1,1309.9,910.9,1314.1,905.8z M1206.9,786.7
	c-52.9-19.4-55.5-55.5-5.5-74.9c24.2-9.4,39.6-9.1,66.1,1.2c6.5,2.5,9.7,0.4,9.7-6.4c0-13.5,24.1-22.2,63.2-23
	c25.1-0.5,28.5-1.7,16.4-5.6c-62.8-20.5-178.6,12-205,57.5l-11.2,19.4l22.3,20.8c17.3,16.2,27.4,20.7,45.3,20.4l23.1-0.4
	L1206.9,786.7L1206.9,786.7z M377.3,622.2c0-104.2,1.4-124.3,9.2-127.3c7.9-3.1,9.2,11.1,9.2,105.4c0,121-2.2,115.8,42.9,99.6
	c29.9-10.8,36.7-11.5,36.7-4c0,3-20.8,13.1-46.2,22.6c-25.4,9.4-45.1,18.3-43.8,19.6c1.3,1.3,23.3-5.2,48.8-14.6
	c41-15,46.7-19,48.9-34.4c2.8-19.2,0.2-19.2-43.6-0.9c-39.4,16.4-38.2,19.7-36.3-100.6c1-60,1.5-109.2,1.2-109.1
	c-0.3,0-9.3,3.1-19.9,6.9l-19.3,6.8v130.7c0,85.6,2.1,129.4,6.1,126.9C374.9,747.5,377.3,698,377.3,622.2L377.3,622.2z
	 M1392.6,741.2c6.1-3.9,4.6-6.2-5.9-9c-7.7-2.1-15.6-1.3-17.4,1.7s-13,6.7-24.7,8.1c-17.2,2.1-15.4,2.8,9.2,3.5
	C1370.7,746.1,1388.1,744.1,1392.6,741.2L1392.6,741.2z M2129.7,611.9l-1.8-122.4l17.1,4.3c20.2,5.1,12.4-5.3-8.9-11.9l-13.8-4.2
	V606c0,70.6,2.1,128.3,4.6,128.3C2129.4,734.2,2130.6,679.2,2129.7,611.9z M2011.3,610.2c-20.8-52-38.9-93.5-40.2-92.1
	c-1.3,1.4,11.7,38.6,29.1,82.8c17.3,44.2,34.1,87,37.2,95.2s7,13.5,8.7,11.8S2032.1,662.2,2011.3,610.2L2011.3,610.2z M545.6,660.8
	c5.8-39.4,8.1-43.5,26.5-48c9-2.2,21-5.4,26.6-7.1c8.2-2.5,11.6,3.8,17.2,31l7,34.1l18.6-6.6c21.6-7.7,23.1,6.5-14.6-142.6
	l-26.1-103.3l-18.8,5c-17.7,4.7-19.5,8-29.3,53.4c-5.8,26.6-19.6,88-30.7,136.4l-20.2,88l19.8-6.2
	C539.1,689.5,541.9,685.5,545.6,660.8L545.6,660.8z M526.3,662.2c-2-5.3-2.3-11-0.6-12.7s4.5,2.6,6.3,9.6
	C535.9,674,531.6,676.3,526.3,662.2z M530.8,631.8c-0.3-6.6,1.2-10.3,3.2-8.2s2.3,7.5,0.5,12C532.6,640.6,531.1,639.1,530.8,631.8z
	 M543.1,575.7c-0.3-6.6,1.2-10.3,3.2-8.2s2.3,7.4,0.5,12C544.8,584.4,543.4,583,543.1,575.7z M567.7,561.1c0.3-9.4,3.9-31.2,8-48.3
	l7.4-31.2l7.7,43.1c6.3,35.2,6.2,44-0.3,48.3C575.2,582.7,567.1,578.5,567.7,561.1z M549.2,550.7c-0.3-6.6,1.2-10.3,3.2-8.2
	s2.2,7.5,0.5,12C550.9,559.5,549.5,558,549.2,550.7z M558.7,512.8c6.9-41.8,14.8-60,10.8-25c-2,17.2-6.1,35.4-9.2,40.5
	C556.6,534.5,556,529,558.7,512.8L558.7,512.8z M573.3,445.7c-0.1-7.3,4.4-10.8,13.7-10.4c9.2,0.3,10.7,1.7,4.6,4.1
	c-5.1,2-11.2,6.7-13.7,10.4C575.1,454,573.3,452.5,573.3,445.7z M1938.6,551.1V430.3l16.8,2.7c13.2,2.1,14.8,1.3,7.7-3.9
	c-5.1-3.7-15.4-6.7-23-6.7l-13.8-0.1V547c0,79,2.2,124.7,6.1,124.7S1938.6,627.4,1938.6,551.1z M723.7,646.9c7,0,8.8-15.9,9.5-82.6
	c0.4-45.5,2-75.6,3.5-67.1c4.3,24.9,39.5,139.8,44.5,145.4c2.5,2.8,6.3-5.6,8.5-18.7c2.2-13.1,13.4-53.3,25.1-89.3l21.1-65.5
	l-3.6,81.7l-3.6,81.7l18.9-2.8l18.9-2.8l1.8-127.2l1.8-127.2h-19.3c-18.6,0-19.8,1.6-32.8,45.2c-7.4,24.9-18.3,64.3-24.1,87.7
	l-10.6,42.4l-22.4-71.3c-12.3-39.2-22.4-74.4-22.4-78.3c0-7.8-8.5-8.7-29.1-3.1c-13.7,3.7-13.8,4.3-13.8,131.6
	c0,114,1.1,127.4,9.7,124C710.7,648.6,718.9,646.9,723.7,646.9L723.7,646.9z M1848,530.8l-1.8-122.4l15.6,4
	c8.6,2.2,15.6,1.4,15.6-1.7s-8.3-6.9-18.4-8.4l-18.4-2.7v126.8c0,69.7,2.1,126.8,4.6,126.8C1847.7,653.1,1849,598.1,1848,530.8
	L1848,530.8z M1759.4,545.5c-1.2-18-2.2-3.3-2.2,32.7s1,50.8,2.2,32.7C1760.7,593,1760.7,563.6,1759.4,545.5L1759.4,545.5z
	 M1002.2,609c33.4-8.6,50.1-30.7,53.4-70.7c2.4-29.7,0.9-35.8-12.2-49.1c-14.6-14.8-14.7-15.5-3.8-29.2c17.1-21.5,15-65.4-4.1-84.9
	c-14.2-14.4-18.9-15.4-65.8-13.8l-50.5,1.8l-1.7,128.5l-1.7,128.5l32.3-2.8C965.8,615.8,990.2,612,1002.2,609L1002.2,609z
	 M952.8,537.7v-40.5h23.5c28.2,0,43.8,14.8,43.8,41.6c0,24.6-16.9,39.5-44.9,39.5h-22.5v-40.6H952.8z M955.2,457.3
	c-1.8-4.7-2.3-20.8-1.3-35.8c1.7-24.4,3.7-27.4,18.5-29.2c26.6-3.1,41.6,8.7,41.6,32.6c0,24-7.2,31.5-35.4,37
	C964.4,464.6,957.5,463.3,955.2,457.3L955.2,457.3z M1656.9,499.6c0-119.3,0.3-122.3,12.2-119.1c6.7,1.8,12.2,1,12.2-1.7
	c0-4.4-20.3-12.3-32.1-12.5c-2.5-0.1-4.6,57.5-4.6,127.8c0,81.1,2.2,127.9,6.1,127.9C1654.7,621.9,1656.9,577,1656.9,499.6z
	 M2059.7,462.9c16.5,3.2,16.5,3.1-1.7-5.6l-18.4-8.8l-1.7,72c-1.6,64.8-2.6,70.9-10.8,60.2c-8.2-10.8-8.5-10.2-2.7,6.9
	c13.4,39.7,15.2,34.9,16.9-45.3l1.7-82.7L2059.7,462.9L2059.7,462.9z M1571.2,605.7c10-6.3,11.1-8.1,3.1-5.2
	c-6.7,2.4-21.9,6.5-33.7,9.1c-21.1,4.6-21.1,4.7-3.1,5.2C1547.6,615,1562.8,611,1571.2,605.7z M1196.6,596.8
	c24.6-15.3,37.3-44.2,42-95.5c9.8-106.3-38-179.8-97.9-150.9c-30.8,14.9-48.3,54-51.8,115.6C1082.4,578.5,1131,637.5,1196.6,596.8
	L1196.6,596.8z M1143.1,560c-25.2-25.7-25.5-132.3-0.5-159.4c18.7-20.3,33.8-19.9,47.4,1.2c8.5,13.2,10.9,29.9,10.9,76.7
	s-2.4,63.5-10.9,76.7C1177.2,575,1159.6,576.8,1143.1,560L1143.1,560z M1418.1,596.7c0-2.8-7.9-27.9-17.6-55.8l-17.6-50.7l14.5-9.7
	c32.9-22,31.9-93.3-1.7-120.2c-13-10.5-24.8-12.8-64.1-12.8h-48.2v255.7h15.3c15.2,0,15.3-0.4,15.3-56.1V491l16.8,0.1
	c15.9,0.1,17.8,3.3,34.3,58.1c17.2,57.3,17.7,58,35.2,55.4C1410.2,603,1418.1,599.5,1418.1,596.7L1418.1,596.7z M1391.8,592.3
	c-1.4-2.6-10.1-27.8-19.2-56.1l-16.6-51.5h-24c-15.1,0-24-2.9-23.9-7.8c0-5.2,11.5-8.1,33.9-8.8c18.6-0.6,37.6-4.2,42.2-8.1
	c22.7-19.2,15.1-67.7-12.6-80.6c-18.2-8.4-55.4-9.3-60.2-1.4c-1.9,3.1-3.9,36.7-4.6,74.7c-0.6,38-2.7,67.5-4.6,65.6
	s-4.8-38.3-6.5-80.9l-3.1-77.5h43c50.1,0,66,8.5,76.4,40.6c9.6,29.5,2.7,56.1-18.9,73.4l-18,14.3l18,54.4
	c13.8,41.4,16,54.4,9.6,54.4C1398.2,597,1393.2,594.9,1391.8,592.3L1391.8,592.3z M1316.6,451.2c-1.8-4.7-2.4-22.3-1.3-39
	c1.8-29.2,2.7-30.5,21.7-32.3c39.5-3.9,67.2,48.6,37,70.2C1357,462.1,1321,462.8,1316.6,451.2L1316.6,451.2z M1498.6,593.7
	c-23.9-20.5-33.5-51.1-34-108.9c-0.6-62.4,14.6-104,42.1-115.7c27.9-11.9,61-0.8,75.5,25.3c3.8,6.9,7,8.7,7.1,4.2
	c0.1-4.6-7.9-16.5-17.7-26.5c-13.7-14-23.5-18.2-42-18.2c-53,0-77.3,45.5-73.7,138.2c2.5,63.9,15.6,102.2,38.2,111.5
	C1516.4,612.6,1517.6,609.9,1498.6,593.7L1498.6,593.7z M1560.8,581.7c21.4-21.8,17.5-72-5.7-72c-4.6,0-8.4-4.5-8.4-10
	c0-6.6,3.3-8.7,9.7-6.2c5.3,2.1,16.2,3.8,24.2,3.8c13.1,0,14.7,3.1,16.7,32.7l2.2,32.7l1.1-39l1.1-39h-33.5
	c-31.6,0-33.7,0.9-33.7,15.2c0,11.9,3.6,15.6,16.8,17.2c14.8,1.7,16.6,4.3,14.7,20.7c-3.2,27.6-11.9,40.6-27.1,40.4
	c-22.7-0.2-40.8-19.6-46.6-49.8c-3.7-19.1-5.6-22.6-6-11.2C1484.1,568.4,1532.7,610.4,1560.8,581.7L1560.8,581.7z M1594.5,575
	c-1.9-1.9-5.3,1.5-7.6,7.7c-3.3,8.9-2.6,9.6,3.4,3.5C1594.5,582,1596.4,576.9,1594.5,575L1594.5,575z M1761,443.8
	c0-45.6,0.3-46.4,15.7-46.4c8.9,0,14-2.7,11.9-6.2c-2.1-3.4-10.5-6.2-18.7-6.2c-14.6,0-14.9,1.2-14.9,49.9c0,36-2.1,49.8-7.7,49.5
	c-4.2-0.2-20.7-2.6-36.7-5.2c-16-2.7-29.1-2.7-29.1,0s13.1,6.7,29.1,8.9c16,2.2,31.8,4.8,35.2,5.8
	C1758.4,497.4,1761,488.9,1761,443.8L1761,443.8z M1494.5,432.9c2.2-13.1,9.3-29.2,15.8-35.9c6.5-6.7,9.2-12.1,5.9-12.1
	c-10.8,0-25.7,30.2-28.3,57.5C1485,473.2,1488.8,467.8,1494.5,432.9L1494.5,432.9z M1571.2,425.8c0-8.4-14.9-34.3-21.2-36.8
	c-4.8-1.9-4.1,4.2,2.4,18.2C1560.6,425,1571.2,435.5,1571.2,425.8L1571.2,425.8z M1595.7,416.3c0-3.3-4.1-4.4-9.2-2.4
	s-9.2,4.7-9.2,6s4.1,2.5,9.2,2.5S1595.7,419.6,1595.7,416.3L1595.7,416.3z M337.6,398.6c-1.9-1.9-6.8,0-11,4.3
	c-6,6.2-5.3,6.9,3.4,3.5C336.1,404,339.5,400.5,337.6,398.6L337.6,398.6z"/>
<path class="st4" d="M1250.2,2674.6c-23.1-3.2-38.7-10.8-71.6-34.9c-113-82.5-206.4-158.9-290-237.5
	c-32.1-30.1-102.6-102.5-127.3-130.8c-101.2-115.6-185.1-234-287.9-406.2c-22.7-38-50.3-94.7-88-180.6
	c-122.7-279.3-186.7-561.1-205.6-904.7c-3.6-66.9-4.9-118.5-4.6-194.3c0.3-62.7,0.6-70.2,3.6-86.7c5.7-31.3,16.6-61,29.9-80.9
	c16.5-24.7,61.1-60.3,96.8-77.3c50.5-24,173.4-61.1,284.2-85.8c30.1-6.7,89.4-18.9,109.6-22.4c5.9-1,18.3-3.3,27.6-4.9
	c9.2-1.7,18.4-3.2,27.6-4.5c5.9-0.8,15.6-2.5,21.5-3.7s16.9-3.1,24.5-4.1s23.4-3.1,35.2-4.8c9.4-1.3,18.9-2.6,28.3-3.8
	c37-4.4,49-5.8,73.6-8.5c124.7-13.6,290.4-20,409.9-15.9c52.5,1.8,171.6,8.7,181,10.4c2.6,0.5,14.3,1.4,26,2.1s30.9,2.4,42.7,3.8
	c11.8,1.4,30.8,3.7,42.1,5c53.4,6.1,99.7,12.1,119.5,15.6c7.2,1.2,26.1,4.4,42.1,7c168.6,27.1,308.3,66.5,412.2,116.5
	c44.9,21.6,62.9,33.7,84.7,57.3c25.5,27.5,40.6,56.4,48.6,92.9c6.8,30.9,3.7,223.2-5.4,345.4c-12.5,166.7-34,307.1-69.7,453.8
	c-38.5,158.5-90.1,303.8-165.2,464.7c-25.4,54.4-32.2,67.8-53.3,103.7c-11.3,19.3-20.9,35.8-21.3,36.7c-0.4,0.9-2.8,4.7-5.4,8.6
	s-5.4,8.4-6.4,10.1s-4.8,8-8.4,14s-6.9,11.6-7.2,12.5c-0.3,0.9-1,1.9-1.6,2.3c-0.5,0.4-4,5.7-7.7,11.7c-4.1,6.6-8.3,13.2-12.6,19.7
	c-3.2,4.9-5.9,9.5-5.9,10.4s-0.5,1.8-1.2,2.1c-1.6,0.7-9.6,13.4-9.6,15.1c0,0.8-1,1.8-2.3,2.3s-2.3,1.6-2.3,2.5s-3.8,7.2-8.4,14
	s-8.4,13.1-8.4,13.9s-1,1.9-2.3,2.4s-2.3,2-2.3,3.3s-0.6,2.4-1.3,2.4c-0.7,0-2.3,1.9-3.4,4.3c-1.2,2.4-2.7,5-3.3,5.8
	c-5.2,6.9-11.4,15.7-22.6,31.9c-11,15.9-22.6,32-38.2,53.1c-137.9,186.3-282.2,326.3-508.8,493.5c-33.1,24.4-48.6,33.1-67.9,38.1
	C1280.8,2674.7,1261.7,2676.2,1250.2,2674.6L1250.2,2674.6z M1289.4,2660.4c19.1-4.9,34.9-13.7,65.2-36
	c289.4-213.6,451.1-387.3,635.4-682.5c49.5-79.4,73.6-121.4,93.3-163.2c53.6-113.8,92.3-208.5,124-304.2
	c77.1-232.6,118.8-478.5,129.3-763.4c2.5-66.9,2-196.4-0.7-212.5c-7.5-43.9-34-85.6-72.9-115c-14.2-10.7-64.4-36.5-96.5-49.6
	c-95.1-38.9-203.9-68.1-346.2-92.9c-83.6-14.6-192.8-28-298-36.7c-11-0.9-23.7-2-28.4-2.4c-14.3-1.3-81.6-5.3-120.3-7.1
	c-73.8-3.5-207.5-1.7-301.1,4.1c-244.9,15-513.7,64.1-698,127.5c-50.7,17.4-68.8,25.6-95,42.8c-42.5,28.1-61.9,49.4-75.9,83.6
	c-16.4,39.9-19.3,73.6-16.8,194.3c3.1,153.1,12.1,272.4,29.9,397.7c35.3,248.7,97.2,458.6,203.1,688.5c41.2,89.4,53,111,118.5,216
	c16.2,26,60.2,92.5,78.4,118.5c123.4,176.3,242.8,303.7,420.7,448.7c46.2,37.7,156.1,121.1,174.7,132.6c6.7,4.2,24.5,11.1,32.8,12.8
	C1256.7,2664.4,1276.8,2663.7,1289.4,2660.4z M1248.2,2597.5c-9.4-2.7-30.7-17.5-74.2-51.8c-267.5-210.3-418.5-375-569.2-620.5
	c-20.2-32.9-47.1-78.9-65.2-111.5c-18.1-32.6-75.7-154.7-104.5-221.4C333,1355.5,276.9,1109.8,259.6,824.2c-6-100.4-7-238-1.8-266.7
	c5.7-31.5,16-59.1,30.1-80.5c15.3-23.3,43.7-46.5,70.6-57.7c55.4-23.1,180.7-59.2,287.9-83c186.6-41.3,360.7-62.6,556.2-68.2
	c53.8-1.5,147.2-1,166.3,0.9c3.4,0.3,16.5,1,29.1,1.5c121,4.9,283.4,22.3,399.9,43c143.8,25.5,253.3,58,347.1,102.7
	c14.7,7,32,15.2,38.3,18.2c51.8,24.5,75.5,62.2,83.4,132.8c3.8,34.7-5.3,206.7-17.5,327.7c-34.5,343.2-103.9,593.8-234.5,847.3
	c-52.7,102.4-137,242.2-200.7,333.2c-109.3,155.9-215.1,264.9-428.1,440.8c-4.3,3.6-22.3,18.5-40,33.2s-36.8,29.9-42.5,33.8
	C1283.5,2597.1,1264.1,2602,1248.2,2597.5L1248.2,2597.5z M851.1,2040c18.8-8.7,25-22,27.6-58.7c1.7-24.4,6.4-33.7,18.5-36.3
	l6.1-1.3l-0.8-14.7c-1.2-22-0.9-54.7,0.4-59.5c0.6-2.3,8.3-13.2,17-24.2c20.6-26,32.9-44,36.3-53.3c1.5-4.1,4.3-17.6,6.1-30
	c3.7-25.3,2.1-21.6,29.8-67.5c8.2-13.6,20.5-36.3,27.4-50.5c7.4-15.4,14.8-28.2,18.2-32c3-3.3,6-6.6,8.9-9.9c1.7-2,3.8-3.6,4.6-3.6
	c3.1,0,12.3,9.8,15.7,16.8s3.6,8.8,3.6,43.7c0,36.4,0,36.4,3.6,39.4c2,1.6,5.2,3,7.1,3c3.5,0,3.5-0.1-0.8-4.7
	c-6.3-6.8-7.7-16.2-6.6-42.6c0.9-20.8,0.7-23.5-2.4-32.9c-1.9-5.6-3.2-12.5-2.9-15.3c0.4-4.8,0.8-5.1,7.4-5.6
	c7.8-0.6,11.3-3.2,15.5-11.5c2.9-5.8,3.7-10.6,3.2-19.5c-0.2-4.3-1.4-5.6-8.2-9.4c-10.5-5.8-13.4-10.2-15.3-23.2
	c-2.2-15-0.4-61.4,2.8-72.1c2.8-9.4,4.1-9.5,15-1.9c10.7,7.5,43.2,21.5,59.3,25.6c19.7,5.1,46.4,5.6,54.9,1.2
	c7.4-3.8,34.8-25.2,46.3-36c5.3-5,13.7-12.1,18.8-15.8c5.1-3.7,11.9-9.1,15.2-12c3.3-2.8,7.6-5.2,9.5-5.2c5.4,0,20,6,25.1,10.4
	c9.2,7.9,4.6,15.9-17.8,30.7c-17.7,11.7-36.6,32.6-45.4,50c-4,8-22.6,64.1-22.6,68.2c0,6.6,5,20.2,10.1,27.4
	c18.4,26,27.3,40.7,29.2,48.1c1.1,4.5,3.1,10.7,4.4,13.8c5,12.1-1,18.8-21.1,23.8c-7.8,1.9-18.1,4-22.8,4.6l-8.7,1.1l2.5,3.8
	c2.1,3.3,2.7,3.5,3.8,1.4c1.1-2,4.5-2.5,18.8-2.5c14.1,0,19.1-0.6,25.6-3.2l8.1-3.2l3.9,4.9c4.3,5.5,29.1,31.4,29.1,30.5
	c0-3.9-11.9-31.3-21.3-49.2c-6.6-12.4-15-29.3-18.8-37.4c-3.9-8.3-12.4-22.2-19.4-31.8c-6.9-9.4-13-18.8-13.7-21
	c-2.1-7.9-1-21.2,2.7-31.9c5.9-17,10.6-15.8,10.7,2.6c0,13.4,1.7,17.4,16.5,38.9c16.9,24.7,18.1,26.9,26.5,48.1
	c7.1,18,15.9,34.5,26.3,49.5c5.1,7.4,15,34.3,15,40.8c0,2.6-1.9,6-5.2,9.2l-5.2,5.1l-3.3-4.2c-1.8-2.3-3.8-3.8-4.3-3.2
	c-0.6,0.6-1.3,5.6-1.7,11.1c-0.6,9.9-0.6,10.1,4.9,15c5.2,4.7,5.5,5.5,5.5,14.5c0,11.3,3.3,18.9,10.2,23.6c2.8,1.9,12,4.7,21.9,6.7
	l17,3.5l6-4.9c10.6-8.5,22.9-23.6,24.6-30c2-7.5,0.7-13.9-3.4-17.8c-2.1-2-3.8-4.4-5.2-6.9c-3.1-6.1-0.4-7.6,13.3-7.6
	c11.2,0,12-0.3,15.5-4.5c4.1-4.9,14.5-28.1,20.6-45.8c3.1-9.1,3.8-14.1,3.8-26c-0.1-12,0.7-16.9,3.9-26.5c5.4-16,5.5-27.9,0.1-38.3
	c-4.5-8.8-7.8-12.1-19.2-19.4c-12.5-8-11-13,6.2-19.6c9.8-3.8,14.8-8,14.8-12.5c0-3.7-0.1-3.7-13.6-2.8c-13.5,0.9-13.6,0.9-16.5-3.4
	c-8.5-12.5-13.3-14.3-22-8.2c-9.5,6.6-30.7,45.7-30.7,56.5c0,6.3,6.9,12.7,19.6,17.9c6.5,2.7,13.4,6,15.4,7.2
	c6.3,4.1,9.5,11.4,9.5,21.9c0,5.3,0.7,11.6,1.6,13.9s1.6,8.8,1.7,14.3c0.1,8.2-0.8,11.9-4.7,19.8c-6.2,12.8-25.4,38-30.5,40
	c-5.5,2.1-11.2-2.4-13.9-11.1c-2-6.2-1.9-7.3,1.3-14.7c7.2-16.7,8.1-22.8,6.4-46.9c-0.9-12.2-2.4-24.1-3.5-26.4
	c-3.2-7.1-8.2-4.9-18.8,8.1c-10,12.2-16.5,17.4-21.9,17.4c-5.2,0-7.1-5.3-6.2-17.8c0.9-12.6,3.7-21.1,14.6-45.4
	c8.3-18.4,21.3-53.1,25.8-68.5c3.4-11.8,3.8-41.5,0.7-53.8c-1.7-6.6-4-10.5-10.1-17.2c-13.8-14.9-31.9-40.7-41.6-59.3
	c-11.1-21.3-18.6-43.7-14.6-43.7c2.1,0,19.1,22.1,26.1,33.9c8.5,14.4,13,18.1,20.6,17.1c5.6-0.8,5.7-0.6,6.6,4.9
	c3,18.4,11.6,36.6,25.2,52.7c6.3,7.4,32.2,28.6,39.8,32.5c8.8,4.5,23.1,9.2,39.9,13.3c10.3,2.5,18.3,3.1,38,3.2
	c26.2,0,32.1-1.2,38.3-7.5c1.7-1.7,7.1-4.6,12-6.4s10.6-4.2,12.7-5.2c5.4-2.9,9.5-9.2,8.4-13c-0.8-3-2.3-3.3-20.3-4.2
	c-23.2-1.2-43.8-6-59.7-14.2c-7-3.5-14.1-6.7-21.3-9.6c-18-6.9-31.7-18-34.8-28.3c-1.6-5.2,1.5-9.5,7.6-10.7
	c2.9-0.6,5.7-1.6,6.2-2.4s2-1.4,3.4-1.4c6.5-0.1,6.9-2,3.5-16.7c-4.1-17.7-4.1-20.7-0.2-20.7c6.3,0,10.8,3.9,19.4,16.9
	c4.9,7.4,12.9,17.5,17.6,22.4c7.7,8,9.3,9,14.8,9c3.4,0,6.6-0.7,7.1-1.5s-0.5-4.3-2.2-7.7c-1.9-3.8-3.1-9.3-3.1-14
	c0-6.5,0.8-8.7,4.7-13.3c4.4-5.1,5.4-5.5,13.6-5.5c10.4,0,17.1,3.8,22.9,12.9c3.4,5.3,4.3,5.8,10.6,5.8c5,0,8.6-1.2,12.8-4.1
	c5-3.5,6.4-3.9,9.6-2.4c2.1,1,5.4,4.4,7.5,7.6c2.4,3.7,5.2,7.2,8.4,10.4c4.3,4.2,5.3,4.4,12.9,3.4c4.6-0.6,10-0.4,12.3,0.5
	c6.9,2.7,7.8,6.4,4.8,21.9c-2.5,13-2.5,14.3,0,20.8c1.4,3.8,4.7,9.2,7.2,12.1c5.2,5.9,5.3,6.2,7.6,25.8c2.2,18.7,0.4,31.9-7.4,52.4
	c-3.3,8.8-8.5,22.7-11.6,30.9c-3.1,8.2-7.5,17.2-9.9,20.2l-4.4,5.3l6.3,4.8c8.1,6.3,14.2,16.8,22.9,39.5
	c12.4,32.3,13.5,36.3,13.7,48.7c0.1,9.9-0.8,14.8-6.3,31.5c-8.7,26.5-8.9,36.7-1.1,47.1c2.9,3.9,5.4,8.3,5.4,9.8
	c0,1.4-3.8,9-8.4,16.8c-19.1,32.2-19.1,46.8,0.3,64.8c10.1,9.4,19.1,14.4,24.7,13.7c3.8-0.4,4.1-1.1,4.6-9.1
	c0.5-9.6,4.8-16.1,10.2-15.3c2.7,0.4,3.3,2,4.2,11.1c1.3,13.2,2,15.1,5.5,15.1c6.3,0,27.7-16.9,32-25.4l2.3-4.6l-6.6,4.7
	c-3.6,2.6-8.3,6.5-10.3,8.7c-4.4,4.9-9,5.2-14.4,0.9c-5.4-4.3-6.3-10.4-3.3-22c3.5-13.6,2.4-24.2-3-28.9c-3.5-3.1-5.8-3.6-15.9-3.6
	c-6.5,0-12.8-0.7-14-1.5c-4.1-2.6,0.6-9,10.5-14c14.4-7.4,15.1-12.6,2.8-19c-8.2-4.2-10.2-7-10.3-14c-0.1-8,5.5-15.6,13.7-18.7
	c9.8-3.7,13.9-9.2,13.9-18.8c0-10.7-3.6-17.7-12.9-24.8c-15.1-11.5-14.7-10.9-14.7-24.8c0-10.1,0.6-13.1,2.8-15.4
	c2.1-2.1,3.1-6.1,3.7-15.6c0.6-8.2,2-15.1,4.1-19.4c5.1-10.7,4.6-13.4-5.4-28.4c-6.3-9.6-8.3-19.3-8.3-41.4c0-9.3-0.6-18.5-1.4-20.6
	c-2-5.3-0.2-23,2.4-24c4.5-1.7,11.3,3.1,16.2,11.4c5.4,9.2,6.5,9.9,7.7,5.3c1.3-5,8.7-3.9,26.4,3.9c40,17.7,84.8,21.3,109,8.8
	c13.8-7.2,38.6-29.1,45-39.7c5.9-9.9,5.6-10.1-19.2-9.2c-25.1,0.9-40.1-1-56.7-7c-14.1-5.1-29.6-15.7-38.4-26.1
	c-3.9-4.6-14.2-14.4-22.9-21.8c-8.7-7.4-16.2-14.4-16.7-15.7c-0.6-1.3-1.9-2.2-3.3-2.3c-4.7,0-25.4-9.7-36.8-17.3
	c-6.3-4.2-14.3-9.1-17.7-10.9c-11-5.7-53-14.4-79.1-16.3l-14.1-1.1l-1-5.7c-1.9-10.4-5-17.3-14.3-32c-7.7-12.1-9.3-15.7-9.3-21.4
	c0-8.2-3.4-16.1-14.4-34c-5.5-8.9-9.4-17.6-11.6-25.8c-1.8-6.8-6-18.5-9.3-26c-7.4-17.1-10-26.5-12.1-44.2
	c-2.4-19.6-5.1-30.7-12-49.3c-3.3-8.9-7.6-23.9-9.4-33.3c-4.8-24.5-6.6-29-19.1-47.6c-6.2-9.2-11.7-19-12.3-21.9
	c-0.6-2.9-3-7.4-5.3-10.1c-2.3-2.7-6.8-9.3-10.1-14.8c-3.3-5.5-7.5-12.4-9.5-15.3c-1.9-2.9-3.5-7.2-3.5-9.6c0-6.6,3.7-8.6,15.2-8.1
	c24.3,1,43,19.5,67.6,66.7c19.5,37.5,35.5,56.8,55.4,67c7.8,4,12.9,5.5,18.1,5.5c9.2,0,12.5-3.4,13.5-13.9c0.9-9-0.9-17.3-9.2-43.8
	c-4.8-15.3-6.3-23-7.1-35.4c-1.2-19.3-2-20.5-19.4-26.6c-14.9-5.3-15.8-8-3.6-11.2c12.1-3.1,25.1,0.2,39.2,10.1
	c9.3,6.5,11.1,7.2,17,6.5c5.3-0.6,8.2-2.3,15.4-9.1c8.1-7.7,8.8-8.8,8.2-14c-0.7-6.3,3.4-15.9,8.9-20.9c4.5-4.1,7.1-10.6,12.4-31
	c7-27.2,5.2-50-5.6-68.8c-8.6-15-49.6-48.1-73.3-59.3c-21.7-10.2-22.8-10.3-140.4-11.7c-131.2-1.6-189.6-4.5-206.5-10.3
	c-24.5-8.4-42.1-23.7-39.5-34.2c1.5-6,9.7-14.3,17-17.1c13.7-5.3,32.9-1.5,70.4,13.8c34.4,14,55.2,17.6,94.9,16.3
	c35.3-1.2,63.2-5.5,70.3-10.8c2.6-2,2.6-2.1,0-4.6c-1.5-1.4-12.8-5.1-25-8.3c-26.8-7-41.4-12.6-41.4-15.9c0-2.1,2.7-2.3,20.3-1.5
	c20.5,0.9,43.4,4.8,61.2,10.5c11,3.5,35.8,4.3,43.9,1.4c5.4-1.9,6.3-5.9,2.4-9.9c-9.8-10-63.7-29.6-105.1-38.2
	c-26.1-5.4-46.3-6.8-89.8-5.9c-53.6,1.1-75.7,5-101.3,18.2c-20.9,10.7-45.4,33.4-53.1,49.1c-9,18.4-2.9,30.7,23,46.5
	c18,10.9,32,15.4,62.1,19.8c54.4,7.9,92.8,9.8,198.4,9.7c51.6-0.1,92.7,0.6,98.1,1.4c15.9,2.7,34.5,9.4,44.3,16.1
	c11.4,7.8,25.4,24.6,32.8,39.1c4.8,9.6,5.5,12.4,5.6,22.6c0.1,10.1-0.5,12.8-4.3,19.8c-5.9,10.9-18.1,24.5-24.1,27
	c-7.2,3-24.5-0.1-45-7.9c-14.2-5.5-19.4-6.7-33.7-7.7c-18.7-1.4-20.8-2-48.5-14.5c-28.3-12.8-71.5-27-93.1-30.7
	c-10.3-1.8-20.3,0.2-34.7,7c-14.5,6.8-22.8,13.5-51.7,41.6c-27.2,26.5-39.5,36.3-54.7,43.7c-27.6,13.4-106.3,58.4-113.7,65
	c-10.8,9.6-28.9,31.9-36.5,45c-14,24-18.3,42.8-20,87c-1.1,30.1-1.3,31.6-6.1,44c-5.3,13.8-19.5,38.7-38.7,67.8
	c-18,27.4-31,49.1-39.6,66.6c-17,34.3-20,47.5-21.4,96.1l-1.1,35.9l-5.6,16.5c-3.1,9-9.4,25.9-14.2,37.4
	c-17.6,42.8-17.2,40.6-18.9,119.2l-1.2,57.7l-6.4,12.9c-3.5,7.1-9.4,17.4-13.1,22.9c-8.5,12.6-10.9,22.8-14,59.3
	c-1,11.5-2,23-3.1,34.6c-0.6,5.7-3,9-20,28.1c-32.5,36.3-44.9,55.2-44.9,68.2c0,6.5-0.5,7.3-6.5,11.6c-11.9,8.3-28.6,27.8-34.2,39.8
	c-6.6,14.2-8.2,27.4-4.2,35.3c4.5,8.8,7.5,7.4,20.2-9.9l11.3-15.3l3.7,3.5c2,1.9,3.7,4.4,3.7,5.5s-2.8,7.8-6.2,14.9
	c-3.4,7.2-6,14.7-5.7,16.9c0.6,5.2,5.9,6,38,5.7C840.8,2043.6,844.2,2043.2,851.1,2040L851.1,2040z M836.8,1955.5
	c-5.3-2.1-13.2-20.2-11.9-27.2c1.1-6,2.6-6.5,10.6-3.1c8.3,3.5,12.3,2.9,20.1-3.1c7.5-5.9,9.9-6.5,12.8-3.6
	c2.7,2.8,2.2,7.6-1.4,14.6c-1.8,3.5-3.7,7-5.5,10.5C857.2,1951.8,843.8,1958.2,836.8,1955.5L836.8,1955.5z M886.2,1808.3
	c-3.4-3.5-3.8-5.1-3.8-17c0-7.3-0.3-14.1-0.7-15.3c-0.4-1.2-0.1-3.1,0.7-4.4c1.2-1.9,2.3-1.5,6.2,2.7c3.8,4.1,5.9,5.1,11,5.1
	c4.4,0,7.4-1,9.8-3.3c4.7-4.5,8.3-2.9,8.1,3.7c-0.2,10.5-6.9,22.4-15.7,28.3C894.1,1813.1,891,1813.2,886.2,1808.3z M1373.9,1794.3
	c-4.1-1.1-8.1-2.7-8.9-3.6c-2.7-2.7-5.2-21.7-3.5-26.5c3.2-9.4,14.8-5,17.7,6.6c1.7,6.8,1.9,7,7.6,7c6.8,0,9.1,2.9,9.1,11.4
	c0,4.8-0.5,5.5-4.8,6.3C1384.7,1796.8,1382.6,1796.7,1373.9,1794.3L1373.9,1794.3z M918.2,1664.8c-6.4-2.9-8.7-10.5-7.9-26.8
	c0.7-14.9,6.7-28.9,14.9-34.4l5.1-3.5l3.8,4.6c2.3,2.8,5.3,4.6,7.6,4.6c5.6,0,17.2-6.7,25.9-14.9c4.2-4,11.6-10.8,16.4-15
	c10.8-9.6,13.5-16.1,13.5-32c-0.1-20.7-1.5-25-11.3-33.9s-13.6-16.8-13.6-28.2c0-13.4,6.4-20.9,17.9-20.9c6.3,0,10.7,4.3,18.7,18.2
	c13.2,22.9,32.3,31.7,45,20.8c6-5.3,8-5.6,11.4-2.2c2,2,2.4,6.6,2.4,24.9c0,12.3,0.6,24.1,1.4,26.2c1,2.6,4.2,4.9,10,7.3
	c10.5,4.3,13.8,9.6,12.7,19.9c-0.9,8.4-5.6,13.9-13.6,16.1c-8.6,2.4-14.9,0.1-41.1-14.9c-7.9-4.5-16.8-5.1-22.3-1.4
	c-2.1,1.4-7.3,7.3-11.6,13.2c-6.1,8.4-11.2,13-23,21.1c-16.7,11.4-21.5,16.2-31.2,31.7c-7,11.1-15.3,20.4-18.2,20.4
	c-1,0-3.2,0.4-4.9,0.8C924.4,1666.7,920.9,1666,918.2,1664.8L918.2,1664.8z M1164.4,1334.8c-5.5-2.6-13.4-5.4-17.6-6.4
	c-9.8-2.1-15.5-5.1-18.4-9.7c-2.1-3.3-2.1-4.6,0.1-13.2c2.8-11,1.3-19.6-4-24.6c-2.7-2.5-5.4-2.9-16.5-2.7
	c-7.6,0.1-16.1,1.3-19.9,2.7c-3.7,1.4-6.9,2.5-7.1,2.5c-0.7,0,1.1-14.8,2.5-20.6c1-4.1,3-6.7,6.8-9.1c9.2-5.7,10.4-9.1,9.4-24.7
	c-1.2-18.8,1.1-28.1,7.1-28.2c0.7,0,3.9,2.6,7,5.8c4,4.1,6.8,9.2,9.2,16.8c6,18.6,8.5,22.6,14.2,22.6c9.2,0.1,9.5,1,9.5,22.9
	c0,24,1.5,27.7,17.4,43.8C1188.7,1337.4,1188.8,1346.3,1164.4,1334.8L1164.4,1334.8z M1413.6,1209.5c-0.6-2.3-0.6-10.3,0-17.9
	l1-13.8l-4.4-2.9c-3.9-2.6-7.8-2.9-35.8-3c-27.5-0.1-32.3-0.4-37.6-3l-6.1-2.9l4.6-1.1c2.5-0.6,11.2-1.2,19.2-1.3
	c16.8-0.2,23.4-1.7,30.5-7.1c19.9-15,15.9-33.5-13.7-63.3c-18.5-18.6-21.7-23.7-21.1-33.1l0.5-6.5l7.7,7.9
	c4.2,4.3,10.1,12.1,13,17.2c8.4,14.6,36.3,53.4,46.8,65.1c15.3,17,21,31.9,18.5,48.1c-1.3,8.6-10.3,19.6-17.2,20.9
	C1415.1,1213.5,1414.5,1213.1,1413.6,1209.5L1413.6,1209.5z M1380.2,962.6c-2.6-3-5.1-6.2-7.4-9.5c-1.9-2.9-6.8-9-10.8-13.7
	c-8.7-10.2-9.9-13.8-6-17.8c4.1-4.2,21.4-4.2,29-0.1c7.7,4.2,13.6,16.6,14.8,31.2l0.9,11.5l-4.6-1c-3.4-0.8-4.9-0.4-5.6,1.4
	C1389.3,968.2,1384.5,967.3,1380.2,962.6L1380.2,962.6z M1335.3,742.8c-1.7-0.4-6.3-2.2-10.3-3.9c-8.7-3.8-10.9-8.3-5.8-12.4
	c4.4-3.7,7.9-3.6,15.7,0.5c3.5,1.8,10.5,3.6,15.6,4.1c6.5,0.5,11,2,15.1,4.7c6.3,4.3,7,5.8,3.3,7.2
	C1366,744,1339.8,743.9,1335.3,742.8L1335.3,742.8z M1019.8,1961.4c10.5-5.5,20.3-16.9,28.9-34c4.3-8.4,10.2-17.3,14.7-21.8
	c9-9.2,10.9-12.7,15.1-28.5c4-14.8,10.7-28.7,23-47.4c13.9-21.2,20.1-27.2,38.4-37.2c28.9-15.8,30.6-17.9,32.4-39.8
	c0.7-8.6,2.3-17.6,3.6-20c2.9-5.6,17.3-19,29-26.8l9-6h-42.5c-32.9,0-44.8,0.5-53,2.4c-5.8,1.3-13.8,2.2-17.9,1.9l-7.4-0.5
	l-9.5,24.2c-5.2,13.3-9.6,25.5-9.6,27.2c-0.1,5.2-4.9,23.2-7.8,29c-4,7.9-30,35.5-36.9,39.1c-3.2,1.7-7.9,3.1-10.3,3.1
	c-5.4,0-11.5,4.6-13.9,10.5c-1,2.4-6.7,7.8-12.7,12.1c-13.8,9.9-30.7,25.8-35,32.9c-5.1,8.4-7.6,20.3-7.6,36.7
	c0,16.6,3.2,31.1,7,31.1c1.3,0,7.2-3.5,13.2-7.8c17.5-12.5,21.1-9.9,10.4,7.8c-3.4,5.6-6.1,10.9-6.1,11.9c0,3,10.9,5.1,24.5,4.6
	C1009.4,1965.6,1013.5,1964.7,1019.8,1961.4L1019.8,1961.4z M1034.8,1876.4c-9.8-7.3-19-16.7-19-19.5c0-1.6,3.6-4.4,9.4-7.4l9.3-4.8
	l6.2,4.2c8.4,5.7,15.4,6.4,25.4,2.5c11.2-4.3,12.4-3.6,10.7,6.5c-0.7,4.5-2.2,9.8-3.2,11.9c-2.4,4.9-12.3,9.3-23.6,10.4
	C1041.8,1881,1040.6,1880.7,1034.8,1876.4L1034.8,1876.4z M1195.8,1879.2c3.4-0.9,1.8-1.2-6.6-1.4c-9.8-0.2-11.2-0.5-10.7-2.9
	c0.3-1.5,4.1-4.5,8.4-6.6c4.4-2.1,8.5-4.5,9.2-5.2s1.2-6.8,1.2-13.6c0-14.7,2.1-17.8,13.7-20c8-1.5,11.6-4.7,11.6-10.5
	c0-2.7-1.6-4.3-6.8-6.6c-8.4-3.8-11.4-8.4-7.4-11.9c1.5-1.3,8.4-7.4,15.4-13.5c11.2-9.8,12.9-12,14.7-19.1c4-15.3,7.2-34.8,6.1-37.7
	c-1.5-4.2-6.9-10-9.3-10c-1.1,0-3.4-1.4-5.1-3.1c-2.1-2.1-3.1-2.4-3.1-1c0,1.1-4.6,9.7-10.2,19.1s-13,22.9-16.3,30
	c-5.5,11.6-7.2,13.7-15.5,19.4c-23.3,16.1-35.8,36.4-39.2,64c-1.6,12.9-0.6,21.4,2.6,21.4c1.2,0,5.9-3.2,10.3-7
	c4.4-3.9,9.3-7,10.7-7c2.4,0,2.6,1.2,1.6,10.7l-1.1,10.7l5.1,1.7C1181.3,1880.7,1189.3,1880.8,1195.8,1879.2L1195.8,1879.2z
	 M1674.3,1341.7c2.9-2.2,8.3-8.3,12-13.5l6.8-9.4l-3.9-4.9c-15.3-19.2-24.9-33.6-32.2-48.5c-4.7-9.5-8.5-18.3-8.4-19.5
	c0.1-3.8,4.8-8.7,14-14.6c20.8-13.4,23.1-19,24-59.4c0.4-19,0-32.9-1.2-39c-2.5-13.1-9.6-27.2-19.1-37.8l-8-8.9l-6,1.8
	c-7.3,2.3-18.5,13-22.3,21.4c-4,8.9-3.5,19.4,1.8,40.6c3.2,12.7,4.7,22.4,4.7,30.4c0,14.1-0.6,17.7-7.1,45.1
	c-6.6,27.7-8.6,42.9-8.6,65.9c0,20.5,2.1,30.5,7.9,39.2C1639,1346,1661.8,1351.4,1674.3,1341.7L1674.3,1341.7z M381.5,751
	c14.1-7.6,51.5-23.7,82.3-35.3l26.4-10v-21.4c0-12.1-0.6-21.4-1.4-21.4c-1.9,0-46.9,18.6-62,25.6c-6.6,3.1-12.7,5.6-13.4,5.6
	c-0.8,0-1.3-48.1-1.3-109.9c0-60.5-0.5-109.9-1.1-110c-0.6,0-11.2,4.7-23.6,10.5L365,495.2l-0.7,129.4c-0.4,71.2-0.4,130-0.1,130.6
	C365.4,757.7,372,756.1,381.5,751L381.5,751z M2159.2,695.9c-0.3-30.7-0.9-89.7-1.5-131.1l-1.1-75.3l-19.9-8.5
	c-11-4.7-21.8-8.5-24.1-8.5h-4.2v260.1l6.5,1.7c3.6,1,14.4,5.2,24.1,9.4s18.3,7.7,19.1,7.8C2159.1,751.6,2159.5,732.4,2159.2,695.9
	L2159.2,695.9z M2074.4,530.1l0.2-72.7l-17.2-5.8c-9.5-3.2-18.4-6.5-19.9-7.3s-4.7-1.4-7.3-1.4h-4.6l-0.2,65.9
	c-0.1,36.2-0.1,66.8,0.1,67.8c1.1,8.7-6.5-8.4-33.6-75.4c-23.5-58-32.1-77.7-34.4-78.7c-5.8-2.5-34.3-9.2-39-9.2h-4.7v262h3.9
	c3.2,0,33.2,7,44,10.3c2.6,0.8,2.6-3.3,1.7-79.2c-0.7-55.3-0.5-79.5,0.6-78.5c0.9,0.9,17.8,41.5,37.6,90.4l36,88.8l17.4,5.6
	l17.4,5.5l0.9-57.7C2073.7,628.7,2074.3,570.1,2074.4,530.1L2074.4,530.1z M511.1,699.5c2.5-1.3,11.4-4.4,19.7-7s15.2-4.9,15.3-5.1
	s3.6-17,7.6-37.4l7.4-37l7-2.1c24.2-7.3,40.3-10.8,41.4-9c0.6,1,4.1,15.3,7.8,31.9c3.7,16.5,7.1,30.5,7.7,31.2
	c0.5,0.6,10.9-1.2,23.1-4.1c18.2-4.3,22-5.7,21.7-7.9c-0.3-1.4-6-21.7-12.7-45c-6.8-23.3-22.3-77.2-34.5-119.6s-22.5-77.5-22.9-77.8
	c-0.3-0.4-7.7,1.2-16.4,3.5c-8.6,2.3-17.4,4.3-19.5,4.5c-3.7,0.4-4.1,2.1-22.5,85.4c-10.3,46.7-24.2,109.8-30.9,140.1
	c-12.1,54.6-12.2,55.1-8.9,56.4C506,702.1,506,702.1,511.1,699.5L511.1,699.5z M568.4,578.9c0-2.5,15.3-78.9,16.3-81.4
	c1.1-2.8,3,4.3,12,44.1l6.5,29.2l-6.3,1.6c-6.6,1.7-21.3,5.8-25.8,7.1C569.6,580,568.3,579.7,568.4,578.9L568.4,578.9z
	 M1880.5,533.8l0.9-129.7l-8.8-1.8c-8.3-1.7-16.6-3.5-24.9-5.4c-8.8-2-17.3-3.5-18.8-3.5c-2.5,0.1-2.7,5.7-3.1,93.8
	c-0.4,90.8,0.1,166.5,1.2,167.5c1.2,1.2,50.6,10.6,51.5,9.7C1879.2,664,1880,605.2,1880.5,533.8L1880.5,533.8z M714.8,646.4
	c10.8-2.1,19.8-3.9,20.1-3.9c0.2,0,0.6-29.6,0.9-65.9c0.3-49.1,0.8-64.9,2.1-62c0.9,2.1,11.2,30,22.8,62
	c11.7,31.9,21.9,58.1,22.8,58.1c5-0.1,4.5,1.3,36.4-109.1c4.3-15,8.5-27.9,9.2-28.8c0.7-0.8,1.3,28.1,1.3,64.3s0.5,65.8,1.1,65.8
	c1.8,0,35.9-4.5,41.1-5.4l4.7-0.8l-0.6-125.9c-0.3-69.3-0.9-128.3-1.3-131.1c-0.8-4.9-1.1-5.2-5.7-4.4c-13.1,2.3-35.1,4.4-38.6,3.8
	c-2.1-0.4-4.2-0.3-4.5,0.3s-10,31.5-21.5,68.8s-21.6,70.1-22.5,72.9s-1.9,4.9-2.3,4.5c-0.4-0.4-10.3-29-22.1-63.6
	s-21.7-63.7-22-64.7c-0.4-1.2-6.2-0.6-18.7,1.9c-10,2-20.3,3.6-22.9,3.7l-4.7,0.1l-1,49.4c-0.6,27.2-1,86.1-1,130.9
	c0,87.1-0.4,81.9,6.4,83.1C694.8,650.3,704,648.6,714.8,646.4L714.8,646.4L714.8,646.4z M1792.3,517.3l0.4-130.4l-3.5-0.7
	c-14.9-3.3-37.6-7.1-41.8-7.1h-5.1l0.9,50.7c0.8,49.1,0.8,50.7-2.1,50.7c-1.6,0-14.3-1.7-28.2-3.9c-13.9-2.1-25.8-3.9-26.4-3.9
	s-1.2-23.2-1.2-51.5v-51.4l-3.4-0.7c-6.8-1.4-38.8-5.6-42.9-5.6h-4.2v261.3l24.1,3.2c13.3,1.8,24.5,3,25.1,2.7s0.6-27.3,0.2-60.1
	l-0.8-59.5l3.7,0.9c2,0.5,14.9,2.4,28.6,4.4l24.9,3.5V641l5,0.1c2.7,0.1,13.6,1.7,24.1,3.7s19.8,3.5,20.7,3.3
	C1791.4,647.8,1792,602.7,1792.3,517.3L1792.3,517.3L1792.3,517.3z M1555.6,619.9c23.3-6.2,38.4-21,45.7-44.6
	c2.5-8.3,2.9-14.7,2.9-53v-43.5h-70.5v7.6c0,4.2-0.4,12.9-1,19.5l-1,11.9h29.9l-0.5,20.8c-0.5,19.4-0.8,21.2-4.6,27
	c-11.3,17.4-34.7,14.3-48.4-6.4c-9.9-15-10.3-18.5-10.3-84.4c0-58,0.1-59.4,3.4-65.6c4.1-7.8,12.8-15.8,18.5-17.1
	c2.3-0.5,5-1.2,6-1.5c3.6-1.1,13,2.7,18.3,7.4c6.6,5.9,11.1,14.5,12.4,23.8l0.9,7h22.8c26,0,24.2,1.4,20.6-15.8
	c-7.4-35.5-36-59.1-71.8-59.1c-35.4,0-64.3,22.4-74.9,57.9c-1.5,5.2-2,21.8-2,68.4c0,68,0.9,76.2,10,94.7
	c5.8,11.8,18.4,26,29.5,33.4c8.3,5.4,22.7,11.2,31.7,12.8C1531.9,622.7,1547.5,622.1,1555.6,619.9L1555.6,619.9z M975.9,611.4
	c52.5-4.5,55.9-5.5,69.2-19.9c24.5-26.6,27.9-81.8,6.4-103.9c-4.8-4.9-14.9-10.2-19.7-10.3c-2,0-0.7-1.2,3.6-3.4
	c23.1-11.7,30-60.3,13.5-95.7c-6.4-13.8-15.2-23.1-26.8-28.5l-8.6-4l-25.3,1.9c-25.9,2-75.6,6.6-76.2,7.1
	c-0.2,0.2-0.8,59.1-1.4,131.1l-1.1,130.8l14.4-0.9C931.9,615,955.3,613.1,975.9,611.4L975.9,611.4z M955.6,574.6
	c-0.6-0.6-1.2-17.4-1.2-37.3v-36.2l22.6-0.9l22.6-0.9l5.1,4.9c2.8,2.7,6.9,8.8,9.2,13.5c3.6,7.4,4.1,10.5,4.1,22.6
	c0,12.6-0.4,14.8-4.3,21.4c-6.5,11.3-10.4,12.7-35.6,13.4C966.4,575.5,956.3,575.2,955.6,574.6L955.6,574.6z M963.3,460.5l-8.8-0.6
	l0.4-33.8l0.4-33.8l20.9-0.4l20.9-0.4l7.1,8c16.6,18.8,14.8,49.3-3.6,58.7C993.5,461.7,988,462,963.3,460.5L963.3,460.5z
	 M1184.8,605.9c32-6.9,54-29.9,57.7-60.4c0.8-6.3,1.2-39.5,1.1-73.8c-0.4-68.8-0.7-71-10.6-90.4c-5.8-11.3-20.5-26.6-31-32.3
	c-10.2-5.5-23.6-9.4-35.6-10.2c-26.8-1.8-56.2,18.3-70.9,48.7c-10.5,21.6-11,27.1-9.8,98.2c1.2,66.9,1.8,72.5,9.5,87
	C1109.2,599.3,1148.4,613.8,1184.8,605.9L1184.8,605.9z M1152,565.5c-8.4-3.1-14.7-8.3-19-15.7l-3.9-6.8l-0.3-65.3l-0.3-65.3
	l4.2-8.8c10.7-22.2,36.1-26.2,54.5-8.6c7,6.7,11,15.2,12.6,26.6c0.7,5.2,1.5,34.1,1.7,64.1c0.5,54.2,0.4,54.6-3,61.9
	C1190.6,563.8,1169.6,571.9,1152,565.5z M1428,604.7c0-1.1-10-27.4-22.2-58.5s-22.2-57.1-22.2-57.9s2.6-1.9,5.7-2.5
	c22.7-4.3,35.6-27,35.7-62.4c0-33.6-13.9-64.2-34.8-76.7c-7.9-4.7-20.3-5.8-79.7-7.5l-37.2-1v261.9l5,0.8c2.7,0.4,13.5,0.9,23.8,1
	l18.8,0.3l-0.2-55.8l-0.2-55.8l12.9-0.4l12.9-0.4l13.7,44.9c7.5,24.7,15.5,50.5,17.7,57.4l4,12.5l16.7,0.4c9.2,0.2,17.8,0.7,19.1,1
	C1422.7,607,1428,606.5,1428,604.7L1428,604.7z M1320.2,454.4c-0.6-0.6-1-17-1-36.5v-35.4l18.9-1.1c20.9-1.2,27,0.2,35.1,8.1
	c13.3,13,12.6,48.8-1.3,61.2l-5.3,4.7h-22.7C1331.4,455.4,1320.8,454.9,1320.2,454.4L1320.2,454.4z"/>
<path class="st5" d="M1223.5,2582.1c-51.2-31.8-178.9-135.6-264.6-215.3c-140.7-130.7-281.8-305.9-378-469.3
	C375.8,1549.2,269.3,1143,256.7,661.7c-3.7-140.5-3.4-145,9.9-173.1c17.7-37.2,33.6-48.1,117.7-81
	c232.3-90.8,477.6-132.8,813.4-139.3c379.2-7.4,692.7,38.4,945,137.9c87.4,34.5,103,45.1,120.8,82.5c13.4,28.2,13.6,32.3,9.9,176.2
	c-20.5,790.4-291.7,1376.6-844.9,1826.8c-67.1,54.6-137.1,104.4-154.5,109.9C1265.3,2604.3,1249.4,2598.2,1223.5,2582.1
	L1223.5,2582.1z M851.7,2043c9.6-4.5,16.6-15.9,21.8-35.5c4.2-15.9,11.9-34,17.2-40.2c5.8-6.8,10.5-27.6,12.1-52.6
	c2.3-36.6,5.3-44.9,26.1-71.7c13.4-17.3,27.7-45.5,33.4-65.8c5.5-19.6,14.2-44,19.5-54.3c39.3-77,64.7-121.6,69.1-121.6
	c13.5,0,24.3,29.6,24.3,66.6c0,29.2,2.4,40.2,9.8,44.5c8.8,5,8.9,7.5,0.9,23.7c-4.9,10-10.9,26.3-13.3,36.4
	c-5.9,25.1-25.6,51.8-46,62.6c-9.4,4.9-29.8,21.6-45.4,37.1c-22.5,22.3-28.4,32.4-28.3,48.6c0.1,27.5,8.9,41.9,19.2,31.4
	c12.3-12.6,17.9-8.9,13.6,8.8c-3.9,16-3.4,16.4,16.4,12.4c25.4-5.2,48.3-20,52.5-34c1.7-5.8,5.6-14.8,8.6-19.9s14.3-28.5,25.2-52
	c13.6-29.2,28.4-49.8,47.1-65.5c15-12.6,31.4-32.6,36.2-44.5c14.5-35.3,56.6-65.4,56.6-40.5c0,14.6-23.7,58.7-41,76.4
	c-21.8,22.2-38.5,51.9-38.6,68.4c0,14.5,8.6,18.8,15.3,7.8c6.7-11,14.3-6.7,11,6.2c-2.7,10.5-0.2,12.5,15.7,12.5
	c31.5,0,61.1-18,65.6-40c2.2-10.6,9.3-28.2,15.8-39.1c7.7-13,10.5-25.3,7.9-35.5c-4.1-16.8,7.1-60,15.6-60
	c6.3,0,28.5,46.5,34.2,71.7c2.3,10.3,9.6,24.8,16.2,32.2c11.2,12.6,16.1,13.3,71.1,10.1c57-3.2,59.7-4.1,74.4-22.6
	c11.1-13.9,16.3-29.6,18.8-56.9c4.4-48.1,25.2-80.9,72.8-115l35.7-25.5l8.8,14c4.8,7.7,15.3,30.1,23.2,49.9
	c13.3,33,13.8,38.4,6.7,66.8c-4.3,17-5.9,36.7-3.7,43.9c2.3,7.3-0.7,26.7-6.8,43.8l-10.9,30.8l14.5,15.7c16.4,17.8,27.8,20,32.9,6.3
	c4.7-12.4,16.2-12,16.2,0.5c0,13.3,12,8.4,25.9-10.5c10.6-14.4,10.7-17.1,1.6-43.3c-5.3-15.3-8.4-32.7-6.9-38.6s0-22.8-3.3-37.4
	c-7.6-33.5-7.2-72.8,1.2-114.1c5.9-29,5.1-35.3-8.7-65.6c-8.4-18.5-14.1-34.7-12.7-36.2c1.4-1.4,13,1.6,25.8,6.7
	c59.4,23.8,105.7,18.4,133.9-15.7l16.7-20.2l-36.2-3.1c-41.1-3.6-43-4.5-86.3-43.2c-30.6-27.3-31.7-29.4-28.4-53.8
	c1.9-14.4-1.1-46-7-73c-9.6-43.9-9.6-50.3-0.7-81.7c5.4-18.7,9.7-42.3,9.7-52.4c0-30.1-16.5-76.7-35.9-101.3
	c-10-12.7-21.2-34.4-24.8-48.2c-3.7-13.8-13.4-35.2-21.7-47.7c-14.2-21.3-14.5-23.8-6.1-44.3c4.9-12,8.9-37.2,8.9-56
	c0-29.8-2.6-37.3-19.9-57.4c-37.5-43.5-55.1-47.5-234.2-52.9c-206.8-6.2-239.3-14.1-207.2-50.3c13.1-14.8,34.6-14.4,79.2,1.4
	c48.8,17.3,108.4,21.6,143.3,10.3c30-9.7,30.5-9.2-21.4-20.2c-8.4-1.8-15.3-6.4-15.3-10.2c0-4.7,9.5-5.6,29.1-3
	c80,10.8,93.4,11.6,93.4,5.6c0-10.1-53.8-30.9-109.9-42.5c-90.2-18.6-177.1-3.2-218.3,38.7c-25.3,25.8-28.2,53.1-7.1,67.1
	c26.5,17.6,70.1,23,225.8,28c142.4,4.5,159.5,6.2,184.2,18.4c30.4,15,43.7,34.6,42.9,63.5c-0.7,24-16.4,49.6-30.6,49.6
	c-23.9,0-103-20.2-159-40.6c-32.9-12-65.3-21.7-72-21.7c-15.2,0-33.1,12-86,57.5c-22.8,19.6-63.4,47.3-90.3,61.5
	c-86.8,46-113.6,82.6-125.7,171.6c-6.5,48.2-14.6,67.5-52,123.7c-31,46.6-52.9,109.3-53.1,151.7c-0.1,20.5-7.3,53.2-19.1,87.3
	c-15.7,45.1-19.2,65.4-20.4,116.9c-1.2,53.5-3.6,66.5-17,91.5c-9.6,18-17.3,44.8-19.9,70.3c-3.9,37.5-7,44.3-34.4,77
	c-16.5,19.7-30.1,39.2-30.1,43.4c0,4.2-8.4,17.2-18.5,29c-23.4,27.1-34.8,58.2-25.1,68.1c5.2,5.3,9.4,3.6,16.4-6.7
	c13.4-19.5,21.1-17.2,15,4.6c-3.5,12.5-2.9,19.4,2,21.5C798.8,2056.9,833.6,2051.4,851.7,2043L851.7,2043z M1320.3,734.5
	c-17.2-11.1-0.8-14,25.5-4.5l26.4,9.5l-21.4,0.4C1339,740.1,1325.3,737.7,1320.3,734.5L1320.3,734.5z M437,726.9
	c47.5-17.6,50.5-19.9,50.5-36.9c0-10-0.9-18.1-2.1-18.1s-18.1,5.6-37.7,12.5s-36.5,12.5-37.7,12.5s-2.1-49.1-2.1-109.2
	c0-60.1-1-109.2-2.1-109.2c-1.2,0-10.8,3.1-21.4,6.8l-19.3,6.8v131c0,122.3,0.7,130.8,10.7,126.7C381.6,747.6,409.2,737.2,437,726.9
	L437,726.9z M2165.1,622.6V492.2l-19.3-6.8c-10.6-3.8-20.2-6.8-21.4-6.8s-2.1,58.5-2.1,130.1v130.1l19.9,6.5
	c7.2,2.3,14.3,4.7,21.4,7.1C2164.4,752.6,2165.1,694.3,2165.1,622.6z M2071.9,586.5l-1.7-129l-16.8-4.6l-16.8-4.6l-0.1,69.6
	c-0.1,79.8-0.7,79.6-37.4-14.6c-26.9-69-35.6-81.1-58.6-81.1h-14.1v127.9c0,98.1,1.8,127.9,7.7,128c4.2,0,13.8,1.7,21.2,3.8
	c13.4,3.7,13.6,2.8,15.3-72.3l1.7-76l33.5,85.1c18.4,46.8,37.7,87.6,42.9,90.7C2072.9,724.1,2073.6,720.6,2071.9,586.5L2071.9,586.5
	z M543.4,693c2.1-1.3,5.8-17.7,8.1-36.6c4.7-38.5,4.3-38,34.8-43.8l22.2-4.2l7.4,31.5c7.3,30.9,7.8,31.4,26.8,27.7
	c10.6-2.1,20.5-4.7,21.8-5.9c3.1-2.7-55-234.7-60.1-240c-2-2.1-12.1-1.5-22.4,1.4c-18.6,5.2-18.9,6-41.6,106.7
	c-10.3,45.9-20.8,91.8-31.3,137.7l-8.4,36.3l19.4-4.2C530.8,697.2,541.3,694.3,543.4,693L543.4,693z M569.9,566.4
	c2-6.5,5.8-24,8.4-39l4.7-27.2l8.2,33.6c6.8,28.2,6.7,34.3-0.4,38.9C576,582.2,566,579.2,569.9,566.4L569.9,566.4z M1883.5,538.1
	c0-70.1-2.1-128.7-4.6-130.1s-12.2-4.5-21.4-6.7l-16.8-4.1v261.4l16.8,2.6c9.3,1.4,18.9,3,21.4,3.5
	C1881.4,665.2,1883.5,608.2,1883.5,538.1L1883.5,538.1z M727.3,650c6-2.3,7.6-14.5,6.2-45.4c-1.1-23.2-1.1-53.4,0-67
	c1.8-23,3.7-19.6,25.8,46.5l23.8,71.3l22.1-79.9l22.1-79.9l1.7,70.1c1.5,60.2,3.1,69.5,11.2,66.3c5.2-2,14.8-3.7,21.2-3.7
	c11.2,0,11.7-6,11.7-129.7V368.7l-20.9,2.5c-20.5,2.4-21.2,3.6-37.1,56.4c-8.9,29.7-19.8,65.2-24.2,78.9l-8,24.9L763,465.9
	c-11-36-22.1-67.9-24.7-70.8c-2.6-2.9-13.3-3.4-23.8-1.1l-19,4.2v127.6c0,121.4,0.6,127.4,11.7,127.4
	C713.9,653.1,722.8,651.7,727.3,650L727.3,650z M1790.2,517.5l-1.7-129.4l-16.8-2l-16.8-2v100.8l-26-3.7
	c-42.7-6.1-41.3-4.1-41.3-58.6c0-35.9-2.2-50.1-7.6-50.2c-4.2,0-13.9-1.8-21.4-3.8l-13.8-3.8v262l21.4,2.5l21.4,2.5v-58
	c0-64.2-2-61.8,44.4-54l23,3.9v58c0,50,1.5,58.4,10.7,60.8C1792.6,649.8,1792,653.1,1790.2,517.5L1790.2,517.5z M1019.6,607.3
	c25.2-12.2,39.4-38.1,39.9-72.3c0.3-24-2.6-34.3-12.8-44.6c-13.1-13.4-13.1-13.6-1.6-32.9c14-23.5,14.9-48.1,2.5-72.6
	c-11.6-22.8-41.1-31-91.8-25.6l-36.7,3.9l-1.7,130.1l-1.6,130.1l44.5-4.4C984.8,616.4,1011.5,611.2,1019.6,607.3L1019.6,607.3z
	 M958.9,542c0-32.5,1.6-37.5,12.9-40.5c34.3-9.1,59.1,25.4,41.4,57.7c-6.5,12-14.6,16.5-31.6,18l-22.8,1.9L958.9,542L958.9,542z
	 M958.9,431.5v-34.1h20.2c24.5,0,34.9,9.5,34.9,31.7c0,19.8-8.4,27.6-35.2,32.8l-19.9,3.8V431.5L958.9,431.5z M1581.3,606.3
	c16.2-10.8,26.6-44.2,26.6-85.9c0-32.8-0.5-33.2-44.4-37.5l-29.1-2.8v21.1c0,18.3,2,21.1,15.3,21.1c12.3,0,15.3,3.1,15.3,16
	c0,37-29.2,53.4-51,28.8c-30-33.8-23.3-162.5,9-172.9c13.5-4.4,35.9,12,35.9,26.2c0,5.4,7.6,8.4,21.4,8.4c24.3,0,27-8.3,12.3-37.4
	c-12.9-25.5-32.5-37.5-61.3-37.5c-52.6,0-76.3,39.9-76.1,127.9c0.1,58.1,8.9,94.8,27.6,115.9
	C1504.5,621.9,1551.7,626.1,1581.3,606.3z M1202.6,599.7c7.5-5.4,19.7-21.5,27-35.9c19.2-37.5,19.6-131.8,0.7-173.8
	c-12.9-28.6-37.8-48.8-60.4-48.8c-21.4,0-50.2,20.1-63.6,44.3c-28.5,51.6-22.9,165.7,10,205.6c12.8,15.5,19.6,18.3,43.9,18.3
	C1176.3,609.5,1194.9,605.2,1202.6,599.7L1202.6,599.7z M1144.3,555.2c-7.9-12.3-11.3-32.2-12.7-73.3c-1.6-48.3,0-59.4,10.9-77.1
	c15.8-25.8,35.7-25,49.1,2c13.8,27.9,12.7,126.1-1.6,148.4C1176.1,576.7,1158.1,576.7,1144.3,555.2L1144.3,555.2z M1320.2,551.3
	c0-52.7,0.6-54.9,13.1-53c10.4,1.6,17,13.1,32,56.6l18.9,54.6h45.8l-20.1-58.8l-20.1-58.8l16.4-15.8c20.1-19.3,26.3-47.4,17.8-79.8
	c-9.5-36.1-33.5-48.7-92.8-48.7H1284l-1.8,128.4c-1,70.6-1.3,128.9-0.7,129.4c0.6,0.6,9.5,1,19.9,1h18.9L1320.2,551.3L1320.2,551.3z
	 M1324.8,456.2c-2.5-2.6-4.6-20-4.6-38.8v-34.1l25.8,3.5c36.7,5,52.2,30.8,33.9,56.3C1371.6,454.6,1332.3,463.9,1324.8,456.2
	L1324.8,456.2z M176.2,628.2c0-8.6,1.4-12.1,3.1-7.8s1.7,11.3,0,15.6S176.2,636.8,176.2,628.2L176.2,628.2z M177.1,572
	c0-18.9,1.1-26.6,2.6-17.1s1.4,24.9,0,34.3C178.2,598.6,177.1,590.9,177.1,572L177.1,572z"/>
<path d="M1206,2551.8c-150.5-109.4-338.3-287.3-443.8-420.4c-318.8-401.9-469.8-854.2-492.5-1475.1c-6-165,2.3-185.3,92-223.5
	c234.4-100,535.9-150,903.4-149.8c277,0.1,470.5,21.9,682.7,77c96.2,24.9,230.8,72.6,264.9,93.7c25.4,15.8,42.8,44.9,48.2,80.9
	c5.4,35.8-6.9,288.5-19.3,399.4c-64.5,572.9-271.1,1016.2-646.1,1387c-120.5,119.1-303,265.9-330.5,265.9
	C1259,2586.7,1232.5,2571,1206,2551.8L1206,2551.8z M853,2044.4c14.4-9,20.7-18.4,23.8-35.8c2.4-13,9.4-30.4,15.6-38.6
	c8.3-10.9,11.4-25.4,11.4-53.9c0-36.4,1.7-41.1,24.7-69.3c16.9-20.8,29.3-45.4,39.2-78.4c8-26.5,20-55.9,26.6-65.5
	c6.6-9.5,20.7-34.9,31.3-56.3s21.6-39,24.5-39c13,0,21.6,21.8,20.3,51.7c-1.6,38.2,2.7,54.3,14.6,54.3c7.7,0,7.7,2.5-0.4,18.4
	c-5.1,10.1-9.3,21.9-9.3,26.1c0,19.1-27.1,62.2-46.9,74.6c-11.9,7.5-27.7,19.5-35.2,26.8c-8.7,8.3-17.7,16.3-27,24
	c-12.4,10.1-16.5,27.5-13.5,57.8c1.8,18,11,25.8,19.8,16.8c11.6-11.8,18.2-8.7,11,5c-5.9,11.3-4.7,12.5,13.6,12.5
	c23.1,0,59.9-20.6,59.9-33.4c0-8.6,43.3-96.5,58.4-118.6c4.4-6.4,16.5-16.9,26.9-23.4c10.4-6.4,23.6-22.3,29.3-35.1
	c13.8-31.1,31.9-51.5,45.6-51.5c6.1,0,11.2,1.5,11.2,3.3c0,10.5-37.7,76.8-45.4,79.8c-11.4,4.5-42.1,64.8-37.1,73
	c4.8,7.9,21.3,7.7,21.3-0.2c0-3.4,2.7-6.2,5.9-6.2c3.3,0,4.2,4.5,2.2,10c-5.4,14.2,8.1,20.4,32.5,14.8c31.9-7.3,51.3-22.8,51.3-40.8
	c0-8.6,5.9-23.8,13.1-33.8c10-13.8,12.3-23.4,9.5-40.7c-3.5-22.2,5.1-53,15-53c7.1,0,21.1,29.5,29.7,62.4
	c12,45.9,16.7,48.5,86.5,48.5c46.4,0,63-2.2,68.5-9.1c4-5,12.6-15,19.1-22.2c8.4-9.4,12.1-23.3,12.8-48.8
	c0.8-29.8,4.4-40.6,21.9-65.3c26.2-37.1,77.2-74.5,88.5-64.9c4.3,3.7,15.2,25.3,24.2,48.1c14.8,37.6,15.6,44,9,68.1
	c-4,14.7-5.9,34.5-4.1,44s-0.6,26.8-5.4,38.4c-12.2,29.7-10.8,42.8,6.4,60.3c18.6,19,26.7,19.3,33.5,1.3l5.3-14l5.8,15.3l5.8,15.3
	l16.2-16.6c18.3-18.7,20.3-34.7,7.4-60.1c-4.9-9.6-7.3-23.6-5.3-31.1c1.9-7.5,0-30.6-4.3-51.3c-6.4-30.5-6.4-47.2,0-88.7
	c7.4-48.5,7.1-52.5-5.2-75.9c-19.7-37.4-17.4-41,17.7-27.4c53,20.5,108.8,12,130.8-20c15.4-22.4,12.8-30.7-8.2-26.4
	c-32.5,6.6-58.5-3-94.6-35.3l-34.8-31l-3.1-54.6c-3.3-57.3-3.5-90.7-0.9-181.5c1.6-54.9,1.5-55.3-22.7-92
	c-13.3-20.3-28.8-50.3-34.3-66.7c-5.5-16.4-16.2-36.5-23.7-44.6c-12.9-14-13.1-15.7-3.8-34c29.2-57.5,11.8-114.3-45-146.5
	l-33.1-18.8l-156.7-5c-198.7-6.3-236.2-13.6-220.7-43.2c10.2-19.4,31.9-20.1,85-3c53.9,17.3,113.1,21.1,146.4,9.2
	c22.4-8,20-18.1-4.4-18.1c-9.3,0-22.2-4.4-28.7-9.7c-11.1-9.1-10.3-9.5,12.6-6.3c74.9,10.2,101,11.3,101,4.2c0-4-11.7-12.4-26-18.6
	c-88.6-38.4-201-42.6-265.2-9.9c-32.6,16.6-63.9,49.1-63.9,66.5c0,11.5,29.9,35.4,52.8,42.3c13.1,3.9,95.4,9.9,182.9,13.2
	c171.9,6.5,200.7,11.9,223.4,41.3c16.5,21.4,15.8,53.1-1.6,73.7l-13.9,16.5l-47.7-10c-26.2-5.5-71.7-18.8-100.9-29.5
	c-91.7-33.5-92.2-33.4-164.8,28.4c-24.6,20.9-72.7,53.6-107,72.7c-87.2,48.5-104.8,76.5-118.3,188c-2.5,20.9-12.6,43.4-34.8,78
	c-46.9,73-60.1,106.7-66.3,168.8c-3.2,32.1-13,76.3-23.9,107.5c-15.4,44.1-18.5,62.6-18.6,109.9c-0.1,48.4-2.3,61-14.9,84.2
	c-8.2,15-16.6,41.3-18.7,58.5c-6.6,52.9-8.7,58.1-36.4,89.9c-14.8,17-28.9,37.4-31.4,45.3c-2.4,7.9-12.3,23.6-21.9,34.8
	c-19.5,22.7-27.2,45.8-20.9,62.2c3.7,9.5,6.1,8.6,19.6-7.8l15.4-18.7l-3.9,23.4l-3.9,23.4h26.3
	C822.4,2056.5,841.6,2051.4,853,2044.4L853,2044.4z M1323,733.8c-6.4-10.5-1.4-11,21.7-2.3l21.4,8l-19.5,0.5
	C1335.8,740.2,1325.2,737.5,1323,733.8L1323,733.8z M385.6,1269.1c-28.7-149.7-47.5-319.6-57-513c-10-203.4-10.2-205.7-21.6-223.5
	c-5.9-9.1-13.1-16.6-16.1-16.6c-17.7,0,5.4,353.8,35,536.4c17,104.7,55.2,262,63.6,262C392.1,1314.3,390.3,1294,385.6,1269.1
	L385.6,1269.1z M493.6,689c0-12.9-0.9-23.4-2.1-23.4s-18.1,5.6-37.7,12.5s-37,11-38.8,9.3c-1.7-1.8-4.4-49.5-5.9-106.1
	s-5-102.8-7.7-102.8s-12,2.7-20.6,6.1l-15.7,6.1v267.9l64.3-23.1l64.3-23.1L493.6,689L493.6,689z M2160.6,490.3
	c-2.6-2.6-12.3-6.6-21.5-8.9l-16.8-4.2v263.3l19.9,8.3l19.9,8.3l1.7-131C2164.6,553.9,2163.2,492.9,2160.6,490.3L2160.6,490.3z
	 M2079.4,591.1c0-71.8-2.1-131.9-4.6-133.4s-13.8-4.8-25.1-7.2l-20.5-4.5l2.1,63c1.2,34.7,0.7,63-0.9,63c-1.7,0-14.8-30.2-29.2-67.1
	c-31.9-82.1-30.7-80.1-55-85.4l-19.9-4.4v131.1c0,72.1,2.1,132.3,4.6,133.7s12.2,4.5,21.4,6.7l16.8,4.1v-73.1
	c0-40.2,2.3-70.4,5.1-67.2c2.8,3.2,18.4,40.6,34.7,82.9c28.8,75,37.1,86.6,62.7,87.9C2077.6,721.7,2079.4,691.7,2079.4,591.1
	L2079.4,591.1z M529.2,702.5c17-6,19.8-10.7,26.1-43c6.4-33.2,8.6-36.6,25.5-40c27.7-5.6,27.8-5.6,32,19.8
	c6,36.3,9.6,39.5,35.7,32.2c12.5-3.5,22.7-7.9,22.7-9.7s-10.6-43.1-23.7-91.7c-13-48.6-27.3-103.2-31.8-121.4
	c-8-32.3-8.6-32.9-26.9-29c-10.3,2.2-20.7,5.9-23.1,8.1c-4.4,4.2-65.9,259.1-66,273.7C499.7,711,504.7,711.2,529.2,702.5
	L529.2,702.5z M575.6,558.4c2.1-10.5,3.7-23.5,3.7-28.9c0-15.8,10.2-0.2,14.2,21.6c3,16.2,1.4,20.2-9.1,23
	C573.2,577.1,572.2,575.4,575.6,558.4L575.6,558.4z M2250.3,581.4c0.4-45-3.8-71.7-11.3-71.7c-2.3,0-9.2,3.7-15.3,8.2
	c-10.5,7.9-10.6,11.1-0.6,76.4c5.7,37.5,12,72.4,13.9,77.6C2242.1,685.4,2249.9,632.5,2250.3,581.4L2250.3,581.4z M1883.5,538.5
	V405.2l-19.4-3.9c-10.6-2.2-19.9-3.2-20.6-2.3s-3.1,59.6-5.3,130.4l-4,128.8l23.1,6.2c12.7,3.4,23.8,6.5,24.6,6.9
	C1882.8,671.6,1883.5,611.8,1883.5,538.5L1883.5,538.5z M724.7,655.4c13-3.6,13.8-7,14.4-63.9l0.6-60.1l19.9,60.9
	c10.9,33.5,21.4,62.4,23.2,64.3c1.8,1.9,8.9-15.7,15.7-39.1l21.5-73.6l9.1-31.2l0.6,62.9l0.6,62.9l23-3.8l23-3.8L874,500.1
	c-1.3-72-3-131.7-3.9-132.8s-10.8,0.5-22,3.5c-19.9,5.2-20.9,7.2-41.7,79.2L785,523.8l-22.2-67.9c-22-67-22.5-67.9-40.1-65.8
	c-9.8,1.2-19.7,4-22.1,6.2c-2.3,2.3-5.1,62.4-6.1,133.6C692.4,669.8,691.2,664.6,724.7,655.4L724.7,655.4z M1797.8,522.5
	c0-71.8-2.1-131.9-4.6-133.5s-12.9-3.8-23-5l-18.4-2.2l-1.8,48.3c-1.8,48-1.9,48.3-18.4,48.3c-41.3-0.2-43.5-3-45.4-58.3l-1.8-50.8
	l-19.9-2l-19.9-2V496c0,139.8-0.3,138.3,30.9,138.3c10.3,0,11.7-6,13.3-57.7l1.8-57.7l24.5,2.2c13.5,1.2,26.6,3.5,29.1,5
	c2.5,1.6,4.6,29.2,4.6,61.4V646l19.9,2.5c10.9,1.4,22,3,24.5,3.5C1795.7,652.7,1797.8,594.4,1797.8,522.5z M1018.5,612.2
	c40.1-16.6,57.2-78.1,33-118.5c-9.9-16.5-10.3-20.7-3-30.8c11.5-16,10.7-65.6-1.4-83.2c-14.8-21.5-36.8-27.2-86.5-22.5l-44.5,4.2
	v267.1l41.3-4.1C980.1,622.2,1007.6,616.6,1018.5,612.2L1018.5,612.2z M961.4,569.6c-1.8-4.7-2.4-20.9-1.3-35.9
	c1.7-24.6,3.6-27.4,19.1-29.2c24-2.8,34.8,8.7,34.8,37.2c0,20.4-2.6,25.3-15.7,30.4C976.6,580.6,965.2,579.8,961.4,569.6
	L961.4,569.6z M958.9,432.4c0-23.8,2-27.9,14.8-31.2c20.7-5.3,33.6,1.2,38,19c4.9,20-12.6,39.6-35.4,39.6
	C959.9,459.8,958.9,458.3,958.9,432.4L958.9,432.4z M1573.7,614.8c22.2-10.3,34.3-41.4,34.3-88.1v-40.3l-28.4-4
	c-44.6-6.2-45.1-6-45.1,17.9c0,17.7,2.3,21.8,12.2,21.8c17.8,0,18,47.2,0.2,52.9c-31.1,10.1-49.1-24.8-49.2-95.2
	c0-52.3,12.3-82.4,33.9-82.4c12.4,0,17.8,4.4,23.2,19.1c6.5,17.7,8.7,18.8,28.6,15c11.8-2.2,22.3-4.9,23.4-6c1-1-2.1-11.5-6.9-23.3
	c-26.9-65.5-106.2-70.5-133.2-8.3c-16.3,37.5-21.2,97.6-11.8,143.8c10.3,50.6,41.7,84.3,78.6,84.3
	C1547.2,621.9,1565.3,618.7,1573.7,614.8L1573.7,614.8z M1201.3,603.9c27.3-17,41.1-51.3,44.2-110.4c5-95.2-24.7-152.2-79.4-152.2
	c-19.7,0-28.7,4.1-44.9,20.6c-27,27.5-35.4,62.5-32.6,135.4c1.9,47.6,5,63.8,15.8,81.6C1126.8,616,1165.8,626,1201.3,603.9
	L1201.3,603.9z M1152.4,562.4c-31.4-32-25.9-161.2,7.5-174.3c39-15.2,57.4,132.1,21.6,172.5C1169.1,574.5,1164.6,574.8,1152.4,562.4
	z M1430.4,610.6c0-2.8-8.2-29.8-18.3-60.1l-18.3-55.1l18.9-22c17.2-20,18.7-25,16.2-55.3c-4.6-56.2-35-76.8-113.4-76.9h-38.3v268.2
	h49v-56.1c0-74.8,10.2-74.9,36.6-0.4c17.4,49.1,21.7,56.1,36,58.3C1427.8,615.8,1430.4,615.8,1430.4,610.6L1430.4,610.6z
	 M1326.3,420.8v-33.4l21.2,2.5c26.7,3.2,35.2,13.5,32.8,39.8c-1.8,19.5-3.4,20.8-28,22.6l-26,1.9V420.8z M340.3,476.9
	c0.4-8.2-21-5-35.6,5.4l-14,10l14,15.1l14,15.1l10.7-20.5C335.2,490.8,340.1,479.5,340.3,476.9L340.3,476.9z"/>
<path class="st0" d="M1173,2522c-430.5-329.8-696.7-734.8-820.1-1247.6c-49.6-206.2-79.7-461-79.7-675
	c0-116.8,8.2-129.6,108.7-170.3c323-130.7,802.4-176.8,1268.9-121.9c236.1,27.8,534.8,114.7,581.8,169.2
	c19.1,22.2,23.5,34.7,10.6,30c-4.2-1.6-14,2.1-21.7,8.2c-14,11-14,11.2-5.1,63.8c4.9,29,10.8,83,13.2,119.8
	c2.4,36.9,6.4,67.1,8.9,67.1c8.1,0,12.1-44.4,13.6-149.7l1.4-102.9l2.1,84.2c4,158.1-18.9,393.3-56.9,583.6
	c-70.9,355-208.5,661.7-417,929c-131.5,168.6-463.8,470.9-517.7,470.9C1255,2580.5,1220.1,2558,1173,2522L1173,2522z M1320.8,2529.7
	c79.9-52.6,158-119.4,248.1-212.4c123.6-127.5,195.2-212.6,220-261.4c7.6-14.9,7.2-17.8-3.5-27.6c-11.6-10.7-14.4-8.5-96.2,73.8
	c-102.3,102.9-173.1,161.1-173.1,142.3c0-11.1-79.3-56.9-126.6-73.1c-84.5-28.9-176.2-26.3-251.2,7.2l-31.9,14.2l-10.2-35.4
	c-28.8-99.9-45-232.7-29.6-243c3.7-2.5,14.4-22,23.8-43.4c12.2-27.8,26.1-46.8,48.9-66.7c19.3-16.8,34.1-35.6,37.5-47.8
	c5.8-20.6,32.9-46.4,44.4-42.3c10,3.5-12,48.1-39.9,80.9c-13.4,15.8-28,37.7-32.5,48.7c-7.1,17.4-6.9,21.4,1.7,30.1
	c9.1,9.2,10.2,9.1,14.4-2c4.1-10.9,4.9-10.6,8.1,3.6c4.7,20.4,22.9,22.8,57.1,7.4c23.8-10.7,27.3-15,30.8-37
	c2.1-13.7,8.3-28.6,13.6-33.1c6.5-5.5,9.2-16.5,8.2-33.6c-1.6-26.6,5.2-59.7,12.2-59.7c7.4,0,23.9,33.7,28.3,57.7
	c2.4,12.9,9.7,30.4,16.3,39c11.4,14.8,15.1,15.5,75.1,15.5h63.1l17.4-23.3c13.5-18,17.6-30.6,18.4-55.9
	c1.3-44.3,23.7-81.7,68.1-114.2l34.9-25.5l10,13.4c5.5,7.4,15.8,30,23,50.3c10.2,28.8,11.6,40.5,6.8,53.5
	c-3.4,9.2-7.3,33.7-8.5,54.4c-1.3,20.8-4.1,47.9-6.4,60.2c-3.5,19.6-1.9,24.2,12.6,35.9c21.1,16.9,26.3,16.8,33.2-0.7
	c4-10.2,5.6-11.1,5.9-3.5c0.7,17.8,12.8,19.6,28.9,4.1c13.1-12.5,14.8-18.4,11.7-39.6c-3.1-21.8-6.1-43.6-8.9-65.5
	c-2.9-22.3-7.3-45.6-9.8-51.7s-1.1-37,3.2-68.7c7.4-54.8,7.1-58.7-5.4-83.7c-18-35.9-16.8-41.4,6.2-29.3
	c26.6,14,85.7,18.8,109.2,8.8c20-8.4,42.9-33.7,42.9-47.3c0-6.1-7.4-7.4-29.1-4.8c-24.1,2.8-32.4,0.9-48.4-11.2
	c-10.6-8-30.6-23-44.5-33.3c-24-17.8-25-20-21.8-44.4c1.9-14.6-0.9-45.3-6.7-71c-5.6-24.9-8.5-54-6.4-64.7s6.4-32.9,9.7-49.4
	c8.4-41.3-1.6-83.6-30.2-127.7c-12.7-19.7-26.7-47-30.9-60.7c-4.3-13.7-13.1-32.7-19.6-42.2c-11.4-16.6-11.5-18.4-1.5-49
	c19.7-60.3-0.6-109.4-56.7-137.2c-27.3-13.5-39.5-14.8-179.3-19c-134.4-4-204.3-10.7-220.9-21.1c-11.4-7.2-5.4-28.1,10-35.3
	c13.2-6.1,24.2-4.4,68.9,10.8c57,19.3,116.9,23.3,150,9.9c22-8.9,17.1-16.7-13.7-21.7c-13.3-2.2-26-6.8-28.1-10.2
	c-5.2-8.6,7.8-7.8,54.7,3.3c37.9,8.9,70.8,7.5,70.8-3.2c0-6.9-51.7-28.5-95.8-40.1c-49.8-13.1-138.6-12.9-179,0.4
	c-37.2,12.2-77.3,45.3-83,68.4c-5.1,20.8,12,41,44.2,51.8c12.9,4.3,97.3,11.1,194.3,15.6c182.2,8.4,198.8,11.6,220.1,42.5
	c14,20.3,12,51.3-4.6,70.9c-13.9,16.5-14.9,16.7-47.5,9.3c-18.3-4.1-69.2-19.4-113.1-33.9c-61.9-20.5-83.9-25.3-98-21.4
	c-10,2.8-38.8,23.3-64.1,45.5c-25.4,22.4-72.7,54.8-105.8,72.6c-84.4,45.3-110.3,80.5-120.7,164.4c-5.9,47.2-16,71.5-58.6,140.3
	c-29.1,46.9-45.5,94.5-45.5,131.7c0,19.2-8.3,56.6-21.4,96.5c-18.1,55.1-21.4,73.9-21.4,120.7c0,46.9-2.4,60.1-15.3,85.7
	c-8.4,16.6-16.9,44.2-18.8,61.4c-5.7,51.4-7.1,54.7-39.2,93.3c-17,20.4-30.9,42.2-30.9,48.3c0,6.2-2.7,11.2-5.9,11.2
	c-10.3,0-37,45.8-37,63.4c0,23.6,11.7,28.5,25.3,10.7l11.4-14.9l-3.8,20.3c-3.3,17.6-2.1,20.3,9,20.3c8.8,0,17.9,9.2,29.4,29.6
	c64.8,115.6,207.8,285.4,314.5,373.5c53.9,44.5,127.8,95.9,137.9,95.9C1278.4,2555.5,1299.2,2543.9,1320.8,2529.7L1320.8,2529.7z
	 M903.6,1954.2c3.4-9,5.8-30.2,5.4-47c-0.6-25.3,2.6-34.9,17.6-54.5c23.3-30.2,35.2-54,44.4-89c7.9-29.9,71.7-156.2,79-156.2
	c12.8,0,19.1,18.8,19.1,57.1c0,31.6,2.4,43.5,9.5,47.5c15.6,8.9-6.7,72.4-35.2,100.7c-37.1,36.6-55.8,53-73.6,64.4
	c-12.1,7.8-17.9,17.8-20.8,35.9c-2.2,13.8-6.1,25.1-8.8,25.1s-13.4,7.3-23.8,16.2l-18.9,16.2L903.6,1954.2L903.6,1954.2z
	 M1326.3,734.2c-7.6-5-7-6,3.1-5.7c6.7,0.2,17.8,2.8,24.5,5.7c11.2,4.9,11,5.4-3.1,5.7C1342.4,740.1,1331.4,737.6,1326.3,734.2
	L1326.3,734.2z M459.1,1527.9c-11.5-36.9-33.1-117.6-48.1-179.3c-51.3-211.6-68.5-354.2-86.2-715.1c-3-61.4-6.4-83.1-15.4-98.2
	c-13.6-22.8-23.8-25.1-24.4-5.4c-7.8,256.1,33.6,581.8,104.2,819.6c30.7,103.2,80.8,245.5,86.4,245.5
	C478,1595,470.6,1564.8,459.1,1527.9z M649.7,1161.7c119.1-32,230.3-125.4,282.2-237.2c6.4-13.7,11.8-26.3,12.1-28.1
	c0.3-1.7,5.7-20,12-40.5c8.6-27.8,11.6-56.8,11.8-112.3c0.3-83.9-4.2-108.8-19.8-109.9c-5.8-0.4,5.2-3.1,24.4-6
	c66.5-9.9,90.5-34.4,90.5-92c0-21.1-3.7-35.4-11.7-45.5c-11-13.8-11.1-15.5-1.5-26.3c6.7-7.5,10.2-22.4,10.2-42.6
	c0-27.2-2.5-33.3-20-49.2c-21.1-19.2-48.4-23-100.9-14.2l-23,3.9v82.9c0,45.6-1.7,87.3-3.7,92.7s-10.3,9.9-18.4,9.9h-14.7v-90.4
	c0-89.7-0.1-90.4-13.8-90.4c-35.7,0.2-38.3,3.7-59.9,79.5l-20.6,72.5l-21.5-66.7l-21.5-66.7l-21.6,4c-11.9,2.2-23.7,5.2-26.2,6.6
	c-2.5,1.5-4.6,41.5-4.6,88.9v86.3l-16.2,4.1c-8.9,2.3-18.1,1.9-20.5-0.9c-2.4-2.8-12.9-38.3-23.3-79.1
	c-10.4-40.7-20.2-75.3-21.7-76.8s-12.5-0.9-24.4,1.4l-21.7,4.1l-16.1,69.6c-29.1,125.8-23.4,114.1-59.8,122.8
	c-17.6,4.2-41,11.3-52,15.9l-19.9,8.2v-84.5c0-74.8-1.1-84.1-9.8-80.7c-5.4,2.1-16.5,5.5-24.8,7.7l-15,3.8l2.4,141.2
	c2.6,155.7,10.4,212,49.7,357.1c30,110.7,57,179.7,73.2,186.9C507.9,1179.4,605.4,1173.5,649.7,1161.7z M575.6,562.2
	c2.1-5.4,3.7-15.8,3.7-23.1c0-17,9.4-6.9,14.6,15.8c3.4,14.6,2,17.2-9,17.2C575.5,572,572.9,569.3,575.6,562.2L575.6,562.2z
	 M965.1,541.6c0-26,1.9-31,13.2-34c21.3-5.7,35.7,6.1,35.7,29.1c0,25-9.3,35.3-31.8,35.3C965.8,572,965.1,570.8,965.1,541.6
	L965.1,541.6z M742.6,561.6c-2.2-2.3-4-8.6-3.9-14c0.2-8.1,1.3-7.8,6.7,1.5C752,560.7,750.1,569.3,742.6,561.6z M825.2,540.9
	c0-8.6,1.4-12.1,3.1-7.8c1.7,4.3,1.7,11.3,0,15.6C826.6,552.9,825.2,549.4,825.2,540.9z M965.1,431.7c0-27.9,0.1-28.1,21.4-28.1
	c21.5,0,24.9,4.9,21.7,31.2c-1.5,12.1-18,24.9-32.1,24.9C967.1,459.8,965.1,454.6,965.1,431.7L965.1,431.7z M2146.4,996.6
	c17.2-43.7,43.3-202.1,43-260.7c-0.1-22.3-4.7-45.3-12-60.9c-9.8-20.7-11.9-39-12-106.6l-0.2-81.6l-21.3-6.6l-21.2-6.6l-1.7,75.8
	c-1.6,71.7-2.4,75.7-14,73.9c-27.6-4.2-27.6-4-27.6-87.6v-80.5l-19.1-3.9c-10.5-2.1-21.5-3.9-24.5-3.9s-5.5,27.4-5.6,60.8L2030,569
	l-27.9-68.6c-15.3-37.7-29.7-70.4-31.9-72.6c-2.2-2.2-13-5.9-23.9-8.3l-19.9-4.3v81.6c0,81-0.1,81.6-14.1,81.6
	c-25.7,0-28.8-10.2-28.8-94.1c0-76.8-0.4-79.2-13.8-82.9c-35.8-9.8-35.2-11.3-35.2,81v84.9l-13.8-3.8c-7.6-2.1-15.8-3.8-18.4-3.8
	c-2.5-0.1-4.6-39-4.6-86.6v-86.5l-19.1-3.9c-10.5-2.1-21.5-3.9-24.5-3.9s-5.4,22.5-5.4,49.9c0,53.8,0.3,53.4-35.7,46.1l-18.9-3.9
	l-1.8-50.7l-1.8-50.7l-23-1.9l-23-1.9v267.6l21.6,2.6c11.9,1.4,22.9,1.3,24.5-0.4c1.6-1.6,2.9-27.7,2.9-58c0-59.6-0.6-58.7,36-51.2
	l19.1,3.9l0.4,47.6c0.4,52.8,8.9,171.6,13.7,191c23.7,96.6,99.7,185.9,188.8,221.8c47.2,19,74.9,23.7,135.1,22.9
	C2138,1012.6,2140.4,1011.9,2146.4,996.6L2146.4,996.6z M1978.7,589.2c-6.4-21.5-7.9-35.5-3.4-32.8c8.2,5.2,18.5,40.6,11.8,40.6
	C1983.8,597,1980,593.5,1978.7,589.2L1978.7,589.2z M1581.9,612.2c19.7-13.2,26.1-33.5,26.1-83.5c0-47.4-2.6-50-50.5-50.1
	c-22.7-0.1-23,0.2-23,24.9c0,20.8,2,24.9,12.2,24.9c9.4,0,12.2,4.2,12.2,18c0,26.3-14.2,36.1-33.5,23.3
	c-19.3-12.9-24.6-32.6-24.6-91.4c0-71.4,27.2-104.6,50.8-61.9c8.9,16.2,13.5,18.6,31.9,17.1c19.2-1.6,21.3-3.5,20.3-19
	c-2.7-40.6-50.9-74.6-91.1-64.3c-24,6.2-49,36.2-57,68.5c-15,60.5-3.8,144.4,24.1,180.5C1501.8,627.8,1549.4,633.9,1581.9,612.2
	L1581.9,612.2z M1208.8,600.1c25.7-22,38.8-60,39.7-115.3c1.6-91.4-26.9-143.6-78.4-143.6c-54.2,0-85.6,51.5-85.6,140.3
	c0,57.8,13.9,102.3,37.9,121.6C1145.3,621.5,1185.6,620.1,1208.8,600.1z M1148,555.5c-5.5-6.8-9-30.9-10.1-70.2
	c-1.9-66.2,5.2-89.7,28-93.1c22.5-3.3,33.8,33.5,30.7,99.6c-2.6,55.8-9.9,73.9-29.4,73.9C1161.2,565.8,1152.6,561.2,1148,555.5
	L1148,555.5z M1325,558c2.4-72.9,12.4-72.5,38.4,1.6l19.7,56.1h26.7c14.7,0,26.6-0.7,26.5-1.6c-0.1-0.9-9.3-27.8-20.3-59.9
	l-20.1-58.3l17.3-17.6c14.4-14.7,17.3-22.9,17.3-49c0-64.7-21.1-83.1-99.5-87l-53.6-2.7v134.3c0,143.1-0.2,142.1,30.6,139.7
	C1322.9,612.6,1323.3,611.2,1325,558L1325,558z M1326.3,422.4c0-31.1,0-31.2,20.2-31.2c24.3,0,34.9,9.4,34.9,31.2
	s-10.6,31.2-34.9,31.2C1326.3,453.5,1326.3,453.5,1326.3,422.4z M328.3,513.9c0-4.1,7-18,15.5-30.8c12.4-18.6,13.6-23.3,5.9-23.3
	c-10.6,0-58.1,23.3-58.1,28.5c0,1.8,5.9,11.4,13.2,21.5C317.6,527.3,328.3,529.3,328.3,513.9L328.3,513.9z M684.7,369.5
	C941,327.4,1195.1,314.2,1464,329c109.9,6,296.3,24.5,370.4,36.7c32.2,5.3,42.6,4.5,35.5-2.8c-5.2-5.3-149-32.6-225.3-42.7
	c-143.2-19-256.6-24.1-461.9-20.9c-213.7,3.4-303.9,11.4-444.2,39.2c-103.9,20.6-191.5,46.4-157.3,46.4
	C586.7,384.9,633.3,378,684.7,369.5L684.7,369.5z"/>
</svg>
